<?xml version="1.0" encoding="UTF-8"?>
<svg width="120px" height="120px" viewBox="0 0 120 120" version="1.1" xmlns="http://www.w3.org/2000/svg" xmlns:xlink="http://www.w3.org/1999/xlink">
    <!-- Generator: Sketch 52.5 (67469) - http://www.bohemiancoding.com/sketch -->
    <title>ic_authorized cooperation</title>
    <desc>Created with Sketch.</desc>
    <defs>
        <linearGradient x1="0%" y1="0%" x2="101.999998%" y2="100.999999%" id="linearGradient-1">
            <stop stop-color="#3023AE" offset="0%"></stop>
            <stop stop-color="#C86DD7" offset="100%"></stop>
        </linearGradient>
    </defs>
    <g id="Symbols" stroke="none" stroke-width="1" fill="none" fill-rule="evenodd">
        <g id="ic_authorized-cooperation">
            <g>
                <rect id="矩形" fill="#000000" opacity="0" x="0" y="0" width="120" height="120"></rect>
                <path d="M60.2929687,119.683594 C52.2421875,119.683594 44.4375,118.101562 37.0898438,114.996094 C29.9882812,111.996094 23.6132812,107.695312 18.140625,102.222656 C12.6679688,96.75 8.3671875,90.375 5.3671875,83.2734375 C2.26171875,75.9257812 0.6796875,68.1210938 0.6796875,60.0703125 C0.6796875,52.0195312 2.26171875,44.2148437 5.3671875,36.8671875 C8.3671875,29.765625 12.6679688,23.390625 18.140625,17.9179687 C23.6132812,12.4453125 30,8.16796875 37.1015625,5.16796875 C44.4492188,2.0625 52.2539063,0.48046875 60.3046875,0.48046875 C68.3554688,0.48046875 76.1601563,2.0625 83.5078125,5.16796875 C90.609375,8.16796875 96.984375,12.46875 102.457031,17.9414062 C107.929688,23.4140625 112.230469,29.7890625 115.230469,36.890625 C118.335938,44.2382812 119.917969,52.0429688 119.917969,60.09375 C119.917969,68.1445312 118.335938,75.9492187 115.230469,83.296875 C112.230469,90.3984375 107.929688,96.7734375 102.457031,102.246094 C96.984375,107.71875 90.609375,112.019531 83.5078125,115.019531 C76.1484375,118.113281 68.34375,119.683594 60.2929687,119.683594 Z M60.2929687,6.10546875 C30.5273437,6.10546875 6.31640625,30.3164062 6.31640625,60.0820312 C6.31640625,89.8476562 30.5273437,114.058594 60.2929687,114.058594 C90.0585938,114.058594 114.269531,89.8476562 114.269531,60.0820312 C114.269531,30.3164062 90.0585938,6.10546875 60.2929687,6.10546875 Z M60.3515625,106.898437 L60.3398438,101.273438 C62.0625,101.273438 63.8085938,101.15625 65.5078125,100.945312 L66.2109375,106.523438 C64.2773438,106.78125 62.3085938,106.898438 60.3515625,106.898438 Z M54.4921875,106.546875 C52.546875,106.300781 50.6015625,105.9375 48.7148438,105.457031 L50.0976562,100.007813 C51.7617188,100.429688 53.4726562,100.757813 55.1835938,100.96875 L54.4921875,106.546875 Z M71.9882812,105.433594 L70.5820312,99.984375 C72.2460938,99.5507812 73.8984375,99.0234375 75.4921875,98.3789062 L77.5664062,103.605469 C75.7617188,104.332031 73.875,104.941406 71.9882812,105.433594 Z M43.1132812,103.652344 C41.296875,102.9375 39.5039062,102.09375 37.7929688,101.15625 L40.5,96.2226562 C42.0117188,97.0546875 43.5820313,97.7929688 45.1757812,98.4257812 L43.1132812,103.652344 Z M82.8867188,101.097656 L80.1679688,96.1757812 C81.6679688,95.34375 83.1328125,94.40625 84.5273438,93.3984375 L87.84375,97.9453125 C86.2617188,99.09375 84.5976562,100.160156 82.8867188,101.097656 Z M32.8242188,97.9921875 C31.2421875,96.84375 29.71875,95.5898437 28.2890625,94.2539062 L32.1328125,90.1523438 C33.3867188,91.3242188 34.734375,92.4375 36.1171875,93.4453125 L32.8242188,97.9921875 Z M92.3671875,94.1953125 L88.5117188,90.09375 C89.765625,88.9101563 90.9609375,87.6445313 92.0507813,86.3203125 L96.3867188,89.90625 C95.1445313,91.40625 93.796875,92.859375 92.3671875,94.1953125 Z M24.2578125,89.9765625 C23.0039063,88.4765625 21.84375,86.8710938 20.7890625,85.2304688 L25.5351563,82.2070313 C26.4609375,83.6601563 27.4804688,85.0546875 28.5820313,86.3789063 L24.2578125,89.9765625 Z M99.84375,85.1484375 L95.0976562,82.1367188 C96.0234375,80.6835938 96.8554688,79.1601562 97.59375,77.6015625 L102.679687,79.9921875 C101.847656,81.7617188 100.898437,83.4960938 99.84375,85.1484375 Z M17.953125,80.0859375 C17.1210938,78.3164063 16.3828125,76.4765625 15.7734375,74.625 L21.1171875,72.8789062 C21.6445312,74.5078125 22.2890625,76.125 23.0273438,77.6835938 L17.953125,80.0859375 Z M104.847656,74.53125 L99.4921875,72.796875 C100.019531,71.1679688 100.453125,69.4804688 100.769531,67.7929688 L106.300781,68.8359375 C105.9375,70.7578125 105.445312,72.6679688 104.847656,74.53125 Z M14.3203125,68.9296875 C13.9570312,67.0195312 13.7109375,65.0507812 13.5820312,63.09375 L19.1953125,62.7421875 C19.3007812,64.4648438 19.5234375,66.1875 19.8398438,67.875 L14.3203125,68.9296875 Z M107.027344,63 L101.414062,62.6601562 C101.460937,61.8164062 101.496094,60.9492187 101.496094,60.09375 C101.496094,59.2265625 101.472656,58.3476562 101.414062,57.4804688 L107.027344,57.1289062 C107.085937,58.1132812 107.121094,59.109375 107.121094,60.09375 C107.109375,61.0546875 107.085937,62.0390625 107.027344,63 Z M19.1835937,57.5625 L13.5703125,57.2226562 C13.6875,55.265625 13.9335937,53.3085938 14.2851562,51.3867188 L19.8164062,52.4296875 C19.5,54.1171875 19.2890625,55.8515625 19.1835937,57.5625 Z M100.757812,52.3476562 C100.441406,50.6601562 100.007813,48.9726562 99.46875,47.34375 L104.8125,45.609375 C105.421875,47.4726562 105.902344,49.3828125 106.277344,51.3046875 L100.757812,52.3476562 Z M21.0820313,47.4257813 L15.7265625,45.703125 C16.3242187,43.8398438 17.0507812,42 17.8828125,40.2304688 L22.9804687,42.6210938 C22.2539062,44.1679688 21.609375,45.7851562 21.0820312,47.4257812 Z M97.5703125,42.5390625 C96.84375,40.9921875 96,39.46875 95.0742188,38.015625 L99.8203125,34.9921875 C100.875,36.6445312 101.824219,38.3671875 102.65625,40.1367188 L97.5703125,42.5390625 Z M25.4765625,38.0742188 L20.71875,35.0625 C21.7617188,33.4101562 22.921875,31.8164062 24.1640625,30.3046875 L28.5,33.8789062 C27.4101563,35.2148437 26.390625,36.6210937 25.4765625,38.0742188 Z M92.0390625,33.8320312 C90.9375,32.5078125 89.7539062,31.2421875 88.5,30.0585938 L92.3554688,25.9570312 C93.7734375,27.2929688 95.1328125,28.734375 96.375,30.234375 L92.0390625,33.8320312 Z M32.0390625,30.1054687 L28.1835938,26.015625 C29.6015625,24.6796875 31.125,23.4140625 32.7070312,22.265625 L36.0234375,26.8125 C34.6289062,27.8203125 33.2929688,28.9335938 32.0390625,30.1054688 Z M84.5039062,26.7539062 C83.109375,25.7460938 81.6445312,24.8085938 80.1328125,23.9765625 L82.8515625,19.0546875 C84.5625,19.9921875 86.2265625,21.0585938 87.8085938,22.2070312 L84.5039062,26.7539063 Z M40.3828125,24.0234375 L37.6640625,19.1015625 C39.375,18.1523438 41.15625,17.3085938 42.9726563,16.5820312 L45.0585938,21.8085938 C43.453125,22.4414062 41.8828125,23.1914062 40.3828125,24.0234375 Z M75.4570312,21.7734375 C73.8632812,21.140625 72.1992188,20.6015625 70.5351562,20.1796875 L71.9296875,14.7304688 C73.828125,15.2109375 75.703125,15.8320313 77.53125,16.546875 L75.4570312,21.7734375 Z M49.9570313,20.203125 L48.5507813,14.7539062 C50.4375,14.2617187 52.3828125,13.8984375 54.328125,13.640625 L55.0429688,19.21875 C53.3320313,19.4414062 51.6210938,19.7695312 49.9570313,20.203125 Z M65.4609375,19.21875 C63.7617188,19.0078125 62.0273438,18.9023438 60.2929688,18.9023438 L60.1992188,18.9023438 L60.1875,13.2773438 L60.2929688,13.2773438 C62.25,13.2773438 64.21875,13.3945312 66.1523438,13.640625 L65.4609375,19.21875 Z M37,42.0983333 C37,39.2821111 39.2821111,37 42.0983333,37 L77.9016667,37 C80.7178889,37 83,39.2821111 83,42.0983333 L83,77.9016667 C83,80.7173984 80.7173984,83 77.9016667,83 L42.0983333,83 C40.7461713,83 39.4493902,82.4628557 38.4932673,81.5067327 C37.5371443,80.5506098 37,79.2538287 37,77.9016667 L37,42.0983333 Z M60,77.8888889 C69.8797605,77.8888889 77.8888889,69.8797605 77.8888889,60 C77.8888889,50.1202395 69.8797605,42.1111111 60,42.1111111 C50.1202395,42.1111111 42.1111111,50.1202395 42.1111111,60 C42.1111111,69.8797605 50.1202395,77.8888889 60,77.8888889 Z M60,72.7777778 C52.9430282,72.7777778 47.2222222,67.0569718 47.2222222,60 C47.2222222,52.9430282 52.9430282,47.2222222 60,47.2222222 C67.0569717,47.2222223 72.7777776,52.9430283 72.7777776,60 C72.7777776,67.0569717 67.0569717,72.7777777 60,72.7777778 Z M60,63.8333333 L64.5054445,66.2023333 L63.6467778,61.1857778 L67.291,57.631 L62.254,56.8975555 L60,52.3333333 L57.746,56.8975555 L52.709,57.631 L56.3532222,61.1832222 L55.4945555,66.2023333 L60,63.8333333 Z" id="合并形状" fill="url(#linearGradient-1)" fill-rule="nonzero"></path>
            </g>
        </g>
    </g>
</svg>