<?xml version="1.0" encoding="UTF-8"?>
<svg width="20px" height="20px" viewBox="0 0 20 20" version="1.1" xmlns="http://www.w3.org/2000/svg" xmlns:xlink="http://www.w3.org/1999/xlink">
    <!-- Generator: Sketch 52.5 (67469) - http://www.bohemiancoding.com/sketch -->
    <title>ic_enterprise-pr</title>
    <desc>Created with Sketch.</desc>
    <g id="个人中心" stroke="none" stroke-width="1" fill="none" fill-rule="evenodd">
        <g id="企业主页" transform="translate(-507.000000, -379.000000)">
            <rect fill="#FFFFFF" x="0" y="0" width="1280" height="1744"></rect>
            <g id="ic_enterprise-pr" transform="translate(507.000000, 379.000000)">
                <g>
                    <rect id="矩形" fill="#000000" opacity="0" x="0" y="0" width="20" height="20"></rect>
                    <g id="分组-2" transform="translate(2.500000, 1.250000)" fill-rule="nonzero">
                        <path d="M8.08103255,3.06971391 C9.49016479,4.20655461 11.2689567,4.79275345 13.0827722,4.71803149 L13.0827722,9.00133563 C13.0827722,11.0443208 10.4416667,14.6543685 8.08103255,14.6543685 C5.72039843,14.6543685 3.07929293,11.0443208 3.07929293,9.00133563 L3.07929293,4.72963936 C4.89295612,4.80328472 6.67137451,4.21720897 8.08103255,3.08132178 L8.08103255,3.06971391 Z M14.0761083,9.02455137 C14.0761083,11.4854199 10.8974327,15.8151555 8.06934624,15.8151555 C5.24125982,15.8151555 2.05089787,11.4970277 2.05089787,9.03615924 L2.05089787,3.88226483 C4.22956236,3.96832117 6.36510507,3.26262707 8.05765993,1.89731901 C9.75274786,3.26627315 11.8933205,3.9722559 14.0761083,3.88226483 L14.0761083,9.02455137 Z M8.05765993,0.736531987 C6.08325979,2.33316379 3.58984792,3.15872257 1.04587542,3.05810604 L1.04587542,9.07098285 C1.04587542,11.9381268 4.76212121,16.9991582 8.05765993,16.9991582 C11.3531987,16.9991582 15.0694444,11.9381268 15.0694444,9.07098285 L15.0694444,3.05810604 C12.525318,3.15980063 10.031532,2.33411796 8.05765993,0.736531987 Z" id="形状" fill="#FF6666"></path>
                        <path d="M10.8038194,10.6452089 L10.4392361,10.6452089 L10.4392361,8.1295839 C10.4392361,7.9108339 10.2934028,7.71031307 10.1111111,7.65562557 L8.67100694,7.1998964 C8.61631944,7.18166723 8.56163194,7.1998964 8.50694444,7.21812557 C8.47048611,7.2545839 8.43402778,7.3092714 8.43402778,7.3639589 L8.43402778,10.6452089 L8.25173611,10.6452089 L8.25173611,6.2702089 C8.25173611,6.12437557 8.19704861,6.01500057 8.08767361,5.92385473 C7.96006944,5.8327089 7.79600694,5.81447973 7.63194444,5.85093807 L6.08246528,6.28843807 C5.86371528,6.34312557 5.69965278,6.56187557 5.69965278,6.79885473 L5.69965278,10.6634381 L5.33506944,10.6634381 C5.22569444,10.6634381 5.15277778,10.7363547 5.15277778,10.8457297 C5.15277778,10.9551047 5.22569444,11.0280214 5.33506944,11.0280214 L10.8038194,11.0280214 C10.9131944,11.0280214 10.9861111,10.9551047 10.9861111,10.8457297 C10.9861111,10.7363547 10.9131944,10.6452089 10.8038194,10.6452089 Z M9.25434028,9.0045839 L9.61892361,9.0045839 C9.72829861,9.0045839 9.80121528,9.07750057 9.80121528,9.18687557 C9.80121528,9.29625057 9.72829861,9.36916723 9.61892361,9.36916723 L9.25434028,9.36916723 C9.14496528,9.36916723 9.07204861,9.29625057 9.07204861,9.18687557 C9.07204861,9.07750057 9.14496528,9.0045839 9.25434028,9.0045839 Z M6.61111111,7.54625057 L7.34027778,7.54625057 C7.44965278,7.54625057 7.52256944,7.61916723 7.52256944,7.72854223 C7.52256944,7.83791723 7.44965278,7.9108339 7.34027778,7.9108339 L6.61111111,7.9108339 C6.50173611,7.9108339 6.42881944,7.83791723 6.42881944,7.72854223 C6.42881944,7.61916723 6.50173611,7.54625057 6.61111111,7.54625057 Z M6.61111111,9.0045839 L7.34027778,9.0045839 C7.44965278,9.0045839 7.52256944,9.07750057 7.52256944,9.18687557 C7.52256944,9.29625057 7.44965278,9.36916723 7.34027778,9.36916723 L6.61111111,9.36916723 C6.50173611,9.36916723 6.42881944,9.29625057 6.42881944,9.18687557 C6.42881944,9.07750057 6.50173611,9.0045839 6.61111111,9.0045839 Z" id="形状" fill="#FFFFFF"></path>
                    </g>
                </g>
            </g>
        </g>
    </g>
</svg>