<?xml version="1.0" encoding="UTF-8"?>
<svg width="16px" height="16px" viewBox="0 0 16 16" version="1.1" xmlns="http://www.w3.org/2000/svg" xmlns:xlink="http://www.w3.org/1999/xlink">
    <!-- Generator: Sketch 52.5 (67469) - http://www.bohemiancoding.com/sketch -->
    <title>40-认证 copy 2</title>
    <desc>Created with Sketch.</desc>
    <g id="个人中心" stroke="none" stroke-width="1" fill="none" fill-rule="evenodd">
        <g id="企业认证--填写后" transform="translate(-153.000000, -285.000000)">
            <g id="40-认证-copy-2" transform="translate(153.000000, 285.000000)">
                <rect id="矩形" fill="#000000" opacity="0" x="0" y="0" width="16" height="16"></rect>
                <g id="分组-2" transform="translate(2.000000, 1.000000)" fill-rule="nonzero">
                    <path d="M6.46482604,2.45577113 C7.59213183,3.36524369 9.01516535,3.83420276 10.4662177,3.77442519 L10.4662177,7.2010685 C10.4662177,8.83545664 8.35333333,11.7234948 6.46482604,11.7234948 C4.57631874,11.7234948 2.46343434,8.83545664 2.46343434,7.2010685 L2.46343434,3.78371149 C3.91436489,3.84262777 5.3370996,3.37376717 6.46482604,2.46505743 L6.46482604,2.45577113 Z M11.2608866,7.21964109 C11.2608866,9.18833589 8.71794613,12.6521244 6.45547699,12.6521244 C4.19300786,12.6521244 1.64071829,9.19762219 1.64071829,7.22892739 L1.64071829,3.10581187 C3.38364989,3.17465694 5.09208405,2.61010166 6.44612795,1.51785521 C7.80219829,2.61301852 9.51465641,3.17780472 11.2608866,3.10581187 L11.2608866,7.21964109 Z M6.44612795,0.589225589 C4.86660783,1.86653103 2.87187833,2.52697806 0.836700337,2.44648483 L0.836700337,7.25678628 C0.836700337,9.55050145 3.80969697,13.5993266 6.44612795,13.5993266 C9.08255892,13.5993266 12.0555556,9.55050145 12.0555556,7.25678628 L12.0555556,2.44648483 C10.0202544,2.5278405 8.0252256,1.86729437 6.44612795,0.589225589 Z" id="形状" fill="#999999"></path>
                    <path d="M8.64305556,8.51616712 L8.35138889,8.51616712 L8.35138889,6.50366712 C8.35138889,6.32866712 8.23472222,6.16825045 8.08888889,6.12450045 L6.93680556,5.75991712 C6.89305556,5.74533379 6.84930556,5.75991712 6.80555556,5.77450045 C6.77638889,5.80366712 6.74722222,5.84741712 6.74722222,5.89116712 L6.74722222,8.51616712 L6.60138889,8.51616712 L6.60138889,5.01616712 C6.60138889,4.89950045 6.55763889,4.81200045 6.47013889,4.73908379 C6.36805556,4.66616712 6.23680556,4.65158379 6.10555556,4.68075045 L4.86597222,5.03075045 C4.69097222,5.07450045 4.55972222,5.24950045 4.55972222,5.43908379 L4.55972222,8.53075045 L4.26805556,8.53075045 C4.18055556,8.53075045 4.12222222,8.58908379 4.12222222,8.67658379 C4.12222222,8.76408379 4.18055556,8.82241712 4.26805556,8.82241712 L8.64305556,8.82241712 C8.73055556,8.82241712 8.78888889,8.76408379 8.78888889,8.67658379 C8.78888889,8.58908379 8.73055556,8.51616712 8.64305556,8.51616712 Z M7.40347222,7.20366712 L7.69513889,7.20366712 C7.78263889,7.20366712 7.84097222,7.26200045 7.84097222,7.34950045 C7.84097222,7.43700045 7.78263889,7.49533379 7.69513889,7.49533379 L7.40347222,7.49533379 C7.31597222,7.49533379 7.25763889,7.43700045 7.25763889,7.34950045 C7.25763889,7.26200045 7.31597222,7.20366712 7.40347222,7.20366712 Z M5.28888889,6.03700045 L5.87222222,6.03700045 C5.95972222,6.03700045 6.01805556,6.09533379 6.01805556,6.18283379 C6.01805556,6.27033379 5.95972222,6.32866712 5.87222222,6.32866712 L5.28888889,6.32866712 C5.20138889,6.32866712 5.14305556,6.27033379 5.14305556,6.18283379 C5.14305556,6.09533379 5.20138889,6.03700045 5.28888889,6.03700045 Z M5.28888889,7.20366712 L5.87222222,7.20366712 C5.95972222,7.20366712 6.01805556,7.26200045 6.01805556,7.34950045 C6.01805556,7.43700045 5.95972222,7.49533379 5.87222222,7.49533379 L5.28888889,7.49533379 C5.20138889,7.49533379 5.14305556,7.43700045 5.14305556,7.34950045 C5.14305556,7.26200045 5.20138889,7.20366712 5.28888889,7.20366712 Z" id="形状" fill="#FFFFFF"></path>
                </g>
            </g>
        </g>
    </g>
</svg>