<?xml version="1.0" encoding="UTF-8"?>
<svg width="84px" height="84px" viewBox="0 0 84 84" version="1.1" xmlns="http://www.w3.org/2000/svg" xmlns:xlink="http://www.w3.org/1999/xlink">
    <!-- Generator: Sketch 52.5 (67469) - http://www.bohemiancoding.com/sketch -->
    <title>ic_hyal</title>
    <desc>Created with Sketch.</desc>
    <defs>
        <linearGradient x1="0%" y1="50%" x2="101.734617%" y2="59.7295168%" id="linearGradient-1">
            <stop stop-color="#8A54BE" offset="0%"></stop>
            <stop stop-color="#C560EF" offset="100%"></stop>
        </linearGradient>
    </defs>
    <g id="Symbols" stroke="none" stroke-width="1" fill="none" fill-rule="evenodd">
        <g id="ic_hyal" fill="url(#linearGradient-1)" fill-rule="nonzero">
            <g id="合并形状">
                <path d="M73.500204,13.4623737 L59.9449945,13.4623737 C59.0679034,9.76386042 55.4000019,7.03019268 51.0144555,7.03019268 L48.6223971,7.03019268 C48.6223971,3.73366774 45.9113552,1 42.6421149,1 C39.3728745,1 36.6618326,3.73366783 36.6618326,7.03019268 L33.6318072,7.03019268 C29.2462608,7.03019268 25.5784502,9.84429483 24.7012681,13.4623737 L11.5449927,13.4623737 C8.99339705,13.4623737 7,15.5528417 7,18.0452981 L7,76.4170756 C7,78.9899664 9.07316572,81 11.5449927,81 L73.4205263,81 C75.9721219,81 77.9655189,78.909532 77.9655189,76.4170756 L77.965519,18.0452982 C78.0451967,15.4724074 75.9720309,13.4623737 73.500204,13.4623737 Z M42.6422058,3.5728908 C44.4761566,3.5728908 45.9911238,5.1005017 45.9911238,6.94975836 L39.2932877,6.94975836 C39.2932877,5.10059339 40.808255,3.5728908 42.6422058,3.5728908 Z M74.1381711,76.4170756 C74.1381711,76.7387214 73.8191875,77.0602753 73.5002949,77.0602753 L11.5449927,77.0602754 C11.2260091,77.0602754 10.9071165,76.8190641 10.9071165,76.4170757 L10.9071165,18.0452982 C10.9071165,17.7236525 11.2261001,17.4020985 11.5449927,17.4020985 L73.4205263,17.4020985 C73.7395098,17.4020985 74.0584024,17.7237443 74.0584024,18.0452982 L74.0584025,76.4170756 L74.1381711,76.4170756 Z M50.1374554,33.1608137 C47.8250747,28.7386663 43.6788342,28.4171123 42.4827596,28.4171123 C42.4029909,28.4171123 42.3233132,28.4171123 42.2435446,28.4171123 C42.163776,28.4171123 42.0840983,28.4171123 42.0043297,28.4171123 C40.8082551,28.4171123 36.7416923,28.738758 34.4294025,33.1608137 C34.3496338,33.3215907 32.3562368,37.7437381 34.987601,42.0854513 C35.0673697,42.1658857 36.5823369,44.4974733 36.7417831,44.8191191 C36.9012294,45.1407648 37.0607667,45.8643072 37.0607667,46.34673 L37.0607667,48.1959866 C37.0607667,48.3567637 37.0607667,48.437198 37.0607667,48.597975 C37.0607667,48.9196208 37.0607667,49.1608321 37.0607667,49.4823862 C37.0607667,50.1255859 37.5391966,50.6080087 38.0973041,50.6884431 C38.4959653,50.7688775 38.8149489,50.7688775 39.3730564,50.7688775 C39.69204,50.7688775 39.7717176,50.9296546 39.8514863,51.0100889 C40.2501475,51.8140657 41.2070072,52.3769228 42.3233132,52.3769228 C42.8815117,52.3769228 43.3598506,52.2161457 43.7586028,52.055277 C44.157264,51.8140657 44.4762476,51.4924199 44.7154625,51.0904315 C44.7952312,51.0099971 44.8749088,50.8492202 45.273661,50.8492202 C45.6724131,50.8492202 45.9913058,50.8492202 46.2305207,50.7687858 C47.1076118,50.6883514 47.5860416,50.125586 47.506273,49.2411749 C47.506273,49.0803978 47.506273,48.9195291 47.4265044,48.7587521 C47.4265044,48.597975 47.3467357,48.3567637 47.4265044,48.195895 C47.4265044,47.9546836 47.4265044,46.4270727 47.506273,46.1858613 C47.5860417,45.7034385 47.6657193,45.1406732 47.8252566,44.8190274 C47.9847029,44.577816 49.4997611,42.2461366 49.5794387,42.0853596 C52.2902987,37.7437381 50.217133,33.3216824 50.1374554,33.1608137 Z M48.3832731,41.3618171 C48.3035045,41.5225941 46.7885372,43.7738392 46.629091,44.0150505 C46.5493223,44.0954849 46.4696447,44.2562619 46.4696447,44.3366963 C46.1506611,44.979896 45.512785,45.3818844 44.7951402,45.3818844 L39.69204,45.3818844 C39.0541638,45.3818844 38.4162876,44.979896 38.1770727,44.3366963 C38.0973041,44.1759193 38.0176264,44.0150505 37.9378578,43.9347079 C37.7784115,43.6934966 36.3431219,41.4422515 36.1836757,41.2814745 C34.0308323,37.7438299 35.6254772,34.0453167 35.7850145,33.8041052 C38.575825,28.577981 46.1507522,28.6584154 48.9415627,33.8041052 C49.0211493,34.0452249 50.5361166,37.7437381 48.3832731,41.3618171 Z M44.2369417,41.6030285 C44.3167104,41.3618171 44.396388,41.0401714 44.4761566,40.7990517 L44.4761566,40.7186173 C44.5559253,40.5578403 44.5559253,40.3969715 44.6356029,40.2361945 C45.1140328,38.6281492 45.5924626,37.020104 46.0708925,35.4120587 C46.1506612,35.0100703 45.9911238,34.8492016 45.9114462,34.7688589 C45.8316775,34.6884245 45.7519999,34.6884245 45.5924626,34.6884245 C45.3532477,34.6884245 45.1938014,34.8492016 45.1140327,35.0904129 C45.0342641,35.3316243 44.9545864,35.5728357 44.9545864,35.7336126 L44.8748177,35.974824 L44.7153714,35.8943896 C44.1571729,35.6531782 43.5990654,35.5727438 43.0408669,35.4924012 L42.9610982,35.4924012 L42.9610982,35.4119668 C42.9610982,35.3315324 42.9610982,35.1707554 42.9610982,35.090321 C42.9610982,35.0098866 42.9610982,34.929544 42.9610982,34.8491097 C42.9610982,34.5274639 42.7218833,34.2862526 42.4028998,34.2862526 C42.0839162,34.2862526 41.9244699,34.5274639 41.8447013,34.8491097 C41.8447013,35.090321 41.8447013,35.2510981 41.8447013,35.4119668 L41.8447013,35.4924012 L41.7649326,35.4924012 C41.4459491,35.4924012 41.2067342,35.5728356 40.9676102,35.5728356 C40.7283953,35.65327 40.4891803,35.7336126 40.1702877,35.814047 L39.8513042,35.8944814 L39.7715355,35.65327 C39.6917668,35.4120587 39.6120892,35.2512816 39.6120892,35.0100703 C39.5323205,34.7688589 39.2931056,34.5276475 39.1336593,34.5276475 C39.1336593,34.5276475 39.0538906,34.5276475 38.974213,34.5276475 C38.8147666,34.6080819 38.7349981,34.6884245 38.6552294,34.7688588 C38.5754607,34.9296359 38.5754607,35.0905046 38.6552294,35.2512816 C39.2134279,37.2613153 39.7715354,39.2713489 40.4094115,41.4422513 C40.4891802,41.6834627 40.6486264,41.8442397 40.8878414,41.8442397 C40.9676101,41.8442397 40.9676101,41.8442397 41.0472877,41.8442397 C41.2067341,41.8442397 41.2865026,41.6834627 41.3662713,41.6030284 C41.44604,41.522594 41.44604,41.361817 41.3662713,41.1206056 C41.1270564,40.4774059 40.9676101,39.7537717 40.8080728,39.1105719 L40.6486265,38.4673722 C40.5688579,38.1457264 40.4094116,37.743738 40.329643,37.3417496 L40.0904281,37.0201039 L40.1701967,36.9396695 C40.6486266,36.7788924 41.0472878,36.6180237 41.6054863,36.6180237 L41.7649326,36.6180237 L41.7649326,36.8592351 C41.7649326,36.9396695 41.7649326,37.0200121 41.7649326,37.1004464 C41.7649326,37.3416578 41.7649326,37.5024348 41.7649326,37.7436462 C41.7649326,38.0652919 42.0041475,38.3065033 42.3231311,38.3065033 C42.6421147,38.3065033 42.801561,38.0652919 42.8813296,37.7436462 C42.8813296,37.6632117 42.8813296,37.5828691 42.8813296,37.5024348 L42.8813296,37.4220004 L42.8813296,36.5375892 L43.0407759,36.5375892 C43.5192058,36.6180236 43.9976356,36.6983663 44.4760655,36.859235 L44.5558342,36.9396694 L44.5558342,37.0201038 L44.5558342,37.1005382 L44.1571729,38.3869378 C43.917958,39.3517832 43.5989745,40.2361944 43.3598505,41.2010399 C43.2800818,41.3618169 43.3598505,41.5226857 43.4396192,41.6834627 C43.5193878,41.8442397 43.7586027,41.924674 43.9180491,41.8442397 C44.0774954,42.0051085 44.2369417,41.8442398 44.2369417,41.6030285 Z M33.1535592,43.4522851 C33.0737905,43.5327195 32.9941128,43.7739309 32.8345756,43.8542735 C32.4359144,44.1759193 31.9574845,44.4171306 31.5588232,44.6582503 C31.2398397,44.8190273 30.8411785,44.7386847 30.6817321,44.4170389 C30.5222858,44.0953932 30.6019635,43.7738392 30.920947,43.5326278 C31.3196083,43.2914164 31.7182695,43.050205 32.1966994,42.8089936 C32.5953607,42.567874 33.1535592,42.8090853 33.1535592,43.4522851 Z M32.4359144,31.8744142 C32.3561457,31.8744142 32.276468,31.7939797 32.1169308,31.7939797 C31.7182696,31.5527684 31.3196083,31.3919914 31.0006248,31.15078 C30.6019636,30.9095687 30.5221949,30.5879229 30.6816412,30.2663688 C30.8410875,29.9447231 31.2398397,29.8643805 31.6385009,30.1055918 C32.0371621,30.3468032 32.4358233,30.5880146 32.8345756,30.8292259 C33.0737905,30.990003 33.1535592,31.2312143 33.0737905,31.5528601 C32.9941129,31.7136371 32.7548979,31.8744142 32.4359144,31.8744142 Z M31.1601621,37.9046068 C31.0803934,37.9046068 31.0007158,37.9850412 30.8411785,37.9850412 C30.4425173,37.9850412 29.9640874,37.9850412 29.5654262,37.9850412 C29.166765,37.9850412 28.8477814,37.7438299 28.8477814,37.3418415 C28.8477814,36.9398531 29.166765,36.6986418 29.5654262,36.6986418 C30.0438561,36.6986418 30.5222859,36.6986418 31.0007158,36.6986418 C31.3196994,36.6986418 31.4791457,36.9398531 31.5589143,37.1810646 C31.5588233,37.4221841 31.399377,37.7437381 31.1601621,37.9046068 Z M55.4000019,37.9046068 C55.3202332,37.9046068 55.2405556,37.9850412 55.0810183,37.9850412 C54.6823571,37.9850412 54.2039272,37.9850412 53.805266,37.9850412 C53.4066047,37.9850412 53.0876212,37.7438299 53.0876212,37.3418415 C53.0876212,36.9398531 53.4066047,36.6986418 53.805266,36.6986418 C54.2836959,36.6986418 54.7621257,36.6986418 55.2405556,36.6986418 C55.5595391,36.6986418 55.7189855,36.9398531 55.798754,37.1810646 C55.8784317,37.4221841 55.7189854,37.7437381 55.4000019,37.9046068 Z M51.4929763,43.4522851 C51.572745,43.5327195 51.6524226,43.7739309 51.8119599,43.8542735 C52.2106211,44.1759193 52.689051,44.4171306 53.0877122,44.6582503 C53.4066958,44.8190273 53.805357,44.7386847 53.9648033,44.4170389 C54.1242496,44.0953932 54.044572,43.7738392 53.7255884,43.5326278 C53.3269272,43.2914164 52.928266,43.050205 52.4498361,42.8089936 C51.9714061,42.567874 51.4929763,42.8090853 51.4929763,43.4522851 Z M52.2106211,31.8744142 C52.2903897,31.8744142 52.3700674,31.7939797 52.5296046,31.7939797 C52.9282659,31.5527684 53.3269271,31.3919914 53.6459107,31.15078 C54.0445719,30.9095687 54.1243406,30.5879229 53.9648942,30.2663688 C53.8054479,29.9447231 53.4066958,29.8643805 53.0080345,30.1055918 C52.6093733,30.3468032 52.2107121,30.5880146 51.8119599,30.8292259 C51.572745,30.990003 51.4929763,31.2312143 51.572745,31.5528601 C51.6524226,31.7136371 51.8916375,31.8744142 52.2106211,31.8744142 Z M54.6026793,55.6733558 L49.3400419,53.6633221 C48.9413807,53.5828877 48.5427194,53.5025451 48.1439672,53.3416764 L47.745306,53.261242 C47.6655373,53.261242 47.5858597,53.261242 47.5060911,53.261242 C47.4263225,53.261242 47.3466448,53.261242 47.2668762,53.261242 L47.1871075,53.261242 L47.1871075,53.3416764 C47.1871075,53.4221108 47.1073388,53.5024534 47.1073388,53.5828877 C47.0275702,53.8240991 46.9478925,54.1456531 46.8681239,54.3868645 C46.628909,55.4320526 46.3099255,56.4773325 45.9910328,57.5225207 C45.5126029,59.0501316 44.9544955,60.5778342 44.4760656,62.0250108 C44.4760656,62.1054452 44.3962969,62.1857878 44.3962969,62.2662221 C44.3165282,61.9445764 44.3165282,61.542588 44.2368506,61.1405996 C44.1570819,60.8189539 44.1570819,60.4169655 44.0774043,60.0149771 C43.8381894,58.3264975 43.678743,56.8793209 43.678743,56.7184522 C43.7585117,56.5576751 43.8381894,56.3968064 43.9179579,56.2360294 C43.9179579,56.2360294 43.9179579,56.2360294 43.9179579,56.155595 L43.9179579,56.0751606 C43.9179579,55.9947262 43.9977266,55.9143835 43.9977266,55.8339492 C43.9977266,55.8339492 43.9977266,55.7535148 44.0774953,55.7535148 C44.0774953,55.7535148 44.0774953,55.7535148 44.0774953,55.6730804 L44.0774953,55.592646 C44.157264,55.431869 44.2369416,55.3514346 44.2369416,55.1102232 C44.2369416,54.9494462 44.1571729,54.7885775 44.1571729,54.7082348 L44.0774043,54.6278004 C44.0774043,54.6278004 44.0774043,54.6278004 44.0774043,54.547366 C44.0774043,54.547366 44.0774043,54.4669316 43.9976356,54.386589 C43.9976356,54.3061546 43.9178669,54.3061546 43.8381893,54.2258119 C43.7584206,54.1453775 43.678743,54.1453775 43.5989744,54.1453775 L43.5192057,54.1453775 C43.439437,54.1453775 43.439437,54.1453775 43.3597594,54.1453775 C43.2003131,54.1453775 42.8015609,54.1453775 42.2434534,54.1453775 C41.6853458,54.1453775 41.2865937,54.1453775 41.1271473,54.1453775 C41.1271473,54.1453775 41.0473787,54.1453775 40.967701,54.1453775 L40.8879324,54.1453775 C40.8081637,54.1453775 40.728486,54.1453775 40.6487175,54.2258119 C40.5689488,54.2258119 40.5689488,54.3062464 40.4892711,54.386589 C40.4892711,54.4670234 40.4095025,54.4670234 40.4095025,54.547366 C40.4095025,54.547366 40.4095025,54.547366 40.4095025,54.6278004 L40.3297338,54.7082348 C40.2499651,54.7886692 40.2499651,54.9494462 40.2499651,55.1102232 C40.2499651,55.2710002 40.3297338,55.431869 40.4094114,55.592646 L40.4094114,55.6730804 C40.4094114,55.6730804 40.4094114,55.6730804 40.4094114,55.7535148 C40.4094114,55.7535148 40.4094114,55.8339492 40.4891801,55.8339492 C40.4891801,55.9143836 40.5689488,55.9947262 40.5689488,56.0751606 L40.5689488,56.155595 C40.5689488,56.155595 40.5689488,56.155595 40.5689488,56.2360294 C40.6487175,56.3968064 40.7283951,56.5576751 40.8081637,56.7184522 C40.8081637,56.8792292 40.6487174,58.3264975 40.4095025,60.0149771 C40.3297338,60.4169655 40.3297338,60.7386112 40.2500561,61.1405996 C40.1702875,61.542588 40.1702875,61.8642338 40.0906098,62.2662221 C40.0906098,62.1857877 40.0108411,62.1054451 40.0108411,62.0250108 C39.5324113,60.5777425 38.9743038,59.0501316 38.4958739,57.5225207 C38.1768903,56.4773326 37.9376754,55.4320527 37.6187828,54.3868645 C37.5390141,54.1456531 37.4593365,53.8240074 37.3795679,53.5828877 C37.3795679,53.5024533 37.2997992,53.4221107 37.2997992,53.3416764 L37.2997992,53.261242 L37.2200305,53.261242 C37.1402619,53.261242 37.0605842,53.261242 36.9808156,53.261242 C36.901047,53.261242 36.8213693,53.261242 36.7416007,53.261242 L36.3429395,53.3416764 C35.9442783,53.4221108 35.5456171,53.5828877 35.1468648,53.6633221 L30.0436736,55.6733558 C26.8542019,56.7185439 27.0136482,58.8894464 27.0136482,58.8894464 L27.0136482,63.0703824 C27.3326318,65.6432732 29.2462602,65.6432732 29.3260288,65.6432732 L55.2403731,65.6432732 C55.3201417,65.6432732 57.2337702,65.6432732 57.5527537,63.0703824 L57.5527537,58.8894464 C57.5529362,58.8894464 57.7123825,56.7186356 54.6026793,55.6733558 Z M17,21 L67,21 C68.1045695,21 69,21.8954305 69,23 L69,73 C69,74.1045695 68.1045695,75 67,75 L17,75 C15.8954305,75 15,74.1045695 15,73 L15,23 C15,21.8954305 15.8954305,21 17,21 Z M19,23 C17.8954305,23 17,23.8954305 17,25 L17,71 C17,72.1045695 17.8954305,73 19,73 L65,73 C66.1045695,73 67,72.1045695 67,71 L67,25 C67,23.8954305 66.1045695,23 65,23 L19,23 Z"></path>
            </g>
        </g>
    </g>
</svg>