<?xml version="1.0" encoding="UTF-8"?>
<svg width="84px" height="84px" viewBox="0 0 84 84" version="1.1" xmlns="http://www.w3.org/2000/svg" xmlns:xlink="http://www.w3.org/1999/xlink">
    <!-- Generator: Sketch 52.5 (67469) - http://www.bohemiancoding.com/sketch -->
    <title>ic_ipk</title>
    <desc>Created with Sketch.</desc>
    <defs>
        <linearGradient x1="0%" y1="50%" x2="101.734617%" y2="59.7295168%" id="linearGradient-1">
            <stop stop-color="#8A54BE" offset="0%"></stop>
            <stop stop-color="#C560EF" offset="100%"></stop>
        </linearGradient>
    </defs>
    <g id="Symbols" stroke="none" stroke-width="1" fill="none" fill-rule="evenodd">
        <g id="ic_ipk">
            <g>
                <rect id="矩形" fill="#000000" opacity="0" x="0" y="0" width="84" height="84"></rect>
                <path d="M41.6308725,82 L7,61.9731544 L7,22.0268456 L41.6308725,2 L76.261745,21.9731544 L76.261745,61.9731544 L41.6308725,82 Z M11.2416744,58.9127517 L41.6308725,76.7100589 L71.708821,58.9127517 L71.708821,24.9677525 L41.6308725,7.01882468 L11.2416744,25.0872483 L11.2416744,58.9127517 Z M57.4647834,40.819799 L46.6317954,40.819799 C44.4159088,40.819799 42.6195777,39.0234679 42.6195777,36.8075812 L42.6195777,25.9172759 C42.6195777,23.7013892 44.4159088,21.9050581 46.6317954,21.9050581 L57.4647834,21.9050581 C59.6806701,21.9050581 61.4770011,23.7013892 61.4770011,25.9172759 L61.4770011,36.8648986 C61.4456627,39.0583692 59.6584779,40.8200228 57.4647834,40.819799 Z M45.7624816,37.6195777 L58.3340972,37.6195777 L58.3340972,25.047962 L45.7624816,25.047962 L45.7624816,37.6195777 Z M36.5120906,40.819799 L25.6791027,40.819799 C23.463216,40.819799 21.6668849,39.0234679 21.6668849,36.8075812 L21.6668849,25.9172759 C21.6668849,23.7013892 23.463216,21.9050581 25.6791027,21.9050581 L36.5120906,21.9050581 C38.7279773,21.9050581 40.5243084,23.7013892 40.5243084,25.9172759 L40.5243084,36.8648986 C40.4929699,39.0583692 38.7057851,40.8200228 36.5120906,40.819799 Z M24.8097888,37.6195777 L37.3814045,37.6195777 L37.3814045,25.047962 L24.8097888,25.047962 L24.8097888,37.6195777 Z M36.51476,62.5248955 L25.6576909,62.5248955 C23.448567,62.5248955 21.6577181,60.7340466 21.6577181,58.5249226 L21.6577181,47.6107111 C21.6577181,45.4015871 23.448567,43.6107383 25.6576909,43.6107383 L36.51476,43.6107383 C38.723884,43.6107383 40.5147329,45.4015871 40.5147329,47.6107111 L40.5147329,58.4677802 C40.5300305,59.5385049 40.115369,60.5706554 39.3635641,61.3332003 C38.6117592,62.0957453 37.585594,62.5250047 36.51476,62.5248955 Z M24.8973268,59.3252578 L37.3722377,59.3252578 L37.3722377,46.7536422 L24.800622,46.7536422 L24.8973268,59.3252578 Z M58.4135521,62.4681617 L47.6460203,62.4681617 C45.4435226,62.4681617 43.6580455,60.6826846 43.6580455,58.480187 L43.6580455,47.598713 C43.6580455,45.3962154 45.4435226,43.6107383 47.6460203,43.6107383 L58.4135521,43.6107383 C60.5490315,43.7023421 62.2325775,45.4612707 62.2306136,47.598713 L62.2306136,58.4232159 C62.2634402,60.5826721 60.5712841,62.3758524 58.4135521,62.4681617 Z M46.8009494,59.3252578 L59.3725651,59.3252578 L59.3725651,46.7536422 L46.8009494,46.7536422 L46.8009494,59.3252578 Z M55.0918135,29.1955767 C55.7126341,29.1955767 56.2092905,29.7543151 56.2015302,30.4527382 L56.2015302,33.1765883 C56.2015302,33.8672511 55.7048738,34.4337498 55.0840533,34.4337498 L54.7658828,34.4337498 C54.7658828,34.651037 54.5796366,34.8217627 54.3545892,34.8217627 C54.1295417,34.8217627 53.9432956,34.6432768 53.9432956,34.4337498 L51.0487199,34.4337498 C51.0487199,34.651037 50.8624737,34.8217627 50.6374263,34.8217627 C50.4123788,34.8217627 50.2261327,34.6432768 50.2261327,34.4337498 L49.8769211,34.4337498 C49.2561006,34.4337498 48.7594442,33.8750114 48.7594442,33.1765883 L48.7594442,30.4527382 C48.7594442,29.7543151 49.2561006,29.1955767 49.8769211,29.1955767 L51.3203288,29.1955767 L50.7072686,28.6213177 C50.6141455,28.5359548 50.6141455,28.38851 50.7072686,28.2953869 C50.7615904,28.2488253 50.8236724,28.2255446 50.8857545,28.2255446 C50.9555968,28.2255446 51.0176788,28.2488253 51.0642404,28.2953869 L52.0265122,29.1955767 L52.9655032,29.1955767 L53.9277751,28.2953869 C53.9820968,28.2488253 54.0441789,28.2255446 54.106261,28.2255446 C54.1761033,28.2255446 54.2381853,28.2488253 54.2847468,28.2953869 C54.3778699,28.3807497 54.3778699,28.5281946 54.2847468,28.6213177 L53.6716866,29.1955767 L55.0918135,29.1955767 Z M54.0131379,32.0358306 C54.199384,31.9194267 54.199384,31.7487011 54.0131379,31.6322972 L51.778184,30.3208139 C51.5919378,30.2121703 51.4367327,30.3052933 51.4367327,30.5225805 L51.4367327,33.137787 C51.4367327,33.3628344 51.5919378,33.4481973 51.778184,33.3395537 L54.0131379,32.0358306 Z M55.1244066,51.3700442 C55.6146996,51.9567196 55.8954657,52.7110165 55.8954657,53.5323621 C55.8954657,55.4055328 54.3701097,56.9350794 52.4927484,56.9350794 C50.6028155,56.9350794 49.0774595,55.4097234 49.0774595,53.5323621 C49.0774595,51.6424292 50.6028155,50.1170732 52.4927484,50.1170732 C53.3308561,50.1170732 54.0893436,50.4187919 54.6802095,50.9132755 C55.1160255,50.9761336 55.3213619,50.8504174 55.4512686,50.3014569 L55.8954657,50.4523163 C55.7320347,50.9928957 55.4722213,51.2862334 55.1244066,51.3700442 Z M50.5525291,52.7319692 C50.1250941,52.7319692 49.7688983,53.088165 49.7688983,53.5281716 C49.7688983,53.9556065 50.1250941,54.3243739 50.5525291,54.3243739 C50.9967261,54.3243739 51.3487314,53.9556065 51.3487314,53.5281716 C51.3487314,53.088165 50.9925356,52.7319692 50.5525291,52.7319692 Z M52.4927484,50.8043215 C52.0485513,50.8043215 51.6965461,51.1605173 51.6965461,51.5879522 C51.6965461,52.0321493 52.0527419,52.3841545 52.4927484,52.3841545 C52.9201833,52.3841545 53.2889507,52.0279587 53.2889507,51.5879522 C53.2931413,51.1563267 52.9243739,50.8043215 52.4927484,50.8043215 Z M52.0359797,53.5281716 C52.0359797,53.7796039 52.2413161,53.9765592 52.4927484,53.9765592 C52.7441807,53.9765592 52.941136,53.7796039 52.941136,53.5281716 C52.941136,53.2767392 52.7441807,53.0714028 52.4927484,53.0714028 C52.2413161,53.0714028 52.0359797,53.2767392 52.0359797,53.5281716 Z M52.4927484,54.659617 C52.0485513,54.659617 51.6965461,55.0200033 51.6965461,55.4558193 C51.6965461,55.9000164 52.0527419,56.2520216 52.4927484,56.2520216 C52.9201833,56.2520216 53.2889507,55.8958258 53.2889507,55.4558193 C53.2931413,55.0241938 52.9243739,54.659617 52.4927484,54.659617 Z M53.6241938,53.5281716 C53.6241938,53.9556065 53.9845801,54.3243739 54.4203961,54.3243739 C54.8645932,54.3243739 55.2165985,53.9556065 55.2165985,53.5281716 C55.2165985,53.0839745 54.8604027,52.7319692 54.4203961,52.7319692 C53.9887707,52.7319692 53.6241938,53.088165 53.6241938,53.5281716 Z M31.2283149,53.2585312 C29.7543807,52.9362869 28.70947,51.9886215 28.8944268,51.1420151 C29.0002526,50.6529282 29.372073,50.9189228 29.9441044,51.2878831 L30.1662433,50.2725273 C30.2854165,49.7281441 30.7754567,49.3334425 31.3331873,49.3334425 C31.4180386,49.3334425 31.50289,49.3429763 31.5867879,49.3610906 L32.5268262,49.5660686 C33.1694081,49.7062163 33.5784105,50.3440313 33.4382629,50.9866132 L33.2170774,51.9991088 C33.9044684,51.9018634 34.3401657,51.8103384 34.2314797,52.3070523 C34.0474763,53.1546122 32.7022491,53.5807756 31.2283149,53.2585312 Z M34.5384699,56.0204894 C34.5899527,56.1663575 34.5680249,56.328433 34.4784066,56.4552333 C34.3897417,56.582987 34.2429203,56.6592578 34.0875185,56.6592578 L28.8686854,56.6668849 L28.867732,56.6668849 C28.7132835,56.6668849 28.5664622,56.5915675 28.4768439,56.4647672 C28.3872256,56.3379669 28.3643444,56.1749379 28.4158272,56.0290699 C28.7418851,55.107146 29.4588311,54.3911534 30.3664543,54.0631887 C30.0651844,53.8038678 29.8659268,53.4453948 29.8001432,53.0525999 C30.1872178,53.2785523 30.647703,53.4596956 31.1596711,53.5712417 C31.5086103,53.6475126 31.8575494,53.685648 32.1969547,53.685648 C32.4686696,53.685648 32.7232236,53.6599066 32.9587099,53.6141441 C32.8624179,53.7828933 32.7375244,53.935435 32.5897496,54.0622353 C33.4945126,54.3902 34.2105052,55.1033324 34.5384699,56.0204894 Z M31.4771486,56.5086229 L31.8508757,56.0853197 L31.6325504,54.5217672 C31.6830799,54.4779115 31.7164484,54.4140346 31.7164484,54.3415773 C31.7164484,54.2090567 31.6096692,54.1022775 31.4771486,54.1022775 C31.344628,54.1022775 31.2378488,54.2090567 31.2378488,54.3415773 C31.2378488,54.4140346 31.2712173,54.4779115 31.3217467,54.5217672 L31.1034214,56.0853197 L31.4771486,56.5086229 Z M31.2042888,28.7408741 C32.5581928,28.7408741 33.6596824,29.8423637 33.6596824,31.1962678 C33.6596824,32.5501719 32.5581928,33.6516615 31.2042888,33.6516615 C29.8503847,33.6516615 28.7488951,32.5501719 28.7488951,31.1962678 C28.7488951,29.8423637 29.8503847,28.7408741 31.2042888,28.7408741 Z M31.2042888,33.3242757 C32.3776395,33.3242757 33.3322966,32.3696186 33.3322966,31.1962678 C33.3322966,30.022917 32.3776395,29.0682599 31.2042888,29.0682599 C30.030938,29.0682599 29.0762809,30.022917 29.0762809,31.1962678 C29.0762809,32.3696186 30.030938,33.3242757 31.2042888,33.3242757 Z M35.3643804,34.8934359 C35.4921859,35.02128 35.4921859,35.2285154 35.3643804,35.3563595 C35.3003765,35.4203634 35.2167294,35.4522835 35.1329186,35.4522835 C35.0491079,35.4522835 34.9654608,35.4203634 34.9016206,35.3563595 L33.5344574,33.9891963 C33.5256179,33.9805205 33.5189065,33.9705353 33.5113767,33.9610411 C32.8646317,34.502477 32.0477522,34.7986494 31.2042888,34.7975119 C29.2154199,34.7975119 27.6030447,33.1851367 27.6030447,31.1962678 C27.6030447,29.2073989 29.2154199,27.5950237 31.2042888,27.5950237 C33.1931576,27.5950237 34.8055328,29.2073989 34.8055328,31.1962678 C34.806702,32.0396873 34.5105234,32.8565257 33.969062,33.503192 C33.9783925,33.5107219 33.9883778,33.5174333 33.9972172,33.5262727 L35.3643804,34.8934359 Z M31.2042888,34.1427402 C32.8289409,34.1427402 34.1507612,32.82092 34.1507612,31.1962678 C34.1507612,29.5716156 32.8289409,28.2497954 31.2042888,28.2497954 C29.5796366,28.2497954 28.2578163,29.5716156 28.2578163,31.1962678 C28.2578163,32.82092 29.5796366,34.1427402 31.2042888,34.1427402 Z M31.2042888,29.2319529 C32.2890817,29.2319529 33.1686037,30.1114749 33.1686037,31.1962678 C33.1686037,32.2810607 32.2890817,33.1605827 31.2042888,33.1605827 C30.1194958,33.1605827 29.2399738,32.2810607 29.2399738,31.1962678 C29.2399738,30.1114749 30.1194958,29.2319529 31.2042888,29.2319529 Z M30.5495171,31.1962678 C30.9111375,31.1962678 31.2042888,30.9031165 31.2042888,30.5414962 C31.2042888,30.1798758 30.9111375,29.8867245 30.5495171,29.8867245 C30.1878967,29.8867245 29.8947455,30.1798758 29.8947455,30.5414962 C29.8947455,30.9031165 30.1878967,31.1962678 30.5495171,31.1962678 Z M32.1864462,32.5058111 C32.3643588,32.5017878 32.506475,32.3563851 32.5064305,32.1784271 C32.506386,32.0004691 32.3641971,31.8551374 32.1862825,31.8512031 C32.0676026,31.8485787 31.9568002,31.9104033 31.8967067,32.012778 C31.8366133,32.1151528 31.836645,32.2420364 31.8967897,32.3443811 C31.9569343,32.4467258 32.0677676,32.5084949 32.1864462,32.5058111 Z" id="合并形状" fill="url(#linearGradient-1)" fill-rule="nonzero"></path>
            </g>
        </g>
    </g>
</svg>