<?xml version="1.0" encoding="UTF-8"?>
<svg width="84px" height="84px" viewBox="0 0 84 84" version="1.1" xmlns="http://www.w3.org/2000/svg" xmlns:xlink="http://www.w3.org/1999/xlink">
    <!-- Generator: Sketch 52.5 (67469) - http://www.bohemiancoding.com/sketch -->
    <title>ic_kfpt</title>
    <desc>Created with Sketch.</desc>
    <defs>
        <linearGradient x1="100%" y1="100%" x2="0%" y2="0%" id="linearGradient-1">
            <stop stop-color="#FF86FF" offset="0%"></stop>
            <stop stop-color="#7B3DCB" offset="100%"></stop>
        </linearGradient>
    </defs>
    <g id="Symbols" stroke="none" stroke-width="1" fill="none" fill-rule="evenodd">
        <g id="ic_kfpt" fill="url(#linearGradient-1)">
            <g id="开放平台">
                <g>
                    <path d="M69.653125,53.2665625 L63.37875,53.2665625 L63.37875,51.4484375 L68.9315625,51.4484375 L68.9315625,31.1878125 L63.37875,31.1878125 L63.37875,24.6746875 L69.653125,24.6746875 C70.2390625,24.6746875 70.75,25.179375 70.75,25.7715625 L70.75,52.1696875 C70.75,52.76 70.24,53.2665625 69.653125,53.2665625 Z M65.9915625,28.97875 C64.7959375,28.97875 64.7959375,27.160625 65.9915625,27.160625 L68.2371875,27.160625 C69.4328125,27.160625 69.4328125,28.97875 68.2371875,28.97875 L65.9915625,28.97875 Z M20.38875,53.2665625 L14.3465625,53.2665625 C13.7559375,53.2665625 13.2503125,52.760625 13.2503125,52.1696875 L13.2503125,25.7715625 C13.2503125,25.18625 13.753125,24.6746875 14.3465625,24.6746875 L20.38875,24.6746875 L20.38875,27.1415625 L15.7625,27.1415625 C14.566875,27.1415625 14.566875,28.96 15.7625,28.96 L20.38875,28.96 L20.38875,31.1878125 L15.068125,31.1878125 L15.068125,51.4484375 L20.38875,51.4484375 L20.38875,53.2665625 Z M59.7809375,56.5978125 L23.9859375,56.5978125 C23.3953125,56.5978125 22.889375,56.091875 22.889375,55.5009375 L22.889375,21.4665625 C22.889375,20.880625 23.3925,20.3696875 23.9859375,20.3696875 L59.7809375,20.3696875 C60.366875,20.3696875 60.8778125,20.8740625 60.8778125,21.4665625 L60.8778125,55.5009375 C60.8778125,56.09125 60.3678125,56.5978125 59.7809375,56.5978125 Z M56.1196875,24.6740625 C54.9240625,24.6740625 54.9240625,22.8559375 56.1196875,22.8559375 L58.3653125,22.8559375 C59.560625,22.8559375 59.560625,24.6740625 58.3653125,24.6740625 L56.1196875,24.6740625 Z M25.401875,24.655 C24.20625,24.655 24.20625,22.836875 25.401875,22.836875 L35.065,22.836875 C36.2609375,22.836875 36.2609375,24.655 35.065,24.655 L25.401875,24.655 Z M42,63.7175 C42.6903125,63.7175 43.25,64.2771875 43.25,64.9675 C43.25,65.6578125 42.6903125,66.2175 42,66.2175 C41.3096875,66.2175 40.75,65.6578125 40.75,64.9675 C40.75,64.2771875 41.3096875,63.7175 42,63.7175 Z M74.4428125,69.966875 L9.5565625,69.966875 C5.3971875,69.966875 2,66.5690625 2,62.4103125 L2,14.5575 C2,10.3978125 5.3975,7 9.5565625,7 L74.4428125,7 C78.6028125,7 82,10.3978125 82,14.5575 L82,62.4103125 C82,66.5696875 78.6028125,69.966875 74.4428125,69.966875 Z M10.75,61.2175 L73.25,61.2175 L73.25,15.75 L10.75,15.75 L10.75,61.2175 Z M74.4428125,63.7175 C75.1528125,63.7175 75.75,63.12 75.75,62.4103125 L75.75,14.5575 C75.75,13.8475 75.1528125,13.25 74.4428125,13.25 L9.5565625,13.25 C8.8471875,13.25 8.25,13.848125 8.25,14.5575 L8.25,62.4103125 C8.25,63.119375 8.8471875,63.7175 9.5565625,63.7175 L36.581875,63.7175 L36.581875,66.2175 L9.5565625,66.2175 C7.4671875,66.2175 5.75,64.499375 5.75,62.4103125 L5.75,14.5575 C5.75,12.468125 7.4675,10.75 9.5565625,10.75 L74.4428125,10.75 C76.5328125,10.75 78.25,12.4675 78.25,14.5575 L78.25,62.4103125 C78.25,64.5 76.5328125,66.2175 74.4428125,66.2175 L47.418125,66.2175 L47.418125,63.7175 L74.4428125,63.7175 Z M46.016417,40.5491628 C46.3040208,40.5491628 46.5481736,40.6484792 46.7488755,40.8512502 C46.9495774,41.0519521 47.0509629,41.2981741 47.0509629,41.5837087 L47.0509629,47.7909841 C47.0509629,48.0785879 46.9516465,48.3227407 46.7488755,48.5234426 C46.5481736,48.7241445 46.3019517,48.82553 46.016417,48.82553 L35.670958,48.82553 C35.3833542,48.82553 35.1392014,48.7262136 34.9384995,48.5234426 C34.7377976,48.3227407 34.6364121,48.0765188 34.6364121,47.7909841 L34.6364121,41.5816396 C34.6364121,41.2940359 34.7357285,41.0498831 34.9384995,40.8491812 C35.1392014,40.6484792 35.3854233,40.5470937 35.670958,40.5470937 L36.0164963,40.5470937 L36.0164963,37.0979177 C36.0164963,35.7695608 36.4882493,34.6315603 37.4338242,33.6859854 C38.3793992,32.7404104 39.5132615,32.2707266 40.8436875,32.2707266 C42.1720444,32.2707266 43.3100449,32.7424795 44.2556199,33.6880544 C45.2011948,34.6336294 45.6729478,35.7695608 45.6729478,37.0999868 C45.6729478,37.2862051 45.6046677,37.4496633 45.4681077,37.5841543 C45.3315476,37.7186453 45.1680894,37.7889944 44.9839402,37.7889944 L44.2949326,37.7889944 C44.1087144,37.7889944 43.9452561,37.7207144 43.8107651,37.5841543 C43.6742051,37.4475942 43.605925,37.2862051 43.605925,37.0999868 C43.605925,36.338561 43.3369431,35.6888662 42.7969102,35.1488333 C42.2568772,34.6088003 41.6071824,34.3418875 40.8457566,34.3418875 C40.0843308,34.3418875 39.434636,34.6108694 38.894603,35.1509023 C38.3545701,35.6909353 38.0855881,36.3406301 38.0855881,37.1020559 L38.0855881,40.5491628 L46.016417,40.5491628 Z M61.3103125,77.32 L22.6896875,77.32 C21.996875,77.32 21.1478125,76.6803125 21.41125,76.04125 L22.8659375,72.5109375 C23.1284375,71.873125 23.4546875,71.2321875 24.1440625,71.2321875 L59.855625,71.2321875 C60.5453125,71.2321875 60.870625,71.87 61.1340625,72.5109375 L62.5890625,76.04125 C62.851875,76.6809375 62.003125,77.32 61.3103125,77.32 Z M24.9530625,27.3049062 L58.4999375,27.3049062 L58.4999375,53.7892812 L24.9530625,53.7892812 L24.9530625,27.3049062 Z" id="Fill-1"></path>
                </g>
            </g>
        </g>
    </g>
</svg>