<?xml version="1.0" encoding="UTF-8"?>
<svg width="120px" height="120px" viewBox="0 0 120 120" version="1.1" xmlns="http://www.w3.org/2000/svg" xmlns:xlink="http://www.w3.org/1999/xlink">
    <!-- Generator: Sketch 52.5 (67469) - http://www.bohemiancoding.com/sketch -->
    <title>ic_marketing</title>
    <desc>Created with Sketch.</desc>
    <defs>
        <linearGradient x1="0%" y1="0%" x2="101.999998%" y2="100.999999%" id="linearGradient-1">
            <stop stop-color="#3023AE" offset="0%"></stop>
            <stop stop-color="#C86DD7" offset="100%"></stop>
        </linearGradient>
    </defs>
    <g id="Symbols" stroke="none" stroke-width="1" fill="none" fill-rule="evenodd">
        <g id="ic_marketing">
            <g>
                <rect id="矩形" fill="#000000" opacity="0" x="0" y="0" width="120" height="120"></rect>
                <path d="M60.2109375,119.871094 C52.171875,119.871094 44.3554687,118.289062 37.0078125,115.183594 C29.90625,112.183594 23.53125,107.882812 18.0585937,102.410156 C12.5859375,96.9375 8.28515625,90.5625 5.28515625,83.4609375 C2.1796875,76.1132812 0.59765625,68.3085938 0.59765625,60.2578125 C0.59765625,52.21875 2.1796875,44.4023438 5.28515625,37.0546875 C8.28515625,29.953125 12.5859375,23.578125 18.0585937,18.1054688 C23.53125,12.6328125 29.90625,8.33203125 37.0078125,5.33203125 C44.3554687,2.2265625 52.1601562,0.64453125 60.2109375,0.64453125 C68.2617188,0.64453125 76.0664062,2.2265625 83.4140625,5.33203125 C90.515625,8.33203125 96.890625,12.6328125 102.363281,18.1054688 C107.835938,23.578125 112.136719,29.953125 115.136719,37.0546875 C118.242188,44.4023438 119.824219,52.2070312 119.824219,60.2578125 C119.824219,68.3085938 118.242188,76.1132812 115.136719,83.4609375 C112.136719,90.5625 107.835938,96.9375 102.363281,102.410156 C96.890625,107.882812 90.515625,112.183594 83.4140625,115.183594 C76.0664062,118.300781 68.25,119.871094 60.2109375,119.871094 Z M60.2109375,6.29296875 C30.4453125,6.29296875 6.234375,30.5039062 6.234375,60.2695312 C6.234375,90.0351562 30.4453125,114.246094 60.2109375,114.246094 C89.9765625,114.246094 114.1875,90.0351562 114.1875,60.2695312 C114.1875,30.5039062 89.9765625,6.29296875 60.2109375,6.29296875 Z M60.2578125,107.085938 L60.2460937,101.460938 C61.96875,101.460938 63.7148437,101.34375 65.4140625,101.132812 L66.1171875,106.710938 C64.1953125,106.957031 62.2265625,107.085938 60.2578125,107.085938 Z M54.3984375,106.734375 C52.453125,106.488281 50.5078125,106.125 48.6210937,105.644531 L50.0039062,100.195312 C51.6679687,100.617187 53.3789062,100.945312 55.0898437,101.15625 L54.3984375,106.734375 Z M71.90625,105.621094 L70.5,100.171875 C72.1640625,99.75 73.8164062,99.2109375 75.4101563,98.5664062 L77.484375,103.792969 C75.6796875,104.519531 73.7929688,105.128906 71.90625,105.621094 Z M43.0195312,103.828125 C41.203125,103.113281 39.4101562,102.269531 37.6992187,101.332031 L40.40625,96.3984375 C41.9179687,97.2304687 43.4882812,97.96875 45.0820312,98.6015625 L43.0195312,103.828125 Z M82.8046875,101.285156 L80.0859375,96.3632812 C81.5859375,95.53125 83.0507812,94.59375 84.4453125,93.5859375 L87.7617187,98.1328125 C86.1796875,99.28125 84.515625,100.347656 82.8046875,101.285156 Z M32.7304687,98.1796875 C31.1484375,97.03125 29.625,95.7773437 28.1953125,94.4414062 L32.0390625,90.3398437 C33.2929687,91.5117187 34.640625,92.625 36.0234375,93.6328125 L32.7304687,98.1796875 Z M92.2851562,94.3828125 L88.4296875,90.28125 C89.6835937,89.0976562 90.8789062,87.8320312 91.96875,86.5078125 L96.3046875,90.09375 C95.0625,91.59375 93.703125,93.0351562 92.2851562,94.3828125 Z M24.1757812,90.1640625 C22.921875,88.6640625 21.7617187,87.0585937 20.7070312,85.4179687 L25.453125,82.3945312 C26.3789062,83.8476563 27.3984375,85.2539063 28.5,86.5664063 L24.1757812,90.1640625 Z M99.7617187,85.3359375 L95.015625,82.3242187 C95.9414062,80.8710937 96.7734375,79.3476562 97.5117187,77.7890625 L102.597656,80.1796875 C101.765625,81.9492187 100.804687,83.6835937 99.7617187,85.3359375 Z M17.8710937,80.2734375 C17.0390625,78.5039062 16.3007812,76.6640625 15.6914062,74.8125 L21.0351562,73.0664062 C21.5625,74.6953125 22.2070312,76.3125 22.9453125,77.8710937 L17.8710937,80.2734375 Z M104.753906,74.71875 L99.3984375,72.984375 C99.9257812,71.3554688 100.359375,69.6679688 100.675781,67.9804687 L106.207031,69.0234375 C105.84375,70.9335937 105.363281,72.8554688 104.753906,74.71875 Z M14.2265625,69.1171875 C13.8632812,67.2070312 13.6171875,65.2382812 13.4882812,63.28125 L19.1015625,62.9296875 C19.2070312,64.6523438 19.4296875,66.375 19.7578125,68.0625 L14.2265625,69.1171875 Z M106.933594,63.1875 L101.320312,62.8476562 C101.367188,62.0039062 101.402344,61.1367187 101.402344,60.28125 C101.402344,59.4140625 101.378906,58.5351562 101.320312,57.6679687 L106.933594,57.3164062 C106.992188,58.3007812 107.027344,59.296875 107.027344,60.28125 C107.027344,61.2421875 106.992188,62.2265625 106.933594,63.1875 Z M19.0898437,57.75 L13.4765625,57.4101562 C13.59375,55.453125 13.8398437,53.4960938 14.1914062,51.5742188 L19.7226562,52.6171875 C19.40625,54.3046875 19.1953125,56.0273438 19.0898437,57.75 Z M100.675781,52.5351562 C100.359375,50.8476562 99.9257813,49.1601562 99.3867188,47.53125 L104.730469,45.796875 C105.339844,47.6601562 105.820313,49.5703125 106.195313,51.4921875 L100.675781,52.5351562 Z M21,47.6132812 L15.6445313,45.890625 C16.2421875,44.0273438 16.96875,42.1875 17.8007813,40.4179688 L22.8984375,42.8085938 C22.171875,44.3554688 21.5273438,45.9726562 21,47.6132812 Z M97.4882812,42.7148438 C96.7617188,41.1679688 95.9179688,39.6445312 94.9921875,38.1914062 L99.7382813,35.1679688 C100.792969,36.8203125 101.742188,38.5429688 102.574219,40.3125 L97.4882812,42.7148437 Z M25.3828125,38.2617187 L20.6367188,35.25 C21.6796875,33.5976562 22.8398438,32.0039062 24.0820313,30.4921875 L28.4179688,34.0664062 C27.328125,35.4023437 26.3085938,36.8085937 25.3828125,38.2617187 Z M91.9453125,34.0078125 C90.84375,32.6835938 89.6601563,31.4179688 88.40625,30.234375 L92.2617188,26.1328125 C93.6914062,27.46875 95.0390625,28.9101563 96.28125,30.4101563 L91.9453125,34.0078125 Z M31.9570313,30.2929688 L28.1015625,26.203125 C29.5195313,24.8671875 31.0429688,23.6015625 32.625,22.4414063 L35.9414063,26.9882813 C34.546875,28.0078125 33.2109375,29.1210938 31.9570313,30.2929688 Z M84.421875,26.9414063 C83.0273438,25.9335938 81.5625,24.9960938 80.0507813,24.1640625 L82.7695313,19.2421875 C84.4804688,20.1796875 86.1445313,21.2460938 87.7265625,22.3945313 L84.421875,26.9414063 Z M40.2890625,24.2109375 L37.5703125,19.2890625 C39.28125,18.3398438 41.0625,17.4960938 42.8789062,16.7695313 L44.9648438,21.9960938 C43.3710937,22.6289063 41.8007812,23.3789063 40.2890625,24.2109375 Z M75.375,21.9609375 C73.78125,21.328125 72.1171875,20.7890625 70.453125,20.3671875 L71.8476562,14.9179688 C73.7460937,15.3984375 75.6210938,16.0195313 77.4492187,16.734375 L75.375,21.9609375 Z M49.875,20.390625 L48.46875,14.9414062 C50.3554687,14.4492187 52.3007812,14.0859375 54.2460937,13.828125 L54.9609375,19.40625 C53.25,19.6289062 51.5390625,19.9570312 49.875,20.390625 Z M65.3789062,19.40625 C63.6796875,19.1953125 61.9453125,19.0898437 60.2109375,19.0898437 L60.1171875,19.0898437 L60.09375,13.4648437 L60.1992187,13.4648437 C62.15625,13.4648437 64.125,13.5820312 66.0585938,13.828125 L65.3789062,19.40625 Z M34.0898437,78.7148437 L46.875,78.7148437 C47.0039062,78.7148437 47.109375,78.609375 47.109375,78.4804687 L47.109375,60 C47.109375,59.9765625 47.109375,59.953125 47.0976562,59.9179688 L46.2890625,57.609375 C46.2421875,57.46875 46.0664062,57.4101563 45.9375,57.4921875 L33.9492187,65.765625 C33.890625,65.8125 33.84375,65.8828125 33.84375,65.953125 L33.84375,78.46875 C33.8554687,78.6210937 33.9609375,78.7148437 34.0898437,78.7148437 Z M64.6523438,60.4335937 L58.7929687,65.5898437 C58.7226562,65.6484375 58.6171875,65.6601562 58.5351562,65.625 L51.7617187,62.0039062 C51.609375,61.921875 51.421875,62.0390625 51.421875,62.203125 L51.421875,78.4804687 C51.421875,78.609375 51.5273437,78.7148437 51.65625,78.7148437 L64.8046875,78.7148437 C64.9335937,78.7148437 65.0390625,78.609375 65.0390625,78.4804687 L65.0390625,60.609375 C65.0390625,60.4101562 64.7929687,60.3046875 64.6523438,60.4335937 Z M86.8242188,57.5742187 L78.9023437,50.0273438 C78.8203125,49.9453125 78.703125,49.9453125 78.609375,50.0039062 L69.421875,56.5664062 C69.3632812,56.6132812 69.328125,56.6835938 69.328125,56.7539062 L69.328125,78.4804687 C69.328125,78.609375 69.4335937,78.7148437 69.5625,78.7148437 L86.671875,78.7148437 C86.8007812,78.7148437 86.90625,78.609375 86.90625,78.4804687 L86.90625,57.7382813 C86.8945312,57.6796875 86.8710938,57.6210938 86.8242188,57.5742188 Z M39.6796875,55.6757812 L46.7226562,49.8984375 C46.7929688,49.8398437 46.9101563,49.828125 46.9921875,49.875 L60.3867187,57.8789062 C60.4804687,57.9257812 60.5859375,57.9257812 60.6679687,57.8554687 L76.7695312,42.9726562 C76.8632812,42.890625 77.0039062,42.8789062 77.0976562,42.9726562 L79.3945312,45.2578125 C79.5117188,45.375 79.7226562,45.328125 79.78125,45.1757812 L83.90625,33.8085938 C83.9765625,33.6328125 83.8007812,33.4453125 83.6132812,33.5039062 L71.8007812,37.2421875 C71.6367188,37.2890625 71.578125,37.5 71.7070312,37.6289062 L74.4609375,40.359375 C74.4257813,40.3945312 74.3789062,40.4179687 74.34375,40.453125 L60.1875,53.4960937 C60.1171875,53.5664062 60,53.578125 59.90625,53.5195312 L46.6523437,45.5976562 C46.5703125,45.5507812 46.4648437,45.5507812 46.3828125,45.6210937 L37.3945312,52.9921875 C36.6445312,53.6132812 36.5390625,54.703125 37.171875,55.4414062 C37.8046875,56.1914062 38.9296875,56.296875 39.6796875,55.6757812 Z M85.0664063,83.578125 L35.296875,83.578125 C34.3125,83.578125 33.515625,84.3632812 33.515625,85.3242187 C33.515625,86.2851562 34.3125,87.0703125 35.296875,87.0703125 L85.0664062,87.0703125 C86.0507812,87.0703125 86.8476562,86.2851562 86.8476562,85.3242187 C86.8476562,84.3515625 86.0507812,83.578125 85.0664062,83.578125 Z" id="形状" fill="url(#linearGradient-1)" fill-rule="nonzero"></path>
            </g>
        </g>
    </g>
</svg>