<?xml version="1.0" encoding="UTF-8"?>
<svg width="16px" height="16px" viewBox="0 0 16 16" version="1.1" xmlns="http://www.w3.org/2000/svg" xmlns:xlink="http://www.w3.org/1999/xlink">
    <!-- Generator: Sketch 52.5 (67469) - http://www.bohemiancoding.com/sketch -->
    <title>ic_remind</title>
    <desc>Created with Sketch.</desc>
    <g id="组件" stroke="none" stroke-width="1" fill="none" fill-rule="evenodd">
        <g id="ic_remind" fill="#FF6666" fill-rule="nonzero">
            <g id="形状">
                <path d="M7.99304,0 C3.57862,0 0,3.57862 0,7.99308 C0,12.40748 3.57862,15.98608 7.99304,15.98608 C12.40746,15.98608 15.98608,12.40746 15.98608,7.99308 C15.98608,3.57862 12.40746,0 7.99304,0 Z M7.99304,14.06778 C7.2573,14.06778 6.66086,13.4519 6.66086,12.69222 C6.66086,11.93254 7.2573,11.31664 7.99304,11.31664 C8.72874,11.31664 9.32518,11.93252 9.32518,12.69222 C9.32518,13.45192 8.72876,14.06778 7.99304,14.06778 Z M9.02744,9.11578 C9.02744,9.87548 8.60642,10.49132 8.08708,10.49132 L7.89902,10.49132 C7.37966,10.49132 6.95866,9.87548 6.95866,9.11578 L6.39444,3.6136 C6.39444,2.8539 6.81544,2.2381 7.33478,2.2381 L8.6513,2.2381 C9.17066,2.2381 9.59166,2.85392 9.59166,3.6136 L9.02744,9.11578 Z"></path>
            </g>
        </g>
    </g>
</svg>