<?xml version="1.0" encoding="UTF-8"?>
<svg width="123px" height="41px" viewBox="0 0 123 41" version="1.1" xmlns="http://www.w3.org/2000/svg" xmlns:xlink="http://www.w3.org/1999/xlink">
    <!-- Generator: Sketch 52.5 (67469) - http://www.bohemiancoding.com/sketch -->
    <title>Group 2</title>
    <desc>Created with Sketch.</desc>
    <g id="扶뒬못" stroke="none" stroke-width="1" fill="none" fill-rule="evenodd">
        <g id="扶뒬못1" transform="translate(-70.000000, -20.000000)">
            <g id="Group-2" transform="translate(70.000000, 20.000000)">
                <path d="M38.402,0.98 L43.2068,0.98 L43.2068,21 L38.402,21 L38.402,0.98 Z M64.7052,8.4028 L64.7052,9.3268 C64.4588,13.454 61.0092,16.7496 56.8204,16.7496 L52.6932,16.7496 L52.6932,21 L47.796,21 L47.796,0.98 L57.5288,0.98 C61.656,0.98 64.4896,4.4912 64.7052,8.4028 Z M56.7588,11.8524 C58.422,11.8524 59.7464,10.528 59.7464,8.8648 C59.7464,7.2324 58.4528,5.908 56.8204,5.8772 L52.6932,5.8772 L52.6932,11.8524 L56.7588,11.8524 Z M82.5384,5.292 L72.282,5.292 L72.282,8.8648 L80.3824,8.8648 L80.3824,13.146 L72.282,13.146 L72.282,16.7188 L82.5384,16.7188 L82.5384,21 L67.4772,21 L67.4772,0.98 L82.5384,0.98 L82.5384,5.292 Z M100.4948,14.9016 L104.1292,17.2424 C102.2196,19.8604 99.1088,21.5236 95.6284,21.5236 C89.8072,21.5236 85.0948,16.8112 85.0948,10.99 C85.0948,5.1688 89.8072,0.4256 95.6284,0.4256 C99.1088,0.4256 102.2196,2.1196 104.1292,4.7376 L100.4948,7.0784 C99.1396,5.8464 97.6304,5.0456 95.6284,5.0456 C92.3636,5.0456 89.7148,7.7252 89.7148,10.99 C89.7148,14.2548 92.3636,16.9036 95.6284,16.9036 C97.6304,16.9036 98.8932,16.2568 100.4948,14.9016 Z" id="IPEC-Copy-2" fill="#FFFFFF"/>
                <path d="M38.348,31.574 L38.354,31.574 C38.426,31.574 38.522,31.58 38.618,31.58 C38.702,31.58 38.738,31.544 38.738,31.466 C38.75,30.8 38.756,30.086 38.756,29.39 C38.756,28.934 38.756,28.484 38.744,28.064 C38.744,27.992 38.696,27.944 38.624,27.944 C38.528,27.944 38.426,27.95 38.354,27.95 C38.318,27.95 38.168,27.944 38.162,27.776 C38.168,27.692 38.222,27.608 38.342,27.608 L38.354,27.608 C38.492,27.614 38.672,27.62 38.858,27.62 C39.086,27.62 39.32,27.614 39.512,27.608 C39.692,27.602 39.704,27.758 39.704,27.782 C39.698,27.866 39.644,27.95 39.524,27.95 L39.512,27.95 C39.422,27.944 39.344,27.944 39.242,27.944 C39.164,27.944 39.128,27.998 39.128,28.064 C39.122,28.574 39.122,29.138 39.122,29.714 C39.122,30.29 39.122,30.884 39.128,31.466 C39.128,31.526 39.158,31.58 39.236,31.58 C39.338,31.58 39.416,31.58 39.506,31.574 C39.662,31.568 39.698,31.706 39.698,31.754 C39.698,31.838 39.638,31.928 39.518,31.928 L39.506,31.928 C39.344,31.922 39.158,31.916 38.972,31.916 C38.744,31.916 38.528,31.922 38.354,31.928 C38.264,31.934 38.168,31.886 38.168,31.754 C38.168,31.664 38.228,31.574 38.348,31.574 Z M43.07,31.928 L43.064,31.928 C42.908,31.922 42.752,31.916 42.596,31.916 C42.446,31.916 42.302,31.922 42.164,31.928 C42.026,31.934 41.984,31.838 41.984,31.772 C41.984,31.688 42.044,31.604 42.158,31.604 L42.164,31.604 C42.236,31.604 42.248,31.61 42.344,31.61 C42.404,31.61 42.434,31.568 42.434,31.502 C42.44,31.226 42.44,30.884 42.44,30.602 C42.44,30.398 42.44,30.23 42.434,30.146 C42.404,29.648 42.086,29.444 41.75,29.444 C41.33,29.444 40.868,29.762 40.85,30.236 C40.85,30.35 40.844,30.53 40.844,30.746 C40.844,30.968 40.85,31.226 40.85,31.508 C40.85,31.574 40.886,31.61 40.958,31.61 C41.048,31.61 41.036,31.61 41.12,31.604 C41.228,31.598 41.3,31.67 41.3,31.766 C41.3,31.844 41.24,31.928 41.126,31.928 L41.12,31.928 C40.964,31.922 40.802,31.916 40.652,31.916 C40.502,31.916 40.352,31.922 40.214,31.928 C40.076,31.934 40.034,31.838 40.034,31.772 C40.034,31.688 40.094,31.604 40.208,31.604 L40.214,31.604 C40.286,31.604 40.304,31.61 40.4,31.61 C40.46,31.61 40.502,31.574 40.502,31.508 C40.508,31.13 40.514,30.818 40.514,30.506 C40.514,30.284 40.508,30.056 40.508,29.798 C40.508,29.642 40.454,29.534 40.31,29.528 C40.256,29.528 40.262,29.528 40.184,29.534 L40.172,29.534 C40.064,29.534 40.01,29.45 40.01,29.366 C40.01,29.282 40.07,29.192 40.184,29.192 L40.358,29.192 C40.598,29.192 40.802,29.306 40.832,29.528 C40.838,29.546 40.844,29.558 40.862,29.558 C40.868,29.558 40.88,29.552 40.892,29.54 C41.102,29.27 41.444,29.132 41.78,29.132 C42.278,29.132 42.758,29.438 42.782,30.092 C42.788,30.29 42.794,30.782 42.794,31.214 L42.794,31.502 C42.794,31.568 42.824,31.61 42.89,31.61 C42.98,31.61 42.98,31.604 43.064,31.604 L43.07,31.604 C43.184,31.604 43.244,31.682 43.244,31.766 C43.244,31.85 43.184,31.928 43.07,31.928 Z M45.062,29.516 L44.534,29.516 C44.438,29.516 44.438,29.528 44.438,29.6 C44.438,29.828 44.42,30.446 44.42,30.89 C44.42,31.358 44.432,31.676 44.9,31.676 C44.954,31.676 45.008,31.67 45.068,31.664 L45.092,31.664 C45.182,31.664 45.236,31.742 45.236,31.82 C45.236,31.976 45.092,32.006 44.852,32.006 C44.084,32.006 44.084,31.352 44.084,31.088 C44.084,30.704 44.096,29.972 44.096,29.678 L44.096,29.582 C44.096,29.522 44.078,29.516 44.036,29.516 L43.682,29.516 C43.568,29.516 43.514,29.438 43.514,29.354 C43.514,29.276 43.568,29.198 43.682,29.198 L44.03,29.198 C44.084,29.198 44.096,29.192 44.096,29.138 C44.096,29.114 44.102,28.826 44.102,28.616 L44.102,28.466 C44.102,28.352 44.192,28.292 44.276,28.292 C44.366,28.292 44.45,28.352 44.45,28.478 C44.45,28.652 44.438,29.132 44.438,29.132 C44.438,29.198 44.45,29.198 44.528,29.198 L45.062,29.198 C45.176,29.198 45.23,29.276 45.23,29.354 C45.23,29.438 45.176,29.516 45.062,29.516 Z M48.344,31.412 C48.344,31.55 47.924,32.006 47.168,32.006 C46.406,32.006 45.812,31.436 45.812,30.59 C45.812,29.714 46.442,29.138 47.15,29.138 C47.972,29.138 48.332,29.78 48.332,30.122 C48.332,30.344 48.2,30.512 47.894,30.524 C47.756,30.53 47.552,30.53 47.33,30.53 C46.88,30.53 46.37,30.524 46.238,30.524 C46.178,30.524 46.166,30.548 46.166,30.632 C46.166,31.286 46.598,31.688 47.174,31.688 C47.612,31.688 47.858,31.502 48.044,31.292 C48.08,31.256 48.122,31.238 48.164,31.238 C48.254,31.238 48.344,31.316 48.344,31.412 Z M47.978,30.062 C47.978,29.888 47.768,29.438 47.156,29.438 C46.58,29.438 46.214,29.954 46.214,30.176 C46.214,30.236 46.268,30.236 46.964,30.236 C47.276,30.236 47.612,30.236 47.78,30.23 C47.924,30.224 47.978,30.158 47.978,30.062 Z M50.012,31.934 L50.006,31.934 C49.844,31.928 49.664,31.922 49.496,31.922 C49.328,31.922 49.16,31.928 49.016,31.934 C48.992,31.934 48.83,31.94 48.83,31.766 C48.83,31.682 48.89,31.598 49.01,31.598 L49.016,31.598 C49.064,31.598 49.1,31.604 49.13,31.604 C49.226,31.604 49.34,31.604 49.34,31.49 C49.346,30.962 49.352,29.858 49.352,29.006 L49.352,28.208 C49.352,28.028 49.316,27.95 49.154,27.944 C49.1,27.944 49.1,27.944 49.022,27.95 L49.01,27.95 C48.902,27.95 48.854,27.872 48.854,27.788 C48.854,27.698 48.914,27.608 49.028,27.608 L49.214,27.608 C49.58,27.608 49.706,27.83 49.706,28.094 L49.706,28.112 C49.694,28.76 49.688,30.116 49.688,30.986 L49.688,31.49 C49.688,31.586 49.766,31.598 49.934,31.598 L50.012,31.598 C50.132,31.598 50.192,31.682 50.192,31.766 C50.192,31.85 50.132,31.934 50.012,31.934 Z M51.692,31.934 L51.686,31.934 C51.524,31.928 51.344,31.922 51.176,31.922 C51.008,31.922 50.84,31.928 50.696,31.934 C50.672,31.934 50.51,31.94 50.51,31.766 C50.51,31.682 50.57,31.598 50.69,31.598 L50.696,31.598 C50.744,31.598 50.78,31.604 50.81,31.604 C50.906,31.604 51.02,31.604 51.02,31.49 C51.026,30.962 51.032,29.858 51.032,29.006 L51.032,28.208 C51.032,28.028 50.996,27.95 50.834,27.944 C50.78,27.944 50.78,27.944 50.702,27.95 L50.69,27.95 C50.582,27.95 50.534,27.872 50.534,27.788 C50.534,27.698 50.594,27.608 50.708,27.608 L50.894,27.608 C51.26,27.608 51.386,27.83 51.386,28.094 L51.386,28.112 C51.374,28.76 51.368,30.116 51.368,30.986 L51.368,31.49 C51.368,31.586 51.446,31.598 51.614,31.598 L51.692,31.598 C51.812,31.598 51.872,31.682 51.872,31.766 C51.872,31.85 51.812,31.934 51.692,31.934 Z M54.878,31.412 C54.878,31.55 54.458,32.006 53.702,32.006 C52.94,32.006 52.346,31.436 52.346,30.59 C52.346,29.714 52.976,29.138 53.684,29.138 C54.506,29.138 54.866,29.78 54.866,30.122 C54.866,30.344 54.734,30.512 54.428,30.524 C54.29,30.53 54.086,30.53 53.864,30.53 C53.414,30.53 52.904,30.524 52.772,30.524 C52.712,30.524 52.7,30.548 52.7,30.632 C52.7,31.286 53.132,31.688 53.708,31.688 C54.146,31.688 54.392,31.502 54.578,31.292 C54.614,31.256 54.656,31.238 54.698,31.238 C54.788,31.238 54.878,31.316 54.878,31.412 Z M54.512,30.062 C54.512,29.888 54.302,29.438 53.69,29.438 C53.114,29.438 52.748,29.954 52.748,30.176 C52.748,30.236 52.802,30.236 53.498,30.236 C53.81,30.236 54.146,30.236 54.314,30.23 C54.458,30.224 54.512,30.158 54.512,30.062 Z M58.022,31.424 C58.022,31.598 57.572,32 56.924,32 C56,32 55.514,31.298 55.514,30.584 C55.514,29.744 56.108,29.114 56.864,29.114 C57.122,29.114 57.368,29.192 57.542,29.294 C57.554,29.3 57.56,29.306 57.572,29.306 C57.59,29.306 57.596,29.27 57.602,29.24 C57.608,29.168 57.68,29.138 57.746,29.138 C57.836,29.138 57.92,29.186 57.92,29.288 L57.92,29.3 C57.914,29.426 57.914,29.516 57.914,29.612 C57.914,29.702 57.914,29.798 57.92,29.936 L57.92,29.948 C57.92,30.05 57.836,30.098 57.746,30.098 C57.668,30.098 57.584,30.05 57.578,29.954 C57.572,29.828 57.59,29.756 57.518,29.672 C57.368,29.498 57.14,29.426 56.906,29.426 C56.318,29.426 55.862,29.894 55.862,30.56 C55.862,31.106 56.216,31.676 56.906,31.676 C57.212,31.676 57.506,31.556 57.674,31.328 C57.722,31.262 57.776,31.238 57.83,31.238 C57.932,31.238 58.022,31.322 58.022,31.424 Z M59.942,29.516 L59.414,29.516 C59.318,29.516 59.318,29.528 59.318,29.6 C59.318,29.828 59.3,30.446 59.3,30.89 C59.3,31.358 59.312,31.676 59.78,31.676 C59.834,31.676 59.888,31.67 59.948,31.664 L59.972,31.664 C60.062,31.664 60.116,31.742 60.116,31.82 C60.116,31.976 59.972,32.006 59.732,32.006 C58.964,32.006 58.964,31.352 58.964,31.088 C58.964,30.704 58.976,29.972 58.976,29.678 L58.976,29.582 C58.976,29.522 58.958,29.516 58.916,29.516 L58.562,29.516 C58.448,29.516 58.394,29.438 58.394,29.354 C58.394,29.276 58.448,29.198 58.562,29.198 L58.91,29.198 C58.964,29.198 58.976,29.192 58.976,29.138 C58.976,29.114 58.982,28.826 58.982,28.616 L58.982,28.466 C58.982,28.352 59.072,28.292 59.156,28.292 C59.246,28.292 59.33,28.352 59.33,28.478 C59.33,28.652 59.318,29.132 59.318,29.132 C59.318,29.198 59.33,29.198 59.408,29.198 L59.942,29.198 C60.056,29.198 60.11,29.276 60.11,29.354 C60.11,29.438 60.056,29.516 59.942,29.516 Z M63.542,31.598 L63.548,31.598 C63.65,31.598 63.704,31.682 63.704,31.772 C63.704,31.856 63.65,31.94 63.542,31.946 C63.488,31.946 63.47,31.952 63.404,31.952 C63.146,31.94 62.984,31.874 62.918,31.598 C62.918,31.586 62.906,31.58 62.9,31.58 C62.888,31.58 62.882,31.586 62.87,31.598 C62.672,31.862 62.312,32.012 61.952,32.012 C61.46,32.012 60.98,31.724 60.962,31.04 C60.962,30.998 60.956,30.878 60.956,29.792 C60.956,29.54 60.83,29.522 60.746,29.522 C60.716,29.522 60.71,29.528 60.65,29.528 L60.644,29.528 C60.53,29.528 60.476,29.45 60.476,29.366 C60.476,29.282 60.536,29.192 60.65,29.192 L60.806,29.192 C61.118,29.192 61.304,29.36 61.304,29.654 C61.304,29.852 61.298,30.086 61.298,30.302 C61.298,30.608 61.304,30.884 61.31,30.998 C61.34,31.49 61.658,31.7 61.994,31.7 C62.414,31.7 62.864,31.388 62.882,30.896 L62.882,29.792 C62.882,29.636 62.84,29.528 62.69,29.522 C62.636,29.522 62.648,29.528 62.57,29.528 C62.456,29.528 62.402,29.444 62.402,29.36 C62.402,29.276 62.456,29.192 62.576,29.192 L62.726,29.192 C62.996,29.192 63.23,29.33 63.23,29.648 C63.224,30.086 63.218,30.44 63.218,30.782 C63.218,31.37 63.218,31.586 63.44,31.604 C63.482,31.604 63.512,31.598 63.542,31.598 Z M66.56,31.94 C66.386,31.94 66.17,31.778 66.116,31.556 C66.11,31.538 66.104,31.526 66.092,31.526 C66.086,31.526 66.074,31.532 66.068,31.544 C65.888,31.832 65.504,32.006 65.156,32.006 C64.55,32.006 64.184,31.592 64.184,31.178 C64.184,30.878 64.382,30.572 64.826,30.434 C65.198,30.32 65.684,30.23 65.936,30.188 C66.008,30.176 66.032,30.158 66.032,30.116 C66.032,30.086 66.038,30.05 66.038,30.02 C66.038,29.69 65.9,29.432 65.414,29.432 C65.09,29.432 64.85,29.57 64.712,29.72 C64.676,29.762 64.628,29.78 64.586,29.78 C64.496,29.78 64.418,29.714 64.418,29.618 C64.418,29.39 64.922,29.132 65.438,29.132 C65.996,29.132 66.374,29.378 66.374,30.05 C66.374,30.104 66.374,30.158 66.368,30.218 C66.35,30.416 66.338,30.728 66.338,30.956 C66.338,31.394 66.38,31.538 66.62,31.622 C66.692,31.646 66.722,31.712 66.722,31.772 C66.722,31.856 66.662,31.94 66.56,31.94 Z M65.15,31.688 C65.456,31.688 66.026,31.562 66.026,30.638 L66.026,30.56 C66.026,30.512 66.008,30.494 65.966,30.494 L65.948,30.494 C65.006,30.644 64.508,30.764 64.508,31.184 C64.508,31.436 64.748,31.688 65.15,31.688 Z M68.312,31.934 L68.306,31.934 C68.144,31.928 67.964,31.922 67.796,31.922 C67.628,31.922 67.46,31.928 67.316,31.934 C67.292,31.934 67.13,31.94 67.13,31.766 C67.13,31.682 67.19,31.598 67.31,31.598 L67.316,31.598 C67.364,31.598 67.4,31.604 67.43,31.604 C67.526,31.604 67.64,31.604 67.64,31.49 C67.646,30.962 67.652,29.858 67.652,29.006 L67.652,28.208 C67.652,28.028 67.616,27.95 67.454,27.944 C67.4,27.944 67.4,27.944 67.322,27.95 L67.31,27.95 C67.202,27.95 67.154,27.872 67.154,27.788 C67.154,27.698 67.214,27.608 67.328,27.608 L67.514,27.608 C67.88,27.608 68.006,27.83 68.006,28.094 L68.006,28.112 C67.994,28.76 67.988,30.116 67.988,30.986 L67.988,31.49 C67.988,31.586 68.066,31.598 68.234,31.598 L68.312,31.598 C68.432,31.598 68.492,31.682 68.492,31.766 C68.492,31.85 68.432,31.934 68.312,31.934 Z M70.772,31.586 L70.778,31.586 C70.856,31.586 70.916,31.592 71.012,31.592 C71.072,31.592 71.12,31.544 71.12,31.472 C71.126,30.944 71.132,30.062 71.132,29.306 C71.132,28.772 71.126,28.304 71.126,28.064 C71.126,27.986 71.096,27.938 71.012,27.938 L70.79,27.938 C70.688,27.938 70.604,27.872 70.598,27.764 C70.598,27.68 70.658,27.602 70.772,27.602 L70.79,27.602 C70.922,27.608 71.066,27.614 71.21,27.614 C71.534,27.614 71.876,27.602 72.17,27.602 C72.29,27.602 72.398,27.602 72.5,27.608 C73.346,27.662 73.76,28.25 73.76,28.844 C73.76,29.426 73.364,30.008 72.584,30.098 C72.428,30.116 72.284,30.122 72.146,30.122 C71.942,30.122 71.762,30.104 71.582,30.062 C71.558,30.056 71.534,30.05 71.522,30.05 C71.492,30.05 71.48,30.068 71.48,30.14 C71.48,30.506 71.486,31.046 71.492,31.466 C71.492,31.538 71.546,31.586 71.618,31.586 C71.714,31.586 71.762,31.58 71.852,31.58 C71.978,31.58 72.038,31.67 72.038,31.754 C72.038,31.844 71.978,31.934 71.864,31.934 L71.852,31.934 C71.684,31.928 71.504,31.922 71.33,31.922 C71.12,31.922 70.922,31.928 70.778,31.934 C70.586,31.94 70.58,31.796 70.58,31.766 C70.58,31.676 70.646,31.586 70.772,31.586 Z M72.518,29.774 C73.082,29.714 73.388,29.27 73.388,28.826 C73.388,28.388 73.088,27.962 72.458,27.926 C72.404,27.926 72.284,27.92 72.158,27.92 C71.966,27.92 71.75,27.926 71.636,27.932 C71.48,27.944 71.48,27.956 71.48,28.574 L71.48,29.6 C71.48,29.672 71.528,29.798 72.122,29.798 C72.254,29.798 72.386,29.786 72.518,29.774 Z M75.416,31.928 L75.41,31.928 C75.254,31.922 75.08,31.916 74.918,31.916 C74.756,31.916 74.594,31.922 74.456,31.928 C74.318,31.934 74.276,31.838 74.276,31.772 C74.276,31.688 74.336,31.604 74.45,31.604 L74.456,31.604 C74.534,31.604 74.564,31.61 74.66,31.61 C74.72,31.61 74.756,31.568 74.756,31.502 C74.762,31.04 74.768,30.674 74.768,30.272 L74.768,29.804 C74.768,29.642 74.72,29.534 74.57,29.528 C74.516,29.528 74.522,29.528 74.444,29.534 L74.438,29.534 C74.33,29.534 74.276,29.45 74.276,29.366 C74.276,29.276 74.33,29.192 74.444,29.192 L74.612,29.192 C74.852,29.192 75.05,29.294 75.086,29.51 C75.086,29.528 75.098,29.528 75.104,29.528 C75.116,29.528 75.128,29.522 75.14,29.51 C75.302,29.288 75.65,29.15 75.992,29.138 C76.106,29.132 76.19,29.192 76.19,29.306 C76.19,29.39 76.13,29.474 76.022,29.474 L75.986,29.474 C75.572,29.474 75.122,29.744 75.11,30.188 C75.11,30.302 75.104,30.488 75.104,30.716 C75.104,30.944 75.11,31.214 75.11,31.502 C75.11,31.562 75.146,31.61 75.212,31.61 C75.302,31.61 75.326,31.61 75.41,31.604 C75.512,31.598 75.59,31.67 75.59,31.766 C75.59,31.844 75.53,31.928 75.416,31.928 Z M78.026,32.006 C77.228,32.006 76.64,31.43 76.64,30.566 C76.64,29.732 77.228,29.132 78.026,29.132 C78.824,29.132 79.424,29.732 79.424,30.566 C79.424,31.43 78.824,32.006 78.026,32.006 Z M78.026,31.688 C78.602,31.688 79.07,31.238 79.07,30.566 C79.07,29.888 78.602,29.444 78.026,29.444 C77.45,29.444 76.988,29.888 76.988,30.566 C76.988,31.238 77.45,31.688 78.026,31.688 Z M81.056,33.476 L81.05,33.476 C80.888,33.47 80.678,33.47 80.48,33.47 C80.342,33.47 80.204,33.47 80.096,33.476 C80.06,33.476 79.922,33.476 79.928,33.314 C79.928,33.23 79.976,33.152 80.084,33.152 L80.096,33.152 C80.174,33.158 80.192,33.158 80.288,33.158 C80.372,33.158 80.402,33.104 80.402,33.014 C80.408,32.414 80.408,31.484 80.408,30.692 L80.408,29.822 C80.408,29.648 80.354,29.534 80.198,29.528 C80.144,29.528 80.156,29.534 80.078,29.534 L80.072,29.534 C79.964,29.534 79.904,29.45 79.904,29.366 C79.904,29.288 79.964,29.198 80.078,29.198 C80.156,29.198 80.216,29.192 80.276,29.192 C80.504,29.198 80.708,29.342 80.726,29.576 C80.732,29.624 80.726,29.672 80.738,29.672 C80.75,29.672 80.762,29.654 80.786,29.624 C80.984,29.342 81.374,29.15 81.776,29.15 C82.556,29.15 83.138,29.732 83.138,30.578 C83.138,31.436 82.556,32 81.776,32 C81.422,32 81.062,31.856 80.822,31.562 C80.786,31.52 80.768,31.49 80.762,31.49 C80.75,31.49 80.75,31.52 80.75,31.586 L80.75,33.014 C80.75,33.092 80.78,33.152 80.888,33.152 C80.984,33.152 80.972,33.146 81.062,33.146 L81.068,33.146 C81.17,33.146 81.224,33.224 81.224,33.308 C81.224,33.392 81.17,33.476 81.056,33.476 Z M81.764,31.688 C82.334,31.688 82.784,31.25 82.784,30.578 C82.784,29.906 82.334,29.462 81.764,29.462 C81.194,29.462 80.744,29.906 80.744,30.578 C80.744,31.25 81.194,31.688 81.764,31.688 Z M86.348,31.412 C86.348,31.55 85.928,32.006 85.172,32.006 C84.41,32.006 83.816,31.436 83.816,30.59 C83.816,29.714 84.446,29.138 85.154,29.138 C85.976,29.138 86.336,29.78 86.336,30.122 C86.336,30.344 86.204,30.512 85.898,30.524 C85.76,30.53 85.556,30.53 85.334,30.53 C84.884,30.53 84.374,30.524 84.242,30.524 C84.182,30.524 84.17,30.548 84.17,30.632 C84.17,31.286 84.602,31.688 85.178,31.688 C85.616,31.688 85.862,31.502 86.048,31.292 C86.084,31.256 86.126,31.238 86.168,31.238 C86.258,31.238 86.348,31.316 86.348,31.412 Z M85.982,30.062 C85.982,29.888 85.772,29.438 85.16,29.438 C84.584,29.438 84.218,29.954 84.218,30.176 C84.218,30.236 84.272,30.236 84.968,30.236 C85.28,30.236 85.616,30.236 85.784,30.23 C85.928,30.224 85.982,30.158 85.982,30.062 Z M87.986,31.928 L87.98,31.928 C87.824,31.922 87.65,31.916 87.488,31.916 C87.326,31.916 87.164,31.922 87.026,31.928 C86.888,31.934 86.846,31.838 86.846,31.772 C86.846,31.688 86.906,31.604 87.02,31.604 L87.026,31.604 C87.104,31.604 87.134,31.61 87.23,31.61 C87.29,31.61 87.326,31.568 87.326,31.502 C87.332,31.04 87.338,30.674 87.338,30.272 L87.338,29.804 C87.338,29.642 87.29,29.534 87.14,29.528 C87.086,29.528 87.092,29.528 87.014,29.534 L87.008,29.534 C86.9,29.534 86.846,29.45 86.846,29.366 C86.846,29.276 86.9,29.192 87.014,29.192 L87.182,29.192 C87.422,29.192 87.62,29.294 87.656,29.51 C87.656,29.528 87.668,29.528 87.674,29.528 C87.686,29.528 87.698,29.522 87.71,29.51 C87.872,29.288 88.22,29.15 88.562,29.138 C88.676,29.132 88.76,29.192 88.76,29.306 C88.76,29.39 88.7,29.474 88.592,29.474 L88.556,29.474 C88.142,29.474 87.692,29.744 87.68,30.188 C87.68,30.302 87.674,30.488 87.674,30.716 C87.674,30.944 87.68,31.214 87.68,31.502 C87.68,31.562 87.716,31.61 87.782,31.61 C87.872,31.61 87.896,31.61 87.98,31.604 C88.082,31.598 88.16,31.67 88.16,31.766 C88.16,31.844 88.1,31.928 87.986,31.928 Z M90.584,29.516 L90.056,29.516 C89.96,29.516 89.96,29.528 89.96,29.6 C89.96,29.828 89.942,30.446 89.942,30.89 C89.942,31.358 89.954,31.676 90.422,31.676 C90.476,31.676 90.53,31.67 90.59,31.664 L90.614,31.664 C90.704,31.664 90.758,31.742 90.758,31.82 C90.758,31.976 90.614,32.006 90.374,32.006 C89.606,32.006 89.606,31.352 89.606,31.088 C89.606,30.704 89.618,29.972 89.618,29.678 L89.618,29.582 C89.618,29.522 89.6,29.516 89.558,29.516 L89.204,29.516 C89.09,29.516 89.036,29.438 89.036,29.354 C89.036,29.276 89.09,29.198 89.204,29.198 L89.552,29.198 C89.606,29.198 89.618,29.192 89.618,29.138 C89.618,29.114 89.624,28.826 89.624,28.616 L89.624,28.466 C89.624,28.352 89.714,28.292 89.798,28.292 C89.888,28.292 89.972,28.352 89.972,28.478 C89.972,28.652 89.96,29.132 89.96,29.132 C89.96,29.198 89.972,29.198 90.05,29.198 L90.584,29.198 C90.698,29.198 90.752,29.276 90.752,29.354 C90.752,29.438 90.698,29.516 90.584,29.516 Z M92.786,32.318 C92.444,33.14 92.132,33.512 91.508,33.518 C91.388,33.518 91.322,33.428 91.322,33.338 C91.322,33.248 91.382,33.164 91.52,33.164 C92.006,33.164 92.21,32.828 92.528,32.09 C92.54,32.06 92.546,32.036 92.546,32.012 C92.546,31.982 92.534,31.952 92.516,31.91 C92.354,31.502 91.802,30.182 91.58,29.606 C91.556,29.546 91.532,29.498 91.454,29.498 C91.364,29.498 91.37,29.504 91.286,29.504 C91.178,29.504 91.124,29.426 91.124,29.348 C91.124,29.27 91.178,29.192 91.286,29.192 L91.298,29.192 C91.46,29.198 91.61,29.198 91.754,29.198 C91.904,29.198 92.042,29.198 92.186,29.192 L92.198,29.192 C92.306,29.192 92.354,29.264 92.354,29.342 C92.354,29.42 92.3,29.498 92.192,29.498 C92.12,29.498 92.114,29.492 92.018,29.492 C91.964,29.492 91.94,29.51 91.94,29.552 C91.94,29.564 91.94,29.582 91.946,29.6 C92.33,30.62 92.684,31.538 92.738,31.538 C92.81,31.538 93.554,29.606 93.554,29.558 C93.554,29.516 93.524,29.492 93.47,29.492 C93.374,29.492 93.368,29.498 93.296,29.498 C93.146,29.504 93.128,29.366 93.128,29.342 C93.128,29.27 93.182,29.192 93.29,29.192 L93.302,29.192 C93.446,29.198 93.59,29.198 93.734,29.198 C93.884,29.198 94.034,29.198 94.19,29.192 L94.202,29.192 C94.316,29.192 94.37,29.27 94.37,29.348 C94.37,29.426 94.316,29.504 94.202,29.504 C94.154,29.504 94.106,29.498 94.064,29.498 C94.01,29.498 93.968,29.504 93.95,29.534 C93.938,29.552 93.026,31.736 92.786,32.318 Z M96.62,27.944 L96.614,27.944 C96.494,27.944 96.434,27.86 96.434,27.776 C96.428,27.692 96.494,27.608 96.614,27.608 L96.62,27.608 C96.866,27.62 97.112,27.62 97.364,27.62 C97.772,27.62 98.18,27.614 98.582,27.608 C98.96,27.608 99.206,27.71 99.326,28.034 C99.38,28.172 99.44,28.364 99.44,28.412 C99.44,28.526 99.344,28.592 99.248,28.592 C99.176,28.592 99.098,28.544 99.08,28.448 C99.062,28.352 99.026,28.268 98.99,28.166 C98.906,27.932 98.798,27.932 97.712,27.932 L97.466,27.932 C97.388,27.932 97.334,27.974 97.334,28.064 C97.328,28.244 97.328,29.072 97.322,29.444 C97.322,29.498 97.352,29.528 97.412,29.528 C97.514,29.534 97.742,29.534 97.958,29.534 C98.378,29.534 98.456,29.534 98.456,29.402 C98.456,29.306 98.45,29.258 98.45,29.18 C98.444,29.042 98.546,29 98.618,29 C98.702,29 98.78,29.054 98.78,29.168 L98.78,29.18 C98.774,29.324 98.768,29.48 98.768,29.642 C98.768,29.834 98.774,30.032 98.78,30.218 C98.786,30.38 98.66,30.398 98.612,30.398 C98.534,30.398 98.45,30.344 98.45,30.23 L98.45,30.218 C98.456,30.128 98.456,30.074 98.456,29.972 C98.456,29.906 98.408,29.846 98.336,29.846 C98.198,29.84 98,29.84 97.802,29.84 C97.658,29.84 97.52,29.84 97.406,29.846 C97.352,29.846 97.322,29.864 97.322,29.924 C97.322,30.332 97.322,31.088 97.328,31.466 C97.328,31.544 97.382,31.592 97.46,31.598 C97.532,31.604 97.814,31.604 98.102,31.604 C98.318,31.604 98.534,31.604 98.672,31.598 C98.918,31.592 99.116,31.544 99.23,31.052 C99.254,30.962 99.326,30.92 99.398,30.92 C99.488,30.92 99.584,30.986 99.584,31.1 C99.584,31.124 99.578,31.148 99.572,31.172 C99.41,31.688 99.266,31.934 98.702,31.934 L98.678,31.934 C98.21,31.928 97.7,31.922 97.274,31.922 C97.01,31.922 96.776,31.922 96.602,31.934 C96.446,31.94 96.41,31.796 96.41,31.754 C96.416,31.67 96.47,31.58 96.59,31.58 L96.602,31.58 C96.68,31.58 96.752,31.586 96.848,31.586 C96.908,31.586 96.962,31.544 96.962,31.472 C96.968,31.154 96.968,30.848 96.968,28.058 C96.968,27.98 96.926,27.938 96.854,27.938 C96.758,27.938 96.698,27.944 96.62,27.944 Z M102.896,29.492 L102.89,29.492 C102.806,29.492 102.818,29.486 102.728,29.486 C102.656,29.486 102.62,29.534 102.602,29.588 C102.35,30.248 101.954,31.268 101.774,31.724 C101.714,31.886 101.588,31.964 101.468,31.964 C101.342,31.964 101.216,31.88 101.15,31.724 C100.976,31.292 100.502,30.08 100.328,29.6 C100.304,29.528 100.28,29.492 100.202,29.492 C100.112,29.492 100.112,29.498 100.028,29.498 C99.914,29.504 99.872,29.414 99.872,29.348 C99.872,29.27 99.926,29.192 100.034,29.192 L100.046,29.192 C100.208,29.198 100.352,29.198 100.49,29.198 C100.634,29.198 100.772,29.198 100.916,29.192 L100.928,29.192 C101.036,29.192 101.09,29.264 101.09,29.336 C101.09,29.414 101.036,29.492 100.934,29.492 C100.862,29.492 100.85,29.486 100.754,29.486 C100.706,29.486 100.688,29.51 100.688,29.546 C100.688,29.558 100.688,29.57 100.694,29.582 C100.868,30.068 101.264,31.142 101.378,31.466 C101.402,31.532 101.426,31.562 101.456,31.562 C101.486,31.562 101.516,31.532 101.534,31.478 C101.654,31.172 102.044,30.128 102.236,29.582 C102.242,29.576 102.242,29.57 102.242,29.564 C102.242,29.522 102.242,29.486 102.104,29.486 C102.056,29.486 102.014,29.492 101.99,29.492 C101.888,29.492 101.84,29.414 101.84,29.342 C101.84,29.27 101.894,29.192 102.002,29.192 L102.014,29.192 C102.158,29.198 102.296,29.198 102.434,29.198 C102.578,29.198 102.728,29.198 102.884,29.192 C102.896,29.192 103.052,29.186 103.052,29.336 C103.052,29.414 102.998,29.492 102.896,29.492 Z M104.882,32.006 C104.084,32.006 103.496,31.43 103.496,30.566 C103.496,29.732 104.084,29.132 104.882,29.132 C105.68,29.132 106.28,29.732 106.28,30.566 C106.28,31.43 105.68,32.006 104.882,32.006 Z M104.882,31.688 C105.458,31.688 105.926,31.238 105.926,30.566 C105.926,29.888 105.458,29.444 104.882,29.444 C104.306,29.444 103.844,29.888 103.844,30.566 C103.844,31.238 104.306,31.688 104.882,31.688 Z M107.972,31.934 L107.966,31.934 C107.804,31.928 107.624,31.922 107.456,31.922 C107.288,31.922 107.12,31.928 106.976,31.934 C106.952,31.934 106.79,31.94 106.79,31.766 C106.79,31.682 106.85,31.598 106.97,31.598 L106.976,31.598 C107.024,31.598 107.06,31.604 107.09,31.604 C107.186,31.604 107.3,31.604 107.3,31.49 C107.306,30.962 107.312,29.858 107.312,29.006 L107.312,28.208 C107.312,28.028 107.276,27.95 107.114,27.944 C107.06,27.944 107.06,27.944 106.982,27.95 L106.97,27.95 C106.862,27.95 106.814,27.872 106.814,27.788 C106.814,27.698 106.874,27.608 106.988,27.608 L107.174,27.608 C107.54,27.608 107.666,27.83 107.666,28.094 L107.666,28.112 C107.654,28.76 107.648,30.116 107.648,30.986 L107.648,31.49 C107.648,31.586 107.726,31.598 107.894,31.598 L107.972,31.598 C108.092,31.598 108.152,31.682 108.152,31.766 C108.152,31.85 108.092,31.934 107.972,31.934 Z M111.476,31.598 L111.482,31.598 C111.584,31.598 111.638,31.682 111.638,31.772 C111.638,31.856 111.584,31.94 111.476,31.946 C111.422,31.946 111.404,31.952 111.338,31.952 C111.08,31.94 110.918,31.874 110.852,31.598 C110.852,31.586 110.84,31.58 110.834,31.58 C110.822,31.58 110.816,31.586 110.804,31.598 C110.606,31.862 110.246,32.012 109.886,32.012 C109.394,32.012 108.914,31.724 108.896,31.04 C108.896,30.998 108.89,30.878 108.89,29.792 C108.89,29.54 108.764,29.522 108.68,29.522 C108.65,29.522 108.644,29.528 108.584,29.528 L108.578,29.528 C108.464,29.528 108.41,29.45 108.41,29.366 C108.41,29.282 108.47,29.192 108.584,29.192 L108.74,29.192 C109.052,29.192 109.238,29.36 109.238,29.654 C109.238,29.852 109.232,30.086 109.232,30.302 C109.232,30.608 109.238,30.884 109.244,30.998 C109.274,31.49 109.592,31.7 109.928,31.7 C110.348,31.7 110.798,31.388 110.816,30.896 L110.816,29.792 C110.816,29.636 110.774,29.528 110.624,29.522 C110.57,29.522 110.582,29.528 110.504,29.528 C110.39,29.528 110.336,29.444 110.336,29.36 C110.336,29.276 110.39,29.192 110.51,29.192 L110.66,29.192 C110.93,29.192 111.164,29.33 111.164,29.648 C111.158,30.086 111.152,30.44 111.152,30.782 C111.152,31.37 111.152,31.586 111.374,31.604 C111.416,31.604 111.446,31.598 111.476,31.598 Z M113.474,29.516 L112.946,29.516 C112.85,29.516 112.85,29.528 112.85,29.6 C112.85,29.828 112.832,30.446 112.832,30.89 C112.832,31.358 112.844,31.676 113.312,31.676 C113.366,31.676 113.42,31.67 113.48,31.664 L113.504,31.664 C113.594,31.664 113.648,31.742 113.648,31.82 C113.648,31.976 113.504,32.006 113.264,32.006 C112.496,32.006 112.496,31.352 112.496,31.088 C112.496,30.704 112.508,29.972 112.508,29.678 L112.508,29.582 C112.508,29.522 112.49,29.516 112.448,29.516 L112.094,29.516 C111.98,29.516 111.926,29.438 111.926,29.354 C111.926,29.276 111.98,29.198 112.094,29.198 L112.442,29.198 C112.496,29.198 112.508,29.192 112.508,29.138 C112.508,29.114 112.514,28.826 112.514,28.616 L112.514,28.466 C112.514,28.352 112.604,28.292 112.688,28.292 C112.778,28.292 112.862,28.352 112.862,28.478 C112.862,28.652 112.85,29.132 112.85,29.132 C112.85,29.198 112.862,29.198 112.94,29.198 L113.474,29.198 C113.588,29.198 113.642,29.276 113.642,29.354 C113.642,29.438 113.588,29.516 113.474,29.516 Z M114.938,27.812 C114.938,27.86 114.908,28.1 114.638,28.1 C114.608,28.1 114.356,28.1 114.356,27.812 C114.356,27.62 114.524,27.53 114.644,27.53 C114.83,27.53 114.938,27.668 114.938,27.812 Z M115.25,31.934 L115.244,31.934 C115.082,31.928 114.902,31.922 114.734,31.922 C114.566,31.922 114.398,31.928 114.254,31.934 C114.23,31.934 114.068,31.94 114.068,31.766 C114.068,31.682 114.128,31.598 114.248,31.598 L114.254,31.598 C114.332,31.598 114.368,31.604 114.47,31.604 C114.542,31.604 114.578,31.562 114.578,31.484 C114.584,30.914 114.59,30.326 114.59,29.804 C114.59,29.63 114.53,29.534 114.386,29.528 C114.338,29.528 114.308,29.534 114.26,29.534 L114.248,29.534 C114.14,29.534 114.086,29.45 114.086,29.372 C114.086,29.282 114.146,29.192 114.26,29.192 C114.374,29.192 114.356,29.198 114.494,29.198 C114.824,29.198 114.938,29.438 114.938,29.69 L114.938,29.708 C114.932,30.128 114.926,30.584 114.926,31.022 L114.926,31.49 C114.926,31.55 114.962,31.604 115.034,31.604 C115.13,31.604 115.154,31.604 115.244,31.598 C115.268,31.598 115.43,31.592 115.43,31.766 C115.43,31.85 115.37,31.934 115.25,31.934 Z M117.272,32.006 C116.474,32.006 115.886,31.43 115.886,30.566 C115.886,29.732 116.474,29.132 117.272,29.132 C118.07,29.132 118.67,29.732 118.67,30.566 C118.67,31.43 118.07,32.006 117.272,32.006 Z M117.272,31.688 C117.848,31.688 118.316,31.238 118.316,30.566 C118.316,29.888 117.848,29.444 117.272,29.444 C116.696,29.444 116.234,29.888 116.234,30.566 C116.234,31.238 116.696,31.688 117.272,31.688 Z M122.192,31.928 L122.186,31.928 C122.03,31.922 121.874,31.916 121.718,31.916 C121.568,31.916 121.424,31.922 121.286,31.928 C121.148,31.934 121.106,31.838 121.106,31.772 C121.106,31.688 121.166,31.604 121.28,31.604 L121.286,31.604 C121.358,31.604 121.37,31.61 121.466,31.61 C121.526,31.61 121.556,31.568 121.556,31.502 C121.562,31.226 121.562,30.884 121.562,30.602 C121.562,30.398 121.562,30.23 121.556,30.146 C121.526,29.648 121.208,29.444 120.872,29.444 C120.452,29.444 119.99,29.762 119.972,30.236 C119.972,30.35 119.966,30.53 119.966,30.746 C119.966,30.968 119.972,31.226 119.972,31.508 C119.972,31.574 120.008,31.61 120.08,31.61 C120.17,31.61 120.158,31.61 120.242,31.604 C120.35,31.598 120.422,31.67 120.422,31.766 C120.422,31.844 120.362,31.928 120.248,31.928 L120.242,31.928 C120.086,31.922 119.924,31.916 119.774,31.916 C119.624,31.916 119.474,31.922 119.336,31.928 C119.198,31.934 119.156,31.838 119.156,31.772 C119.156,31.688 119.216,31.604 119.33,31.604 L119.336,31.604 C119.408,31.604 119.426,31.61 119.522,31.61 C119.582,31.61 119.624,31.574 119.624,31.508 C119.63,31.13 119.636,30.818 119.636,30.506 C119.636,30.284 119.63,30.056 119.63,29.798 C119.63,29.642 119.576,29.534 119.432,29.528 C119.378,29.528 119.384,29.528 119.306,29.534 L119.294,29.534 C119.186,29.534 119.132,29.45 119.132,29.366 C119.132,29.282 119.192,29.192 119.306,29.192 L119.48,29.192 C119.72,29.192 119.924,29.306 119.954,29.528 C119.96,29.546 119.966,29.558 119.984,29.558 C119.99,29.558 120.002,29.552 120.014,29.54 C120.224,29.27 120.566,29.132 120.902,29.132 C121.4,29.132 121.88,29.438 121.904,30.092 C121.91,30.29 121.916,30.782 121.916,31.214 L121.916,31.502 C121.916,31.568 121.946,31.61 122.012,31.61 C122.102,31.61 122.102,31.604 122.186,31.604 L122.192,31.604 C122.306,31.604 122.366,31.682 122.366,31.766 C122.366,31.85 122.306,31.928 122.192,31.928 Z M42.446,37.522 L42.44,37.522 C42.362,37.522 42.332,37.516 42.236,37.516 C42.164,37.516 42.128,37.558 42.104,37.624 C41.942,38.092 41.696,38.59 41.354,39.01 C41.336,39.028 41.324,39.046 41.324,39.064 C41.324,39.088 41.756,39.604 42.164,39.604 C42.254,39.604 42.338,39.58 42.428,39.544 C42.452,39.532 42.482,39.526 42.5,39.526 C42.602,39.526 42.674,39.616 42.674,39.712 C42.674,39.892 42.416,39.964 42.17,39.964 C41.78,39.964 41.48,39.73 41.15,39.388 C41.126,39.364 41.102,39.346 41.078,39.346 C41.06,39.346 41.042,39.358 41.024,39.376 C40.82,39.58 40.25,40.012 39.602,40.012 C38.876,40.012 38.378,39.46 38.378,38.848 C38.378,38.176 38.96,37.744 39.368,37.48 C39.392,37.462 39.404,37.45 39.404,37.432 C39.404,37.42 39.398,37.408 39.386,37.396 C39.032,37.054 38.876,36.724 38.876,36.43 C38.876,35.938 39.296,35.542 39.812,35.542 C40.334,35.542 40.682,35.95 40.682,36.382 C40.682,36.568 40.622,36.97 39.938,37.444 C39.914,37.456 39.902,37.468 39.902,37.486 C39.902,37.498 39.914,37.516 39.938,37.54 C40.226,37.846 40.736,38.422 41.042,38.77 C41.06,38.788 41.072,38.794 41.084,38.794 C41.192,38.794 41.744,37.768 41.744,37.582 C41.744,37.534 41.708,37.516 41.642,37.516 C41.546,37.516 41.522,37.516 41.432,37.522 C41.36,37.528 41.252,37.498 41.252,37.354 C41.252,37.276 41.306,37.192 41.42,37.192 L41.432,37.192 C41.6,37.198 41.78,37.198 41.948,37.198 C42.122,37.198 42.29,37.198 42.44,37.192 C42.596,37.186 42.632,37.318 42.632,37.354 C42.632,37.438 42.566,37.522 42.446,37.522 Z M40.238,36.73 C40.304,36.616 40.34,36.496 40.34,36.376 C40.34,36.028 40.064,35.854 39.788,35.854 C39.422,35.854 39.212,36.148 39.212,36.448 C39.212,36.874 39.65,37.246 39.68,37.246 C39.746,37.246 40.172,36.85 40.238,36.73 Z M40.844,39.058 C40.844,39.01 39.686,37.684 39.632,37.684 C39.62,37.684 39.602,37.69 39.578,37.708 C39.146,38.002 38.732,38.308 38.732,38.842 C38.732,39.304 39.122,39.676 39.644,39.676 C40.238,39.676 40.844,39.142 40.844,39.058 Z M49.01,39.142 C49.01,39.346 48.326,40 47.27,40 C45.944,40 45.11,39.028 45.11,37.81 C45.11,36.664 45.896,35.542 47.288,35.542 C47.696,35.542 48.098,35.65 48.422,35.878 C48.434,35.89 48.464,35.902 48.464,35.818 C48.464,35.692 48.482,35.596 48.632,35.596 C48.722,35.596 48.812,35.65 48.812,35.758 L48.812,35.77 C48.806,35.926 48.8,36.058 48.8,36.196 C48.8,36.334 48.806,36.472 48.812,36.64 L48.812,36.652 C48.812,36.772 48.722,36.826 48.638,36.826 C48.548,36.826 48.458,36.772 48.458,36.658 C48.458,36.568 48.458,36.394 48.38,36.316 C48.098,36.022 47.69,35.884 47.276,35.884 C46.148,35.884 45.494,36.814 45.494,37.774 C45.494,38.668 46.064,39.634 47.258,39.634 C47.792,39.634 48.326,39.418 48.62,39.022 C48.668,38.956 48.734,38.926 48.794,38.926 C48.902,38.926 49.01,39.028 49.01,39.142 Z M50.936,40.006 C50.138,40.006 49.55,39.43 49.55,38.566 C49.55,37.732 50.138,37.132 50.936,37.132 C51.734,37.132 52.334,37.732 52.334,38.566 C52.334,39.43 51.734,40.006 50.936,40.006 Z M50.936,39.688 C51.512,39.688 51.98,39.238 51.98,38.566 C51.98,37.888 51.512,37.444 50.936,37.444 C50.36,37.444 49.898,37.888 49.898,38.566 C49.898,39.238 50.36,39.688 50.936,39.688 Z M57.332,39.928 L57.326,39.928 C57.176,39.922 57.02,39.916 56.876,39.916 C56.726,39.916 56.588,39.922 56.45,39.928 C56.36,39.934 56.282,39.868 56.282,39.772 C56.282,39.688 56.336,39.61 56.444,39.61 L56.45,39.61 C56.522,39.61 56.534,39.616 56.624,39.616 C56.684,39.616 56.726,39.58 56.726,39.514 C56.726,39.34 56.732,39.1 56.732,38.86 C56.732,38.53 56.726,38.206 56.72,38.092 C56.696,37.63 56.426,37.444 56.126,37.444 C55.754,37.444 55.34,37.738 55.322,38.146 C55.316,38.278 55.31,38.566 55.31,38.872 C55.31,39.094 55.316,39.322 55.316,39.514 C55.316,39.58 55.352,39.616 55.424,39.616 C55.514,39.616 55.502,39.616 55.586,39.61 C55.694,39.604 55.754,39.682 55.754,39.766 C55.754,39.844 55.7,39.928 55.592,39.928 L55.586,39.928 C55.436,39.922 55.28,39.916 55.136,39.916 C54.986,39.916 54.848,39.922 54.71,39.928 C54.602,39.934 54.542,39.856 54.542,39.772 C54.542,39.694 54.596,39.61 54.704,39.61 L54.71,39.61 C54.782,39.61 54.8,39.616 54.89,39.616 C54.95,39.616 54.992,39.574 54.992,39.508 C54.992,39.304 54.998,39.064 54.998,38.83 C54.998,38.506 54.992,38.206 54.986,38.092 C54.962,37.63 54.692,37.444 54.398,37.444 C54.026,37.444 53.618,37.744 53.6,38.188 C53.6,38.284 53.594,38.5 53.594,38.746 C53.594,38.998 53.6,39.274 53.6,39.508 C53.6,39.574 53.636,39.616 53.708,39.616 C53.798,39.616 53.78,39.616 53.864,39.61 L53.87,39.61 C53.978,39.61 54.032,39.688 54.032,39.766 C54.032,39.85 53.978,39.928 53.87,39.928 L53.864,39.928 C53.714,39.922 53.558,39.916 53.408,39.916 C53.264,39.916 53.12,39.922 52.982,39.928 C52.832,39.934 52.814,39.814 52.808,39.772 C52.814,39.688 52.868,39.61 52.976,39.61 L52.982,39.61 C53.054,39.61 53.072,39.616 53.162,39.616 C53.222,39.616 53.264,39.58 53.264,39.514 C53.27,39.112 53.276,38.662 53.276,38.242 L53.276,37.792 C53.276,37.642 53.228,37.522 53.09,37.522 C53.036,37.522 53.036,37.528 52.958,37.528 C52.856,37.528 52.802,37.444 52.802,37.36 C52.802,37.276 52.856,37.192 52.964,37.192 C53.018,37.192 53.078,37.186 53.138,37.186 C53.564,37.186 53.606,37.48 53.612,37.498 C53.618,37.516 53.618,37.522 53.624,37.522 L53.636,37.51 C53.834,37.264 54.14,37.138 54.44,37.138 C54.776,37.138 55.106,37.306 55.232,37.66 C55.46,37.306 55.82,37.132 56.162,37.132 C56.618,37.132 57.044,37.444 57.062,38.032 C57.068,38.284 57.074,39.046 57.074,39.514 C57.074,39.574 57.104,39.616 57.17,39.616 C57.26,39.616 57.242,39.61 57.326,39.61 L57.332,39.61 C57.44,39.61 57.494,39.688 57.494,39.766 C57.494,39.85 57.44,39.928 57.332,39.928 Z M62.3,39.928 L62.294,39.928 C62.144,39.922 61.988,39.916 61.844,39.916 C61.694,39.916 61.556,39.922 61.418,39.928 C61.328,39.934 61.25,39.868 61.25,39.772 C61.25,39.688 61.304,39.61 61.412,39.61 L61.418,39.61 C61.49,39.61 61.502,39.616 61.592,39.616 C61.652,39.616 61.694,39.58 61.694,39.514 C61.694,39.34 61.7,39.1 61.7,38.86 C61.7,38.53 61.694,38.206 61.688,38.092 C61.664,37.63 61.394,37.444 61.094,37.444 C60.722,37.444 60.308,37.738 60.29,38.146 C60.284,38.278 60.278,38.566 60.278,38.872 C60.278,39.094 60.284,39.322 60.284,39.514 C60.284,39.58 60.32,39.616 60.392,39.616 C60.482,39.616 60.47,39.616 60.554,39.61 C60.662,39.604 60.722,39.682 60.722,39.766 C60.722,39.844 60.668,39.928 60.56,39.928 L60.554,39.928 C60.404,39.922 60.248,39.916 60.104,39.916 C59.954,39.916 59.816,39.922 59.678,39.928 C59.57,39.934 59.51,39.856 59.51,39.772 C59.51,39.694 59.564,39.61 59.672,39.61 L59.678,39.61 C59.75,39.61 59.768,39.616 59.858,39.616 C59.918,39.616 59.96,39.574 59.96,39.508 C59.96,39.304 59.966,39.064 59.966,38.83 C59.966,38.506 59.96,38.206 59.954,38.092 C59.93,37.63 59.66,37.444 59.366,37.444 C58.994,37.444 58.586,37.744 58.568,38.188 C58.568,38.284 58.562,38.5 58.562,38.746 C58.562,38.998 58.568,39.274 58.568,39.508 C58.568,39.574 58.604,39.616 58.676,39.616 C58.766,39.616 58.748,39.616 58.832,39.61 L58.838,39.61 C58.946,39.61 59,39.688 59,39.766 C59,39.85 58.946,39.928 58.838,39.928 L58.832,39.928 C58.682,39.922 58.526,39.916 58.376,39.916 C58.232,39.916 58.088,39.922 57.95,39.928 C57.8,39.934 57.782,39.814 57.776,39.772 C57.782,39.688 57.836,39.61 57.944,39.61 L57.95,39.61 C58.022,39.61 58.04,39.616 58.13,39.616 C58.19,39.616 58.232,39.58 58.232,39.514 C58.238,39.112 58.244,38.662 58.244,38.242 L58.244,37.792 C58.244,37.642 58.196,37.522 58.058,37.522 C58.004,37.522 58.004,37.528 57.926,37.528 C57.824,37.528 57.77,37.444 57.77,37.36 C57.77,37.276 57.824,37.192 57.932,37.192 C57.986,37.192 58.046,37.186 58.106,37.186 C58.532,37.186 58.574,37.48 58.58,37.498 C58.586,37.516 58.586,37.522 58.592,37.522 L58.604,37.51 C58.802,37.264 59.108,37.138 59.408,37.138 C59.744,37.138 60.074,37.306 60.2,37.66 C60.428,37.306 60.788,37.132 61.13,37.132 C61.586,37.132 62.012,37.444 62.03,38.032 C62.036,38.284 62.042,39.046 62.042,39.514 C62.042,39.574 62.072,39.616 62.138,39.616 C62.228,39.616 62.21,39.61 62.294,39.61 L62.3,39.61 C62.408,39.61 62.462,39.688 62.462,39.766 C62.462,39.85 62.408,39.928 62.3,39.928 Z M65.468,39.412 C65.468,39.55 65.048,40.006 64.292,40.006 C63.53,40.006 62.936,39.436 62.936,38.59 C62.936,37.714 63.566,37.138 64.274,37.138 C65.096,37.138 65.456,37.78 65.456,38.122 C65.456,38.344 65.324,38.512 65.018,38.524 C64.88,38.53 64.676,38.53 64.454,38.53 C64.004,38.53 63.494,38.524 63.362,38.524 C63.302,38.524 63.29,38.548 63.29,38.632 C63.29,39.286 63.722,39.688 64.298,39.688 C64.736,39.688 64.982,39.502 65.168,39.292 C65.204,39.256 65.246,39.238 65.288,39.238 C65.378,39.238 65.468,39.316 65.468,39.412 Z M65.102,38.062 C65.102,37.888 64.892,37.438 64.28,37.438 C63.704,37.438 63.338,37.954 63.338,38.176 C63.338,38.236 63.392,38.236 64.088,38.236 C64.4,38.236 64.736,38.236 64.904,38.23 C65.048,38.224 65.102,38.158 65.102,38.062 Z M67.106,39.928 L67.1,39.928 C66.944,39.922 66.77,39.916 66.608,39.916 C66.446,39.916 66.284,39.922 66.146,39.928 C66.008,39.934 65.966,39.838 65.966,39.772 C65.966,39.688 66.026,39.604 66.14,39.604 L66.146,39.604 C66.224,39.604 66.254,39.61 66.35,39.61 C66.41,39.61 66.446,39.568 66.446,39.502 C66.452,39.04 66.458,38.674 66.458,38.272 L66.458,37.804 C66.458,37.642 66.41,37.534 66.26,37.528 C66.206,37.528 66.212,37.528 66.134,37.534 L66.128,37.534 C66.02,37.534 65.966,37.45 65.966,37.366 C65.966,37.276 66.02,37.192 66.134,37.192 L66.302,37.192 C66.542,37.192 66.74,37.294 66.776,37.51 C66.776,37.528 66.788,37.528 66.794,37.528 C66.806,37.528 66.818,37.522 66.83,37.51 C66.992,37.288 67.34,37.15 67.682,37.138 C67.796,37.132 67.88,37.192 67.88,37.306 C67.88,37.39 67.82,37.474 67.712,37.474 L67.676,37.474 C67.262,37.474 66.812,37.744 66.8,38.188 C66.8,38.302 66.794,38.488 66.794,38.716 C66.794,38.944 66.8,39.214 66.8,39.502 C66.8,39.562 66.836,39.61 66.902,39.61 C66.992,39.61 67.016,39.61 67.1,39.604 C67.202,39.598 67.28,39.67 67.28,39.766 C67.28,39.844 67.22,39.928 67.106,39.928 Z M70.85,39.424 C70.85,39.598 70.4,40 69.752,40 C68.828,40 68.342,39.298 68.342,38.584 C68.342,37.744 68.936,37.114 69.692,37.114 C69.95,37.114 70.196,37.192 70.37,37.294 C70.382,37.3 70.388,37.306 70.4,37.306 C70.418,37.306 70.424,37.27 70.43,37.24 C70.436,37.168 70.508,37.138 70.574,37.138 C70.664,37.138 70.748,37.186 70.748,37.288 L70.748,37.3 C70.742,37.426 70.742,37.516 70.742,37.612 C70.742,37.702 70.742,37.798 70.748,37.936 L70.748,37.948 C70.748,38.05 70.664,38.098 70.574,38.098 C70.496,38.098 70.412,38.05 70.406,37.954 C70.4,37.828 70.418,37.756 70.346,37.672 C70.196,37.498 69.968,37.426 69.734,37.426 C69.146,37.426 68.69,37.894 68.69,38.56 C68.69,39.106 69.044,39.676 69.734,39.676 C70.04,39.676 70.334,39.556 70.502,39.328 C70.55,39.262 70.604,39.238 70.658,39.238 C70.76,39.238 70.85,39.322 70.85,39.424 Z M72.128,35.812 C72.128,35.86 72.098,36.1 71.828,36.1 C71.798,36.1 71.546,36.1 71.546,35.812 C71.546,35.62 71.714,35.53 71.834,35.53 C72.02,35.53 72.128,35.668 72.128,35.812 Z M72.44,39.934 L72.434,39.934 C72.272,39.928 72.092,39.922 71.924,39.922 C71.756,39.922 71.588,39.928 71.444,39.934 C71.42,39.934 71.258,39.94 71.258,39.766 C71.258,39.682 71.318,39.598 71.438,39.598 L71.444,39.598 C71.522,39.598 71.558,39.604 71.66,39.604 C71.732,39.604 71.768,39.562 71.768,39.484 C71.774,38.914 71.78,38.326 71.78,37.804 C71.78,37.63 71.72,37.534 71.576,37.528 C71.528,37.528 71.498,37.534 71.45,37.534 L71.438,37.534 C71.33,37.534 71.276,37.45 71.276,37.372 C71.276,37.282 71.336,37.192 71.45,37.192 C71.564,37.192 71.546,37.198 71.684,37.198 C72.014,37.198 72.128,37.438 72.128,37.69 L72.128,37.708 C72.122,38.128 72.116,38.584 72.116,39.022 L72.116,39.49 C72.116,39.55 72.152,39.604 72.224,39.604 C72.32,39.604 72.344,39.604 72.434,39.598 C72.458,39.598 72.62,39.592 72.62,39.766 C72.62,39.85 72.56,39.934 72.44,39.934 Z M75.47,39.94 C75.296,39.94 75.08,39.778 75.026,39.556 C75.02,39.538 75.014,39.526 75.002,39.526 C74.996,39.526 74.984,39.532 74.978,39.544 C74.798,39.832 74.414,40.006 74.066,40.006 C73.46,40.006 73.094,39.592 73.094,39.178 C73.094,38.878 73.292,38.572 73.736,38.434 C74.108,38.32 74.594,38.23 74.846,38.188 C74.918,38.176 74.942,38.158 74.942,38.116 C74.942,38.086 74.948,38.05 74.948,38.02 C74.948,37.69 74.81,37.432 74.324,37.432 C74,37.432 73.76,37.57 73.622,37.72 C73.586,37.762 73.538,37.78 73.496,37.78 C73.406,37.78 73.328,37.714 73.328,37.618 C73.328,37.39 73.832,37.132 74.348,37.132 C74.906,37.132 75.284,37.378 75.284,38.05 C75.284,38.104 75.284,38.158 75.278,38.218 C75.26,38.416 75.248,38.728 75.248,38.956 C75.248,39.394 75.29,39.538 75.53,39.622 C75.602,39.646 75.632,39.712 75.632,39.772 C75.632,39.856 75.572,39.94 75.47,39.94 Z M74.06,39.688 C74.366,39.688 74.936,39.562 74.936,38.638 L74.936,38.56 C74.936,38.512 74.918,38.494 74.876,38.494 L74.858,38.494 C73.916,38.644 73.418,38.764 73.418,39.184 C73.418,39.436 73.658,39.688 74.06,39.688 Z M77.222,39.934 L77.216,39.934 C77.054,39.928 76.874,39.922 76.706,39.922 C76.538,39.922 76.37,39.928 76.226,39.934 C76.202,39.934 76.04,39.94 76.04,39.766 C76.04,39.682 76.1,39.598 76.22,39.598 L76.226,39.598 C76.274,39.598 76.31,39.604 76.34,39.604 C76.436,39.604 76.55,39.604 76.55,39.49 C76.556,38.962 76.562,37.858 76.562,37.006 L76.562,36.208 C76.562,36.028 76.526,35.95 76.364,35.944 C76.31,35.944 76.31,35.944 76.232,35.95 L76.22,35.95 C76.112,35.95 76.064,35.872 76.064,35.788 C76.064,35.698 76.124,35.608 76.238,35.608 L76.424,35.608 C76.79,35.608 76.916,35.83 76.916,36.094 L76.916,36.112 C76.904,36.76 76.898,38.116 76.898,38.986 L76.898,39.49 C76.898,39.586 76.976,39.598 77.144,39.598 L77.222,39.598 C77.342,39.598 77.402,39.682 77.402,39.766 C77.402,39.85 77.342,39.934 77.222,39.934 Z M78.59,35.812 C78.59,35.86 78.56,36.1 78.29,36.1 C78.26,36.1 78.008,36.1 78.008,35.812 C78.008,35.62 78.176,35.53 78.296,35.53 C78.482,35.53 78.59,35.668 78.59,35.812 Z M78.902,39.934 L78.896,39.934 C78.734,39.928 78.554,39.922 78.386,39.922 C78.218,39.922 78.05,39.928 77.906,39.934 C77.882,39.934 77.72,39.94 77.72,39.766 C77.72,39.682 77.78,39.598 77.9,39.598 L77.906,39.598 C77.984,39.598 78.02,39.604 78.122,39.604 C78.194,39.604 78.23,39.562 78.23,39.484 C78.236,38.914 78.242,38.326 78.242,37.804 C78.242,37.63 78.182,37.534 78.038,37.528 C77.99,37.528 77.96,37.534 77.912,37.534 L77.9,37.534 C77.792,37.534 77.738,37.45 77.738,37.372 C77.738,37.282 77.798,37.192 77.912,37.192 C78.026,37.192 78.008,37.198 78.146,37.198 C78.476,37.198 78.59,37.438 78.59,37.69 L78.59,37.708 C78.584,38.128 78.578,38.584 78.578,39.022 L78.578,39.49 C78.578,39.55 78.614,39.604 78.686,39.604 C78.782,39.604 78.806,39.604 78.896,39.598 C78.92,39.598 79.082,39.592 79.082,39.766 C79.082,39.85 79.022,39.934 78.902,39.934 Z M79.532,39.928 L79.526,39.928 C79.406,39.928 79.352,39.85 79.352,39.766 C79.352,39.682 79.412,39.592 79.52,39.586 C79.58,39.586 79.634,39.538 79.688,39.472 C79.94,39.178 81.206,37.606 81.206,37.516 C81.206,37.486 81.17,37.48 81.116,37.48 C80.96,37.48 80.618,37.492 80.3,37.492 C80.12,37.492 80.03,37.534 79.964,37.69 C79.928,37.78 79.904,37.876 79.886,37.924 C79.862,38.002 79.796,38.038 79.73,38.038 C79.646,38.038 79.568,37.984 79.568,37.888 C79.568,37.876 79.568,37.858 79.574,37.84 C79.688,37.414 79.814,37.192 80.21,37.192 L80.234,37.192 C80.498,37.198 80.792,37.204 81.086,37.204 C81.284,37.204 81.476,37.198 81.668,37.192 L81.674,37.192 C81.794,37.192 81.854,37.276 81.854,37.36 C81.854,37.444 81.794,37.528 81.686,37.528 C81.644,37.528 81.572,37.6 81.536,37.642 C81.17,38.092 80.378,39.136 80.06,39.508 C80.03,39.544 80.006,39.574 80.006,39.592 C80.006,39.616 80.03,39.628 80.096,39.628 C80.312,39.628 80.732,39.628 81.116,39.622 C81.266,39.622 81.446,39.622 81.56,39.172 C81.584,39.094 81.656,39.058 81.722,39.058 C81.8,39.058 81.878,39.106 81.878,39.196 C81.878,39.214 81.878,39.232 81.872,39.25 C81.734,39.694 81.644,39.928 81.176,39.928 C80.858,39.922 80.528,39.922 80.198,39.922 L79.778,39.922 C79.694,39.922 79.616,39.928 79.532,39.928 Z M84.824,39.94 C84.65,39.94 84.434,39.778 84.38,39.556 C84.374,39.538 84.368,39.526 84.356,39.526 C84.35,39.526 84.338,39.532 84.332,39.544 C84.152,39.832 83.768,40.006 83.42,40.006 C82.814,40.006 82.448,39.592 82.448,39.178 C82.448,38.878 82.646,38.572 83.09,38.434 C83.462,38.32 83.948,38.23 84.2,38.188 C84.272,38.176 84.296,38.158 84.296,38.116 C84.296,38.086 84.302,38.05 84.302,38.02 C84.302,37.69 84.164,37.432 83.678,37.432 C83.354,37.432 83.114,37.57 82.976,37.72 C82.94,37.762 82.892,37.78 82.85,37.78 C82.76,37.78 82.682,37.714 82.682,37.618 C82.682,37.39 83.186,37.132 83.702,37.132 C84.26,37.132 84.638,37.378 84.638,38.05 C84.638,38.104 84.638,38.158 84.632,38.218 C84.614,38.416 84.602,38.728 84.602,38.956 C84.602,39.394 84.644,39.538 84.884,39.622 C84.956,39.646 84.986,39.712 84.986,39.772 C84.986,39.856 84.926,39.94 84.824,39.94 Z M83.414,39.688 C83.72,39.688 84.29,39.562 84.29,38.638 L84.29,38.56 C84.29,38.512 84.272,38.494 84.23,38.494 L84.212,38.494 C83.27,38.644 82.772,38.764 82.772,39.184 C82.772,39.436 83.012,39.688 83.414,39.688 Z M86.906,37.516 L86.378,37.516 C86.282,37.516 86.282,37.528 86.282,37.6 C86.282,37.828 86.264,38.446 86.264,38.89 C86.264,39.358 86.276,39.676 86.744,39.676 C86.798,39.676 86.852,39.67 86.912,39.664 L86.936,39.664 C87.026,39.664 87.08,39.742 87.08,39.82 C87.08,39.976 86.936,40.006 86.696,40.006 C85.928,40.006 85.928,39.352 85.928,39.088 C85.928,38.704 85.94,37.972 85.94,37.678 L85.94,37.582 C85.94,37.522 85.922,37.516 85.88,37.516 L85.526,37.516 C85.412,37.516 85.358,37.438 85.358,37.354 C85.358,37.276 85.412,37.198 85.526,37.198 L85.874,37.198 C85.928,37.198 85.94,37.192 85.94,37.138 C85.94,37.114 85.946,36.826 85.946,36.616 L85.946,36.466 C85.946,36.352 86.036,36.292 86.12,36.292 C86.21,36.292 86.294,36.352 86.294,36.478 C86.294,36.652 86.282,37.132 86.282,37.132 C86.282,37.198 86.294,37.198 86.372,37.198 L86.906,37.198 C87.02,37.198 87.074,37.276 87.074,37.354 C87.074,37.438 87.02,37.516 86.906,37.516 Z M88.37,35.812 C88.37,35.86 88.34,36.1 88.07,36.1 C88.04,36.1 87.788,36.1 87.788,35.812 C87.788,35.62 87.956,35.53 88.076,35.53 C88.262,35.53 88.37,35.668 88.37,35.812 Z M88.682,39.934 L88.676,39.934 C88.514,39.928 88.334,39.922 88.166,39.922 C87.998,39.922 87.83,39.928 87.686,39.934 C87.662,39.934 87.5,39.94 87.5,39.766 C87.5,39.682 87.56,39.598 87.68,39.598 L87.686,39.598 C87.764,39.598 87.8,39.604 87.902,39.604 C87.974,39.604 88.01,39.562 88.01,39.484 C88.016,38.914 88.022,38.326 88.022,37.804 C88.022,37.63 87.962,37.534 87.818,37.528 C87.77,37.528 87.74,37.534 87.692,37.534 L87.68,37.534 C87.572,37.534 87.518,37.45 87.518,37.372 C87.518,37.282 87.578,37.192 87.692,37.192 C87.806,37.192 87.788,37.198 87.926,37.198 C88.256,37.198 88.37,37.438 88.37,37.69 L88.37,37.708 C88.364,38.128 88.358,38.584 88.358,39.022 L88.358,39.49 C88.358,39.55 88.394,39.604 88.466,39.604 C88.562,39.604 88.586,39.604 88.676,39.598 C88.7,39.598 88.862,39.592 88.862,39.766 C88.862,39.85 88.802,39.934 88.682,39.934 Z M90.704,40.006 C89.906,40.006 89.318,39.43 89.318,38.566 C89.318,37.732 89.906,37.132 90.704,37.132 C91.502,37.132 92.102,37.732 92.102,38.566 C92.102,39.43 91.502,40.006 90.704,40.006 Z M90.704,39.688 C91.28,39.688 91.748,39.238 91.748,38.566 C91.748,37.888 91.28,37.444 90.704,37.444 C90.128,37.444 89.666,37.888 89.666,38.566 C89.666,39.238 90.128,39.688 90.704,39.688 Z M95.624,39.928 L95.618,39.928 C95.462,39.922 95.306,39.916 95.15,39.916 C95,39.916 94.856,39.922 94.718,39.928 C94.58,39.934 94.538,39.838 94.538,39.772 C94.538,39.688 94.598,39.604 94.712,39.604 L94.718,39.604 C94.79,39.604 94.802,39.61 94.898,39.61 C94.958,39.61 94.988,39.568 94.988,39.502 C94.994,39.226 94.994,38.884 94.994,38.602 C94.994,38.398 94.994,38.23 94.988,38.146 C94.958,37.648 94.64,37.444 94.304,37.444 C93.884,37.444 93.422,37.762 93.404,38.236 C93.404,38.35 93.398,38.53 93.398,38.746 C93.398,38.968 93.404,39.226 93.404,39.508 C93.404,39.574 93.44,39.61 93.512,39.61 C93.602,39.61 93.59,39.61 93.674,39.604 C93.782,39.598 93.854,39.67 93.854,39.766 C93.854,39.844 93.794,39.928 93.68,39.928 L93.674,39.928 C93.518,39.922 93.356,39.916 93.206,39.916 C93.056,39.916 92.906,39.922 92.768,39.928 C92.63,39.934 92.588,39.838 92.588,39.772 C92.588,39.688 92.648,39.604 92.762,39.604 L92.768,39.604 C92.84,39.604 92.858,39.61 92.954,39.61 C93.014,39.61 93.056,39.574 93.056,39.508 C93.062,39.13 93.068,38.818 93.068,38.506 C93.068,38.284 93.062,38.056 93.062,37.798 C93.062,37.642 93.008,37.534 92.864,37.528 C92.81,37.528 92.816,37.528 92.738,37.534 L92.726,37.534 C92.618,37.534 92.564,37.45 92.564,37.366 C92.564,37.282 92.624,37.192 92.738,37.192 L92.912,37.192 C93.152,37.192 93.356,37.306 93.386,37.528 C93.392,37.546 93.398,37.558 93.416,37.558 C93.422,37.558 93.434,37.552 93.446,37.54 C93.656,37.27 93.998,37.132 94.334,37.132 C94.832,37.132 95.312,37.438 95.336,38.092 C95.342,38.29 95.348,38.782 95.348,39.214 L95.348,39.502 C95.348,39.568 95.378,39.61 95.444,39.61 C95.534,39.61 95.534,39.604 95.618,39.604 L95.624,39.604 C95.738,39.604 95.798,39.682 95.798,39.766 C95.798,39.85 95.738,39.928 95.624,39.928 Z" id="Intellectual-Propert" fill="#FFFFFF"/>
                <g id="Group-3-Copy">
                    <path d="M24.0380711,9.41796568 L9.28432136,0.825729977 C8.35581836,0.284997712 7.29980181,0 6.22447469,0 C2.87512916,0 0.16,2.52553776 0.16,5.86328719 L0.16,20.715135 C0.16,17.4653341 2.80363219,14.8306957 6.06488325,14.8306957 C9.32597472,14.8306957 11.9697665,17.4653341 11.9697665,20.715135 L11.9697665,27.8 L24.0380711,20.7717529 C25.0332834,20.1922151 25.8615629,19.3666442 26.4431141,18.3748776 C28.3109723,15.1899645 27.2342089,11.279357 24.0380711,9.41796568" id="Fill-3" fill="#8A54BE"/>
                    <g id="Group" transform="translate(0.000000, 14.600000)">
                        <path d="M1.043248,11.767056 C0.441968,10.738256 0.125168,9.568016 0.125168,8.376496 L0.125168,19.480016 C0.125168,22.749456 2.775568,25.400016 6.045168,25.400016 C9.314608,25.400016 11.965168,22.749456 11.965168,19.480016 L11.965168,13.167696 L10.235728,14.178256 C7.031568,16.050896 2.915888,14.971376 1.043248,11.767056" id="Fill-1" fill="#7B3DCB"/>
                        <path d="M6.045152,0.12 C2.775552,0.12 0.125152,2.7704 0.125152,6.04 L0.125152,8.37648 C0.125152,9.568 0.441952,10.73824 1.043232,11.76704 C2.915872,14.97136 7.031552,16.05088 10.235712,14.1784 L11.965152,13.16768 L11.965152,6.04 C11.965152,2.7704 9.314752,0.12 6.045152,0.12" id="Fill-5" fill="#C27CF1"/>
                    </g>
                    <path d="M6.045152,11.84 C9.314592,11.84 11.965152,9.1896 11.965152,5.92 C11.965152,2.6504 9.314592,0 6.045152,0 C2.775712,0 0.125152,2.6504 0.125152,5.92 C0.125152,9.1896 2.775712,11.84 6.045152,11.84" id="Fill-7" fill="#FF86FF"/>
                </g>
            </g>
        </g>
    </g>
</svg>