<svg xmlns="http://www.w3.org/2000/svg" width="181" height="60" viewBox="0 0 181 60">
    <g fill="none" fill-rule="evenodd">
        <path fill="#8A54BE" d="M56.886 1.558h7.129V31.08h-7.13V1.558zM95.91 12.504v1.362c-.365 6.086-5.483 10.946-11.698 10.946h-6.124v6.268h-7.266V1.558h14.44c6.124 0 10.328 5.178 10.648 10.946zm-11.79 5.087c2.468 0 4.433-1.953 4.433-4.406 0-2.407-1.92-4.36-4.341-4.405h-6.124v8.81h6.032zm38.25-9.674h-15.218v5.268h12.018v6.313h-12.018v5.269h15.217v6.313h-22.346V1.558h22.346v6.359zm26.64 14.17l5.393 3.452c-2.833 3.86-7.449 6.313-12.612 6.313-8.637 0-15.629-6.95-15.629-15.533 0-8.584 6.992-15.578 15.629-15.578 5.163 0 9.779 2.498 12.612 6.358l-5.392 3.452c-2.01-1.817-4.25-2.998-7.22-2.998-4.844 0-8.774 3.952-8.774 8.766s3.93 8.72 8.774 8.72c2.97 0 4.844-.954 7.22-2.952zM56.423 46.74h.009c.106 0 .249.01.391.01.125 0 .178-.054.178-.17.018-.988.027-2.047.027-3.08 0-.676 0-1.344-.018-1.967 0-.107-.071-.178-.178-.178-.142 0-.294.009-.4.009-.054 0-.276-.009-.285-.258.009-.125.089-.25.267-.25h.018c.204.01.471.018.747.018.338 0 .685-.009.97-.018.267-.008.284.223.284.259-.009.124-.089.249-.267.249h-.017c-.134-.009-.25-.009-.4-.009-.116 0-.17.08-.17.178-.009.757-.009 1.593-.009 2.448s0 1.736.01 2.6c0 .088.044.168.16.168.15 0 .266 0 .4-.009.231-.008.284.196.284.268a.254.254 0 0 1-.266.258h-.018a21.534 21.534 0 0 0-1.708 0c-.134.009-.276-.063-.276-.258 0-.134.089-.268.267-.268zm7.001.526h-.009c-.231-.01-.462-.018-.694-.018-.222 0-.435.009-.64.018-.205.009-.267-.134-.267-.232 0-.124.089-.249.258-.249h.009c.107 0 .124.009.267.009.089 0 .133-.062.133-.16.01-.41.01-.917.01-1.336 0-.302 0-.551-.01-.676-.044-.739-.516-1.042-1.014-1.042-.623 0-1.308.472-1.334 1.175 0 .17-.01.437-.01.757 0 .33.01.712.01 1.13 0 .098.053.152.16.152.133 0 .115 0 .24-.009.16-.009.267.098.267.24 0 .116-.09.24-.258.24h-.01a18.524 18.524 0 0 0-.693-.017c-.222 0-.445.009-.65.018-.204.009-.266-.134-.266-.232 0-.124.089-.249.258-.249h.009c.106 0 .133.009.275.009.09 0 .152-.054.152-.151.008-.561.017-1.024.017-1.487 0-.33-.009-.668-.009-1.05 0-.232-.08-.392-.293-.401-.08 0-.071 0-.187.009h-.018c-.16 0-.24-.125-.24-.25 0-.124.089-.257.258-.257h.258c.356 0 .658.169.703.498.009.027.018.045.044.045.01 0 .027-.01.045-.027.311-.4.818-.606 1.317-.606.738 0 1.45.454 1.485 1.425.01.294.018 1.023.018 1.664v.428c0 .098.044.16.142.16.134 0 .134-.009.258-.009h.01c.168 0 .257.116.257.24 0 .125-.089.24-.258.24zm2.954-3.579h-.783c-.142 0-.142.018-.142.125 0 .338-.027 1.255-.027 1.914 0 .694.018 1.166.712 1.166.08 0 .16-.01.249-.018h.035c.134 0 .214.116.214.231 0 .232-.214.276-.57.276-1.138 0-1.138-.97-1.138-1.362 0-.57.018-1.655.018-2.091v-.143c0-.089-.027-.098-.09-.098h-.524c-.17 0-.25-.116-.25-.24 0-.116.08-.232.25-.232h.516c.08 0 .098-.008.098-.089 0-.035.008-.462.008-.774v-.223c0-.169.134-.258.258-.258.134 0 .258.09.258.276 0 .258-.017.97-.017.97 0 .098.017.098.133.098h.792c.169 0 .249.116.249.232 0 .124-.08.24-.25.24zm4.866 2.813c0 .205-.623.881-1.743.881-1.13 0-2.011-.845-2.011-2.1 0-1.3.934-2.155 1.984-2.155 1.219 0 1.752.953 1.752 1.46 0 .33-.195.579-.649.597-.205.009-.507.009-.836.009-.667 0-1.424-.01-1.62-.01-.088 0-.106.036-.106.16 0 .971.64 1.568 1.494 1.568.65 0 1.015-.276 1.29-.588a.252.252 0 0 1 .178-.08c.134 0 .267.116.267.258zm-.542-2.003c0-.258-.312-.926-1.22-.926-.853 0-1.396.766-1.396 1.095 0 .09.08.09 1.112.09.463 0 .96 0 1.21-.01.213-.008.294-.106.294-.249zm3.015 2.778h-.008c-.24-.01-.508-.018-.757-.018s-.498.009-.711.018c-.036 0-.276.008-.276-.25 0-.124.089-.249.267-.249h.009c.07 0 .124.009.169.009.142 0 .311 0 .311-.17.009-.782.018-2.42.018-3.684v-1.184c0-.267-.054-.383-.294-.392-.08 0-.08 0-.195.009h-.018c-.16 0-.232-.116-.232-.24 0-.134.09-.268.258-.268h.276c.543 0 .73.33.73.722v.026c-.018.962-.027 2.973-.027 4.264v.748c0 .142.116.16.365.16h.115c.178 0 .267.125.267.25 0 .124-.089.249-.267.249zm2.491 0H76.2c-.24-.01-.508-.018-.757-.018s-.498.009-.711.018c-.036 0-.276.008-.276-.25 0-.124.089-.249.267-.249h.009c.07 0 .124.009.169.009.142 0 .311 0 .311-.17.009-.782.018-2.42.018-3.684v-1.184c0-.267-.054-.383-.294-.392-.08 0-.08 0-.195.009h-.018c-.16 0-.232-.116-.232-.24 0-.134.09-.268.258-.268h.276c.543 0 .73.33.73.722v.026c-.018.962-.027 2.973-.027 4.264v.748c0 .142.116.16.365.16h.115c.178 0 .267.125.267.25 0 .124-.089.249-.267.249zm4.725-.775c0 .205-.623.881-1.744.881-1.13 0-2.01-.845-2.01-2.1 0-1.3.933-2.155 1.983-2.155 1.219 0 1.753.953 1.753 1.46 0 .33-.196.579-.65.597-.204.009-.507.009-.836.009-.667 0-1.423-.01-1.62-.01-.088 0-.106.036-.106.16 0 .971.64 1.568 1.495 1.568.65 0 1.014-.276 1.29-.588a.252.252 0 0 1 .178-.08c.133 0 .267.116.267.258zm-.543-2.003c0-.258-.312-.926-1.219-.926-.854 0-1.397.766-1.397 1.095 0 .09.08.09 1.112.09.463 0 .961 0 1.21-.01.214-.008.294-.106.294-.249zm5.204 2.02c0 .26-.667.856-1.628.856-1.37 0-2.09-1.042-2.09-2.101 0-1.247.88-2.181 2.001-2.181.383 0 .748.116 1.006.267.017.009.026.018.044.018.027 0 .036-.054.045-.098.008-.107.115-.152.213-.152.133 0 .258.072.258.223v.018c-.009.187-.009.32-.009.463 0 .133 0 .276.009.48v.018c0 .151-.125.223-.258.223-.116 0-.24-.072-.25-.214-.008-.187.019-.294-.088-.418-.222-.258-.56-.365-.907-.365-.872 0-1.548.694-1.548 1.682 0 .81.524 1.656 1.548 1.656.453 0 .89-.178 1.138-.516.071-.098.151-.134.232-.134.15 0 .284.125.284.276zm2.847-2.83h-.783c-.142 0-.142.018-.142.125 0 .338-.027 1.255-.027 1.914 0 .694.018 1.166.712 1.166.08 0 .16-.01.249-.018h.036c.133 0 .213.116.213.231 0 .232-.213.276-.57.276-1.138 0-1.138-.97-1.138-1.362 0-.57.018-1.655.018-2.091v-.143c0-.089-.027-.098-.09-.098h-.524c-.17 0-.25-.116-.25-.24 0-.116.08-.232.25-.232h.516c.08 0 .098-.008.098-.089 0-.035.009-.462.009-.774v-.223c0-.169.133-.258.258-.258.133 0 .258.09.258.276 0 .258-.018.97-.018.97 0 .098.018.098.133.098h.792c.17 0 .25.116.25.232 0 .124-.08.24-.25.24zm5.338 3.09h.009c.151 0 .231.124.231.257 0 .125-.08.25-.24.258-.08 0-.107.01-.205.01-.382-.019-.622-.116-.72-.526 0-.018-.018-.027-.027-.027-.018 0-.027.01-.044.027-.294.392-.828.614-1.362.614-.73 0-1.44-.427-1.467-1.442 0-.062-.01-.24-.01-1.851 0-.374-.186-.4-.31-.4-.045 0-.054.008-.143.008h-.009c-.169 0-.25-.116-.25-.24 0-.125.09-.258.259-.258h.231c.463 0 .739.249.739.685 0 .294-.01.64-.01.961 0 .454.01.864.019 1.033.044.73.516 1.041 1.014 1.041.622 0 1.29-.462 1.316-1.192v-1.638c0-.232-.062-.392-.284-.4-.08 0-.063.008-.178.008-.17 0-.25-.125-.25-.25 0-.124.08-.248.259-.248h.222c.4 0 .747.204.747.676-.009.65-.017 1.175-.017 1.682 0 .873 0 1.193.329 1.22.062 0 .107-.009.151-.009zm4.475.506c-.258 0-.578-.24-.658-.57-.01-.026-.018-.044-.036-.044-.009 0-.027.01-.036.027-.266.427-.836.685-1.352.685-.898 0-1.441-.614-1.441-1.228 0-.445.294-.9.952-1.104.551-.169 1.272-.302 1.646-.365.106-.018.142-.044.142-.107 0-.044.009-.098.009-.142 0-.49-.205-.872-.925-.872-.48 0-.837.204-1.041.427a.248.248 0 0 1-.187.089.241.241 0 0 1-.25-.24c0-.339.748-.722 1.513-.722.828 0 1.388.365 1.388 1.362 0 .08 0 .16-.009.25a14.05 14.05 0 0 0-.044 1.095c0 .65.062.863.418.988.107.035.151.133.151.222 0 .125-.089.25-.24.25zm-2.09-.373c.453 0 1.298-.187 1.298-1.558v-.116c0-.071-.027-.098-.089-.098h-.027c-1.396.223-2.135.4-2.135 1.024 0 .374.356.748.952.748zm4.688.365h-.01c-.24-.01-.506-.018-.755-.018-.25 0-.499.009-.712.018-.036 0-.276.008-.276-.25 0-.124.09-.249.267-.249h.009c.071 0 .124.009.169.009.142 0 .311 0 .311-.17.01-.782.018-2.42.018-3.684v-1.184c0-.267-.053-.383-.293-.392-.08 0-.08 0-.196.009h-.018c-.16 0-.231-.116-.231-.24 0-.134.089-.268.258-.268h.275c.543 0 .73.33.73.722v.026c-.018.962-.027 2.973-.027 4.264v.748c0 .142.116.16.365.16h.116c.178 0 .267.125.267.25 0 .124-.09.249-.267.249zm3.647-.517h.01c.115 0 .204.01.346.01.09 0 .16-.072.16-.179.01-.783.018-2.092.018-3.213 0-.793-.009-1.487-.009-1.843 0-.116-.044-.187-.169-.187h-.33c-.15 0-.275-.098-.284-.258 0-.125.09-.24.258-.24h.027c.196.008.41.017.623.017.48 0 .987-.017 1.423-.017.178 0 .338 0 .49.008 1.254.08 1.868.953 1.868 1.834 0 .864-.587 1.727-1.744 1.86a5.594 5.594 0 0 1-.65.036c-.302 0-.569-.026-.836-.089-.035-.009-.07-.018-.089-.018-.044 0-.062.027-.062.134 0 .543.009 1.344.018 1.967 0 .107.08.178.187.178.142 0 .213-.009.347-.009.186 0 .275.134.275.259 0 .133-.089.267-.258.267h-.017c-.25-.01-.516-.018-.774-.018-.312 0-.605.009-.819.018-.285.008-.293-.205-.293-.25 0-.133.097-.267.284-.267zm2.59-2.688a1.397 1.397 0 0 0 1.29-1.406c0-.65-.446-1.282-1.38-1.336-.08 0-.258-.009-.445-.009-.284 0-.605.01-.774.018-.231.018-.231.036-.231.953v1.522c0 .107.071.294.952.294.196 0 .391-.018.587-.036zm4.296 3.196h-.009c-.231-.01-.49-.018-.73-.018s-.48.009-.684.018c-.205.009-.267-.134-.267-.232 0-.124.089-.249.258-.249h.009c.115 0 .16.009.302.009.09 0 .143-.062.143-.16.008-.686.017-1.229.017-1.825v-.695c0-.24-.07-.4-.293-.409-.08 0-.071 0-.187.009h-.009c-.16 0-.24-.125-.24-.25 0-.133.08-.257.249-.257h.249c.356 0 .65.15.703.471 0 .027.018.027.027.027.017 0 .035-.009.053-.027.24-.33.756-.534 1.263-.552.17-.009.294.08.294.25 0 .124-.09.249-.25.249h-.053c-.614 0-1.28.4-1.299 1.06 0 .168-.008.444-.008.783 0 .338.008.738.008 1.166 0 .089.054.16.152.16.133 0 .169 0 .293-.009.151-.009.267.098.267.24 0 .116-.089.24-.258.24zm3.87.115c-1.183 0-2.055-.854-2.055-2.136 0-1.237.872-2.128 2.055-2.128 1.183 0 2.073.89 2.073 2.128 0 1.282-.89 2.136-2.073 2.136zm0-.471c.854 0 1.548-.668 1.548-1.665 0-1.006-.694-1.665-1.548-1.665-.854 0-1.539.66-1.539 1.665 0 .997.685 1.665 1.54 1.665zm4.493 2.652h-.01c-.24-.009-.55-.009-.844-.009-.205 0-.41 0-.57.01-.053 0-.258 0-.249-.241 0-.125.071-.24.232-.24h.017c.116.009.143.009.285.009.125 0 .17-.08.17-.214.008-.89.008-2.27.008-3.445v-1.29c0-.259-.08-.428-.311-.437-.08 0-.063.009-.178.009h-.01a.243.243 0 0 1-.248-.25.25.25 0 0 1 .258-.249c.115 0 .204-.008.293-.008.338.008.64.222.667.57.01.07 0 .142.018.142s.036-.027.071-.072c.294-.418.872-.703 1.468-.703 1.157 0 2.02.864 2.02 2.119 0 1.273-.863 2.11-2.02 2.11a1.817 1.817 0 0 1-1.414-.65c-.054-.063-.08-.107-.09-.107-.017 0-.017.044-.017.142v2.119c0 .116.045.205.205.205.142 0 .124-.01.258-.01h.009c.15 0 .23.116.23.241 0 .125-.08.25-.248.25zm1.05-2.652c.845 0 1.512-.65 1.512-1.647s-.667-1.656-1.512-1.656c-.846 0-1.513.659-1.513 1.656 0 .997.667 1.647 1.513 1.647zm6.796-.41c0 .205-.622.881-1.743.881-1.13 0-2.01-.845-2.01-2.1 0-1.3.933-2.155 1.983-2.155 1.219 0 1.753.953 1.753 1.46 0 .33-.196.579-.65.597-.204.009-.507.009-.836.009-.667 0-1.423-.01-1.62-.01-.088 0-.106.036-.106.16 0 .971.64 1.568 1.495 1.568.65 0 1.014-.276 1.29-.588a.252.252 0 0 1 .178-.08c.133 0 .266.116.266.258zm-.542-2.003c0-.258-.312-.926-1.219-.926-.854 0-1.397.766-1.397 1.095 0 .09.08.09 1.112.09.463 0 .961 0 1.21-.01.214-.008.294-.106.294-.249zm2.971 2.769h-.009c-.231-.01-.489-.018-.73-.018-.24 0-.48.009-.684.018-.205.009-.267-.134-.267-.232 0-.124.089-.249.258-.249h.009c.115 0 .16.009.302.009.09 0 .143-.062.143-.16.009-.686.017-1.229.017-1.825v-.695c0-.24-.07-.4-.293-.409-.08 0-.071 0-.187.009h-.009c-.16 0-.24-.125-.24-.25 0-.133.08-.257.249-.257h.25c.355 0 .649.15.702.471 0 .027.018.027.027.027.017 0 .035-.009.053-.027.24-.33.756-.534 1.263-.552.17-.009.294.08.294.25 0 .124-.09.249-.25.249h-.053c-.613 0-1.28.4-1.298 1.06 0 .168-.01.444-.01.783 0 .338.01.738.01 1.166 0 .089.053.16.15.16.134 0 .17 0 .294-.009.152-.009.267.098.267.24 0 .116-.089.24-.258.24zm3.852-3.579h-.782c-.143 0-.143.018-.143.125 0 .338-.027 1.255-.027 1.914 0 .694.018 1.166.712 1.166.08 0 .16-.01.25-.018h.035c.133 0 .213.116.213.231 0 .232-.213.276-.569.276-1.139 0-1.139-.97-1.139-1.362 0-.57.018-1.655.018-2.091v-.143c0-.089-.027-.098-.089-.098h-.525c-.169 0-.249-.116-.249-.24 0-.116.08-.232.25-.232h.515c.08 0 .098-.008.098-.089 0-.035.009-.462.009-.774v-.223c0-.169.133-.258.258-.258.133 0 .258.09.258.276 0 .258-.018.97-.018.97 0 .098.018.098.134.098h.791c.17 0 .25.116.25.232 0 .124-.08.24-.25.24zm3.265 4.157c-.507 1.22-.97 1.772-1.895 1.78a.264.264 0 0 1-.275-.266c0-.134.089-.259.293-.259.72 0 1.023-.498 1.495-1.593a.307.307 0 0 0 .027-.116.401.401 0 0 0-.045-.151c-.24-.605-1.059-2.564-1.388-3.418-.035-.09-.071-.16-.187-.16-.133 0-.124.008-.249.008a.226.226 0 0 1-.24-.231c0-.116.08-.231.24-.231h.018c.24.008.463.008.676.008.223 0 .427 0 .64-.008h.019c.16 0 .23.106.23.222s-.08.232-.24.232c-.106 0-.115-.01-.257-.01-.08 0-.116.027-.116.09 0 .017 0 .044.009.07.57 1.514 1.094 2.876 1.174 2.876.107 0 1.21-2.866 1.21-2.937 0-.063-.044-.098-.124-.098-.143 0-.152.009-.258.009-.223.008-.25-.196-.25-.232 0-.107.08-.222.24-.222h.018c.214.008.428.008.641.008.222 0 .445 0 .676-.008h.018c.169 0 .25.115.25.231s-.081.231-.25.231c-.071 0-.142-.008-.205-.008-.08 0-.142.008-.169.053a610.83 610.83 0 0 0-1.726 4.13zm5.685-6.489h-.009c-.178 0-.267-.125-.267-.25-.008-.124.09-.249.267-.249h.01c.364.018.729.018 1.102.018.605 0 1.21-.009 1.806-.018.56 0 .926.152 1.104.632.08.205.169.49.169.561 0 .17-.143.267-.285.267a.253.253 0 0 1-.25-.213c-.026-.143-.08-.267-.133-.419-.124-.347-.284-.347-1.895-.347h-.364c-.116 0-.196.062-.196.196-.009.267-.009 1.495-.018 2.047 0 .08.045.125.134.125.15.009.489.009.81.009.622 0 .738 0 .738-.196 0-.142-.01-.214-.01-.33-.008-.204.143-.266.25-.266.124 0 .24.08.24.249v.018a16.336 16.336 0 0 0 0 1.54c.009.24-.178.267-.25.267a.236.236 0 0 1-.24-.25v-.017c.01-.134.01-.214.01-.365 0-.098-.072-.187-.178-.187-.205-.01-.499-.01-.792-.01-.214 0-.418 0-.587.01-.08 0-.125.027-.125.116 0 .605 0 1.726.009 2.287 0 .116.08.187.196.196.107.009.525.009.952.009.32 0 .64 0 .845-.009.365-.009.658-.08.827-.81a.252.252 0 0 1 .25-.196c.133 0 .275.098.275.267a.447.447 0 0 1-.018.107c-.24.766-.453 1.13-1.29 1.13h-.035c-.694-.008-1.45-.017-2.082-.017-.391 0-.738 0-.996.018-.232.008-.285-.205-.285-.267.009-.125.089-.259.267-.259h.018c.115 0 .222.01.364.01a.163.163 0 0 0 .17-.17c.008-.472.008-.926.008-5.065 0-.116-.062-.178-.169-.178-.142 0-.231.009-.347.009zm9.306 2.297h-.009c-.124 0-.107-.01-.24-.01-.107 0-.16.072-.187.152-.374.98-.96 2.493-1.228 3.169-.089.24-.275.356-.453.356-.187 0-.374-.125-.472-.356-.258-.64-.96-2.439-1.219-3.151-.035-.107-.07-.16-.187-.16-.133 0-.133.009-.258.009-.169.008-.23-.125-.23-.223 0-.116.08-.231.24-.231h.017c.24.008.454.008.658.008.214 0 .419 0 .632-.008h.018c.16 0 .24.106.24.213 0 .116-.08.232-.231.232-.107 0-.125-.01-.267-.01-.071 0-.098.036-.098.09 0 .018 0 .035.009.053.258.721.845 2.315 1.014 2.795.036.098.071.143.116.143.044 0 .089-.045.115-.125.178-.454.757-2.003 1.041-2.813.01-.009.01-.018.01-.027 0-.062 0-.115-.205-.115-.072 0-.134.009-.17.009-.15 0-.222-.116-.222-.223s.08-.222.24-.222h.018c.214.008.418.008.623.008.213 0 .436 0 .667-.008.018 0 .25-.01.25.213 0 .116-.08.232-.232.232zm2.945 3.73c-1.184 0-2.055-.855-2.055-2.137 0-1.237.871-2.128 2.055-2.128 1.183 0 2.073.89 2.073 2.128 0 1.282-.89 2.136-2.073 2.136zm0-.472c.854 0 1.548-.668 1.548-1.665 0-1.006-.694-1.665-1.548-1.665-.854 0-1.54.66-1.54 1.665 0 .997.686 1.665 1.54 1.665zm4.581.365h-.009c-.24-.01-.507-.018-.756-.018s-.498.009-.711.018c-.036 0-.276.008-.276-.25 0-.124.089-.249.267-.249h.009c.07 0 .124.009.169.009.142 0 .311 0 .311-.17.009-.782.018-2.42.018-3.684v-1.184c0-.267-.054-.383-.294-.392-.08 0-.08 0-.196.009h-.017c-.16 0-.232-.116-.232-.24 0-.134.09-.268.258-.268h.276c.543 0 .73.33.73.722v.026c-.018.962-.027 2.973-.027 4.264v.748c0 .142.116.16.365.16h.115c.178 0 .267.125.267.25 0 .124-.089.249-.267.249zm5.196-.499h.009c.151 0 .231.125.231.258 0 .125-.08.25-.24.258-.08 0-.107.01-.205.01-.382-.019-.622-.116-.72-.526 0-.018-.018-.027-.027-.027-.018 0-.027.01-.044.027-.294.392-.828.614-1.362.614-.73 0-1.44-.427-1.468-1.442 0-.062-.008-.24-.008-1.851 0-.374-.187-.4-.312-.4-.044 0-.053.008-.142.008h-.01c-.168 0-.248-.116-.248-.24 0-.125.089-.258.258-.258h.231c.463 0 .739.249.739.685 0 .294-.01.64-.01.961 0 .454.01.864.018 1.033.045.73.516 1.041 1.015 1.041.622 0 1.29-.462 1.316-1.192v-1.638c0-.232-.062-.392-.284-.4-.08 0-.063.008-.178.008-.17 0-.25-.125-.25-.25 0-.124.08-.248.259-.248h.222c.4 0 .747.204.747.676-.009.65-.018 1.175-.018 1.682 0 .873 0 1.193.33 1.22.062 0 .106-.009.15-.009zm2.962-3.089h-.782c-.143 0-.143.018-.143.125 0 .338-.026 1.255-.026 1.914 0 .694.017 1.166.711 1.166.08 0 .16-.01.25-.018h.035c.133 0 .213.116.213.231 0 .232-.213.276-.569.276-1.139 0-1.139-.97-1.139-1.362 0-.57.018-1.655.018-2.091v-.143c0-.089-.027-.098-.089-.098h-.525c-.169 0-.249-.116-.249-.24 0-.116.08-.232.25-.232h.515c.08 0 .098-.008.098-.089 0-.035.009-.462.009-.774v-.223c0-.169.133-.258.258-.258.133 0 .258.09.258.276 0 .258-.018.97-.018.97 0 .098.018.098.134.098h.791c.17 0 .25.116.25.232 0 .124-.08.24-.25.24zm2.171-2.528c0 .071-.044.427-.445.427-.044 0-.418 0-.418-.427 0-.285.25-.418.427-.418.276 0 .436.204.436.418zm.463 6.116h-.01c-.24-.01-.506-.018-.755-.018-.25 0-.499.009-.712.018-.036 0-.276.008-.276-.25 0-.124.09-.249.267-.249h.009c.116 0 .169.009.32.009.107 0 .16-.062.16-.178.01-.846.018-1.718.018-2.493 0-.258-.089-.4-.302-.409-.071 0-.116.009-.187.009h-.018c-.16 0-.24-.125-.24-.24 0-.134.089-.267.258-.267s.142.008.347.008c.49 0 .658.356.658.73v.027c-.009.623-.018 1.3-.018 1.95v.694c0 .089.054.169.16.169.143 0 .178 0 .312-.009.035 0 .276-.009.276.25 0 .124-.09.249-.267.249zm2.998.106c-1.183 0-2.055-.854-2.055-2.136 0-1.237.872-2.128 2.055-2.128 1.183 0 2.073.89 2.073 2.128 0 1.282-.89 2.136-2.073 2.136zm0-.471c.854 0 1.548-.668 1.548-1.665 0-1.006-.694-1.665-1.548-1.665-.854 0-1.54.66-1.54 1.665 0 .997.686 1.665 1.54 1.665zm7.295.356h-.009a18.05 18.05 0 0 0-.694-.018c-.222 0-.436.009-.64.018-.205.009-.267-.134-.267-.232 0-.124.089-.249.258-.249h.009c.106 0 .124.009.267.009.088 0 .133-.062.133-.16.009-.41.009-.917.009-1.336 0-.302 0-.551-.009-.676-.045-.739-.516-1.042-1.014-1.042-.623 0-1.308.472-1.335 1.175 0 .17-.009.437-.009.757 0 .33.01.712.01 1.13 0 .098.053.152.16.152.133 0 .115 0 .24-.009.16-.009.267.098.267.24 0 .116-.09.24-.258.24h-.01a18.524 18.524 0 0 0-.693-.017c-.223 0-.445.009-.65.018-.204.009-.267-.134-.267-.232 0-.124.09-.249.258-.249h.01c.106 0 .133.009.275.009.089 0 .151-.054.151-.151.01-.561.018-1.024.018-1.487 0-.33-.009-.668-.009-1.05 0-.232-.08-.392-.293-.401-.08 0-.072 0-.187.009h-.018c-.16 0-.24-.125-.24-.25 0-.124.089-.257.258-.257h.258c.356 0 .658.169.703.498.009.027.017.045.044.045.009 0 .027-.01.045-.027.311-.4.818-.606 1.316-.606.739 0 1.45.454 1.486 1.425.009.294.018 1.023.018 1.664v.428c0 .098.044.16.142.16.134 0 .134-.009.258-.009h.009c.169 0 .258.116.258.24 0 .125-.089.24-.258.24zm-118.243 8.3h-.009c-.116 0-.16-.01-.302-.01-.107 0-.16.062-.196.16-.24.695-.605 1.434-1.112 2.057-.027.026-.045.053-.045.08 0 .035.64.8 1.246.8.133 0 .258-.035.391-.088a.268.268 0 0 1 .107-.027c.151 0 .258.134.258.276 0 .267-.382.374-.747.374-.578 0-1.023-.347-1.513-.855-.035-.035-.07-.062-.106-.062-.027 0-.054.018-.08.045-.303.302-1.148.943-2.109.943-1.076 0-1.815-.819-1.815-1.727 0-.997.863-1.638 1.468-2.03.036-.026.054-.044.054-.07 0-.018-.01-.036-.027-.054-.525-.507-.756-.997-.756-1.433 0-.73.622-1.318 1.387-1.318.774 0 1.29.606 1.29 1.247 0 .276-.089.872-1.103 1.575-.035.018-.053.036-.053.063 0 .017.018.044.053.08a92.11 92.11 0 0 1 1.637 1.825c.027.026.045.035.063.035.16 0 .978-1.522.978-1.798 0-.071-.053-.098-.151-.098-.142 0-.178 0-.311.01-.107.008-.267-.037-.267-.25 0-.116.08-.24.249-.24h.018c.249.008.516.008.765.008.258 0 .507 0 .73-.009a.26.26 0 0 1 .284.24c0 .125-.098.25-.276.25zm-3.274-1.176a1.05 1.05 0 0 0 .151-.525c0-.516-.409-.775-.818-.775-.543 0-.854.437-.854.882 0 .632.65 1.184.694 1.184.098 0 .73-.588.827-.766zm.899 3.454c0-.071-1.717-2.039-1.797-2.039-.018 0-.045.01-.08.036-.641.436-1.255.89-1.255 1.682 0 .686.578 1.238 1.352 1.238.881 0 1.78-.792 1.78-.917zm12.108.125c0 .302-1.014 1.272-2.58 1.272-1.966 0-3.203-1.442-3.203-3.249 0-1.7 1.165-3.365 3.23-3.365.604 0 1.2.16 1.68.499.019.018.063.036.063-.089 0-.187.027-.33.25-.33.133 0 .266.08.266.24v.019c-.009.231-.018.427-.018.632 0 .205.01.41.018.658v.018c0 .178-.133.258-.258.258-.133 0-.267-.08-.267-.249 0-.133 0-.391-.115-.507-.419-.436-1.023-.641-1.637-.641-1.673 0-2.643 1.38-2.643 2.804 0 1.326.846 2.76 2.616 2.76.792 0 1.584-.321 2.02-.909a.323.323 0 0 1 .257-.142c.16 0 .32.151.32.32zm2.856 1.281c-1.184 0-2.056-.854-2.056-2.136 0-1.237.872-2.128 2.056-2.128 1.183 0 2.072.89 2.072 2.128 0 1.282-.89 2.136-2.072 2.136zm0-.471c.854 0 1.548-.668 1.548-1.665 0-1.006-.694-1.665-1.548-1.665-.855 0-1.54.66-1.54 1.665 0 .997.685 1.665 1.54 1.665zm9.483.356h-.009a17.146 17.146 0 0 0-.667-.018c-.222 0-.427.009-.632.018a.229.229 0 0 1-.249-.232c0-.124.08-.24.24-.24h.01c.106 0 .124.009.257.009.09 0 .152-.054.152-.152 0-.258.009-.614.009-.97 0-.49-.01-.97-.018-1.14-.036-.685-.436-.96-.881-.96-.552 0-1.165.436-1.192 1.04a28.45 28.45 0 0 0-.018 1.078c0 .33.009.668.009.952 0 .098.053.152.16.152.134 0 .116 0 .24-.01.16-.008.25.108.25.232 0 .116-.08.24-.24.24h-.01a17.146 17.146 0 0 0-.667-.017c-.222 0-.427.009-.632.018a.225.225 0 0 1-.249-.232c0-.116.08-.24.24-.24h.01c.106 0 .133.009.266.009.09 0 .152-.063.152-.16 0-.303.008-.66.008-1.006 0-.481-.008-.926-.017-1.095-.036-.686-.436-.962-.872-.962-.552 0-1.157.445-1.183 1.104 0 .143-.01.463-.01.828 0 .374.01.783.01 1.13 0 .098.053.16.16.16.133 0 .106 0 .231-.008h.009c.16 0 .24.116.24.231 0 .125-.08.24-.24.24h-.009a17.138 17.138 0 0 0-.676-.017c-.214 0-.427.009-.632.018-.222.009-.249-.17-.258-.232.01-.124.09-.24.25-.24h.008c.107 0 .134.009.267.009.09 0 .151-.054.151-.152.01-.596.018-1.264.018-1.887v-.667c0-.223-.071-.4-.276-.4-.08 0-.08.008-.195.008-.152 0-.232-.125-.232-.25 0-.124.08-.249.24-.249.08 0 .17-.008.259-.008.631 0 .693.436.702.462.01.027.01.036.018.036l.018-.018a1.531 1.531 0 0 1 1.192-.552c.498 0 .988.25 1.174.775.338-.525.872-.784 1.38-.784.675 0 1.307.463 1.334 1.336.009.374.018 1.504.018 2.198 0 .09.044.152.142.152.133 0 .107-.01.231-.01h.01c.16 0 .24.117.24.232 0 .125-.08.24-.24.24zm7.366 0h-.008a17.146 17.146 0 0 0-.668-.018c-.222 0-.427.009-.631.018a.229.229 0 0 1-.25-.232c0-.124.08-.24.24-.24h.01c.106 0 .124.009.258.009.089 0 .15-.054.15-.152 0-.258.01-.614.01-.97 0-.49-.01-.97-.018-1.14-.036-.685-.436-.96-.88-.96-.552 0-1.166.436-1.193 1.04a28.45 28.45 0 0 0-.018 1.078c0 .33.01.668.01.952 0 .098.053.152.16.152.133 0 .115 0 .24-.01.16-.008.249.108.249.232 0 .116-.08.24-.24.24h-.01a17.146 17.146 0 0 0-.667-.017c-.222 0-.427.009-.631.018a.225.225 0 0 1-.25-.232c0-.116.08-.24.24-.24h.01c.106 0 .133.009.267.009.089 0 .15-.063.15-.16 0-.303.01-.66.01-1.006 0-.481-.01-.926-.018-1.095-.036-.686-.436-.962-.872-.962-.552 0-1.156.445-1.183 1.104 0 .143-.01.463-.01.828 0 .374.01.783.01 1.13 0 .098.053.16.16.16.133 0 .107 0 .231-.008h.01c.16 0 .24.116.24.231 0 .125-.08.24-.24.24h-.01a17.138 17.138 0 0 0-.676-.017c-.213 0-.427.009-.632.018-.222.009-.249-.17-.258-.232.01-.124.09-.24.25-.24h.008c.107 0 .134.009.267.009.09 0 .152-.054.152-.152.009-.596.017-1.264.017-1.887v-.667c0-.223-.07-.4-.275-.4-.08 0-.08.008-.196.008-.151 0-.231-.125-.231-.25 0-.124.08-.249.24-.249.08 0 .169-.008.258-.008.631 0 .694.436.703.462.009.027.009.036.017.036l.018-.018a1.531 1.531 0 0 1 1.192-.552c.499 0 .988.25 1.175.775.338-.525.872-.784 1.379-.784.676 0 1.307.463 1.334 1.336.009.374.018 1.504.018 2.198 0 .09.044.152.142.152.134 0 .107-.01.232-.01h.008c.16 0 .24.117.24.232 0 .125-.08.24-.24.24zm4.698-.766c0 .205-.623.881-1.744.881-1.13 0-2.01-.845-2.01-2.1 0-1.3.934-2.155 1.983-2.155 1.22 0 1.753.953 1.753 1.46 0 .33-.196.579-.65.597-.204.009-.507.009-.836.009-.667 0-1.423-.01-1.619-.01-.089 0-.107.036-.107.16 0 .971.64 1.568 1.495 1.568.65 0 1.014-.276 1.29-.588a.252.252 0 0 1 .178-.08c.133 0 .267.116.267.258zm-.543-2.003c0-.258-.311-.926-1.219-.926-.854 0-1.396.766-1.396 1.095 0 .09.08.09 1.112.09.462 0 .96 0 1.21-.01.213-.008.293-.106.293-.249zm2.972 2.769h-.01c-.23-.01-.489-.018-.729-.018s-.48.009-.685.018c-.205.009-.267-.134-.267-.232 0-.124.09-.25.258-.25h.01c.115 0 .16.01.302.01.089 0 .142-.062.142-.16.009-.686.018-1.229.018-1.825v-.695c0-.24-.071-.4-.294-.409-.08 0-.071 0-.187.009h-.009c-.16 0-.24-.125-.24-.25 0-.133.08-.258.25-.258h.248c.356 0 .65.152.703.472 0 .027.018.027.027.027.018 0 .035-.009.053-.027.24-.33.756-.534 1.264-.552.169-.009.293.08.293.25 0 .124-.089.249-.249.249h-.053c-.614 0-1.281.4-1.3 1.06 0 .168-.008.444-.008.782 0 .339.009.74.009 1.167 0 .089.053.16.151.16.133 0 .17 0 .294-.01.15-.008.267.099.267.241 0 .116-.09.24-.258.24zm5.55-.748c0 .258-.666.854-1.627.854-1.37 0-2.09-1.041-2.09-2.1 0-1.247.88-2.181 2-2.181.383 0 .748.115 1.006.267.018.009.027.018.045.018.026 0 .035-.054.044-.098.01-.107.116-.152.214-.152.133 0 .258.072.258.223v.018c-.01.187-.01.32-.01.463 0 .133 0 .276.01.48v.018c0 .151-.125.223-.258.223-.116 0-.24-.072-.25-.214-.008-.187.018-.294-.088-.418-.223-.259-.56-.365-.908-.365-.872 0-1.548.694-1.548 1.682 0 .81.525 1.656 1.548 1.656.454 0 .89-.178 1.139-.517.071-.097.151-.133.231-.133.151 0 .285.125.285.276zm1.896-5.359c0 .071-.045.427-.445.427-.044 0-.418 0-.418-.427 0-.285.249-.418.427-.418.276 0 .436.204.436.418zm.462 6.116h-.008c-.24-.01-.508-.018-.757-.018s-.498.009-.711.018c-.036 0-.276.008-.276-.25 0-.124.089-.249.267-.249h.009c.115 0 .169.009.32.009.107 0 .16-.062.16-.178.009-.846.018-1.718.018-2.493 0-.258-.09-.4-.303-.409-.07 0-.115.009-.186.009h-.018c-.16 0-.24-.125-.24-.24 0-.134.089-.268.258-.268s.142.01.347.01c.489 0 .658.355.658.73v.026c-.009.623-.018 1.3-.018 1.95v.694c0 .089.053.169.16.169.143 0 .178 0 .312-.009.035 0 .275-.009.275.25 0 .124-.089.249-.267.249zm4.493.008c-.258 0-.578-.24-.658-.57-.009-.026-.018-.044-.036-.044-.009 0-.026.01-.035.027-.267.427-.837.685-1.353.685-.898 0-1.44-.614-1.44-1.228 0-.445.293-.9.951-1.104.552-.169 1.272-.303 1.646-.365.107-.018.142-.044.142-.107 0-.044.01-.098.01-.142 0-.49-.205-.872-.926-.872-.48 0-.836.204-1.04.427a.248.248 0 0 1-.188.089.241.241 0 0 1-.249-.24c0-.339.747-.722 1.513-.722.827 0 1.387.365 1.387 1.362 0 .08 0 .16-.008.25a14.05 14.05 0 0 0-.045 1.095c0 .65.062.863.418.988.107.035.151.133.151.222 0 .125-.089.25-.24.25zm-2.09-.373c.453 0 1.298-.187 1.298-1.558v-.116c0-.071-.026-.098-.089-.098h-.026c-1.397.223-2.135.4-2.135 1.024 0 .374.355.748.952.748zm4.688.365h-.009c-.24-.01-.507-.018-.756-.018-.25 0-.498.009-.712.018-.035 0-.276.008-.276-.25 0-.124.09-.249.267-.249h.01c.07 0 .124.009.168.009.143 0 .312 0 .312-.17.008-.783.017-2.42.017-3.684v-1.184c0-.267-.053-.383-.293-.392-.08 0-.08 0-.196.009h-.018c-.16 0-.231-.116-.231-.24 0-.134.089-.268.258-.268h.276c.542 0 .73.33.73.721v.027c-.019.962-.027 2.973-.027 4.264v.748c0 .142.115.16.364.16h.116c.178 0 .267.125.267.25 0 .124-.09.249-.267.249zm2.028-6.116c0 .071-.044.427-.444.427-.045 0-.419 0-.419-.427 0-.285.25-.418.427-.418.276 0 .436.204.436.418zm.463 6.116h-.009c-.24-.01-.507-.018-.756-.018-.25 0-.498.009-.712.018-.035 0-.276.008-.276-.25 0-.124.09-.249.267-.249h.01c.115 0 .168.009.32.009.106 0 .16-.062.16-.178.008-.846.017-1.718.017-2.493 0-.258-.089-.4-.302-.409-.071 0-.116.009-.187.009h-.018c-.16 0-.24-.125-.24-.24 0-.134.089-.268.258-.268.17 0 .142.01.347.01.49 0 .658.355.658.73v.026c-.009.623-.017 1.3-.017 1.95v.694c0 .089.053.169.16.169.142 0 .178 0 .311-.009.036 0 .276-.009.276.25 0 .124-.09.249-.267.249zm.934-.01h-.009c-.178 0-.258-.115-.258-.24 0-.124.09-.258.25-.267.088 0 .168-.071.248-.169.374-.436 2.251-2.768 2.251-2.902 0-.044-.053-.053-.133-.053-.232 0-.739.018-1.21.018-.267 0-.4.062-.498.293-.054.134-.09.276-.116.347a.234.234 0 0 1-.231.17c-.125 0-.24-.08-.24-.223 0-.018 0-.044.008-.071.17-.632.356-.962.943-.962h.036c.391.01.827.018 1.263.018.294 0 .579-.009.863-.018h.01c.177 0 .266.125.266.25 0 .124-.089.249-.25.249-.061 0-.168.107-.221.17-.543.667-1.717 2.216-2.189 2.768-.044.053-.08.097-.08.124 0 .036.036.054.133.054.32 0 .943 0 1.513-.01.222 0 .49 0 .658-.667a.245.245 0 0 1 .24-.17c.116 0 .232.072.232.206 0 .026 0 .053-.01.08-.204.658-.337 1.006-1.031 1.006-.472-.01-.961-.01-1.45-.01h-.623c-.125 0-.24.01-.365.01zm7.847.018c-.258 0-.578-.24-.659-.57-.008-.026-.017-.044-.035-.044-.009 0-.027.01-.036.027-.267.427-.836.685-1.352.685-.899 0-1.441-.614-1.441-1.228 0-.445.293-.9.952-1.104.551-.169 1.272-.303 1.646-.365.106-.018.142-.044.142-.107 0-.044.009-.098.009-.142 0-.49-.205-.872-.925-.872-.48 0-.837.204-1.041.427a.248.248 0 0 1-.187.089.241.241 0 0 1-.25-.24c0-.339.748-.722 1.513-.722.828 0 1.388.365 1.388 1.362 0 .08 0 .16-.009.25a14.05 14.05 0 0 0-.044 1.095c0 .65.062.863.418.988.107.035.151.133.151.222 0 .125-.089.25-.24.25zm-2.09-.373c.453 0 1.298-.187 1.298-1.558v-.116c0-.071-.027-.098-.089-.098h-.027c-1.396.223-2.135.4-2.135 1.024 0 .374.356.748.952.748zm5.177-3.223h-.783c-.142 0-.142.018-.142.125 0 .338-.027 1.255-.027 1.914 0 .694.018 1.166.712 1.166.08 0 .16-.01.249-.018h.035c.134 0 .214.116.214.231 0 .232-.214.276-.57.276-1.138 0-1.138-.97-1.138-1.362 0-.57.018-1.655.018-2.092v-.142c0-.089-.027-.098-.09-.098h-.524c-.17 0-.25-.116-.25-.24 0-.116.08-.232.25-.232h.516c.08 0 .098-.009.098-.089 0-.035.008-.463.008-.774v-.223c0-.169.134-.258.258-.258.134 0 .258.09.258.276 0 .258-.017.97-.017.97 0 .098.017.098.133.098h.792c.169 0 .249.116.249.232 0 .124-.08.24-.25.24zm2.17-2.528c0 .071-.044.427-.444.427-.045 0-.418 0-.418-.427 0-.285.249-.418.427-.418.275 0 .436.204.436.418zm.463 6.116h-.009c-.24-.01-.507-.018-.756-.018s-.498.009-.712.018c-.035 0-.275.008-.275-.25 0-.124.089-.249.267-.249h.008c.116 0 .17.009.32.009.107 0 .16-.062.16-.178.01-.846.019-1.718.019-2.493 0-.258-.09-.4-.303-.409-.071 0-.116.009-.187.009h-.017c-.16 0-.24-.125-.24-.24 0-.134.088-.268.257-.268.17 0 .143.01.347.01.49 0 .659.355.659.73v.026c-.01.623-.018 1.3-.018 1.95v.694c0 .089.053.169.16.169.142 0 .178 0 .311-.009.036 0 .276-.009.276.25 0 .124-.089.249-.267.249zm2.998.106c-1.183 0-2.055-.854-2.055-2.136 0-1.237.872-2.128 2.055-2.128 1.184 0 2.073.89 2.073 2.128 0 1.282-.89 2.136-2.073 2.136zm0-.471c.854 0 1.548-.668 1.548-1.665 0-1.006-.694-1.665-1.548-1.665-.854 0-1.539.66-1.539 1.665 0 .997.685 1.665 1.54 1.665zm7.295.356h-.008a18.05 18.05 0 0 0-.694-.018c-.223 0-.436.009-.64.018-.206.009-.268-.134-.268-.232 0-.124.09-.25.258-.25h.01c.106 0 .124.01.266.01.089 0 .133-.062.133-.16.01-.41.01-.917.01-1.336 0-.302 0-.552-.01-.676-.044-.739-.516-1.042-1.014-1.042-.623 0-1.308.472-1.334 1.175 0 .17-.01.437-.01.757 0 .33.01.712.01 1.13 0 .098.053.152.16.152.133 0 .116 0 .24-.01.16-.008.267.099.267.241 0 .116-.089.24-.258.24h-.009a18.524 18.524 0 0 0-.694-.017c-.222 0-.445.009-.65.018-.204.009-.266-.134-.266-.232 0-.124.089-.25.258-.25h.009c.106 0 .133.01.276.01.088 0 .15-.054.15-.151.01-.561.019-1.024.019-1.487 0-.33-.01-.668-.01-1.05 0-.232-.08-.392-.293-.401-.08 0-.071 0-.187.009h-.018c-.16 0-.24-.125-.24-.25 0-.124.09-.258.258-.258h.258c.356 0 .659.17.703.499.009.027.018.044.045.044.008 0 .026-.008.044-.026.311-.4.818-.606 1.317-.606.738 0 1.45.454 1.485 1.425.01.293.018 1.023.018 1.664v.428c0 .098.045.16.143.16.133 0 .133-.01.258-.01h.008c.17 0 .258.117.258.241 0 .125-.089.24-.258.24zM35.647 13.953L13.768 1.223A9.024 9.024 0 0 0 9.231 0C4.264 0 .237 3.742.237 8.686V30.69c0-4.814 3.92-8.718 8.757-8.718 4.836 0 8.756 3.904 8.756 8.718v10.496l17.897-10.412a9.916 9.916 0 0 0 3.567-3.551c2.77-4.718 1.173-10.512-3.567-13.27"/>
        <path fill="#7B3DCB" d="M1.547 39.062A9.947 9.947 0 0 1 .186 34.04v16.45c0 4.844 3.93 8.77 8.779 8.77 4.848 0 8.779-3.926 8.779-8.77v-9.352l-2.565 1.497C10.427 45.41 4.324 43.81 1.547 39.062"/>
        <path fill="#C27CF1" d="M8.965 21.807c-4.849 0-8.78 3.927-8.78 8.77v3.462c0 1.765.47 3.5 1.362 5.023 2.777 4.747 8.88 6.347 13.632 3.573l2.565-1.498v-10.56c0-4.843-3.93-8.77-8.78-8.77"/>
        <path fill="#FF86FF" d="M8.965 17.54c4.848 0 8.779-3.926 8.779-8.77 0-4.843-3.931-8.77-8.78-8.77C4.117 0 .187 3.927.187 8.77c0 4.844 3.93 8.77 8.779 8.77"/>
    </g>
</svg>
