<svg xmlns="http://www.w3.org/2000/svg" width="40" height="40" viewBox="0 0 40 40">
    <g fill="none" fill-rule="evenodd">
        <circle cx="20" cy="20" r="20" fill="#F1F3F5"/>
        <g fill-rule="nonzero">
            <path fill="#FAAB07" d="M20 33.015c-2.404 0-4.611-.808-6.032-2.015-.721.217-1.644.565-2.227.997-.498.37-.436.746-.346.898.394.669 6.766.427 8.605.219v-.1zM20 33.015c2.404 0 4.611-.808 6.032-2.015.721.217 1.644.565 2.227.997.498.37.436.746.346.898-.394.669-6.766.427-8.605.219v-.1z"/>
            <path fill="#000" d="M19.848 19c3.899-.027 7.023-.783 8.082-1.073.252-.069.387-.193.387-.193.001-.035.016-.636.016-.945 0-5.215-2.457-10.455-8.5-10.456-6.043 0-8.5 5.24-8.5 10.456 0 .31.015.91.016.945 0 0 .11.116.311.172.978.273 4.161 1.067 8.159 1.094h.029zM30.872 23.271c-.244-.79-.576-1.71-.914-2.595 0 0-.193-.024-.292.005-3.025.884-6.69 1.447-9.485 1.413h-.029c-2.778.034-6.42-.523-9.434-1.399-.116-.033-.343-.019-.343-.019-.337.885-.67 1.805-.914 2.595-1.163 3.766-.786 5.324-.5 5.36.616.074 2.397-2.836 2.397-2.836 0 2.957 2.653 7.497 8.728 7.538h.161c6.075-.041 8.728-4.581 8.728-7.538 0 0 1.781 2.91 2.397 2.835.286-.035.663-1.593-.5-5.359"/>
            <path fill="#FFF" d="M17.915 13.999c-.828.037-1.535-.903-1.58-2.098-.044-1.196.59-2.196 1.417-2.233.827-.037 1.534.903 1.579 2.098.045 1.196-.589 2.196-1.416 2.233M23.664 11.9c-.044 1.196-.751 2.136-1.579 2.099-.827-.037-1.461-1.037-1.416-2.233.045-1.195.752-2.135 1.579-2.098.827.037 1.461 1.037 1.416 2.233"/>
            <path fill="#FAAB07" d="M24.984 15.648c-.218-.464-2.415-.981-5.136-.981h-.03c-2.72 0-4.917.517-5.135.981a.15.15 0 0 0-.016.066c0 .034.012.064.03.09.184.257 2.624 1.53 5.122 1.53h.03c2.497 0 4.937-1.273 5.121-1.53a.153.153 0 0 0 .03-.09.15.15 0 0 0-.016-.066"/>
            <path fill="#000" d="M18.996 11.753c.039.458-.227.865-.593.91-.366.044-.694-.29-.733-.75-.038-.458.227-.865.592-.909.367-.045.696.29.734.75M21.02 12.012c.07-.143.55-.892 1.54-.62.26.072.38.178.406.22.038.06.048.148.01.265-.075.233-.23.227-.317.181-.056-.03-.746-.55-1.382.227-.043.053-.122.071-.196.008a.251.251 0 0 1-.06-.281"/>
            <path fill="#FFF" d="M20.014 22.001h-.03c-1.892.023-4.186-.228-6.408-.667a18.093 18.093 0 0 0-.207 4.147c.25 4.184 2.728 6.814 6.553 6.852h.156c3.825-.038 6.303-2.668 6.553-6.852a18.093 18.093 0 0 0-.207-4.148c-2.222.44-4.517.691-6.41.668"/>
            <path fill="#EB1923" d="M14.667 21.667v4.123s1.831.38 3.666.117v-3.803a32.738 32.738 0 0 1-3.666-.437"/>
            <path fill="#EB1923" d="M28.764 17.667s-3.69 1.186-8.583 1.22h-.029c-4.885-.034-8.57-1.216-8.583-1.22l-1.236 3.14c3.091.949 6.922 1.56 9.82 1.525h.028c2.897.035 6.728-.576 9.819-1.525l-1.236-3.14z"/>
        </g>
    </g>
</svg>
