<svg xmlns="http://www.w3.org/2000/svg" width="40" height="40" viewBox="0 0 40 40">
    <defs>
        <linearGradient id="a" x1="50%" x2="50%" y1="0%" y2="100%">
            <stop offset="0%" stop-color="#FEEBA7"/>
            <stop offset="100%" stop-color="#FFD237"/>
        </linearGradient>
    </defs>
    <g fill="none" fill-rule="evenodd">
        <circle cx="20" cy="20" r="20" fill="url(#a)"/>
        <g fill-rule="nonzero">
            <path fill="#FFF" d="M9 24.167c0 3.038 4.03 5.5 9 5.5s9-2.462 9-5.5-4.03-5.5-9-5.5-9 2.462-9 5.5"/>
            <path fill="#E6162D" d="M17.917 29.103c-4.302.433-8.016-1.541-8.296-4.402-.28-2.865 2.983-5.534 7.282-5.966 4.302-.433 8.017 1.541 8.293 4.402.283 2.865-2.98 5.537-7.279 5.966m8.602-9.507c-.366-.112-.617-.185-.427-.672.416-1.058.459-1.97.007-2.625-.842-1.222-3.151-1.156-5.797-.033 0 0-.832.367-.617-.298.405-1.327.344-2.436-.287-3.08-1.434-1.457-5.252.055-8.526 3.374C8.423 18.746 7 21.382 7 23.661c0 4.355 5.51 7.006 10.9 7.006 7.066 0 11.767-4.163 11.767-7.468.003-2-1.657-3.134-3.148-3.603"/>
            <path fill="#F93" d="M31.517 11.678a7.012 7.012 0 0 0-6.711-2.188c-.552.118-.9.666-.783 1.218.117.555.658.907 1.209.789a4.986 4.986 0 0 1 4.77 1.555 5.076 5.076 0 0 1 1.048 4.94c-.173.54.121 1.117.658 1.291a1.018 1.018 0 0 0 1.282-.659v-.003a7.126 7.126 0 0 0-1.473-6.943"/>
            <path fill="#F93" d="M28.816 14.184c-.821-.988-2.032-1.365-3.147-1.103-.456.103-.746.595-.65 1.091.098.496.548.811 1 .704a1.543 1.543 0 0 1 1.54.538c.4.484.51 1.142.337 1.718-.142.48.099 1 .545 1.157.446.154.92-.107 1.065-.592.35-1.18.13-2.525-.69-3.513"/>
            <path fill="#000" d="M18.143 23.808c-.152.263-.49.387-.75.278-.261-.106-.341-.402-.192-.658.152-.256.475-.38.732-.278.261.095.355.391.21.658m-1.388 1.79c-.421.677-1.324.973-2.002.662-.667-.307-.867-1.093-.446-1.754.417-.658 1.287-.95 1.962-.665.681.296.899 1.074.486 1.758m1.58-4.788c-2.07-.544-4.409.497-5.308 2.335-.918 1.875-.03 3.958 2.06 4.638 2.168.706 4.72-.376 5.61-2.397.877-1.981-.218-4.017-2.361-4.576"/>
        </g>
    </g>
</svg>
