<svg xmlns="http://www.w3.org/2000/svg" width="40" height="40" viewBox="0 0 40 40">
    <defs>
        <linearGradient id="a" x1="50%" x2="50%" y1="0%" y2="100%">
            <stop offset="0%" stop-color="#00D40D"/>
            <stop offset="100%" stop-color="#00B70C"/>
        </linearGradient>
    </defs>
    <g fill="none" fill-rule="evenodd">
        <circle cx="20" cy="20" r="20" fill="url(#a)"/>
        <path fill="#FFF" d="M27.667 22.333a1 1 0 1 0 0-2 1 1 0 0 0 0 2zm-5.334 0a1 1 0 1 0 0-2 1 1 0 0 0 0 2zm-2.833-6a1.167 1.167 0 1 0 0-2.333 1.167 1.167 0 0 0 0 2.333zm-6 0a1.167 1.167 0 1 0 0-2.333 1.167 1.167 0 0 0 0 2.333zm14.54 13.265a.537.537 0 0 0-.428-.05 8.937 8.937 0 0 1-2.612.386c-4.234 0-7.667-2.896-7.667-6.467C17.333 19.895 20.766 17 25 17s7.667 2.895 7.667 6.467c0 1.973-1.048 3.739-2.699 4.925a.397.397 0 0 0-.151.422l.36 1.392c.109.417-.104.581-.473.366l-1.663-.974zm-14.592-4.61a10.833 10.833 0 0 0 3.604.439 5.936 5.936 0 0 1-.312-1.9c0-3.88 3.78-7.025 8.441-7.025.163 0 .325.004.486.011-.692-3.69-4.508-6.513-9.111-6.513-5.094 0-9.223 3.456-9.223 7.719 0 2.343 1.248 4.443 3.218 5.858a.55.55 0 0 1 .211.59l-.433 1.626c-.131.49.119.683.555.427l1.975-1.16a.741.741 0 0 1 .589-.072z"/>
    </g>
</svg>
