<?xml version="1.0" encoding="UTF-8"?>
<svg width="56px" height="56px" viewBox="0 0 56 56" version="1.1" xmlns="http://www.w3.org/2000/svg" xmlns:xlink="http://www.w3.org/1999/xlink">
    <!-- Generator: Sketch 52.5 (67469) - http://www.bohemiancoding.com/sketch -->
    <title>Microsoft_Excel_2013_logo Copy</title>
    <desc>Created with Sketch.</desc>
    <g id="Symbols" stroke="none" stroke-width="1" fill="none" fill-rule="evenodd">
        <g id="Microsoft_Excel_2013_logo-Copy" fill-rule="nonzero">
            <g id="Group-11">
                <g>
                    <path d="M28.9689888,0 L32.7065169,0 C32.7065169,1.68 32.7065169,3.35370787 32.7065169,5.03370787 C39.0049438,5.03370787 45.3033708,5.04629213 51.6017978,5.01483146 C52.6651685,5.0588764 53.8355056,4.98337079 54.7604494,5.6188764 C55.4085393,6.55011236 55.3330337,7.73303371 55.3770787,8.80269663 C55.345618,19.7258427 55.3582022,30.6426966 55.3644944,41.5595506 C55.3330337,43.3905618 55.534382,45.2593258 55.1505618,47.0651685 C54.8988764,48.3739326 53.3258427,48.4053933 52.2750562,48.4494382 C45.7564045,48.4683146 39.2314607,48.4368539 32.7065169,48.4494382 C32.7065169,50.3370787 32.7065169,52.2247191 32.7065169,54.1123596 L28.7991011,54.1123596 C19.2098876,52.3694382 9.60179775,50.7586517 0,49.0786517 C0,34.3991011 0,19.7195506 0,5.04 C9.65842697,3.36 19.3168539,1.70516854 28.9689888,0 Z" id="path10" fill="#207245"></path>
                    <path d="M32.7065169,6.92134831 C39.6278652,6.92134831 46.5492135,6.92134831 53.4705618,6.92134831 C53.4705618,20.1348315 53.4705618,33.3483146 53.4705618,46.5617978 C46.5492135,46.5617978 39.6278652,46.5617978 32.7065169,46.5617978 C32.7065169,45.3033708 32.7065169,44.0449438 32.7065169,42.7865169 C34.3865169,42.7865169 36.0602247,42.7865169 37.7402247,42.7865169 C37.7402247,41.3204494 37.7402247,39.8480899 37.7402247,38.3820225 C36.0602247,38.3820225 34.3865169,38.3820225 32.7065169,38.3820225 C32.7065169,37.5451685 32.7065169,36.7020225 32.7065169,35.8651685 C34.3865169,35.8651685 36.0602247,35.8651685 37.7402247,35.8651685 C37.7402247,34.3991011 37.7402247,32.9267416 37.7402247,31.4606742 C36.0602247,31.4606742 34.3865169,31.4606742 32.7065169,31.4606742 C32.7065169,30.6238202 32.7065169,29.7806742 32.7065169,28.9438202 C34.3865169,28.9438202 36.0602247,28.9438202 37.7402247,28.9438202 C37.7402247,27.4777528 37.7402247,26.0053933 37.7402247,24.5393258 C36.0602247,24.5393258 34.3865169,24.5393258 32.7065169,24.5393258 C32.7065169,23.7024719 32.7065169,22.8593258 32.7065169,22.0224719 C34.3865169,22.0224719 36.0602247,22.0224719 37.7402247,22.0224719 C37.7402247,20.5564045 37.7402247,19.0840449 37.7402247,17.6179775 C36.0602247,17.6179775 34.3865169,17.6179775 32.7065169,17.6179775 C32.7065169,16.7811236 32.7065169,15.9379775 32.7065169,15.1011236 C34.3865169,15.1011236 36.0602247,15.1011236 37.7402247,15.1011236 C37.7402247,13.6350562 37.7402247,12.1626966 37.7402247,10.6966292 C36.0602247,10.6966292 34.3865169,10.6966292 32.7065169,10.6966292 C32.7065169,9.43820225 32.7065169,8.17977528 32.7065169,6.92134831 Z" id="path48" fill="#FFFFFF"></path>
                    <path d="M40.2570787,10.6966292 C43.1955056,10.6966292 46.1276404,10.6966292 49.0660674,10.6966292 C49.0660674,12.1626966 49.0660674,13.6350562 49.0660674,15.1011236 C46.1276404,15.1011236 43.1955056,15.1011236 40.2570787,15.1011236 C40.2570787,13.6350562 40.2570787,12.1626966 40.2570787,10.6966292 Z" id="path58" fill="#207245"></path>
                    <path d="M18.6373034,16.5923596 C20.0593258,16.4916854 21.4876404,16.4035955 22.9159551,16.334382 C21.2359551,19.7761798 19.5496629,23.2179775 17.8382022,26.647191 C19.5685393,30.1707865 21.3366292,33.6692135 23.0732584,37.192809 C21.5568539,37.1047191 20.0467416,37.0103371 18.5303371,36.9033708 C17.4606742,34.2795506 16.1582022,31.7438202 15.3905618,29.0004494 C14.5348315,31.5550562 13.3141573,33.9649438 12.3325843,36.4692135 C10.9546067,36.4503371 9.57662921,36.3937079 8.19865169,36.3370787 C9.81573034,33.1721348 11.3761798,29.9820225 13.0435955,26.8359551 C11.6278652,23.5955056 10.0737079,20.4179775 8.61393258,17.1964045 C9.99820225,17.1146067 11.3824719,17.032809 12.7667416,16.9573034 C13.7042697,19.4175281 14.7298876,21.8462921 15.5038202,24.3694382 C16.334382,21.6952809 17.5739326,19.178427 18.6373034,16.5923596 Z" id="path72" fill="#FFFFFF"></path>
                    <path d="M40.2570787,17.6179775 C43.1955056,17.6179775 46.1276404,17.6179775 49.0660674,17.6179775 C49.0660674,19.0840449 49.0660674,20.5564045 49.0660674,22.0224719 C46.1276404,22.0224719 43.1955056,22.0224719 40.2570787,22.0224719 C40.2570787,20.5564045 40.2570787,19.0840449 40.2570787,17.6179775 Z" id="path90" fill="#207245"></path>
                    <path d="M40.2570787,24.5393258 C43.1955056,24.5393258 46.1276404,24.5393258 49.0660674,24.5393258 C49.0660674,26.0053933 49.0660674,27.4777528 49.0660674,28.9438202 C46.1276404,28.9438202 43.1955056,28.9438202 40.2570787,28.9438202 C40.2570787,27.4777528 40.2570787,26.0053933 40.2570787,24.5393258 Z" id="path108" fill="#207245"></path>
                    <path d="M40.2570787,31.4606742 C43.1955056,31.4606742 46.1276404,31.4606742 49.0660674,31.4606742 C49.0660674,32.9267416 49.0660674,34.3991011 49.0660674,35.8651685 C46.1276404,35.8651685 43.1955056,35.8651685 40.2570787,35.8651685 C40.2570787,34.3991011 40.2570787,32.9267416 40.2570787,31.4606742 Z" id="path114" fill="#207245"></path>
                    <path d="M40.2570787,38.3820225 C43.1955056,38.3820225 46.1276404,38.3820225 49.0660674,38.3820225 C49.0660674,39.8480899 49.0660674,41.3204494 49.0660674,42.7865169 C46.1276404,42.7865169 43.1955056,42.7865169 40.2570787,42.7865169 C40.2570787,41.3204494 40.2570787,39.8480899 40.2570787,38.3820225 Z" id="path120" fill="#207245"></path>
                </g>
            </g>
        </g>
    </g>
</svg>