<?xml version="1.0" encoding="UTF-8"?>
<svg width="56px" height="56px" viewBox="0 0 56 56" version="1.1" xmlns="http://www.w3.org/2000/svg" xmlns:xlink="http://www.w3.org/1999/xlink">
    <!-- Generator: Sketch 52.5 (67469) - http://www.bohemiancoding.com/sketch -->
    <title>Microsoft_PowerPoint_2013_logo Copy</title>
    <desc>Created with Sketch.</desc>
    <g id="Symbols" stroke="none" stroke-width="1" fill="none" fill-rule="evenodd">
        <g id="Microsoft_PowerPoint_2013_logo-Copy">
            <g>
                <rect id="Rectangle-3" x="0" y="0" width="56" height="56"></rect>
                <g id="g14" transform="translate(28.000000, 27.282051) scale(1, -1) translate(-28.000000, -27.282051) ">
                    <g id="g20" transform="translate(0.095282, 0.226998)" fill="#CB4A32" fill-rule="nonzero">
                        <path d="M52.6504117,8.77727501 L31.1606906,8.77727501 L31.1606906,13.342366 L47.9184489,13.342366 L47.9184489,15.4610186 L31.1606906,15.4610186 L31.1606906,19.0424495 L47.9184489,19.0424495 L47.9184489,21.1611021 L31.1606906,21.1611021 L31.1606906,27.0488376 C32.5109376,25.4380563 34.5189057,24.4150498 36.7630704,24.4150498 C40.8292802,24.4150498 44.1253227,27.7688768 44.1253227,31.9056973 L36.7630704,31.9056973 L36.7630704,39.3963449 C34.5189057,39.3963449 32.5109376,38.3733384 31.1606906,36.7625571 L31.1606906,45.0970337 L52.6533865,45.0970337 L52.6504117,8.77727501 Z M52.6533865,46.9130216 L31.1606906,46.9130216 L31.1606906,52.6255143 L0.0743691899,47.1379015 L0.0743691899,5.52514329 L31.1606906,0.0375304173 L31.1606906,6.96128708 L52.6533865,6.96128708 C53.6377371,6.96128708 54.438247,7.77575767 54.438247,8.77727501 L54.438247,45.0970337 C54.438247,46.098551 53.6377371,46.9130216 52.6533865,46.9130216 Z" id="path22"></path>
                    </g>
                    <g id="g24" transform="translate(37.998581, 33.116356)" fill="#CB4A32" fill-rule="nonzero">
                        <path d="M0,7.56661639 L0,0.0759688286 L7.36225232,0.0759688286 C7.36225232,4.21278934 4.06620983,7.56661639 0,7.56661639" id="path26"></path>
                    </g>
                    <g id="g28" transform="translate(10.051026, 17.496620)" fill="#FFFFFF">
                        <path d="M3.27224436,9.38260432 C4.51242497,9.28575163 5.72375033,9.04997587 6.47696149,10.3580925 C7.04633201,11.345082 6.99843825,13.1486606 6.33803984,13.9071383 C5.48398406,14.8877717 4.38064276,14.7479407 3.27224436,14.5693685 L3.27224436,9.38260432 Z M3.18478619,0.0968526898 L0.0710969456,0.0968526898 L0.0710969456,17.7791272 C2.47322178,17.7791272 4.86315007,17.8478321 7.24415405,17.7328195 C7.87004515,17.702553 8.59678088,17.2291855 9.05876228,16.7437114 C10.8269641,14.8862584 10.8272616,12.5723871 10.2989429,10.2645691 C9.82803718,8.20917345 8.5247915,6.76304173 6.47071448,6.25456511 C5.44739442,6.00123479 4.35238247,6.04784515 3.18478619,5.95008446 L3.18478619,0.0968526898 Z" id="path30"></path>
                    </g>
                </g>
            </g>
        </g>
    </g>
</svg>