<?xml version="1.0" encoding="UTF-8"?>
<svg width="56px" height="56px" viewBox="0 0 56 56" version="1.1" xmlns="http://www.w3.org/2000/svg" xmlns:xlink="http://www.w3.org/1999/xlink">
    <!-- Generator: Sketch 52.5 (67469) - http://www.bohemiancoding.com/sketch -->
    <title>Adobe_PDF Copy</title>
    <desc>Created with Sketch.</desc>
    <g id="Symbols" stroke="none" stroke-width="1" fill="none" fill-rule="evenodd">
        <g id="Adobe_PDF-Copy" fill-rule="nonzero">
            <g>
                <path d="M54.336404,42.7360825 L54.497899,42.7360825 C54.6767407,42.7360825 54.8292795,42.6808522 54.8292795,42.5228591 C54.8292795,42.3971959 54.7518788,42.3099244 54.5213737,42.3099244 C54.4291717,42.3099244 54.3750572,42.3185842 54.336404,42.3270515 L54.336404,42.7360825 Z M54.336404,43.4744742 L54.0973199,43.4744742 L54.0973199,42.1603024 C54.2290236,42.138268 54.3664781,42.1229691 54.5451313,42.1229691 C54.7606465,42.1229691 54.8678384,42.1603024 54.9520269,42.2238076 C55.0296162,42.2787491 55.0836364,42.3821856 55.0836364,42.5007285 C55.0836364,42.6658419 54.9695623,42.7666804 54.8291852,42.8151753 L54.8291852,42.8302818 C54.9458047,42.8769485 55.0081212,42.9802887 55.046963,43.1450172 C55.0837306,43.3491959 55.1073939,43.4283849 55.1394478,43.4744742 L54.8916902,43.4744742 C54.8531313,43.4283849 54.8227744,43.3095533 54.790532,43.1292371 C54.7606465,42.9862543 54.6767407,42.9246735 54.4912997,42.9246735 L54.3363098,42.9246735 L54.3363098,43.4744742 L54.336404,43.4744742 Z M54.5845387,44.0499656 C53.9031111,44.0499656 53.3507475,43.4865017 53.3507475,42.7911203 C53.3507475,42.0955464 53.9031111,41.5315052 54.5845387,41.5315052 C55.2658721,41.5315052 55.8185185,42.0954502 55.8185185,42.7911203 C55.8185185,43.4864055 55.2658721,44.0499656 54.5845387,44.0499656 Z M55.5713266,42.7911203 C55.5713266,42.2347766 55.1293603,41.7835052 54.5845387,41.7835052 C54.0397172,41.7835052 53.5975623,42.2346804 53.5975623,42.7911203 C53.5975623,43.3473677 54.0396229,43.798543 54.5845387,43.798543 C55.1294545,43.798543 55.5713266,43.3473677 55.5713266,42.7911203 Z" id="Shape" fill="#F91D0A"></path>
                <path d="M2.38179125,26.5883574 L2.78689562,23.9709828 C2.92208754,23.2821443 3.19181145,22.3180206 3.19181145,21.4916838 L3.32700337,21.4916838 C3.46210101,22.3180206 3.59691582,23.2821443 3.73182492,23.9709828 L4.13702357,26.5883574 L2.38179125,26.5883574 Z M4.40674747,27.691134 L4.94657239,30.7211959 L6.43123232,30.7211959 L4.13711785,19.9759313 L2.51707744,19.9759313 L0.0876767677,30.7211959 L1.57243098,30.7211959 L2.11187879,27.691134 L4.40674747,27.691134 Z" id="path2434_1_" fill="#231F20"></path>
                <path d="M15.4342222,29.6189966 C14.4892929,29.6189966 14.2192862,28.1040137 14.2192862,26.8643162 C14.2192862,25.6240412 14.4892929,23.9709828 15.4342222,23.9709828 C16.3791515,23.9709828 16.5139663,25.6241375 16.5139663,26.8643162 C16.5139663,27.9661306 16.3791515,29.6189966 15.4342222,29.6189966 Z M15.4342222,30.859079 C16.5139663,30.859079 17.9987205,29.8948591 17.9987205,26.8643162 C17.9987205,24.2463643 16.9187879,22.8687835 15.4342222,22.8687835 C14.0844714,22.8687835 12.7346263,23.9709828 12.7346263,26.8643162 C12.7346263,29.4814021 13.9492795,30.859079 15.4342222,30.859079 Z" id="path2438_1_" fill="#231F20"></path>
                <g id="Group" fill="#F91D0A">
                    <path d="M24.371596,24.3959863 C24.0416296,23.3588316 23.609468,22.9139107 22.9442559,22.5118076 L22.9507609,22.4937182 C23.0823704,22.1788866 23.2117172,21.8636701 23.3384242,21.5483574 L23.951596,20.0257732 C21.9261684,12.15989 20.7116094,5.84593814 21.796633,1.76313402 C22.0887003,0.698652921 23.2965657,0.0529209622 24.5880539,0.0529209622 L25.3749764,0.0646597938 L25.5195017,0.0646597938 C27.2875556,0.0370446735 28.1200135,2.33246735 28.2143838,3.224811 C28.3704108,4.71102405 27.6965253,7.2264055 27.6965253,7.2264055 C27.6965253,6.2107079 27.7354613,4.5692921 27.1072997,3.15312715 C26.3760943,1.51430928 25.6776027,0.535175258 25.0515152,0.379972509 C24.7353131,0.595505155 24.4280673,1.04186942 24.3227609,1.90034364 C24.1047003,3.1041512 24.039367,4.62356014 24.039367,5.40669416 C24.039367,8.1740756 24.5731582,11.8266804 25.6222626,15.5919588 C25.8201481,15.0089622 25.9944646,14.448866 26.1327677,13.9241787 C26.3479057,13.0969759 27.7156633,7.61426804 27.7156633,7.61426804 C27.7156633,7.61426804 27.3709899,14.9128385 26.8895219,17.1210859 C26.7863838,17.5877526 26.6725926,18.0492234 26.5540875,18.5216632 C27.0122694,19.8282337 27.5446465,21.097567 28.1415084,22.3167698 L28.1321751,22.3287973 C27.8860202,22.2518213 27.6127138,22.2113127 27.3108418,22.2113127 C26.41833,22.2113127 25.57767,22.6888522 25.2873939,22.9851134 C24.8852121,23.3954914 24.371596,24.3959863 24.371596,24.3959863 Z" id="Shape"></path>
                    <path d="M27.9849158,27.6391753 L30.0118519,27.6391753 C30.0118519,27.4739656 30.0118519,26.6988179 30.0118519,26.2030928 C30.0118519,26.015079 30.0068552,25.831299 29.9966734,25.6522337 L30.0029899,25.6341443 C31.3022088,27.6681375 32.7866801,29.4925636 34.3972929,31.0275601 C35.7085791,32.2782268 37.3644444,33.2867079 38.9318788,34.2058007 C42.3545724,33.7068041 45.5060337,33.4709691 48.1351111,33.500701 C51.623138,33.5476564 54.1836768,34.074268 55.2205253,35.1165223 C55.7281077,35.6230241 55.9340067,36.235079 55.9981145,36.9210309 C56.0131987,37.1876564 55.8858316,37.8148179 55.8485926,37.9721375 C55.8858316,37.7817182 55.8858316,36.844921 53.0857374,35.932756 C50.8806195,35.2131271 46.7532121,35.2355464 41.8007003,35.7736082 C47.5289158,38.6339381 53.1095892,40.0552027 54.878303,39.2031753 C55.3106532,38.9880275 55.8350168,38.2547354 55.8350168,38.2547354 C55.8350168,38.2547354 55.5233401,39.700055 55.2995286,40.0616495 C55.0139663,40.4544192 54.4534949,40.8797113 53.9222492,41.0228866 C51.1291313,41.7834089 43.8587475,40.0234502 37.5204714,36.3270653 C30.4391111,37.3915464 22.6620875,39.3579931 16.4282694,41.444811 C10.3030572,52.4018557 5.69729293,57.4342543 1.95066667,55.5198625 L0.573292929,54.8130309 C0.0133872054,54.4863643 -0.0722154882,53.6905292 0.0573198653,53.0425842 C0.494195286,50.8612784 3.17408754,47.5760412 8.55706397,44.2954227 C9.13657912,43.9375808 11.7174815,42.544701 11.7174815,42.544701 C11.7174815,42.544701 9.80678788,44.4324399 9.35897643,44.8028866 C5.06234343,48.3963162 1.891367,52.9171134 1.97046465,54.6697595 L1.98592593,54.8227491 C5.63591919,54.2916151 11.1186397,46.7146804 18.1459798,32.6578144 C18.3388687,32.2719725 18.7033401,31.5483986 18.7033401,31.5483986 L21.5219125,31.5483986 C21.5219125,31.5483986 20.7881616,33.0274914 20.3759865,33.8230378 C19.204229,36.0844948 18.0518923,38.1769897 16.9911919,40.1000412 C22.8580875,37.5915876 29.1724175,35.9858694 35.1830842,34.845567 C34.3753266,34.2761375 33.591138,33.6734158 32.8532391,33.0361512 C30.9885522,31.4250447 29.3734141,29.5889759 27.9914209,27.6214708 L27.9849158,27.6391753 Z" id="Shape"></path>
                </g>
                <path d="M35.7215892,21.2154364 C35.8565926,21.2154364 36.1264108,21.0782268 36.3964175,21.0782268 C37.611165,21.0782268 38.0162694,22.0424467 38.0162694,23.1447423 C38.0162694,24.3845361 37.3411582,25.2111615 36.261697,25.2111615 C35.9916902,25.2111615 35.8565926,25.2111615 35.7215892,25.2111615 L35.7215892,21.2154364 Z M34.236835,30.7211959 L35.7215892,30.7211959 L35.7215892,26.4508591 C35.8565926,26.4508591 36.1264108,26.4508591 36.261697,26.4508591 C37.2063434,26.4508591 38.1512727,26.0373058 38.8258182,25.3484674 C39.2306397,24.7978969 39.5009293,23.9708866 39.5009293,23.0066667 C39.5009293,22.0424467 39.2306397,21.2153402 38.690532,20.6646735 C38.1511785,20.1138144 37.2062492,19.8380481 36.1264108,19.8380481 C35.4515825,19.8380481 34.777037,19.9759313 34.3718384,20.1138144 L34.236835,30.7211959 Z" id="path2444_1_" fill="#231F20"></path>
                <path d="M41.6605118,21.2154364 C41.7957037,21.0782268 42.0657104,21.0782268 42.2005253,21.0782268 C43.6851852,21.0782268 44.4952054,22.5934983 44.4952054,25.0733746 C44.4952054,28.5173746 43.2803636,29.4814983 42.0657104,29.4814983 C41.9304242,29.4814983 41.7957037,29.4814983 41.6605118,29.4814983 L41.6605118,21.2154364 Z M40.1758519,30.7211959 C40.5801077,30.7211959 41.1209697,30.7211959 41.6605118,30.7211959 C43.0099798,30.7211959 43.9551919,30.4461993 44.6303973,29.6189966 C45.4397576,28.9302543 45.9801481,27.415079 45.9801481,25.0733746 C45.9801481,22.8687835 45.4397576,21.4916838 44.6303973,20.8025567 C43.9551919,20.1139107 43.1450774,19.8381443 41.9304242,19.8381443 C41.2555017,19.8381443 40.7158653,19.9760275 40.1758519,20.1139107 L40.1758519,30.7211959 Z" id="path2446_1_" fill="#231F20"></path>
                <polyline id="path2448_1_" fill="#231F20" points="46.7895084 19.9759313 50.9740471 19.9759313 50.9740471 21.2153402 48.2745455 21.2153402 48.2745455 24.6595326 50.8389495 24.6595326 50.8389495 26.0373058 48.2745455 26.0373058 48.2745455 30.7211959 46.7895084 30.7211959 46.7895084 19.9759313"></polyline>
                <path d="M30.7491852,24.0543093 L30.9106801,24.0543093 C31.0895219,24.0543093 31.2420606,23.999079 31.2420606,23.8410859 C31.2420606,23.7154227 31.1646599,23.6281512 30.9341549,23.6281512 C30.8419529,23.6281512 30.7878384,23.636811 30.7491852,23.6452784 L30.7491852,24.0543093 Z M30.7491852,24.792701 L30.510101,24.792701 L30.510101,23.4785292 C30.6418047,23.4564948 30.7792593,23.4411959 30.9579125,23.4411959 C31.1734276,23.4411959 31.2806195,23.4785292 31.3648081,23.5420344 C31.4423973,23.5969759 31.4964175,23.7004124 31.4964175,23.8189553 C31.4964175,23.9840687 31.3823434,24.0849072 31.2419663,24.1334021 L31.2419663,24.1485086 C31.3585859,24.1951753 31.4209024,24.2985155 31.4597441,24.463244 C31.4965118,24.6674227 31.5201751,24.7466117 31.552229,24.792701 L31.3044714,24.792701 C31.2659125,24.7466117 31.2355556,24.6277801 31.2033131,24.4474639 C31.1734276,24.3044811 31.0895219,24.2429003 30.9040808,24.2429003 L30.7490909,24.2429003 L30.7490909,24.792701 L30.7491852,24.792701 Z M30.9973199,25.3680962 C30.3158923,25.3680962 29.7635286,24.8046323 29.7635286,24.1092509 C29.7635286,23.413677 30.3158923,22.8496357 30.9973199,22.8496357 C31.6786532,22.8496357 32.2312997,23.4135808 32.2312997,24.1092509 C32.2312997,24.8046323 31.6785589,25.3680962 30.9973199,25.3680962 Z M31.9841077,24.1092509 C31.9841077,23.5529072 31.5421414,23.1016357 30.9973199,23.1016357 C30.4524983,23.1016357 30.0103434,23.552811 30.0103434,24.1092509 C30.0103434,24.6654983 30.452404,25.1166735 30.9973199,25.1166735 C31.5422357,25.1166735 31.9841077,24.6655945 31.9841077,24.1092509 Z" id="Shape" fill="#000000"></path>
                <path d="M26.0030438,26.0374021 C26.0030438,25.0733746 26.4082424,23.9709828 27.0830707,23.9709828 C27.7576162,23.9709828 28.1623434,24.6596289 28.1623434,26.0374021 L26.0030438,26.0374021 Z M29.5124714,27.1396014 C29.5124714,27.0019107 29.5124714,26.7263368 29.5124714,26.3132646 C29.5124714,24.3844399 28.8379259,22.8687835 27.2177912,22.8687835 C25.5979394,22.8687835 24.5183838,24.3844399 24.5183838,26.8643162 C24.5183838,29.3434227 25.463596,30.859079 27.3530774,30.859079 C28.0810774,30.859079 28.8378316,30.7211959 29.2423704,30.4461993 L28.9729293,29.3434227 C28.7026397,29.4814983 28.1623434,29.6189966 27.7576162,29.6189966 C26.8129697,29.6189966 26.0030438,29.0680412 26.0030438,27.1395052 L29.5124714,27.1395052 L29.5124714,27.1396014 Z" id="path2442_1_" fill="#231F20"></path>
                <path d="M10.6156768,25.6181718 C10.6156768,25.4518076 10.5750438,25.2084674 10.5276229,25.0550928 C10.40167,24.5629278 10.0304108,24.1029003 9.58919865,24.1029003 C8.70432323,24.1029003 8.32043098,25.1984605 8.32043098,26.787244 C8.32043098,28.5326735 8.68452525,29.6236151 9.57873401,29.6236151 C9.89521886,29.6236151 10.2926869,29.4395464 10.5241347,28.6896082 C10.5749495,28.549512 10.6155825,28.3401375 10.6155825,28.1187354 L10.6155825,25.6181718 L10.6156768,25.6181718 Z M12.0955286,28.4964948 C12.0955286,29.1940893 12.1320135,30.075079 12.1556768,30.720811 L10.9159461,30.720811 L10.8154478,29.7899794 L10.7790572,29.7899794 C10.4100606,30.5473265 9.73108418,30.8458007 9.11725253,30.8458007 C7.83066667,30.8458007 6.83765657,29.381622 6.83765657,26.6434914 C6.83765657,24.4790241 7.80851178,22.8451134 9.1366734,22.8451134 C9.80414815,22.8451134 10.2297104,23.164756 10.5781549,23.7618007 L10.6063434,23.7618007 L10.6063434,19.7141168 L12.0955286,19.7141168 L12.0955286,28.4964948 Z" id="Shape" fill="#1A171B"></path>
                <path d="M20.2530505,28.1187354 C20.2530505,28.3401375 20.2936835,28.549512 20.3444983,28.6896082 C20.5760404,29.4395464 20.9734141,29.6236151 21.289899,29.6236151 C22.1841077,29.6236151 22.548202,28.5326735 22.548202,26.787244 C22.548202,25.1984605 22.164404,24.1029003 21.2794343,24.1029003 C20.8382222,24.1029003 20.466963,24.5629278 20.3410101,25.0550928 C20.2936835,25.2084674 20.2529562,25.4518076 20.2529562,25.6181718 L20.2529562,28.1187354 L20.2530505,28.1187354 Z M18.7731987,19.7141168 L20.2623838,19.7141168 L20.2623838,23.7618969 L20.2905724,23.7618969 C20.6390168,23.1648522 21.0645791,22.8452096 21.7320539,22.8452096 C23.0602155,22.8452096 24.0310707,24.4791203 24.0310707,26.6435876 C24.0310707,29.3817182 23.0380606,30.8458969 21.7514747,30.8458969 C21.1376431,30.8458969 20.4585724,30.5474227 20.08967,29.7900756 L20.0532795,29.7900756 L19.9527811,30.7209072 L18.7130505,30.7209072 C18.7367138,30.0751753 18.7731987,29.1941856 18.7731987,28.4965911 L18.7731987,19.7141168 Z" id="Shape" fill="#1A171B"></path>
            </g>
        </g>
    </g>
</svg>