<?xml version="1.0" encoding="UTF-8"?>
<svg width="18px" height="18px" viewBox="0 0 18 18" version="1.1" xmlns="http://www.w3.org/2000/svg" xmlns:xlink="http://www.w3.org/1999/xlink">
    <!-- Generator: Sketch 60.1 (88133) - https://sketch.com -->
    <title>ic_ record</title>
    <desc>Created with Sketch.</desc>
    <g id="Symbols" stroke="none" stroke-width="1" fill="none" fill-rule="evenodd">
        <g id="ic_-record" fill-rule="nonzero">
            <g>
                <rect id="矩形" fill="#000000" opacity="0" x="0" y="0" width="18" height="18"></rect>
                <path d="M2.260926,13.520232 L4.501818,13.520232 L4.501818,15.734106 L2.260926,15.734106 L2.260926,13.520232 L2.260926,13.520232 Z M6.121746,11.651742 L8.362638,11.651742 L8.362638,15.734124 L6.121746,15.734124 L6.121746,11.651742 Z M9.604566,9.506736 L11.845458,9.506736 L11.845458,15.761124 L9.604566,15.761124 L9.604566,9.506736 Z M13.478886,7.294482 L15.719778,7.294482 L15.719778,15.761106 L13.478886,15.761106 L13.478886,7.294482 Z M2.66634,11.651742 L1.897326,10.893456 L8.226072,4.475124 L8.82279,7.938756 L14.270382,2.937222 L15.000786,3.732786 L8.094636,10.073448 L7.518744,6.730668 L2.66634,11.651742 Z M12.343104,3.335004 L15.729606,2.214558 L14.635584,5.639742 L14.036346,3.61854 L12.343104,3.335004 Z" id="形状" fill="#FFFFFF"></path>
            </g>
        </g>
    </g>
</svg>