<?xml version="1.0" encoding="UTF-8"?>
<svg width="40px" height="40px" viewBox="0 0 40 40" version="1.1" xmlns="http://www.w3.org/2000/svg" xmlns:xlink="http://www.w3.org/1999/xlink">
    <!-- Generator: Sketch 52.5 (67469) - http://www.bohemiancoding.com/sketch -->
    <title>guanzhu</title>
    <desc>Created with Sketch.</desc>
    <defs>
        <linearGradient x1="108.368056%" y1="75.1302083%" x2="2.22044605e-14%" y2="75.1302063%" id="linearGradient-1">
            <stop stop-color="#F760D5" offset="0%"></stop>
            <stop stop-color="#FF6B6B" offset="100%"></stop>
        </linearGradient>
    </defs>
    <g id="5.18" stroke="none" stroke-width="1" fill="none" fill-rule="evenodd">
        <g id="消息" transform="translate(-852.000000, -230.000000)">
            <g id="guanzhu" transform="translate(852.000000, 230.000000)">
                <g>
                    <rect id="矩形" fill="#000000" opacity="0" x="0" y="0" width="40" height="40"></rect>
                    <path d="M19.9490234,2.50210937 C10.2951562,2.50210937 2.46914063,10.328125 2.46914063,19.9819922 C2.46914063,29.6358594 10.2951172,37.461875 19.9490234,37.461875 C29.6029297,37.461875 37.4289063,29.6358594 37.4289063,19.9819922 C37.4289063,10.328125 29.6029297,2.50210937 19.9490234,2.50210937 Z" id="路径" fill="url(#linearGradient-1)" fill-rule="nonzero"></path>
                    <path d="M30.9708354,23.4890849 C30.9708354,23.4890849 28.2068355,23.0965268 27.8268431,23.0416951 C27.8000655,23.0375289 27.7824938,23.0350091 27.7816203,23.0350091 C27.5782185,22.9894167 27.4103969,22.8613079 27.3103759,22.6897233 C27.3070161,22.6817942 27.2233237,22.5177356 27.1010945,22.2758305 C26.7148192,21.5090925 25.9254698,19.9421192 25.9254698,19.9421192 C25.8279686,19.7278317 25.6094813,19.5780186 25.3558507,19.5780186 C25.0997338,19.5780186 24.8808097,19.7278317 24.7849885,19.9421192 C24.7849885,19.9421192 24.6749217,20.1584898 24.520472,20.4652724 C24.1258309,21.245416 23.4277334,22.6261224 23.42518,22.6315989 C23.331005,22.8345639 23.1443686,22.9869304 22.9158355,23.0342027 C22.9070329,23.0358826 19.7199681,23.4866323 19.7199681,23.4866323 C19.445809,23.5515098 19.2424409,23.7909286 19.2424409,24.0788627 C19.2424409,24.2433245 19.3089647,24.3923313 19.4182252,24.5019949 C19.4182252,24.5019949 21.6761732,26.6548822 21.6841359,26.6624417 C21.8100945,26.790517 21.888344,26.9633447 21.888344,27.154584 C21.888344,27.196447 21.8820612,27.2378733 21.8753752,27.2793331 C21.8736954,27.2851791 21.6301105,28.6743186 21.4744177,29.555256 C21.4032573,29.9629331 21.3505086,30.2617194 21.3505086,30.2617194 C21.3505086,30.2617194 21.3375398,30.3454454 21.3375398,30.3864685 C21.3375398,30.7237915 21.6167049,30.9966738 21.9615539,30.9966738 C22.0452463,30.9966738 22.1239327,30.9799421 22.1967729,30.9506111 C22.1967729,30.9506111 24.3015481,29.8658351 24.9125934,29.555256 C25.0109345,29.5050607 25.073729,29.4732435 25.080415,29.4707236 C25.1641074,29.4376633 25.2553593,29.4184116 25.3512142,29.4184116 C25.4453891,29.4184116 25.5332813,29.4372601 25.6152938,29.4682038 C25.6228198,29.47069 25.6872941,29.5033472 25.7877183,29.5552224 C26.4038033,29.8682878 28.4860006,30.9468481 28.5022956,30.9526941 C28.5755727,30.9824283 28.6563085,31 28.7400345,31 C29.0849171,31 29.3652917,30.7271177 29.3652917,30.3897946 C29.3652917,30.3789089 29.3042107,30.0214607 29.2230045,29.5552224 C29.0614321,28.6281886 28.822047,27.2587711 28.8195272,27.2361933 C28.8170409,27.2106589 28.8120012,27.1855277 28.8120012,27.1596237 C28.8120012,26.9716769 28.8881677,26.8013355 29.0108001,26.6741338 C29.015403,26.6699676 29.2652371,26.4313552 29.595471,26.1170803 C30.2659511,25.4784175 31.2733174,24.5195665 31.2733174,24.5195665 L31.2812465,24.512007 C31.3913133,24.4015034 31.4612305,24.2516903 31.4612305,24.0846751 C31.4613313,23.7925413 31.2520835,23.5489564 30.9708354,23.4890849 Z M18.6765847,25.2117845 C18.371482,24.907925 18.2040636,24.5048844 18.2040636,24.0783924 C18.2040636,23.3259334 18.7272168,22.6775945 19.4763832,22.500567 C19.5073604,22.4930411 19.5391776,22.487195 19.5709613,22.4825585 C20.3854084,22.3674521 21.4672949,22.213876 22.1390181,22.1188947 L23.2581983,19.9136618 C23.3866767,19.846298 23.5030263,19.7600857 23.6264987,19.6851624 C24.6133703,19.0820461 25.440383,18.2479443 26.0179648,17.2417874 C26.5938667,16.2389904 26.9332729,15.0838604 26.9332729,13.8462812 C26.9332729,10.071152 23.8675637,7 20.1003973,7 C16.3323909,7 13.2671185,10.071152 13.2671185,13.8462812 C13.2671185,15.0838604 13.6069614,16.2389904 14.1828297,17.2417874 C14.8332182,18.375146 15.7891461,19.3101424 16.9484759,19.9170216 C16.8831951,19.9303936 16.8157977,19.9337533 16.7517601,19.9505187 C16.3139792,20.0610222 15.9029759,20.2346899 15.5091411,20.4485742 C15.1186661,20.6607451 14.7654176,20.9219353 14.4272546,21.2027467 C13.9091411,21.5563983 13.4127654,21.9468733 12.9598991,22.4009828 C11.2288672,24.1341313 10.2093384,26.0086935 10.0327142,28.4286171 C10.0285145,28.4888582 9.75106286,29.2832473 10.8898643,29.2857672 L20.3184142,29.2857672 C20.5720448,27.8451893 20.7804863,27.5120323 20.8252387,27.2608879 C20.3427054,26.800966 18.6937197,25.2285499 18.6937197,25.2285499 C18.6878736,25.2227039 18.681994,25.2168242 18.676148,25.2118181 L18.6765847,25.2118181 L18.6765847,25.2117845 Z" id="形状" fill="#FFFFFF" fill-rule="nonzero"></path>
                </g>
            </g>
        </g>
    </g>
</svg>