<?xml version="1.0" encoding="UTF-8"?>
<svg width="16px" height="16px" viewBox="0 0 16 16" version="1.1" xmlns="http://www.w3.org/2000/svg" xmlns:xlink="http://www.w3.org/1999/xlink">
    <!-- Generator: Sketch 52.5 (67469) - http://www.bohemiancoding.com/sketch -->
    <title>icon_sixin</title>
    <desc>Created with Sketch.</desc>
    <g id="Symbols" stroke="none" stroke-width="1" fill="none" fill-rule="evenodd">
        <g id="icon_sixin">
            <g>
                <path d="M14.5984621,0.723036194 L1.48873151,0.723036194 C0.717974928,0.723036194 0,1.46993257 0,2.24068915 L0,11.8545398 C0,12.6260194 0.717974928,13.3761695 1.48873151,13.3761695 L6.25353998,13.3761695 L8.04305454,15.164961 L9.8325691,13.3761695 L14.5984621,13.3761695 C15.3699417,13.3761695 15.9067961,12.6260194 15.9067961,11.8549013 L15.9067961,10.2888049 L15.9501783,10.2345772 L15.9971756,2.18103866 C15.9971756,1.40992056 15.3699417,0.723036194 14.5984621,0.723036194 Z M4.79011473,8.01341007 C4.456471,8.0134531 4.14815306,7.835481 3.98131877,7.54654422 C3.81448448,7.25760744 3.81448448,6.90161022 3.98131877,6.61267344 C4.14815306,6.32373666 4.456471,6.14576456 4.79011473,6.1458076 C5.30579188,6.14587411 5.72379554,6.56393168 5.72379554,7.07960883 C5.72379554,7.59528598 5.30579188,8.01334356 4.79011473,8.01341007 Z M8.04377758,8.01341007 C7.71013385,8.0134531 7.40181591,7.835481 7.23498162,7.54654422 C7.06814733,7.25760744 7.06814733,6.90161022 7.23498162,6.61267344 C7.40181591,6.32373666 7.71013385,6.14576456 8.04377758,6.1458076 C8.55945473,6.14587411 8.97745839,6.56393168 8.97745839,7.07960883 C8.97745839,7.59528598 8.55945473,8.01334356 8.04377758,8.01341007 Z M11.2974404,8.01341007 C10.9637967,8.0134531 10.6554787,7.835481 10.4886445,7.54654422 C10.3218102,7.25760744 10.3218102,6.90161022 10.4886445,6.61267344 C10.6554787,6.32373666 10.9637967,6.14576456 11.2974404,6.1458076 C11.8131176,6.14587411 12.2311212,6.56393168 12.2311212,7.07960883 C12.2311212,7.59528598 11.8131176,8.01334356 11.2974404,8.01341007 Z" id="形状" fill="#7ED321" fill-rule="nonzero"></path>
                <rect id="矩形" fill="#000000" opacity="0" x="0" y="0" width="15.9067961" height="15.9067961"></rect>
            </g>
        </g>
    </g>
</svg>