<?xml version="1.0" encoding="UTF-8"?>
<svg width="40px" height="40px" viewBox="0 0 40 40" version="1.1" xmlns="http://www.w3.org/2000/svg" xmlns:xlink="http://www.w3.org/1999/xlink">
    <!-- Generator: Sketch 52.5 (67469) - http://www.bohemiancoding.com/sketch -->
    <title>xitongxiaoxi</title>
    <desc>Created with Sketch.</desc>
    <defs>
        <linearGradient x1="50%" y1="0%" x2="50%" y2="100%" id="linearGradient-1">
            <stop stop-color="#59C1FC" offset="0%"></stop>
            <stop stop-color="#2D8EF8" offset="100%"></stop>
        </linearGradient>
    </defs>
    <g id="Symbols" stroke="none" stroke-width="1" fill="none" fill-rule="evenodd">
        <g id="xitongxiaoxi">
            <g id="gonggao">
                <g>
                    <rect id="矩形" fill="#000000" opacity="0" x="0" y="0" width="40" height="40"></rect>
                    <path d="M19.9490234,2.50210937 C10.2951562,2.50210937 2.46914063,10.328125 2.46914063,19.9819922 C2.46914063,29.6358594 10.2951172,37.461875 19.9490234,37.461875 C29.6029297,37.461875 37.4289063,29.6358594 37.4289063,19.9819922 C37.4289063,10.328125 29.6029297,2.50210937 19.9490234,2.50210937 Z M12.4727344,21.3226953 L10.1134375,21.3226953 L10.1134375,15.9873828 L12.4727344,15.9873828 L12.4727344,21.3226953 Z M20.8004297,29.3214453 C20.4674219,30.2340234 18.2601563,30.1353125 18.2601563,30.1353125 C15.7200391,26.8552344 15.3746875,23.7231641 15.3746875,23.7231641 L17.7792578,23.7231641 C18.1063281,25.8933984 20.106875,27.5832812 20.3318359,27.9403906 C21.0346484,28.7171875 20.8004297,29.3214453 20.8004297,29.3214453 Z M26.4007031,26.2160156 C26.4007031,26.2160156 23.5769922,22.5538281 13.8482422,22.1097656 L13.8457422,15.27625 C13.8457422,15.27625 22.0582813,14.9761719 26.3660937,9.84648437 L26.3660937,9.84644531 C26.3660937,9.84644531 30.0506641,8.96546875 29.7694922,18.6262891 C29.7693359,18.6263281 30.1615234,25.2788672 26.4007812,26.2160156 L26.4007031,26.2160156 Z" id="形状" fill="url(#linearGradient-1)" fill-rule="nonzero"></path>
                </g>
            </g>
        </g>
    </g>
</svg>