<svg xmlns="http://www.w3.org/2000/svg" width="335" height="194" viewBox="0 0 335 194">
    <g fill="none" fill-rule="evenodd">
        <path stroke="#ADB5BD" stroke-linecap="round" stroke-linejoin="round" stroke-width="4" d="M93.417 74.583l38.752-38.752M270.614 74.352l-38.983-38.984 38.983 38.984z"/>
        <g stroke="#F760D5" stroke-width="2">
            <path d="M311.78 125.295h-18.89v2.36a4.002 4.002 0 0 0 2.843 3.831l.514.155.155.514a4.002 4.002 0 0 0 3.83 2.845h4.206a4.002 4.002 0 0 0 3.831-2.845l.155-.514.514-.155a4.002 4.002 0 0 0 2.843-3.83v-2.36z"/>
            <path stroke-linecap="round" stroke-linejoin="round" d="M292.726 120.95v-4.62c-4.539-3.083-7.52-8.288-7.52-14.19 0-9.466 7.669-17.14 17.13-17.14 9.46 0 17.13 7.674 17.13 17.14 0 5.902-2.982 11.107-7.52 14.19v4.62"/>
            <path stroke-linecap="round" stroke-linejoin="round" d="M302.753 95.033l-3.342 8.36h6.685l-3.343 8.361M281.027 92.525l-5.849-4.18M322.808 92.525l5.85-4.18M277.685 102.557H271M325.315 102.557H332M281.863 111.754l-6.685 5.016M322.808 111.754l6.685 5.016"/>
        </g>
        <g stroke="#C560EF" stroke-width="2" transform="translate(17 75)">
            <circle cx="29.664" cy="30.5" r="7.103" stroke-linecap="round" stroke-linejoin="round"/>
            <rect width="3.014" height="13.877" x="4.461" y="23.053" rx="1.507" transform="rotate(-21 5.968 29.991)"/>
            <path d="M35.523 25.678L30.9 13.635 16.834 20.1a1 1 0 0 0-.515 1.267l3.168 8.253a1 1 0 0 0 1.271.583l.63-.226.047-.016 14.088-4.283zM31.39 11.238a1 1 0 0 0-.513 1.265l5.473 14.26a1 1 0 0 0 1.228.597l20.987-6.447a1 1 0 0 0 .64-1.315l-6.55-17.064a1 1 0 0 0-1.355-.548l-19.91 9.252z"/>
            <path stroke-linecap="round" stroke-linejoin="round" d="M18.384 29.247l-9.192 3.342-2.507-6.685 9.192-3.342M27.158 37.185L16.295 60.582M32.171 37.185l10.863 23.397"/>
        </g>
        <g stroke="#8A54BE" stroke-linecap="round" stroke-linejoin="round" stroke-width="2">
            <path d="M170.623 1c0 5.566 2.213 10.018 6.641 13.358 6.642 5.009 12.453 6.679 12.453 15.862 0 6.123-4.428 11.41-13.283 15.863-3.874 2.226-5.811 6.122-5.811 11.688M190.931 1c-1.008 5.625-3.35 9.464-5.365 11.517"/>
            <path d="M176.314 19.367c-3.377 2.712-5.691 5.653-5.691 10.922 0 3.367 1.62 6.632 4.86 9.795m8.423 6.068c3.874 2.782 5.811 6.678 5.811 11.688M188.472 52.344h-11.653M188.472 7.261h-11.653M171.868 24.794h10.792M171.868 33.977h10.824"/>
        </g>
        <path fill="#343A40" d="M160.953 85.922V70.494c0-.14.093-.234.232-.234h5.323c2.673 0 4.44 1.146 5.16 3.39.28.865.42 1.73.42 4.558 0 2.829-.14 3.694-.42 4.558-.72 2.245-2.487 3.39-5.16 3.39h-5.323c-.14 0-.232-.094-.232-.234zm2.068-1.847c0 .094.047.14.14.14h2.906c1.906 0 3.091-.63 3.603-2.173.209-.585.325-1.356.325-3.834 0-2.478-.116-3.25-.325-3.834-.512-1.542-1.697-2.174-3.603-2.174h-2.906c-.093 0-.14.047-.14.14v11.735zm12.413 1.847V70.494c0-.14.093-.234.233-.234h1.488c.186 0 .302.047.395.234l7.16 11.922h.092V70.494c0-.14.093-.234.233-.234h1.464c.14 0 .233.094.233.234v15.428c0 .14-.093.234-.233.234h-1.488c-.162 0-.302-.047-.395-.234l-7.182-11.875h-.07v11.875c0 .14-.093.234-.233.234h-1.464c-.14 0-.233-.094-.233-.234zm13.808 0l5.486-15.428c.046-.14.116-.234.279-.234h1.51c.164 0 .257.094.303.234l5.416 15.428c.047.14-.023.234-.162.234h-1.628c-.162 0-.255-.07-.302-.234l-1.209-3.46h-6.392l-1.209 3.46c-.07.164-.163.234-.302.234h-1.627c-.14 0-.21-.094-.163-.234zm3.975-5.376h5.044l-2.487-7.224h-.046l-2.51 7.224zM268.98 159.208V143.86c0-.14.093-.232.235-.232h1.625c.142 0 .236.093.236.232v15.348c0 .14-.094.233-.236.233h-1.625c-.142 0-.236-.093-.236-.233zm14.843.233h-1.508c-.142 0-.236-.093-.236-.233v-6.511c0-1.79-.825-2.837-2.521-2.837-1.531 0-2.592 1.07-2.592 2.72v6.628c0 .14-.094.233-.235.233h-1.508c-.142 0-.236-.093-.236-.233v-10.674c0-.14.094-.232.236-.232h1.508c.141 0 .235.093.235.232v1.024h.024c.542-.86 1.626-1.512 3.157-1.512 2.45 0 3.911 1.651 3.911 4.186v6.976c0 .14-.094.233-.235.233zm7.869.255c-2.191 0-3.746-.883-4.665-1.674a.223.223 0 0 1 0-.325l.966-1.024a.23.23 0 0 1 .33 0 5.525 5.525 0 0 0 3.487 1.28c1.649 0 2.474-.698 2.474-1.698 0-.884-.424-1.372-2.192-1.558l-1.201-.116c-2.215-.233-3.37-1.326-3.37-3.14 0-2.116 1.532-3.395 4.194-3.395 1.65 0 3.063.535 4.006 1.233.118.07.118.209.047.325l-.801 1c-.094.116-.212.116-.33.047-.73-.466-1.885-.907-3.04-.907-1.413 0-2.143.628-2.143 1.534 0 .884.542 1.35 2.214 1.512l1.178.116c2.286.21 3.393 1.349 3.393 3.14 0 2.185-1.602 3.65-4.547 3.65zm9.448-13.906h-1.602c-.142 0-.236-.093-.236-.232v-1.698c0-.14.094-.232.236-.232h1.602c.141 0 .235.093.235.232v1.698c0 .14-.094.232-.235.232zm-.047 13.65h-1.508c-.142 0-.236-.092-.236-.232v-10.674c0-.14.094-.232.236-.232h1.508c.141 0 .235.093.235.232v10.674c0 .14-.094.233-.235.233zm7.775 4.442c-1.579 0-3.157-.674-3.911-1.65-.095-.117-.095-.21.023-.326l.966-.954c.118-.116.236-.116.354 0 .777.698 1.578 1.116 2.662 1.116 1.861 0 2.851-.953 2.851-3v-1.302h-.024c-.518.93-1.484 1.535-3.133 1.535-1.909 0-3.228-.953-3.794-2.697-.282-.837-.376-1.651-.376-2.93 0-1.28.094-2.093.376-2.93.566-1.744 1.885-2.698 3.794-2.698 1.65 0 2.615.605 3.133 1.535h.024v-1.047c0-.14.094-.232.236-.232h1.507c.142 0 .236.093.236.232v10.418c0 3.163-1.743 4.93-4.924 4.93zm.283-6.371c1.178 0 2.002-.535 2.403-1.675.188-.558.259-1.209.259-2.162 0-.954-.07-1.582-.26-2.163-.4-1.14-1.224-1.651-2.402-1.651-1.226 0-2.003.581-2.38 1.651-.189.581-.283 1.256-.283 2.163 0 .907.094 1.604.283 2.162.377 1.093 1.154 1.675 2.38 1.675zm17.34 1.93h-1.507c-.142 0-.236-.093-.236-.233v-6.511c0-1.79-.825-2.837-2.521-2.837-1.532 0-2.592 1.07-2.592 2.72v6.628c0 .14-.094.233-.235.233h-1.508c-.142 0-.236-.093-.236-.233V143.86c0-.14.094-.232.236-.232h1.508c.141 0 .235.093.235.232v5.698h.024c.542-.86 1.625-1.512 3.157-1.512 2.45 0 3.911 1.651 3.911 4.186v6.976c0 .14-.094.233-.236.233zm8.129.116h-.872c-2.19 0-3.04-.977-3.04-3.163v-6.371c0-.093-.046-.14-.14-.14h-.943c-.141 0-.236-.093-.236-.232v-1.117c0-.14.095-.232.236-.232h.943c.094 0 .14-.047.14-.14v-3.139c0-.14.095-.232.236-.232h1.508c.142 0 .236.093.236.232v3.14c0 .092.047.139.141.139h1.791c.141 0 .236.093.236.232v1.117c0 .14-.095.232-.236.232h-1.79c-.095 0-.142.047-.142.14v6.302c0 1.116.424 1.418 1.437 1.418h.495c.141 0 .236.093.236.233v1.348c0 .14-.095.233-.236.233z"/>
        <text fill="#343A40" font-family="PingFangSC-Regular, PingFang SC" font-size="24" transform="translate(0 1)">
            <tspan x="265" y="190">洞察力</tspan>
        </text>
        <path fill="#343A40" d="M.967 161.208V145.86c0-.14.093-.232.234-.232h9.576c.14 0 .234.093.234.232v1.465c0 .14-.093.233-.234.233H3.191c-.094 0-.14.046-.14.14v4.813c0 .093.046.14.14.14H9.63c.14 0 .234.093.234.232v1.465c0 .14-.094.233-.234.233H3.19c-.094 0-.14.046-.14.14v6.487c0 .14-.094.233-.235.233H1.201c-.14 0-.234-.093-.234-.233zm17.092.488c-2.178 0-3.817-1.116-4.425-3-.258-.767-.375-1.534-.375-2.836 0-1.28.117-2.047.375-2.814.608-1.907 2.247-3 4.425-3 2.177 0 3.816 1.093 4.425 3 .258.767.375 1.535.375 2.814 0 1.302-.117 2.07-.375 2.837-.609 1.883-2.248 3-4.425 3zm0-1.813c1.24 0 2.154-.628 2.529-1.744.187-.605.257-1.21.257-2.28 0-1.069-.07-1.65-.257-2.255-.375-1.116-1.288-1.744-2.53-1.744-1.24 0-2.153.628-2.528 1.744-.187.605-.257 1.186-.257 2.256 0 1.07.07 1.674.257 2.279.375 1.116 1.288 1.744 2.529 1.744zm9.693 1.558h-1.498c-.14 0-.234-.093-.234-.233v-10.674c0-.14.093-.232.234-.232h1.498c.14 0 .234.093.234.232v1.14h.024c.491-.954 1.475-1.628 2.973-1.628.89 0 1.733.326 2.295.837.117.117.14.21.047.326l-.867 1.14c-.093.116-.21.139-.327.046-.516-.326-1.078-.535-1.733-.535-1.71 0-2.412 1.325-2.412 3.256v6.092c0 .14-.093.233-.234.233zm12.058.255c-2.27 0-3.886-1.092-4.495-3.023-.234-.72-.375-1.534-.375-2.813 0-1.28.117-2.14.351-2.814.633-1.93 2.272-3 4.402-3 2.154 0 3.77 1.093 4.402 3 .234.72.351 1.488.351 3.186 0 .14-.093.232-.257.232h-7.095c-.093 0-.14.047-.14.14 0 .604.07.976.187 1.349.445 1.279 1.452 1.93 2.833 1.93 1.335 0 2.271-.535 2.88-1.233.117-.116.234-.14.351-.046l.96.86c.117.093.117.21.024.326-.89 1.116-2.412 1.906-4.379 1.906zm-2.716-6.79h5.198c.094 0 .14-.046.14-.14 0-.51-.046-.906-.163-1.255-.375-1.116-1.311-1.744-2.576-1.744-1.264 0-2.2.628-2.575 1.744-.117.349-.164.744-.164 1.256 0 .093.047.14.14.14zm14.376 6.79c-2.177 0-3.722-.883-4.636-1.674a.224.224 0 0 1 0-.325l.96-1.024a.227.227 0 0 1 .328 0 5.47 5.47 0 0 0 3.465 1.28c1.64 0 2.459-.698 2.459-1.698 0-.884-.422-1.372-2.178-1.558l-1.194-.116c-2.2-.233-3.348-1.326-3.348-3.14 0-2.116 1.522-3.395 4.168-3.395 1.639 0 3.044.535 3.98 1.233.117.07.117.209.047.325l-.796 1c-.094.116-.21.116-.328.047-.726-.466-1.873-.907-3.02-.907-1.405 0-2.131.628-2.131 1.534 0 .884.539 1.35 2.2 1.512l1.172.116c2.27.21 3.371 1.349 3.371 3.14 0 2.185-1.592 3.65-4.519 3.65zm9.39-13.906h-1.593c-.14 0-.234-.093-.234-.232v-1.698c0-.14.094-.232.234-.232h1.592c.14 0 .234.093.234.232v1.698c0 .14-.093.232-.234.232zm-.048 13.65h-1.498c-.14 0-.234-.092-.234-.232v-10.674c0-.14.093-.232.234-.232h1.498c.14 0 .235.093.235.232v10.674c0 .14-.094.233-.235.233zm7.727 4.442c-1.569 0-3.137-.674-3.887-1.65-.093-.117-.093-.21.024-.326l.96-.954c.117-.116.234-.116.35 0 .774.698 1.57 1.116 2.647 1.116 1.85 0 2.833-.953 2.833-3v-1.302h-.024c-.515.93-1.475 1.535-3.114 1.535-1.896 0-3.207-.953-3.77-2.697-.28-.837-.374-1.651-.374-2.93 0-1.28.094-2.093.375-2.93.562-1.744 1.873-2.698 3.77-2.698 1.638 0 2.598.605 3.113 1.535h.024v-1.047c0-.14.093-.232.234-.232h1.498c.14 0 .234.093.234.232v10.418c0 3.163-1.732 4.93-4.893 4.93zm.28-6.371c1.172 0 1.991-.535 2.39-1.675.186-.558.257-1.209.257-2.162 0-.954-.07-1.582-.258-2.163-.398-1.14-1.217-1.651-2.388-1.651-1.218 0-1.99.581-2.365 1.651-.187.581-.28 1.256-.28 2.163 0 .907.093 1.604.28 2.162.375 1.093 1.147 1.675 2.365 1.675zm17.233 1.93h-1.498c-.14 0-.234-.093-.234-.233v-6.511c0-1.79-.82-2.837-2.505-2.837-1.522 0-2.576 1.07-2.576 2.72v6.628c0 .14-.094.233-.234.233h-1.499c-.14 0-.234-.093-.234-.233V145.86c0-.14.094-.232.234-.232h1.499c.14 0 .234.093.234.232v5.698h.023c.539-.86 1.616-1.512 3.138-1.512 2.435 0 3.887 1.651 3.887 4.186v6.976c0 .14-.094.233-.235.233zm8.078.116h-.866c-2.178 0-3.02-.977-3.02-3.163v-6.371c0-.093-.047-.14-.14-.14h-.937c-.141 0-.235-.093-.235-.232v-1.117c0-.14.094-.232.235-.232h.936c.094 0 .14-.047.14-.14v-3.139c0-.14.094-.232.235-.232h1.498c.14 0 .234.093.234.232v3.14c0 .092.047.139.14.139h1.78c.14 0 .234.093.234.232v1.117c0 .14-.093.232-.234.232h-1.78c-.093 0-.14.047-.14.14v6.302c0 1.116.422 1.418 1.429 1.418h.491c.14 0 .234.093.234.233v1.348c0 .14-.093.233-.234.233z"/>
        <text fill="#343A40" font-family="PingFangSC-Regular, PingFang SC" font-size="24" transform="translate(0 1)">
            <tspan x="22" y="190">远见</tspan>
        </text>
        <path stroke="#ADB5BD" stroke-linecap="round" stroke-linejoin="round" stroke-width="4" d="M113.419 158h143.25"/>
    </g>
</svg>
