<svg xmlns="http://www.w3.org/2000/svg" width="80" height="80" viewBox="0 0 80 80">
    <defs>
        <linearGradient id="a" x1="0%" x2="101.735%" y1="50%" y2="59.73%">
            <stop offset="0%" stop-color="#8A54BE"/>
            <stop offset="100%" stop-color="#C560EF"/>
        </linearGradient>
    </defs>
    <path fill="url(#a)" fill-rule="nonzero" d="M15.373 6.818a1.56 1.56 0 0 1-.176 2.198l-.056.048a1.556 1.556 0 0 1-2.2-.16 1.56 1.56 0 0 1 .16-2.2l.074-.063a1.56 1.56 0 0 1 2.198.177zM27.45 68.313c.861 0 1.56.699 1.56 1.56v8.422a1.56 1.56 0 0 1-3.12 0v-6.87a17.9 17.9 0 0 1-12.118-5.193l-.076-.076a18.218 18.218 0 0 1-1.954-2.312A17.898 17.898 0 0 1 8.42 53.417v-.7H1.56A1.56 1.56 0 0 1 .03 50.846l3.4-16.69v-6.394A27.569 27.569 0 0 1 8.63 11.584a1.56 1.56 0 0 1 2.533 1.82 24.467 24.467 0 0 0-4.612 14.358v6.55c0 .105-.01.21-.032.312L3.47 49.597h6.51c.862 0 1.56.699 1.56 1.56v2.26a14.795 14.795 0 0 0 3.225 9.258c.353.444.736.873 1.138 1.275l.066.066a14.803 14.803 0 0 0 10.467 4.297h1.015zm20.398-38.795c.29.29.455.691.455 1.103 0 .41-.165.812-.455 1.102-.292.29-.693.457-1.103.457a1.564 1.564 0 0 1-1.56-1.56 1.56 1.56 0 0 1 2.663-1.102zm7.95 32.702c.29.29.458.692.458 1.102 0 .41-.167.813-.458 1.103a1.57 1.57 0 0 1-1.102.457 1.57 1.57 0 0 1-1.103-.457 1.57 1.57 0 0 1-.457-1.103c0-.41.167-.812.457-1.102a1.57 1.57 0 0 1 1.103-.457c.41 0 .812.167 1.102.457zm-1.102-29.78c.861 0 1.56.7 1.56 1.56v23.863a1.56 1.56 0 0 1-3.12 0V34.001c0-.862.699-1.56 1.56-1.56zm0 35.707a5.933 5.933 0 0 1 5.927 5.926A5.933 5.933 0 0 1 54.696 80a5.933 5.933 0 0 1-5.927-5.927 5.933 5.933 0 0 1 5.927-5.926zm0 8.734a2.81 2.81 0 0 0 2.807-2.808 2.81 2.81 0 0 0-2.807-2.807 2.81 2.81 0 0 0-2.807 2.807 2.81 2.81 0 0 0 2.807 2.808zm16.268-17.95a5.215 5.215 0 0 1 7.366 0 5.214 5.214 0 0 1 0 7.366 5.192 5.192 0 0 1-3.683 1.523 5.197 5.197 0 0 1-5.194-5.537l-7.974-4.03a1.56 1.56 0 0 1-.856-1.392V36.964a1.56 1.56 0 0 1 3.12 0v.572h7.083c3.26 0 5.91-2.651 5.91-5.91a5.917 5.917 0 0 0-5.91-5.91c-.75 0-1.484.14-2.18.417-.02.008-.042.013-.063.02l-.037.018c-.71.296-1.349.725-1.899 1.276a5.849 5.849 0 0 0-1.397 2.216 1.56 1.56 0 0 1-2.944-1.034 8.945 8.945 0 0 1 2.135-3.389 8.997 8.997 0 0 1 2.041-1.532c-.43-6.78-6.08-12.167-12.968-12.167-6.636 0-12.05 4.85-12.884 11.275a8.978 8.978 0 0 1 3.512 1.645 1.56 1.56 0 0 1-1.901 2.473 5.876 5.876 0 0 0-3.14-1.201l-.093-.012c-.037.001-.073.003-.11.001a5.917 5.917 0 0 0-6.164 5.904 5.917 5.917 0 0 0 5.91 5.91h8.568c.861 0 1.56.698 1.56 1.56V56.86a1.56 1.56 0 0 1-.856 1.392l-7.974 4.03a5.196 5.196 0 0 1-5.194 5.537 5.193 5.193 0 0 1-3.683-1.523 5.214 5.214 0 0 1 0-7.366 5.215 5.215 0 0 1 7.748.428l6.84-3.457V40.655h-7.008c-4.98 0-9.03-4.05-9.03-9.03 0-4.592 3.447-8.395 7.89-8.957a16.015 16.015 0 0 1 4.75-9.661 16.078 16.078 0 0 1 5.473-3.517c-4.536-4.12-10.344-6.37-16.535-6.37-3.875 0-7.584.873-11.023 2.596a1.56 1.56 0 0 1-1.397-2.79A27.479 27.479 0 0 1 31.193 0c7.62 0 14.725 3.025 20.009 8.517.02.02.036.041.054.062a16.327 16.327 0 0 1 2.258-.157c8.261 0 15.09 6.248 16.011 14.267a9.053 9.053 0 0 1 1.3-.093c4.98 0 9.03 4.05 9.03 9.03 0 4.978-4.05 9.03-9.03 9.03h-7.083v15.246l6.84 3.457c.118-.148.245-.291.382-.428zm-34.739 5.16a2.092 2.092 0 0 0 0-2.954 2.083 2.083 0 0 0-1.477-.611c-.535 0-1.07.204-1.477.61a2.09 2.09 0 0 0 0 2.955 2.09 2.09 0 0 0 2.954 0zm39.899 0a2.091 2.091 0 0 0 0-2.954 2.082 2.082 0 0 0-1.477-.611c-.535 0-1.07.204-1.477.61a2.09 2.09 0 0 0 0 2.955 2.09 2.09 0 0 0 2.954 0z"/>
</svg>
