<svg xmlns="http://www.w3.org/2000/svg" width="80" height="80" viewBox="0 0 80 80">
    <defs>
        <linearGradient id="a" x1="0%" x2="101.735%" y1="50%" y2="59.73%">
            <stop offset="0%" stop-color="#8A54BE"/>
            <stop offset="100%" stop-color="#C560EF"/>
        </linearGradient>
    </defs>
    <path fill="url(#a)" fill-rule="nonzero" d="M79.99 45.36a6.01 6.01 0 0 0-9.497-4.553 28.28 28.28 0 0 0-9.565-5.642V27.26l6.373-4.807c.391-.295.621-.757.621-1.247V14.99a5.226 5.226 0 0 0 3.635-4.971 5.223 5.223 0 0 0-5.217-5.217 5.223 5.223 0 0 0-5.218 5.217 5.226 5.226 0 0 0 3.675 4.984v5.425l-6.372 4.806a1.563 1.563 0 0 0-.621 1.247v7.794a28.537 28.537 0 0 0-4.723-.644V20.936a1.562 1.562 0 0 0-3.124 0v12.7a28.327 28.327 0 0 0-4.631.642v-7.796c0-.49-.23-.952-.622-1.247l-6.372-4.807v-5.423a5.227 5.227 0 0 0 3.675-4.985 5.223 5.223 0 0 0-5.217-5.217 5.223 5.223 0 0 0-5.217 5.217c0 2.325 1.529 4.3 3.634 4.971v6.216c0 .49.23.953.622 1.248L42.2 27.26v7.893l.001.015a28.324 28.324 0 0 0-11.243 7.265c-1.142.255-2.25.68-3.28 1.273l-11.39 6.558-2.38-2.378a4.828 4.828 0 0 0-3.435-1.423 4.828 4.828 0 0 0-3.436 1.423L1.423 53.5A4.827 4.827 0 0 0 0 56.937c0 1.298.505 2.518 1.423 3.436l18.202 18.202a4.828 4.828 0 0 0 3.436 1.423 4.828 4.828 0 0 0 3.436-1.423l5.615-5.614a4.865 4.865 0 0 0 0-6.872L18.576 52.553l10.662-6.138a8.61 8.61 0 0 1 6.792-.769l15.993 4.897a2.636 2.636 0 0 1 1.847 2.775 2.62 2.62 0 0 1-2.616 2.368H40.36a1.562 1.562 0 0 0 0 3.124l14.686.011c.395 0 .776-.15 1.065-.419l15.912-14.819a2.885 2.885 0 1 1 3.931 4.223L57.456 65.028a6.85 6.85 0 0 1-4.682 1.842h-8.399a1.562 1.562 0 0 0 0 3.125h8.4a9.967 9.967 0 0 0 6.81-2.68l18.5-17.222a5.992 5.992 0 0 0 1.905-4.733zM64.247 10.02c0-1.154.939-2.093 2.093-2.093 1.153 0 2.092.94 2.092 2.093a2.095 2.095 0 0 1-2.092 2.093 2.095 2.095 0 0 1-2.093-2.093zM36.79 12.113a2.095 2.095 0 0 1-2.093-2.093c0-1.154.94-2.093 2.093-2.093 1.154 0 2.093.94 2.093 2.093a2.095 2.095 0 0 1-2.093 2.093zm-6.888 56.185a1.736 1.736 0 0 1 0 2.453l-5.614 5.615a1.723 1.723 0 0 1-1.227.508c-.463 0-.898-.18-1.226-.508L3.633 58.164a1.723 1.723 0 0 1-.508-1.227c0-.463.18-.899.508-1.226l5.614-5.615a1.723 1.723 0 0 1 1.227-.508c.463 0 .899.18 1.226.508l18.202 18.202zm27.1-14.993a5.77 5.77 0 0 0-4.063-5.75L36.945 42.66a11.593 11.593 0 0 0-1.3-.315c4.484-3.65 10.023-5.628 15.92-5.628a25.149 25.149 0 0 1 16.593 6.199L57 53.305zM39.174 67.328c.29.29.458.693.458 1.104 0 .411-.167.814-.458 1.105-.29.29-.694.458-1.105.458-.412 0-.813-.168-1.106-.458a1.572 1.572 0 0 1-.456-1.105c0-.41.166-.814.456-1.104.292-.291.694-.458 1.106-.458.411 0 .814.167 1.105.458zm13.449-52.965c.29.29.458.694.458 1.105 0 .41-.167.814-.458 1.104-.29.291-.694.458-1.105.458-.412 0-.814-.167-1.106-.458a1.572 1.572 0 0 1-.456-1.104c0-.411.166-.814.456-1.105.292-.29.694-.458 1.106-.458.411 0 .814.168 1.105.458zM24.786 68.89c.29.29.457.694.457 1.105 0 .41-.167.813-.457 1.104-.29.29-.694.458-1.105.458-.41 0-.814-.167-1.104-.458a1.573 1.573 0 0 1-.458-1.104c0-.411.167-.814.458-1.105.29-.29.693-.458 1.104-.458.41 0 .814.167 1.105.458zM51.519 0a5.944 5.944 0 0 1 5.937 5.937 5.944 5.944 0 0 1-5.937 5.937 5.944 5.944 0 0 1-5.937-5.937A5.944 5.944 0 0 1 51.519 0zm0 8.75a2.816 2.816 0 0 0 2.812-2.813 2.816 2.816 0 0 0-2.812-2.812 2.815 2.815 0 0 0-2.812 2.812 2.816 2.816 0 0 0 2.812 2.812zm-26.06 8.34a1.563 1.563 0 0 1 0 3.124h-1.071a1.563 1.563 0 0 1 0-3.124h1.071zm-7.58 0a1.563 1.563 0 0 1 0 3.124h-1.072a1.563 1.563 0 0 1 0-3.124h1.072zm3.254 3.254c.863 0 1.563.7 1.563 1.563v1.071a1.562 1.562 0 0 1-3.125 0v-1.071c0-.863.7-1.563 1.562-1.563zm0-7.58c.863 0 1.563.699 1.563 1.562v1.071a1.562 1.562 0 0 1-3.125 0v-1.071c0-.863.7-1.563 1.562-1.563zm57.298 13.354a1.563 1.563 0 0 1 0 3.125H77.36a1.563 1.563 0 0 1 0-3.125h1.071zm-7.58 0a1.563 1.563 0 0 1 0 3.125h-1.072a1.563 1.563 0 0 1 0-3.125h1.072zm3.254 3.255c.863 0 1.563.7 1.563 1.562v1.072a1.562 1.562 0 0 1-3.125 0v-1.072c0-.863.7-1.562 1.562-1.562zm0-7.581c.863 0 1.563.7 1.563 1.562v1.072a1.562 1.562 0 0 1-3.125 0v-1.072c0-.862.7-1.562 1.562-1.562z"/>
</svg>
