<?xml version="1.0" encoding="UTF-8"?>
<svg width="80px" height="80px" viewBox="0 0 80 80" version="1.1" xmlns="http://www.w3.org/2000/svg" xmlns:xlink="http://www.w3.org/1999/xlink">
    <!-- Generator: Sketch 52.5 (67469) - http://www.bohemiancoding.com/sketch -->
    <title>animation</title>
    <desc>Created with Sketch.</desc>
    <defs>
        <linearGradient x1="62.7597237%" y1="100%" x2="62.7597237%" y2="19.9192482%" id="linearGradient-1">
            <stop stop-color="#2853FF" offset="0%"></stop>
            <stop stop-color="#933EFE" offset="100%"></stop>
        </linearGradient>
    </defs>
    <g id="Symbols" stroke="none" stroke-width="1" fill="none" fill-rule="evenodd">
        <g id="animation">
            <g>
                <rect id="矩形" fill="#000000" opacity="0" x="0" y="0" width="80" height="80"></rect>
                <g id="分组-5" transform="translate(5.000000, 10.000000)">
                    <path d="M35.4881954,59.1003649 L59.4780478,59.1003649 C59.4780478,59.1003649 62.0658744,58.5688114 62.0658744,52.2880862 C62.0658744,46.007361 67.6611752,17.9609157 34.7328298,17.9609157 C1.80448448,17.9609157 7.56764438,50.1338954 7.56764438,50.1338954 C7.56764438,50.1338954 6.05691317,59.6878715 10.8269071,59.4640595 C15.596901,59.2402474 35.4881954,59.1003649 35.4881954,59.1003649 Z" id="路径" fill="#FFFFFF"></path>
                    <path d="M63.6885116,42.3564272 L67.9968933,42.3564272 L67.9968933,50.4556252 L63.6885116,50.4556252 L63.6885116,42.3564272 Z M2.14020258,42.3564272 L6.44858421,42.3564272 L6.44858421,50.4556252 L2.14020258,50.4556252 L2.14020258,42.3564272 Z" id="形状" fill="url(#linearGradient-1)" fill-rule="nonzero"></path>
                    <path d="M18.6645627,33.2405896 L50.718732,33.1734555 C50.9948738,33.1728771 51.2191998,33.3962654 51.2197781,33.6724072 L51.2413556,43.9748922 C51.241934,44.251034 51.0185457,44.47536 50.7424039,44.4759383 L18.6882346,44.5430725 C18.4120929,44.5436508 18.1877669,44.3202626 18.1871885,44.0441208 L18.165611,33.7416357 C18.1650327,33.465494 18.388421,33.241168 18.6645627,33.2405896 Z" id="路径" fill="#FFFFFF"></path>
                    <path d="M67.1436098,40.4260485 L63.6045821,40.4260485 C63.4087466,31.3896376 59.5899537,25.0389712 53.3791698,21.1502371 L60.2334134,6.98013777 C61.4963757,6.88758766 62.5396803,5.95822138 62.7770233,4.71431317 C63.0143663,3.47040496 62.3865549,2.22218258 61.2463991,1.67110726 C60.1062432,1.12003194 58.7380951,1.40354056 57.9108105,2.3623103 C57.0835258,3.32108004 57.0034274,4.715996 57.715528,5.76315984 L50.9032493,19.8213531 C45.8686869,17.5964849 40.4030821,16.5167413 34.9006889,16.6600082 C29.3766939,16.5398557 23.8954467,17.6533087 18.8561638,19.919271 L11.9739438,5.93101889 C12.6796391,4.88031846 12.592006,3.48670305 11.76025,2.53268037 C10.9284941,1.57865768 9.55982738,1.30189974 8.4227491,1.85780466 C7.28567083,2.41370958 6.66345693,3.66378691 6.90547722,4.90612481 C7.14749751,6.14846271 8.19345841,7.07356231 9.45605839,7.16198505 L16.4501844,21.3320844 C10.2813652,25.2208185 6.51852544,31.6134497 6.35066645,40.621884 L2.83961519,40.621884 C1.29451552,40.621884 0.0419647623,41.8744347 0.0419647623,43.4195344 L0.0419647623,50.4136604 C0.0419647623,51.9587601 1.29451552,53.2113108 2.83961519,53.2113108 L6.32268992,53.2113108 L6.32268992,56.6524208 C6.32268992,57.7653953 6.76481734,58.8327853 7.55180918,59.6197772 C8.33880102,60.406769 9.40619102,60.8488964 10.5191656,60.8488964 L59.4780478,60.7509787 C61.7956972,60.7509786 63.6745233,58.8721525 63.6745233,56.554503 L63.6745233,53.1133931 L67.1855746,53.1133931 C68.7306743,53.1133931 69.983225,51.8608423 69.983225,50.3157426 L69.983225,43.3216166 C70.0101499,42.555477 69.7215059,41.8118527 69.1847431,41.2645132 C68.6479802,40.7171737 67.9101289,40.4140763 67.1436098,40.4260485 Z M5.59530085,50.3437192 L2.79765042,50.3437192 L2.79765042,43.3495931 L5.59530085,43.3495931 L5.59530085,50.3437192 Z M60.8488964,56.4705735 C60.8488964,57.2431233 60.2226211,57.8693987 59.4500712,57.8693987 L10.491189,57.9673165 C9.71863922,57.9673165 9.09236385,57.3410411 9.09236382,56.5684913 L9.09236382,41.1814141 C9.09236382,21.5978612 27.137209,19.4576586 34.9286654,19.4436703 C42.7201217,19.429682 60.8069317,21.4999434 60.8488964,41.069508 L60.8488964,56.4705735 Z M67.1156334,50.2178249 L64.3179829,50.2178249 L64.3179829,43.2236988 L67.1156334,43.2236988 L67.1156334,50.2178249 Z" id="形状" fill="#1C1B55" fill-rule="nonzero"></path>
                    <path d="M27.6128096,8.07122141 L28.9416935,6.91019654 L31.3196963,10.6170833 C31.6493138,11.1321003 32.2189626,11.4432973 32.8304275,11.4423902 L32.9982866,11.4423902 C33.6710697,11.3774895 34.2499683,10.9392578 34.4950296,10.3093417 L35.7259957,5.60928908 L36.9849384,10.0295767 L36.9849384,10.155471 C37.2285713,10.7602084 37.7794664,11.1864973 38.425992,11.2705746 C39.0725176,11.3546519 39.714119,11.0834411 40.1043187,10.5611303 L41.9088031,7.16198505 L42.6921453,7.93133889 C43.0272946,8.2628667 43.4796691,8.44884288 43.951088,8.44890427 L47.3782097,8.44890427 C48.1507595,8.44890427 48.7770349,7.82262889 48.7770349,7.05007906 C48.7770349,6.27752923 48.1507595,5.65125385 47.3782097,5.65125385 L44.398712,5.65125385 L42.9998868,4.25242863 C42.6259514,3.88795129 42.112463,3.70333003 41.5920504,3.74625065 C41.0716378,3.78917128 40.5953349,4.05542482 40.2861659,4.47624068 L39.0132349,6.85424348 L37.404586,1.1470367 C37.1347781,0.463568127 36.4747802,0.0143258808 35.739984,0.0139882343 C35.0051878,0.0143258564 34.3451899,0.463568107 34.075382,1.1470367 L32.4947095,7.18996158 L30.7321898,4.39231115 C30.4592299,3.96222113 30.0172026,3.66753628 29.5152119,3.58099256 C29.012917,3.51714693 28.5065918,3.66398121 28.1163866,3.98665183 L26.1999961,5.66524208 L22.6329919,5.66524208 C21.860442,5.66524208 21.2341666,6.29151746 21.2341666,7.06406729 C21.2341666,7.83661712 21.860442,8.4628925 22.6329919,8.4628925 L26.5636907,8.4628925 C26.945323,8.44318043 27.311628,8.30642657 27.6128096,8.07122141 Z M46.119267,31.6694027 L24.031817,31.6694027 C20.3574276,31.6204377 17.2351046,34.3449358 16.7859025,37.9920926 C16.5960515,39.9603528 17.2482333,41.9170002 18.5810245,43.3777395 C19.9138158,44.8384787 21.8026544,45.6667896 23.7800285,45.6576547 L45.8674785,45.6576547 C49.5418679,45.7066197 52.664191,42.9821215 53.1133931,39.3349648 C53.3032441,37.3667045 52.6510623,35.4100571 51.318271,33.9493179 C49.9854797,32.4885786 48.0966411,31.6602677 46.119267,31.6694027 Z M46.119267,42.8600043 L23.9059228,42.8600043 C21.8585027,42.9037835 20.0631925,41.5002837 19.6115294,39.5028238 C19.3599529,38.270387 19.6744768,36.9900925 20.4684848,36.0145196 C21.2624928,35.0389466 22.4522415,34.4709879 23.7100873,34.467053 L45.9234315,34.467053 C47.9708516,34.4232738 49.7661617,35.8267736 50.2178249,37.8242335 C50.4684835,39.0518987 50.1574446,40.3273475 49.3697647,41.3017969 C48.5820847,42.2762463 47.4001765,42.8477424 46.1472435,42.8600043 L46.119267,42.8600043 Z" id="形状" fill="#1C1B55" fill-rule="nonzero"></path>
                </g>
            </g>
        </g>
    </g>
</svg>