<?xml version="1.0" encoding="UTF-8"?>
<svg width="80px" height="80px" viewBox="0 0 80 80" version="1.1" xmlns="http://www.w3.org/2000/svg" xmlns:xlink="http://www.w3.org/1999/xlink">
    <!-- Generator: Sketch 52.5 (67469) - http://www.bohemiancoding.com/sketch -->
    <title>art</title>
    <desc>Created with Sketch.</desc>
    <defs>
        <linearGradient x1="79.6678821%" y1="73.5965799%" x2="12.4066226%" y2="11.9279524%" id="linearGradient-1">
            <stop stop-color="#2853FF" offset="0%"></stop>
            <stop stop-color="#933EFE" offset="100%"></stop>
        </linearGradient>
    </defs>
    <g id="Symbols" stroke="none" stroke-width="1" fill="none" fill-rule="evenodd">
        <g id="art">
            <g>
                <rect id="矩形" fill="#000000" opacity="0" x="0" y="0" width="80" height="80"></rect>
                <polygon id="路径" fill="#FFFFFF" points="16.5797102 16.115942 63.3043478 62.9565217 71.5362319 54.7246377 24.8115942 7.88405797"></polygon>
                <polygon id="路径" fill="#FFFFFF" points="37.0237681 36.626087 53.4202898 53.0202898 48.5008695 57.9397102 32.1043478 41.5443478"></polygon>
                <polygon id="路径-2" fill="url(#linearGradient-1)" points="13.0414288 4.55829327 16.1656776 15.8918645 24.4750977 7.41774339"></polygon>
                <path d="M63.3043478,64.115942 C62.9565217,64.115942 62.7246377,64 62.4927536,63.7681159 L14.9565217,16 C14.8405797,15.884058 14.7246377,15.6521739 14.6086956,15.4202898 L12.173913,4.86956523 C12.057971,4.52173914 12.173913,4.05797102 12.5217391,3.82608695 C12.7536232,3.59420289 13.2173913,3.47826086 13.5652174,3.47826086 L24.115942,5.91304352 C24.3478261,5.91304352 24.5797102,6.02898555 24.6956522,6.26086953 L35.4782609,17.0434783 L33.8550725,18.5507246 L23.4202898,8.11594203 L14.9565217,6.26086953 L16.8115942,14.7246377 L63.3043478,61.3333334 L69.9130435,54.7246377 L51.826087,36.6376812 L53.4492754,35.0144927 L72.3478261,53.9130435 C72.8115942,54.3768116 72.8115942,55.0724638 72.3478261,55.5362319 L64.115942,63.7681159 C63.884058,64 63.6521739,64.115942 63.3043478,64.115942 Z" id="路径" fill="#1C1B55"></path>
                <polygon id="路径" fill="#1C1B55" points="20.7466666 13.6417391 22.3884058 12.0034783 68.2469565 57.9663768 66.6052174 59.6034783"></polygon>
                <path d="M71.5362319,54.7246377 L63.3043478,62.9565217 L66.5507246,66.2028985 C67.4782609,67.1304348 68.9855072,67.1304348 69.7971015,66.2028985 L74.6666666,61.3333334 C75.5942029,60.4057971 75.5942029,59.0144928 74.6666666,58.0869565 L71.5362319,54.7246377 Z" id="路径" fill="#FFFFFF"></path>
                <path d="M68.2898551,68.057971 C67.3623188,68.057971 66.5507246,67.7101449 65.8550725,67.0144927 L62.4927536,63.7681159 C62.0289855,63.3043478 62.0289855,62.6086956 62.4927536,62.1449275 L70.7246377,53.9130435 C70.9565217,53.6811595 71.1884058,53.5652174 71.5362319,53.5652174 C71.884058,53.5652174 72.115942,53.6811595 72.3478261,53.9130435 L75.5942029,57.1594203 C76.2898551,57.8550725 76.6376812,58.6666667 76.6376812,59.5942029 C76.6376812,60.5217391 76.2898551,61.4492754 75.5942029,62.0289855 L70.7246377,67.0144927 C70.0289855,67.7101449 69.1014492,68.057971 68.2898551,68.057971 Z M64.9275363,62.9565217 L67.3623188,65.3913044 C67.826087,65.8550725 68.5217391,65.8550725 68.9855073,65.3913044 L73.8550725,60.5217391 C74.0869566,60.2898551 74.2028986,60.057971 74.2028985,59.7101449 C74.2028984,59.3623188 74.0869565,59.1304348 73.8550725,58.8985507 L71.4202898,56.4637681 L64.9275363,62.9565217 Z M15.6405797,15.3634783 L23.8376812,7.1663768 L25.4771015,8.80579711 L17.28,17.0028985 L15.6405797,15.3634783 Z" id="形状" fill="#1C1B55" fill-rule="nonzero"></path>
                <path d="M46.4927536,24.8115942 L39.884058,31.4202898 L34.2028985,25.7391305 L40.8115942,19.1304348 C41.7391305,18.2028985 43.1304348,18.2028985 44.057971,19.1304348 L46.4927536,21.5652174 C47.4202898,22.4927537 47.4202898,24 46.4927536,24.8115942 Z" id="路径" fill="#FFFFFF"></path>
                <path d="M40,33.0434783 L32.5797102,25.6231884 L40,18.2028985 C41.2753623,16.9275362 43.5942029,16.9275362 44.8695652,18.2028985 L47.3043478,20.6376812 C48.6956522,22.0289855 48.6956522,24.2318841 47.3043478,25.5072464 L40,33.0434783 Z M35.826087,25.7391305 L39.884058,29.7971015 L45.5652174,24.115942 C46.0289855,23.6521739 46.0289855,22.9565217 45.5652174,22.4927536 L43.1304348,20.057971 C42.6666666,19.5942029 41.9710145,19.5942029 41.5072464,20.057971 L35.826087,25.7391305 Z" id="形状" fill="#1C1B55" fill-rule="nonzero"></path>
                <path d="M53.9130435,25.7391305 L51.4782609,23.1884058 C50.5507246,22.2608695 49.1594203,22.2608695 48.2318841,23.1884058 L40,31.4202898 L45.6811595,37.1014493 L53.9130435,28.8695652 C54.8405798,28.057971 54.8405798,26.5507247 53.9130435,25.7391305 Z" id="路径" fill="#FFFFFF"></path>
                <path d="M45.6811595,38.8405797 L38.2608695,31.4202898 L47.3043478,22.3768116 C48.6956522,20.9855072 50.8985507,20.9855072 52.173913,22.3768116 L54.6086956,24.8115942 C55.3043478,25.5072464 55.6521739,26.3188406 55.6521739,27.2463768 C55.6521739,28.173913 55.3043478,29.1014493 54.6086956,29.6811595 L45.6811595,38.8405797 Z M41.6231884,31.4202898 L45.6811595,35.4782609 L53.1014493,28.057971 C53.3333334,27.826087 53.4492754,27.5942029 53.4492754,27.2463768 C53.4492754,26.8985507 53.3333334,26.6666666 53.1014493,26.5507246 L50.6666666,24.115942 C50.2028985,23.6521739 49.5072463,23.6521739 49.0434783,24.115942 L41.6231884,31.4202898 Z" id="形状" fill="#1C1B55" fill-rule="nonzero"></path>
                <path d="M58.5507246,35.826087 L52.6376812,41.7391305 C51.5942029,42.7826087 49.9710145,43.0144928 49.0434783,42.0869565 L46.6086956,39.6521739 C45.6811594,38.7246377 45.7971014,37.1014493 46.9565217,36.057971 L52.8695652,30.1449275 C53.9130435,29.1014492 55.5362319,28.8695652 56.4637681,29.7971015 L58.8985507,32.2318841 C59.7101449,33.1594203 59.5942029,34.7826087 58.5507246,35.826087 Z" id="路径" fill="#FFFFFF"></path>
                <path d="M50.4347826,43.826087 C49.6231884,43.826087 48.6956521,43.4782609 48.115942,42.8985507 L45.6811595,40.4637681 C44.2898551,39.0724638 44.5217391,36.7536232 46.0289855,35.2463768 L51.942029,29.3333334 C52.7536232,28.5217391 53.7971015,28.057971 54.8405797,28.057971 C55.7681159,28.057971 56.5797102,28.4057971 57.1594203,28.9855073 L59.5942029,31.4202898 C60.9855073,32.8115942 60.7536232,35.1304348 59.2463768,36.6376812 L53.3333334,42.5507246 C52.6376812,43.3623188 51.4782609,43.826087 50.4347826,43.826087 Z M54.8405797,30.3768116 C54.3768116,30.3768116 53.9130434,30.6086956 53.5652174,30.9565217 L47.6521739,36.8695652 C47.0724638,37.4492754 46.8405797,38.3768116 47.3043478,38.8405797 L49.7391305,41.2753623 C50.2028986,41.7391305 51.1304348,41.6231884 51.7101449,40.9275363 L57.6231884,35.0144927 C58.2028986,34.4347826 58.4347827,33.5072463 57.9710145,33.0434783 L55.5362319,30.6086956 C55.3043478,30.3768116 55.0724638,30.3768116 54.8405797,30.3768116 Z" id="形状" fill="#1C1B55" fill-rule="nonzero"></path>
                <path d="M52.2898551,45.3333334 L54.7246377,47.7681159 C55.6521739,48.6956522 57.1594202,48.5797102 58.2028985,47.5362319 L62.7246377,43.0144927 C63.7681159,41.9710145 63.7681159,40.4637681 62.9565217,39.5362319 L60.4057971,37.1014493 C59.4782609,36.173913 57.9710145,36.2898551 56.9275363,37.3333334 L52.4057971,41.8550725 C51.4782609,42.8985508 51.3623188,44.4057971 52.2898551,45.3333334 Z" id="路径" fill="#FFFFFF"></path>
                <path d="M56.2318841,49.6231884 C55.3043478,49.6231884 54.4927536,49.2753623 53.7971015,48.6956522 L51.3623188,46.2608695 C50.6666666,45.5652173 50.3188405,44.6376811 50.4347826,43.7101449 C50.4347826,42.7826087 50.8985507,41.8550724 51.5942029,41.1594203 L56.115942,36.6376812 C56.8115942,35.942029 57.7391305,35.5942029 58.6666666,35.4782609 C59.7101449,35.4782609 60.5217391,35.826087 61.2173913,36.4057971 L63.6521739,38.8405797 C64.3478261,39.5362319 64.6956522,40.4637681 64.5797102,41.3913044 C64.5797102,42.3188406 64.115942,43.2463769 63.4202898,43.942029 L58.8985507,48.4637681 C58.2028985,49.1594203 57.2753623,49.6231884 56.2318841,49.6231884 Z M58.8985507,37.6811595 C58.4347826,37.6811595 58.0869565,37.9130435 57.8550725,38.1449275 L53.3333334,42.6666666 C53.1014493,42.8985507 52.8695652,43.3623188 52.8695652,43.7101449 C52.8695652,44.057971 52.9855073,44.2898551 53.1014493,44.5217391 L55.5362319,46.9565217 C56,47.4202898 56.8115942,47.3043478 57.3913044,46.7246377 L61.9130435,42.2028985 C62.1449276,41.9710145 62.3768116,41.5072463 62.3768116,41.1594203 C62.3768116,40.8115942 62.2608695,40.5797102 62.0289855,40.3478261 L59.5942029,37.9130435 C59.4782609,37.7971015 59.2463768,37.6811595 58.8985507,37.6811595 Z" id="形状" fill="#1C1B55" fill-rule="nonzero"></path>
                <path d="M37.1014493,49.8550725 C41.7391305,45.2173913 39.6521739,34.4347827 35.942029,30.7246377 L41.1594203,35.942029 C44.8695652,39.6521739 50.4347827,36.9855073 51.3623188,34.6666666 L39.5362319,22.8405797 C38.1449275,21.4492753 36.7536232,20.5217391 34.5507246,20.8695652 C32.3478261,21.2173913 28.7536231,23.1884058 27.4782609,24.115942 C26.2028985,25.0434783 24.6956522,29.2173913 24.6956522,32.8115942 C24.6956522,37.1014493 24.9275363,41.6231884 24.115942,42.5507246 L16.2318841,50.3188405 L34.3188405,68.4057971 L40.115942,62.6086956 C41.9710145,60.7536231 46.4927536,61.1014492 49.1594203,58.5507246 L53.1014493,54.6086956 L37.1014493,49.8550725 Z" id="路径" fill="#FFFFFF"></path>
                <path d="M34.2028985,69.9130435 L14.4927536,50.2028985 L23.1884058,41.5072464 C23.5362319,40.9275363 23.5362319,37.5652174 23.5362319,35.1304348 L23.5362319,32.5797102 C23.5362319,28.7536232 25.0434783,24.2318841 26.7826087,22.9565217 C28.173913,21.9130434 31.884058,19.942029 34.3188405,19.5942029 C37.2173912,19.1304348 38.9565217,20.5217391 40.3478261,21.9130435 L52.6376812,34.2028985 L52.4057971,34.8985507 C51.7101449,36.6376812 49.6231884,38.1449275 47.3043478,38.6086956 C44.6376812,39.1884058 42.2028985,38.4927536 40.3478261,36.6376812 L40.2318841,36.5217391 C41.5072464,41.5072464 41.1594203,47.4202898 37.9130435,50.6666666 L36.2898551,49.0434783 C40.3478261,44.9855073 38.4927536,34.8985508 35.1304348,31.5362319 L36.7536232,29.9130435 L41.9710145,35.1304348 C43.594203,36.7536232 45.4492754,36.7536232 46.8405797,36.5217391 C48.2318841,36.173913 49.2753623,35.4782609 49.9710145,34.7826087 L38.8405797,23.6521739 C37.4492753,22.2608695 36.5217391,21.6811594 34.8985507,21.9130435 C32.8115942,22.2608696 29.4492753,24 28.4057971,24.9275363 C27.5942029,25.5072464 26.0869566,29.1014493 26.0869565,32.6956522 L26.0869565,35.2463768 C26.2028985,39.7681159 26.0869565,42.2028985 25.1594203,43.2463768 L18.0869565,50.3188405 L34.4347826,66.6666666 L39.4202898,61.6811595 C40.4637681,60.6376812 42.0869565,60.173913 43.7101449,59.7101449 C45.4492754,59.2463768 47.1884058,58.7826087 48.4637681,57.5072464 L52.4057971,53.5652174 L54.0289855,55.1884058 L49.8550725,59.2463768 C48.2318841,60.8695652 46.0289855,61.4492753 44.173913,62.0289855 C42.7826087,62.3768116 41.5072464,62.7246377 40.9275362,63.4202898 L34.2028985,69.9130435 Z" id="路径" fill="#1C1B55"></path>
                <polygon id="路径" fill="#FFFFFF" points="17.8434783 45.2869565 39.1582609 66.6028985 30.96 74.8 9.64405797 53.4863768"></polygon>
                <path d="M30.9565217,76.5217391 L8,53.5652174 L17.8550725,43.7101449 L40.8115942,66.6666666 L30.9565217,76.5217391 Z M11.2463768,53.5652174 L30.9565217,73.2753623 L37.5652174,66.6666666 L17.8550725,46.9565217 L11.2463768,53.5652174 Z" id="形状" fill="#1C1B55" fill-rule="nonzero"></path>
                <polygon id="路径" fill="#1C1B55" points="16.2144927 51.9188405 17.853913 50.2782609 21.1327536 53.5571015 19.4933334 55.1976812"></polygon>
            </g>
        </g>
    </g>
</svg>