<?xml version="1.0" encoding="UTF-8"?>
<svg width="80px" height="80px" viewBox="0 0 80 80" version="1.1" xmlns="http://www.w3.org/2000/svg" xmlns:xlink="http://www.w3.org/1999/xlink">
    <!-- Generator: Sketch 52.5 (67469) - http://www.bohemiancoding.com/sketch -->
    <title>book</title>
    <desc>Created with Sketch.</desc>
    <defs>
        <linearGradient x1="100%" y1="100%" x2="0%" y2="0%" id="linearGradient-1">
            <stop stop-color="#2853FF" offset="0%"></stop>
            <stop stop-color="#933EFE" offset="100%"></stop>
        </linearGradient>
    </defs>
    <g id="Symbols" stroke="none" stroke-width="1" fill="none" fill-rule="evenodd">
        <g id="book">
            <g>
                <rect id="矩形" fill="#000000" opacity="0" x="0" y="0" width="80" height="80"></rect>
                <path d="M68.16,20.64 L11.84,20.64 C10.4,20.64 9.28,21.76 9.28,23.2 L9.28,57.6 C9.28,59.04 10.4,60.16 11.84,60.16 L29.04,60.16 C31.84,60.16 34.16,62.48 34.16,65.28 L46.56,65.28 C46.56,62.48 48.88,60.16 51.68,60.16 L68.16,60.16 C69.6,60.16 70.72,59.04 70.72,57.6 L70.72,23.2 C70.72,21.76 69.6,20.64 68.16,20.64 Z" id="路径" fill="#FFFFFF"></path>
                <path d="M46.56,66.4 L34.16,66.4 C33.52,66.4 32.96,65.84 32.96,65.2 C32.96,63.04 31.2,61.28 29.04,61.28 L11.84,61.28 C9.76,61.28 8.08,59.6 8.08,57.52 L8.08,23.2 C8.08,21.12 9.76,19.44 11.84,19.44 L68.16,19.44 C70.24,19.44 71.92,21.12 71.92,23.2 L71.92,57.6 C71.92,59.68 70.24,61.36 68.16,61.36 L51.68,61.36 C49.52,61.36 47.76,63.12 47.76,65.28 C47.76,65.92 47.28,66.4 46.56,66.4 Z M35.2,64 L45.44,64 C46,61.12 48.56,58.88 51.68,58.88 L68.16,58.88 C68.88,58.88 69.52,58.24 69.52,57.52 L69.52,23.2 C69.52,22.48 68.88,21.84 68.16,21.84 L11.84,21.84 C11.12,21.84 10.48,22.48 10.48,23.2 L10.48,57.6 C10.48,58.32 11.12,58.96 11.84,58.96 L29.04,58.96 C32.08,58.88 34.64,61.12 35.2,64 Z" id="形状" fill="#1C1B55" fill-rule="nonzero"></path>
                <path d="M44.56,17.2 L40,20.64 L35.44,17.28 C33.28,15.68 30.72,14.8 28,14.8 L16.88,14.8 C15.68,14.8 14.72,15.76 14.72,16.96 L14.72,53.52 C14.72,54.72 15.68,55.68 16.88,55.68 L28.24,55.68 C30.8,55.68 33.28,56.48 35.36,57.92 L40,61.2 L44.64,57.92 C46.72,56.48 49.2,55.68 51.76,55.68 L62.96,55.68 C64.16,55.68 65.12,54.72 65.12,53.52 L65.12,16.96 C65.12,15.76 64.16,14.8 62.96,14.8 L52,14.8 C49.28,14.8 46.72,15.6 44.56,17.2 Z" id="路径" fill="#FFFFFF"></path>
                <path d="M40,62.4 C39.76,62.4 39.52,62.32 39.28,62.16 L34.64,58.88 C32.72,57.52 30.56,56.88 28.24,56.88 L16.88,56.88 C15.04,56.88 13.52,55.36 13.52,53.52 L13.52,16.96 C13.52,15.12 15.04,13.6 16.88,13.6 L28,13.6 C30.88,13.6 33.84,14.56 36.16,16.32 L40,19.2 L43.84,16.32 C46.16,14.56 49.04,13.6 52,13.6 L63.04,13.6 C64.88,13.6 66.4,15.12 66.4,16.96 L66.4,53.52 C66.4,55.36 64.88,56.88 63.04,56.88 L51.84,56.88 C49.52,56.88 47.28,57.6 45.44,58.88 L40.8,62.16 C40.48,62.32 40.24,62.4 40,62.4 Z M16.88,16 C16.32,16 15.92,16.48 15.92,16.96 L15.92,53.52 C15.92,54.08 16.4,54.48 16.88,54.48 L28.24,54.48 C31.04,54.48 33.76,55.36 36.08,56.96 L40,59.76 L43.92,56.96 C46.24,55.36 48.88,54.48 51.76,54.48 L62.96,54.48 C63.52,54.48 63.92,54 63.92,53.52 L63.92,16.96 C63.92,16.4 63.44,16 62.96,16 L52,16 C49.6,16 47.2,16.8 45.28,18.24 L40.72,21.6 C40.32,21.92 39.68,21.92 39.28,21.6 L34.72,18.24 C32.8,16.72 30.4,16 28,16 L16.88,16 Z" id="形状" fill="#1C1B55" fill-rule="nonzero"></path>
                <path d="M39.6,55.6 C38.96,55.6 38.4,55.04 38.4,54.4 L38.4,21.6 C38.4,20.96 38.96,20.4 39.6,20.4 C40.24,20.4 40.8,20.96 40.8,21.6 L40.8,54.4 C40.8,55.04 40.24,55.6 39.6,55.6 Z M60.8,30.4 L44,30.4 C43.36,30.4 42.8,29.84 42.8,29.2 C42.8,28.56 43.36,28 44,28 L60.8,28 C61.44,28 62,28.56 62,29.2 C62,29.84 61.44,30.4 60.8,30.4 Z M35.2,30.4 L18.4,30.4 C17.76,30.4 17.2,29.84 17.2,29.2 C17.2,28.56 17.76,28 18.4,28 L35.2,28 C35.84,28 36.4,28.56 36.4,29.2 C36.4,29.84 35.84,30.4 35.2,30.4 Z M35.2,37.6 L18.4,37.6 C17.76,37.6 17.2,37.04 17.2,36.4 C17.2,35.76 17.76,35.2 18.4,35.2 L35.2,35.2 C35.84,35.2 36.4,35.76 36.4,36.4 C36.4,37.04 35.84,37.6 35.2,37.6 Z" id="形状" fill="#1C1B55" fill-rule="nonzero"></path>
                <path d="M35.2,44.8 L18.4,44.8 C17.76,44.8 17.2,44.24 17.2,43.6 C17.2,42.96 17.76,42.4 18.4,42.4 L35.2,42.4 C35.84,42.4 36.4,42.96 36.4,43.6 C36.4,44.24 35.84,44.8 35.2,44.8 Z" id="路径" fill="#1C1B55"></path>
                <polygon id="路径" fill="url(#linearGradient-1)" points="43.6 35.28 60.4 35.28 60.4 42.56 43.6 42.56"></polygon>
                <path d="M60.4,43.76 L43.6,43.76 C42.96,43.76 42.4,43.2 42.4,42.56 L42.4,35.28 C42.4,34.64 42.96,34.08 43.6,34.08 L60.4,34.08 C61.04,34.08 61.6,34.64 61.6,35.28 L61.6,42.56 C61.6,43.2 61.12,43.76 60.4,43.76 Z M44.8,41.36 L59.2,41.36 L59.2,36.48 L44.8,36.48 L44.8,41.36 Z" id="形状" fill="#1C1B55" fill-rule="nonzero"></path>
            </g>
        </g>
    </g>
</svg>