<?xml version="1.0" encoding="UTF-8"?>
<svg width="80px" height="80px" viewBox="0 0 80 80" version="1.1" xmlns="http://www.w3.org/2000/svg" xmlns:xlink="http://www.w3.org/1999/xlink">
    <!-- Generator: Sketch 52.5 (67469) - http://www.bohemiancoding.com/sketch -->
    <title>brand</title>
    <desc>Created with Sketch.</desc>
    <defs>
        <linearGradient x1="85.0350006%" y1="100%" x2="15.6915652%" y2="8.83236201%" id="linearGradient-1">
            <stop stop-color="#2853FF" offset="0%"></stop>
            <stop stop-color="#933EFE" offset="100%"></stop>
        </linearGradient>
    </defs>
    <g id="Symbols" stroke="none" stroke-width="1" fill="none" fill-rule="evenodd">
        <g id="brand">
            <g>
                <rect id="矩形" fill="#000000" opacity="0" x="0" y="0" width="80" height="80"></rect>
                <g id="分组-7" transform="translate(6.000000, 6.000000)">
                    <path d="M27,20 L37.5126953,20 C39.464472,21.0074354 40.679153,21.7734511 41.1567383,22.2980469 C42.3177724,23.573366 42.9394531,24.8661201 42.9394531,25.9859375 C42.9394531,26.9578408 43.1376331,29.0370047 42.0664063,30.6230469 C41.4500144,31.5356673 39.5908021,32.8853723 36.4887695,34.6721617 L27,34 L27,20 Z" id="矩形" fill="url(#linearGradient-1)"></path>
                    <path d="M65.184375,20.8914062 C63.4777344,16.8605469 61.040625,13.2414062 57.9328125,10.1335937 C54.825,7.02578125 51.2058594,4.58867188 47.175,2.88203125 C42.9980469,1.115625 38.56875,0.219140625 34,0.219140625 C29.43125,0.219140625 25.0019531,1.115625 20.825,2.88203125 C16.7941406,4.58867187 13.175,7.02578125 10.0671875,10.1335937 C6.959375,13.2414062 4.52226563,16.8605469 2.815625,20.8914062 C1.04921875,25.0683594 0.152734375,29.4976562 0.152734375,34.0664062 C0.152734375,38.6351563 1.04921875,43.0644531 2.815625,47.2414062 C4.52226562,51.2722656 6.959375,54.8914062 10.0671875,57.9992187 C13.175,61.1070312 16.7941406,63.5441406 20.825,65.2507812 C24.9953125,67.0171875 29.43125,67.9136719 34,67.9136719 C38.56875,67.9136719 42.9980469,67.0171875 47.175,65.2507812 C51.2058594,63.5441406 54.825,61.1070312 57.9328125,57.9992187 C61.040625,54.8914062 63.4777344,51.2722656 65.184375,47.2414062 C66.9507812,43.0710938 67.8472656,38.6351563 67.8472656,34.0664062 C67.8472656,29.4976562 66.9507812,25.0683594 65.184375,20.8914062 Z M34,65.2574219 C16.8007812,65.2574219 2.80898438,51.265625 2.80898438,34.0664062 C2.80898438,16.8671875 16.8007812,2.87539063 34,2.87539063 C51.1992187,2.87539063 65.1910156,16.8671875 65.1910156,34.0664062 C65.1910156,51.265625 51.1992187,65.2574219 34,65.2574219 Z" id="形状" fill="#1C1B55" fill-rule="nonzero"></path>
                    <path d="M44.9703125,45.4152344 C44.5652344,44.8707031 44.0871094,44.0738281 43.5226563,43.0378906 L41.5769531,39.4917969 C40.8132813,38.0773437 40.1160156,37.0414063 39.4917969,36.3707031 C38.8675781,35.7 38.1105469,35.1886719 37.2339844,34.8234375 L37.2339844,34.6507813 C39.4121094,33.8738281 41.0390625,32.7914063 42.128125,31.4101562 C43.2171875,30.0289062 43.7617188,28.3488281 43.7617188,26.3765625 C43.7617188,23.8 42.925,21.8941406 41.2582031,20.6722656 C39.5847656,19.4503906 37.0679688,18.8328125 33.6945313,18.8328125 L22.9964844,18.8328125 L22.9964844,19.8886719 C23.6605469,20.0746094 24.1253906,20.2472656 24.3976563,20.3933594 C24.6699219,20.5460938 24.8890625,20.7453125 25.0550781,20.9976563 C25.2210938,21.25 25.340625,21.6019531 25.4136719,22.0535156 C25.4867188,22.5050781 25.5199219,23.2289062 25.5199219,24.225 L25.5199219,42.9183594 C25.5199219,43.9875 25.4734375,44.7777344 25.3804688,45.2957031 C25.2875,45.8136719 25.0882813,46.2121094 24.7894531,46.4976562 C24.490625,46.7832031 23.8863281,47.0355469 22.9964844,47.2679687 L22.9964844,48.3238281 L32.1140625,48.3238281 L32.1140625,47.2679687 C31.45,47.0820312 30.9851563,46.909375 30.7128906,46.7632812 C30.440625,46.6105469 30.2214844,46.4179688 30.0621094,46.1789063 C29.9027344,45.9398438 29.7832031,45.5878906 29.7035156,45.1230469 C29.6238281,44.6582031 29.5839844,43.9011719 29.5839844,42.8652344 L29.5839844,35.5140625 L31.9613281,35.5140625 C32.6652344,35.5140625 33.1964844,35.5539062 33.5484375,35.6335937 C33.9003906,35.7132812 34.2324219,35.859375 34.5445313,36.0652344 C34.8566406,36.2710937 35.1953125,36.6363281 35.5605469,37.1542969 C35.9257812,37.6722656 36.3972656,38.4824219 36.975,39.5714844 L38.8742188,43.1773437 C39.3523438,44.0871094 39.8304688,44.9769531 40.321875,45.8535156 C40.8132813,46.7300781 41.33125,47.5535156 41.8757813,48.3171875 L47.8589844,48.3171875 L47.8589844,47.2613281 C47.1683594,47.1484375 46.6105469,46.9425781 46.1921875,46.6570312 C45.7804687,46.378125 45.36875,45.9597656 44.9703125,45.4152344 Z M35.0691406,33.3890625 C34.2921875,33.5683594 33.2761719,33.6613281 32.0210938,33.6613281 L29.5773438,33.6613281 L29.5773438,20.825 C30.3808594,20.7652344 31.4367188,20.7386719 32.7316406,20.7386719 C34.3453125,20.7386719 35.6269531,20.9777344 36.5765625,21.4492187 C37.5261719,21.9273437 38.2367188,22.6179687 38.7015625,23.5210937 C39.1664063,24.4308594 39.4054688,25.5664062 39.4054688,26.934375 C39.4054688,28.2425781 39.20625,29.3515625 38.8144531,30.2480469 C38.4160156,31.1511719 37.8914063,31.8484375 37.2273438,32.353125 C36.5699219,32.8644531 35.8527344,33.2097656 35.0691406,33.3890625 Z" id="形状" fill="#1C1B55" fill-rule="nonzero"></path>
                </g>
            </g>
        </g>
    </g>
</svg>