<?xml version="1.0" encoding="UTF-8"?>
<svg width="80px" height="80px" viewBox="0 0 80 80" version="1.1" xmlns="http://www.w3.org/2000/svg" xmlns:xlink="http://www.w3.org/1999/xlink">
    <!-- Generator: Sketch 52.5 (67469) - http://www.bohemiancoding.com/sketch -->
    <title>art and design</title>
    <desc>Created with Sketch.</desc>
    <defs>
        <linearGradient x1="100%" y1="100%" x2="0%" y2="0%" id="linearGradient-1">
            <stop stop-color="#2853FF" offset="0%"></stop>
            <stop stop-color="#933EFE" offset="100%"></stop>
        </linearGradient>
    </defs>
    <g id="Symbols" stroke="none" stroke-width="1" fill="none" fill-rule="evenodd">
        <g id="art-and-design">
            <g>
                <rect id="矩形" fill="#000000" opacity="0" x="0" y="0" width="80" height="80"></rect>
                <g id="分组-4" transform="translate(1.000000, 13.333333)">
                    <path d="M47.96875,2.75260417 C52.484375,7.37760417 62.2421875,11.8151042 67.5234375,13.9947917 C63.5234375,17.7916667 59.4140625,18.0416667 59.21875,18.0494792 L56.7578125,18.1354167 L56.7578125,28.2604167 L63.4609375,28.2604167 C68.9296875,32.8541667 72.8828125,33.3697917 74.3671875,33.3697917 L74.53125,33.3697917 C72.8828125,37.8541667 68.1015625,42.3541667 65.3203125,44.6979167 L64.4140625,45.4635417 L64.4140625,53.7604167 L59.3125,53.7604167 L59.3125,48.6588542 C59.3125,45.8463542 57.0234375,43.5572917 54.2109375,43.5572917 L23.609375,43.5572917 C20.796875,43.5572917 18.765625,45.8463542 18.765625,48.6588542 L18.515625,53.7604167 L13.4140625,53.7604167 L13.4140625,45.4635417 L12.5078125,44.6979167 C9.7265625,42.3541667 4.9453125,37.8541667 3.296875,33.3697917 L3.4609375,33.3697917 C4.9453125,33.3697917 8.8984375,32.8541667 14.3671875,28.2604167 L21.0703125,28.2604167 L21.0703125,20.6041667 L21.046875,18.1744792 L18.625,18.0494792 C18.421875,18.0416667 14.296875,17.7838542 10.3046875,13.9947917 C15.5859375,11.8151042 25.34375,7.37760417 29.8515625,2.75260417 L47.96875,2.75260417 Z M49.109375,0.197916667 L28.7109375,0.197916667 C23.7734375,6.31510417 6.015625,12.9479167 6.015625,12.9479167 C11.3984375,20.3619792 18.515625,20.5963542 18.515625,20.5963542 L18.515625,25.6979167 L13.4140625,25.6979167 C8.0390625,30.4635417 4.3984375,30.8072917 3.453125,30.8072917 C3.2890625,30.8072917 3.2109375,30.7994792 3.2109375,30.7994792 C0.5546875,30.7994792 0.6640625,33.5260417 0.6640625,33.5260417 C2.2734375,38.7760417 7.625,43.9010417 10.8671875,46.6276042 L10.8671875,53.7447917 C10.8671875,55.1510417 12.0078125,56.2994792 13.4140625,56.2994792 L21.0625,56.2994792 L21.0625,48.6510417 C21.0625,47.2369792 22.203125,46.1041667 23.609375,46.1041667 L54.2109375,46.1041667 C55.625,46.1041667 56.765625,47.2447917 56.765625,48.6510417 L56.765625,56.2994792 L64.4140625,56.2994792 C65.828125,56.2994792 66.96875,55.1588542 66.96875,53.7447917 L66.96875,46.6276042 C70.203125,43.9088542 75.5546875,38.7838542 77.1640625,33.5260417 C77.1640625,33.5260417 77.1640625,30.7916667 74.6875,30.7916667 L74.609375,30.7916667 C74.609375,30.7916667 74.53125,30.7994792 74.3671875,30.7994792 C73.4296875,30.7994792 69.78125,30.4557292 64.4140625,25.6901042 L59.3125,25.6901042 L59.3125,20.5885417 C59.3125,20.5885417 66.421875,20.3463542 71.8125,12.9401042 C71.8125,12.9479167 54.0546875,6.31510417 49.109375,0.197916667 Z" id="形状" fill="#1C1B55" fill-rule="nonzero"></path>
                    <path d="M30,18 L47,18 C47.5245768,19.7777778 47.7868652,21.0021368 47.7868652,21.6730769 C47.7868652,22.3440171 49.2895508,22.5574177 52.2949219,22.3132787 L51.8525391,26.5148578 L30,27 C27.9419277,26.9458168 26.6630377,26.7843212 26.1633301,26.5155131 C25.3304154,26.0674627 25.4901191,24.7802005 25.4901191,24.4917226 C25.4901191,24.2403196 25.5307488,22.9458263 26.1633301,22.6666667 C26.6610078,22.4470403 27.9398978,22.3292443 30,22.3132787 L30,18 Z" id="矩形" fill="url(#linearGradient-1)"></path>
                    <path d="M28.7109375,20.6041667 L28.7109375,19.3229167 C28.7109375,17.2213542 30.421875,15.5026042 32.53125,15.5026042 L45.296875,15.5026042 C47.40625,15.5026042 49.1171875,17.2135417 49.1171875,19.3229167 L49.1171875,20.6041667 L50.390625,20.6041667 C52.4921875,20.6041667 54.2109375,22.3151042 54.2109375,24.4244792 C54.2109375,26.5338542 52.5,28.2526042 50.390625,28.2526042 L27.4375,28.2526042 C25.328125,28.2526042 23.609375,26.5338542 23.609375,24.4244792 C23.609375,22.3229167 25.328125,20.6041667 27.4375,20.6041667 L28.7109375,20.6041667 Z M27.4375,25.6979167 L50.390625,25.6979167 C51.09375,25.6979167 51.6640625,25.1276042 51.6640625,24.4244792 C51.6640625,23.7213542 51.09375,23.1510417 50.390625,23.1510417 L46.5625,23.1510417 L46.5625,19.3229167 C46.5625,18.6197917 45.9921875,18.0494792 45.2890625,18.0494792 L32.5390625,18.0494792 C31.8359375,18.0494792 31.265625,18.6197917 31.265625,19.3229167 L31.265625,23.1510417 L27.4375,23.1510417 C26.734375,23.1510417 26.1640625,23.7213542 26.1640625,24.4244792 C26.1640625,25.1276042 26.734375,25.6979167 27.4375,25.6979167 Z" id="合并形状" fill="#1C1B55" fill-rule="nonzero"></path>
                    <path d="M31.2578125,41.0026042 L31.25,37.1822917 C31.25,35.0729167 32.96875,33.3541667 35.078125,33.3541667 L42.7265625,33.3541667 C44.8359375,33.3541667 46.5546875,35.0729167 46.5546875,37.1822917 L46.5546875,41.0026042 L31.2578125,41.0026042 Z M33.8125,38.4479167 L44.0078125,38.4479167 L44.0078125,37.1744792 C44.0078125,36.4635417 43.4375,35.8932292 42.734375,35.8932292 L35.0859375,35.8932292 C34.3828125,35.8932292 33.8125,36.4713542 33.8125,37.1744792 L33.8125,38.4479167 Z" id="合并形状" fill="#1C1B55" fill-rule="nonzero"></path>
                </g>
            </g>
        </g>
    </g>
</svg>