<?xml version="1.0" encoding="UTF-8"?>
<svg width="80px" height="80px" viewBox="0 0 80 80" version="1.1" xmlns="http://www.w3.org/2000/svg" xmlns:xlink="http://www.w3.org/1999/xlink">
    <!-- Generator: Sketch 52.5 (67469) - http://www.bohemiancoding.com/sketch -->
    <title>entertainment</title>
    <desc>Created with Sketch.</desc>
    <defs>
        <linearGradient x1="122.733938%" y1="100%" x2="0%" y2="0%" id="linearGradient-1">
            <stop stop-color="#2853FF" offset="0%"></stop>
            <stop stop-color="#933EFE" offset="100%"></stop>
        </linearGradient>
    </defs>
    <g id="Symbols" stroke="none" stroke-width="1" fill="none" fill-rule="evenodd">
        <g id="entertainment">
            <g>
                <rect id="矩形" fill="#000000" opacity="0" x="0" y="0" width="80" height="80"></rect>
                <g id="分组-11" transform="translate(7.153846, 10.230769)">
                    <path d="M39.5277945,59.416266 L7.55904447,59.416266 C3.88521635,59.416266 0.898888221,56.4299379 0.898888221,52.7561098 L0.898888221,28.7795473 C0.898888221,25.1057192 3.88521635,22.119391 7.55904447,22.119391 L39.5277945,22.119391 C43.2016226,22.119391 46.1879507,25.1057192 46.1879507,28.7795473 L46.1879507,52.7561098 C46.1879507,56.4299379 43.2016226,59.416266 39.5277945,59.416266 Z M7.55904447,24.7834535 C5.3533153,24.7834535 3.56295072,26.5738181 3.56295072,28.7795473 L3.56295072,52.7561098 C3.56295072,54.9618389 5.3533153,56.7522035 7.55904447,56.7522035 L39.5277945,56.7522035 C41.7335236,56.7522035 43.5238882,54.9618389 43.5238882,52.7561098 L43.5238882,28.7795473 C43.5238882,26.5738181 41.7335236,24.7834535 39.5277945,24.7834535 L7.55904447,24.7834535 Z" id="形状" fill="#1C1B55" fill-rule="nonzero"></path>
                    <path d="M63.504357,56.7522035 C63.3826122,56.7522035 63.2608674,56.7378806 63.1391226,56.7020733 L44.4906851,51.3739483 C43.9177684,51.2092348 43.5238882,50.6864483 43.5238882,50.0920473 L43.5238882,31.4436098 C43.5238882,30.8492087 43.9177684,30.3264223 44.4906851,30.1617087 L63.1391226,24.8335837 C63.5401643,24.7190004 63.9698518,24.7977764 64.3064403,25.0484275 C64.6430288,25.2990785 64.8363882,25.6929587 64.8363882,26.1083233 L64.8363882,55.4130108 C64.8363882,55.8283754 64.6430288,56.2222556 64.3064403,56.4729067 C64.0701122,56.6591046 63.7908153,56.7522035 63.504357,56.7522035 Z M46.1879507,49.0894431 L62.1723257,53.6584535 L62.1723257,27.884365 L46.1879507,32.4533754 L46.1879507,49.0894431 Z M14.2192007,22.119391 C8.33964343,22.119391 3.56295072,17.3355369 3.56295072,11.463141 C3.56295072,5.59074519 8.33964343,0.806891026 14.2192007,0.806891026 C20.098758,0.806891026 24.8754507,5.59074519 24.8754507,11.463141 C24.8754507,17.3355369 20.0915966,22.119391 14.2192007,22.119391 Z M14.2192007,3.47095353 C9.81490385,3.47095353 6.22701322,7.05884415 6.22701322,11.463141 C6.22701322,15.8674379 9.81490385,19.4553285 14.2192007,19.4553285 C18.6234976,19.4553285 22.2113882,15.8674379 22.2113882,11.463141 C22.2113882,7.05884415 18.6234976,3.47095353 14.2192007,3.47095353 Z" id="形状" fill="#1C1B55" fill-rule="nonzero"></path>
                    <path d="M14.7276643,59.416266 L7.55904447,59.416266 C3.88521635,59.416266 0.898888221,56.4299379 0.898888221,52.7561098 L0.898888221,28.7795473 C0.898888221,25.1057192 3.88521635,22.119391 7.55904447,22.119391 L13.567508,22.119391 C13.9255809,22.119391 14.2693309,22.2626202 14.519982,22.5204327 C19.4900341,27.6050681 22.2328726,34.3081931 22.2328726,41.4051983 C22.2328726,47.821865 19.926883,54.0594952 15.7374299,58.9507712 C15.4867788,59.2515525 15.114383,59.416266 14.7276643,59.416266 Z M7.55904447,24.7834535 C5.3533153,24.7834535 3.56295072,26.5738181 3.56295072,28.7795473 L3.56295072,52.7561098 C3.56295072,54.9618389 5.3533153,56.7522035 7.55904447,56.7522035 L14.1046174,56.7522035 C17.6352163,52.4123598 19.5688101,46.9839744 19.5688101,41.4051983 C19.5688101,35.1962139 17.2413361,29.3166567 13.0017528,24.7834535 L7.55904447,24.7834535 Z M32.8676382,22.119391 C28.4633413,22.119391 24.8754507,18.5315004 24.8754507,14.1272035 C24.8754507,9.72290665 28.4633413,6.13501603 32.8676382,6.13501603 C37.2719351,6.13501603 40.8598257,9.72290665 40.8598257,14.1272035 C40.8598257,18.5315004 37.2719351,22.119391 32.8676382,22.119391 Z M32.8676382,8.79907853 C29.9314403,8.79907853 27.5395132,11.1910056 27.5395132,14.1272035 C27.5395132,17.0634014 29.9314403,19.4553285 32.8676382,19.4553285 C35.8038361,19.4553285 38.1957632,17.0634014 38.1957632,14.1272035 C38.1957632,11.1910056 35.8038361,8.79907853 32.8676382,8.79907853 Z" id="形状" fill="#1C1B55" fill-rule="nonzero"></path>
                    <path d="M36.863732,50.0920473 C38.3318309,50.0920473 39.5277945,48.8960837 39.5277945,47.4279848 C39.5277945,45.9527244 38.3318309,44.7639223 36.863732,44.7639223 L10.223107,44.7639223 C8.75500801,44.7639223 7.55904447,45.9527244 7.55904447,47.4279848 C7.55904447,48.8960837 8.75500801,50.0920473 10.223107,50.0920473 L36.863732,50.0920473 Z" id="路径" fill="#FFFFFF"></path>
                    <path d="M36.863732,51.4240785 L10.223107,51.4240785 C8.0173778,51.4240785 6.22701322,49.6337139 6.22701322,47.4279848 C6.22701322,45.2222556 8.0173778,43.431891 10.223107,43.431891 L36.863732,43.431891 C39.0694611,43.431891 40.8598257,45.2222556 40.8598257,47.4279848 C40.8598257,49.6337139 39.0694611,51.4240785 36.863732,51.4240785 Z M39.5277945,32.775641 L34.1996695,32.775641 C33.4620393,32.775641 32.8676382,32.18124 32.8676382,31.4436098 C32.8676382,30.7059796 33.4620393,30.1115785 34.1996695,30.1115785 L39.5277945,30.1115785 C40.2654247,30.1115785 40.8598257,30.7059796 40.8598257,31.4436098 C40.8598257,32.18124 40.2654247,32.775641 39.5277945,32.775641 Z" id="形状" fill="#1C1B55" fill-rule="nonzero"></path>
                    <path d="M10.223107,46.0959535 C9.48547676,46.0959535 8.89107572,46.6903546 8.89107572,47.4279848 C8.89107572,48.165615 9.48547676,48.760016 10.223107,48.760016 L36.863732,48.760016 C37.6013622,48.760016 38.1957632,48.165615 38.1957632,47.4279848 C38.1957632,46.6903546 37.6013622,46.0959535 36.863732,46.0959535 L10.223107,46.0959535 Z" id="路径" fill="url(#linearGradient-1)" fill-rule="nonzero"></path>
                </g>
            </g>
        </g>
    </g>
</svg>