<?xml version="1.0" encoding="UTF-8"?>
<svg width="80px" height="80px" viewBox="0 0 80 80" version="1.1" xmlns="http://www.w3.org/2000/svg" xmlns:xlink="http://www.w3.org/1999/xlink">
    <!-- Generator: Sketch 52.5 (67469) - http://www.bohemiancoding.com/sketch -->
    <title>life</title>
    <desc>Created with Sketch.</desc>
    <defs>
        <linearGradient x1="20.5356494%" y1="100%" x2="116.746206%" y2="0%" id="linearGradient-1">
            <stop stop-color="#2853FF" offset="0%"></stop>
            <stop stop-color="#933EFE" offset="100%"></stop>
        </linearGradient>
    </defs>
    <g id="Symbols" stroke="none" stroke-width="1" fill="none" fill-rule="evenodd">
        <g id="life">
            <g>
                <rect id="矩形" fill="#000000" opacity="0" x="0" y="0" width="80" height="80"></rect>
                <path d="M18.875,42.298077 C19.8461538,41.9807693 20.8461538,41.6826923 21.8942308,41.4038462 C21.7884616,40.1153846 21.6826923,38.9615385 21.5865384,37.9423077 L21.5384616,37.9423077 C20.5769231,36.5384615 19.9903846,35.5673077 19.7692308,35.0288462 C19.6538462,34.75 19.2596154,33.798077 18.3557692,32.9615384 C16.6634616,31.3846154 13.8365384,29.9807692 12.2307692,32.576923 C10.5865384,35.2307692 12.6346154,38.4038461 18.3557692,42.0865384 L18.875,42.298077 Z M15.326923,43.6538462 C15.1634615,43.5288462 15.0096154,43.4134616 14.8653846,43.3076923 C13.1346154,41.9519231 11.201923,39.6153847 10.5865384,38.875 C8.58653844,36.4711538 8.51923078,31.8846154 10.5865384,29.7596154 C11.9615384,28.3461538 13.3942308,27.75 14.8653846,27.9711538 C16.1634616,28.1538462 17.2307692,28.5 18.0576923,29 C18.548077,29.298077 19,29.5961538 19.4134616,29.8942308 C19.6826923,30.0865384 19.923077,30.3173077 20.1346154,30.5576923 C20.0384616,30.3653847 19.951923,30.1634616 19.875,29.951923 C19.7788462,29.6730769 19.673077,29.1826923 19.5673077,28.4711538 C20.0096153,23.6538462 26.4423077,20.951923 38.8846154,20.4038462 C50.6826923,20.1923077 57.6346154,22.1153846 59.7403846,26.1826923 C59.8173077,26.3365385 59.875,26.5 59.8942308,26.6634616 C59.9615384,27.1057692 59.9423077,27.5769231 59.8461538,28.0576923 C59.6634615,28.9423077 59.5,29.4038462 59.3076923,29.9615384 C59.0961539,30.2692308 58.8653847,34.1346154 58.6153846,41.5384616 C68.298077,44.201923 74.7115384,48.8653846 74.7115384,54.173077 C74.7115384,62.4326923 59.173077,69.1346154 40,69.1346154 C20.826923,69.1346154 5.28846156,62.4326923 5.28846156,54.173077 C5.28846156,50.0673077 9.125,46.3557693 15.326923,43.6538462 Z" id="形状" fill="#FFFFFF" fill-rule="nonzero"></path>
                <path d="M40,71.4423077 C30.2211538,71.4423077 21.0576923,69.7692307 14.1923077,66.7211538 C6.96153844,63.5096154 2.98076922,59.0576923 2.98076922,54.173077 C2.98076922,51.8365385 3.875,49.6057693 5.625,47.5384616 C7,45.9134616 8.88461539,44.423077 11.2403846,43.0961538 L11.2115384,43.0673077 C10.7403846,42.576923 10.2596154,42.0480769 9.74038461,41.451923 C9.41346156,41.076923 9.23076922,40.8557692 8.80769234,40.3461538 C6.02884617,36.9903846 6.08653852,31.0576923 8.93269234,28.1442308 C10.8269231,26.2019231 12.9903847,25.3557692 15.201923,25.6923077 C16.1153846,25.826923 16.951923,26.0288461 17.7115384,26.298077 C18.576923,23.923077 20.6346154,22.048077 23.8365384,20.7115384 C27.3365384,19.25 32.2307692,18.3942308 38.7884616,18.0961538 L38.8461538,18.0961538 C45.1730769,17.9807692 50.0673077,18.451923 53.8173077,19.5288462 C57.7788461,20.673077 60.4615384,22.548077 61.7884616,25.1153846 C61.9807692,25.4903846 62.1153846,25.8942308 62.1826923,26.3173077 C62.2884616,27.0288461 62.2692308,27.7788461 62.1057692,28.5288462 C62.0192308,28.9615385 61.9230769,29.3269231 61.8173077,29.6923077 C61.75,29.9134615 61.6923077,30.125 61.5961538,30.3942308 C61.5673077,30.4807692 61.5673077,30.4807692 61.4903846,30.701923 L61.4807692,30.7211538 C61.4711538,30.7980769 61.451923,30.9134615 61.4326923,31.1057692 C61.3846154,31.5865384 61.3269231,32.3076923 61.2692308,33.2307692 C61.173077,34.8076923 61.0769231,37.0288462 60.9711538,39.8365384 C71.1730769,43.0096154 76.9903846,48.201923 76.9903846,54.173077 C76.9903846,59.0576923 73.0096154,63.5096154 65.7788462,66.7211538 C58.9423077,69.7692308 49.7788462,71.4423077 40,71.4423077 Z M14.2692308,27.923077 C13,27.923077 11.7692308,28.5384616 10.5865384,29.75 C8.55769227,31.826923 8.55769227,36.4326923 10.5865384,38.8653846 C11.0096154,39.375 11.1730769,39.576923 11.4903846,39.9326923 C11.9807692,40.5 12.4326923,41 12.875,41.4615384 C13.25,41.8557692 13.6153846,42.2115384 13.951923,42.5288462 L15.1826923,43.6634616 L13.6826923,44.4134616 C10.9326923,45.7884616 8.81730773,47.3461539 7.375,49.0384616 C5.99038461,50.673077 5.28846156,52.4038462 5.28846156,54.173077 C5.28846156,58.0865385 8.78846156,61.798077 15.1346154,64.6153846 C21.701923,67.5288462 30.5384616,69.1346154 40,69.1346154 C49.4615384,69.1346154 58.298077,67.5288462 64.8653846,64.6153846 C71.2115384,61.798077 74.7115384,58.0961538 74.7115384,54.173077 C74.7115384,49.2115385 69.0192308,44.5769231 59.4903846,41.7884616 L58.6346154,41.5384616 L58.6634616,40.6442308 C58.7788462,37.3942308 58.8846154,34.8557692 58.9903846,33.0961538 C59.048077,32.1346154 59.1057692,31.3846154 59.1634616,30.8653846 C59.1923077,30.5961538 59.2211539,30.3942308 59.25,30.25 L59.2692308,30.1538462 L59.3365384,29.9711538 C59.4038461,29.7596154 59.4134615,29.75 59.4326923,29.6826923 C59.5096154,29.4423077 59.5673077,29.2596154 59.625,29.0673077 C59.7115384,28.7596153 59.7884616,28.4423077 59.8653846,28.0673077 C59.9711538,27.5865384 59.9807692,27.1153846 59.9134616,26.673077 C59.8846154,26.5 59.8365385,26.3365385 59.7596154,26.1923077 C58.7307692,24.2115384 56.5192308,22.7211538 53.1923077,21.7596154 C49.701923,20.7403846 44.8942307,20.2884616 38.8846154,20.4038462 C32.6923077,20.673077 27.9326923,21.5 24.7307692,22.8365384 C21.701923,24.1057692 19.9807692,25.875 19.625,28.0961538 L19.3653846,29.7307692 L17.923077,28.9134616 C17.125,28.4615385 16.0961539,28.1442308 14.875,27.9711538 C14.673077,27.9423077 14.4711538,27.9230769 14.2692308,27.923077 Z" id="形状" fill="#1C1B55" fill-rule="nonzero"></path>
                <path d="M40.0009616,64.3846154 L39.2221154,64.3846154 C33.7317308,64.1153846 29.5778846,63.2788462 26.5201923,61.8365384 C23.0490385,60.1923077 21.0490385,57.7596154 20.5778846,54.6057692 L20.5586538,54.4326923 C20.4240384,52.6346154 20.289423,50.923077 20.164423,49.3461538 C16.9528846,47.5288462 14.7509615,46.1442308 13.4432692,45.125 C13.1932692,44.923077 12.9240384,44.701923 12.6548077,44.4615384 C12.2028846,44.0576923 11.7221153,43.5961538 11.2125,43.0673077 C10.7413462,42.576923 10.260577,42.0480769 9.74134617,41.451923 C9.41442312,41.076923 9.23173078,40.8557692 8.80865383,40.3461538 C6.02980766,36.9903846 6.0875,31.0576923 8.93365383,28.1442308 C10.8278846,26.2019231 12.9913462,25.3557692 15.2028846,25.6923077 C16.0682692,25.8173077 16.8759616,26.0096153 17.5971154,26.2596154 C18.5298077,23.201923 21.1836538,21.3942308 23.4048077,20.3846154 C26.8471153,18.8173077 31.7125,17.923077 38.2990384,17.625 L38.3567308,17.625 C51.1932692,17.3942308 58.8471154,19.8173077 61.7413462,25.0384616 C61.9721154,25.4519231 62.1259616,25.9038462 62.1932692,26.375 C62.289423,27.0673077 62.2605769,27.798077 62.1067308,28.5288462 C62.0201923,28.9615385 61.9240384,29.3269231 61.8182692,29.6923077 C61.7509616,29.9134615 61.6932692,30.125 61.5971154,30.3942308 C61.5682692,30.4807692 61.5682692,30.4807692 61.4913462,30.701923 L61.4817308,30.7211538 C61.4817308,30.7403846 61.4721154,30.7596154 61.4721154,30.7884616 C61.4528846,30.9519231 61.414423,31.2692308 61.3663462,31.8365384 C61.2894231,32.8173077 61.2028846,34.2788461 61.1259616,36.1634616 C60.9528846,39.9711539 60.7798077,45.6538462 60.5875,53.0673077 C60.5490384,54.4711538 60.1067308,55.826923 59.3086538,56.9807692 C57.5201923,59.5384616 54.8855769,61.4615384 51.4817308,62.6923077 C48.3759616,63.8173077 44.510577,64.3846153 40.0009616,64.3846154 Z M39.3278846,62.076923 C43.8567308,62.1346154 47.6932692,61.6153846 50.7125,60.5192308 C53.664423,59.4519231 55.9240384,57.8173077 57.4240384,55.6634616 C57.9721154,54.8846154 58.2701923,53.9615385 58.289423,53.0096154 C58.4721154,45.5865384 58.6548077,39.8846154 58.8278846,36.0576923 C58.914423,34.1442308 58.9913462,32.6634616 59.0778846,31.6538462 C59.1163462,31.1442308 59.1548077,30.75 59.1932692,30.4711538 C59.2028846,30.375 59.2221154,30.2884615 59.2317308,30.2307692 L59.2509616,30.1538462 L59.3086538,29.9711538 C59.3759615,29.7596154 59.3855769,29.75 59.4048077,29.6826923 C59.4817307,29.4423077 59.539423,29.2596154 59.5971154,29.0673077 C59.6836538,28.7596153 59.760577,28.4423077 59.8375,28.0673077 C59.9336538,27.5961538 59.9528846,27.1346153 59.8951923,26.7115384 C59.8663462,26.5192308 59.8086539,26.3365384 59.7125,26.173077 C58.5298077,24.0384616 56.1932692,22.4326923 52.7701923,21.4038462 C49.2125,20.3269231 44.3663462,19.8365385 38.385577,19.951923 C32.1932693,20.2307692 27.4721154,21.0865384 24.3471154,22.5096154 C21.414423,23.8365384 19.8182692,25.701923 19.5875,28.0288462 L19.414423,29.7788462 L17.8759616,28.923077 C17.0778846,28.4807693 16.0586539,28.1634616 14.8567308,27.9903846 C13.385577,27.7692308 11.9432692,28.3653846 10.5682692,29.7692308 C8.53942305,31.8461538 8.53942305,36.4423077 10.5682692,38.8846154 C10.9913462,39.3942308 11.1548077,39.5961538 11.4721154,39.951923 C11.9625,40.5192307 12.414423,41.0192307 12.8567308,41.4807692 C13.3182692,41.9615384 13.760577,42.3846154 14.164423,42.75 C14.3951923,42.9615384 14.6259615,43.1538462 14.8471154,43.3173077 C16.1163462,44.3076923 18.4528846,45.7596153 21.8086538,47.6538462 L22.3471154,47.951923 L22.3951923,48.5673077 C22.5298077,50.3173077 22.6836539,52.2307692 22.8375,54.2692308 C23.1932692,56.6153846 24.760577,58.4615384 27.4913462,59.7596154 C30.2413462,61.0384616 34.2221154,61.826923 39.3278846,62.076923 Z" id="形状" fill="#1C1B55" fill-rule="nonzero"></path>
                <path d="M22.0201923,43.6153846 L18.3759616,42.0865384 L18.289423,42.0288462 C15.4817307,40.2115385 13.5490384,38.5096154 12.5490384,36.9423077 C11.5298077,35.3653846 11.4336538,33.8942307 12.2509616,32.576923 C12.9721154,31.4134615 13.9913462,30.9423077 15.289423,31.201923 C16.2701923,31.3942307 17.3951923,32.0384615 18.385577,32.951923 C18.7798077,33.3173077 19.2125,33.7980769 19.6067308,34.3076923 C19.7701923,34.5096154 19.9144231,34.7115385 20.0298077,34.8846154 C20.0875,34.9615384 20.1259615,35.0384616 20.164423,35.0961538 L20.2221154,35.1923077 L20.2509616,35.2596154 C20.4528846,35.75 20.8375,36.548077 21.3951923,37.625 L21.5009616,37.8173077 L21.5201923,38.0384616 C21.6259616,39.1057692 21.7413462,40.3365385 21.8567308,41.701923 L22.0201923,43.6153846 Z M14.201923,33.798077 C13.9807692,34.1634616 13.7980769,34.6346154 14.4807692,35.701923 C15.0192308,36.5384615 16.2596154,37.9230769 19.0961538,39.8076923 C19.2115384,39.7692308 19.3173077,39.7403847 19.4326923,39.701923 C19.4038462,39.3942307 19.375,39.0961538 19.3557692,38.8173077 C18.4423077,37.451923 17.9134616,36.5576923 17.6442308,35.9038462 C17.5673077,35.7211538 17.5096154,35.5865385 17.3846154,35.3846154 C17.2115384,35.1057692 17.0192308,34.8557692 16.7884616,34.6442308 C16.125,34.0288462 15.3653846,33.5769231 14.8173077,33.4615384 C14.75,33.451923 14.6826923,33.4423077 14.625,33.4423077 C14.4807692,33.4423077 14.3846154,33.5192307 14.201923,33.798077 Z" id="路径-2" fill="#1C1B55"></path>
                <path d="M39.5682692,34.6826923 C34.8855769,34.6826923 30.4721154,34.1153847 27.135577,33.076923 C24.4817308,32.2596154 21.3182693,30.7596154 21.3182692,28.2403846 C21.3182692,26.2692308 23.3663462,24.451923 27.0875,23.1153846 C30.539423,21.8846154 34.9721154,21.201923 39.5586538,21.201923 C44.1451923,21.201923 48.5875,21.875 52.0298077,23.1153846 C55.7509615,24.4423077 57.7990384,26.2596154 57.7990384,28.2403846 C57.7990384,30.7596154 54.6355769,32.2596154 51.9817308,33.0865384 C48.6548077,34.1153846 44.2413462,34.6826923 39.5682692,34.6826923 Z M39.5682692,23.5192308 C35.2990384,23.5192308 31.0298077,24.1634616 27.8663462,25.298077 C24.510577,26.4903846 23.6259616,27.75 23.6259616,28.2403846 C23.6259616,28.548077 23.9432692,28.9615384 24.5009616,29.3653846 C25.2509616,29.9134616 26.3951923,30.4326923 27.8278846,30.875 C30.9528846,31.8365384 35.1163462,32.375 39.5778846,32.375 C44.039423,32.375 48.2028846,31.8461538 51.3278846,30.875 C52.7509616,30.4326923 53.9048077,29.9134616 54.6548077,29.3653846 C55.2125,28.9615384 55.5298077,28.548077 55.5298077,28.2403846 C55.5298077,27.7403846 54.6451923,26.4903846 51.289423,25.298077 C48.1067307,24.1634616 43.8375,23.5192308 39.5682692,23.5192308 Z" id="形状" fill="#1C1B55" fill-rule="nonzero"></path>
                <path d="M12.7115384,28.3461538 C11.5,28.7692308 10.4807692,29.75 9.65384617,31.298077 C8.94230773,32.5769231 8.96153852,35.4423077 9.65384617,37.2596154 C9.83653852,37.7307692 10.2403846,38.3365384 10.8846154,39.0673077 C10.1826923,35.6923077 10.1826923,33.2403846 10.8846154,31.7211538 C11.5865384,30.201923 12.1923077,29.076923 12.7115384,28.3461538 Z" id="路径" fill="#FFFFFF"></path>
                <path d="M30.0865384,29.1153846 C27.1634615,26.7211538 25.6923077,24.5 25.673077,22.4423077 C25.6442308,19.3557692 28.9903846,17.6923077 28.9903846,16.2884616 C28.9903846,15.3461539 27.8846154,13.1923077 25.673077,9.80769234 C28.9615385,11.2884616 31.0288462,12.9326923 31.875,14.7307692 C33.1442308,17.4326923 31.1634616,17.9903846 31.875,20.2307692 C32.3557692,21.7211538 31.6442308,22.8076923 29.75,23.4807692 L30.0865384,29.1153846 Z" id="路径" fill="#FFFFFF"></path>
                <path d="M30.0865384,29.9326923 C29.9038461,29.9326923 29.7211538,29.8653847 29.5673077,29.75 C26.4230769,27.173077 24.875,24.7788462 24.8557692,22.451923 C24.8365384,20.2884615 26.201923,18.7596154 27.1923077,17.6442308 C27.6057692,17.1826923 28.1730769,16.548077 28.173077,16.2884616 C28.173077,15.9423077 27.8653846,14.6538462 24.9903846,10.25 C24.7884616,9.94230766 24.8173077,9.54807695 25.0576923,9.26923078 C25.298077,8.99038461 25.6826923,8.90384617 26.0096154,9.05769234 C29.5192308,10.6346154 31.6826923,12.375 32.6153846,14.375 C33.451923,16.1538462 33.076923,17.25 32.7788462,18.1346154 C32.5673077,18.7692308 32.4134616,19.2211538 32.6538462,19.9807692 C32.9903846,21.0192308 33.125,22.875 30.5961538,24.0192308 L30.8942308,29.076923 C30.9134616,29.4038461 30.7403846,29.701923 30.451923,29.8557692 C30.3365384,29.9038462 30.2115384,29.9326923 30.0865384,29.9326923 Z M27.9711538,11.9423077 C29.5673077,14.6442307 29.8076923,15.6923077 29.8076923,16.2884616 C29.8076923,17.1634616 29.1634616,17.8942308 28.4134616,18.7307692 C27.5,19.75 26.4711539,20.9134616 26.4903846,22.4326923 C26.5,23.875 27.4038462,25.4615385 29.1538462,27.1923077 L28.9326923,23.5192308 C28.9134616,23.1538462 29.1346154,22.8269231 29.4711538,22.701923 C31.5673077,21.951923 31.25,20.951923 31.0961538,20.4711538 C30.6923077,19.201923 30.9903846,18.3173077 31.2307692,17.6057692 C31.4903846,16.8557692 31.6923077,16.2596154 31.1346154,15.0673077 C30.625,13.9903846 29.5673077,12.9326923 27.9711538,11.9423077 Z" id="形状" fill="#1C1B55" fill-rule="nonzero"></path>
                <path d="M45.9711538,31.1538462 L45.9134616,31.1538462 C43.4038462,30.9326923 42.5961539,29.548077 42.3653846,28.4326923 C42.0288462,26.8173077 42.673077,25.548077 44.2211538,24.7596154 C44.5288462,24.6057692 44.9038462,24.7211538 45.0576923,25.0288462 C45.2115385,25.3365385 45.0961539,25.7115385 44.7884616,25.8653846 C43.7403846,26.4038462 43.3653846,27.1153846 43.5865384,28.173077 C43.7211538,28.8365385 44.125,29.7307693 46.0288462,29.9038462 C46.375,29.9326923 46.625,30.2403846 46.5961538,30.576923 C46.5576923,30.9134615 46.2884615,31.1538461 45.9711538,31.1538462 Z" id="路径" fill="#1C1B55"></path>
                <path d="M25.673077,34.5192308 C30.1538462,36.6057692 34.9326923,37.6538462 40,37.6538462 C45.0673077,37.6538462 50.076923,36.3269231 55.0288462,33.6634616 C48.25,35.3269231 43.25,36.2115385 40,36.3076923 C36.7596154,36.4038462 31.9807692,35.8076923 25.673077,34.5192308 Z" id="路径" fill="#FFFFFF"></path>
                <path d="M60.7211538,10.9711538 C61.576923,11.6153846 61.75,12.826923 61.1057692,13.6826923 L50.1153846,28.2692308 C49.6346154,28.9038462 48.7307692,29.0288462 48.0961538,28.5576923 L47.3076923,27.9615384 C46.673077,27.4807692 46.548077,26.576923 47.0192308,25.9423077 L58.0096154,11.3557692 C58.6538462,10.5 59.8653846,10.326923 60.7211538,10.9711538 Z" id="路径" fill="url(#linearGradient-1)"></path>
                <path d="M48.9615384,29.798077 C48.4615384,29.798077 47.951923,29.6442308 47.5192308,29.3173077 L46.7307692,28.7211538 C46.2211538,28.3365384 45.8846154,27.7692308 45.798077,27.1346154 C45.7115385,26.5 45.875,25.8653846 46.2596154,25.3557692 L57.2403846,10.7788462 C58.201923,9.5 60.0288462,9.25 61.298077,10.2115384 C62.5769231,11.1730769 62.8269231,13 61.8653846,14.2692308 L50.8846154,28.8461538 C50.4134616,29.4711538 49.6923077,29.7980769 48.9615384,29.798077 Z M59.5576923,11.548077 C59.2596154,11.548077 58.9711539,11.6826923 58.7788462,11.9326923 L47.7884616,26.5096154 C47.6826923,26.6442308 47.6826923,26.7884616 47.6923077,26.8653846 C47.701923,26.9423077 47.7403846,27.076923 47.875,27.1826923 L48.6634616,27.7788462 C48.875,27.9423077 49.173077,27.8942308 49.3365384,27.6826923 L60.3365384,13.1153846 C60.6634615,12.6826923 60.576923,12.0673077 60.1442308,11.75 C59.9711538,11.6057692 59.7596154,11.548077 59.5576923,11.548077 Z" id="形状" fill="#1C1B55" fill-rule="nonzero"></path>
            </g>
        </g>
    </g>
</svg>