<?xml version="1.0" encoding="UTF-8"?>
<svg width="80px" height="80px" viewBox="0 0 80 80" version="1.1" xmlns="http://www.w3.org/2000/svg" xmlns:xlink="http://www.w3.org/1999/xlink">
    <!-- Generator: Sketch 52.5 (67469) - http://www.bohemiancoding.com/sketch -->
    <title>play</title>
    <desc>Created with Sketch.</desc>
    <defs>
        <linearGradient x1="100%" y1="100%" x2="0%" y2="0%" id="linearGradient-1">
            <stop stop-color="#2853FF" offset="0%"></stop>
            <stop stop-color="#933EFE" offset="100%"></stop>
        </linearGradient>
    </defs>
    <g id="Symbols" stroke="none" stroke-width="1" fill="none" fill-rule="evenodd">
        <g id="play">
            <g>
                <rect id="矩形" fill="#000000" opacity="0" x="0" y="0" width="80" height="80" rx="9"></rect>
                <path d="M17.4076047,68.7396044 C15.3696309,68.7396044 13.2734292,68.2737818 11.4101389,67.4003645 C7.68355821,65.6535298 4.83039488,62.3927717 3.66583842,58.4915075 C2.50128196,54.5320156 3.08356019,50.2813845 5.23798964,46.7877151 L15.2531752,30.7750638 C18.3974777,25.5927875 24.9189938,23.6712693 30.3924092,26.1750657 C32.7215221,27.2813944 34.6430403,29.0864569 35.8658246,31.2991142 L44.0759476,31.2991142 C45.2987319,29.0282291 47.2202501,27.2231666 49.549363,26.1750657 C55.0227783,23.6712693 61.5442945,25.5927875 64.7468248,30.7168359 L74.7620104,46.7294873 C76.9164398,50.2231567 77.498718,54.4737877 76.3341616,58.4332797 C75.1696051,62.3927717 72.3164418,65.6535298 68.5898611,67.3421366 C64.8632804,69.0889713 60.5544215,69.0889713 56.769613,67.4585923 C52.9848045,65.7699854 50.1316412,62.5674551 48.8506291,58.666191 L48.7924013,58.4915075 L31.1493709,58.4915075 L31.0911431,58.666191 C29.8683588,62.5674551 26.9569676,65.8282132 23.1721591,67.4585923 C21.3670966,68.3320096 19.3873506,68.7396044 17.4076047,68.7396044 Z M25.3848164,27.39785 C22.1240583,27.39785 18.9797559,29.0282291 17.1746934,31.9396202 L7.1595078,48.0104994 C5.35444529,50.9218905 4.83039488,54.5320156 5.82026787,57.8510015 C6.81014086,61.1699874 9.19748161,63.9066951 12.2835562,65.3041628 C15.4278587,66.7598584 19.0379837,66.7598584 22.1822861,65.3623906 C25.3265886,63.9649229 27.7721572,61.286443 28.820258,57.9674571 L29.1113971,56.9775841 C29.2860806,56.5117615 29.6936753,56.1623946 30.2177257,56.1623946 L49.6075908,56.1623946 C50.1316412,56.1623946 50.539236,56.5117615 50.7139194,56.9775841 L51.0050586,57.9674571 C52.0531594,61.286443 54.4405001,63.9649229 57.6430304,65.3623906 C60.7873328,66.7598584 64.3974579,66.7016306 67.5417603,65.3041628 C70.6860627,63.8484672 73.0151757,61.1117596 74.0050487,57.7927737 C74.9949216,54.4737877 74.5290991,50.9218905 72.6658087,47.9522716 L62.8253066,31.997848 C60.2632824,27.8636726 54.9645505,26.2915214 50.5974638,28.3294952 C48.55949,29.2611404 46.8708831,30.9497472 45.8810101,33.0459489 C45.7063267,33.4535436 45.2987319,33.7446827 44.8329093,33.7446827 L35.1670907,33.7446827 C34.7012681,33.7446827 34.2936733,33.4535436 34.1189899,33.0459489 C33.1291169,30.9497472 31.4987378,29.3193682 29.4025362,28.3294952 C28.1215241,27.6889891 26.7240563,27.39785 25.3848164,27.39785 Z M45.939238,25.9421544 C45.6480988,25.9421544 45.3569597,25.8256988 45.1240484,25.5927875 C42.2708851,22.7396242 37.6708871,22.7396242 34.8759516,25.5927875 C34.410129,26.0586101 33.7113951,26.0586101 33.2455725,25.5927875 C32.7797499,25.1269649 32.7797499,24.428231 33.2455725,23.9624085 C36.9721532,20.2358278 43.0278468,20.2358278 46.8126553,23.9624085 C47.2784779,24.428231 47.2784779,25.1269649 46.8126553,25.5927875 C46.5215162,25.8256988 46.2303771,25.9421544 45.939238,25.9421544 Z M50.2480969,21.6915234 C49.9569577,21.6915234 49.6658186,21.5750677 49.4329073,21.3421564 C46.8708831,18.83836 43.5518972,17.4408923 40,17.4408923 C36.4481028,17.4408923 33.1291169,18.83836 30.5670927,21.3421564 C30.1012701,21.807979 29.4025362,21.807979 28.9367136,21.3421564 C28.470891,20.8763338 28.470891,20.1776 28.9367136,19.7117774 C31.9063326,16.7421584 35.8075967,15.1117794 40,15.1117794 C44.1924033,15.1117794 48.0936674,16.7421584 51.0632864,19.7117774 C51.529109,20.1776 51.529109,20.8763338 51.0632864,21.3421564 C50.8303751,21.5750677 50.539236,21.6915234 50.2480969,21.6915234 Z M54.3822723,17.4991201 C54.0911332,17.4991201 53.7999941,17.3826645 53.5670828,17.1497532 C46.1139214,9.69659182 33.9443064,9.69659182 26.4329172,17.1497532 C25.9670946,17.6155757 25.2683608,17.6155757 24.8025382,17.1497532 C24.3367156,16.6839306 24.3367156,15.9851967 24.8025382,15.5193741 C33.1873447,7.1345676 46.8126553,7.1345676 55.1974618,15.5193741 C55.6632844,15.9851967 55.6632844,16.6839306 55.1974618,17.1497532 C54.9645505,17.3826645 54.6734114,17.4991201 54.3822723,17.4991201 Z M42.2708851,43.2934624 L37.7291149,43.2934624 C37.379748,43.2934624 37.1468367,42.8626932 37.1468367,42.2165393 C37.1468367,41.5703855 37.379748,41.1396163 37.7291149,41.1396163 L42.2708851,41.1396163 C42.620252,41.1396163 42.8531633,41.5703855 42.8531633,42.2165393 C42.8531633,42.8626932 42.5620242,43.2934624 42.2708851,43.2934624 Z M42.2708851,50.9795351 L37.7291149,50.9795351 C37.379748,50.9795351 37.1468367,50.5487658 37.1468367,49.902612 C37.1468367,49.2564581 37.379748,48.8256889 37.7291149,48.8256889 L42.2708851,48.8256889 C42.620252,48.8256889 42.8531633,49.2564581 42.8531633,49.902612 C42.8531633,50.5487658 42.5620242,50.9795351 42.2708851,50.9795351 Z M56.8860687,42.4788562 C55.6050566,42.4788562 54.5569558,41.4307554 54.5569558,40.1497433 C54.5569558,38.8687312 55.6050566,37.8206303 56.8860687,37.8206303 C58.1670808,37.8206303 59.2151816,38.8687312 59.2151816,40.1497433 C59.2151816,41.4307554 58.1670808,42.4788562 56.8860687,42.4788562 Z M56.8860687,39.0434146 C56.2455626,39.0434146 55.7215122,39.567465 55.7215122,40.2079711 C55.7215122,40.8484771 56.2455626,41.3725276 56.8860687,41.3725276 C57.5265747,41.3725276 58.0506251,40.8484771 58.0506251,40.2079711 C58.0506251,39.567465 57.5265747,39.0434146 56.8860687,39.0434146 Z M56.8860687,52.8434087 C55.6050566,52.8434087 54.5569558,51.7953079 54.5569558,50.5142958 C54.5569558,49.2332837 55.6050566,48.1851828 56.8860687,48.1851828 C58.1670808,48.1851828 59.2151816,49.2332837 59.2151816,50.5142958 C59.2151816,51.7953079 58.1670808,52.8434087 56.8860687,52.8434087 Z M56.8860687,49.3497393 C56.2455626,49.3497393 55.7215122,49.8737897 55.7215122,50.5142958 C55.7215122,51.1548018 56.2455626,51.6788522 56.8860687,51.6788522 C57.5265747,51.6788522 58.0506251,51.1548018 58.0506251,50.5142958 C58.0506251,49.8737897 57.5265747,49.3497393 56.8860687,49.3497393 Z M62.0683449,47.6611324 C60.7873328,47.6611324 59.739232,46.6130316 59.739232,45.3320195 C59.739232,44.0510074 60.7873328,43.0029066 62.0683449,43.0029066 C63.349357,43.0029066 64.3974579,44.0510074 64.3974579,45.3320195 C64.3974579,46.6130316 63.349357,47.6611324 62.0683449,47.6611324 Z M62.0683449,44.2256909 C61.4278389,44.2256909 60.9037885,44.7497413 60.9037885,45.3902473 C60.9037885,46.0307534 61.4278389,46.5548038 62.0683449,46.5548038 C62.708851,46.5548038 63.2329014,46.0307534 63.2329014,45.3902473 C63.2329014,44.7497413 62.708851,44.2256909 62.0683449,44.2256909 Z M51.7037924,47.6611324 C50.4227803,47.6611324 49.3746795,46.6130316 49.3746795,45.3320195 C49.3746795,44.0510074 50.4227803,43.0029066 51.7037924,43.0029066 C52.9848045,43.0029066 54.0329054,44.0510074 54.0329054,45.3320195 C54.0329054,46.6130316 52.9848045,47.6611324 51.7037924,47.6611324 Z" id="形状" fill="#1C1B55" fill-rule="nonzero"></path>
                <path d="M22.240514,54.1244208 C17.291149,54.1244208 13.2152014,50.0484732 13.2152014,45.0991082 C13.2152014,40.1497433 17.291149,36.1320235 22.240514,36.1320235 C27.1898789,36.1320235 31.2075987,40.1497433 31.2075987,45.0991082 C31.2075987,50.0484732 27.1898789,54.1244208 22.240514,54.1244208 Z" id="路径" stroke="#1C1B55" stroke-width="1.6" fill="url(#linearGradient-1)" fill-rule="nonzero"></path>
                <path d="M16.9417821,45.9210487 C16.5924151,45.9210487 16.1971342,45.5518179 16.1971342,44.9979718 C16.1971342,44.4441256 16.5924151,44.0748948 16.9417821,44.0748948 L27.5392459,44.0748948 C27.8886128,44.0748948 28.2596529,44.4441256 28.2596529,44.9979718 C28.2596529,45.4595102 27.8886128,45.9210487 27.5392459,45.9210487 L16.9417821,45.9210487 Z" id="路径" fill="#1C1B55" fill-rule="nonzero"></path>
                <path d="M22.5813127,51.1152532 C22.0538401,51.1152532 21.6582357,50.6889792 21.6582357,50.3978401 L21.7461478,39.8003763 C21.7461478,39.4510094 22.0538401,39.0434146 22.5813127,39.0434146 C23.1087852,39.0434146 23.5043896,39.5092372 23.5043896,39.8003763 L23.4164775,50.3978401 C23.4164775,50.6889792 23.0208731,51.1152532 22.5813127,51.1152532 Z" id="路径" fill="#1C1B55" fill-rule="nonzero"></path>
                <path d="M56.8860687,39.0434146 C56.2455626,39.0434146 55.7215122,39.567465 55.7215122,40.2079711 C55.7215122,40.8484771 56.2455626,41.3725276 56.8860687,41.3725276 C57.5265747,41.3725276 58.0506251,40.8484771 58.0506251,40.2079711 C58.0506251,39.567465 57.5265747,39.0434146 56.8860687,39.0434146 Z" id="路径" fill="#FFFFFF"></path>
                <path d="M56.8860687,49.3497393 C56.2455626,49.3497393 55.7215122,49.8737897 55.7215122,50.5142958 C55.7215122,51.1548018 56.2455626,51.6788522 56.8860687,51.6788522 C57.5265747,51.6788522 58.0506251,51.1548018 58.0506251,50.5142958 C58.0506251,49.8737897 57.5265747,49.3497393 56.8860687,49.3497393 Z" id="路径" fill="#FFFFFF"></path>
                <path d="M51.7037924,44.2256909 C51.0632864,44.2256909 50.539236,44.7497413 50.539236,45.3902473 C50.539236,46.0307534 51.0632864,46.5548038 51.7037924,46.5548038 C52.3442985,46.5548038 52.8683489,46.0307534 52.8683489,45.3902473 C52.8683489,44.7497413 52.3442985,44.2256909 51.7037924,44.2256909 Z" id="路径" fill="#FFFFFF" fill-rule="nonzero"></path>
                <path d="M62.0683449,44.2256909 C61.4278389,44.2256909 60.9037885,44.7497413 60.9037885,45.3902473 C60.9037885,46.0307534 61.4278389,46.5548038 62.0683449,46.5548038 C62.708851,46.5548038 63.2329014,46.0307534 63.2329014,45.3902473 C63.2329014,44.7497413 62.708851,44.2256909 62.0683449,44.2256909 Z" id="路径" fill="#FFFFFF"></path>
            </g>
        </g>
    </g>
</svg>