<?xml version="1.0" encoding="UTF-8"?>
<svg width="80px" height="80px" viewBox="0 0 80 80" version="1.1" xmlns="http://www.w3.org/2000/svg" xmlns:xlink="http://www.w3.org/1999/xlink">
    <!-- Generator: Sketch 52.5 (67469) - http://www.bohemiancoding.com/sketch -->
    <title>sport</title>
    <desc>Created with Sketch.</desc>
    <defs>
        <linearGradient x1="100%" y1="100%" x2="0%" y2="0%" id="linearGradient-1">
            <stop stop-color="#2853FF" offset="0%"></stop>
            <stop stop-color="#933EFE" offset="100%"></stop>
        </linearGradient>
        <linearGradient x1="0%" y1="100%" x2="125.798988%" y2="37.9551961%" id="linearGradient-2">
            <stop stop-color="#2853FF" offset="0%"></stop>
            <stop stop-color="#933EFE" offset="100%"></stop>
        </linearGradient>
    </defs>
    <g id="Symbols" stroke="none" stroke-width="1" fill="none" fill-rule="evenodd">
        <g id="sport">
            <g>
                <rect id="矩形" fill="#000000" opacity="0" x="0" y="0" width="80" height="80"></rect>
                <g id="分组-8" transform="translate(0.000000, 14.000000)">
                    <path d="M70.117004,45.7696356 C69.9494939,45.7725708 69.776923,45.7621457 69.5949393,45.747672 C68.7585021,45.6854251 67.1564778,45.4265182 64.6924089,44.9387652 L64.3266194,44.8645749 L63.9467611,44.3740891 L63.7411943,44.4376518 L63.4945344,44.394332 C62.3848178,44.1993927 61.2791498,43.8954453 60.1828947,43.4960526 C59.1185223,43.0996964 57.6945344,42.4656882 55.9295547,41.602328 L55.665587,41.4736842 L55.4704453,41.1652834 L55.1713562,41.2647773 L48.7358299,38.3993927 L48.3220648,37.8607288 L47.7464575,37.9589069 L42.7257085,35.723583 L42.5871457,35.362753 L41.9859312,35.3942308 L36.2531377,32.8418016 L35.9257085,32.3082996 L35.0419028,32.3025303 L28.3659919,29.3302632 L27.8453442,28.7327935 L27.3119433,28.8609312 L26.9924089,28.7075911 C23.8682186,27.2389676 21.6635627,26.0691296 20.2449393,25.1494939 C19.9881579,24.9797571 19.7549595,24.8316802 19.5309716,24.6875506 C17.8936234,23.637247 16.9135627,23.0015182 16.2855263,21.625 C15.4512146,19.7910931 15.6980769,18.0175101 17.0300607,16.1952429 C17.862247,15.0478745 18.8389676,14.2972672 19.9337044,13.9537449 C20.1647773,12.5387651 20.5581984,11.2071862 21.1057692,9.97732796 C21.7397773,8.55344128 22.5843118,7.27864375 23.6004049,6.19099194 L26.3074899,2.79827936 C27.3196356,1.42085025 28.9802632,-0.044534375 31.2087044,0.947570888 C32.5032388,1.52398791 32.6020243,2.72024293 32.6722672,3.68218627 C32.7731781,5.02338059 32.9148785,6.87024293 35.8205465,9.22753035 C36.1030364,9.46406883 37.0257085,9.73087039 38.6381579,9.71751012 C39.9741903,9.70303643 41.0800607,9.50850206 41.3380567,9.40172064 L41.3864373,9.36791497 L41.4532389,9.3422065 C41.6248988,9.23036439 41.9613361,8.64888668 42.1846154,8.27186234 C42.6640688,7.44392714 43.2608299,6.40222673 44.2375506,5.75131579 C45.975,4.5860324 46.7941295,4.56295543 48.1031377,4.95738865 C49.3155871,5.31993923 50.1360324,6.3389676 50.8609312,7.24888668 C50.9327935,7.33623487 50.9955465,7.41953446 51.0580972,7.50283405 C51.5663968,8.12793528 52.0714576,8.98431176 52.5938259,10.1254049 L54.2141701,12.109919 L66.077328,26.7980769 C68.7053644,29.5303643 70.7265183,31.4606275 72.0987854,32.5590081 C73.4526316,33.6492914 75.3498988,34.8374493 77.7219636,36.1041498 L77.9449393,36.2256073 L78.0856275,36.4321863 C78.8186235,37.523077 79.0923077,38.6752025 78.8869433,39.857996 C78.7116397,40.8988867 78.2103239,42.0495951 77.3997975,43.2729757 C76.9490891,44.1359312 76.2601214,44.737753 75.3637652,45.0588057 C74.6144737,45.3234818 73.4653846,45.4655871 71.8539474,45.5015183 C71.3451417,45.6737854 70.7696356,45.7720648 70.1171053,45.7696356 L70.117004,45.7696356 Z M65.4541498,43.0287449 C67.5976721,43.4402834 69.0444332,43.6744939 69.7493927,43.7335021 C70.3587044,43.7832996 70.8501012,43.725 71.2047571,43.5505061 L71.4001012,43.4602227 L71.612753,43.4551619 C73.4421053,43.4276316 74.2951417,43.2534413 74.6744939,43.1231781 C75.0979757,42.9683198 75.3941295,42.7013158 75.6152834,42.2790486 L75.640081,42.223583 L75.6739878,42.1722672 C76.340587,41.1727733 76.7532388,40.2707489 76.886336,39.4989878 C76.9822874,38.9102226 76.8706478,38.3397773 76.522672,37.7527328 C74.1546558,36.4769231 72.2337044,35.2671053 70.8234817,34.1295547 C69.3854251,32.9796559 67.2789474,30.9671053 64.5842105,28.1608299 L64.5267206,28.0908907 L52.6441295,13.3718623 L50.8696356,11.1859312 L50.8142712,11.0614373 C50.3473684,10.0448381 49.9090081,9.26244942 49.4921053,8.75556678 L49.2765183,8.49342105 C48.7343118,7.81983808 48.1294535,7.06305666 47.5232794,6.88188257 C46.7978745,6.66963561 46.5862348,6.59757081 45.3586032,7.41376521 C44.773583,7.8069838 44.3446356,8.54665995 43.9279352,9.25860321 C43.4566801,10.0680162 43.0153846,10.8355263 42.2690284,11.167915 C41.4897774,11.5743927 39.7241903,11.7078947 38.7642712,11.723583 C37.3923076,11.744332 35.5282388,11.6013158 34.52166,10.776417 C30.952328,7.8688259 30.7525304,5.33137656 30.6394737,3.81862352 C30.5671053,2.91113363 30.5188259,2.84524293 30.3709514,2.77945345 C30.0103238,2.6188259 29.1781377,2.24838059 27.9293522,4.00799597 L27.8954453,4.05931176 L25.1245951,7.54544531 L25.0988867,7.57834005 C24.2206478,8.50576916 23.499494,9.60283396 22.9520243,10.8325911 C22.4004049,12.0715587 22.0274291,13.4566802 21.8445344,14.9374494 L21.7473684,15.7030364 L20.9776316,15.8144737 C20.1266194,15.9342105 19.3709514,16.4619433 18.6704453,17.4130567 C18.0091093,18.3263158 17.4761133,19.3741903 18.1390688,20.8215587 C18.4961539,21.6120446 19.0199393,21.9782389 20.6338057,23.0069838 C20.8576924,23.1510122 21.1002025,23.3032389 21.3569838,23.4729757 C22.6266194,24.3042511 24.7100202,25.398077 27.5435223,26.7481781 L28.5743927,26.4981781 L29.6106275,27.6795547 L35.4912956,30.2978745 L37.0728745,30.3039474 L37.6641701,31.2652834 L42.3798583,33.3647773 L43.9573887,33.2805668 L44.32166,34.2293522 L48.0201417,35.8761133 L49.1980769,35.6692308 L50.0359312,36.7734817 L55.269332,39.1036437 L56.3311741,38.7343118 L57.0734817,39.9289474 C58.657591,40.7008097 59.937753,41.2596154 60.8870446,41.6158907 C61.7809717,41.9473684 62.6892713,42.19666 63.5945344,42.3780364 L64.6624494,42.0448381 L65.4541498,43.0288461 L65.4541498,43.0287449 Z" id="形状" fill="#1C1B55" fill-rule="nonzero"></path>
                    <path d="M74.9847166,43.2724697 C70.0322875,43.2722672 65.3539474,42.3082996 61.0727733,40.4022267 C53.9346154,37.2240891 51.3164979,35.017004 48.2978745,32.4653846 C46.0658907,30.5853239 43.5371457,28.4512146 38.5907895,25.5510122 C34.942915,23.4172065 28.3975709,20.3257086 19.1222672,16.3733806 L19.917915,14.5117409 C29.2671053,18.4970647 35.8956478,21.6255061 39.6134615,23.8015183 C44.7088057,26.7902835 47.3125506,28.9798583 49.5968623,30.9164979 C52.5065789,33.3642712 55.0169028,35.4900809 61.8962551,38.5530364 C66.3992915,40.5578947 71.3643725,41.4501012 76.6591093,41.2038461 L76.7544535,43.2294535 C76.1532389,43.2608299 75.5694332,43.2780364 74.9847166,43.2724697 Z M63.6322874,30.2740891 C63.3650809,30.2771255 63.1020243,30.1710526 62.897672,29.9580972 C62.5125506,29.5540486 62.5293522,28.9189271 62.9376518,28.5245951 C64.0718623,27.4452429 65.1384615,26.1695345 65.4543522,25.5347166 C65.3546558,25.5346154 65.1881579,25.5601215 64.9342105,25.6575911 L64.3974697,26.1165992 C63.9697368,26.4801619 63.3285425,26.427328 62.9741903,26.0036437 C62.6107288,25.5759109 62.6634615,24.9347166 63.0871457,24.5804656 L63.7504049,24.0115385 C63.8268028,23.9427111 63.9148976,23.888106 64.0105263,23.8503036 C64.6909919,23.5660931 65.2799595,23.4626518 65.8132591,23.5340081 C66.4606275,23.6227733 66.9876518,23.957085 67.3479757,24.5163968 C68.0296559,25.5732794 67.0761134,26.9435223 66.0610324,28.1535425 C65.2433198,29.1191295 64.3743928,29.9509109 64.3353238,29.9888664 C64.1359312,30.1881579 63.8860323,30.2763158 63.6322874,30.2740891 Z M60.6940284,25.6754049 C60.4268219,25.67834 60.1638664,25.5722672 59.959413,25.359413 C59.5742915,24.9552632 59.5911944,24.3201418 59.9993927,23.9258097 C61.8854251,22.1286437 62.4183198,21.2800607 62.5705465,20.9379554 C62.4843118,20.9328947 62.2992914,20.9501012 61.9826923,21.0639676 L61.1076923,21.7602227 C60.6747975,22.1104252 60.0324898,22.0349191 59.6823887,21.6020243 C59.3321862,21.1691295 59.4076923,20.526923 59.840587,20.1767206 L60.8245951,19.3850202 C60.8944332,19.3275303 60.9828947,19.2782388 61.0672065,19.2382591 C61.7476721,18.9540486 62.3366397,18.8506073 62.8699393,18.9218623 C63.5173077,19.0107287 64.044332,19.3449392 64.4046558,19.9043522 C65.2710526,21.242915 63.8209514,23.0568826 61.392004,25.3768219 C61.197672,25.5893725 60.9478745,25.6776316 60.6940284,25.6754049 Z M57.4595141,21.7424089 C57.1923076,21.7453441 56.9291498,21.6392712 56.7247975,21.426417 C56.3396761,21.0222672 56.3565789,20.387247 56.7648785,19.9928137 C58.6508097,18.1956478 59.1837044,17.3470647 59.3359312,17.0049595 C59.2496964,16.9998988 59.0554655,17.0130567 58.7213563,17.1412956 L57.8258097,17.7840081 C57.6078225,17.9418674 57.3358681,18.0062451 57.0702436,17.9628674 C56.8046191,17.9194896 56.5672733,17.7719409 56.4108299,17.5529352 C56.2529809,17.3349356 56.1886196,17.0629727 56.2320165,16.7973473 C56.2754134,16.5317218 56.4229824,16.2943834 56.642004,16.1379554 L57.6382591,15.4182186 C57.7,15.3791498 57.7616397,15.3401822 57.8325911,15.3052632 C58.5130567,15.0210526 59.1020243,14.9176113 59.6353238,14.9888664 C60.2826923,15.0777327 60.8097165,15.4120445 61.1700405,15.9713562 C62.0364373,17.309919 60.586336,19.1238866 58.1573887,21.4438259 C57.9537449,21.652328 57.7039474,21.7404859 57.459413,21.7424089 L57.4595141,21.7424089 Z M54.215587,17.8052632 C53.9483805,17.8082996 53.6853238,17.7022267 53.4809716,17.4893725 C53.0958502,17.0852226 53.112753,16.4501012 53.5209514,16.0557692 C55.4068826,14.2585021 55.9397773,13.4100202 56.0921053,13.067915 C55.9965587,13.0586032 55.7981781,13.0810729 55.44666,13.2236842 L54.6612348,13.6938259 C54.1800607,13.9782389 53.5614373,13.8246964 53.2771255,13.3436235 C52.9927125,12.8623482 53.1463563,12.243826 53.6274291,11.9595141 L54.4838057,11.4544535 C54.5280364,11.4297571 54.5681174,11.4143725 54.6123482,11.3896762 C55.2928138,11.1055669 55.8817814,11.0021256 56.415081,11.0733806 C57.0624494,11.1621458 57.5894737,11.4964575 57.9497975,12.0558705 C58.8161943,13.3944332 57.3660931,15.2084008 54.9371457,17.52834 C54.7192308,17.719332 54.4694331,17.8074899 54.2154859,17.8052632 L54.215587,17.8052632 Z" id="形状" fill="#1C1B55" fill-rule="nonzero"></path>
                    <path d="M27.6201417,17.9409919 C28.448583,14.6869433 28.6802632,12.3747976 28.3009109,10.9871457 C27.92166,9.59949391 26.7568826,8.58238865 24.8026316,7.94504046 C23.8380567,8.9669028 23.157085,9.9488866 22.7648785,10.9044535 C22.3676113,11.8465587 22.0305668,13.3251012 21.7486842,15.3268219 L27.6201417,17.9409919 Z" id="路径" fill="url(#linearGradient-1)"></path>
                    <path d="M28.9882591,20.7659919 L19.5383604,16.5586032 L19.7428137,15.054251 C20.0474696,12.8521255 20.423583,11.2358299 20.8950405,10.127328 C21.3818826,8.95910938 22.2027327,7.76244942 23.3318826,6.57004046 L24.2142712,5.63340082 L25.4277328,6.01852229 C28.0621458,6.87014169 29.6879555,8.36953446 30.2569838,10.4510122 C30.7397773,12.2281377 30.5223684,14.757085 29.5816802,18.4376518 L28.9882591,20.7659919 Z M21.7486842,15.3268219 L27.6201417,17.9409919 C28.4495951,14.7095142 28.6751012,12.3614373 28.3009109,10.9871457 C27.9308705,9.60364367 26.747672,8.57823882 24.8026316,7.94504046 C23.8380567,8.9669028 23.1529352,9.95819836 22.7648785,10.9044535 C22.3717611,11.837247 22.0305668,13.3251012 21.7486842,15.3268219 Z" id="形状" fill="#1C1B55" fill-rule="nonzero"></path>
                    <path d="M43.6294535,35.0623482 C43.362247,35.0652834 43.0950405,34.9685223 42.8866396,34.7647773 C42.4470647,34.3586032 42.4248988,33.6618421 42.8311741,33.2222672 L45.8535425,29.9922065 C46.2598178,29.5526316 46.9565789,29.5304656 47.3961539,29.9367409 C47.8357288,30.342915 47.8578947,31.0396761 47.4517206,31.479251 L44.429251,34.7093118 C44.213259,34.9455465 43.9285425,35.0625507 43.6294535,35.0623482 Z M36.9720648,32.0981781 C36.7048583,32.1012146 36.4376518,32.0043522 36.2343118,31.8141701 C35.7855263,31.4038462 35.7592105,30.7162956 36.1695344,30.2674089 L40.50334,25.5604251 C40.9136639,25.1116396 41.6012146,25.0853238 42.05,25.4956478 C42.4987854,25.9059716 42.5251012,26.5935223 42.1147773,27.0424089 L37.7810729,31.7493927 C37.559919,31.9722672 37.2618421,32.094332 36.9720648,32.0982794 L36.9720648,32.0981781 Z M28.6421053,28.3119433 C28.3974697,28.3139676 28.1580972,28.2294535 27.959919,28.0525303 C27.5398785,27.6772267 27.515587,27.034919 27.8868421,26.6240891 L32.3326923,21.6899798 C32.7080971,21.2699393 33.3504049,21.2456478 33.7612348,21.6169028 C34.1812752,21.9923076 34.2055668,22.6346154 33.8343118,23.0454453 L29.3883604,27.9795547 C29.1940284,28.1921053 28.9226721,28.3039474 28.6421053,28.3119433 Z M21.0600202,24.9362348 C20.8154859,24.9381579 20.5760122,24.8537449 20.377834,24.6768219 C19.9577936,24.301417 19.9335021,23.6591093 20.3047571,23.2482794 L24.7640688,18.3091093 C25.1393725,17.8890688 25.7816802,17.8647773 26.1925101,18.2360324 C26.6125506,18.6114373 26.6368421,19.253745 26.265587,19.6645749 L21.8197368,24.598583 C21.6212551,24.8204453 21.340587,24.9282388 21.0600202,24.9362348 Z" id="形状" fill="#1C1B55" fill-rule="nonzero"></path>
                    <path d="M3.340081,39.6663968 C7.46963569,38.7048583 10.7793522,37.7331984 13.2388664,36.7615385 C18.4210526,34.7170041 26.5587044,31.0935223 37.6518219,25.8910931 C40.2327935,23.8263158 42.0242915,23.0773279 43.0465587,23.6441295 C44.0688259,24.2109312 44.7469636,25.4052632 45.0809716,27.2473684 C47.722672,30.445749 49.7368421,31.9234817 51.1234817,31.6906882 C52.0546558,31.5388664 54.7267206,31.0732794 56.2955465,29.7271255 C58.208502,28.0874493 58.9979757,25.557085 59.6862348,25.8910931 C60.9311741,26.488259 61.6093117,25.6785425 62.1862348,27.2473684 C62.5708502,28.2898785 63.1376518,30.5469636 63.8866396,34.0287449 L63.8866396,39.9093118 L63.6133604,42.1967611 L64.8178137,43.3202429 C65.5566801,44.5449393 65.8400809,45.557085 65.6680162,46.3465587 C65.4048583,47.5307692 64.159919,49.8182187 63.8866396,49.8182186 C63.6133603,49.8182185 59.5040485,50.5975708 59.1700405,50.5975709 L19.1093118,50.5975709 C13.0465587,50.5469636 9.79757089,50.4052632 9.38259112,50.1623482 C8.96761135,49.9194332 7.54048586,49.3222672 5.11133602,48.3404859 C2.48987854,46.5591094 1.1639676,45.3748988 1.13360321,44.7676113 C1.10323882,44.1603238 1.32591094,42.8141701 1.78137648,40.7089069 L3.340081,39.6663968 Z" id="路径" fill="#FFFFFF"></path>
                    <path d="M18.1477733,51.9133604 C17.3582996,51.9133604 16.6801619,51.8931174 16.1133604,51.862753 C14.9595142,51.7919029 13.8157895,51.6097166 12.722672,51.3364373 L12.4797571,51.2757085 L12.3178137,51.1340081 L11.7712551,51.4275303 L11.4068826,51.3465587 C8.96761135,50.7797571 7.38866398,50.3647773 6.5991903,50.0914979 C5.77935222,49.7979757 5.13157895,49.4032388 4.65587048,48.9174089 C3.19838059,48.2291498 2.2064778,47.6319838 1.62955469,47.0854251 C0.941295559,46.4275303 0.556680181,45.6076923 0.495951398,44.6259109 C0.253036431,43.1785425 0.263157895,41.9234818 0.526315789,40.9012146 C0.819838076,39.737247 1.53846151,38.7959514 2.65182188,38.0975709 L2.86437245,37.9659919 L3.11740888,37.945749 C5.79959515,37.7534413 8.00607286,37.4396762 9.69635625,36.994332 C11.3866396,36.5489878 14.02834,35.6076924 17.5404859,34.1805668 L34.3421053,25.5874494 L36.6396762,24.4234817 C37.5708502,23.6137651 38.3805669,23.0368421 39.0991903,22.6724697 C39.1902834,22.6218623 39.291498,22.5712551 39.3825911,22.5206478 C40.4149798,21.994332 41.5789474,21.3870446 42.8340081,21.5489878 C44.1801619,21.7210526 44.9291498,22.0854251 46.0425101,23.8465587 C46.6700405,24.8384615 46.8016194,26.0327935 46.8927126,26.9842105 C46.9433199,27.4295547 47.0141701,28.0975709 47.1255061,28.2595141 L47.1761133,28.3101215 L47.2064777,28.3607288 C47.3987854,28.5732794 48.3198381,29.2008098 49.5445344,29.7473684 C51.0121457,30.4153846 51.9534413,30.5368421 52.3178137,30.445749 C55.9311741,29.4740891 56.8016194,27.8445345 57.4493927,26.6603238 C57.9048583,25.8101214 58.4817813,24.7574898 59.8987854,24.7574899 C61.2449393,24.7574899 62.98583,25.4052632 63.6133604,28.4720648 L64.7064777,32.6724697 C65.2024291,34.0793522 65.4453441,35.5874494 65.4453442,37.1461539 C65.4453442,38.4821863 65.2631579,39.8587044 64.8987854,41.2554656 C65.7591093,42.0145749 66.3360324,43.0975709 66.6396762,44.4842105 C67.1153846,46.6906882 66.6093118,48.411336 65.111336,49.7473684 C63.9878543,50.7493927 62.8238866,50.9315789 60.9008097,51.2251012 C60.6376518,51.2655871 60.354251,51.3060729 60.0607288,51.3566802 C58.3906883,51.6198381 55.9008098,51.7919029 52.4493927,51.862753 L52.0951417,51.8728745 L51.659919,51.5388664 L50.9412956,51.8728745 L43.6336032,51.8728745 L42.8238867,51.5186235 L42.3076923,51.8728745 L36.0323887,51.8728745 L35.4959514,51.5995951 L35.222672,51.8728745 L29.7267206,51.8728745 L29.2408907,51.5489878 L28.6437247,51.8728745 L21.5991903,51.8728745 L21.3663968,51.6603238 L21.062753,51.862753 L20.7692308,51.8728745 C19.7975708,51.9032389 18.917004,51.9133604 18.1477733,51.9133604 Z M13.4615385,49.4336032 C14.3623482,49.6461538 15.2935223,49.7777327 16.2449393,49.8384615 C17.257085,49.8991903 18.6538462,49.9093117 20.4149798,49.848583 L21.5789474,49.0591093 L22.3987854,49.82834 L28.1275303,49.82834 L29.3421053,49.1603238 L30.3340081,49.82834 L34.3825911,49.82834 L35.1012146,49.1097166 L36.5080972,49.82834 L41.6700405,49.82834 L42.6012146,49.1906882 L44.048583,49.82834 L50.4858299,49.82834 L51.9129554,49.1704453 L52.7530364,49.8182186 C55.8906882,49.7473684 58.2388664,49.5854251 59.7368421,49.3425101 C60.0404859,49.2919028 60.3238867,49.251417 60.5870446,49.2109312 C62.4797572,48.9174089 63.1072875,48.8060729 63.7550607,48.2291498 C64.9493927,47.1663968 64.8886639,46.0024292 64.6558705,44.8991903 C64.402834,43.7352227 63.9271256,42.9558705 63.1983806,42.5004049 L62.5404859,42.0854251 L62.7631579,41.3465587 C63.1983806,39.9194332 63.4210526,38.5024292 63.4210526,37.1461539 C63.4210526,35.8 63.2085021,34.5044535 62.7834008,33.3 L62.7631579,33.2190284 L61.6295547,28.9174089 C61.2044535,26.7919028 60.2935223,26.7919028 59.8987854,26.7919028 C59.7368421,26.7919028 59.6659919,26.8323887 59.2307692,27.6319838 C58.5121457,28.9680162 57.2975709,31.2048583 52.854251,32.4093118 C51.5991903,32.7433198 49.8481781,32.1259109 48.5931174,31.5489878 C47.7327936,31.1441295 46.1639676,30.3040485 45.6174089,29.6259109 C45.0708502,29.0186235 44.9797571,28.1380567 44.8785425,27.2068826 C44.7874494,26.3870445 44.7064777,25.5267206 44.3218623,24.9396762 C43.5323887,23.6947368 43.3097166,23.6643725 42.5607288,23.5732794 C41.9331984,23.4923077 41.062753,23.9376518 40.3036438,24.3323887 L40,24.4842105 C39.4230769,24.7777328 38.694332,25.3040486 37.854251,26.0530364 L37.7530364,26.1441295 L35.2530364,27.3991903 L18.3805668,36.0327935 L18.340081,36.0530364 C14.6761134,37.5408907 12.0242915,38.4923076 10.2125506,38.9680162 C8.4615384,39.4234818 6.2246963,39.7574899 3.53238865,39.959919 C2.98582993,40.3546558 2.64170041,40.8303643 2.48987854,41.4072874 C2.29757081,42.1663967 2.29757081,43.1582996 2.51012146,44.3425101 L2.52024293,44.4032389 L2.52024293,44.4639676 C2.54048586,44.9396761 2.71255066,45.3141701 3.03643725,45.6178137 C3.32995954,45.9012146 4.03846151,46.397166 5.69838059,47.1663968 L5.89068824,47.2574899 L6.03238865,47.4194332 C6.28542508,47.7129555 6.71052632,47.9761134 7.28744942,48.1785425 C7.95546563,48.4214575 9.37246965,48.7858299 11.4979757,49.2817814 L12.6214575,48.6846154 L13.4615385,49.4336032 Z" id="形状" fill="#1C1B55" fill-rule="nonzero"></path>
                    <path d="M16.5688259,48.6643725 C11.3259109,48.6643725 6.12348174,47.3890688 1.09311743,44.8688259 L2.0040486,43.057085 C6.74089071,45.4356275 11.6497976,46.640081 16.5688259,46.640081 C24.0991903,46.640081 27.257085,45.7291498 30.9109312,44.6663968 C33.7955465,43.8364373 37.0647773,42.8850203 42.9251012,42.2271255 C47.2165992,41.751417 54.534413,41.5894737 64.6963562,41.751417 L64.6659919,43.7757085 C54.5951418,43.6137651 47.3481782,43.765587 43.1477733,44.2412956 C37.4493927,44.8789474 34.271255,45.8 31.4676113,46.6097166 C27.6720648,47.7129555 24.3825911,48.6643725 16.5688259,48.6643725 Z M18.7550607,38.4619433 C18.3603238,38.4619433 17.9757085,38.2291498 17.8137652,37.834413 C17.7935223,37.7838057 17.3380567,36.6704454 16.9838057,35.4558705 C16.548583,33.9376519 16.2348178,32.2979757 17.2874494,31.6097166 C17.8441296,31.2453442 18.4615385,31.154251 19.0890688,31.3364373 C19.6052632,31.4882591 20.1012146,31.8222672 20.6072874,32.3587044 C20.6781376,32.4295546 20.7388664,32.5206478 20.7793522,32.6117409 L21.1538461,33.4012146 C21.3967611,33.9072874 21.1842105,34.5145749 20.6781377,34.7473684 C20.1720648,34.9902834 19.5647773,34.7777328 19.3319838,34.27166 L19.02834,33.6340081 C18.8360323,33.4417003 18.694332,33.3506072 18.6032389,33.3101215 C18.6437248,34.0186235 19.0991903,35.6380567 19.6862348,37.0651822 C19.8987854,37.5813765 19.6558704,38.1785425 19.1396762,38.3910931 C19.0182187,38.4315789 18.8866397,38.4619433 18.7550607,38.4619433 Z M23.3198381,35.4558705 C22.9251012,35.4558705 22.5404859,35.223077 22.3785425,34.82834 C21.1032389,31.7210526 20.5263158,29.4740891 21.8522267,28.6036438 C22.4089069,28.2392713 23.0263158,28.1481781 23.6538461,28.3303644 C24.1700405,28.4821863 24.6659919,28.8161943 25.1720648,29.3526316 C25.2327936,29.4234817 25.2935223,29.494332 25.3340081,29.5854251 L25.9109312,30.7089069 C26.1639676,31.2048583 25.97166,31.8121458 25.4757085,32.0753036 C24.9797571,32.32834 24.3724696,32.1360324 24.1093118,31.640081 L23.6032389,30.6380567 C23.3603239,30.4052632 23.1983806,30.31417 23.1174089,30.2838057 C23.1174089,30.6481781 23.2591093,31.6502025 24.2510122,34.0591093 C24.4635627,34.5753036 24.2206478,35.1724697 23.7044535,35.3850202 C23.5728745,35.4356275 23.4412956,35.4558704 23.3198381,35.4558705 Z M27.8744939,33.1785425 C27.4797571,33.1785425 27.0951417,32.945749 26.9331984,32.5510122 C25.6578947,29.4437248 25.0809716,27.1967612 26.4068826,26.3263158 C26.9635627,25.9619433 27.5809716,25.8708502 28.2085021,26.0530364 C28.7246964,26.2048583 29.2206478,26.5388664 29.7267206,27.0753036 C29.777328,27.1259109 29.8279352,27.1866396 29.8582996,27.2574899 L30.4757085,28.3202429 C30.7591093,28.8060729 30.597166,29.4234818 30.111336,29.7068826 C29.6255061,29.9902834 29.0080971,29.82834 28.7246964,29.3425101 L28.1680162,28.3910931 C27.9149798,28.1380567 27.7530364,28.0469636 27.6619433,28.0165992 C27.6619433,28.3809716 27.8036438,29.382996 28.7955465,31.7919028 C29.0080971,32.3080971 28.7651822,32.9052632 28.2489878,33.1178137 C28.1376518,33.1582996 28.0060729,33.1785425 27.8744939,33.1785425 Z M32.4291498,30.9012146 C32.034413,30.9012146 31.6497976,30.6684211 31.4878543,30.2736842 C30.2125507,27.1663968 29.6356275,24.9194332 30.9615385,24.0489878 C31.5182187,23.6846154 32.1356275,23.5935222 32.7631579,23.7757085 C33.2793522,23.9275303 33.7753036,24.2615384 34.2813765,24.7979757 C34.3117409,24.8283401 34.3421053,24.8688259 34.3724697,24.9093118 L34.9493927,25.7190284 C35.2732794,26.174494 35.1619433,26.8121458 34.7064777,27.1259109 C34.2510121,27.4497976 33.6133603,27.3384615 33.2995951,26.882996 L32.7732794,26.1340081 C32.5101215,25.8607287 32.3279352,25.7595141 32.2469636,25.7291498 C32.2469636,26.0935223 32.388664,27.0955466 33.3805668,29.5044535 C33.5931174,30.0206478 33.3502024,30.6178138 32.8340081,30.8303644 C32.6923076,30.8809717 32.5607287,30.9012146 32.4291498,30.9012146 Z" id="形状" fill="#1C1B55" fill-rule="nonzero"></path>
                    <path d="M56.4878543,41.4477733 C57.0242915,38.3202429 57.7125507,36.2352227 58.5728745,35.1724697 C59.4331984,34.1198381 60.8299595,33.6947368 62.7631579,33.897166 C63.1983806,35.1522266 63.4109312,36.265587 63.3906882,37.237247 C63.3704453,38.2089069 63.097166,39.6157895 62.5607288,41.4477733 L56.4878543,41.4477733 Z" id="路径" fill="url(#linearGradient-2)"></path>
                    <path d="M64.0789474,43.4720648 L54.0789474,43.4720648 L54.4838057,41.1036437 C55.0910931,37.5408907 55.8906882,35.2534413 56.9939271,33.897166 C57.8947368,32.7939271 59.6659919,31.5388664 62.965587,31.882996 L64.2408907,32.0145749 L64.6659919,33.2291498 C65.1923077,34.7271256 65.4251012,36.0530365 65.4048583,37.2777328 C65.3846154,38.4315789 65.0809716,39.9801619 64.4939271,42.0145749 L64.0789474,43.4720648 Z M56.4878543,41.4477733 L62.5607288,41.4477733 C63.0870446,39.6157895 63.3704454,38.1987854 63.3906882,37.237247 C63.4109312,36.2757085 63.1983805,35.1522267 62.7631579,33.897166 C60.840081,33.6947368 59.4331984,34.1299595 58.5728745,35.1724697 C57.7125507,36.2251012 57.0141701,38.3303644 56.4878543,41.4477733 Z" id="形状" fill="#1C1B55" fill-rule="nonzero"></path>
                    <path d="M35.1214575,50.8910931 C34.7064777,50.8910931 34.3117409,50.6279352 34.159919,50.2129554 L32.7125506,46.0327935 C32.5303643,45.5064777 32.8137651,44.9295546 33.340081,44.7473684 C33.8663968,44.5651822 34.4433199,44.848583 34.6255061,45.3748988 L36.0728745,49.5550607 C36.2550608,50.0813765 35.97166,50.6582996 35.4453442,50.8404859 C35.3441296,50.8708502 35.2327936,50.8910932 35.1214575,50.8910931 Z M42.4089069,50.8910931 C41.9838057,50.8910931 41.5890688,50.6279352 41.4473684,50.202834 L39.402834,44.140081 C39.2206478,43.6137652 39.5141701,43.0368421 40.0404859,42.8546558 C40.5668016,42.6724696 41.1437248,42.9659919 41.3259109,43.4923077 L43.3704453,49.5550607 C43.5526316,50.0813765 43.2591093,50.6582996 42.7327935,50.8404859 C42.6214575,50.8809717 42.5202429,50.8910932 42.4089069,50.8910931 Z M51.52834,50.8910931 C51.1032388,50.8910931 50.708502,50.6178137 50.5668016,50.1927126 L48.5020243,43.8769231 C48.3299595,43.3404859 48.6234817,42.7736842 49.1497975,42.6016194 C49.6862348,42.4295546 50.2530364,42.7230769 50.4251012,43.2493927 L52.4797571,49.5651822 C52.6518219,50.1016194 52.3582996,50.6684211 51.8319838,50.8404859 C51.7307692,50.8809717 51.6295547,50.8910932 51.52834,50.8910931 Z M59.8178137,50.8910931 C59.3927125,50.8910931 58.9979757,50.6178137 58.8562753,50.1927126 L56.8016194,43.8769231 C56.6295546,43.3404859 56.9230769,42.7736842 57.4493927,42.6016194 C57.9757085,42.4295546 58.5526316,42.7230769 58.7246964,43.2493927 L60.7793522,49.5651822 C60.951417,50.1016194 60.6578947,50.6684211 60.1315789,50.8404859 C60.0303644,50.8809717 59.9190284,50.8910932 59.8178137,50.8910931 Z" id="形状" fill="#1C1B55" fill-rule="nonzero"></path>
                    <path d="M36.2145749,19.6356275 C35.8805669,19.6356275 35.5566802,19.4736842 35.3643725,19.1700405 C34.6761133,18.076923 34.4635627,16.8724696 34.7672065,15.7692308 C35.0506073,14.7469636 35.7692308,13.8866396 36.7408907,13.4008097 C37.5910932,12.9757085 38.451417,13.0465587 39.3522267,13.1174089 C40.4655871,13.208502 41.8623482,13.319838 43.9777328,12.6315789 C46.2550608,11.8927126 47.6012146,9.94939268 48.1174089,6.69028339 C48.188259,6.27530362 48.5020243,5.94129556 48.917004,5.85020247 C49.3319838,5.76923084 49.757085,5.95141702 49.9797571,6.31578947 L51.0020243,7.98582993 C52.0445344,7.66194326 53.1174089,7.7935222 54.1396762,8.38056678 C54.6761134,8.68421053 54.9898786,9.17004046 55.0303644,9.74696357 C55.111336,10.9311741 53.9979757,12.277328 51.2044535,14.3927126 C50.7591093,14.7267206 50.1214575,14.645749 49.7874494,14.2004049 C49.4534414,13.7550607 49.534413,13.1174089 49.9797571,12.7834008 C52.0748988,11.194332 52.722672,10.3846154 52.9149798,10.0303644 C52.2975709,9.74696357 51.7206478,9.77732796 51.0931174,10.1417004 C50.617409,10.4149798 50.0101215,10.2530364 49.7267206,9.78744942 L49.5141701,9.44331982 C48.6032389,12.0748988 46.9534413,13.7854251 44.5951417,14.5445344 C42.0951417,15.354251 40.4149798,15.222672 39.1801619,15.1214575 C38.3906882,15.0607287 37.9554655,15.0303644 37.6315789,15.2024291 C37.1659919,15.4352226 36.8319838,15.8299595 36.7004049,16.305668 C36.548583,16.8522267 36.6700405,17.4696356 37.0546558,18.0769231 C37.3582996,18.5526316 37.2165992,19.1700405 36.7408907,19.4736842 C36.5890688,19.5850202 36.3967612,19.6356275 36.2145749,19.6356275 Z" id="路径" fill="#1C1B55"></path>
                    <polygon id="路径" fill="#FFFFFF" points="41.4934211 35.8846154 40.4414979 34.1763158 38.0260122 36.2428137"></polygon>
                    <path d="M31.7914979,38.9154859 L40.9184211,31.0918016 L44.8991903,37.5656882 L31.7914979,38.9154859 Z M40.4414979,34.1763158 L38.0260122,36.2428137 L41.4934211,35.8846154 L40.4414979,34.1763158 Z" id="形状" fill="#1C1B55" fill-rule="nonzero"></path>
                </g>
            </g>
        </g>
    </g>
</svg>