<?xml version="1.0" encoding="UTF-8"?>
<svg width="80px" height="80px" viewBox="0 0 80 80" version="1.1" xmlns="http://www.w3.org/2000/svg" xmlns:xlink="http://www.w3.org/1999/xlink">
    <!-- Generator: Sketch 52.5 (67469) - http://www.bohemiancoding.com/sketch -->
    <title>star</title>
    <desc>Created with Sketch.</desc>
    <defs>
        <linearGradient x1="100%" y1="100%" x2="0%" y2="0%" id="linearGradient-1">
            <stop stop-color="#2853FF" offset="0%"></stop>
            <stop stop-color="#933EFE" offset="100%"></stop>
        </linearGradient>
    </defs>
    <g id="Symbols" stroke="none" stroke-width="1" fill="none" fill-rule="evenodd">
        <g id="star">
            <g>
                <rect id="矩形" fill="#FFFFFF" x="0" y="0" width="80" height="80"></rect>
                <g id="分组-8" transform="translate(7.153846, 11.076923)">
                    <g id="分组-7" fill="#1C1B55" fill-rule="nonzero">
                        <path d="M27.7858779,53.7618729 C27.1763712,53.7618729 26.6722659,53.2688043 26.6722659,52.6590217 C26.6722659,52.0495151 27.1548495,51.5561706 27.7621488,51.5561706 L27.7858779,51.5561706 C28.3947766,51.5566271 28.8882726,52.050123 28.8887291,52.6590217 C28.8884246,53.2679835 28.3948396,53.7615684 27.7858779,53.7618729 Z M27.7858779,58.1735535 C27.1763712,58.1735535 26.6722659,57.680209 26.6722659,57.0707023 C26.6722659,56.4609197 27.1548495,55.9675753 27.7621488,55.9675753 L27.7858779,55.9675753 C28.3948843,55.9680319 28.8884248,56.4616959 28.8887291,57.0707023 C28.8882726,57.679601 28.3947766,58.173097 27.7858779,58.1735535 Z M27.7191054,62.5849582 L1.2498495,62.5849582 C0.957287845,62.585178 0.676645588,62.4690557 0.469773201,62.2621833 C0.262900813,62.0553109 0.146778494,61.7746687 0.146998328,61.482107 L0.146998328,54.1321572 C0.146998328,49.8327759 2.43216555,48.1372492 6.37864548,46.6619064 C7.69919732,46.1685619 11.2080686,44.8568395 14.0083779,43.5191806 C14.5596656,43.2518144 15.214699,43.486898 15.4795819,44.0381856 C15.6059101,44.3021261 15.622167,44.6054512 15.5247735,44.8813821 C15.4273801,45.1573131 15.224321,45.3832278 14.960301,45.5093896 C12.3710702,46.745786 9.26283445,47.9394147 7.14956522,48.7299247 C3.38436455,50.1365635 2.35242475,51.2976338 2.35242475,54.1321572 L2.35242475,60.3792559 L27.7188294,60.3792559 C28.328612,60.3792559 28.8219565,60.8726003 28.8219565,61.482107 C28.8219565,62.0916137 28.328888,62.5849582 27.7191054,62.5849582 Z" id="形状"></path>
                        <path d="M54.1886371,62.5849582 L27.7191054,62.5849582 C27.1095987,62.5849582 26.6162542,62.0916137 26.6162542,61.482107 C26.6162542,60.8726003 27.1095987,60.3792559 27.7191054,60.3792559 L53.085786,60.3792559 L53.085786,54.1321572 C53.085786,51.2976338 52.0541221,50.1365635 48.2886455,48.7299247 C46.1756522,47.9394147 43.0649331,46.7438545 40.4737709,45.5030435 C39.9243271,45.2399854 39.6919102,44.581512 39.95449,44.0318395 C40.0804757,43.7676606 40.3064002,43.5644679 40.5824111,43.467098 C40.858422,43.3697281 41.1618331,43.386184 41.425694,43.5128344 C43.9395987,44.7166722 46.987408,45.8865719 49.0598411,46.6619064 C53.0060452,48.1375251 55.2914883,49.8327759 55.2914883,54.1321572 L55.2914883,61.482107 C55.2917081,61.7746687 55.1755858,62.0553109 54.9687134,62.2621833 C54.761841,62.4690557 54.4811988,62.585178 54.1886371,62.5849582 Z M27.7858779,45.2403679 C21.5542308,45.2403679 11.2425585,35.3207776 11.2425585,24.0160702 C11.242412,23.723531 11.3585579,23.4429314 11.5654144,23.2360749 C11.7722709,23.0292184 12.0528705,22.9130726 12.3454097,22.9132191 C12.6379714,22.9129992 12.9186136,23.0291215 13.125486,23.2359939 C13.3323584,23.4428663 13.4484807,23.7235086 13.4482609,24.0160702 C13.4482609,33.8236371 22.392199,43.0346656 27.7858779,43.0346656 C33.1798328,43.0346656 42.123495,33.8236371 42.123495,24.0160702 C42.1233485,23.723531 42.2394944,23.4429314 42.4463508,23.2360749 C42.6532073,23.0292184 42.933807,22.9130726 43.2263462,22.9132191 C43.5189078,22.9129992 43.7995501,23.0291215 44.0064225,23.2359939 C44.2132948,23.4428663 44.3294172,23.7235086 44.3291973,24.0160702 C44.3291973,35.3207776 34.017801,45.2403679 27.7858779,45.2403679 Z M12.2786371,22.8809365 C12.1884114,22.8809365 12.0979097,22.8701756 12.0093395,22.8464465 C11.5559066,22.7337641 11.2232462,22.3467669 11.1799247,21.8815552 C10.5919398,15.6024498 11.966296,10.5856773 15.2618813,6.96450669 C20.1216555,1.6287709 27.9969565,0.509088629 33.7504348,0.509088629 C36.7535452,0.509088629 38.8276338,0.823361204 38.916204,0.836329431 C39.4052645,0.911527991 39.784072,1.30376752 39.8421906,1.7951505 C39.9017961,2.28710229 39.6261203,2.75844801 39.1681187,2.94766722 C36.7513378,3.94070234 36.9687625,6.27994983 37.2725502,7.48847826 C38.3969231,7.5337291 40.6608445,7.89573579 42.3864465,9.90746656 C44.4845401,12.3612207 45.1111538,16.4106187 44.2497324,21.9488796 C44.1790216,22.3979241 43.8404756,22.7578209 43.3965886,22.8558278 C42.9525675,22.9538382 42.4939377,22.7690712 42.2418645,22.3906271 L38.3191137,16.5077425 C36.5637124,17.1431856 32.3567642,18.4700836 27.785602,18.4700836 C23.1995401,18.4700836 18.8979515,17.1343562 17.1210284,16.5011204 L13.1960702,22.3906271 C12.9914205,22.6971184 12.6471726,22.8810969 12.2786371,22.8809365 Z M38.7481689,14.0578512 C39.1079682,14.0578512 39.4567308,14.2344398 39.6658779,14.5487124 L42.3864465,18.6309448 C42.556413,15.3262542 41.9880184,12.8363545 40.71051,11.3414214 C39.4760452,9.90222408 37.8586037,9.68700669 37.0032525,9.68700669 C36.7877592,9.68700669 36.6500753,9.70218227 36.6219314,9.70411371 C36.1330017,9.775301 35.6415886,9.49110368 35.4523077,9.02562709 C34.842801,7.52434783 34.4247826,4.79936455 35.8766722,2.77025084 C35.2478512,2.73796823 34.5301839,2.71423913 33.7504348,2.71423913 C28.4431187,2.71423913 21.209607,3.70920569 16.8925669,8.45033445 C14.6286455,10.9363712 13.4157023,14.24051 13.2694649,18.3031522 L15.7723328,14.5487124 C16.0621057,14.1100053 16.6222807,13.9384004 17.1080602,14.1395234 C17.1596572,14.1610452 22.3555017,16.2635535 27.785602,16.2635535 C33.2118395,16.2635535 38.2697241,14.1654599 38.3191137,14.1436622 C38.4551308,14.0872312 38.6009104,14.0580752 38.7481689,14.0578512 Z" id="形状"></path>
                        <path d="M43.2263462,25.1189214 C42.9337845,25.1191412 42.6531422,25.0030189 42.4462699,24.7961465 C42.2393975,24.5892741 42.1232751,24.3086319 42.123495,24.0160702 L42.123495,21.7780853 C42.1233485,21.4855461 42.2394944,21.2049465 42.4463508,20.99809 C42.6532073,20.7912335 42.933807,20.6750876 43.2263462,20.6752341 C43.5189078,20.6750143 43.7995501,20.7911366 44.0064225,20.998009 C44.2132948,21.2048814 44.3294172,21.4855236 44.3291973,21.7780853 L44.3291973,24.0160702 C44.3294172,24.3086319 44.2132948,24.5892741 44.0064225,24.7961465 C43.7995501,25.0030189 43.5189078,25.1191412 43.2263462,25.1189214 Z M12.3454097,25.1189214 C12.052848,25.1191412 11.7722058,25.0030189 11.5653334,24.7961465 C11.358461,24.5892741 11.2423387,24.3086319 11.2425585,24.0160702 L11.2425585,21.7780853 C11.242412,21.4855461 11.3585579,21.2049465 11.5654144,20.99809 C11.7722709,20.7912335 12.0528705,20.6750876 12.3454097,20.6752341 C12.6379714,20.6750143 12.9186136,20.7911366 13.125486,20.998009 C13.3323584,21.2048814 13.4484807,21.4855236 13.4482609,21.7780853 L13.4482609,24.0160702 C13.4484807,24.3086319 13.3323584,24.5892741 13.125486,24.7961465 C12.9186136,25.0030189 12.6379714,25.1191412 12.3454097,25.1189214 Z M23.3421906,49.3504682 C23.0497134,49.3504235 22.7692317,49.2342012 22.5624415,49.0273662 L15.9453344,42.4099833 C15.6667569,42.1314057 15.55796,41.7253701 15.6599264,41.3448261 C15.7618929,40.9642821 16.0591316,40.6670434 16.4396756,40.5650769 C16.8202196,40.4631105 17.2262552,40.5719074 17.5048328,40.8504849 L23.5618227,46.9077508 L27.2950167,45.0532943 C27.8412062,44.7848578 28.5016776,45.0069032 28.7747742,45.5507776 C29.0447992,46.0969316 28.8222249,46.7586089 28.2770151,47.0305351 L23.8333278,49.2362375 C23.6805629,49.3115339 23.512504,49.3506217 23.3421906,49.3504682 Z" id="形状"></path>
                        <path d="M32.1630686,49.3504682 C31.9969649,49.3504682 31.8292057,49.3137709 31.6719314,49.2362375 L27.2282441,47.0305351 C26.6832814,46.7583939 26.4607868,46.0969536 26.7304849,45.5507776 C27.0027264,45.005919 27.66414,44.7835568 28.2102425,45.0532943 L31.9431605,46.9077508 L38.0004264,40.8504849 C38.2072084,40.6436442 38.4877002,40.5274374 38.7801756,40.5274374 C39.072651,40.5274374 39.3531428,40.6436442 39.5599247,40.8504849 C39.7669008,41.057195 39.8832012,41.3377138 39.8832012,41.6302341 C39.8832012,41.9227545 39.7669008,42.2032732 39.5599247,42.4099833 L32.9428177,49.0273662 C32.735976,49.2341242 32.4555277,49.3503326 32.1630686,49.3504682 Z" id="路径"></path>
                    </g>
                    <g id="心电" transform="translate(40.739130, 43.371237)">
                        <rect id="矩形" fill="#000000" opacity="0" x="0" y="0" width="21.1092083" height="21.1092083"></rect>
                        <path d="M11.1209853,20.3957818 C11.5758051,20.8519857 12.1935045,21.1083951 12.8376963,21.1083951 C13.4818881,21.1083951 14.0995875,20.8519857 14.5544073,20.3957818 L23.6940118,11.2561773 C24.9971258,9.94820695 25.6729644,8.13517877 25.6753926,6.33752897 C25.6753926,4.87172808 25.2172793,3.39297697 24.2120199,2.23555275 C22.9832865,0.811322839 21.1938044,-0.00522259007 19.3127969,2.42838354e-05 C18.8878684,2.42838354e-05 18.4580836,0.0404936665 18.0274894,0.123051203 C16.687953,0.381245846 15.5240537,1.10160078 14.6086363,2.01701811 L12.8376963,3.78795813 L11.0667563,2.01701811 C10.1505296,1.10160078 8.98743961,0.381245826 7.64790318,0.123051203 C7.22459891,0.0414600135 6.79450089,0.000265996812 6.36340511,2.42838354e-05 C4.48220899,-0.00502461431 2.69255702,0.811463446 1.46337274,2.23555275 C0.458113358,3.39378638 0,4.87253747 0,6.33752897 C0.00242815678,8.13436938 0.678266796,9.94739756 1.98138077,11.2561773 L11.1209853,20.3957818 Z M4.12656313,4.65192237 C4.91729478,3.73238192 6.07134539,3.20564315 7.28410472,3.21073812 C7.56066756,3.21073812 7.84209458,3.23714362 8.12630111,3.29134437 C8.94139713,3.44630294 9.71132583,3.90561963 10.3401936,4.53518227 L12.3518756,6.54686425 C12.4811235,6.67611221 12.660403,6.75046453 12.8431568,6.75046455 C13.0259106,6.75046456 13.2051901,6.67611223 13.334438,6.54686425 L15.34612,4.53518227 C15.9749878,3.90561963 16.7449165,3.44630294 17.5600125,3.29134437 C17.8373541,3.23807299 18.1191028,3.21108467 18.401514,3.21073812 C19.6142329,3.20583107 20.7682085,3.7325356 21.5590556,4.65192237 L22.0836911,4.19608009 L21.5590556,4.65192237 C22.1705514,5.35514245 22.4742146,6.28836832 22.4749094,7.2625922 C22.4769941,8.45500888 22.0100337,9.67730546 21.1810401,10.5021298 L13.334438,18.3487319 C13.2044583,18.4795128 13.0275426,18.5528314 12.8431568,18.5523321 C12.658771,18.5528314 12.4818553,18.4795128 12.3518756,18.3487319 L4.50457867,10.5021298 C3.67558502,9.67730546 3.20862465,8.454314 3.21070929,7.26189732 C3.21070929,6.28836832 3.51506739,5.35444757 4.12656313,4.65192237 Z" id="形状" fill="#1C1B55" fill-rule="nonzero"></path>
                        <path d="M2.68554797,3.29746925 C3.60658035,2.22640231 4.9508012,1.61286489 6.36340511,1.61879943 C6.68554136,1.61879943 7.01334333,1.64955616 7.34438284,1.71268838 C8.29379447,1.8931818 9.19059589,2.428187 9.92309165,3.16149214 L12.2662687,5.50466916 C12.4168148,5.65521525 12.6256368,5.74181971 12.8385057,5.74181974 C13.0513746,5.74181976 13.2601966,5.65521527 13.4107427,5.50466916 L15.7539197,3.16149214 C16.4864155,2.428187 17.3832169,1.8931818 18.3326285,1.71268838 C18.6556719,1.65063868 18.9838486,1.61920309 19.3127969,1.61879943 C20.7253537,1.61308377 22.0694872,2.22658131 22.990654,3.29746925 L23.6017416,2.766511 L22.990654,3.29746925 C23.7029151,4.11656947 24.0566175,5.20357698 24.0574268,6.33833836 C24.059855,7.72724744 23.5159466,9.15096018 22.5503472,10.1117032 L13.4107427,19.2513077 C13.2593443,19.4036394 13.0532755,19.4890399 12.8385057,19.4884583 C12.6237358,19.4890399 12.4176671,19.4036394 12.2662687,19.2513077 L3.12585481,10.1117032 C2.16025542,9.15096018 1.61634699,7.72643805 1.61877514,6.33752897 C1.61877514,5.20357698 1.9732869,4.11576008 2.68554797,3.29746925 Z" id="路径" fill="url(#linearGradient-1)"></path>
                        <path d="M15.3516541,10.1602665 L14.4564714,11.9498224 L11.9425136,6.9227162 C11.8060987,6.64801937 11.5256247,6.47452707 11.2189212,6.47512488 C10.9122718,6.47471822 10.6318905,6.6481532 10.4953287,6.9227162 L9.09994448,9.71267516 L2.72064107,9.71267516 L4.32765795,11.3314503 L9.6009554,11.3314503 C9.90852269,11.3314503 10.1877614,11.1590508 10.3245479,10.883859 L11.2197305,9.09430306 L13.7336884,14.1214093 C13.8700757,14.3962838 14.1504299,14.5701456 14.4572808,14.5701456 C14.7641318,14.5701456 15.0444859,14.3962838 15.1808733,14.1214093 L16.5754481,11.3314503 L21.4971454,11.1997348 L22.9376894,9.71267516 L16.0752466,9.71267516 C15.7686514,9.71245914 15.4883624,9.885837 15.3516541,10.1602665 Z" id="路径" fill="#1C1B55"></path>
                    </g>
                </g>
            </g>
        </g>
    </g>
</svg>