<?xml version="1.0" encoding="UTF-8"?>
<svg width="40px" height="40px" viewBox="0 0 40 40" version="1.1" xmlns="http://www.w3.org/2000/svg" xmlns:xlink="http://www.w3.org/1999/xlink">
    <!-- Generator: Sketch 52.5 (67469) - http://www.bohemiancoding.com/sketch -->
    <title>diamond_membership1</title>
    <desc>Created with Sketch.</desc>
    <defs>
        <linearGradient x1="50%" y1="0%" x2="50%" y2="100%" id="linearGradient-1">
            <stop stop-color="#CB9911" offset="0%"></stop>
            <stop stop-color="#F6CB07" offset="100%"></stop>
        </linearGradient>
        <filter x="-88.7%" y="-92.7%" width="282.7%" height="289.8%" filterUnits="objectBoundingBox" id="filter-2">
            <feOffset dx="0" dy="3" in="SourceAlpha" result="shadowOffsetOuter1"></feOffset>
            <feGaussianBlur stdDeviation="2.5" in="shadowOffsetOuter1" result="shadowBlurOuter1"></feGaussianBlur>
            <feColorMatrix values="0 0 0 0 0.956862745   0 0 0 0 0.650980392   0 0 0 0 0.152941176  0 0 0 1 0" type="matrix" in="shadowBlurOuter1" result="shadowMatrixOuter1"></feColorMatrix>
            <feMerge>
                <feMergeNode in="shadowMatrixOuter1"></feMergeNode>
                <feMergeNode in="SourceGraphic"></feMergeNode>
            </feMerge>
        </filter>
    </defs>
    <g id="个人中心" stroke="none" stroke-width="1" fill="none" fill-rule="evenodd">
        <g id="VIP会员主页" transform="translate(-858.000000, -326.000000)">
            <g id="diamond_membership1" transform="translate(858.000000, 326.000000)">
                <ellipse id="Oval-2" fill="url(#linearGradient-1)" cx="19.7803922" cy="19.7821351" rx="17.427451" ry="17.4291939"></ellipse>
                <g id="Group-10" filter="url(#filter-2)" transform="translate(10.196078, 12.549020)">
                    <polygon id="Fill-1" fill="#FFF255" points="9.00428421 0.583383831 12.9769074 4.95624039 5.03185494 4.95624039"></polygon>
                    <polygon id="Fill-2" fill="#F9CE19" points="9.00428421 0.583383831 4.50223909 0.0368318093 13.5065233 0.0368318093"></polygon>
                    <polygon id="Fill-3" fill="#FFE317" points="12.9769074 4.95624039 9.00428421 0.583383831 13.5065233 0.0368318093"></polygon>
                    <polygon id="Fill-4" fill="#FFED12" points="13.5065233 0.0368318093 18.0087624 4.95624039 12.9769074 4.95624039"></polygon>
                    <polygon id="Fill-5" fill="#FFE317" points="5.03185494 4.95624039 9.00428421 0.583383831 4.50223909 0.0368318093"></polygon>
                    <polygon id="Fill-7" fill="#FFED12" points="4.50223909 0.0368318093 0 4.95624039 5.03185494 4.95624039"></polygon>
                    <polygon id="Fill-8" fill="#FFE317" points="9.00428421 17.2548219 5.03185494 4.95624039 12.9769074 4.95624039"></polygon>
                    <path d="M9.00428421,17.2548219 L12.9769074,4.95624039 L18.0087624,4.95624039 L9.00428421,17.2548219 Z M9.00428421,17.2548219 L5.03185494,4.95624039 L0,4.95624039 L9.00428421,17.2548219 Z" id="Fill-9" fill="#F9CE19"></path>
                </g>
            </g>
        </g>
    </g>
</svg>