<?xml version="1.0" encoding="UTF-8"?>
<svg width="40px" height="40px" viewBox="0 0 40 40" version="1.1" xmlns="http://www.w3.org/2000/svg" xmlns:xlink="http://www.w3.org/1999/xlink">
    <!-- Generator: Sketch 52.5 (67469) - http://www.bohemiancoding.com/sketch -->
    <title>golden_membership1</title>
    <desc>Created with Sketch.</desc>
    <defs>
        <linearGradient x1="50%" y1="0%" x2="50%" y2="100%" id="linearGradient-1">
            <stop stop-color="#D79E6B" offset="0%"></stop>
            <stop stop-color="#EABE9B" offset="100%"></stop>
        </linearGradient>
        <filter x="-87.5%" y="-98.9%" width="275.0%" height="297.8%" filterUnits="objectBoundingBox" id="filter-2">
            <feOffset dx="0" dy="5" in="SourceAlpha" result="shadowOffsetOuter1"></feOffset>
            <feGaussianBlur stdDeviation="2" in="shadowOffsetOuter1" result="shadowBlurOuter1"></feGaussianBlur>
            <feColorMatrix values="0 0 0 0 0.584313725   0 0 0 0 0.411764706   0 0 0 0 0.31372549  0 0 0 0.5 0" type="matrix" in="shadowBlurOuter1" result="shadowMatrixOuter1"></feColorMatrix>
            <feMerge>
                <feMergeNode in="shadowMatrixOuter1"></feMergeNode>
                <feMergeNode in="SourceGraphic"></feMergeNode>
            </feMerge>
        </filter>
        <path d="M0,4.77228345 L0.0641820418,4.59393652 C0.229077491,4.10893762 0.659311193,3.78400485 1.18369004,3.74802513 C1.66204182,3.71400926 2.14078721,3.98933657 2.36519065,4.42262067 C2.59426814,4.86489971 2.5299877,5.38607229 2.19798278,5.77418779 C2.15704797,5.81889575 2.11658057,5.86406436 2.07660517,5.90952391 C3.00373924,6.46895526 3.92642066,7.02205863 4.84442804,7.57921093 C5.19247232,7.79125854 5.54273063,8.00350011 5.89079951,8.20883183 C6.0899139,8.32389905 6.24337023,8.29017412 6.35099631,8.09820145 C7.4103321,6.19590699 8.46883149,4.29305488 9.52634686,2.38981486 C9.06615006,2.15958343 8.76853629,1.8074719 8.74115621,1.28646903 C8.72290283,0.920998457 8.85330873,0.607339652 9.11670357,0.352475204 C9.63859779,-0.148525457 10.4948831,-0.100980824 10.9529643,0.45389244 C11.4792866,1.09025347 11.2894957,1.83474763 10.4537515,2.39444567 C10.7267651,2.88807582 11.0015006,3.38063919 11.2779582,3.87237822 C12.0449938,5.24874807 12.8072079,6.62048711 13.5741451,7.99678422 C13.7502829,8.31490412 13.8624354,8.34426493 14.17877,8.15939608 C15.3644772,7.44625083 16.5480935,6.72883844 17.7338991,6.01351113 C17.7890529,5.9797862 17.8418204,5.94579458 17.9057073,5.90734186 C17.660861,5.6661274 17.5049938,5.39307913 17.4867405,5.05667842 C17.4522509,4.42705753 17.8919803,3.87642715 18.5078475,3.77292484 C19.1489791,3.66229447 19.7442804,4.02332819 19.9341697,4.63466828 C19.9479213,4.68192197 19.9685855,4.73174565 19.9869373,4.77890236 L19.9869373,5.20319154 C19.7852399,5.83933436 19.3710701,6.20946 18.6591882,6.21392109 C18.6337269,6.2860745 18.6065191,6.35825215 18.5857811,6.43059952 C17.8922509,8.77490633 17.198155,11.12365 16.5049446,13.4682235 C16.4157688,13.7750694 16.3055351,13.85406 15.9917835,13.85406 L4.01099631,13.85406 C3.67446494,13.85406 3.57136531,13.7772515 3.479877,13.4682235 C2.91426814,11.566123 2.35576876,9.65718536 1.7902337,7.75498788 C1.63938499,7.24072515 1.48351784,6.72636544 1.3301353,6.20946 C0.798942189,6.20946 0.398499385,6.00194622 0.148659287,5.55057527 C0.0891758918,5.43996914 0.0502583026,5.31590699 0.00231242312,5.19856072 C0,5.05224157 0,4.91215341 0,4.77228345 M9.98856089,15.0817346 L15.5860763,15.0817346 C16.0852891,15.0817346 16.48369,15.4292153 16.5386716,15.8965153 C16.5936285,16.3678642 16.2801722,16.7967115 15.7969988,16.9025898 C15.7282903,16.9207736 15.65508,16.9230527 15.5860763,16.9230527 L4.38651907,16.9230527 C3.96083641,16.9230527 3.60135301,16.6723584 3.47766298,16.2934318 C3.3495695,15.9142142 3.46833948,15.4858519 3.8096679,15.2688825 C3.98610086,15.1586401 4.21943419,15.0817346 4.42553506,15.0817346 C6.28228782,15.0726427 8.13653137,15.0817346 9.98856089,15.0817346" id="path-3"></path>
    </defs>
    <g id="个人中心" stroke="none" stroke-width="1" fill="none" fill-rule="evenodd">
        <g id="VIP会员主页" transform="translate(-629.000000, -326.000000)">
            <g id="golden_membership1" transform="translate(629.000000, 326.000000)">
                <g id="分组-2" transform="translate(-0.000000, 0.000000)">
                    <ellipse id="Oval-2" fill="url(#linearGradient-1)" cx="19.6508361" cy="20.3418803" rx="17.0923077" ry="17.0940171"></ellipse>
                    <g id="皇冠-4" filter="url(#filter-2)" transform="translate(10.000000, 10.769231)">
                        <mask id="mask-4" fill="white">
                            <use xlink:href="#path-3"></use>
                        </mask>
                        <use id="Fill-1" fill="#FBEFCF" xlink:href="#path-3"></use>
                        <rect id="Rectangle-6" fill="#E6D09B" mask="url(#mask-4)" x="10" y="-0.769230769" width="10" height="17.6923077"></rect>
                    </g>
                </g>
            </g>
        </g>
    </g>
</svg>