<?xml version="1.0" encoding="UTF-8"?>
<svg width="14px" height="14px" viewBox="0 0 14 14" version="1.1" xmlns="http://www.w3.org/2000/svg" xmlns:xlink="http://www.w3.org/1999/xlink">
    <!-- Generator: Sketch 52.5 (67469) - http://www.bohemiancoding.com/sketch -->
    <title>ic_area</title>
    <desc>Created with Sketch.</desc>
    <g id="个人中心" stroke="none" stroke-width="1" fill="none" fill-rule="evenodd">
        <g id="VIP会员主页" transform="translate(-794.000000, -620.000000)">
            <g id="ic_area" transform="translate(794.000000, 620.000000)">
                <g>
                    <rect id="矩形" fill="#000000" opacity="0" x="0" y="0" width="14" height="14"></rect>
                    <path d="M6.99988885,0 C6.61589494,0 6.23967869,0.0322217151 5.8723512,0.0915540936 C6.03345976,0.152219791 6.23456768,0.184885952 6.50878555,0.171775047 C7.45232612,0.126886873 8.03698352,0.306661792 7.36232755,0.576657507 C6.68767158,0.846653221 6.81322515,1.13331533 7.12810904,1.15575943 C7.44299293,1.17820352 8.17698128,0.842208858 8.42053298,1.13775971 C8.67186233,1.44286598 8.13853745,1.94330247 8.45653241,2.48396057 C8.92963601,3.28861446 7.31143947,3.47283376 6.90255707,4.07615752 C6.50811888,4.65814829 6.28567798,5.28147173 6.73544861,6.11701402 C7.18521925,6.9525563 7.29099534,6.44789765 8.08187169,6.53945176 C9.64095806,6.71989335 9.17429881,7.94054064 11.0951572,8.3227568 C11.8300344,8.4689767 11.3249313,10.0653958 10.0353963,10.8347169 C8.79252709,11.5760385 9.1849653,12.4264694 7.41877113,12.9935715 C6.99433341,13.1297916 6.67144965,13.0515706 6.99988889,12.5793559 C7.63698989,11.6635927 7.58165743,10.6429422 6.99988889,10.1860605 C6.41812035,9.72917891 5.76590848,9.62962492 5.92323932,8.92608054 C6.08057016,8.22253616 6.68944938,7.97631784 6.73278202,7.34388343 C6.77455913,6.73389311 5.80679671,4.65770384 4.59726037,5.06880843 C3.90638245,5.30369359 2.57018143,4.42481865 2.64084697,3.27394803 C2.72284567,1.93685814 3.74705164,1.73197251 3.51705529,0.936651792 C3.51638864,0.934429601 3.51727751,0.93154076 3.51705529,0.929096365 C1.41597752,2.13707719 0,4.40259678 0,7.00011111 C0,10.8660497 3.13395025,14 6.99988889,14 C10.8658275,14 13.9997778,10.8660497 13.9997778,7.00011111 C13.9997778,3.13417248 10.8658275,0 6.99988885,0 Z" id="路径" fill="#ADB5BD"></path>
                </g>
            </g>
        </g>
    </g>
</svg>