<?xml version="1.0" encoding="UTF-8"?>
<svg width="16px" height="16px" viewBox="0 0 16 16" version="1.1" xmlns="http://www.w3.org/2000/svg" xmlns:xlink="http://www.w3.org/1999/xlink">
    <!-- Generator: Sketch 52.5 (67469) - http://www.bohemiancoding.com/sketch -->
    <title>ic_alipay</title>
    <desc>Created with Sketch.</desc>
    <g id="个人中心" stroke="none" stroke-width="1" fill="none" fill-rule="evenodd">
        <g id="我的钻石VIP" transform="translate(-662.000000, -531.000000)">
            <g id="ic_alipay" transform="translate(662.000000, 531.000000)">
                <g>
                    <rect id="矩形" fill="#000000" opacity="0" x="0" y="0" width="16" height="16"></rect>
                    <path d="M3.6,9.008 C3.408,9.16 3.208,9.384 3.152,9.664 C3.072,10.048 3.136,10.528 3.504,10.912 C3.952,11.368 4.64,11.496 4.936,11.52 C5.736,11.576 6.592,11.176 7.24,10.728 C7.496,10.552 7.928,10.192 8.336,9.64 C7.408,9.16 6.248,8.632 5.016,8.68 C4.384,8.704 3.928,8.832 3.6,9.008 Z M15.36,11.128 C15.768,10.168 16,9.112 16,8 C16,3.592 12.408,0 8,0 C3.592,0 0,3.592 0,8 C0,12.408 3.592,16 8,16 C10.664,16 13.024,14.688 14.48,12.688 C13.104,12.008 10.84,10.88 9.44,10.2 C8.776,10.96 7.792,11.72 6.68,12.048 C5.984,12.256 5.352,12.336 4.696,12.2 C4.04,12.064 3.56,11.76 3.28,11.456 C3.136,11.296 2.976,11.104 2.856,10.864 C2.864,10.88 2.872,10.896 2.872,10.912 C2.872,10.912 2.8,10.792 2.752,10.608 C2.728,10.512 2.704,10.424 2.696,10.328 C2.688,10.264 2.688,10.192 2.696,10.128 C2.688,10.008 2.696,9.88 2.72,9.752 C2.784,9.432 2.92,9.064 3.272,8.728 C4.04,7.976 5.064,7.936 5.6,7.944 C6.384,7.952 7.76,8.296 8.912,8.704 C9.232,8.024 9.44,7.296 9.568,6.808 L4.768,6.808 L4.768,6.288 L7.232,6.288 L7.232,5.248 L4.256,5.248 L4.256,4.72 L7.232,4.72 L7.232,3.68 C7.232,3.536 7.264,3.424 7.488,3.424 L8.656,3.424 L8.656,4.72 L11.896,4.72 L11.896,5.24 L8.656,5.24 L8.656,6.28 L11.248,6.28 C11.248,6.28 10.984,7.728 10.176,9.16 C11.976,9.8 14.52,10.792 15.36,11.128 Z" id="形状" fill="#06B4FD" fill-rule="nonzero"></path>
                </g>
            </g>
        </g>
    </g>
</svg>