<?xml version="1.0" encoding="UTF-8"?>
<svg width="14px" height="14px" viewBox="0 0 14 14" version="1.1" xmlns="http://www.w3.org/2000/svg" xmlns:xlink="http://www.w3.org/1999/xlink">
    <!-- Generator: Sketch 52.5 (67469) - http://www.bohemiancoding.com/sketch -->
    <title>ic_ptqs</title>
    <desc>Created with Sketch.</desc>
    <g id="个人中心" stroke="none" stroke-width="1" fill="none" fill-rule="evenodd">
        <g id="VIP会员主页" transform="translate(-794.000000, -520.000000)">
            <g id="ic_ptqs" transform="translate(794.000000, 520.000000)">
                <g>
                    <rect id="矩形" fill="#000000" opacity="0" x="0" y="0" width="14" height="14"></rect>
                    <path d="M7,14 C3.13400675,14 0,10.8659932 0,7 C0,3.13400675 3.13400675,0 7,0 C10.8659932,0 14,3.13400675 14,7 C14,10.8659932 10.8659932,14 7,14 Z M4.54091667,4.54062962 C4.42708733,4.55240507 4.33760676,4.64930491 4.33760676,4.76617899 L4.33760676,4.88729004 C3.86533239,4.95706232 3.5,5.3664701 3.5,5.85728806 L3.5,9.31644541 C3.5,9.85570411 3.94130421,10.2968891 4.48056291,10.2968891 L9.51941875,10.2968891 C10.058815,10.2968891 10.5,9.85570411 10.5,9.31644541 L10.5,5.85728806 C10.5,5.31802935 10.058815,4.8767068 9.51941875,4.8767068 L6.02623732,4.8767068 L6.02623732,4.76618816 C6.02623732,4.64878217 5.93583966,4.55148798 5.82121245,4.54062962 L6.30420761,3.43986359 C6.47761119,3.43602098 6.61699068,3.29425704 6.61699068,3.11993638 C6.61699068,2.94321294 6.47363101,2.8 6.29692591,2.8 C6.12021164,2.8 5.97686114,2.94321294 5.97686114,3.11993638 C5.97677799,3.17731996 5.99218938,3.23366152 6.02146845,3.28301351 L5.31925184,4.53957497 L5.04273972,4.53957497 L4.34066067,3.28301351 C4.36885205,3.23521472 4.38513042,3.17949227 4.38513042,3.11993638 C4.38513042,2.94321294 4.24190831,2.8 4.06506564,2.8 C3.88836054,2.8 3.74512926,2.94321294 3.74512926,3.11993638 C3.74512926,3.29426622 3.88438037,3.43603015 4.05778394,3.43986359 L4.54091667,4.54062962 Z M8.53432541,10.4738602 L8.68879105,11.0459507 L9.18344245,11.0459507 L9.33778887,10.4738602 L8.53432541,10.4738602 Z M4.53497392,10.4738602 L4.68932034,11.0459507 L5.1841093,11.0459507 L5.33857495,10.4738602 L4.53497392,10.4738602 Z M9.84965406,8.4209702 C10.0922797,8.4209702 10.288849,8.6175395 10.2888398,8.86017427 C10.2888398,9.10279988 10.0922797,9.29949757 9.84965406,9.29949757 C9.60701011,9.29949757 9.41031243,9.10279988 9.41031243,8.86017427 C9.41031243,8.6175395 9.60701928,8.4209702 9.84965406,8.4209702 Z M4.94755484,5.55457465 L8.49646789,5.55457465 C8.87622612,5.55457465 9.18702827,5.86535846 9.18702827,6.24526342 L9.18702827,8.68146991 C9.18702827,9.06123731 8.87622612,9.3720303 8.49646789,9.3720303 L4.94755484,9.3720303 C4.56779661,9.3720303 4.25699446,9.06123731 4.25699446,8.68146991 L4.25699446,6.24525425 C4.25699446,5.86535846 4.56779661,5.55456548 4.94755484,5.55456548 Z M5.23453097,5.85173049 C4.93445878,5.85173049 4.68493665,6.07766503 4.64721669,6.36769508 C4.7281521,6.32776298 4.81720018,6.30701668 4.90745045,6.30706619 L8.49475293,6.30706619 C8.6363793,6.30706619 8.7668997,6.35750619 8.86908198,6.44116324 C8.86761463,6.11672394 8.60183248,5.85173966 8.27699883,5.85173966 L5.23453097,5.85173966 Z M9.84965406,6.19085241 C9.99817695,6.19085241 10.1186185,6.31131232 10.1186185,6.45982604 C10.1186185,6.60847733 9.99816778,6.72879967 9.84965406,6.72879967 C9.70114034,6.72879967 9.58068043,6.60847733 9.58068043,6.45982604 C9.58068043,6.31131232 9.70114034,6.19085241 9.84965406,6.19085241 Z M9.84965406,7.14415937 C9.99817695,7.14415937 10.1186185,7.26461928 10.1186185,7.41313301 C10.1186185,7.56164673 9.99816778,7.68210664 9.84965406,7.68210664 C9.70114034,7.68210664 9.58068043,7.56164673 9.58068043,7.41313301 C9.58068043,7.26461928 9.70114034,7.14415937 9.84965406,7.14415937 Z" id="合并形状" fill="#ADB5BD"></path>
                </g>
            </g>
        </g>
    </g>
</svg>