<?xml version="1.0" encoding="UTF-8"?>
<svg width="14px" height="14px" viewBox="0 0 14 14" version="1.1" xmlns="http://www.w3.org/2000/svg" xmlns:xlink="http://www.w3.org/1999/xlink">
    <!-- Generator: Sketch 52.5 (67469) - http://www.bohemiancoding.com/sketch -->
    <title>ic_customer service</title>
    <desc>Created with Sketch.</desc>
    <g id="个人中心" stroke="none" stroke-width="1" fill="none" fill-rule="evenodd">
        <g id="VIP会员主页" transform="translate(-1099.000000, -494.000000)">
            <g id="ic_customer-service" transform="translate(1099.000000, 494.000000)">
                <g>
                    <rect id="矩形" fill="#000000" opacity="0" x="0" y="0" width="14" height="14"></rect>
                    <path d="M6.84280656,11.0450062 C6.91122307,11.0450062 6.98083437,11.040795 7.05091576,11.0324706 C7.72299583,10.9518124 8.2936949,10.4820439 8.50433078,9.83468225 C8.52023521,9.78626381 8.49727955,9.73437851 8.45091771,9.7131073 C8.40508472,9.69175776 8.34961505,9.71020847 8.3236822,9.75365188 C8.32123385,9.75778468 8.05420772,10.1890849 7.01466068,10.3294827 C6.85904397,10.3503621 6.70761882,10.3613111 6.56408714,10.3613111 C5.83577352,10.3608411 5.51122111,10.0863328 5.50824392,10.0838061 C5.47159711,10.0512137 5.41565737,10.0503715 5.37808998,10.0821216 C5.34015044,10.1138717 5.33141476,10.1690476 5.35728885,10.2112766 C5.67433955,10.7252721 6.2432758,11.0450062 6.84280656,11.0450062 Z M12.4323747,4.6024156 C12.4232081,4.6024156 12.4148641,4.60410006 12.406148,4.60410006 C11.7970393,1.96709706 9.46966363,0 6.67923763,0 C3.81207076,0 1.431282,2.07572516 0.903595438,4.82186552 C0.39052058,4.91419745 0,5.36516273 0,5.91053613 L0,8.09330288 C0,8.70507535 0.490589271,9.2011685 1.09632902,9.2011685 C1.43801983,9.2011685 1.73961657,9.03981287 1.94024363,8.79200134 C2.42501563,10.0741694 3.4119135,11.1079775 4.66088205,11.6534293 C4.66385924,11.6469265 4.68750044,11.6009368 4.71595998,11.56429 C4.73562507,11.538886 4.75766017,11.5180849 4.77656137,11.5180849 C4.79614812,11.5180849 4.81412876,11.5251949 4.82950435,11.5360459 C4.54044313,11.3208267 3.49631279,10.2145672 3.27014462,8.67079854 C3.17091816,7.99131468 3.67986021,7.32428799 4.27259436,7.21395583 C5.22415774,7.03677412 6.17074607,6.83493269 7.12230944,6.66110029 C7.72720696,6.55076814 8.14058528,6.21894905 8.39337183,5.66646566 C8.45260216,5.53731064 8.53813748,5.27618012 8.57738932,4.89958573 C8.58778989,4.84358722 8.63370122,4.80059431 8.69253982,4.80059431 C8.73179166,4.80059431 8.76514789,4.82063155 8.78726133,4.84948283 L8.81350757,4.83318665 C9.18855461,5.37769824 9.93232218,6.58336049 10.0391287,7.85465793 C10.1617809,9.30813171 10.0933644,10.3036282 8.98083715,11.3220607 C8.97952485,11.3233534 8.97784039,11.3249595 8.97623427,11.3262718 C8.96078032,11.3429402 8.95159415,11.3646619 8.95159415,11.3885381 C8.95159415,11.4198377 8.96828205,11.4466128 8.99245211,11.462909 C9.0016383,11.4666696 9.01082448,11.4717034 9.02001066,11.4754641 C9.0274928,11.4771486 9.03462237,11.4795969 9.0421241,11.4795969 C9.04968457,11.4795969 9.05634408,11.4771486 9.06300356,11.4754641 C9.07884924,11.4671201 9.09383311,11.4574835 9.10928704,11.4491395 C10.234389,10.8293169 11.0974986,9.79421602 11.4963436,8.54922358 C11.6577971,8.78908289 11.9105837,8.9617009 12.2042282,9.02191056 C11.7332257,11.1640544 9.82267558,12.5047673 7.4556563,12.7082736 C7.31380908,12.3563977 6.96461654,12.1065099 6.5545288,12.1065099 C6.01894878,12.1065099 5.58467141,12.5307001 5.58467141,13.05349 C5.58467141,13.5762995 6.01887043,14 6.5545288,14 C6.98635783,14 7.34800754,13.7225733 7.47355859,13.3413956 C10.2134899,13.1186747 12.4098891,11.4900758 12.8684148,8.95962471 C13.2734688,8.79031686 13.5579271,8.39292133 13.5579271,7.9290288 L13.5579271,5.72040757 C13.5579271,5.10311163 13.0539601,4.6024156 12.4323747,4.6024156 Z M11.4216005,5.23684995 C10.7069977,3.30105251 8.85520777,1.91818896 6.67678929,1.91818896 C4.50747864,1.91818896 2.66234825,3.28933963 1.94108586,5.21260156 C1.90520295,5.16868807 1.86311102,5.13112068 1.82180257,5.09308323 C2.2301275,2.74941134 4.24719035,0.967467813 6.67923763,0.967467813 C9.09965038,0.967467813 11.1104259,2.73188121 11.5321482,5.0592765 C11.4904676,5.11527501 11.4520579,5.17372186 11.4216005,5.23684995 Z" id="形状" fill="#ADB5BD" fill-rule="nonzero"></path>
                </g>
            </g>
        </g>
    </g>
</svg>