<?xml version="1.0" encoding="UTF-8"?>
<svg width="14px" height="14px" viewBox="0 0 14 14" version="1.1" xmlns="http://www.w3.org/2000/svg" xmlns:xlink="http://www.w3.org/1999/xlink">
    <!-- Generator: Sketch 52.5 (67469) - http://www.bohemiancoding.com/sketch -->
    <title>ic_custom made</title>
    <desc>Created with Sketch.</desc>
    <g id="个人中心" stroke="none" stroke-width="1" fill="none" fill-rule="evenodd">
        <g id="VIP会员主页" transform="translate(-1098.000000, -593.000000)">
            <g id="ic_custom-made" transform="translate(1098.000000, 593.000000)">
                <g>
                    <rect id="矩形" fill="#000000" opacity="0" x="0" y="0" width="14" height="13.1764706"></rect>
                    <path d="M1.64035283,12.3628004 L5.23984639,11.4136049 L5.61223191,11.0625582 L3.07832589,8.67767913 L2.70200904,9.03128032 L1.64035283,12.3628004 Z M3.50055962,8.28023 L6.03484338,10.6654119 L10.9877233,6.00329846 L8.45376135,3.61839308 L3.50055962,8.28023 Z M12.1308883,3.50175499 L11.1113435,2.5421703 C10.5281209,1.9932681 10.1802048,1.9932681 9.59723408,2.5421703 L8.87631686,3.2212205 L11.4102788,5.60582303 L12.1311961,4.92707569 C12.7141668,4.37810764 12.7141668,4.05070985 12.1308883,3.50175499 Z M5.19711935,2.6099173 C4.61391077,2.06096244 4.26565888,2.06096244 3.68246428,2.6099173 L1.2721225,4.87814509 L0.849874785,4.4807223 L3.38383676,2.09583008 C3.96705933,1.54690155 4.91223052,1.54690155 5.49549506,2.09583008 L6.89130071,3.40956902 L6.46905299,3.80696547 L5.19711935,2.6099173 Z M2.32781873,5.07714617 L3.17267792,4.28199774 L3.59524743,4.67944687 L2.75037425,5.47455578 L2.70024623,5.42737647 L3.17237013,5.87232092 L4.43915525,4.67944687 L4.86178071,5.07714617 L3.59492565,6.26944084 L3.72393217,6.39085876 L3.30137667,6.78832104 L1.27187067,4.87814509 L1.69442618,4.48070914 L2.32781873,5.07714617 Z M8.2408537,10.6420527 L9.50763882,11.8343605 L10.1413532,12.4307844 L12.1291394,10.5594658 C12.712362,10.0104846 12.712362,9.68277083 12.1291394,9.13384231 L10.7959973,7.87917298 L11.218245,7.48167118 L12.6753151,8.85305763 C13.2585237,9.40198616 13.2585237,10.2915195 12.6753151,10.8405139 L10.5636568,12.8279307 L10.1413532,13.225393 L9.71911943,12.8279307 L7.628321,10.8601862 L8.05063867,10.4627108 L8.2408537,10.6420527 Z M9.93026429,9.84722029 L8.66340921,11.0394623 L8.2408537,10.6420527 L9.50763882,9.44921814 L9.93026429,9.84722029 Z M10.1413532,10.4430516 L10.5636568,10.8407772 L9.5079606,11.8343605 L9.08571289,11.4366612 L10.1413532,10.4430516 Z" id="形状" fill="#ADB5BD" fill-rule="nonzero"></path>
                </g>
            </g>
        </g>
    </g>
</svg>