<?xml version="1.0" encoding="UTF-8"?>
<svg width="14px" height="14px" viewBox="0 0 14 14" version="1.1" xmlns="http://www.w3.org/2000/svg" xmlns:xlink="http://www.w3.org/1999/xlink">
    <!-- Generator: Sketch 52.5 (67469) - http://www.bohemiancoding.com/sketch -->
    <title>ic_follower</title>
    <desc>Created with Sketch.</desc>
    <g id="个人中心" stroke="none" stroke-width="1" fill="none" fill-rule="evenodd">
        <g id="VIP会员主页" transform="translate(-794.000000, -595.000000)">
            <g id="ic_follower" transform="translate(794.000000, 595.000000)">
                <g>
                    <rect id="矩形" fill="#000000" opacity="0" x="0" y="0" width="14" height="14"></rect>
                    <path d="M7,0 C3.13485114,0 0,3.13485114 0,7 C0,10.8651489 3.13485114,14 7,14 C10.8651489,14 14,10.8651489 14,7 C14,3.13485114 10.8669002,4.9775323e-16 7,0 Z M5.25043783,5.25043783 C5.25043783,4.28371278 6.03327496,3.49912434 7.00175131,3.49912434 C7.97022767,3.49912434 8.7530648,4.28196147 8.7530648,5.25043783 L8.7530648,5.83362522 C8.7530648,6.80035026 7.97022767,7.5849387 7.00175131,7.5849387 C6.03327496,7.5849387 5.25043783,6.80210158 5.25043783,5.83362522 L5.25043783,5.25043783 Z M1.75131349,6.62697023 L1.75131349,6.21015762 C1.75131349,5.51838879 2.2732049,4.95971979 2.91768827,4.95971979 C3.56217163,4.95971979 4.08406305,5.52014011 4.08406305,6.21015762 L4.08406305,6.62697023 C4.08406305,7.31873905 3.56217163,7.87740806 2.91768827,7.87740806 C2.2732049,7.87565674 1.75131349,7.31523643 1.75131349,6.62697023 Z M11.084063,11.1628722 C10.033275,12.1943958 8.59019264,12.8336252 7.00175131,12.8336252 C5.40980736,12.8336252 3.97022767,12.1943958 2.91943958,11.1628722 L2.91943958,10.7915937 C2.91943958,9.50262697 3.96497373,8.45709282 5.25394046,8.45709282 L8.75481611,8.45709282 C10.0437828,8.45709282 11.089317,9.50262697 11.089317,10.7915937 L11.089317,11.1628722 L11.084063,11.1628722 Z M11.084063,7.87565674 C10.4395797,7.87565674 9.91768827,7.31523643 9.91768827,6.62521891 L9.91768827,6.2084063 C9.91768827,5.51663748 10.4395797,4.95796848 11.084063,4.95796848 C11.7285464,4.95796848 12.2504378,5.51838879 12.2504378,6.2084063 L12.2504378,6.62521891 C12.2504378,7.31523643 11.7285464,7.87565674 11.084063,7.87565674 Z" id="形状" fill="#ADB5BD" fill-rule="nonzero"></path>
                </g>
            </g>
        </g>
    </g>
</svg>