<?xml version="1.0" encoding="UTF-8"?>
<svg width="14px" height="14px" viewBox="0 0 14 14" version="1.1" xmlns="http://www.w3.org/2000/svg" xmlns:xlink="http://www.w3.org/1999/xlink">
    <!-- Generator: Sketch 52.5 (67469) - http://www.bohemiancoding.com/sketch -->
    <title>ic_hudong</title>
    <desc>Created with Sketch.</desc>
    <g id="个人中心" stroke="none" stroke-width="1" fill="none" fill-rule="evenodd">
        <g id="VIP会员主页" transform="translate(-794.000000, -570.000000)">
            <g id="ic_hudong" transform="translate(794.000000, 570.000000)">
                <g id="ic_webo">
                    <rect id="矩形" fill="#000000" opacity="0" x="0" y="0" width="14" height="14"></rect>
                    <path d="M6.998586,1.24344979e-14 C10.86379,1.24344979e-14 13.99713,3.133382 13.99713,6.998628 C13.99713,10.86379 10.86379,13.997172 6.998586,13.997172 C3.133382,13.997172 -5.32907052e-14,10.86379 -5.32907052e-14,6.998628 C-5.32907052e-14,3.133382 3.133382,1.24344979e-14 6.998586,1.24344979e-14 Z M8.312499,6.124998 C8.07087608,6.12515948 7.8748711,5.92941631 7.87470961,5.6877934 C7.87454813,5.44617048 8.07029129,5.2501655 8.31191421,5.25000401 L8.31308379,5.25000401 C8.55470671,5.2501655 8.75044987,5.44617048 8.75028838,5.6877934 C8.7501269,5.92941631 8.55412192,6.12515948 8.312499,6.124998 Z M6.85416233,6.124998 C6.61253941,6.12515726 6.41653623,5.92941231 6.41637695,5.68778939 C6.41621768,5.44616648 6.61196263,5.25016329 6.85358555,5.25000401 L6.85474712,5.25000401 C7.09637004,5.2501655 7.2921132,5.44617048 7.29195171,5.6877934 C7.29179023,5.92941631 7.09578524,6.12515948 6.85416233,6.124998 Z M10.161365,3.79167535 L10.1610766,3.79167535 C10.0832111,3.61958609 9.91636893,3.5 9.72212164,3.5 L5.44453968,3.5 C5.2502924,3.5 5.08316987,3.61958609 5.00558471,3.79167535 C4.97494122,3.85818997 4.9588337,3.93047442 4.95833667,4.00370674 L4.95833667,5.25000401 L3.5,5.25000401 L3.98621102,5.25000401 C3.71816771,5.25000401 3.5,5.47633478 3.5,5.75458393 L3.5,9.19216332 C3.5,9.47070086 3.7187525,9.69675125 3.98708421,9.69675125 L4.5438789,9.69675125 C4.5564159,9.69732804 4.57566599,9.70549911 4.59316971,9.71628974 L4.59550087,10.1342482 C4.59550087,10.1596186 4.60133278,10.1838355 4.60804588,10.2083327 C4.61709701,10.2451819 4.63335082,10.2798758 4.6558707,10.310415 C4.74862843,10.4308743 4.88337907,10.5 5.02658117,10.5 L5.02716596,10.5 C5.16191661,10.5 5.28908097,10.438749 5.3809575,10.3317079 L5.51074943,10.2083327 L5.91966368,9.81924529 C5.9377522,9.80233436 5.96312259,9.76616534 5.97625238,9.74516087 C5.99750577,9.72021832 6.02661232,9.70324822 6.05878825,9.69703964 L8.26408137,9.69703964 C8.40349434,9.69703964 8.52920873,9.63550023 8.6181613,9.53749539 L8.61495696,9.53429105 L8.61991568,9.53429105 L8.3559579,9.28520944 L8.17745996,9.11370498 L8.17425562,9.11370498 L7.44654125,8.42653356 L5.54166333,8.42653356 C4.49312211,8.41749732 4.46599734,7.56088023 4.46599734,7.56088023 L4.46599734,5.57082285 C4.46716693,5.56091342 4.47212565,5.55186916 4.47212565,5.54136693 C4.47212565,5.5308727 4.46716693,5.52211683 4.46599734,5.511911 L4.46599734,5.50957984 L4.46570895,5.50957984 C4.45082258,5.36292619 4.32786194,5.25102952 4.18045831,5.24999599 L4.95833667,5.24999599 L4.95833667,7.4430325 C4.95833667,7.49203492 4.96737292,7.53840978 4.98020631,7.58303026 C5.03941457,7.7927385 5.22404081,7.94703564 5.44425129,7.94703564 L7.64952839,7.94703564 C7.68152456,7.95314767 7.7105134,7.96990066 7.73178388,7.99457207 C7.74655671,8.02238888 7.76576798,8.04760976 7.78866097,8.06924128 L8.32765554,8.58169588 C8.41924368,8.68873696 8.54699284,8.74998798 8.68144708,8.74998798 C8.70478271,8.74998798 8.72723715,8.74532566 8.74998798,8.74181691 C8.87044223,8.72265271 8.97881943,8.65765108 9.05244594,8.56041103 C9.09127431,8.50984141 9.11257096,8.44799873 9.11311217,8.38424424 L9.11545134,7.96628573 C9.13007843,7.95637465 9.14670672,7.94980265 9.16415736,7.94703564 L9.72123244,7.94703564 C9.94232411,7.94703564 10.1272387,7.79245011 10.1867434,7.58332666 C10.2004793,7.53750624 10.2077434,7.48999078 10.2083247,7.44215932 L10.2083247,4.00457992 C10.2083247,3.92815634 10.1908209,3.85641109 10.161365,3.79137093 L10.161365,3.79167535 Z" id="合并形状" fill="#ADB5BD" fill-rule="nonzero"></path>
                </g>
            </g>
        </g>
    </g>
</svg>