<?xml version="1.0" encoding="UTF-8"?>
<svg width="14px" height="14px" viewBox="0 0 14 14" version="1.1" xmlns="http://www.w3.org/2000/svg" xmlns:xlink="http://www.w3.org/1999/xlink">
    <!-- Generator: Sketch 52.5 (67469) - http://www.bohemiancoding.com/sketch -->
    <title>ic_kbxx</title>
    <desc>Created with Sketch.</desc>
    <g id="个人中心" stroke="none" stroke-width="1" fill="none" fill-rule="evenodd">
        <g id="VIP会员主页" transform="translate(-794.000000, -545.000000)">
            <g id="ic_kbxx" transform="translate(794.000000, 545.000000)">
                <g>
                    <rect id="矩形" fill="#000000" opacity="0" x="0" y="0" width="14" height="14"></rect>
                    <path d="M7,14 C3.13400675,14 0,10.8659932 0,7 C0,3.13400675 3.13400675,0 7,0 C10.8659932,0 14,3.13400675 14,7 C14,10.8659932 10.8659932,14 7,14 Z M10.5,3.5 L3.49766667,3.5 C3.11033333,3.5 2.8,3.8136 2.8,4.1986 L2.8,5.92993333 C2.8,7.72753333 3.93073333,9.34733333 5.51973333,9.947 L5.51973333,10.6115333 C5.51973333,10.7468667 5.56406667,10.7865333 5.6798,10.7968 C8.35753333,11.0161333 11.2,8.9572 11.2,5.92946667 L11.2,4.19906667 C11.2,3.8136 10.8873333,3.5 10.5,3.5 Z M9.4066,7.2828 C8.98566667,7.994 8.33,8.43826667 7.50726667,8.56426667 C7.32993333,8.5918 7.1624,8.6016 7.01493333,8.6016 C6.65,8.6016 6.40126667,8.54233333 6.3868,8.53953333 L6.3742,8.5372 C5.21686667,8.18673333 4.65733333,7.41626667 4.39366667,6.83106667 C4.1104,6.2062 4.09826667,5.66533333 4.09826667,5.6336 L4.09593333,5.6336 C4.09772234,5.51801812 4.19220547,5.425408 4.3078,5.42593333 C4.42073333,5.42593333 4.5122,5.5146 4.5192,5.62613333 L4.522,5.62613333 C4.522,5.6308 4.53413333,6.11986667 4.788,6.67053333 C5.12026667,7.39386667 5.69193333,7.88526667 6.49273333,8.1298 C6.54173333,8.1396 6.95566667,8.22593333 7.45826667,8.14473333 C8.15266667,8.03366667 8.68513333,7.6706 9.0398,7.0658 L9.04213333,7.06813333 C9.10166893,6.97163186 9.22706024,6.93981924 9.3254,6.99626667 C9.4262,7.0532 9.46073333,7.18153333 9.4066,7.2828 Z M9.69966667,6.05826667 C9.52850497,6.05171375 9.39312709,5.91105376 9.39312709,5.73976667 C9.39312709,5.56847957 9.52850497,5.42781959 9.69966667,5.42126667 C9.87082837,5.42781959 10.0062062,5.56847957 10.0062062,5.73976667 C10.0062062,5.91105376 9.87082837,6.05171375 9.69966667,6.05826667 Z" id="合并形状" fill="#ADB5BD"></path>
                </g>
            </g>
        </g>
    </g>
</svg>