<?xml version="1.0" encoding="UTF-8"?>
<svg width="14px" height="14px" viewBox="0 0 14 14" version="1.1" xmlns="http://www.w3.org/2000/svg" xmlns:xlink="http://www.w3.org/1999/xlink">
    <!-- Generator: Sketch 52.5 (67469) - http://www.bohemiancoding.com/sketch -->
    <title>ic_media</title>
    <desc>Created with Sketch.</desc>
    <g id="个人中心" stroke="none" stroke-width="1" fill="none" fill-rule="evenodd">
        <g id="VIP会员主页" transform="translate(-880.000000, -570.000000)">
            <g id="ic_media" transform="translate(880.000000, 570.000000)">
                <g>
                    <rect id="矩形" fill="#000000" opacity="0" x="0" y="0" width="14" height="14"></rect>
                    <g id="分组-29">
                        <circle id="椭圆形" fill="#ADB5BD" cx="7" cy="7" r="7"></circle>
                        <path d="M8.24701523,6.25441584 L8.21767369,6.25441584 C8.80082113,5.94187869 9.19669323,5.33627895 9.19669323,4.64024753 C9.19669323,3.62386631 8.35342499,2.8 7.31333606,2.8 C6.33391189,2.8 5.52867974,3.53140105 5.43883944,4.46550561 C5.20096342,4.11113499 4.79159299,3.87628858 4.32572868,3.87628858 C3.58904658,3.87628858 2.99314781,4.45902101 2.99314781,5.17853188 C2.99314781,5.62575165 3.2243421,6.0201712 3.57553785,6.25441583 L3.54357135,6.25441583 C3.13274836,6.25441583 2.8,6.57965242 2.8,6.98097158 L2.8,9.32369808 C2.8,9.72480972 3.13274836,10.0500567 3.54357135,10.0500567 L8.24701523,10.0500567 C8.65743359,10.0500567 8.99052433,9.72480974 8.99052433,9.3236981 L8.99052433,6.98097159 C8.99052433,6.57964206 8.6574232,6.25441584 8.24701523,6.25441584 Z M5.06686182,6.25441584 C5.34620818,6.06993145 5.55229407,5.78794976 5.62634305,5.45523253 C5.79908253,5.79585579 6.07860526,6.07358358 6.41964353,6.25441584 L5.06686182,6.25441584 Z M5.99892244,4.64023716 C5.99892244,3.93109127 6.58734057,3.35663839 7.31292103,3.35663839 C8.03865713,3.35663839 8.62667062,3.93109127 8.62767702,4.64023716 C8.62667062,5.34943492 8.03865713,5.92428207 7.31292103,5.92428207 C6.58734057,5.92428207 5.99892244,5.3494453 5.99892244,4.64023716 Z M7.31292103,3.63112907 C6.74207878,3.6319176 6.2812984,4.08298663 6.27971097,4.64024753 C6.2812984,5.19770556 6.74207878,5.64820395 7.31292103,5.64919999 C7.88288139,5.64820395 8.34491717,5.19770557 8.34532181,4.64024753 C8.34491718,4.08297626 7.88287101,3.6319176 7.31292103,3.63112907 Z M9.32553451,7.7318057 L9.32553451,8.72760219 L11.2,9.68677365 L11.2,6.68684034 L9.32553451,7.7318057 Z" id="形状" fill="#FFFFFF" fill-rule="nonzero"></path>
                    </g>
                </g>
            </g>
        </g>
    </g>
</svg>