<?xml version="1.0" encoding="UTF-8"?>
<svg width="14px" height="14px" viewBox="0 0 14 14" version="1.1" xmlns="http://www.w3.org/2000/svg" xmlns:xlink="http://www.w3.org/1999/xlink">
    <!-- Generator: Sketch 52.5 (67469) - http://www.bohemiancoding.com/sketch -->
    <title>ic_ptfb</title>
    <desc>Created with Sketch.</desc>
    <g id="组件" stroke="none" stroke-width="1" fill="none" fill-rule="evenodd">
        <g id="ic_ptfb">
            <g>
                <g>
                    <rect id="矩形" fill="#000000" opacity="0" x="0" y="0" width="14" height="14"></rect>
                    <path d="M7,0 C10.8669002,4.9775323e-16 14,3.13485114 14,7 C14,10.8651489 10.8651489,14 7,14 C3.13485114,14 0,10.8651489 0,7 C0,3.13485114 3.13485114,0 7,0 Z M2.8,7.55088861 C2.8,9.73867334 4.50838548,11.5101377 6.61837297,11.5101377 C8.72836045,11.5101377 10.4367459,9.73867334 10.4367459,7.55088861 L6.61732165,7.55088861 L6.61732165,3.59163955 C4.50838548,3.59163955 2.8,5.36310388 2.8,7.55088861 Z M11.2,6.75924906 C11.2,4.57146433 9.49161452,2.8 7.38162703,2.8 L7.38162703,6.75924906 L11.2,6.75924906 Z" id="合并形状" fill="#ADB5BD" fill-rule="nonzero"></path>
                </g>
            </g>
        </g>
    </g>
</svg>