<?xml version="1.0" encoding="UTF-8"?>
<svg width="30px" height="30px" viewBox="0 0 30 30" version="1.1" xmlns="http://www.w3.org/2000/svg" xmlns:xlink="http://www.w3.org/1999/xlink">
    <!-- Generator: Sketch 58 (84663) - https://sketch.com -->
    <title>ic_renovate</title>
    <desc>Created with Sketch.</desc>
    <g id="组件" stroke="none" stroke-width="1" fill="none" fill-rule="evenodd">
        <g id="ic_renovate">
            <g>
                <rect id="矩形" fill="#000000" opacity="0" x="0" y="0" width="30" height="30"></rect>
                <path d="M24.4780078,20.7960059 L29.0000195,14.1780176 L25.8020215,14.1780176 C25.3760156,7.70203125 19.9980176,2.57203125 13.4140137,2.57203125 C6.55001953,2.57203125 1.00001953,8.13603516 1.00001953,15.0020215 C1.00001953,21.8620313 6.56402344,27.4280273 13.4280176,27.4280273 C16.5060059,27.4280273 19.3160156,26.3020313 21.4880273,24.4460156 L19.8260156,22.3060254 C18.1160156,23.8020117 15.8800195,24.7200293 13.4280176,24.7200293 C8.05801758,24.7200293 3.70602539,20.3660156 3.70602539,15.0020215 C3.70602539,9.6300293 8.06003906,5.27800781 13.4280176,5.27800781 C18.5180273,5.27800781 22.6760156,9.19599609 23.0940234,14.1780176 L19.9560352,14.1780176 L24.4780371,20.7960059 L24.4780078,20.7960059 Z" id="路径" fill="#FFFFFF"></path>
            </g>
        </g>
    </g>
</svg>