<?xml version="1.0" encoding="UTF-8"?>
<svg width="14px" height="14px" viewBox="0 0 14 14" version="1.1" xmlns="http://www.w3.org/2000/svg" xmlns:xlink="http://www.w3.org/1999/xlink">
    <!-- Generator: Sketch 52.5 (67469) - http://www.bohemiancoding.com/sketch -->
    <title>ic_report</title>
    <desc>Created with Sketch.</desc>
    <g id="个人中心" stroke="none" stroke-width="1" fill="none" fill-rule="evenodd">
        <g id="VIP会员主页" transform="translate(-1099.000000, -642.000000)">
            <g id="ic_report" transform="translate(1099.000000, 642.000000)">
                <g>
                    <rect id="矩形" fill="#000000" opacity="0" x="0" y="0" width="14" height="14"></rect>
                    <path d="M7.02324219,13.9630859 C6.08535156,13.9630859 5.1734375,13.7785156 4.31621094,13.4162109 C3.48769531,13.0662109 2.74394531,12.5644531 2.10546875,11.9259766 C1.46699219,11.2875 0.965234375,10.54375 0.615234375,9.71523437 C0.252929688,8.85800781 0.068359375,7.94746094 0.068359375,7.00820312 C0.068359375,6.06894531 0.252929688,5.15839844 0.615234375,4.30117187 C0.965234375,3.47265625 1.46699219,2.72890625 2.10546875,2.09042969 C2.74394531,1.45195312 3.48769531,0.950195312 4.31621094,0.600195312 C5.1734375,0.237890625 6.08398437,0.0533203125 7.02324219,0.0533203125 C7.9625,0.0533203125 8.87304688,0.237890625 9.73027344,0.600195312 C10.5587891,0.950195312 11.3025391,1.45195312 11.9410156,2.09042969 C12.5794922,2.72890625 13.08125,3.47265625 13.43125,4.30117187 C13.7935547,5.15839844 13.978125,6.06894531 13.978125,7.00820312 C13.978125,7.94746094 13.7935547,8.85800781 13.43125,9.71523437 C13.08125,10.54375 12.5794922,11.2875 11.9410156,11.9259766 C11.3025391,12.5644531 10.5587891,13.0662109 9.73027344,13.4162109 C8.87167969,13.7798828 7.96113281,13.9630859 7.02324219,13.9630859 Z M7.02324219,0.712304687 C3.55058594,0.712304687 0.725976562,3.53691406 0.725976562,7.00957031 C0.725976562,10.4822266 3.55058594,13.3068359 7.02324219,13.3068359 C10.4958984,13.3068359 13.3205078,10.4822266 13.3205078,7.00957031 C13.3205078,3.53691406 10.4958984,0.712304687 7.02324219,0.712304687 Z M7.02871094,12.4714844 L7.02734375,11.8152344 C7.22832031,11.8152344 7.43203125,11.8015625 7.63027344,11.7769531 L7.71230469,12.4277344 C7.48808594,12.4578125 7.25703125,12.4714844 7.02871094,12.4714844 Z M6.34511719,12.4304687 C6.11816406,12.4017578 5.89121094,12.359375 5.67109375,12.3033203 L5.83242188,11.6675781 C6.0265625,11.7167969 6.22617188,11.7550781 6.42578125,11.7796875 L6.34511719,12.4304687 Z M8.38632813,12.3005859 L8.22226563,11.6648437 C8.41640625,11.6142578 8.60917969,11.5527344 8.79511719,11.4775391 L9.03710938,12.0873047 C8.8265625,12.1720703 8.6078125,12.2431641 8.38632813,12.3005859 Z M5.01757812,12.0927734 C4.80566406,12.009375 4.59648437,11.9109375 4.396875,11.8015625 L4.71269531,11.2259766 C4.8890625,11.3230469 5.07226563,11.4091797 5.25820313,11.4830078 L5.01757812,12.0927734 Z M9.65917969,11.7947266 L9.34199219,11.2205078 C9.51699219,11.1234375 9.68789062,11.0140625 9.85058594,10.8964844 L10.2375,11.4269531 C10.0529297,11.5609375 9.85878906,11.6853516 9.65917969,11.7947266 Z M3.8171875,11.4324219 C3.63261719,11.2984375 3.45488281,11.1521484 3.28808594,10.9962891 L3.73652344,10.5177734 C3.8828125,10.6544922 4.04003906,10.784375 4.20136719,10.9019531 L3.8171875,11.4324219 Z M10.7652344,10.9894531 L10.3154297,10.5109375 C10.4617188,10.3728516 10.6011719,10.2251953 10.7283203,10.0707031 L11.2341797,10.4890625 C11.0878906,10.6640625 10.9306641,10.8335937 10.7652344,10.9894531 Z M2.81914062,10.4972656 C2.67285156,10.3222656 2.5375,10.1349609 2.41445312,9.94355469 L2.96816406,9.59082031 C3.07617187,9.76035156 3.19511719,9.92441406 3.32363281,10.0775391 L2.81914062,10.4972656 Z M11.6375,9.93398437 L11.0837891,9.58261719 C11.1917969,9.41308594 11.2888672,9.23535156 11.375,9.05351562 L11.9683594,9.33242187 C11.8699219,9.53886719 11.7591797,9.74121094 11.6375,9.93398437 Z M2.08359375,9.34335937 C1.98652344,9.13691406 1.90039062,8.92226562 1.82929687,8.70625 L2.45273437,8.50253906 C2.51425781,8.69257812 2.58945312,8.88125 2.67558594,9.06308594 L2.08359375,9.34335937 Z M12.2199219,8.6953125 L11.5951172,8.49296875 C11.6566406,8.30292969 11.7072266,8.10605469 11.7441406,7.90917969 L12.3894531,8.03085937 C12.3470703,8.25507812 12.2896484,8.47792969 12.2199219,8.6953125 Z M1.65839844,8.04179687 C1.61601562,7.81894531 1.58730469,7.58925781 1.57226562,7.3609375 L2.22714844,7.31992187 C2.23945312,7.52089844 2.26542969,7.721875 2.30234375,7.91875 L1.65839844,8.04179687 Z M12.4742187,7.35 L11.8193359,7.31035156 C11.8248047,7.21191406 11.8289063,7.11074219 11.8289063,7.0109375 C11.8289063,6.90976562 11.8261719,6.80722656 11.8193359,6.70605469 L12.4742187,6.66503906 C12.4810547,6.77988281 12.4851562,6.89609375 12.4851562,7.0109375 C12.4851562,7.12304687 12.4810547,7.23789062 12.4742187,7.35 Z M2.22578125,6.715625 L1.57089844,6.67597656 C1.58457031,6.44765625 1.61328125,6.21933594 1.65429687,5.99511719 L2.29960937,6.11679687 C2.26269531,6.31367187 2.23808594,6.51601562 2.22578125,6.715625 Z M11.7441406,6.10722656 C11.7072266,5.91035156 11.6566406,5.71347656 11.59375,5.5234375 L12.2171875,5.32109375 C12.2882812,5.53847656 12.3443359,5.76132812 12.3880859,5.98554687 L11.7441406,6.10722656 Z M2.44863281,5.53300781 L1.82382812,5.33203125 C1.89355469,5.11464844 1.97832031,4.9 2.07539062,4.69355469 L2.67011719,4.97246094 C2.58398437,5.15292969 2.51015625,5.34160156 2.44863281,5.53300781 Z M11.3722656,4.96289062 C11.2875,4.78242187 11.1890625,4.6046875 11.0810547,4.43515625 L11.6347656,4.08242187 C11.7578125,4.27519531 11.8685547,4.47617187 11.965625,4.68261719 L11.3722656,4.96289062 Z M2.95996094,4.44199219 L2.40625,4.090625 C2.52792969,3.89785156 2.66328125,3.71191406 2.80820313,3.53554687 L3.3140625,3.95253906 C3.18691406,4.10839844 3.06796875,4.27246094 2.95996094,4.44199219 Z M10.7255859,3.94707031 C10.5970703,3.79257812 10.4589844,3.64492187 10.3126953,3.50683594 L10.7625,3.02832031 C10.9292969,3.18417969 11.0865234,3.35234375 11.2314453,3.52734375 L10.7255859,3.94707031 Z M3.72695312,3.51230469 L3.27714844,3.03515625 C3.44257812,2.87929687 3.6203125,2.73164062 3.80488281,2.59765625 L4.19179687,3.128125 C4.02910156,3.24570312 3.87324219,3.37558594 3.72695312,3.51230469 Z M9.84785156,3.12128906 C9.68515625,3.00371094 9.51425781,2.89433594 9.33789063,2.79726562 L9.65507813,2.22304687 C9.8546875,2.33242187 10.0488281,2.45683594 10.2333984,2.59082031 L9.84785156,3.12128906 Z M4.69902344,2.80273437 L4.38183594,2.22851562 C4.58144531,2.11777344 4.78925781,2.01933594 5.00117188,1.93457031 L5.24453125,2.54433594 C5.05859375,2.61816406 4.87539063,2.70566406 4.69902344,2.80273437 Z M8.79238281,2.54023437 C8.60644531,2.46640625 8.41230469,2.40351562 8.21816406,2.35429687 L8.38085938,1.71855469 C8.60234375,1.77460937 8.82109375,1.84707031 9.034375,1.93046875 L8.79238281,2.54023437 Z M5.81738281,2.35703125 L5.65332031,1.72128906 C5.8734375,1.66386719 6.10039062,1.62148437 6.32734375,1.59140625 L6.41074219,2.2421875 C6.20976562,2.26816406 6.01152344,2.30644531 5.81738281,2.35703125 Z M7.62617188,2.2421875 C7.42792969,2.21757812 7.22558594,2.20527344 7.02324219,2.20527344 L7.01230469,2.20527344 L7.0109375,1.54902344 L7.02324219,1.54902344 C7.25292969,1.54902344 7.48261719,1.56269531 7.70820313,1.59140625 L7.62617188,2.2421875 Z M7.02324219,13.9630859 C6.08535156,13.9630859 5.1734375,13.7785156 4.31621094,13.4162109 C3.48769531,13.0662109 2.74394531,12.5644531 2.10546875,11.9259766 C1.46699219,11.2875 0.965234375,10.54375 0.615234375,9.71523437 C0.252929688,8.85800781 0.068359375,7.94746094 0.068359375,7.00820312 C0.068359375,6.06894531 0.252929688,5.15839844 0.615234375,4.30117187 C0.965234375,3.47265625 1.46699219,2.72890625 2.10546875,2.09042969 C2.74394531,1.45195312 3.48769531,0.950195312 4.31621094,0.600195312 C5.1734375,0.237890625 6.08398437,0.0533203125 7.02324219,0.0533203125 C7.9625,0.0533203125 8.87304688,0.237890625 9.73027344,0.600195312 C10.5587891,0.950195312 11.3025391,1.45195312 11.9410156,2.09042969 C12.5794922,2.72890625 13.08125,3.47265625 13.43125,4.30117187 C13.7935547,5.15839844 13.978125,6.06894531 13.978125,7.00820312 C13.978125,7.94746094 13.7935547,8.85800781 13.43125,9.71523437 C13.08125,10.54375 12.5794922,11.2875 11.9410156,11.9259766 C11.3025391,12.5644531 10.5587891,13.0662109 9.73027344,13.4162109 C8.87167969,13.7798828 7.96113281,13.9630859 7.02324219,13.9630859 Z M7.02324219,0.712304687 C3.55058594,0.712304687 0.725976562,3.53691406 0.725976562,7.00957031 C0.725976562,10.4822266 3.55058594,13.3068359 7.02324219,13.3068359 C10.4958984,13.3068359 13.3205078,10.4822266 13.3205078,7.00957031 C13.3205078,3.53691406 10.4958984,0.712304687 7.02324219,0.712304687 Z M7.02871094,12.4714844 L7.02734375,11.8152344 C7.22832031,11.8152344 7.43203125,11.8015625 7.63027344,11.7769531 L7.71230469,12.4277344 C7.48808594,12.4578125 7.25703125,12.4714844 7.02871094,12.4714844 Z M6.34511719,12.4304687 C6.11816406,12.4017578 5.89121094,12.359375 5.67109375,12.3033203 L5.83242188,11.6675781 C6.0265625,11.7167969 6.22617188,11.7550781 6.42578125,11.7796875 L6.34511719,12.4304687 Z M8.38632813,12.3005859 L8.22226563,11.6648437 C8.41640625,11.6142578 8.60917969,11.5527344 8.79511719,11.4775391 L9.03710938,12.0873047 C8.8265625,12.1720703 8.6078125,12.2431641 8.38632813,12.3005859 Z M5.01757812,12.0927734 C4.80566406,12.009375 4.59648437,11.9109375 4.396875,11.8015625 L4.71269531,11.2259766 C4.8890625,11.3230469 5.07226563,11.4091797 5.25820313,11.4830078 L5.01757812,12.0927734 Z M9.65917969,11.7947266 L9.34199219,11.2205078 C9.51699219,11.1234375 9.68789062,11.0140625 9.85058594,10.8964844 L10.2375,11.4269531 C10.0529297,11.5609375 9.85878906,11.6853516 9.65917969,11.7947266 Z M3.8171875,11.4324219 C3.63261719,11.2984375 3.45488281,11.1521484 3.28808594,10.9962891 L3.73652344,10.5177734 C3.8828125,10.6544922 4.04003906,10.784375 4.20136719,10.9019531 L3.8171875,11.4324219 Z M10.7652344,10.9894531 L10.3154297,10.5109375 C10.4617188,10.3728516 10.6011719,10.2251953 10.7283203,10.0707031 L11.2341797,10.4890625 C11.0878906,10.6640625 10.9306641,10.8335937 10.7652344,10.9894531 Z M2.81914062,10.4972656 C2.67285156,10.3222656 2.5375,10.1349609 2.41445312,9.94355469 L2.96816406,9.59082031 C3.07617187,9.76035156 3.19511719,9.92441406 3.32363281,10.0775391 L2.81914062,10.4972656 Z M11.6375,9.93398437 L11.0837891,9.58261719 C11.1917969,9.41308594 11.2888672,9.23535156 11.375,9.05351562 L11.9683594,9.33242187 C11.8699219,9.53886719 11.7591797,9.74121094 11.6375,9.93398437 Z M2.08359375,9.34335937 C1.98652344,9.13691406 1.90039062,8.92226562 1.82929687,8.70625 L2.45273437,8.50253906 C2.51425781,8.69257812 2.58945312,8.88125 2.67558594,9.06308594 L2.08359375,9.34335937 Z M12.2199219,8.6953125 L11.5951172,8.49296875 C11.6566406,8.30292969 11.7072266,8.10605469 11.7441406,7.90917969 L12.3894531,8.03085937 C12.3470703,8.25507812 12.2896484,8.47792969 12.2199219,8.6953125 Z M1.65839844,8.04179687 C1.61601562,7.81894531 1.58730469,7.58925781 1.57226562,7.3609375 L2.22714844,7.31992187 C2.23945312,7.52089844 2.26542969,7.721875 2.30234375,7.91875 L1.65839844,8.04179687 Z M12.4742187,7.35 L11.8193359,7.31035156 C11.8248047,7.21191406 11.8289063,7.11074219 11.8289063,7.0109375 C11.8289063,6.90976562 11.8261719,6.80722656 11.8193359,6.70605469 L12.4742187,6.66503906 C12.4810547,6.77988281 12.4851562,6.89609375 12.4851562,7.0109375 C12.4851562,7.12304687 12.4810547,7.23789062 12.4742187,7.35 Z M2.22578125,6.715625 L1.57089844,6.67597656 C1.58457031,6.44765625 1.61328125,6.21933594 1.65429687,5.99511719 L2.29960937,6.11679687 C2.26269531,6.31367187 2.23808594,6.51601562 2.22578125,6.715625 Z M11.7441406,6.10722656 C11.7072266,5.91035156 11.6566406,5.71347656 11.59375,5.5234375 L12.2171875,5.32109375 C12.2882812,5.53847656 12.3443359,5.76132812 12.3880859,5.98554687 L11.7441406,6.10722656 Z M2.44863281,5.53300781 L1.82382812,5.33203125 C1.89355469,5.11464844 1.97832031,4.9 2.07539062,4.69355469 L2.67011719,4.97246094 C2.58398437,5.15292969 2.51015625,5.34160156 2.44863281,5.53300781 Z M11.3722656,4.96289062 C11.2875,4.78242187 11.1890625,4.6046875 11.0810547,4.43515625 L11.6347656,4.08242187 C11.7578125,4.27519531 11.8685547,4.47617187 11.965625,4.68261719 L11.3722656,4.96289062 Z M2.95996094,4.44199219 L2.40625,4.090625 C2.52792969,3.89785156 2.66328125,3.71191406 2.80820313,3.53554687 L3.3140625,3.95253906 C3.18691406,4.10839844 3.06796875,4.27246094 2.95996094,4.44199219 Z M10.7255859,3.94707031 C10.5970703,3.79257812 10.4589844,3.64492187 10.3126953,3.50683594 L10.7625,3.02832031 C10.9292969,3.18417969 11.0865234,3.35234375 11.2314453,3.52734375 L10.7255859,3.94707031 Z M3.72695312,3.51230469 L3.27714844,3.03515625 C3.44257812,2.87929687 3.6203125,2.73164062 3.80488281,2.59765625 L4.19179687,3.128125 C4.02910156,3.24570312 3.87324219,3.37558594 3.72695312,3.51230469 Z M9.84785156,3.12128906 C9.68515625,3.00371094 9.51425781,2.89433594 9.33789063,2.79726562 L9.65507813,2.22304687 C9.8546875,2.33242187 10.0488281,2.45683594 10.2333984,2.59082031 L9.84785156,3.12128906 Z M4.69902344,2.80273437 L4.38183594,2.22851562 C4.58144531,2.11777344 4.78925781,2.01933594 5.00117188,1.93457031 L5.24453125,2.54433594 C5.05859375,2.61816406 4.87539063,2.70566406 4.69902344,2.80273437 Z M8.79238281,2.54023437 C8.60644531,2.46640625 8.41230469,2.40351562 8.21816406,2.35429687 L8.38085938,1.71855469 C8.60234375,1.77460937 8.82109375,1.84707031 9.034375,1.93046875 L8.79238281,2.54023437 Z M5.81738281,2.35703125 L5.65332031,1.72128906 C5.8734375,1.66386719 6.10039062,1.62148437 6.32734375,1.59140625 L6.41074219,2.2421875 C6.20976562,2.26816406 6.01152344,2.30644531 5.81738281,2.35703125 Z M7.62617188,2.2421875 C7.42792969,2.21757812 7.22558594,2.20527344 7.02324219,2.20527344 L7.01230469,2.20527344 L7.0109375,1.54902344 L7.02324219,1.54902344 C7.25292969,1.54902344 7.48261719,1.56269531 7.70820313,1.59140625 L7.62617188,2.2421875 Z M9.61953125,4.44199219 C9.61953125,4.29570312 9.56210937,4.15625 9.45683594,4.05371094 C9.3515625,3.9484375 9.21484375,3.89101562 9.06855469,3.89101562 L4.9765625,3.89101562 C4.67167969,3.89101562 4.42285156,4.13984375 4.42285156,4.44472656 L4.42285156,9.63867187 C4.42285156,9.67695312 4.43242188,9.70839844 4.44882812,9.74121094 C4.51855469,9.96679687 4.72910156,10.1294922 4.9765625,10.1294922 L9.06855469,10.1294922 C9.35839844,10.1294922 9.59628906,9.90664062 9.61953125,9.62636719 C9.62226563,9.60996094 9.62226563,9.59765625 9.62226563,9.58125 L9.61953125,4.44199219 Z M5.39628906,5.18984375 L8.51894531,5.18984375 C8.73769531,5.18984375 8.90722656,5.36621094 8.90722656,5.578125 C8.90722656,5.796875 8.73085937,5.96640625 8.51894531,5.96640625 L5.39628906,5.96640625 C5.18300781,5.96640625 5.00800781,5.79003906 5.00800781,5.578125 C5.00117187,5.36621094 5.17753906,5.18984375 5.39628906,5.18984375 Z M5.06816406,7.1421875 C5.06816406,6.92890625 5.24316406,6.75390625 5.45644531,6.75390625 L6.75117188,6.75390625 C6.96445313,6.75390625 7.13945313,6.92890625 7.13945313,7.1421875 C7.13945313,7.35546875 6.96445313,7.53046875 6.75117188,7.53046875 L5.45644531,7.53046875 C5.24316406,7.53046875 5.06816406,7.35546875 5.06816406,7.1421875 Z M8.54765625,7.46484375 L7.03007813,8.98242187 C7.02050781,8.99199219 7.00820313,8.99882812 6.99179688,9.0015625 L6.48320313,9.16425781 C6.41621094,9.18613281 6.35605469,9.12324219 6.37519531,9.05625 L6.53789063,8.54765625 C6.540625,8.53535156 6.54746094,8.52578125 6.55703125,8.51210937 L8.07460937,6.99453125 C8.11015625,6.95898437 8.16074219,6.95898437 8.19492187,6.99453125 L8.54765625,7.34179687 C8.57910156,7.37597656 8.57910156,7.43066406 8.54765625,7.46484375 Z M8.89765625,7.11210937 L8.82519531,7.1859375 C8.78691406,7.22148437 8.73632812,7.22148437 8.70078125,7.1859375 L8.35078125,6.8359375 C8.31523437,6.79765625 8.31523437,6.74707031 8.35078125,6.71152344 L8.4875,6.57753906 C8.55175781,6.51054687 8.65976562,6.51054687 8.72265625,6.57753906 L8.89765625,6.75253906 C8.99609375,6.85371094 8.99609375,7.00957031 8.89765625,7.11210937 Z" id="形状" fill="#ADB5BD" fill-rule="nonzero"></path>
                </g>
            </g>
        </g>
    </g>
</svg>