<?xml version="1.0" encoding="UTF-8"?>
<svg width="14px" height="14px" viewBox="0 0 14 14" version="1.1" xmlns="http://www.w3.org/2000/svg" xmlns:xlink="http://www.w3.org/1999/xlink">
    <!-- Generator: Sketch 52.5 (67469) - http://www.bohemiancoding.com/sketch -->
    <title>ic_sjzl</title>
    <desc>Created with Sketch.</desc>
    <g id="个人中心" stroke="none" stroke-width="1" fill="none" fill-rule="evenodd">
        <g id="VIP会员主页" transform="translate(-794.000000, -495.000000)">
            <g id="ic_sjzl" transform="translate(794.000000, 495.000000)">
                <g>
                    <rect id="矩形" fill="#000000" opacity="0" x="0" y="0" width="14" height="14"></rect>
                    <path d="M7,0 C3.13793103,0 0,3.13793103 0,7 C0,10.862069 3.13793103,14 7,14 C10.862069,14 14,10.862069 14,7 C14,3.13793103 10.862069,0 7,0 Z M10.6045977,9.91264368 C10.4114943,10.1057471 10.145977,10.2103448 9.87241379,10.2103448 C9.30114943,10.2103448 8.83448276,9.75977011 8.83448276,9.19655172 C8.83448276,9.08390805 8.85862069,8.97126437 8.89885057,8.86666667 L7.78045977,8.30344828 C7.49885057,8.6816092 7.04827586,8.89885057 6.5816092,8.89885057 C6.25977011,8.89885057 5.93793103,8.79425287 5.68045977,8.60114943 L5.12528736,8.88275862 C5.15747126,8.97931034 5.1816092,9.08390805 5.1816092,9.18850575 C5.1816092,9.46206897 5.06896552,9.71954023 4.87586207,9.9045977 C4.68275862,10.0977011 4.41724138,10.2022989 4.14367816,10.2022989 C3.57241379,10.2022989 3.10574713,9.75172414 3.10574713,9.18850575 C3.10574713,8.91494253 3.2183908,8.65747126 3.41149425,8.47241379 C3.6045977,8.27931034 3.87011494,8.17471264 4.14367816,8.17471264 C4.4816092,8.17471264 4.80344828,8.33563218 4.99655172,8.6091954 L5.44712644,8.38390805 C5.2137931,8.12643678 5.06896552,7.8045977 5.06896552,7.43448276 C5.06896552,6.67816092 5.65632184,6.06666667 6.41264368,5.9862069 L6.41264368,4.99655172 C5.9137931,4.92413793 5.52758621,4.50574713 5.52758621,3.99885057 C5.52758621,3.72528736 5.64022989,3.46781609 5.83333333,3.28275862 C6.02643678,3.08965517 6.29195402,2.98505747 6.56551724,2.98505747 C7.13678161,2.98505747 7.60344828,3.43563218 7.60344828,3.99885057 C7.60344828,4.49770115 7.22528736,4.92413793 6.7183908,4.99655172 L6.7183908,5.99425287 C7.1045977,6.03448276 7.45862069,6.21149425 7.70804598,6.50114943 L8.40804598,6.21954023 C8.32758621,5.90574713 8.40804598,5.56781609 8.62528736,5.32643678 C8.9954023,4.9 9.65517241,4.84367816 10.0896552,5.20574713 C10.2988506,5.37471264 10.4275862,5.62413793 10.4517241,5.89770115 C10.4758621,6.16321839 10.3873563,6.43678161 10.2103448,6.63793103 C9.84022989,7.06436782 9.18045977,7.12068966 8.74597701,6.75862069 C8.65747126,6.6862069 8.58505747,6.59770115 8.52873563,6.50114943 L7.88505747,6.75862069 C8.00574713,6.96781609 8.07011494,7.20114943 8.07011494,7.44252874 C8.07011494,7.65172414 8.02183908,7.86091954 7.92528736,8.05402299 L9.02758621,8.6091954 C9.22873563,8.34367816 9.53448276,8.1908046 9.87241379,8.1908046 C10.145977,8.1908046 10.4114943,8.2954023 10.6045977,8.48850575 C10.7977011,8.67356322 10.9103448,8.93908046 10.9103448,9.2045977 C10.9103448,9.46206897 10.7977011,9.71954023 10.6045977,9.91264368 Z" id="形状" fill="#ADB5BD" fill-rule="nonzero"></path>
                </g>
            </g>
        </g>
    </g>
</svg>