<?xml version="1.0" encoding="UTF-8"?>
<svg width="16px" height="16px" viewBox="0 0 16 16" version="1.1" xmlns="http://www.w3.org/2000/svg" xmlns:xlink="http://www.w3.org/1999/xlink">
    <!-- Generator: Sketch 52.5 (67469) - http://www.bohemiancoding.com/sketch -->
    <title>ic_select</title>
    <desc>Created with Sketch.</desc>
    <g id="个人中心" stroke="none" stroke-width="1" fill="none" fill-rule="evenodd">
        <g id="我的黄金VIP" transform="translate(-323.000000, -636.000000)" fill="#6248FF" fill-rule="nonzero">
            <g id="分组-20" transform="translate(282.000000, 95.000000)">
                <g id="ic_select" transform="translate(41.000000, 541.000000)">
                    <path d="M8,1 C4.13399799,1 1,4.134026 1,8 C1,11.866002 4.13399801,15 8,15 C11.865974,15 15,11.866002 15,8 C15,4.134012 11.865974,1 8,1 Z M11.838394,6.02033 L7.136144,10.72258 C7.03344,10.825284 6.89793399,10.87588 6.76255399,10.87525 C6.62718799,10.875866 6.49165399,10.825284 6.38895,10.72258 L4.161578,8.49519401 C3.957402,8.291018 3.957402,7.95690801 4.161578,7.75274601 C4.36575401,7.54857 4.699864,7.54857 4.90404001,7.75274601 L6.76254001,9.61124601 L11.095932,5.27785401 C11.300108,5.07367801 11.634218,5.07367801 11.838394,5.27785401 C12.04257,5.48203002 12.042584,5.81615399 11.838394,6.02033 Z" id="形状"></path>
                </g>
            </g>
        </g>
    </g>
</svg>