<?xml version="1.0" encoding="UTF-8"?>
<svg width="16px" height="16px" viewBox="0 0 16 16" version="1.1" xmlns="http://www.w3.org/2000/svg" xmlns:xlink="http://www.w3.org/1999/xlink">
    <!-- Generator: Sketch 58 (84663) - https://sketch.com -->
    <title>提示</title>
    <desc>Created with Sketch.</desc>
    <g id="组件" stroke="none" stroke-width="1" fill="none" fill-rule="evenodd">
        <g id="提示">
            <g>
                <g>
                    <rect id="矩形" fill="#000000" opacity="0" x="0" y="0" width="16" height="16"></rect>
                    <path d="M7.97958184,2.0066395 C4.69059578,2.0066395 2.02417961,4.67263995 2.02417961,7.96204173 C2.02417961,11.2514755 4.69059578,13.9174919 7.97958184,13.9174919 C11.2689836,13.9174919 13.935032,11.2514915 13.935032,7.96204173 C13.935032,4.67263995 11.2689836,2.0066395 7.97958184,2.0066395 Z M8.82763086,12.283224 L7.10626995,12.283224 L7.10626995,10.6232774 L8.82763086,10.6232774 L8.82763086,12.283224 L8.82763086,12.283224 Z M8.410026,9.93408069 L7.53671411,9.93408069 C7.19815966,7.88826775 7.02886644,6.14888705 7.02886644,4.716802 C7.02886644,4.37819958 7.03646128,4.0725508 7.05293013,3.79654594 L8.86928264,3.79654594 C8.89334633,4.08778847 8.90501841,4.40629253 8.90501841,4.75287355 C8.90505038,6.16009545 8.73975445,7.88826775 8.410026,9.93408069 Z" fill="#FF6666" fill-rule="nonzero"></path>
                </g>
            </g>
        </g>
    </g>
</svg>