<?xml version="1.0" encoding="UTF-8"?>
<svg width="14px" height="14px" viewBox="0 0 14 14" version="1.1" xmlns="http://www.w3.org/2000/svg" xmlns:xlink="http://www.w3.org/1999/xlink">
    <!-- Generator: Sketch 52.5 (67469) - http://www.bohemiancoding.com/sketch -->
    <title>vs2</title>
    <desc>Created with Sketch.</desc>
    <g id="个人中心" stroke="none" stroke-width="1" fill="none" fill-rule="evenodd">
        <g id="VIP会员主页" transform="translate(-880.000000, -645.000000)" fill="#ADB5BD" fill-rule="nonzero">
            <g id="vs2" transform="translate(880.000000, 645.000000)">
                <g id="形状">
                    <path d="M7,0 C3.136,0 0,3.136 0,7 C0,10.864 3.136,14 7,14 C10.864,14 14,10.864 14,7 C14,3.136 10.864,0 7,0 Z M6.53333333,4.37733333 L4.676,9.94 C4.61066667,10.1266667 4.43333333,10.2573333 4.23733333,10.2573333 C4.04133333,10.2573333 3.864,10.1266667 3.79866667,9.94 L1.94133333,4.37733333 C1.85733333,4.13466667 1.988,3.87333333 2.23066667,3.78933333 C2.47333333,3.70533333 2.73466667,3.836 2.81866667,4.07866667 L4.23733333,8.32533333 L5.656,4.07866667 C5.74,3.836 6.00133333,3.70533333 6.244,3.78933333 C6.47733333,3.87333333 6.61733333,4.13466667 6.53333333,4.37733333 Z M8.876,6.54266667 C10.2666667,6.54266667 11.2,7.28933333 11.2,8.4 C11.2,9.53866667 10.3133333,10.2573333 8.876,10.2573333 C7.532,10.2573333 6.552,9.47333333 6.552,8.4 C6.552,8.148 6.75733333,7.93333333 7.01866667,7.93333333 C7.28,7.93333333 7.48533333,8.13866667 7.48533333,8.4 C7.48533333,8.94133333 8.05466667,9.324 8.876,9.324 C9.39866667,9.324 10.2666667,9.20266667 10.2666667,8.4 C10.2666667,7.51333333 9.10933333,7.476 8.876,7.476 C7.48533333,7.476 6.552,6.72933333 6.552,5.61866667 C6.552,4.47066667 7.43866667,3.76133333 8.876,3.76133333 C10.22,3.76133333 11.2,4.54533333 11.2,5.61866667 C11.2,5.87066667 10.9946667,6.08533333 10.7333333,6.08533333 C10.472,6.08533333 10.2666667,5.88 10.2666667,5.61866667 C10.2666667,5.07733333 9.69733333,4.69466667 8.876,4.69466667 C8.35333333,4.69466667 7.48533333,4.816 7.48533333,5.61866667 C7.48533333,6.50533333 8.64266667,6.54266667 8.876,6.54266667 Z"></path>
                </g>
            </g>
        </g>
    </g>
</svg>