<?xml version="1.0" encoding="UTF-8"?>
<svg width="14px" height="14px" viewBox="0 0 14 14" version="1.1" xmlns="http://www.w3.org/2000/svg" xmlns:xlink="http://www.w3.org/1999/xlink">
    <!-- Generator: Sketch 52.5 (67469) - http://www.bohemiancoding.com/sketch -->
    <title>ic_value</title>
    <desc>Created with Sketch.</desc>
    <g id="个人中心" stroke="none" stroke-width="1" fill="none" fill-rule="evenodd">
        <g id="VIP会员主页" transform="translate(-880.000000, -620.000000)">
            <g id="ic_value" transform="translate(880.000000, 620.000000)">
                <rect id="矩形" fill="#000000" opacity="0" x="0" y="0" width="14" height="14"></rect>
                <path d="M3.08615361,9.87321215 L10.645183,9.87321215 L10.645183,3.24085849 L3.08615361,3.24085849 L3.08615361,9.87321215 Z M6.98289423,6.51333388 L9.31932412,6.51333388 C9.31932412,6.51333388 9.71530394,6.7782494 9.31932412,7.05474494 L6.98289423,7.05474494 C6.98289423,7.05474494 6.67615922,6.77254745 6.98289423,6.51333388 Z M9.43986548,8.14009771 L7.6700889,8.13756708 C7.15358374,7.77469369 7.79815809,7.59615602 7.79815809,7.59615602 L9.25166975,7.59953554 C9.7962361,7.68762714 9.43986548,8.14009771 9.43986548,8.14009771 Z M9.3193241,5.9719228 L6.98289423,5.9719228 C6.98289423,5.9719228 6.66813488,5.74160327 6.98289423,5.41726595 L9.31932412,5.43052775 C9.3193241,5.43052775 9.72331226,5.70973013 9.3193241,5.9719228 Z M6.98289423,4.3476896 L9.32773285,4.35214223 C9.32773285,4.35214223 9.71128375,4.61720189 9.3193241,4.88908465 L6.98289423,4.88908465 C6.98289423,4.88910066 6.61209259,4.61552014 6.98289423,4.3476896 Z M5.333643,6.3779771 C5.333643,6.3779771 4.53077601,6.35023626 4.1623929,5.8176824 C4.1623929,5.8176824 3.96618885,5.49734926 4.23046369,5.09292867 C4.23046369,5.09292867 4.45870105,4.7565148 4.91117162,4.61840316 L4.92134219,4.21233284 L5.33365899,4.21233284 L5.33365899,4.61840316 L5.60853687,4.61840316 C5.60853687,4.61840316 5.94925922,4.62810926 6.02083766,4.7537439 L6.02083766,5.15981422 L5.88339873,5.15981422 L5.88339873,5.29517099 L5.60853687,5.29517099 L5.60853687,5.15981422 L5.05878112,5.15981422 C5.05878112,5.15981422 4.57616721,5.45599424 5.0032834,5.61616081 C5.0032834,5.61616081 5.21149995,5.69256028 5.34964362,5.70357973 C5.34964362,5.70357973 5.61492753,5.74161928 5.84616,5.88878034 C5.84616,5.88878034 6.04398173,5.99692481 6.15829261,6.24266838 L6.15829261,7.05477696 C6.15829261,7.05477696 5.7080964,7.51531992 5.333675,7.46083127 L5.333675,8.00224233 L4.91786657,8.00224233 L4.9213582,7.46083127 L4.09672458,7.46083127 C4.09672458,7.46083127 3.83483621,7.2123008 4.09672458,6.9194202 L5.333675,6.9194202 C5.333643,6.91938817 5.527877,6.75007608 5.333643,6.3779771 Z M7.00001603,0 C3.13401138,0 8.27782287e-13,3.13399536 8.27782287e-13,7 C8.27782287e-13,10.8660046 3.13401137,14 7.00001603,14 C10.8660047,14 13.999984,10.8659886 13.999984,7 C13.999984,3.13401137 10.8660047,0 7.00001603,0 Z M11.3323937,11.2267318 L10.5077761,10.2792825 L10.3703532,10.2792825 L9.82059744,11.2267318 L9.2708417,10.2792825 L9.13338674,10.2792825 L8.58366303,11.2267318 L8.17136224,10.2792825 L8.03390728,10.2792825 L7.48415154,11.2267318 L7.07185075,10.2792825 L6.93442783,10.2792825 L6.38468809,11.2267318 L5.83491633,10.2792825 L5.69749342,10.2792825 L5.14773767,11.2267318 L4.73542087,10.2792825 L4.59798194,10.2792825 L4.18566514,11.2267318 L3.49848647,10.2792825 L3.36104754,10.2792825 L2.53642993,11.2267318 L2.53642989,3.24085849 C2.53642989,3.24085849 2.49688476,2.56409066 3.08618563,2.56409066 L10.78267,2.56409066 C10.78267,2.56409066 11.3323937,2.65248659 11.3323937,3.24085849 L11.3323937,11.2267318 Z" id="形状" fill="#ADB5BD" fill-rule="nonzero"></path>
            </g>
        </g>
    </g>
</svg>