<?xml version="1.0" encoding="UTF-8"?>
<svg width="16px" height="16px" viewBox="0 0 16 16" version="1.1" xmlns="http://www.w3.org/2000/svg" xmlns:xlink="http://www.w3.org/1999/xlink">
    <!-- Generator: Sketch 52.5 (67469) - http://www.bohemiancoding.com/sketch -->
    <title>ic_wechat</title>
    <desc>Created with Sketch.</desc>
    <g id="个人中心" stroke="none" stroke-width="1" fill="none" fill-rule="evenodd">
        <g id="我的黄金VIP" transform="translate(-662.000000, -530.000000)">
            <g id="分组-20" transform="translate(282.000000, 95.000000)">
                <g id="ic_wechat" transform="translate(380.000000, 435.000000)">
                    <g>
                        <rect id="矩形" fill="#000000" opacity="0" x="0" y="0" width="16" height="16"></rect>
                        <path d="M5.43326747,5.51600313 C5.17565623,5.51600313 4.96800595,5.72521467 4.96800595,5.98126464 C4.96800595,6.23731461 5.17565622,6.44808744 5.43326747,6.44808744 C5.69087872,6.44808744 5.89852898,6.23887589 5.89852898,5.98282592 C5.89852898,5.72677595 5.69087872,5.51600312 5.43326747,5.51600312 Z M9.02733461,7.99687744 C8.81343922,7.99687744 8.63857583,8.17017955 8.63857581,8.38563622 C8.63857581,8.59953161 8.81187792,8.774395 9.02733461,8.774395 C9.24123,8.774395 9.41609339,8.59953161 9.41609339,8.38563622 C9.41609339,8.17174083 9.24123,7.99687744 9.02733461,7.99687744 Z M7.82671009,6.44808744 C8.08432133,6.44808744 8.29197161,6.23887589 8.29197161,5.98282592 C8.29197161,5.72677595 8.08276006,5.51756441 7.82671009,5.51756441 C7.56909886,5.51756441 7.36144858,5.72677595 7.36144858,5.98282592 C7.36144858,6.23887589 7.56909884,6.44808744 7.82671009,6.44808744 Z M10.9133611,7.99375487 C10.6994657,7.99375487 10.5246024,8.16705698 10.5246024,8.38251366 C10.5246024,8.59640905 10.6979045,8.77127244 10.9133611,8.77127244 C11.1272565,8.77127244 11.3021199,8.59797033 11.3021199,8.38251366 C11.3005586,8.16861827 11.1272565,7.99375487 10.9133611,7.99375487 Z" id="形状" fill="#00C800" fill-rule="nonzero"></path>
                        <path d="M7.99376708,0.0124902344 C3.58002781,0.0124902344 1.2203125e-05,3.59094458 1.2203125e-05,8.00624512 C1.2203125e-05,12.4215457 3.57846653,16 7.99376708,16 C12.4090676,16 15.987522,12.4215457 15.987522,8.00624512 C15.987522,3.59094458 12.4090676,0.0124902344 7.99376708,0.0124902344 Z M6.58393102,9.92661983 C6.15614023,9.92661983 5.81265858,9.83918814 5.3833065,9.754879 L4.18580455,10.3559719 L4.52772492,9.32552694 C3.66902078,8.72599533 3.15692086,7.95316159 3.15692086,7.01170961 C3.15692086,5.38173303 4.69946575,4.09679939 6.58393102,4.09679938 C8.26855241,4.09679938 9.74552352,5.1225605 10.0421668,6.50273223 C9.93287714,6.490242 9.82358753,6.48243559 9.71273663,6.48243559 C8.08588261,6.48243559 6.79938767,7.69711162 6.79938769,9.19437939 C6.79938769,9.44418423 6.83841969,9.68306011 6.90555475,9.91256831 C6.79938769,9.921936 6.69165936,9.92661983 6.58393102,9.92661983 Z M11.6393565,11.1272443 L11.8969677,11.9828259 L10.957077,11.4691647 C10.6151566,11.5550351 10.2701137,11.6409055 9.92819331,11.6409055 C8.29821673,11.6409055 7.01328309,10.5261515 7.01328308,9.15378611 C7.01328308,7.78454333 8.29665544,6.66666667 9.92819331,6.66666667 C11.4676156,6.66666667 12.8384197,7.78298205 12.8384197,9.15378611 C12.839981,9.92661983 12.3263198,10.6104606 11.6393565,11.1272443 Z" id="形状" fill="#00C800" fill-rule="nonzero"></path>
                    </g>
                </g>
            </g>
        </g>
    </g>
</svg>