<?xml version="1.0" encoding="UTF-8"?>
<svg width="14px" height="14px" viewBox="0 0 14 14" version="1.1" xmlns="http://www.w3.org/2000/svg" xmlns:xlink="http://www.w3.org/1999/xlink">
    <!-- Generator: Sketch 52.5 (67469) - http://www.bohemiancoding.com/sketch -->
    <title>ic_wordcloud</title>
    <desc>Created with Sketch.</desc>
    <g id="个人中心" stroke="none" stroke-width="1" fill="none" fill-rule="evenodd">
        <g id="VIP会员主页" transform="translate(-794.000000, -645.000000)">
            <g id="ic_wordcloud" transform="translate(794.000000, 645.000000)">
                <g>
                    <rect id="矩形" fill="#000000" opacity="0" x="0" y="0" width="14" height="14"></rect>
                    <path d="M7,14 C3.13400675,14 0,10.8659932 0,7 C0,3.13400675 3.13400675,0 7,0 C10.8659932,0 14,3.13400675 14,7 C14,10.8659932 10.8659932,14 7,14 Z M5.29971414,5.26636161 L5.81521111,3.62717374 L5.35179698,3.62717374 L5.05062727,4.73925455 L5.04482929,4.73925455 L4.76680909,3.62717374 L4.326601,3.62717374 L4.05432222,4.73925455 L4.04852424,4.73925455 L3.74735455,3.62717374 L3.272401,3.62717374 L3.7937101,5.26636161 L4.26285151,5.26636161 L4.54088586,4.1658202 L4.54668384,4.1658202 L4.8363,5.26636161 L5.29971414,5.26636161 Z M6.41179495,4.44963839 C6.41179494,4.38014747 6.41760707,4.31645454 6.42920303,4.25850302 C6.44079898,4.1948101 6.46394849,4.13687272 6.49289596,4.09051717 C6.5219,4.03843435 6.56244343,3.99789091 6.61452626,3.96888687 C6.6666798,3.93993939 6.7304293,3.9225313 6.80571818,3.92253131 C6.88100707,3.92253132 6.9447,3.93414142 6.99683939,3.96888687 C7.04899292,4.00363231 7.08953637,4.04417576 7.11848384,4.09051717 C7.14743132,4.13687272 7.17063738,4.19481009 7.18217677,4.25850302 C7.19377273,4.32225253 7.19957071,4.38594545 7.19957071,4.44963839 C7.19953565,4.51375781 7.19371406,4.57774325 7.18217677,4.64081616 C7.17063737,4.70450909 7.14743131,4.75666263 7.11848384,4.80880202 C7.08953637,4.860899 7.04899292,4.90144243 6.99683939,4.93044647 C6.9447,4.95939394 6.88100708,4.9767313 6.80571818,4.97673131 C6.73042929,4.97673132 6.6666798,4.95939394 6.61452626,4.93044647 C6.56244343,4.89564445 6.5219,4.860899 6.49289596,4.80880202 C6.46394848,4.75666263 6.44079898,4.7045091 6.42920303,4.64081616 C6.41760708,4.57708081 6.41179495,4.51338788 6.41179495,4.44963839 Z M5.95999091,4.44963839 C5.95999091,4.57708081 5.977399,4.69871111 6.01794243,4.80300404 C6.05848586,4.90724041 6.11643737,4.99993738 6.19172626,5.07522626 C6.26701516,5.15051515 6.35391414,5.20846667 6.45815051,5.2490101 C6.56244343,5.28955353 6.67827576,5.30690505 6.80571818,5.30690505 C6.93890202,5.30690506 7.0547909,5.28955353 7.15902727,5.2490101 C7.26326363,5.20846667 7.35016262,5.15051516 7.42545151,5.07522626 C7.50079696,4.99993737 7.55869192,4.90724041 7.59923535,4.80300404 C7.63979293,4.69871112 7.65718687,4.58287879 7.65718687,4.44963839 C7.65718686,4.31645454 7.63977878,4.1948101 7.59923535,4.09051717 C7.55869192,3.98628081 7.50079696,3.89359798 7.42545151,3.81829495 C7.3559606,3.74300606 7.26326363,3.68505454 7.15902727,3.64451111 C7.04899293,3.60396767 6.93316061,3.58081818 6.80571818,3.58081818 C6.67827576,3.58081817 6.56244344,3.60396767 6.45815051,3.64451111 C6.35391414,3.68505455 6.26701516,3.74300606 6.19172626,3.81829495 C6.11643738,3.89359798 6.05848586,3.9862808 6.01794243,4.09051717 C5.977399,4.20060808 5.95999091,4.31645455 5.95999091,4.44963839 Z M7.95254445,3.62717374 L7.95255859,3.62717374 L7.95255859,5.27794343 L8.40436263,5.27794343 L8.40436263,4.53650909 C8.40436263,4.4612202 8.41017475,4.39172929 8.42756869,4.3279798 C8.44490606,4.26428687 8.46811212,4.2063495 8.50285757,4.16005051 C8.53760303,4.11370909 8.58394445,4.07896363 8.64189596,4.04995959 C8.69979091,4.02101212 8.76928182,4.00941616 8.85036869,4.00941616 C8.87937272,4.00941616 8.9083202,4.00941616 8.93726768,4.01521414 C8.96627172,4.02101212 8.98940708,4.02101212 9.01255657,4.0268101 L9.01255657,3.60975151 C8.97781112,3.5981697 8.94306565,3.59237172 8.91411818,3.59237172 C8.85616667,3.59237172 8.79828586,3.5981697 8.74613233,3.61556363 C8.69399293,3.63291516 8.64189596,3.65612122 8.59555455,3.68505455 C8.549199,3.71400202 8.50865555,3.75454545 8.4739101,3.79510302 C8.43916464,3.83564646 8.4101606,3.88198788 8.38701111,3.93414141 L8.38121313,3.93414141 L8.38121313,3.62717374 L7.95254445,3.62717374 Z M10.3506313,4.44389697 C10.3506313,4.50757576 10.3448192,4.57708081 10.3274394,4.63501818 C10.3158434,4.69871111 10.2926939,4.75086465 10.2637465,4.80300404 C10.229001,4.85510102 10.194199,4.89564445 10.142102,4.92464849 C10.0899626,4.95359596 10.0320111,4.9709899 9.95672222,4.9709899 C9.88723132,4.9709899 9.82348183,4.95359596 9.77719698,4.92464849 C9.73084142,4.89564445 9.69029798,4.85510102 9.65555253,4.80300404 C9.62654848,4.75667677 9.60339898,4.69871112 9.58600505,4.63501818 C9.56865353,4.57126869 9.56285555,4.50757577 9.56285555,4.44389697 C9.56285555,4.37434949 9.57446565,4.31065656 9.58600505,4.24690707 C9.603399,4.18321414 9.62654849,4.12526263 9.65555253,4.07897778 C9.68558252,4.03062948 9.72745098,3.99074201 9.77719698,3.96308889 C9.82348182,3.93414141 9.88723132,3.9167899 9.9625202,3.9167899 C10.0378091,3.9167899 10.1015586,3.93414142 10.1479,3.96308889 C10.199997,3.99207878 10.2405404,4.03263637 10.2695444,4.07897778 C10.2984919,4.1310606 10.3216414,4.18321413 10.3332374,4.24690707 C10.3448333,4.31065657 10.3506313,4.3743495 10.3506313,4.44389697 Z M10.3563727,5.05783232 L10.3563586,5.05783232 L10.3563586,5.26636161 L10.7850273,5.26636161 L10.7850273,3.00157172 L10.3332232,3.00157172 L10.3332232,3.82990505 L10.3274252,3.82990505 C10.2752859,3.74880404 10.205795,3.68505454 10.118896,3.64451111 C10.0320111,3.60396767 9.93937071,3.58081818 9.84087576,3.58081818 C9.71924545,3.58081817 9.6150091,3.60396767 9.52231212,3.65030909 C9.42961516,3.70246263 9.35432626,3.76035757 9.29637475,3.84144445 C9.23268183,3.92253131 9.18634041,4.00943029 9.15739293,4.11372323 C9.12844545,4.2179596 9.11105151,4.32225253 9.11105151,4.43228687 C9.11105152,4.54813334 9.12844546,4.65816767 9.15739293,4.76246061 C9.19213839,4.87249495 9.23268182,4.96519192 9.29637475,5.04627879 C9.36012424,5.1273798 9.43541313,5.19107273 9.5281101,5.23741414 C9.62075051,5.28375555 9.73084141,5.30690505 9.85248586,5.30690505 C9.95672222,5.30690506 10.055203,5.28955353 10.142102,5.2490101 C10.2289869,5.20846667 10.2984778,5.14471718 10.3506313,5.05783232 L10.3563727,5.05783232 Z M2.79740505,6.72026869 L2.79740505,6.70867273 L3.19705555,6.70867273 C3.19131414,6.62177374 3.16810808,6.54068687 3.12756465,6.47119596 C3.08702122,6.40744647 3.04067981,6.34955151 2.97698687,6.3032101 C2.91903535,6.25686868 2.84954445,6.22212323 2.76845757,6.19891717 C2.69315455,6.17576767 2.61206769,6.16417172 2.52518283,6.16417172 C2.40933635,6.16417172 2.30504343,6.18156565 2.21240303,6.22212323 C2.1197202,6.26266667 2.04441717,6.31480606 1.98068182,6.38429697 C1.91698888,6.45378788 1.87063333,6.54068686 1.83588788,6.63338384 C1.80694041,6.7260101 1.78954647,6.83030302 1.78954647,6.94035151 C1.78954647,7.04464445 1.80694041,7.14308282 1.8417,7.23576565 C1.87644545,7.32267879 1.92278686,7.40375151 1.9864798,7.46744445 C2.0502293,7.53117981 2.12551818,7.58329091 2.21815859,7.61809293 C2.30504344,7.65283839 2.40353839,7.67017576 2.51357273,7.67017576 C2.70476465,7.67017576 2.86114041,7.61810708 2.98278485,7.51961212 C3.10441515,7.42111717 3.17971818,7.27633737 3.20285353,7.08520202 L2.82059698,7.08520202 C2.80320303,7.17782828 2.77425555,7.24737576 2.72210202,7.29945859 C2.66996263,7.35161212 2.59467375,7.38055959 2.50197677,7.38055959 C2.43828385,7.38055959 2.38614445,7.36900606 2.34558687,7.34000202 C2.29924546,7.31686666 2.2645,7.27632323 2.24135051,7.23576565 C2.21815858,7.19522222 2.20080707,7.14308282 2.18921111,7.09092929 C2.177601,7.03884647 2.17185959,6.98669292 2.17185959,6.93455353 C2.17185959,6.88244243 2.177601,6.82450505 2.18921111,6.77236565 C2.20080708,6.71447071 2.21815859,6.66812929 2.24714849,6.62177374 C2.27609596,6.57543232 2.31084142,6.54068686 2.35138485,6.51173939 C2.39194243,6.48273535 2.44408182,6.47119596 2.50777475,6.47119596 C2.6757606,6.47119596 2.77425555,6.55808081 2.79740505,6.72026869 Z M3.42299293,5.66601212 L3.42299293,7.64702626 L3.81684545,7.64702626 L3.81684545,5.66601212 L3.42299293,5.66601212 Z M4.47719293,6.92874141 C4.47719293,6.87665859 4.48299091,6.81869293 4.4945303,6.76081212 C4.50614041,6.70867273 4.52353435,6.65651919 4.55248182,6.61597576 C4.57568788,6.57543232 4.61043334,6.54068686 4.65677475,6.51173939 C4.70305959,6.48273535 4.75521313,6.47119596 4.82470404,6.47119596 C4.88845353,6.47119596 4.94633435,6.48273535 4.9926899,6.51173939 C5.03903132,6.54068686 5.07377677,6.57543232 5.10278081,6.61597576 C5.13172828,6.65651919 5.14906565,6.70287475 5.16067576,6.76081212 C5.17227172,6.81290909 5.1780697,6.8708606 5.1780697,6.92874141 C5.1780697,6.98669292 5.17227172,7.04464444 5.16067576,7.09672727 C5.14906567,7.1488808 5.13172828,7.19522222 5.10278081,7.24157778 C5.07377677,7.28791919 5.03903131,7.31686667 4.9926899,7.34581414 C4.94633435,7.37474747 4.89425151,7.38635757 4.82470404,7.38635757 C4.75521314,7.38635757 4.7030596,7.36900606 4.65677475,7.34581414 C4.61623131,7.32266465 4.58142929,7.28791919 4.55248182,7.24157778 C4.52353435,7.2010202 4.50614041,7.1488808 4.4945303,7.09672727 C4.48299091,7.04464444 4.47719293,6.98669292 4.47719293,6.92874141 Z M4.08332626,6.92874141 C4.08332625,7.04464445 4.10067778,7.1488808 4.13542323,7.24157778 C4.17016868,7.33420404 4.22230808,7.41530506 4.28605757,7.47904041 C4.34975051,7.5427192 4.42503939,7.59488687 4.51773637,7.62963232 C4.61043333,7.66439192 4.70887172,7.68177172 4.82470404,7.68177172 C4.94059293,7.68177172 5.03903131,7.66437778 5.13172828,7.62963232 C5.22442525,7.59488687 5.30551211,7.54273334 5.36920505,7.47904041 C5.43289798,7.41530505 5.48503738,7.33420404 5.51978283,7.24157778 C5.55452828,7.1488808 5.57193637,7.04464444 5.57193637,6.92874141 C5.57193637,6.81290909 5.55452828,6.70867273 5.51978283,6.61597576 C5.48503737,6.52329293 5.43869595,6.44219193 5.36920505,6.378499 C5.29971414,6.31480606 5.22442526,6.26266666 5.13172828,6.22792121 C5.03903131,6.19317576 4.94059293,6.17576767 4.82470404,6.17576767 C4.70887172,6.17576767 4.61043334,6.19317576 4.51773637,6.22792121 C4.43083737,6.26266667 4.34975051,6.31480606 4.28605757,6.378499 C4.22230808,6.44219192 4.17016868,6.52329292 4.13542323,6.61597576 C4.10067778,6.70867272 4.08332626,6.81290909 4.08332626,6.92874141 Z M7.17643535,7.64702626 L7.17643535,7.64705455 L7.17062323,7.64705455 L7.17062323,6.21054141 L6.77671414,6.21054141 L6.77671414,6.96357172 C6.77671414,7.10836565 6.75356464,7.21260202 6.70722323,7.27635151 C6.66088182,7.3400303 6.58557879,7.37477576 6.47554445,7.37477576 C6.38284747,7.37477576 6.31335656,7.34584243 6.27861111,7.28794747 C6.23806768,7.22998182 6.22067374,7.137299 6.22067374,7.02145253 L6.22067374,6.21052727 L5.82680707,6.21052727 L5.82680707,7.09674141 C5.82680708,7.18364041 5.83260506,7.26472727 5.84995657,7.34001616 C5.8673505,7.40956363 5.8905,7.47325657 5.93104343,7.5254101 C5.97158686,7.57173737 6.0237404,7.61228081 6.09323131,7.64122828 C6.16272222,7.67017576 6.24962121,7.68177172 6.35391414,7.68177172 C6.43500102,7.68177172 6.51608789,7.65863637 6.59718889,7.62383435 C6.67827576,7.58908889 6.74196869,7.52539596 6.79412222,7.44429495 L6.7999202,7.44429495 L6.7999202,7.64702626 L7.17643535,7.64702626 Z M8.49124747,6.92874141 C8.49124747,6.98667878 8.48544949,7.04464444 8.47969394,7.09672727 C8.46808384,7.15466465 8.44489192,7.2010202 8.42174243,7.24737576 C8.39859293,7.29364647 8.36379091,7.32844849 8.31750606,7.35161212 C8.27696263,7.38055959 8.21901112,7.39215555 8.15531818,7.39215555 C8.09736667,7.39215555 8.04521313,7.38055959 7.99887172,7.35161212 C7.9525303,7.32844849 7.91778484,7.29364647 7.88883737,7.24737576 C7.8598899,7.2010202 7.83668384,7.15467878 7.82514445,7.09672727 C7.81354849,7.03884646 7.80775051,6.98669292 7.80775051,6.92874141 C7.80775051,6.86506263 7.81354849,6.80712525 7.82514445,6.75501414 C7.83669798,6.70287475 7.85409192,6.65072121 7.88303939,6.61017778 C7.90624545,6.56383637 7.94099091,6.5290909 7.98733233,6.50594141 C8.02787576,6.47699394 8.08577071,6.46539798 8.1495202,6.46539798 C8.21321313,6.46539798 8.27116465,6.48273535 8.31170808,6.50594141 C8.35200961,6.53464705 8.38723881,6.56987625 8.41594445,6.61017778 C8.44489192,6.65072121 8.4623,6.70287475 8.47389596,6.75501414 C8.48544949,6.81290909 8.49124747,6.8708606 8.49124747,6.92874141 Z M8.49704545,7.4674303 L8.49705959,7.4674303 L8.49705959,7.64699798 L8.86777677,7.64699798 L8.86777677,5.66598384 L8.4739101,5.66598384 L8.4739101,6.39008081 L8.46811212,6.39008081 C8.42756869,6.31477779 8.3638192,6.2626384 8.2885303,6.22789293 C8.21324141,6.19314747 8.13215455,6.17573939 8.04525555,6.17573939 C7.94101919,6.17573939 7.84832222,6.19888889 7.76723535,6.23943232 C7.69194647,6.28578788 7.62245555,6.33792727 7.57030202,6.40741818 C7.51814849,6.47696567 7.47760505,6.55225455 7.44865757,6.64489495 C7.4197101,6.73179394 7.40811414,6.82447676 7.40811414,6.92297172 C7.40811414,7.0214101 7.4197101,7.11991919 7.44865757,7.21255959 C7.47760505,7.30524243 7.51814849,7.38634343 7.57030202,7.45583435 C7.62245555,7.52538182 7.69194646,7.58327677 7.77303333,7.6238202 C7.8541202,7.66436363 7.94681717,7.6875697 8.05685151,7.6875697 C8.14953435,7.6875697 8.23643334,7.67016161 8.31172222,7.63541616 C8.38701111,7.60067071 8.44489192,7.5427192 8.49704545,7.4674303 Z M9.69608182,6.04833939 L9.69608182,6.05993535 L9.84086161,6.05993535 C9.83506363,6.01939192 9.82926565,5.99044445 9.81191414,5.96144041 C9.79450606,5.93249292 9.77137071,5.90934343 9.74816465,5.89194949 C9.71921717,5.87455555 9.69606767,5.86300202 9.66126565,5.85140606 C9.6265202,5.84560808 9.59177474,5.8398101 9.55702929,5.8398101 C9.50487577,5.8398101 9.46433232,5.84560808 9.42378889,5.86300202 C9.38904344,5.88035354 9.36009596,5.90354546 9.33114849,5.93249293 C9.30214445,5.9614404 9.28479293,5.99618586 9.27319697,6.03672929 C9.261601,6.07727272 9.25580301,6.11783029 9.25580302,6.16417172 C9.25580304,6.21051314 9.26160102,6.25107071 9.27319697,6.29161414 C9.28480708,6.32635959 9.30794243,6.36110505 9.33114849,6.39010909 C9.35429798,6.41904243 9.38904344,6.44219192 9.42378889,6.4596 C9.45853433,6.47699394 9.5048899,6.48273535 9.55123131,6.48273535 C9.63233232,6.48273536 9.69608182,6.4596 9.74236667,6.41904243 C9.7945202,6.372701 9.82346767,6.31480606 9.83506363,6.23371919 L9.70182323,6.23371919 C9.69608182,6.28000404 9.67868788,6.31480606 9.65553839,6.33795555 C9.63233232,6.36110505 9.59758686,6.372701 9.55704343,6.372701 C9.52809596,6.372701 9.50490404,6.36690302 9.48175455,6.35536363 C9.45854848,6.34375353 9.44119696,6.32635959 9.429601,6.30900808 C9.41800505,6.28581616 9.40645151,6.26266667 9.40065353,6.23946061 C9.39485555,6.21632525 9.38905757,6.18737778 9.38905757,6.16417172 C9.38905757,6.1178303 9.39485555,6.07727272 9.40645151,6.04833939 C9.41799091,6.01939192 9.42960102,5.99618586 9.44699495,5.97884849 C9.45854849,5.9614404 9.47594243,5.949901 9.49909192,5.94410302 C9.52229798,5.93829091 9.53964949,5.93249293 9.55704343,5.93249293 C9.59178889,5.93249293 9.62653435,5.94410304 9.64974041,5.96144041 C9.67287576,5.97884848 9.69028384,6.00778182 9.69608182,6.04833939 Z M9.94516869,5.60813131 L9.94516869,6.4596 L10.0783525,6.4596 L10.0783525,5.60813131 L9.94516869,5.60813131 Z M10.512805,6.47699394 C10.559104,6.47699394 10.6054455,6.46539798 10.6459889,6.45378788 C10.6865323,6.43645051 10.7155364,6.41324445 10.7444838,6.38429697 C10.7676333,6.35536363 10.7908394,6.32056161 10.8023788,6.28000404 C10.8197869,6.23946061 10.8255849,6.19317576 10.8255849,6.1468202 C10.8255849,6.10047879 10.8139748,6.05993535 10.8023788,6.01939192 C10.7908252,5.97884849 10.7734313,5.94410304 10.7444838,5.915099 C10.7155364,5.88615151 10.6865323,5.86300202 10.6459889,5.84560808 C10.6054455,5.82825657 10.5590899,5.82245859 10.512805,5.82245859 C10.4606515,5.82245859 10.4201081,5.82825657 10.3795646,5.84560808 C10.3390212,5.86300202 10.3100737,5.88615152 10.2810697,5.915099 C10.2579202,5.94410302 10.2347141,5.97884849 10.2231748,6.01939192 C10.2057667,6.05413737 10.1999687,6.10047879 10.1999687,6.1468202 C10.1999687,6.19891717 10.2115788,6.23946061 10.2231748,6.28000404 C10.2347283,6.32056162 10.2521222,6.35536365 10.2810697,6.38429697 C10.3100737,6.41324445 10.3390212,6.43645051 10.3795646,6.45378788 C10.4201081,6.47119596 10.4664636,6.47699394 10.512805,6.47699394 Z M10.512805,6.36690302 C10.478003,6.36690302 10.4548677,6.36110505 10.4317182,6.34955151 C10.4143101,6.33215757 10.3911606,6.32056161 10.3795646,6.29741212 C10.3679687,6.27426262 10.3563586,6.2510707 10.3506172,6.22792121 C10.3448192,6.19891718 10.3390212,6.17576767 10.3390212,6.1468202 C10.3390212,6.1178303 10.3448192,6.0946808 10.3506172,6.06573333 C10.3563586,6.04252727 10.3679687,6.01359394 10.3795646,5.99618586 C10.3911748,5.97303635 10.4085121,5.95564242 10.4317182,5.94410302 C10.4548535,5.93249293 10.483801,5.92669495 10.512805,5.92669495 C10.5475505,5.92669494 10.5706859,5.93249292 10.5938919,5.94410302 C10.6112434,5.96144041 10.6344495,5.97884849 10.6459889,5.99618586 C10.6601305,6.01723858 10.6699862,6.04087101 10.6749929,6.06573333 C10.6807343,6.09468081 10.6865323,6.1178303 10.6865323,6.1468202 C10.6865323,6.17576767 10.6807343,6.20471515 10.6749929,6.22792121 C10.669195,6.25107071 10.6575849,6.27426263 10.6459889,6.29741212 C10.6348947,6.32009472 10.6165655,6.33843886 10.5938919,6.34955151 C10.5707,6.36110505 10.5417525,6.36690302 10.512805,6.36690302 Z M11.4743081,6.4596 L11.4685101,6.4596 L11.4685101,5.84560808 L11.3352697,5.84560808 L11.3352697,6.20471515 C11.3352697,6.2337192 11.3352697,6.25107071 11.3294717,6.27426263 C11.3294717,6.29161414 11.3179182,6.30900808 11.3063222,6.32635959 C11.2947263,6.33795555 11.2773748,6.34955151 11.2599808,6.36110505 C11.2426434,6.36690302 11.2194374,6.372701 11.1904899,6.372701 C11.1557444,6.372701 11.1267404,6.36110505 11.1035909,6.33795555 C11.0861828,6.31480606 11.0746434,6.27426262 11.0746434,6.22212323 L11.0746434,5.85140606 L10.941403,5.85140606 L10.941403,6.23946061 C10.941403,6.32056161 10.9588111,6.378499 10.9935566,6.41904243 C11.028302,6.4596 11.086197,6.47699394 11.1672838,6.47699394 C11.2020859,6.47699394 11.2310333,6.46539798 11.2657788,6.4479899 C11.3005242,6.43065252 11.3237162,6.40164848 11.3410677,6.372701 L11.3410677,6.4596 L11.4743081,6.4596 Z M12.1983485,6.4596 L12.1983768,6.4596 L12.1983768,5.61972727 L12.0651364,5.61972727 L12.0651364,5.93249293 C12.053597,5.91509898 12.0419869,5.89774747 12.0245929,5.88615151 C12.0072414,5.87455555 11.9898475,5.86300202 11.972496,5.85720404 C11.9550879,5.85140606 11.9319384,5.84560808 11.9145444,5.8398101 C11.8971929,5.83399798 11.874001,5.83399798 11.8566495,5.83399798 C11.8218475,5.83399798 11.7929,5.8398101 11.7581545,5.85140606 C11.7234091,5.86300202 11.694405,5.88035353 11.6712556,5.90934343 C11.6481061,5.93249292 11.630698,5.96723839 11.613304,6.00778182 C11.5959525,6.04833939 11.5901545,6.09468081 11.5901545,6.15263232 C11.5901545,6.19891717 11.5959525,6.23946061 11.6075485,6.28000404 C11.619102,6.32056162 11.636496,6.35536365 11.6596455,6.38429697 C11.6886495,6.41324445 11.717597,6.43645051 11.7523424,6.45378788 C11.7870879,6.47119596 11.8334434,6.47699394 11.8797849,6.47699394 C11.9203283,6.47699394 11.9550737,6.47119596 11.9898192,6.45378788 C12.0245646,6.44219193 12.0535545,6.41324445 12.0709061,6.378499 L12.0709061,6.4596 L12.1983485,6.4596 Z M11.723395,6.15837374 C11.723395,6.12942626 11.723395,6.08888282 11.7291929,6.06573333 C11.7349343,6.04252727 11.7465444,6.01939192 11.7581404,5.99618586 C11.7697505,5.97303635 11.7870879,5.95564242 11.8102939,5.94410302 C11.8334293,5.93249293 11.8623768,5.92669495 11.8913808,5.92669495 C11.9434778,5.92669495 11.9840212,5.94410304 12.0130252,5.98464647 C12.0419727,6.0251899 12.0593667,6.07727273 12.0593667,6.1468202 C12.0593667,6.17576767 12.0535687,6.20471515 12.0477707,6.22792121 C12.0419727,6.25107071 12.0303626,6.27426263 12.0188232,6.29741212 C12.0076907,6.32008668 11.9893473,6.33842511 11.9666697,6.34955151 C11.9492758,6.36110505 11.9203283,6.36690302 11.8913808,6.36690302 C11.8623768,6.36690302 11.8392414,6.36110505 11.8160919,6.34955151 C11.7928859,6.33795555 11.7755343,6.32056161 11.7639384,6.3032101 C11.7523283,6.28000404 11.7407323,6.25686868 11.7349343,6.23371919 C11.7291929,6.21051313 11.723395,6.18737778 11.723395,6.15837374 Z M9.8582697,7.49065051 L9.85247172,7.49065051 L9.74238081,7.03303435 L9.603399,7.03303435 L9.49336465,7.49065051 L9.48756667,7.49065051 L9.36592222,7.03303435 L9.22108586,7.03303435 L9.41227778,7.64702626 L9.55705757,7.64702626 L9.6728899,7.18942424 L9.78872222,7.64702626 L9.92776061,7.64702626 L10.118896,7.03303435 L9.97991414,7.03303435 L9.8582697,7.49065051 Z M11.2194374,7.01564041 C11.1962879,7.01564041 11.1788939,7.02142424 11.1615424,7.02722222 C11.1441485,7.0330202 11.120999,7.0446303 11.1093889,7.0561697 C11.0977929,7.06776565 11.0804414,7.08518788 11.0688455,7.10251111 C11.0572495,7.11991919 11.0514515,7.1372707 11.0456394,7.14886667 L11.0456394,7.0330202 L10.9182535,7.0330202 L10.9182535,7.64701212 L11.0514374,7.64701212 L11.0514374,7.35159798 C11.0514374,7.31685253 11.0572353,7.28790505 11.0630333,7.25888687 C11.0746293,7.2299394 11.0861828,7.2125596 11.0977788,7.19519394 C11.1151727,7.17781414 11.1325242,7.16624647 11.1499323,7.15465051 C11.1672838,7.14306869 11.1904758,7.14306869 11.2136252,7.14306869 L11.2426293,7.14306869 C11.2541687,7.14306869 11.2599808,7.14306869 11.2715768,7.14886667 L11.2715768,7.01562626 L11.2194374,7.01562626 L11.2194374,7.01564041 Z M11.7755343,6.79555757 L11.7755343,7.10833737 C11.7639384,7.09092929 11.7523283,7.0793899 11.7349343,7.06198182 C11.7175828,7.05038586 11.7001889,7.03884647 11.6828374,7.03303435 C11.6654434,7.02723637 11.6480919,7.02143839 11.6248859,7.01565455 C11.6075343,7.00985657 11.5843424,7.00985657 11.5669909,7.00985657 C11.5321889,7.00985657 11.5032414,7.01565455 11.468496,7.02723637 C11.4337505,7.03884647 11.4105444,7.05618384 11.381597,7.08520202 C11.3526495,7.11414949 11.3352556,7.14309697 11.323702,7.18364041 C11.3063081,7.2241697 11.300496,7.27052526 11.300496,7.32846263 C11.300496,7.37474748 11.3062939,7.4153192 11.3178899,7.45586263 C11.3294293,7.49639192 11.3468374,7.53119394 11.3699869,7.56015555 C11.3931929,7.58910302 11.4221404,7.61229494 11.4626838,7.62964647 C11.4974293,7.64702626 11.5437707,7.65285253 11.5901263,7.65285253 C11.6306697,7.65285253 11.6654152,7.64704041 11.7001606,7.62964647 C11.7349061,7.61228081 11.7639101,7.58910304 11.7812475,7.55435757 L11.7812475,7.6354303 L11.9086899,7.6354303 L11.9086899,6.78396161 L11.7755061,6.78396161 L11.7755061,6.79555757 L11.7755343,6.79555757 Z M11.7697364,7.42110302 C11.7639384,7.44429494 11.7523424,7.46743029 11.7407323,7.49065051 C11.7291929,7.5138 11.7117849,7.52539596 11.6886353,7.54273333 C11.6654293,7.55434343 11.6422939,7.56014141 11.6132899,7.56014141 C11.5843424,7.56014141 11.5611929,7.55434343 11.538001,7.54273333 C11.5169018,7.53207811 11.4989455,7.51610558 11.485904,7.49639192 C11.4717653,7.47535832 11.4619096,7.45174493 11.4569,7.426901 C11.451102,7.40375151 11.4453606,7.37474747 11.4453606,7.35162626 C11.4453606,7.32267879 11.451102,7.29947273 11.4569,7.27052525 C11.4619089,7.24568111 11.4717646,7.22206759 11.485904,7.20103435 C11.4974434,7.17784243 11.5148515,7.16049091 11.538001,7.14889495 C11.5612071,7.137299 11.5843424,7.13148687 11.6190879,7.13148687 C11.6712414,7.13148687 11.7117849,7.14889495 11.7407323,7.18943839 C11.7697364,7.22998182 11.7870737,7.28214949 11.7870737,7.35164041 C11.7812758,7.36900606 11.7755343,7.39215555 11.7697364,7.42110302 Z M10.7792293,7.21257374 C10.7676333,7.1720303 10.7444838,7.13728484 10.7212778,7.10833737 C10.6923303,7.0793899 10.6633828,7.05618384 10.6228394,7.03884647 C10.582296,7.02143839 10.5417525,7.01564041 10.489599,7.01564041 C10.4374455,7.01564041 10.396902,7.02142424 10.3563586,7.03884647 C10.3158152,7.05618384 10.2868677,7.0793899 10.2579202,7.10833737 C10.2289727,7.13728484 10.2115788,7.1720303 10.1999687,7.21257374 C10.1884293,7.25311717 10.1768192,7.29364647 10.1768192,7.34000202 C10.1768192,7.38635757 10.1826172,7.432699 10.1999687,7.47324243 C10.2115646,7.5138 10.2347141,7.54854545 10.2579202,7.57753535 C10.2868677,7.60648282 10.3158152,7.62964646 10.3563586,7.64702626 C10.396902,7.66439192 10.4374455,7.67017576 10.489599,7.67017576 C10.5417525,7.67017576 10.582296,7.66439192 10.6228394,7.64702626 C10.6633828,7.62964647 10.6923303,7.60648283 10.7212778,7.57753535 C10.7502818,7.54854545 10.7676192,7.5138 10.7792293,7.47324243 C10.7908252,7.432699 10.8023788,7.3921697 10.8023788,7.34000202 C10.7966374,7.29364647 10.7908253,7.24737576 10.7792293,7.21257374 Z M10.6517869,7.42110302 C10.6459889,7.44429494 10.6344354,7.46743029 10.6228394,7.49065051 C10.6112434,7.5138 10.5880939,7.52539596 10.5706859,7.54273333 C10.5475364,7.55434343 10.5243444,7.56014141 10.489599,7.56014141 C10.4548535,7.56014141 10.431704,7.55434343 10.4085121,7.54273333 C10.3858265,7.5316453 10.3674774,7.51332105 10.3563586,7.49065051 C10.3448192,7.4674303 10.3332091,7.44429495 10.3274111,7.42110302 C10.3216131,7.39793939 10.3158151,7.36899192 10.3158151,7.34000202 C10.3158151,7.31106869 10.3216131,7.28791919 10.3274111,7.25891515 C10.332433,7.23408443 10.3422671,7.2104769 10.3563586,7.18942424 C10.3679545,7.17204445 10.3911606,7.15467879 10.4085121,7.13728485 C10.4317182,7.12573132 10.4548535,7.11993334 10.489599,7.11993333 C10.5243445,7.11993332 10.5475505,7.12571717 10.5706859,7.13728485 C10.5938919,7.14888081 10.6112293,7.16627475 10.6228394,7.18942424 C10.6344353,7.21258788 10.6459889,7.23576565 10.6517869,7.25891515 C10.6575849,7.28213535 10.6633828,7.31106868 10.6633828,7.34000202 C10.663397,7.36900606 10.657599,7.39215555 10.6517869,7.42110302 Z M6.05268788,9.60484849 L6.31918283,10.4273131 L6.51030404,10.4273131 L6.66089596,9.81910505 L6.66669394,9.81910505 L6.81727172,10.4273131 L7.00265151,10.4273131 L7.25752222,9.60484849 L7.07214243,9.60484849 L6.90415657,10.2188404 L6.89835859,10.2188404 L6.75356465,9.60484849 L6.56824141,9.60484849 L6.41179495,10.2188404 L6.40605353,10.2188404 L6.24380909,9.60484849 L6.05268788,9.60484849 Z M7.73827374,10.450505 C7.80776464,10.450505 7.86571615,10.4388949 7.912001,10.4157596 C7.95835656,10.3983515 8.00469798,10.369404 8.03944343,10.3288748 C8.07418889,10.2883313 8.10317879,10.2419758 8.1205303,10.1898364 C8.13793839,10.1377394 8.14953435,10.079802 8.14953435,10.0161091 C8.14953435,9.95235959 8.13792424,9.89446464 8.1205303,9.84232525 C8.10319292,9.7843596 8.07418888,9.73804648 8.03944343,9.70328687 C8.00469798,9.66852727 7.96415454,9.63959394 7.912001,9.61637374 C7.85991818,9.59322424 7.80196667,9.58162828 7.73827374,9.58162828 C7.67452424,9.58162828 7.61664343,9.59322424 7.5644899,9.61637374 C7.51813435,9.63379596 7.47179292,9.6627293 7.43704747,9.70328687 C7.40230202,9.74383029 7.37335455,9.79017172 7.35596061,9.84232525 C7.33860909,9.8944505 7.32701313,9.95235959 7.32701313,10.0161091 C7.32701314,10.079802 7.3386091,10.1377253 7.35596061,10.1898364 C7.37335454,10.2477879 7.40230202,10.2883313 7.43704747,10.3288748 C7.47179292,10.3636202 7.51233637,10.3925677 7.5644899,10.4157596 C7.61662929,10.4389091 7.67452424,10.450505 7.73827374,10.450505 Z M7.73827374,10.3056687 C7.6977303,10.3056687 7.66298485,10.2999131 7.63398081,10.2825333 C7.59923535,10.2651253 7.57608586,10.2419758 7.55869192,10.2130424 C7.54135455,10.1840384 7.52974445,10.1550909 7.51814849,10.1203455 C7.51235051,10.0856 7.50655253,10.0508545 7.50655253,10.0161091 C7.50655253,9.98130708 7.50655253,9.94656161 7.51814849,9.91181616 C7.52394647,9.8770707 7.53554243,9.84232525 7.55869192,9.81910505 C7.58188384,9.79595555 7.60503334,9.7728202 7.63398081,9.75541212 C7.66298484,9.73801818 7.6977303,9.73226263 7.73827374,9.73226263 C7.77881717,9.73226263 7.81356263,9.73803233 7.8425101,9.75541212 C7.87725556,9.77283433 7.90044748,9.79015757 7.917799,9.81910505 C7.93519293,9.84812323 7.94680304,9.87707071 7.95834243,9.91181616 C7.96414041,9.94656161 7.96993839,9.98130707 7.96993839,10.0161091 C7.96993839,10.0508545 7.96993839,10.0856 7.95834243,10.1203455 C7.95254445,10.1550909 7.93519293,10.1840384 7.917799,10.2130424 C7.89466363,10.2419758 7.87145757,10.2651252 7.8425101,10.2825333 C7.81356263,10.2999273 7.77881717,10.3056687 7.73827374,10.3056687 Z M8.30592424,9.60484849 L8.30593839,9.60484849 L8.30593839,10.4215859 L8.48546363,10.4215859 L8.48546363,10.0334606 C8.48546363,9.9871192 8.4912616,9.94658991 8.50285757,9.9118303 C8.51445354,9.8770707 8.53180506,9.84813737 8.549199,9.82491717 C8.56653637,9.80176768 8.58974243,9.78435959 8.6186899,9.77283435 C8.64763738,9.76122424 8.67664142,9.75542626 8.70558889,9.75542626 L8.74613233,9.75542626 C8.76352626,9.75542626 8.7750798,9.76122424 8.78667576,9.76122424 L8.78667576,9.58744041 C8.78087778,9.58164243 8.76926768,9.58164243 8.76352626,9.58164243 L8.71718485,9.58164243 C8.68819495,9.58164243 8.66504545,9.58744041 8.63609798,9.59905051 C8.61289192,9.61064647 8.58975657,9.62218586 8.56655051,9.63959394 C8.54446244,9.65587932 8.52494633,9.67539066 8.50865555,9.69747475 C8.49705959,9.71489698 8.48544949,9.73803233 8.47970808,9.76122424 L8.4739101,9.76122424 L8.4739101,9.60484849 L8.30592424,9.60484849 Z M9.63814445,10.4273131 L9.64392828,10.4273131 L9.64392828,9.29202626 L9.46434647,9.29202626 L9.46434647,9.71488283 L9.45854849,9.71488283 C9.44699494,9.69171919 9.429601,9.67432525 9.40645151,9.65691717 C9.38324545,9.63959394 9.3601101,9.6279697 9.33690404,9.61637374 C9.31376868,9.60483435 9.29061919,9.59903637 9.26161515,9.59322424 C9.2384798,9.58742626 9.20953233,9.58742626 9.18632626,9.58742626 C9.13998485,9.58742626 9.09362929,9.59323839 9.05308586,9.61064647 C9.006801,9.6279697 8.97199898,9.65117576 8.93725353,9.68592121 C8.90250808,9.72066666 8.87356061,9.76700807 8.85616667,9.81910505 C8.83881515,9.87127272 8.82721919,9.93500808 8.82721919,10.0103111 C8.8272192,10.0739899 8.83301718,10.1319273 8.85036869,10.1840384 C8.86196465,10.2361636 8.89091212,10.2825333 8.91991616,10.3230768 C8.95466161,10.3636202 8.9952192,10.3925677 9.04156061,10.4157596 C9.08790202,10.4389091 9.14579698,10.450505 9.20954647,10.450505 C9.25583131,10.450505 9.30798485,10.4447071 9.35432626,10.4215717 C9.40066768,10.3983515 9.43541314,10.3636202 9.45856263,10.3172788 L9.46436061,10.3172788 L9.46436061,10.4273131 L9.63814445,10.4273131 Z M9.006801,10.0276343 L9.00678687,10.0276343 L9.00678687,9.92341212 C9.01832626,9.88866666 9.02993637,9.85966262 9.0473303,9.83071515 C9.06433344,9.80211658 9.08822264,9.77822738 9.11682121,9.76122424 C9.15156666,9.7438303 9.18631212,9.73227677 9.22685555,9.73227677 C9.29634646,9.73227677 9.35429798,9.75542626 9.39484141,9.8075798 C9.43538485,9.85964849 9.45853435,9.92919596 9.45853435,10.0218364 C9.45853435,10.0566525 9.45853435,10.091398 9.44699495,10.1261293 C9.44119696,10.1608748 9.42380303,10.1898364 9.40645151,10.2188404 C9.38941541,10.2474325 9.36550996,10.2713185 9.33690404,10.2883313 C9.30795657,10.3056687 9.27321111,10.3114667 9.23266768,10.3114667 C9.19212424,10.3114667 9.15737878,10.3056687 9.12843131,10.2883313 C9.09942727,10.2709091 9.07627778,10.2535859 9.05888384,10.2245818 C9.04154647,10.1956202 9.02993637,10.1666727 9.01834041,10.1319273 C9.01254242,10.0971818 9.006801,10.0623798 9.006801,10.0276343 Z M3.88059495,9.23413131 L4.14701919,8.4116101 L3.91534041,8.4116101 L3.76470606,8.96763637 L3.75896465,8.96763637 L3.61992626,8.4116101 L3.39978687,8.4116101 L3.26080505,8.96763637 L3.25500707,8.96763637 L3.10441515,8.4116101 L2.86695253,8.4116101 L3.12756465,9.23413131 L3.35924343,9.23413131 L3.49828182,8.68383232 L3.5040798,8.68383232 L3.64885959,9.23413131 L3.88059495,9.23413131 Z M4.43664949,8.82865455 C4.43664949,8.79392323 4.43664949,8.75910707 4.44824545,8.73015959 C4.45398687,8.69541414 4.46558283,8.66646667 4.48299091,8.64327475 C4.50032828,8.62012525 4.52353435,8.60271717 4.54668384,8.5853798 C4.56987576,8.56795757 4.59882324,8.56215959 4.63936667,8.56215959 C4.67992424,8.56215959 4.7146697,8.56797172 4.73786161,8.5853798 C4.7668091,8.5969192 4.78416061,8.61432728 4.80155455,8.64327475 C4.81896263,8.67226464 4.83050202,8.70121212 4.8363,8.73015959 C4.84209798,8.76490506 4.8479101,8.79392324 4.8479101,8.82865455 C4.8479101,8.8634 4.84209798,8.89814545 4.8363,8.92710707 C4.83050202,8.96185253 4.81896263,8.99085657 4.80155455,9.01399192 C4.78416061,9.03719798 4.76101111,9.05456363 4.73786161,9.07194343 C4.70887172,9.08930909 4.67992424,9.09510707 4.63936667,9.09510707 C4.60462121,9.09510707 4.56987576,9.08930909 4.54668384,9.07194343 C4.51773637,9.06034747 4.50032828,9.03719798 4.48299091,9.01399192 C4.46558282,8.98505858 4.45398686,8.95611111 4.44824545,8.92710707 C4.44244747,8.89236161 4.43664949,8.8634 4.43664949,8.82865455 Z M4.21071212,8.82865455 C4.21071212,8.89236161 4.22230808,8.95031313 4.23971616,9.0081798 C4.26285151,9.06034747 4.29179898,9.10667475 4.326601,9.1414202 C4.36134647,9.18197778 4.40770202,9.21092525 4.45978485,9.22833333 C4.51193839,9.24567071 4.56987576,9.25728081 4.63356869,9.25728081 C4.69731818,9.2572808 4.75521314,9.2456707 4.80735253,9.22833333 C4.85950606,9.20511314 4.9000495,9.17616565 4.94059293,9.1414202 C4.98113635,9.10667475 5.01008384,9.06033333 5.02743535,9.0081798 C5.04482929,8.95611112 5.05643939,8.89236161 5.05643939,8.82865455 C5.05643939,8.76490506 5.05062727,8.70702424 5.02743535,8.64908687 C5.00428587,8.59117778 4.97533839,8.5448505 4.94059293,8.51010505 C4.90579091,8.47530302 4.85950606,8.44635555 4.80735253,8.42319192 C4.75521314,8.40579798 4.69731818,8.39418788 4.63356869,8.39418788 C4.56987577,8.39418788 4.51193839,8.39998586 4.45978485,8.42319192 C4.40770201,8.44055757 4.36134646,8.47530302 4.326601,8.51010505 C4.28605757,8.55064849 4.25705353,8.59693334 4.23971616,8.64908687 C4.22230808,8.70121212 4.21071212,8.76490506 4.21071212,8.82865455 Z M5.20701717,8.41740808 L5.20701717,9.23991515 L5.43289798,9.23991515 L5.43289798,8.86919798 C5.43289798,8.82865454 5.43869596,8.79392323 5.44449394,8.76490505 C5.45029192,8.73597172 5.46190202,8.70702424 5.47923939,8.68383232 C5.49664748,8.66066868 5.51978283,8.63746262 5.54878687,8.62592323 C5.57773433,8.60852929 5.6124798,8.60271717 5.65302323,8.60271717 L5.69356667,8.60271717 C5.71097475,8.60271717 5.72251414,8.60852929 5.73412424,8.60852929 L5.73412424,8.39998586 C5.71671616,8.39418788 5.70517677,8.39418788 5.68776869,8.39418788 C5.65883535,8.39418788 5.63562929,8.39998586 5.60668182,8.40579798 C5.57773435,8.41159596 5.55452828,8.42317778 5.53139293,8.44054343 C5.50824343,8.45793738 5.48503737,8.47528889 5.4677,8.49848081 C5.45029192,8.5216303 5.43869596,8.54483637 5.42714243,8.56797172 L5.42134445,8.56797172 L5.42134445,8.41740808 L5.20701717,8.41740808 Z M6.40605353,8.82287071 C6.40605353,8.85761616 6.40025555,8.89236161 6.38284747,8.91556767 C6.37704949,8.95031313 6.37125151,8.97924647 6.35391414,9.00239596 C6.34230404,9.02561616 6.31916869,9.04295353 6.29596263,9.06036161 C6.27281313,9.07775555 6.23806768,9.08351111 6.20326565,9.08351111 C6.1685202,9.08351111 6.13957272,9.07774141 6.11643737,9.06036161 C6.08743333,9.04873737 6.07008182,9.02561616 6.05268788,9.00239596 C6.03533637,8.97344849 6.02374041,8.944501 6.01794243,8.91556767 C6.01214445,8.88656365 6.00634647,8.85181818 6.00634647,8.82287071 C6.00634647,8.78812525 6.01214445,8.7533798 6.01794243,8.72436161 C6.02374041,8.69542828 6.03533637,8.66648081 6.05268788,8.64328889 C6.07008182,8.62013939 6.09323131,8.60273131 6.11643737,8.58539394 C6.13957272,8.56797172 6.17431817,8.56217374 6.20906363,8.56217374 C6.2438091,8.56217374 6.27861112,8.56798586 6.30176061,8.58539394 C6.32496667,8.60273132 6.34230404,8.6201394 6.35971212,8.64328889 C6.37704949,8.66646666 6.38865959,8.69541414 6.39445757,8.72436161 C6.40025555,8.75910708 6.40605353,8.78812526 6.40605353,8.82287071 Z M6.41179495,9.12983839 L6.41179495,9.23413131 L6.62613637,9.23413131 L6.62613637,8.10464243 L6.40025555,8.10464243 L6.40025555,8.51584647 L6.39445757,8.51584647 C6.37125152,8.47530302 6.33650606,8.44635555 6.29016465,8.42319192 C6.2438091,8.40579798 6.19752424,8.39418788 6.15118283,8.39418788 C6.09323132,8.39418788 6.04109193,8.40579798 5.99479293,8.4289899 C5.94845151,8.45213939 5.90790808,8.48110102 5.87890404,8.5216303 C5.84995656,8.55637577 5.82680707,8.60273132 5.80941313,8.65488485 C5.79206161,8.70702424 5.78626363,8.75910708 5.78626363,8.81707273 C5.78626363,8.8750101 5.79206161,8.93290506 5.80941313,8.98505859 C5.82680707,9.03718384 5.84995657,9.08349697 5.87890404,9.12404041 C5.90790808,9.16458384 5.94845152,9.19938586 5.99479293,9.22253535 C6.04109192,9.24567071 6.09323132,9.25728081 6.15698081,9.25728081 C6.20906363,9.2572808 6.26121718,9.2456707 6.30176061,9.22833333 C6.34810202,9.20511314 6.38284748,9.17616565 6.41179495,9.12983839 Z M7.79616869,8.70702424 L7.79615455,8.70702424 L7.79615455,8.71285051 L8.0162798,8.71285051 C8.01048182,8.66069697 7.99888586,8.61435555 7.97573637,8.57381212 C7.9525303,8.53325454 7.92358282,8.49850909 7.88883737,8.47531717 C7.85409193,8.45215353 7.81353435,8.42900404 7.76719293,8.41742222 C7.72085152,8.40582626 7.67449596,8.40001414 7.62815455,8.40001414 C7.55866363,8.40001414 7.50078282,8.41162424 7.44862929,8.43477374 C7.39647577,8.45796565 7.35013435,8.48691314 7.31538889,8.52745657 C7.28064343,8.56220202 7.25169596,8.61435556 7.23430202,8.66649495 C7.21695051,8.72437576 7.20535455,8.78234141 7.20535455,8.84603435 C7.20535455,8.90397172 7.21695051,8.96186667 7.23430202,9.01400606 C7.25750807,9.06617374 7.28645555,9.11250102 7.321201,9.14724647 C7.36174444,9.18200606 7.40228788,9.21093939 7.45444141,9.23415959 C7.50653838,9.25149696 7.55867778,9.26310707 7.62242727,9.26310707 C7.72666363,9.26310707 7.8193606,9.23415959 7.88885151,9.17619394 C7.95834243,9.11831313 7.9989,9.03721212 8.01629394,8.92713535 L7.79618283,8.92713535 C7.79037071,8.97927474 7.77303333,9.01983232 7.74408586,9.04876565 C7.70928384,9.07775555 7.66874041,9.09512121 7.61664343,9.09512121 C7.58189798,9.09512121 7.55289394,9.08932323 7.52974445,9.07195757 C7.50653839,9.05456363 7.48338889,9.03142828 7.47179293,9.00820808 C7.46023939,8.98508686 7.44864343,8.95613939 7.44284545,8.92713535 C7.43704747,8.8923899 7.43124949,8.86342828 7.43124949,8.83448081 C7.43124949,8.80547677 7.43704747,8.77073131 7.44284545,8.74178384 C7.44864344,8.70703839 7.4602394,8.67804849 7.47759091,8.654899 C7.48920102,8.62593737 7.51233637,8.60855757 7.53554243,8.59119192 C7.5644899,8.57379798 7.59343738,8.56798586 7.62818283,8.56798586 C7.72667778,8.56798586 7.77881718,8.61434141 7.79616869,8.70702424 Z M8.14953435,8.10464243 L8.14953435,9.23413131 L8.37541515,9.23413131 L8.37541515,8.10464243 L8.14953435,8.10464243 Z M8.75772828,8.82865455 C8.75772828,8.79392323 8.75772828,8.75910707 8.76926768,8.73015959 C8.77506565,8.69541414 8.78667576,8.66646667 8.8040697,8.64327475 C8.82142122,8.62012525 8.84461314,8.60271717 8.86776263,8.5853798 C8.89091212,8.56795757 8.91991616,8.56215959 8.96045959,8.56215959 C9.00100303,8.56215959 9.02995051,8.57378384 9.05889798,8.5853798 C9.08790202,8.5969192 9.10525353,8.62012526 9.12264747,8.64327475 C9.139999,8.67226464 9.15159495,8.69541413 9.15739293,8.73015959 C9.16319091,8.76490506 9.16898889,8.79392324 9.16898889,8.82865455 C9.16898889,8.8634 9.16319093,8.8923616 9.15739293,8.92710707 C9.15159494,8.96185253 9.13999898,8.99085657 9.12264747,9.01399192 C9.10523939,9.03719798 9.08210404,9.05456363 9.05889798,9.07194343 C9.02995051,9.08930909 9.00100303,9.09510707 8.96045959,9.09510707 C8.92571414,9.09510707 8.89091212,9.08930909 8.86776263,9.07194343 C8.83881515,9.06034747 8.82142121,9.03719798 8.8040697,9.01399192 C8.78666161,8.98505858 8.77506565,8.95611111 8.76926768,8.92710707 C8.76352626,8.89236161 8.75772828,8.8634 8.75772828,8.82865455 Z M8.53179091,8.82865455 C8.53179091,8.89236161 8.53758889,8.95031313 8.56079495,9.0081798 C8.58394444,9.06034747 8.61289192,9.10667475 8.64763737,9.1414202 C8.68243939,9.18197778 8.72872424,9.21092525 8.78087778,9.22833333 C8.83301717,9.24567071 8.89091212,9.25728081 8.95466161,9.25728081 C9.01835454,9.2572808 9.07629192,9.2456707 9.12844545,9.22833333 C9.18054242,9.20511314 9.22688384,9.17616565 9.26162929,9.1414202 C9.30218687,9.10667475 9.33117677,9.06033333 9.34852828,9.0081798 C9.36593637,8.95611112 9.37747576,8.89236161 9.37747576,8.82865455 C9.37747576,8.76490506 9.37173435,8.70702424 9.34852828,8.64908687 C9.32537878,8.59117778 9.29637474,8.5448505 9.26162929,8.51010505 C9.22688384,8.47530302 9.18054243,8.44635555 9.12844545,8.42319192 C9.07630606,8.40579798 9.01835455,8.39418788 8.95466161,8.39418788 C8.89091212,8.39418788 8.83303131,8.39998586 8.78087778,8.42319192 C8.72872424,8.44055757 8.68243939,8.47530302 8.64763737,8.51010505 C8.60707981,8.55064849 8.57814647,8.59693334 8.56079495,8.64908687 C8.54338687,8.70121212 8.53179091,8.76490506 8.53179091,8.82865455 Z M10.2984778,9.23413131 L10.2927081,9.23413131 L10.2927081,8.41740808 L10.0668273,8.41740808 L10.0668273,8.8460202 C10.0668273,8.92710707 10.0552313,8.99085657 10.0262838,9.02560202 C9.9972798,9.06036161 9.95673637,9.07774141 9.89304343,9.07774141 C9.84090404,9.07774141 9.80615859,9.06034747 9.78295253,9.02560202 C9.765601,8.99085657 9.75400505,8.94450102 9.75400505,8.8750101 L9.75400505,8.4116101 L9.52812424,8.4116101 L9.52812424,8.91556767 C9.52812424,8.96763637 9.53392222,9.01399192 9.53966363,9.05454949 C9.54546161,9.09509293 9.56285555,9.12983839 9.58600505,9.15884243 C9.60921111,9.1877899 9.63815859,9.21092525 9.67870202,9.22833333 C9.71924545,9.24567071 9.77138484,9.25146869 9.8292798,9.25146869 C9.87562121,9.25146868 9.92197677,9.2456707 9.96831818,9.22253535 C10.0146596,9.19938586 10.0494051,9.16458385 10.0783525,9.11828485 L10.0841505,9.11828485 L10.0841505,9.23413131 L10.2984778,9.23413131 Z M11.0514515,8.82287071 C11.0514515,8.85761616 11.0456535,8.89236161 11.0283162,8.91556767 C11.0225182,8.95031313 11.0167202,8.97924647 10.9993687,9.00239596 C10.9877586,9.02561616 10.9645667,9.04295353 10.9414172,9.06036161 C10.9182677,9.07775555 10.8834657,9.08351111 10.8487202,9.08351111 C10.8139747,9.08351111 10.7850273,9.07774141 10.7618212,9.06036161 C10.7328737,9.04873737 10.7155222,9.02561616 10.6981283,9.00239596 C10.6807343,8.97344849 10.6691808,8.944501 10.6633828,8.91556767 C10.6575849,8.88656365 10.6517869,8.85181818 10.6517869,8.82287071 C10.6517869,8.78812525 10.6575849,8.7533798 10.6633828,8.72436161 C10.6691808,8.69542828 10.6807343,8.66648081 10.6981283,8.64328889 C10.7155364,8.62013939 10.7386717,8.60273131 10.7618212,8.58539394 C10.7850273,8.56797172 10.8197727,8.56217374 10.8545182,8.56217374 C10.8892636,8.56217374 10.9240091,8.56798586 10.9472151,8.58539394 C10.9693069,8.60168052 10.9888235,8.62119713 11.0051101,8.64328889 C11.0225182,8.66646666 11.0341141,8.69541414 11.0399121,8.72436161 C11.0456535,8.75910708 11.0514515,8.78812526 11.0514515,8.82287071 Z M11.0514515,9.12983839 L11.0514657,9.12983839 L11.0514657,9.23413131 L11.2657929,9.23413131 L11.2657929,8.10464243 L11.0399121,8.10464243 L11.0399121,8.51584647 L11.0341141,8.51584647 C11.0109081,8.47530302 10.9761626,8.44635555 10.9298212,8.42319192 C10.8834798,8.40579798 10.8371808,8.39418788 10.7908394,8.39418788 C10.7328879,8.39418788 10.6807343,8.40579798 10.6344495,8.4289899 C10.5881081,8.45213939 10.5475647,8.48110102 10.5185606,8.5216303 C10.4896131,8.55637577 10.4664636,8.60273132 10.4490697,8.65488485 C10.4317182,8.70702424 10.4259202,8.75910708 10.4259202,8.81707273 C10.4259202,8.8750101 10.4317182,8.93290506 10.4490697,8.98505859 C10.4664636,9.03718384 10.4896131,9.08349697 10.5185606,9.12404041 C10.5475505,9.16458384 10.5881081,9.19938586 10.6344495,9.22253535 C10.6807485,9.24567071 10.7328879,9.25728081 10.7966374,9.25728081 C10.8487202,9.2572808 10.8950758,9.25146868 10.9414172,9.22833333 C10.9877586,9.20511314 11.022504,9.17616565 11.0514515,9.12983839 Z" id="合并形状" fill="#ADB5BD"></path>
                </g>
            </g>
        </g>
    </g>
</svg>