<?xml version="1.0" encoding="UTF-8"?>
<svg width="20px" height="20px" viewBox="0 0 20 20" version="1.1" xmlns="http://www.w3.org/2000/svg" xmlns:xlink="http://www.w3.org/1999/xlink">
    <!-- Generator: Sketch 52.5 (67469) - http://www.bohemiancoding.com/sketch -->
    <title>ic_yjfk</title>
    <desc>Created with Sketch.</desc>
    <g id="Symbols" stroke="none" stroke-width="1" fill="none" fill-rule="evenodd">
        <g id="ic_yjfk">
            <g>
                <rect id="矩形" fill="#000000" opacity="0" x="0" y="0" width="19.9804878" height="19.9804878"></rect>
                <path d="M18.8368208,8.91592215 L15.8389829,7.20581276 L17.0487405,4.90110757 L17.7223455,4.66008652 L19.9043538,5.9753894 L19.9812066,6.7007288 L18.8368208,8.91592215 Z M4.51814146,5.43488404 L0.461935395,3.90377836 L8.29648745,1.1405122 L16.2498229,3.95080055 L8.29648745,6.75248312 L4.51814146,5.43488404 Z M0.272548878,3.83151797 L0.461915434,3.90377836 L0.294931824,3.96335975 L0.272548878,3.83151797 Z M7.98835748,8.3110833 L7.98835748,18.7705106 L0,15.9837832 L0,5.61159155 L0,5.54150755 L5.86728831,7.57200661 L7.98835748,8.3110833 Z M13.938269,16.8928386 L14.4111263,16.4383109 L14.6464768,16.4176851 L14.429476,16.5094731 L12.2040196,18.4354053 L11.7391491,18.7705106 L11.7368529,17.9074192 L11.9595043,15.9677498 L13.938269,16.8928386 Z M11.9985996,14.5193672 L15.3270503,8.18131809 L18.2733735,10.0108498 L15.0585348,16.2431539 L14.9505535,16.2891977 L12.0329628,14.8361428 L11.9985996,14.5193672 Z" id="形状" fill="#ADB5BD" fill-rule="nonzero"></path>
            </g>
        </g>
    </g>
</svg>