<?xml version="1.0" encoding="UTF-8"?>
<svg width="14px" height="14px" viewBox="0 0 14 14" version="1.1" xmlns="http://www.w3.org/2000/svg" xmlns:xlink="http://www.w3.org/1999/xlink">
    <!-- Generator: Sketch 52.5 (67469) - http://www.bohemiancoding.com/sketch -->
    <title>ic_yxpf</title>
    <desc>Created with Sketch.</desc>
    <g id="个人中心" stroke="none" stroke-width="1" fill="none" fill-rule="evenodd">
        <g id="VIP会员主页" transform="translate(-880.000000, -495.000000)">
            <g id="ic_yxpf" transform="translate(880.000000, 495.000000)">
                <g>
                    <rect id="矩形" fill="#000000" opacity="0" x="0" y="0" width="14" height="14"></rect>
                    <path d="M7,0 C3.134,0 0,3.134 0,7 C0,10.866 3.134,14 7,14 C10.866,14 14,10.866 14,7 C14,3.134 10.866,0 7,0 Z M6.7507,10.7081 C6.7507,10.8172315 6.66223146,10.9057 6.5531,10.9057 L3.25310001,10.9057 C3.14396854,10.9057 3.05550001,10.8172315 3.0555,10.7081 C3.0555,10.5989685 3.14396854,10.5105 3.25310001,10.5105 L6.5531,10.5105 C6.66223147,10.5105 6.7507,10.5989685 6.7507,10.7081 Z M6.5531,9.4667 L4.53,9.4667 C4.42257287,9.46428352 4.33674598,9.3765043 4.33674598,9.26905 C4.33674598,9.1615957 4.42257287,9.07381648 4.53,9.0714 L6.5531,9.0714 C6.66052713,9.07381648 6.74635402,9.1615957 6.74635402,9.26905 C6.74635402,9.3765043 6.66052713,9.46428352 6.5531,9.4667 Z M6.9511,5.28940001 C6.31703538,5.29032687 5.70611423,5.05124591 5.24110001,4.62020001 C5.13105685,6.19899276 4.37791695,7.6634475 3.1577,8.6713 L3.1577,8.6513 L3.1623,6.00999999 C3.16449999,4.69829999 3.1668,3.38999999 3.1668,3.39 C3.16707587,3.22645905 3.29975882,3.09404459 3.4633,3.0941 L10.44,3.0941 C10.6036972,3.0941 10.7364,3.2268028 10.7364,3.3905 L10.7364,8.6642 C9.52092607,7.65650337 8.77108551,6.19505506 8.6614,4.62 C8.19628679,5.0511037 7.58527661,5.29024901 6.9511,5.28940001 Z M8.7681,9.1673 L8.20000001,10.7283 C8.19618973,10.7396095 8.19137032,10.7505536 8.18559999,10.761 C8.18559999,10.7615 8.18559999,10.762 8.1848,10.7624 C8.18279999,10.7661 8.1806,10.7696 8.17830001,10.7731 C8.17750001,10.7745 8.1766,10.7758 8.1757,10.7771 C8.1735,10.7804 8.1712,10.7835 8.1689,10.7871 L8.1658,10.7909 C8.15741982,10.801231 8.14804109,10.8107102 8.1378,10.8192 C8.13701154,10.8199209 8.1361764,10.820589 8.1353,10.8212 C8.1322,10.8237 8.129,10.8261 8.12580001,10.8284 L8.1215,10.8313 C8.1183,10.8334 8.1151,10.8355 8.1115,10.8375 L8.1061,10.8404 C8.10129999,10.8431 8.09609999,10.8455 8.09109999,10.8478 C8.08799999,10.8492 8.08489999,10.8506 8.08170001,10.8518 L8.0786,10.8531 L8.07330001,10.8548 L8.0661,10.857 L8.05790001,10.8593 L8.0499,10.861 L8.042,10.8626 L8.0331,10.8637 C8.0308,10.8637 8.02840001,10.8644 8.0261,10.8645 C8.02150001,10.8645 8.0168,10.8651 8.0122,10.8651 L8.008,10.8651 C8.00330001,10.8651 7.99869999,10.8651 7.9941,10.8645 L7.9869,10.8637 L7.9782,10.8626 L7.9701,10.861 L7.9624,10.8593 L7.954,10.857 L7.9468,10.8548 L7.9416,10.8531 L7.93849999,10.8518 C7.9353,10.8506 7.9321,10.8492 7.9285,10.8478 C7.9234,10.8455 7.9185,10.8431 7.91370001,10.8405 L7.90810001,10.8374 C7.90490001,10.8355 7.90170001,10.8334 7.8981,10.8313 L7.8938,10.8284 C7.89050001,10.8261 7.8873,10.8237 7.8838,10.8213 L7.8812,10.8191 C7.87099245,10.8106434 7.8616469,10.8011974 7.8533,10.7909 C7.8523,10.7896 7.8512,10.7884 7.8502,10.787 C7.8478,10.7839 7.8456,10.7808 7.8434,10.777 L7.8407,10.773 C7.8385,10.7695 7.83629999,10.766 7.83419999,10.7623 C7.83419999,10.7623 7.8337,10.7614 7.83349999,10.7609 C7.82772967,10.7504536 7.82291027,10.7395095 7.8191,10.7282 L7.2509,9.1672 C7.21312372,9.06339808 7.26664808,8.94862628 7.37045,8.91085 C7.47425192,8.87307372 7.58902372,8.92659808 7.6268,9.0304 L8.01,10.08 L8.3919,9.0308 C8.41633697,8.96365193 8.47474072,8.91464152 8.54511114,8.90223052 C8.61548156,8.88981952 8.68712769,8.91589346 8.73306114,8.97063052 C8.77899459,9.02536759 8.79223697,9.10045193 8.7678,9.1676 L8.7681,9.1673 Z M9.27549999,10.67 C9.27549999,10.780457 9.18595695,10.87 9.0755,10.87 C8.96504305,10.87 8.87550001,10.780457 8.87550001,10.67 L8.87550001,9.0982 C8.87550001,8.98774306 8.96504305,8.89820001 9.0755,8.89820001 C9.18595695,8.89820001 9.27549999,8.98774306 9.27549999,9.0982 L9.27549999,10.67 Z M10.3424,10.1874 L9.82,10.1874 L9.82,10.67 C9.82,10.780457 9.73045695,10.87 9.62,10.87 C9.50954305,10.87 9.42,10.780457 9.42,10.67 L9.42,9.0982 C9.41999999,9.0451567 9.44107136,8.99428591 9.47857864,8.95677864 C9.51608592,8.91927136 9.5669567,8.89819999 9.62,8.89819999 L10.3424,8.89819999 C10.6747,8.89819999 10.945,9.18739999 10.945,9.54289999 C10.945,9.8984 10.6747,10.1875 10.3424,10.1875 L10.3424,10.1874 Z" id="形状" fill="#ADB5BD" fill-rule="nonzero"></path>
                    <path d="M10.7361,8.6642 L10.7361,3.3907 C10.7361001,3.22711989 10.60358,3.09446557 10.44,3.0943 L3.4633,3.0943 C3.29983674,3.0942444 3.16718604,3.2265372 3.1668,3.39 C3.1668,3.39 3.16449999,4.6981 3.1623,6.00999999 L3.1577,8.65150001 L3.1577,8.6715 C4.37801395,7.66355376 5.13116382,6.19893503 5.24110001,4.62 C6.20662624,5.51196434 7.69557377,5.51196434 8.6611,4.62 C8.77078551,6.19505507 9.52062608,7.65650337 10.7361,8.6642 Z" id="路径" fill="#FFFFFF"></path>
                    <path d="M6.5531,9.0714 L4.53,9.0714 C4.42257287,9.07381648 4.33674598,9.1615957 4.33674598,9.26905 C4.33674598,9.3765043 4.42257287,9.46428352 4.53,9.4667 L6.5531,9.4667 C6.66052713,9.46428352 6.74635402,9.3765043 6.74635402,9.26905 C6.74635402,9.1615957 6.66052713,9.07381648 6.5531,9.0714 Z" id="路径" fill="#FFFFFF"></path>
                    <polygon id="路径" fill="#FFFFFF" points="3.05500001 10.5105 6.7507 10.5105 6.7507 10.9057 3.05500001 10.9057"></polygon>
                    <path d="M10.3424,9.7875 C10.4541,9.7875 10.545,9.6776 10.545,9.54289999 C10.545,9.40819999 10.4541,9.2982 10.3424,9.2982 L9.82,9.2982 L9.82,9.7875 L10.3424,9.7875 Z M10.3424,8.89819999 C10.6747,8.89819999 10.945,9.18739999 10.945,9.5428 C10.945,9.89820001 10.6747,10.1874 10.3424,10.1874 L9.82,10.1874 L9.82,10.67 C9.82,10.780457 9.73045695,10.87 9.62,10.87 C9.50954305,10.87 9.42,10.780457 9.42,10.67 L9.42,9.0982 C9.41999999,9.0451567 9.44107136,8.99428591 9.47857864,8.95677864 C9.51608592,8.91927136 9.5669567,8.89819999 9.62,8.89819999 L10.3424,8.89819999 Z M9.0755,8.89819999 C9.1285433,8.89819999 9.17941408,8.91927136 9.21692136,8.95677864 C9.25442863,8.99428592 9.2755,9.0451567 9.27549999,9.0982 L9.27549999,10.67 C9.27549999,10.780457 9.18595695,10.87 9.0755,10.87 C8.96504305,10.87 8.87550001,10.780457 8.87550001,10.67 L8.87550001,9.0982 C8.8755,9.0451567 8.89657137,8.99428592 8.93407864,8.95677864 C8.97158592,8.91927136 9.0224567,8.89819999 9.0755,8.89819999 Z M8.6485,8.9109 C8.69870459,8.9286874 8.73974034,8.96576569 8.76251061,9.01391553 C8.78528089,9.06206537 8.78790455,9.11730891 8.76980001,9.16740001 L8.2016,10.7284 C8.19778973,10.7397095 8.19297033,10.7506536 8.1872,10.7611 C8.1864,10.7616 8.1864,10.7625 8.1864,10.7625 C8.1844,10.7662 8.1822,10.7697 8.1799,10.7732 C8.1791,10.7746 8.17820001,10.7759 8.1773,10.7772 C8.17509999,10.7809 8.1728,10.784 8.1705,10.7872 L8.16739999,10.791 C8.15901981,10.801331 8.14964108,10.8108102 8.13939999,10.8193 C8.13861153,10.8200209 8.13777639,10.820689 8.1369,10.8213 C8.13379999,10.8238 8.1306,10.8262 8.1274,10.8285 L8.1231,10.8314 C8.1196,10.8335 8.11639999,10.8356 8.1131,10.8376 L8.1077,10.8405 C8.10270001,10.8432 8.0979,10.8456 8.0927,10.8479 C8.0896,10.8493 8.0865,10.8507 8.0833,10.8519 L8.0802,10.8532 L8.0749,10.8549 L8.06770001,10.8571 L8.0595,10.8594 L8.0515,10.8611 L8.0436,10.8627 L8.0347,10.8638 C8.03239999,10.8641 8.03,10.8646 8.0277,10.8646 C8.02310001,10.8652 8.0184,10.8652 8.01380001,10.8652 L8.00960001,10.8652 C8.0049,10.8652 8.0003,10.8646 7.9957,10.8646 L7.9885,10.8638 L7.97979999,10.8627 L7.9717,10.8611 L7.964,10.8594 L7.9556,10.8571 L7.9484,10.8549 L7.9432,10.8532 L7.9401,10.8519 C7.93639999,10.8507 7.9332,10.8493 7.93009999,10.8479 C7.9253,10.8456 7.9201,10.8432 7.9153,10.8406 L7.9097,10.8375 C7.9061,10.8356 7.9029,10.8335 7.89970001,10.8314 L7.8954,10.8285 C7.89160001,10.8262 7.88840001,10.8238 7.8854,10.8214 L7.8828,10.8192 C7.87259245,10.8107434 7.8632469,10.8012974 7.85490001,10.791 C7.8539,10.7897 7.85280001,10.7885 7.8518,10.7871 C7.8494,10.7835 7.84719999,10.7804 7.845,10.7771 L7.84230001,10.7731 C7.8401,10.7696 7.8379,10.7661 7.8358,10.7624 C7.8351,10.762 7.8351,10.7615 7.8351,10.761 C7.82932967,10.7505536 7.82451027,10.7396095 7.8207,10.7283 L7.25249999,9.1673 C7.22806302,9.10015193 7.2413054,9.02506759 7.28723885,8.97033052 C7.3331723,8.91559345 7.40481844,8.88951951 7.47518886,8.90193051 C7.54555927,8.91434152 7.60396303,8.96335192 7.62839999,9.03049999 L8.01,10.08 L8.3922,9.03090001 C8.41024963,8.98098082 8.44740365,8.94028469 8.49547748,8.91777645 C8.54355132,8.89526822 8.59860108,8.89279442 8.6485,8.9109 Z" id="合并形状" fill="#FFFFFF" fill-rule="nonzero"></path>
                </g>
            </g>
        </g>
    </g>
</svg>