<?xml version="1.0" encoding="UTF-8"?>
<svg width="16px" height="16px" viewBox="0 0 16 16" version="1.1" xmlns="http://www.w3.org/2000/svg" xmlns:xlink="http://www.w3.org/1999/xlink">
    <!-- Generator: Sketch 52.5 (67469) - http://www.bohemiancoding.com/sketch -->
    <title>ic_attestation_pr</title>
    <desc>Created with Sketch.</desc>
    <g id="Symbols" stroke="none" stroke-width="1" fill="none" fill-rule="evenodd">
        <g id="ic_attestation_pr">
            <g>
                <rect id="矩形" fill="#000000" opacity="0" x="0" y="0" width="16" height="16"></rect>
                <path d="M9.08775345,6.61238938 C8.60633753,6.81061946 8.16503959,7.07492624 7.76385964,7.40530973 C7.36267969,7.73569322 7.01577704,8.11327434 6.72315167,8.53805309 C6.43052631,8.96283184 6.20397764,9.4277286 6.04350566,9.93274336 C5.88303368,10.4377581 5.80279769,10.9687316 5.80279769,11.5256637 C5.80279769,12.0165192 5.8665145,12.4861357 5.99394813,12.9345133 C6.12138175,13.3828909 6.2983729,13.8053097 6.52492158,14.2017699 L6.14262069,14.2017699 C5.86887437,14.2017699 5.5502903,14.1923304 5.18686847,14.1734513 C4.82344664,14.1545723 4.4482254,14.1286136 4.06120475,14.0955752 C3.6741841,14.0625369 3.28952334,14.0247788 2.90722245,13.9823009 C2.52492157,13.939823 2.17801891,13.8949853 1.86651448,13.8477876 C1.55501006,13.80059 1.29070327,13.7533923 1.07359412,13.7061947 C0.856484979,13.6589971 0.719611823,13.6117994 0.662974656,13.5646018 C0.559139844,13.4890855 0.48126374,13.2554572 0.429346344,12.8637168 C0.377428948,12.4719764 0.398667885,11.9693215 0.493063156,11.3557522 C0.530821271,11.119764 0.608697375,10.9262537 0.726691469,10.7752212 C0.844685562,10.6241888 0.988638365,10.4943953 1.15854987,10.3858407 C1.32846139,10.2772861 1.51725195,10.1899705 1.72492156,10.1238938 C1.93259118,10.0578171 2.14498056,9.99410029 2.3620897,9.93274336 C2.57919885,9.87138643 2.78922835,9.80530973 2.9921782,9.73451327 C3.19512806,9.6637168 3.38155873,9.57640116 3.55147023,9.47256636 C3.74970032,9.34985249 3.90309265,9.22949851 4.01164722,9.11150441 C4.12020179,8.9935103 4.1980779,8.87787608 4.24527553,8.76460175 C4.29247317,8.65132742 4.31607198,8.53333332 4.31607198,8.41061945 C4.31607198,8.28790559 4.31135222,8.15103243 4.30191269,7.99999998 C4.28303364,7.78289084 4.20751741,7.61061945 4.07536402,7.48318583 C3.94321062,7.3557522 3.79689794,7.22595869 3.63642597,7.0938053 C3.56090974,7.0277286 3.49247316,6.9356932 3.43111623,6.81769911 C3.36975931,6.69970502 3.31548202,6.57935103 3.26828437,6.45663716 C3.22108674,6.31504424 3.1738891,6.16873156 3.12669145,6.01769911 C3.06061476,5.99882006 2.99453806,5.96578171 2.92846136,5.91858406 C2.87182419,5.87138643 2.81046726,5.80530973 2.74439056,5.72035397 C2.67831386,5.63539821 2.6216767,5.51268434 2.57447906,5.35221238 C2.52728143,5.19174041 2.50840237,5.04542772 2.51784189,4.91327433 C2.52728141,4.78112093 2.55559999,4.66312683 2.60279764,4.55929203 C2.64055576,4.45545722 2.70191269,4.35634218 2.78686844,4.26194691 C2.78686844,3.90324484 2.80574749,3.54454278 2.84350561,3.18584072 C2.88126372,2.88377582 2.94734042,2.5581121 3.0417357,2.20884956 C3.13613098,1.85958702 3.28244367,1.54808259 3.48067375,1.27433628 C3.66946431,1.0100295 3.87241417,0.79528024 4.08952331,0.6300885 C4.30663246,0.46489676 4.53318113,0.33510325 4.76916933,0.240707969 C5.00515753,0.146312688 5.23878584,0.082595875 5.47005428,0.0495575313 C5.70132272,0.0165191875 5.92551151,1.56250032e-08 6.14262066,1.56250032e-08 C6.41636697,1.56250032e-08 6.6877534,0.0306784792 6.95677995,0.0920354063 C7.22580651,0.153392333 7.47831388,0.235988203 7.71430208,0.339823016 C7.95029028,0.443657828 8.16031978,0.561651927 8.34439058,0.693805313 C8.52846138,0.825958698 8.67241418,0.958112089 8.77624898,1.09026548 C9.02167671,1.39233038 9.20102774,1.72507374 9.31430208,2.08849558 C9.42757641,2.45191741 9.5078124,2.79882007 9.55501005,3.12920355 C9.60220768,3.50678467 9.6258065,3.88908556 9.6258065,4.2761062 C9.6918832,4.32330384 9.7438006,4.38466077 9.78155872,4.460177 C9.81931683,4.5262537 9.8499953,4.61120945 9.87359411,4.71504425 C9.89719292,4.81887905 9.8995528,4.94631268 9.88067375,5.09734514 C9.8617947,5.30501476 9.8216767,5.46784661 9.76031977,5.58584072 C9.69896283,5.70383482 9.63052625,5.79587022 9.55501003,5.86194691 C9.47005428,5.93746314 9.38037877,5.98938054 9.28598348,6.01769913 C9.26710443,6.07433629 9.24822537,6.13569322 9.22934631,6.20176992 L9.15854986,6.40000002 C9.13967081,6.46607671 9.11607199,6.53687317 9.08775341,6.61238939 Z M11.1125322,7.06548672 C11.7261015,7.06548672 12.3042726,7.18348082 12.8470455,7.41946902 C13.3898183,7.65545721 13.8617947,7.97640117 14.2629747,8.38230088 C14.6641546,8.78820058 14.9827387,9.26253686 15.2187269,9.80530972 C15.4547151,10.3480826 15.5727092,10.9262537 15.5727092,11.539823 C15.5727092,12.1533923 15.4547151,12.7315634 15.2187269,13.2743363 C14.9827387,13.8171091 14.6641546,14.2914454 14.2629747,14.6973451 C13.8617947,15.1032448 13.3898183,15.4218289 12.8470455,15.6530973 C12.3042726,15.8843658 11.7261015,16 11.1125322,16 C10.4895233,16 9.90663249,15.8843658 9.36385964,15.6530973 C8.82108679,15.4218289 8.34911039,15.1032448 7.94793044,14.6973451 C7.54675049,14.2914454 7.22816642,13.8171091 6.99217822,13.2743363 C6.75619002,12.7315634 6.63819592,12.1533923 6.63819592,11.539823 C6.63819592,10.9262537 6.75619002,10.3480826 6.99217822,9.80530972 C7.22816642,9.26253686 7.54675049,8.78820058 7.94793044,8.38230088 C8.34911039,7.97640117 8.82108679,7.65545721 9.36385964,7.41946902 C9.90663249,7.18348082 10.4895233,7.06548672 11.1125322,7.06548672 Z M13.7178419,10.6619469 C13.7744791,10.4731563 13.7485204,10.300885 13.6399658,10.1451328 C13.5314113,9.98938054 13.3874585,9.87846609 13.2081074,9.81238939 C13.0287564,9.74631269 12.8494054,9.74159293 12.6700543,9.79823009 C12.4907033,9.85486726 12.3585499,10.0011799 12.2735942,10.2371681 C12.2263965,10.3976401 12.1815588,10.5463127 12.1390809,10.6831858 C12.096603,10.820059 12.0541251,10.9640118 12.0116472,11.1150443 C11.9691694,11.2660767 11.917252,11.4289086 11.855895,11.6035398 C11.7945381,11.7781711 11.716662,11.9787611 11.6222667,12.2053097 C11.5278714,12.4507375 11.3933582,12.5663717 11.2187269,12.5522124 C11.0440956,12.5380531 10.9095823,12.4365782 10.8151871,12.2477876 C10.7113522,12.058997 10.6145971,11.8560472 10.5249216,11.638938 C10.4352461,11.4218289 10.3479304,11.2094395 10.2629747,11.0017699 C10.1780189,10.7941003 10.1025027,10.6053097 10.036426,10.4353982 C9.97034931,10.2654867 9.91371215,10.1286136 9.8665145,10.0247788 C9.79099827,9.8737463 9.66592453,9.78879055 9.49129327,9.7699115 C9.31666201,9.75103245 9.1467505,9.77699115 8.98155875,9.84778761 C8.816367,9.91858407 8.67949384,10.0294985 8.57093928,10.180531 C8.46238472,10.3315634 8.44586555,10.4967552 8.52138177,10.6761062 C8.58745846,10.8648967 8.66297469,11.0772861 8.74793044,11.3132743 C8.83288619,11.5492625 8.9225617,11.7899705 9.01695698,12.0353982 C9.11135227,12.2808259 9.20102778,12.5215339 9.28598353,12.7575221 C9.37093928,12.9935103 9.44645551,13.1964602 9.5125322,13.3663717 C9.65412512,13.7250737 9.86887438,13.9941003 10.15678,14.1734513 C10.4446856,14.3528023 10.7467505,14.4471976 11.0629747,14.4566372 C11.3791989,14.4660767 11.6812638,14.3952802 11.9691694,14.2442478 C12.257075,14.0932153 12.4671045,13.8666667 12.5992579,13.5646018 C12.7030927,13.319174 12.8092874,13.0619469 12.9178419,12.7929203 C13.0263965,12.5238938 13.1302313,12.2619469 13.2293464,12.0070796 C13.3284614,11.7522124 13.4204968,11.5067847 13.5054525,11.2707965 C13.5904083,11.0348082 13.6612048,10.8318584 13.7178419,10.6619469 Z" id="形状" fill="#F5A623" fill-rule="nonzero"></path>
            </g>
        </g>
    </g>
</svg>