<?xml version="1.0" encoding="UTF-8"?>
<svg width="16px" height="16px" viewBox="0 0 16 16" version="1.1" xmlns="http://www.w3.org/2000/svg" xmlns:xlink="http://www.w3.org/1999/xlink">
    <!-- Generator: Sketch 52.5 (67469) - http://www.bohemiancoding.com/sketch -->
    <title>ic_bj</title>
    <desc>Created with Sketch.</desc>
    <g id="组件" stroke="none" stroke-width="1" fill="none" fill-rule="evenodd">
        <g id="ic_bj" fill="#4185F3" fill-rule="nonzero">
            <g id="形状">
                <path d="M4.62060151,10.6069176 L5.37701105,11.365425 L7.19881517,10.7009558 L5.28366612,8.78794105 L4.62060151,10.6069176 Z M7.99997264,0 C3.58122019,0 0,3.581658 0,8.00002736 C0,12.4179407 3.58123843,16 7.99997264,16 C12.4178859,16 15.9999635,12.4179407 15.9999635,8.00002736 C15.9999635,3.581658 12.4178859,0 7.99997264,0 Z M7.59979523,11.1018993 L7.59552658,11.0969192 C7.57341713,11.1154532 7.54919159,11.1325461 7.5206974,11.1425245 L3.83577075,12.4871695 C3.73959829,12.5213553 3.63134954,12.4985526 3.56015054,12.4244713 C3.4875469,12.3532541 3.46399632,12.2449871 3.49960494,12.1495991 L4.84280878,8.46602234 C4.85282371,8.43827607 4.86847545,8.41474374 4.8876844,8.39194109 L4.88480215,8.38840212 L8.19377693,5.08021175 C8.55274538,5.43843227 8.84826774,5.73326143 8.84826774,5.73326143 L6.25584346,8.32145353 C6.21383186,8.36206049 6.19529787,8.41545518 6.19529787,8.46957955 C6.19529787,8.52299248 6.21383186,8.5764419 6.25584346,8.61774206 C6.29646867,8.65760109 6.3498816,8.6796923 6.40541061,8.6796923 C6.46093963,8.6796923 6.5136776,8.65760109 6.55422983,8.61774206 L9.14528595,6.03099108 L9.95930411,6.84364108 L7.37970404,9.42041362 C7.29850836,9.50228426 7.29850836,9.63546998 7.37970404,9.71735886 C7.41958132,9.75656118 7.47374218,9.7786159 7.52928944,9.7786159 C7.58556638,9.7786159 7.63823138,9.75656118 7.6781269,9.7180703 C7.6781269,9.71735886 10.2570338,7.14131601 10.2570338,7.14131601 C10.2570338,7.14131601 10.6359409,7.5202231 10.9080038,7.79369073 L7.59979523,11.1018993 Z M12.2391132,6.46473399 L11.2064085,7.49672725 C10.6758364,6.96684837 9.4430156,5.73326143 8.49221803,4.78426982 L9.52630913,3.75087192 C9.89666067,3.38086698 10.5020437,3.38015554 10.871702,3.75087192 L12.2391314,5.11903098 C12.6094647,5.48901767 12.6087715,6.09295957 12.2391132,6.46473399 Z"></path>
            </g>
        </g>
    </g>
</svg>