<?xml version="1.0" encoding="UTF-8"?>
<svg width="16px" height="15px" viewBox="0 0 16 15" version="1.1" xmlns="http://www.w3.org/2000/svg" xmlns:xlink="http://www.w3.org/1999/xlink">
    <!-- Generator: Sketch 52.5 (67469) - http://www.bohemiancoding.com/sketch -->
    <title>golden_membership</title>
    <desc>Created with Sketch.</desc>
    <defs>
        <filter x="-54.2%" y="-63.7%" width="208.3%" height="235.3%" filterUnits="objectBoundingBox" id="filter-1">
            <feOffset dx="0" dy="1" in="SourceAlpha" result="shadowOffsetOuter1"></feOffset>
            <feGaussianBlur stdDeviation="1" in="shadowOffsetOuter1" result="shadowBlurOuter1"></feGaussianBlur>
            <feColorMatrix values="0 0 0 0 0.584313725   0 0 0 0 0.411764706   0 0 0 0 0.31372549  0 0 0 0.5 0" type="matrix" in="shadowBlurOuter1" result="shadowMatrixOuter1"></feColorMatrix>
            <feMerge>
                <feMergeNode in="shadowMatrixOuter1"></feMergeNode>
                <feMergeNode in="SourceGraphic"></feMergeNode>
            </feMerge>
        </filter>
        <path d="M0,2.86337007 L0.0385092251,2.75636191 C0.137446494,2.46536257 0.395586716,2.27040291 0.710214022,2.24881508 C0.997225092,2.22840555 1.28447232,2.39360194 1.41911439,2.6535724 C1.55656089,2.91893983 1.51799262,3.23164338 1.31878967,3.46451267 C1.29422878,3.49133745 1.26994834,3.51843862 1.2459631,3.54571435 C1.80224354,3.88137315 2.3558524,4.21323518 2.90665683,4.54752656 C3.11548339,4.67475512 3.32563838,4.80210007 3.5344797,4.9252991 C3.65394834,4.99433943 3.74602214,4.97410447 3.81059779,4.85892087 C4.44619926,3.71754419 5.08129889,2.57583293 5.71580812,1.43388891 C5.43969004,1.29575006 5.26112177,1.08448314 5.24469373,0.771881419 C5.2337417,0.552599074 5.31198524,0.364403791 5.47002214,0.211485122 C5.78315867,-0.0891152744 6.29692989,-0.0605884946 6.5717786,0.272335464 C6.88757196,0.654152083 6.77369742,1.10084858 6.27225092,1.4366674 C6.43605904,1.73284549 6.60090037,2.02838351 6.76677491,2.32342693 C7.22699631,3.14924884 7.68432472,3.97229226 8.14448708,4.79807053 C8.25016974,4.98894247 8.31746125,5.00655896 8.50726199,4.89563765 C9.21868635,4.4677505 9.92885609,4.03730306 10.6403395,3.60810668 C10.6734317,3.58787172 10.7050923,3.56747675 10.7434244,3.54440511 C10.5965166,3.39967644 10.5029963,3.23584748 10.4920443,3.03400705 C10.4713506,2.65623452 10.7351882,2.32585629 11.1047085,2.2637549 C11.4893875,2.19737668 11.8465683,2.41399691 11.9605018,2.78080097 C11.9687528,2.80915318 11.9811513,2.83904739 11.9921624,2.86734142 L11.9921624,3.12191492 C11.8711439,3.50360062 11.6226421,3.725676 11.1955129,3.72835266 C11.1802362,3.7716447 11.1639114,3.81495129 11.1514686,3.85835971 C10.7353506,5.2649438 10.318893,6.67418999 9.90296679,8.0809341 C9.84946125,8.26504166 9.78332103,8.31243597 9.59507011,8.31243597 L2.40659779,8.31243597 C2.20467897,8.31243597 2.14281919,8.26635089 2.0879262,8.0809341 C1.74856089,6.93967379 1.41346125,5.79431122 1.07414022,4.65299273 C0.983630996,4.34443509 0.890110701,4.03581926 0.798081181,3.725676 C0.479365314,3.725676 0.239099631,3.60116773 0.089195572,3.33034516 C0.0535055351,3.26398149 0.0301549815,3.18954419 0.00138745387,3.11913643 C0,3.03134494 0,2.94729204 0,2.86337007 M5.99313653,9.04904078 L9.35164576,9.04904078 C9.65117343,9.04904078 9.89021402,9.2575292 9.92320295,9.53790919 C9.95617712,9.82071854 9.76810332,10.0780269 9.47819926,10.1415539 C9.43697417,10.1524642 9.39304797,10.1538316 9.35164576,10.1538316 L2.63191144,10.1538316 C2.37650185,10.1538316 2.16081181,10.003415 2.08659779,9.77605907 C2.0097417,9.54852854 2.08100369,9.29151113 2.28580074,9.16132951 C2.39166052,9.09518404 2.53166052,9.04904078 2.65532103,9.04904078 C3.76937269,9.04358563 4.88191882,9.04904078 5.99313653,9.04904078" id="path-2"></path>
    </defs>
    <g id="组件" stroke="none" stroke-width="1" fill="none" fill-rule="evenodd">
        <g id="golden_membership" transform="translate(2.000000, 0.000000)">
            <g transform="translate(-2.000000, 0.000000)" id="分组-20">
                <g transform="translate(2.000000, 0.000000)">
                    <g id="皇冠-4" filter="url(#filter-1)" transform="translate(0.000000, 1.000000)">
                        <mask id="mask-3" fill="white">
                            <use xlink:href="#path-2"></use>
                        </mask>
                        <use id="Fill-1" fill="#E6D09B" xlink:href="#path-2"></use>
                        <rect id="Rectangle-6" fill="#D79E6B" mask="url(#mask-3)" x="6" y="-0.461538462" width="6" height="10.6153846"></rect>
                    </g>
                </g>
            </g>
        </g>
    </g>
</svg>