<?xml version="1.0" encoding="UTF-8"?>
<svg width="18px" height="18px" viewBox="0 0 18 18" version="1.1" xmlns="http://www.w3.org/2000/svg" xmlns:xlink="http://www.w3.org/1999/xlink">
    <!-- Generator: Sketch 52.2 (67145) - http://www.bohemiancoding.com/sketch -->
    <title>ic_iphone</title>
    <desc>Created with Sketch.</desc>
    <g id="Symbols" stroke="none" stroke-width="1" fill="none" fill-rule="evenodd">
        <g id="ic_iphone">
            <g>
                <rect id="矩形" fill="#000000" opacity="0" x="0" y="0" width="18" height="18"></rect>
                <path d="M12.3996094,1.12851563 L5.60039063,1.12851563 C3.7125,1.12851563 2.17792969,2.66308594 2.17792969,4.55097656 L2.17792969,13.4472656 C2.17792969,15.3351563 3.7125,16.8697266 5.60039063,16.8697266 L12.4013672,16.8697266 C14.2892578,16.8697266 15.8238281,15.3351563 15.8238281,13.4472656 L15.8238281,4.55273438 C15.8220703,2.66484375 14.2875,1.12851562 12.3996094,1.12851563 Z M5.60039063,2.0953125 L12.4013672,2.0953125 C13.7566406,2.0953125 14.8587891,3.19746094 14.8587891,4.55273438 L14.8587891,10.9740234 L3.14296875,10.9740234 L3.14296875,4.55273438 C3.14296875,3.19746094 4.24511719,2.0953125 5.60039063,2.0953125 Z M12.3996094,15.9046875 L5.60039063,15.9046875 C4.24511719,15.9046875 3.14296875,14.8025391 3.14296875,13.4472656 L3.14296875,11.9373047 L14.8570313,11.9373047 L14.8570313,13.4472656 C14.8570313,14.8025391 13.7548828,15.9046875 12.3996094,15.9046875 Z" id="形状" fill="#4D4D4D" fill-rule="nonzero"></path>
                <path d="M8.01210938,13.8375 C8.01210938,14.3830969 8.45440307,14.8253906 9,14.8253906 C9.54559693,14.8253906 9.98789063,14.3830969 9.98789063,13.8375 C9.98789064,13.4845607 9.79959975,13.1584313 9.49394532,12.9819616 C9.1882909,12.8054919 8.8117091,12.8054919 8.50605468,12.9819616 C8.20040025,13.1584313 8.01210936,13.4845607 8.01210937,13.8375 Z" id="路径" fill="#4D4D4D"></path>
            </g>
        </g>
    </g>
</svg>