<?xml version="1.0" encoding="UTF-8"?>
<svg width="18px" height="18px" viewBox="0 0 18 18" version="1.1" xmlns="http://www.w3.org/2000/svg" xmlns:xlink="http://www.w3.org/1999/xlink">
    <!-- Generator: Sketch 52.2 (67145) - http://www.bohemiancoding.com/sketch -->
    <title>ic_mail</title>
    <desc>Created with Sketch.</desc>
    <g id="Symbols" stroke="none" stroke-width="1" fill="none" fill-rule="evenodd">
        <g id="ic_mail">
            <g>
                <rect id="矩形" fill="#000000" opacity="0" x="0" y="0" width="18" height="18"></rect>
                <path d="M14.5072266,2.44160156 L3.46113281,2.44160156 C2.1515625,2.44160156 1.08808594,3.50683594 1.08808594,4.81464844 L1.08808594,13.1748047 C1.08808594,14.4369141 2.07773437,15.46875 3.32226562,15.5408203 C3.36796875,15.5443359 3.41542969,15.5478516 3.46289062,15.5478516 L14.5089844,15.5478516 C14.9748047,15.5478516 15.4072266,15.4107422 15.7746094,15.1787109 C15.8730469,15.1171875 15.9662109,15.0486328 16.0523437,14.9730469 C16.5603516,14.5371094 16.8820313,13.8919922 16.8820313,13.1730469 L16.8820313,4.81640625 C16.8820313,3.50683594 15.8167969,2.44160156 14.5072266,2.44160156 Z M11.9355469,8.91386719 L15.9328125,5.67773438 L15.9328125,12.1517578 L11.9355469,8.91386719 Z M3.46113281,3.39257812 L14.5072266,3.39257812 C15.1787109,3.39257812 15.7429687,3.86191406 15.8923828,4.48769531 L11.1814453,8.30214844 L10.4273438,8.91386719 L9.74882812,9.4640625 C9.30761719,9.82089844 8.66777344,9.82089844 8.2265625,9.4640625 L7.54804687,8.91386719 L6.79394531,8.30214844 L2.07773437,4.4859375 C2.22714844,3.85839844 2.79140625,3.39257812 3.46113281,3.39257812 Z M2.03730469,5.67421875 L6.03632812,8.91386719 L2.03730469,12.1535156 L2.03730469,5.67421875 Z M15.5619141,14.1310547 C15.4546875,14.2505859 15.3263672,14.3490234 15.1839844,14.4263672 C14.9818359,14.5371094 14.7515625,14.6003906 14.5072266,14.6003906 L3.46113281,14.6003906 C3.26777344,14.6003906 3.08320313,14.5599609 2.91445313,14.4896484 C2.76679688,14.428125 2.63144531,14.3419922 2.51191406,14.2365234 C2.2640625,14.0150391 2.0953125,13.7091797 2.04960938,13.3646484 L6.79042969,9.52558594 L7.62539062,10.2023438 C8.01914063,10.5205078 8.50253906,10.6804688 8.98417969,10.6804688 C9.46757813,10.6804688 9.94921875,10.5205078 10.3429688,10.2023438 L11.1779297,9.52558594 L15.9152344,13.3628906 C15.8800781,13.6546875 15.7517578,13.9201172 15.5619141,14.1310547 Z" id="形状" fill="#4D4D4D" fill-rule="nonzero"></path>
            </g>
        </g>
    </g>
</svg>