<?xml version="1.0" encoding="UTF-8"?>
<svg width="16px" height="16px" viewBox="0 0 16 16" version="1.1" xmlns="http://www.w3.org/2000/svg" xmlns:xlink="http://www.w3.org/1999/xlink">
    <!-- Generator: Sketch 52.5 (67469) - http://www.bohemiancoding.com/sketch -->
    <title>ic_shanchu</title>
    <desc>Created with Sketch.</desc>
    <g id="组件" stroke="none" stroke-width="1" fill="none" fill-rule="evenodd">
        <g id="ic_shanchu">
            <g>
                <rect id="矩形" fill="#000000" opacity="0" x="0" y="0" width="16" height="16"></rect>
                <path d="M13.456,3.008 C13.776,3.008 14.04,3.06133333 14.248,3.168 C14.456,3.27466667 14.6213333,3.408 14.744,3.568 C14.8666667,3.728 14.952,3.90133333 15,4.088 C15.048,4.27466667 15.072,4.448 15.072,4.608 C15.072,4.68266667 15.0693333,4.74133333 15.064,4.784 C15.0586667,4.82666667 15.056,4.864 15.056,4.896 L15.056,4.992 L14,4.992 L14,13.392 C14,13.6053333 13.9573333,13.8106667 13.872,14.008 C13.7866667,14.2053333 13.664,14.3786667 13.504,14.528 C13.344,14.6773333 13.1493333,14.7973333 12.92,14.888 C12.6906667,14.9786667 12.4266667,15.024 12.128,15.024 L4.992,15.024 C4.71466667,15.024 4.45333333,14.9813333 4.208,14.896 C3.96266667,14.8106667 3.752,14.6906667 3.576,14.536 C3.4,14.3813333 3.26133333,14.1946667 3.16,13.976 C3.05866667,13.7573333 3.008,13.5093333 3.008,13.232 L3.008,4.992 L2.016,4.992 C2.00533333,4.98133333 2,4.95466667 2,4.912 C1.98933333,4.85866667 1.984,4.69333333 1.984,4.416 C1.984,4.27733333 2.016,4.12266667 2.08,3.952 C2.144,3.78133333 2.24,3.624 2.368,3.48 C2.496,3.336 2.66133333,3.216 2.864,3.12 C3.06666667,3.024 3.30666667,2.976 3.584,2.976 L5.008,2.976 L5.008,2 C5.008,1.72266667 5.104,1.48533333 5.296,1.288 C5.488,1.09066667 5.72266667,0.992 6,0.992 L11.008,0.992 C11.3813333,0.992 11.64,1.09066667 11.784,1.288 C11.928,1.48533333 12,1.72266667 12,2 L12,2.992 C12.224,3.00266667 12.464,3.008 12.72,3.008 L13.456,3.008 Z M6,3.008 L11.008,3.008 L11.008,2 L6,2 L6,3.008 Z M5.504,13.136 C5.84533333,13.136 6.016,12.9173333 6.016,12.48 L6.016,5.056 L5.024,5.056 L5.024,12.48 C5.024,12.704 5.05866667,12.8693333 5.128,12.976 C5.19733333,13.0826667 5.32266667,13.136 5.504,13.136 Z M8.528,13.12 C8.70933333,13.12 8.832,13.0693333 8.896,12.968 C8.96,12.8666667 8.992,12.704 8.992,12.48 L8.992,5.056 L8,5.056 L8,12.48 C8,12.9066667 8.176,13.12 8.528,13.12 Z M11.536,13.088 C11.728,13.088 11.856,13.0373333 11.92,12.936 C11.984,12.8346667 12.016,12.672 12.016,12.448 L12.016,5.056 L11.008,5.056 L11.008,12.448 C11.008,12.8746667 11.184,13.088 11.536,13.088 Z" id="形状" fill="#FF6666" fill-rule="nonzero"></path>
            </g>
        </g>
    </g>
</svg>