<?xml version="1.0" encoding="UTF-8"?>
<svg width="16px" height="16px" viewBox="0 0 16 16" version="1.1" xmlns="http://www.w3.org/2000/svg" xmlns:xlink="http://www.w3.org/1999/xlink">
    <!-- Generator: Sketch 52.5 (67469) - http://www.bohemiancoding.com/sketch -->
    <title>ic_wrz</title>
    <desc>Created with Sketch.</desc>
    <g id="组件" stroke="none" stroke-width="1" fill="none" fill-rule="evenodd">
        <g id="ic_wrz">
            <g>
                <rect id="矩形" fill="#000000" opacity="0" x="0" y="0" width="16" height="16"></rect>
                <path d="M5.50674374,10.3156416 L10.2458574,10.3156416 L10.2458574,9.22731905 C10.2056809,8.61269666 9.72811988,8.11572959 9.11368015,8.04913501 C8.30648545,7.99173489 7.49621205,7.99173489 6.68901734,8.04913501 C6.16015296,8.06801404 5.71496405,8.44946923 5.61695568,8.96771918 C5.54175882,9.41307812 5.50488739,9.86402595 5.50674374,10.3156416 Z M7.96146435,5.00382881 C7.58980076,5.00113008 7.23123382,5.14048747 6.95953757,5.39322862 C6.67683417,5.64873052 6.51560171,6.01136022 6.51560171,6.39168967 C6.51560171,6.77201912 6.67683417,7.13464882 6.95953757,7.39015072 C7.52826627,7.90325137 8.39466244,7.90325137 8.96339114,7.39015072 C9.23490681,7.12955925 9.38398093,6.76722152 9.37418112,6.39168967 C9.37971241,6.01755361 9.23231864,5.65726445 8.96587424,5.39362484 C8.69942984,5.12998523 8.33685019,4.98566932 7.96146435,4.9938442 L7.96146435,5.00382881 Z M8.03159923,3.00690671 C9.23972022,3.98477012 10.7647693,4.48899414 12.3198459,4.4247214 L12.3198459,8.10904267 C12.3198459,9.86633412 10.0554913,12.971548 8.03159923,12.971548 C6.00770713,12.971548 3.7433526,9.86633412 3.7433526,8.10904267 L3.7433526,4.43470601 C5.29829861,4.4980527 6.82302745,3.99393455 8.03159923,3.01689132 L8.03159923,3.00690671 Z M13.1714836,8.12901189 C13.1714836,10.2457493 10.4462428,13.970009 8.02157996,13.970009 C5.59691715,13.970009 2.86165703,10.2557339 2.86165703,8.13899651 L2.86165703,3.70582944 C4.72953728,3.77985155 6.56044703,3.17284264 8.01156069,1.99846105 C9.46484608,3.17597885 11.3000683,3.78323605 13.1714836,3.70582944 L13.1714836,8.12901189 Z M8.01156069,1 C6.31880669,2.37335672 4.18107745,3.08346828 2,2.9969221 L2,8.16895034 C2,10.6351491 5.18612717,14.9884393 8.01156069,14.9884393 C10.8369942,14.9884393 14.0231214,10.6351491 14.0231214,8.16895034 L14.0231214,2.9969221 C11.841912,3.08439558 9.70386195,2.37417746 8.01156069,1 Z" id="形状" fill="#999999" fill-rule="nonzero"></path>
            </g>
        </g>
    </g>
</svg>