<?xml version="1.0" encoding="UTF-8"?>
<svg width="16px" height="16px" viewBox="0 0 16 16" version="1.1" xmlns="http://www.w3.org/2000/svg" xmlns:xlink="http://www.w3.org/1999/xlink">
    <!-- Generator: Sketch 52.5 (67469) - http://www.bohemiancoding.com/sketch -->
    <title>ic_czry</title>
    <desc>Created with Sketch.</desc>
    <g id="个人中心" stroke="none" stroke-width="1" fill="none" fill-rule="evenodd">
        <g id="企业员工-审核通过" transform="translate(-564.000000, -239.000000)">
            <g id="ic_czry" transform="translate(564.000000, 239.000000)">
                <g>
                    <rect id="矩形" fill="#000000" opacity="0" x="0" y="0" width="16" height="16"></rect>
                    <path d="M5.1700535,4.49430328 C5.1700535,5.97117502 6.3672946,7.16841613 7.84416635,7.16841613 C9.3210381,7.16841613 10.5182792,5.97117502 10.5182792,4.49430328 C10.5182792,3.01743153 9.3210381,1.82019042 7.84416635,1.82019042 C6.3672946,1.82019042 5.1700535,3.01743153 5.1700535,4.49430328 Z" id="路径" fill="#F06000"></path>
                    <path d="M15.5648519,12.549253 C15.6952965,11.0409881 15.3610323,8.42394472 13.4532811,7.24994396 C13.6343458,6.74532508 13.4680192,6.18154847 13.0420427,5.85602022 C12.6160661,5.53049197 12.0283976,5.5180708 11.5890467,5.82530919 C11.1496958,6.13254758 10.959696,6.68879276 11.1192769,7.20061164 C11.2788578,7.71243053 11.7513221,8.06212487 12.2874331,8.06522227 C12.5242704,8.06435999 12.756034,7.99652676 12.9559613,7.86955547 C14.9126293,8.97833397 14.7984903,11.8807247 14.7495736,12.4595723 L13.5185034,12.4595723 L13.5185034,10.7882518 C13.5185034,10.1395761 13.2608179,9.51746837 12.8021349,9.05878535 C12.3434519,8.60010232 11.7213442,8.34241688 11.0726684,8.34241689 L4.59935868,8.34241689 C3.95068293,8.34241689 3.32857524,8.60010233 2.86989222,9.05878535 C2.4112092,9.51746838 2.15352376,10.1395761 2.15352376,10.7882518 L2.15352376,13.486823 C2.15352376,13.6706145 2.22653464,13.8468783 2.35649483,13.9768385 C2.48645502,14.1067987 2.66271886,14.1798096 2.84651032,14.1798096 L15.2958101,14.1798096 C15.678536,14.1798096 15.9887966,13.8695489 15.9887966,13.486823 L15.9887966,13.2340867 C16.0082659,12.9386891 15.8379384,12.6635447 15.5648519,12.549253 Z" id="路径" fill="#F06000"></path>
                </g>
            </g>
        </g>
    </g>
</svg>