<?xml version="1.0" encoding="UTF-8"?>
<svg width="20px" height="20px" viewBox="0 0 20 20" version="1.1" xmlns="http://www.w3.org/2000/svg" xmlns:xlink="http://www.w3.org/1999/xlink">
    <!-- Generator: Sketch 52.5 (67469) - http://www.bohemiancoding.com/sketch -->
    <title>ic_gzt</title>
    <desc>Created with Sketch.</desc>
    <g id="组件" stroke="none" stroke-width="1" fill="none" fill-rule="evenodd">
        <g id="ic_gzt">
            <g>
                <rect id="矩形" fill="#000000" opacity="0" x="0" y="0" width="20" height="20"></rect>
                <g id="分组-8" transform="translate(1.250000, 1.250000)">
                    <path d="M10.5170898,14.0495605 C10.5170898,15.8277664 11.9586105,17.2692871 13.7368164,17.2692871 C15.5150223,17.2692871 16.956543,15.8277664 16.956543,14.0495605 C16.956543,12.2713547 15.5150223,10.829834 13.7368164,10.829834 C11.9586105,10.829834 10.5170898,12.2713547 10.5170898,14.0495605 Z" id="路径" fill="#868E96"></path>
                    <path d="M15.7687988,12.6328125 C15.4953613,12.359375 15.0527344,12.359375 14.7792969,12.6328125 L13.1437988,14.2683105 L12.6960449,13.8205566 C12.4226074,13.5471191 11.9799805,13.5471191 11.706543,13.8205566 C11.4331055,14.0939941 11.4331055,14.5366211 11.706543,14.8100586 L12.6499023,15.753418 C12.9233398,16.0268555 13.3659668,16.0268555 13.6394043,15.753418 L13.6650391,15.7277832 L13.6804199,15.7124023 L15.7687988,13.6240234 C16.0422363,13.348877 16.0422363,12.90625 15.7687988,12.6328125 Z" id="路径" fill="#FFFFFF"></path>
                    <path d="M9.98217773,14.0837402 C9.98217773,12.2004395 11.3886719,10.6452637 13.2087402,10.4111328 C13.239502,10.2915039 13.3027344,10.1804199 13.3950195,10.0915527 L16.628418,6.93847656 C17.0385742,6.53857422 16.8112793,5.84301758 16.2456055,5.76098633 L11.7766113,5.11157227 C11.5527344,5.07910156 11.3579102,4.93725586 11.2570801,4.73388672 L9.25756836,0.68359375 C9.00463867,0.170898438 8.27319336,0.170898438 8.02026367,0.68359375 L6.02075195,4.73388672 C5.91992188,4.93725586 5.72680664,5.07910156 5.5012207,5.11157227 L1.03222656,5.76098633 C0.466552734,5.84301758 0.240966797,6.53857422 0.649414063,6.93847656 L3.88452148,10.0915527 C4.046875,10.2504883 4.12207031,10.4777832 4.08276367,10.7016602 L3.31884766,15.1535645 C3.22143555,15.7175293 3.81445313,16.1464844 4.3203125,15.8815918 L8.31762695,13.779541 C8.51416016,13.677002 8.74829102,13.673584 8.94482422,13.7727051 L9.98901367,14.329834 C9.9855957,14.2478027 9.98217773,14.1657715 9.98217773,14.0837402 Z" id="路径" fill="#868E96"></path>
                </g>
            </g>
        </g>
    </g>
</svg>