<?xml version="1.0" encoding="UTF-8"?>
<svg width="20px" height="20px" viewBox="0 0 20 20" version="1.1" xmlns="http://www.w3.org/2000/svg" xmlns:xlink="http://www.w3.org/1999/xlink">
    <!-- Generator: Sketch 52.5 (67469) - http://www.bohemiancoding.com/sketch -->
    <title>ic_home</title>
    <desc>Created with Sketch.</desc>
    <g id="组件" stroke="none" stroke-width="1" fill="none" fill-rule="evenodd">
        <g id="ic_home">
            <g>
                <rect id="矩形" fill="#000000" opacity="0" x="0" y="0" width="20" height="20"></rect>
                <g id="分组-2" transform="translate(2.500000, 2.500000)">
                    <path d="M11.4799805,14.9208984 L3.52001953,14.9208984 C3.29296875,14.9208984 3.10839844,14.7363281 3.10839844,14.5092773 C3.10839844,14.2822266 3.29296875,14.0976562 3.52001953,14.0976562 L11.4814453,14.0976562 C11.7084961,14.0976562 11.8930664,14.2822266 11.8930664,14.5092773 C11.8930664,14.7363281 11.7084961,14.9208984 11.4799805,14.9208984 Z" id="路径" fill="#999999"></path>
                    <path d="M11.4799805,13.4370117 L3.52001953,13.4370117 C3.29296875,13.4370117 3.10839844,13.2524414 3.10839844,13.0253906 C3.10839844,12.7983398 3.29296875,12.6137695 3.52001953,12.6137695 L11.4814453,12.6137695 C11.7084961,12.6137695 11.8930664,12.7983398 11.8930664,13.0253906 C11.8930664,13.2524414 11.7084961,13.4370117 11.4799805,13.4370117 Z" id="路径" fill="#868E96"></path>
                    <path d="M11.4799805,11.9545898 L3.52001953,11.9545898 C3.29296875,11.9545898 3.10839844,11.7700195 3.10839844,11.5429688 C3.10839844,11.315918 3.29296875,11.1313477 3.52001953,11.1313477 L11.4814453,11.1313477 C11.7084961,11.1313477 11.8930664,11.315918 11.8930664,11.5429688 C11.8930664,11.7700195 11.7084961,11.9545898 11.4799805,11.9545898 Z" id="路径" fill="#868E96"></path>
                    <path d="M8.46386719,10.4707031 L3.52001953,10.4707031 C3.29296875,10.4707031 3.10839844,10.2861328 3.10839844,10.059082 C3.10839844,9.83203125 3.29296875,9.64746094 3.52001953,9.64746094 L8.46386719,9.64746094 C8.69091797,9.64746094 8.87548828,9.83203125 8.87548828,10.059082 C8.87548828,10.2861328 8.69091797,10.4707031 8.46386719,10.4707031 Z" id="路径" fill="#868E96"></path>
                    <path d="M7.5,0.0791015625 L0.0849609375,6.01171875 C0.657714844,6.01171875 1.12353516,6.47607422 1.12353516,7.05029297 C1.12353516,7.05322266 1.51611328,14.0053711 1.51611328,14.0053711 C1.57763672,14.5209961 2.015625,14.9194336 2.54736328,14.9194336 L2.66455078,14.9194336 L2.36132813,8.54150391 C2.36132813,7.97314453 2.81982422,7.51025391 3.38671875,7.50292969 L11.6147461,7.50292969 C12.1816406,7.51025391 12.6401367,7.97167969 12.6401367,8.54150391 L12.3369141,14.9194336 L12.4541016,14.9194336 C12.9858398,14.9194336 13.4238281,14.5195312 13.4853516,14.0053711 C13.4853516,14.0053711 13.8779297,7.05322266 13.8779297,7.05029297 C13.8779297,6.47753906 14.3422852,6.01171875 14.9165039,6.01171875 L7.5,0.0791015625 Z M6.30322266,3.29296875 L6.70166016,2.89453125 C6.79833984,2.79785156 6.95507813,2.79785156 7.05175781,2.89453125 C7.1484375,2.99121094 7.1484375,3.14794922 7.05175781,3.24462891 L6.65332031,3.64306641 C6.60498047,3.69140625 6.54199219,3.71484375 6.47900391,3.71484375 C6.41601563,3.71484375 6.35302734,3.69140625 6.3046875,3.64306641 C6.20654297,3.54638672 6.20654297,3.38964844 6.30322266,3.29296875 Z M6.99902344,5.05810547 C6.93457031,5.12255859 6.84960938,5.15478516 6.76611328,5.15478516 C6.68261719,5.15478516 6.59765625,5.12255859 6.53320313,5.05810547 C6.40429688,4.92919922 6.40429688,4.72119141 6.53320313,4.59228516 L8.00097656,3.12451172 C8.12988281,2.99560547 8.33789063,2.99560547 8.46679688,3.12451172 C8.59570313,3.25341797 8.59570313,3.46142578 8.46679688,3.59033203 L6.99902344,5.05810547 Z M8.69677734,4.88964844 L8.29833984,5.28808594 C8.25,5.33642578 8.18701172,5.35986328 8.12402344,5.35986328 C8.06103516,5.35986328 7.99804688,5.33642578 7.94970703,5.28808594 C7.85302734,5.19140625 7.85302734,5.03466797 7.94970703,4.93798828 L8.34814453,4.53955078 C8.44482422,4.44287109 8.6015625,4.44287109 8.69824219,4.53955078 C8.79345703,4.63623047 8.79345703,4.79296875 8.69677734,4.88964844 Z" id="形状" fill="#868E96" fill-rule="nonzero"></path>
                </g>
            </g>
        </g>
    </g>
</svg>