<?xml version="1.0" encoding="UTF-8"?>
<svg width="80px" height="80px" viewBox="0 0 80 80" version="1.1" xmlns="http://www.w3.org/2000/svg" xmlns:xlink="http://www.w3.org/1999/xlink">
    <!-- Generator: Sketch 52.5 (67469) - http://www.bohemiancoding.com/sketch -->
    <title>ic_smpd</title>
    <desc>Created with Sketch.</desc>
    <defs>
        <rect id="path-1" x="0" y="2.13162821e-14" width="80" height="80"></rect>
        <linearGradient x1="19.9765391%" y1="9.65659244%" x2="84.9173516%" y2="85.5970993%" id="linearGradient-3">
            <stop stop-color="#9B7EFF" offset="0%"></stop>
            <stop stop-color="#6248FF" offset="100%"></stop>
        </linearGradient>
        <linearGradient x1="82.2451705%" y1="13.3148023%" x2="19.8532638%" y2="90.0772441%" id="linearGradient-4">
            <stop stop-color="#9B7EFF" offset="0%"></stop>
            <stop stop-color="#6248FF" offset="100%"></stop>
        </linearGradient>
    </defs>
    <g id="组件" stroke="none" stroke-width="1" fill="none" fill-rule="evenodd">
        <g id="ic_smpd">
            <g id="分组-2">
                <g>
                    <mask id="mask-2" fill="white">
                        <use xlink:href="#path-1"></use>
                    </mask>
                    <use id="Mask" fill="#000000" opacity="0" xlink:href="#path-1"></use>
                    <g mask="url(#mask-2)">
                        <g transform="translate(0.000000, 13.000000)">
                            <path d="M61.8346377,38.4233345 L43.9960758,20.5283751 L29.9361534,20.5283751 L19.7056281,10.2978498 L5.6457057,24.363412 L12.0355541,30.7532605 C12.7001129,32.6246654 13.8716491,34.274579 15.4194103,35.518858 L32.7391142,53.047233 L34.9047822,55.2129009 C38.2096817,58.5178005 41.2889909,56.0870637 42.8794033,53.3461403 C45.9023148,54.9083539 49.286171,53.1825873 50.4874399,50.8308072 C54.3168372,52.7201269 57.6668548,48.8061332 57.3905065,46.8040184 C61.5470098,46.5558689 64.6545177,42.224533 61.8346377,38.4233345 Z" id="路径" fill="#FFFFFF" fill-rule="evenodd"></path>
                            <path d="M38.2096817,58.0609799 C37.0817297,58.0609799 35.5815534,57.660557 34.0137,56.0927036 L31.8480321,53.9270356 L14.5960053,36.4437787 C12.943083,35.104209 11.6711502,33.3538426 10.907602,31.3679944 L3.83534258,24.363412 L19.7056281,8.49312656 L30.460651,19.2481495 L44.5262133,19.2481495 L62.8328752,37.6619669 C64.2830393,39.4694706 64.5865863,41.9415227 63.6168019,44.0461755 C62.6382703,46.0498754 60.782991,47.4840688 58.5974152,47.9263306 C58.1913012,49.347457 57.3067293,50.5846623 56.0933616,51.4286218 C54.6439192,52.5229469 52.7673709,52.8794911 51.0175773,52.3930208 C50.1035662,53.5621685 48.8600533,54.4304665 47.4476091,54.8857948 C46.1322929,55.3163988 44.716072,55.3301867 43.3926214,54.9252732 C42.0954766,56.7074375 40.4881448,57.82411 38.8244155,58.0609799 C38.6197262,58.0744658 38.4143711,58.0744658 38.2096817,58.0609799 Z M7.45042898,24.363412 L13.1747857,30.082129 L13.2650219,30.3979556 C13.8458658,31.9907563 14.8429737,33.3987816 16.1525791,34.4755023 L16.3274117,34.6221361 L33.6471156,52.1505111 L35.8071438,54.3105393 C36.7151452,55.2185407 37.6175069,55.6246034 38.4747505,55.5118083 C39.6027025,55.3651745 40.8434498,54.3161791 41.7740102,52.6919281 L42.3831043,51.6372929 L43.4659383,52.201269 C44.4517575,52.7091112 45.6010832,52.796582 46.6524029,52.4437787 C47.7995088,52.0797288 48.7639779,51.2908012 49.3482083,50.2386323 L49.9121844,49.1106803 L51.0401364,49.6746563 C52.1762186,50.2633022 53.5512172,50.1354979 54.5593469,49.3475502 C55.6872989,48.529785 56.1666786,47.3792739 56.1102809,46.9675714 L55.9241688,45.5971096 L57.3059101,45.518153 C58.9878769,45.440837 60.4972226,44.4619185 61.2537423,42.9577018 C61.8106496,41.7342076 61.6318284,40.3014577 60.791282,39.2523793 L43.4659383,21.8029609 L29.4060159,21.8029609 L19.7056281,12.1082129 L7.45042898,24.363412 Z" id="形状" fill="#2E385D" fill-rule="nonzero"></path>
                            <path d="M59.3362238,11.5780755 C59.3362238,11.5780755 54.1307251,16.507226 52.9463754,16.693338 C51.4010811,16.930208 44.4867349,13.6760663 43.0711551,13.3094819 C41.6555752,12.9428975 27.7028082,17.4152273 26.6650923,19.0958759 C25.6273765,20.7765245 29.7500412,24.7356363 33.7260723,24.2449771 C37.7021033,23.754318 43.5956528,21.6281284 45.3157797,23.3482552 C48.1018213,26.1342968 56.2343556,34.6616145 60.0750324,38.0567501 C63.2953355,40.8766302 68.7884621,31.1480437 70.1758431,29.5971096 C70.1758431,29.5971096 72.7306545,27.7416284 74.5297381,26.4219245 L59.3362238,11.5780755 Z" id="路径" fill="#F8F8F8" fill-rule="evenodd"></path>
                            <path d="M61.3890966,39.8501938 C60.5903973,39.8499615 59.820386,39.5524115 59.2290684,39.0155094 C56.3584304,36.483257 51.2544473,31.2495595 47.5265657,27.4314416 C46.2350606,26.106098 45.1409471,24.9837857 44.4077783,24.2562566 C43.6746095,23.5287276 39.9805664,24.318294 37.7697804,24.7920338 C36.4500765,25.0740219 35.0852545,25.3560098 33.8839855,25.5195629 C30.674962,25.9369052 27.308025,23.9178709 25.9037247,21.7409235 C24.8490895,20.105393 25.2438727,18.9661614 25.5766186,18.4303842 C25.8191283,18.0412408 26.5466573,16.8568911 34.3238869,14.245682 C36.579791,13.4843144 42.0052404,11.752908 43.3757022,12.0912936 C44.4063148,12.4134132 45.4191322,12.7899253 46.4098932,13.2192457 C48.1638587,13.9298555 51.7733052,15.401833 52.7151452,15.4131124 C53.4934322,15.0747268 56.273834,12.7003877 58.4564213,10.6362355 L59.3475034,9.79027141 L76.4980145,26.5798379 L75.2798263,27.47092 C73.7119729,28.598872 71.5632242,30.1780049 71.0387265,30.5615087 C70.7962168,30.8547762 70.3845143,31.446951 69.9502527,32.0729644 C67.3503232,35.8121255 64.5755612,39.4892492 61.7951593,39.8276348 C61.6603606,39.8430645 61.5247749,39.850597 61.3890966,39.8501938 Z M43.003478,21.4025379 C44.3401012,21.4025379 45.4567737,21.6788862 46.2181413,22.4346141 C46.979509,23.190342 48.0567032,24.3013747 49.3594878,25.6323581 C53.0591705,29.422277 58.1236753,34.6164963 60.9209965,37.0867113 C61.0682913,37.2358932 61.2772715,37.3069465 61.4849725,37.2784632 C63.3630127,37.0528728 66.5043591,32.5354248 67.8466221,30.6066267 C68.2705097,29.9626636 68.7279617,29.3414325 69.2170839,28.7455058 L69.4144755,28.5706733 L72.5501823,26.3147691 L59.308025,13.3433204 C56.1666785,16.2534367 54.0912467,17.8043708 53.1042887,17.9510046 C51.9255788,18.1371167 49.7824698,17.3870286 45.4116556,15.5992245 C44.3344614,15.1593232 43.2234286,14.7081424 42.7891671,14.5840677 C40.911127,14.5840677 29.3270592,18.3796263 27.7535661,19.7557279 C27.9279409,20.2945082 28.2504201,20.7733408 28.6841266,21.1374691 C29.8120786,22.2203031 31.7352369,23.2129009 33.5343204,22.976031 C34.6284339,22.835037 35.8804607,22.5699683 37.2058044,22.2823405 C39.1048544,21.7997562 41.0467548,21.505071 43.003478,21.4025379 Z M36.0564212,48.3103983 L37.8628365,46.503983 L43.8015041,52.4420867 L41.9945248,54.248502 L36.0564212,48.3103983 Z M40.9252263,43.0535777 L42.7322055,41.2465985 L51.4095407,49.9244977 L49.6031255,51.730913 L40.9252263,43.0535777 Z M46.319657,37.5204089 L48.1260723,35.7139937 L58.3114794,45.8994008 L56.5050641,47.705252 L46.319657,37.5204089 Z" id="形状" fill="#2E385D" fill-rule="nonzero"></path>
                            <polygon id="路径" fill="url(#linearGradient-3)" fill-rule="evenodd" points="54.2237811 12.8566091 60.6164495 6.46394078 78.5142288 24.3617202 72.1215605 30.7543884"></polygon>
                            <path d="M72.1159207,32.5636235 L52.4162379,12.858301 L60.6164495,4.65808953 L80.321772,24.363412 L72.1159207,32.5636235 Z M56.0313243,12.858301 L72.1215605,28.9485372 L76.7066855,24.363412 L60.6108097,8.27317586 L56.0313243,12.858301 Z" id="形状" fill="#2E385D" fill-rule="nonzero"></path>
                            <polygon id="路径" fill="#FFFFFF" fill-rule="evenodd" points="59.7061921 13.7640466 61.5131713 11.9576313 64.0691107 14.5135707 62.2626955 16.3205498"></polygon>
                            <polygon id="路径" fill="url(#linearGradient-4)" fill-rule="evenodd" points="1.80841273 24.362848 19.7061921 6.46506875 26.0988604 12.857737 8.20108109 30.7549524"></polygon>
                            <path d="M8.20051711,32.5636235 L0.000305625,24.363412 L19.7056281,4.65808953 L27.9058396,12.858301 L8.20051711,32.5636235 Z M3.61539195,24.363412 L8.20051711,28.9485372 L24.2907533,12.858301 L19.7056281,8.27317586 L3.61539195,24.363412 Z" id="形状" fill="#2E385D" fill-rule="nonzero"></path>
                            <polygon id="路径" fill="#FFFFFF" fill-rule="evenodd" points="16.2467631 14.5135707 18.8027025 11.9570673 20.6091177 13.7640466 18.0531784 16.3199859"></polygon>
                            <path d="M25.497662,53.4984138 C25.9768646,53.9781574 26.6271277,54.2477201 27.3052052,54.2477201 C27.9832827,54.2477201 28.6335457,53.9781574 29.1127484,53.4984138 L31.825473,50.7856891 C32.8970275,49.7141347 32.6206792,47.965809 31.3742922,46.719422 C30.1279052,45.4730349 28.3739397,45.1966866 27.308025,46.2682411 C28.3795795,45.1966866 28.1032312,43.4483609 26.8568442,42.2019739 C25.6104573,40.9555869 23.8564917,40.6792386 22.790577,41.7507931 C23.8621315,40.6792387 23.5857832,38.930913 22.3393962,37.6845259 C21.0930091,36.4381389 19.3390437,36.1617906 18.273129,37.2333451 C19.3446834,36.1617906 19.0683352,34.4134649 17.8219482,33.1670779 C16.5755612,31.9206909 14.8215957,31.6443426 13.755681,32.7158971 L11.0429563,35.4286218 C10.5632128,35.9078245 10.2936501,36.5580875 10.2936501,37.236165 C10.2936501,37.9142424 10.5632128,38.5645055 11.0429563,39.0437081 L25.497662,53.4984138 Z" id="路径" fill="#FFFFFF" fill-rule="evenodd"></path>
                            <path d="M27.308025,55.5287275 C26.2892842,55.5308637 25.3121913,55.124588 24.5953003,54.4007755 L10.1293152,39.94043 C8.63349159,38.4412514 8.63349159,36.0141592 10.1293152,34.5149806 L12.8420398,31.8022559 C14.3873341,30.2569616 16.9139468,30.4487134 18.7186701,32.2534367 C19.5589896,33.0556728 20.0850272,34.1317497 20.201927,35.2876278 C22.5612135,35.5817273 24.4196358,37.4401496 24.7137353,39.799436 C27.0730217,40.0935356 28.931444,41.9519579 29.2255435,44.3112443 L29.4172954,44.3112443 C30.4917387,44.4765526 31.4823181,44.9896727 32.2371755,45.7719422 C34.0418988,47.5766655 34.2336507,50.1032781 32.6883563,51.6485724 L29.9756316,54.3612971 C29.275916,55.0880634 28.3166656,55.5078622 27.308025,55.5287275 Z M15.379932,33.3249912 C15.1083891,33.3178879 14.8456778,33.4217505 14.6524029,33.612619 L11.9396782,36.3253437 C11.4398186,36.8252858 11.4398186,37.6357646 11.9396782,38.1357067 L26.4056634,52.5960522 C26.9117282,53.0809032 27.7099616,53.0809032 28.2160264,52.5960522 L30.9287512,49.8833274 C31.4927272,49.3193514 31.1317826,48.2816355 30.4775703,47.6274234 C30.1172295,47.2435023 29.6424513,46.9863308 29.1240278,46.8942545 C28.7962723,46.835404 28.4602586,46.9383082 28.2216662,47.1706027 L26.4113031,45.3602397 C26.9752791,44.7962637 26.6199742,43.7585477 25.9601223,43.1043355 C25.3002705,42.4501234 24.2681942,42.0666197 23.7042182,42.6531548 L21.8938552,40.8427917 C22.4578312,40.2788157 22.0968866,39.2410998 21.4426743,38.5868876 C20.788462,37.9326754 19.7507462,37.5491717 19.1867702,38.1357067 L17.3764071,36.3253437 C17.6087017,36.0867513 17.7116059,35.7507376 17.6527554,35.422982 C17.5622192,34.9052671 17.3070724,34.4305754 16.9252263,34.0694395 C16.5225544,33.6351411 15.9705293,33.369202 15.379932,33.3249912 Z M29.0337917,6.09002469 L30.8402069,4.28360945 L33.3967102,6.83954883 L31.590295,8.64596406 L29.0337917,6.09002469 Z M35.1100695,1.75586891 L37.5334745,0.948255234 L38.8120081,4.78442016 L36.3880391,5.59203383 L35.1100695,1.75586891 Z M41.5004819,4.7821643 L42.7784516,0.945435313 L45.2024205,1.75304898 L43.9238869,5.58921398 L41.5004819,4.7821643 Z M46.9270592,6.84180469 L49.4829986,4.28530141 L51.2894138,6.09171664 L48.7334745,8.64821992 L46.9270592,6.84180469 Z" id="形状" fill="#2E385D" fill-rule="nonzero"></path>
                        </g>
                    </g>
                </g>
            </g>
        </g>
    </g>
</svg>