<?xml version="1.0" encoding="UTF-8"?>
<svg width="80px" height="80px" viewBox="0 0 80 80" version="1.1" xmlns="http://www.w3.org/2000/svg" xmlns:xlink="http://www.w3.org/1999/xlink">
    <!-- Generator: Sketch 52.5 (67469) - http://www.bohemiancoding.com/sketch -->
    <title>ic_ydmp</title>
    <desc>Created with Sketch.</desc>
    <defs>
        <linearGradient x1="81.5731746%" y1="32.4969021%" x2="0%" y2="100%" id="linearGradient-1">
            <stop stop-color="#9B7EFF" offset="0%"></stop>
            <stop stop-color="#6248FF" offset="100%"></stop>
        </linearGradient>
    </defs>
    <g id="组件" stroke="none" stroke-width="1" fill="none" fill-rule="evenodd">
        <g id="ic_ydmp">
            <g>
                <rect id="矩形" fill="#000000" opacity="0" x="0" y="0" width="80" height="80"></rect>
                <path d="M42.9140625,54.90625 C41.6640625,54.90625 40.578125,54.0625 40.265625,52.859375 C39.953125,51.65625 40.4921875,50.3828125 41.578125,49.78125 L56.3828125,41.515625 C56.7890625,41.2890625 57.25,41.171875 57.71875,41.171875 C58.1875,41.171875 58.6484375,41.2890625 59.0546875,41.515625 L62.953125,43.6875 L70.4453125,39.359375 C71.0078125,39.0390625 71.1953125,38.3125 70.875,37.7578125 L67.9140625,32.625 C64.390625,33.3359375 60.640625,31.7734375 58.75,28.4921875 C56.859375,25.2109375 57.375,21.1875 59.75,18.484375 L56.7890625,13.359375 C56.46875,12.796875 55.7421875,12.609375 55.1875,12.9296875 L9.7734375,39.1484375 C9.2109375,39.46875 9.0234375,40.1953125 9.34375,40.75 L12.3046875,45.8828125 C15.828125,45.171875 19.578125,46.734375 21.46875,50.015625 C23.359375,53.296875 22.84375,57.3203125 20.46875,60.0234375 L23.4296875,65.15625 C23.75,65.71875 24.4765625,65.90625 25.03125,65.5859375 L43.515625,54.90625 L42.9140625,54.90625 Z M27.953125,35.421875 L48.96875,23.2890625 L52.8828125,30.0703125 L31.8671875,42.203125 L27.953125,35.421875 Z" id="形状" fill="#FFFFFF" fill-rule="nonzero"></path>
                <polyline id="路径" fill="url(#linearGradient-1)" points="44.8203125 34.7265625 31.8671875 42.203125 27.953125 35.421875 48.96875 23.2890625 52.8828125 30.0703125 49.078125 32.265625"></polyline>
                <polygon id="形状" fill="#6248FF" fill-rule="nonzero" points="50.4453125 47.9609375 42.9140625 52.1640625 72.5234375 52.1640625 57.71875 43.90625 54.6640625 45.609375"></polygon>
                <path d="M48.0625,32.8515625 C48.3828125,33.4140625 49.1015625,33.609375 49.6640625,33.28125 L53.46875,31.0859375 C54.03125,30.765625 54.2265625,30.046875 53.8984375,29.484375 L49.984375,22.703125 C49.6640625,22.140625 48.9453125,21.9453125 48.3828125,22.2734375 L27.3671875,34.40625 C27.09375,34.5625 26.8984375,34.8203125 26.8203125,35.1171875 C26.7421875,35.4140625 26.78125,35.734375 26.9375,36.0078125 L30.8515625,42.7890625 C31.0703125,43.1640625 31.4609375,43.375 31.8671875,43.375 C32.0625,43.375 32.265625,43.3203125 32.453125,43.21875 L45.40625,35.7421875 C45.96875,35.421875 46.1640625,34.703125 45.8359375,34.140625 C45.515625,33.578125 44.796875,33.3828125 44.234375,33.7109375 L32.296875,40.6015625 L29.5546875,35.859375 L48.53125,24.8984375 L51.2734375,29.640625 L48.4921875,31.25 C47.9296875,31.578125 47.734375,32.296875 48.0625,32.8515625 Z M74.265625,35.796875 L70.15625,28.6796875 C70,28.40625 69.7421875,28.2109375 69.4453125,28.1328125 C69.140625,28.0546875 68.8203125,28.09375 68.5546875,28.25 C67.46875,28.875 66.203125,29.046875 64.9921875,28.71875 C63.78125,28.390625 62.765625,27.6171875 62.140625,26.53125 C60.84375,24.2890625 61.6171875,21.4140625 63.859375,20.1171875 C64.1328125,19.9609375 64.328125,19.703125 64.40625,19.40625 C64.484375,19.109375 64.4453125,18.7890625 64.2890625,18.515625 L60.1796875,11.3984375 C59.5,10.21875 58.40625,9.3828125 57.09375,9.03125 C55.78125,8.6796875 54.40625,8.859375 53.234375,9.5390625 L47.34375,12.9296875 C46.78125,13.25 46.5859375,13.96875 46.9140625,14.53125 C47.234375,15.09375 47.953125,15.2890625 48.515625,14.9609375 L54.3984375,11.5703125 C55.03125,11.203125 55.7734375,11.109375 56.4765625,11.296875 C57.1796875,11.484375 57.7734375,11.9375 58.140625,12.5703125 L61.7109375,18.7578125 C59.109375,20.90625 58.359375,24.6875 60.1015625,27.7109375 C61.0390625,29.34375 62.5625,30.5078125 64.375,30.9921875 C65.8046875,31.375 67.2890625,31.3046875 68.65625,30.7890625 L72.2265625,36.9765625 C72.59375,37.609375 72.6875,38.3515625 72.5,39.0546875 C72.3125,39.7578125 71.859375,40.3515625 71.2265625,40.71875 L67.0546875,43.125 C66.4921875,43.4453125 66.296875,44.1640625 66.625,44.7265625 C66.84375,45.1015625 67.234375,45.3125 67.640625,45.3125 C67.8359375,45.3125 68.0390625,45.2578125 68.2265625,45.15625 L72.40625,42.7421875 C73.5859375,42.0625 74.421875,40.96875 74.7734375,39.65625 C75.125,38.3515625 74.9453125,36.9765625 74.265625,35.796875 Z" id="形状" fill="#2E385D" fill-rule="nonzero"></path>
                <path d="M42.328125,57.40625 L35.3125,61.4609375 L34.328125,59.765625 C34.0078125,59.203125 33.2890625,59.0078125 32.7265625,59.3359375 C32.1640625,59.65625 31.96875,60.375 32.296875,60.9375 L33.2734375,62.6328125 L25.8203125,66.9375 C25.1875,67.3046875 24.453125,67.3984375 23.7421875,67.2109375 C23.0390625,67.0234375 22.4453125,66.5703125 22.078125,65.9375 L18.5078125,59.75 C21.109375,57.6015625 21.859375,53.8203125 20.1171875,50.796875 C19.1796875,49.1640625 17.65625,48 15.84375,47.515625 C14.40625,47.1328125 12.9296875,47.203125 11.5625,47.71875 L7.9921875,41.53125 C7.625,40.8984375 7.53125,40.15625 7.71875,39.453125 C7.90625,38.75 8.359375,38.15625 8.9921875,37.7890625 L16.4453125,33.484375 L17.421875,35.1796875 C17.640625,35.5546875 18.03125,35.765625 18.4375,35.765625 C18.6328125,35.765625 18.8359375,35.7109375 19.0234375,35.609375 C19.5859375,35.2890625 19.78125,34.5703125 19.453125,34.0078125 L18.4765625,32.3125 L48.5078125,15.0048828 C49.0703125,14.6845703 47.6733398,15.0839844 47.3452148,14.5214844 C47.0249023,13.9589844 47.9077148,12.671875 47.3452148,13 L7.8125,35.7578125 C6.6328125,36.4375 5.796875,37.53125 5.4453125,38.84375 C5.09375,40.15625 5.2734375,41.53125 5.953125,42.703125 L10.0625,49.8203125 C10.21875,50.09375 10.4765625,50.2890625 10.7734375,50.3671875 C11.078125,50.4453125 11.3984375,50.40625 11.6640625,50.25 C12.75,49.625 14.015625,49.453125 15.2265625,49.78125 C16.4375,50.109375 17.453125,50.8828125 18.078125,51.96875 C19.375,54.2109375 18.6015625,57.0859375 16.359375,58.3828125 C16.0859375,58.5390625 15.890625,58.796875 15.8125,59.09375 C15.734375,59.390625 15.7734375,59.7109375 15.9296875,59.984375 L20.0390625,67.1015625 C20.71875,68.28125 21.8125,69.1171875 23.125,69.46875 C23.5625,69.5859375 24.0078125,69.640625 24.453125,69.640625 C25.3359375,69.640625 26.203125,69.40625 26.9921875,68.953125 L43.5,59.421875 C44.0625,59.1171875 44.25,58.3984375 43.9296875,57.8359375 C43.609375,57.2734375 42.890625,57.078125 42.328125,57.40625 Z" id="路径" fill="#2E385D"></path>
                <path d="M26.7734375,49.03125 C26.2109375,49.3515625 26.015625,50.0703125 26.34375,50.6328125 L29.3203125,55.78125 C29.5390625,56.15625 29.9296875,56.3671875 30.3359375,56.3671875 C30.53125,56.3671875 30.734375,56.3125 30.921875,56.2109375 C31.484375,55.890625 31.6796875,55.171875 31.3515625,54.609375 L28.375,49.4609375 C28.0546875,48.8984375 27.3359375,48.703125 26.7734375,49.03125 Z M20.3984375,40.328125 L23.375,45.4765625 C23.59375,45.8515625 23.984375,46.0625 24.390625,46.0625 C24.5859375,46.0625 24.7890625,46.0078125 24.9765625,45.90625 C25.5390625,45.5859375 25.734375,44.8671875 25.40625,44.3046875 L22.4296875,39.15625 C22.1015625,38.59375 21.390625,38.40625 20.828125,38.7265625 C20.265625,39.046875 20.0703125,39.765625 20.3984375,40.328125 Z M44.1015625,41.46875 L34.609375,46.9453125 C34.046875,47.265625 33.8515625,47.984375 34.1796875,48.546875 C34.3984375,48.921875 34.7890625,49.1328125 35.1953125,49.1328125 C35.390625,49.1328125 35.59375,49.078125 35.78125,48.9765625 L45.2734375,43.5 C45.8359375,43.1796875 46.03125,42.4609375 45.703125,41.8984375 C45.375,41.3359375 44.6640625,41.140625 44.1015625,41.46875 Z M54.5859375,64.296875 L53.0234375,64.296875 L53.0234375,59.9921875 C53.0234375,59.34375 52.5,58.8203125 51.8515625,58.8203125 C51.203125,58.8203125 50.6796875,59.34375 50.6796875,59.9921875 L50.6796875,64.296875 L49.1171875,64.296875 L49.1171875,53.34375 L50.6796875,53.34375 L50.6796875,55.0546875 C50.6796875,55.703125 51.203125,56.2265625 51.8515625,56.2265625 C52.5,56.2265625 53.0234375,55.703125 53.0234375,55.0546875 L53.0234375,53.34375 L54.5859375,53.34375 L54.5859375,64.296875 Z M72.9765625,68.2109375 L71.0234375,68.2109375 L71.0234375,65.46875 C71.0234375,64.8203125 70.5,64.296875 69.8515625,64.296875 L68.6796875,64.296875 L68.6796875,53.34375 L72.53125,53.34375 C73.0625,53.34375 73.53125,52.984375 73.6640625,52.46875 C73.796875,51.953125 73.5703125,51.40625 73.1015625,51.1484375 L58.2890625,42.8828125 C57.9375,42.6875 57.5,42.6875 57.1484375,42.8828125 L54.1015625,44.5859375 C53.5390625,44.8984375 53.3359375,45.6171875 53.6484375,46.1796875 C53.9609375,46.7421875 54.6796875,46.9453125 55.2421875,46.6328125 L57.71875,45.25 L68.015625,50.9921875 L47.421875,50.9921875 L55.2421875,46.6328125 C55.8046875,46.3203125 54.6640625,44.2734375 54.1015625,44.5859375 L42.34375,51.140625 C41.875,51.3984375 41.6484375,51.9453125 41.78125,52.4609375 C41.9140625,52.9765625 42.3828125,53.3359375 42.9140625,53.3359375 L46.765625,53.3359375 L46.765625,64.296875 L45.59375,64.296875 C44.9453125,64.296875 44.421875,64.8203125 44.421875,65.46875 L44.421875,68.2109375 L42.46875,68.2109375 C41.8203125,68.2109375 41.296875,68.734375 41.296875,69.3828125 C41.296875,70.03125 41.8203125,70.5546875 42.46875,70.5546875 L54.515625,70.5546875 C54.515625,70.546875 54.515625,68.203125 54.515625,68.2109375 L46.7734375,68.2109375 L46.7734375,66.6484375 L59.6875,66.6484375 C60.3359375,66.6484375 60.859375,66.125 60.859375,65.4765625 L60.859375,53.34375 L62.421875,53.34375 L62.421875,57.6953125 C62.421875,58.34375 62.9453125,58.8671875 63.59375,58.8671875 C64.2421875,58.8671875 64.765625,58.34375 64.765625,57.6953125 L64.765625,53.34375 L66.328125,53.34375 L66.328125,64.296875 L64.765625,64.296875 L64.765625,57.4375 C64.765625,57.4375 62.421875,57.4375 62.421875,57.4375 L62.421875,65.46875 C62.421875,66.1171875 62.9453125,66.640625 63.59375,66.640625 L68.671875,66.640625 L68.671875,68.203125 L54.1953125,68.203125 C54.1953125,68.203125 54.1953125,70.546875 54.1953125,70.546875 L72.9765625,70.546875 C73.625,70.546875 74.1484375,70.0234375 74.1484375,69.375 C74.1484375,68.7265625 73.625,68.2109375 72.9765625,68.2109375 Z M58.5,64.296875 L56.9375,64.296875 L56.9375,53.34375 L58.5,53.34375 L58.5,64.296875 Z" id="形状" fill="#2E385D" fill-rule="nonzero"></path>
            </g>
        </g>
    </g>
</svg>