<?xml version="1.0" encoding="UTF-8"?>
<svg width="20px" height="20px" viewBox="0 0 20 20" version="1.1" xmlns="http://www.w3.org/2000/svg" xmlns:xlink="http://www.w3.org/1999/xlink">
    <!-- Generator: Sketch 52.5 (67469) - http://www.bohemiancoding.com/sketch -->
    <title>ic_ythm</title>
    <desc>Created with Sketch.</desc>
    <g id="组件" stroke="none" stroke-width="1" fill="none" fill-rule="evenodd">
        <g id="ic_ythm">
            <g>
                <rect id="矩形" fill="#000000" opacity="0" x="0" y="0" width="20" height="20"></rect>
                <g id="分组-7" transform="translate(0.000000, 1.250000)" fill="#868E96">
                    <path d="M16.0228571,9.22285714 L12.0342857,5.23428571 C12.0342857,5.23428571 11.8857143,5.15428571 11.7828571,5.23428571 C11.2457143,5.78285714 10.8114286,6.21714286 10.4571429,6.52571429 C10.1028571,6.83428571 9.61142857,7.02857143 9.2,7.07428571 C8.78857143,7.10857143 8.22857143,7.18857143 7.64571429,6.57142857 C7.6,6.52571429 7.57714286,6.45714286 7.57714286,6.38857143 C7.57714286,6.32 7.6,6.26285714 7.64571429,6.21714286 L10.3314286,3.54285714 C10.1028571,3.32571429 9.95428571,3.17714286 9.88571429,3.12 C9.24571429,2.56 8.48,2.19428571 7.87428571,1.88571429 L7.76,1.82857143 C7.66857143,1.77142857 7.56571429,1.72571429 7.46285714,1.68 L7.36,1.63428571 L7.34857143,1.62285714 C7.01714286,1.45142857 6.54857143,1.21142857 6.10285714,1.21142857 C5.78285714,1.21142857 5.50857143,1.33714286 5.25714286,1.57714286 L1.54285714,5.31428571 C0.857142857,6 0.891428571,6.57142857 0.925714286,6.90285714 C0.937142857,6.96 0.937142857,7.00571429 0.937142857,7.02857143 C0.96,7.30285714 1.22285714,7.65714286 1.65714286,8.17142857 C1.73714286,8.26285714 1.82857143,8.36571429 1.89714286,8.45714286 C2.14857143,8.76571429 2.33142857,9.07428571 2.51428571,9.37142857 L2.59428571,9.50857143 C2.90285714,10.0114286 3.25714286,10.5942857 3.97714286,11.3028571 L8.62857143,15.9771429 C8.94857143,16.2971429 9.37142857,16.5142857 9.80571429,16.5714286 C9.86285714,16.5828571 9.94285714,16.5828571 10.0114286,16.5828571 C10.3657143,16.5828571 10.6857143,16.4571429 10.9028571,16.2285714 L11.0057143,16.1257143 C11.4171429,15.7142857 10.8457143,15.1085714 10.8457143,15.1085714 L8.94857143,13.2114286 C8.90285714,13.1657143 8.86857143,13.0971429 8.86857143,13.0285714 C8.86857143,12.96 8.89142857,12.8914286 8.94857143,12.8457143 C8.99428571,12.8 9.06285714,12.7657143 9.13142857,12.7657143 C9.2,12.7657143 9.26857143,12.7885714 9.31428571,12.8457143 L11.2114286,14.7428571 C11.2114286,14.7428571 11.8971429,15.3485714 12.4342857,15.0057143 C12.5485714,14.9028571 12.6628571,14.8 12.7885714,14.6857143 C13.2228571,14.1942857 12.7085714,13.5657143 12.7085714,13.5657143 L10.6514286,11.5085714 C10.6057143,11.4628571 10.5714286,11.3942857 10.5714286,11.3257143 C10.5714286,11.2571429 10.5942857,11.1885714 10.6514286,11.1428571 C10.6971429,11.0971429 10.7657143,11.0628571 10.8342857,11.0628571 C10.9028571,11.0628571 10.9714286,11.0857143 11.0171429,11.1428571 L13.1885714,13.3028571 C13.1885714,13.3028571 13.7142857,13.8628571 14.2057143,13.6114286 L14.3428571,13.4971429 L14.7542857,13.1314286 C14.7542857,13.1314286 14.7771429,13.0971429 14.8,13.0742857 C15.2114286,12.5257143 14.7314286,11.9314286 14.7314286,11.9314286 L12.4685714,9.66857143 C12.4228571,9.62285714 12.3885714,9.55428571 12.3885714,9.48571429 C12.3885714,9.41714286 12.4114286,9.34857143 12.4685714,9.30285714 C12.5142857,9.25714286 12.5828571,9.22285714 12.6514286,9.22285714 C12.72,9.22285714 12.7885714,9.24571429 12.8342857,9.30285714 L14.64,11.1085714 C14.64,11.1085714 15.3371429,11.7714286 16.0914286,11.2914286 C16.2742857,11.1085714 16.4228571,10.96 16.48,10.6628571 C16.6171429,10.1142857 16.4228571,9.62285714 16.0228571,9.22285714 Z" id="路径"></path>
                    <path d="M18.5485714,5.33714286 L14.2628571,1.05142857 C13.2914286,0.08 12.2285714,-0.0114285714 11.4285714,0.788571429 L9.77142857,2.44571429 L6.83428571,5.38285714 C6.60571429,5.6 6.60571429,5.96571429 6.82285714,6.19428571 C7.53142857,6.82285714 8.4,7.04 8.4,7.04 C8.16,6.97142857 7.90857143,6.83428571 7.65714286,6.57142857 C7.61142857,6.52571429 7.58857143,6.45714286 7.58857143,6.38857143 C7.58857143,6.32 7.61142857,6.26285714 7.65714286,6.21714286 L8.11428571,5.76 L10.5828571,3.29142857 L12.2628571,1.61142857 C12.4685714,1.40571429 12.6171429,1.40571429 12.72,1.41714286 C12.8571429,1.44 13.0971429,1.53142857 13.44,1.87428571 L17.7257143,6.16 C18.1257143,6.56 18.4914286,7.13142857 18.0228571,7.6 L17.1428571,8.48 C17.0331406,8.58879882 16.9714248,8.73691355 16.9714248,8.89142857 C16.9714248,9.0459436 17.0331406,9.19405833 17.1428571,9.30285714 C17.2571429,9.41714286 17.4057143,9.47428571 17.5542857,9.47428571 C17.7028571,9.47428571 17.8514286,9.41714286 17.9657143,9.30285714 L18.8457143,8.42285714 C19.7028571,7.56571429 19.5885714,6.37714286 18.5485714,5.33714286 Z" id="路径"></path>
                </g>
            </g>
        </g>
    </g>
</svg>