<?xml version="1.0" encoding="UTF-8"?>
<svg width="20px" height="20px" viewBox="0 0 20 20" version="1.1" xmlns="http://www.w3.org/2000/svg" xmlns:xlink="http://www.w3.org/1999/xlink">
    <!-- Generator: Sketch 52.5 (67469) - http://www.bohemiancoding.com/sketch -->
    <title>ic_area</title>
    <desc>Created with Sketch.</desc>
    <defs>
        <linearGradient x1="100%" y1="100%" x2="0%" y2="0%" id="linearGradient-1">
            <stop stop-color="#2853FF" offset="0%"></stop>
            <stop stop-color="#933EFE" offset="100%"></stop>
        </linearGradient>
    </defs>
    <g id="Symbols" stroke="none" stroke-width="1" fill="none" fill-rule="evenodd">
        <g id="ic_area">
            <g>
                <rect id="矩形" fill="#000000" opacity="0" x="0" y="0" width="20" height="20"></rect>
                <path d="M9.99984121,0 C9.45127849,0 8.9138267,0.0460310216 8.38907314,0.130791562 C8.61922822,0.217456844 8.90652525,0.264122789 9.29826507,0.245392924 C10.6461802,0.181266961 11.481405,0.438088275 10.5176108,0.823796438 C9.55381654,1.2095046 9.73317879,1.6190219 10.1830129,1.6510849 C10.632847,1.68314789 11.6814018,1.20315551 12.0293328,1.62537102 C12.3883748,2.06123712 11.6264821,2.77614639 12.0807606,3.5485151 C12.7566229,4.69802066 10.4449135,4.96119109 9.86079582,5.82308218 C9.29731269,6.65449755 8.97953997,7.54495962 9.62206945,8.73859145 C10.2645989,9.93222329 10.4157076,9.21128236 11.545531,9.34207395 C13.7727972,9.59984765 13.1061412,11.3436295 15.8502246,11.8896526 C16.9000492,12.0985381 16.1784733,14.3791369 14.3362804,15.478167 C12.560753,16.5371979 13.121379,17.7520992 10.5982445,18.5622451 C9.99190487,18.7568452 9.53064236,18.6451009 9.99984127,17.9705084 C10.9099856,16.6622752 10.8309392,15.2042031 9.99984127,14.5515151 C9.16874336,13.898827 8.23701211,13.756607 8.46177045,12.7515436 C8.6865288,11.7464802 9.55635626,11.3947398 9.61826002,10.491262 C9.67794161,9.6198473 8.29542388,6.65386263 6.56751481,7.2411549 C5.58054635,7.57670512 3.67168776,6.3211695 3.77263853,4.67706862 C3.88977952,2.7669402 5.35293091,2.47424644 5.02436469,1.33807399 C5.02341234,1.33489943 5.02468216,1.33077251 5.02436469,1.32728052 C2.02282503,3.05296742 0,6.28942397 0,10.0001587 C0,15.5229282 4.47707179,20 9.99984127,20 C15.5226107,20 19.9996825,15.5229282 19.9996825,10.0001587 C19.9996825,4.47738925 15.5226107,0 9.99984121,0 Z" id="路径" fill="url(#linearGradient-1)"></path>
            </g>
        </g>
    </g>
</svg>