<?xml version="1.0" encoding="UTF-8"?>
<svg width="20px" height="20px" viewBox="0 0 20 20" version="1.1" xmlns="http://www.w3.org/2000/svg" xmlns:xlink="http://www.w3.org/1999/xlink">
    <!-- Generator: Sketch 64 (93537) - https://sketch.com -->
    <title>ic_ycpf</title>
    <desc>Created with Sketch.</desc>
    <defs>
        <linearGradient x1="100%" y1="100%" x2="0%" y2="0%" id="linearGradient-1">
            <stop stop-color="#2853FF" offset="0%"></stop>
            <stop stop-color="#933EFE" offset="100%"></stop>
        </linearGradient>
    </defs>
    <g id="Symbols" stroke="none" stroke-width="1" fill="none" fill-rule="evenodd">
        <g id="ic_ycpf">
            <g id="ic_syjz">
                <g>
                    <rect id="矩形" fill="#000000" opacity="0" x="0" y="0" width="20" height="20"></rect>
                    <path d="M10.0000229,0 C4.47715912,0 8.27782287e-13,4.47713622 8.27782287e-13,10 C8.27782287e-13,15.5228638 4.4771591,20 10.0000229,20 C15.5228638,20 19.9999771,15.5228409 19.9999771,10 C19.9999771,4.4771591 15.5228638,0 10.0000229,0 Z" id="形状" fill="url(#linearGradient-1)" fill-rule="nonzero"></path>
                    <path d="M10.2858702,10.5896802 L10.2858702,9.7175515 L12.1851425,9.7175515 C12.3456896,9.7175515 12.4758734,9.58739975 12.4758734,9.42683661 C12.4758734,9.26628945 12.3457056,9.13612172 12.1851425,9.1361217 L10.488229,9.1361217 L12.3907151,7.53722177 C12.5042381,7.42369873 12.5042381,7.23963153 12.3907151,7.1261085 C12.2771921,7.01258547 12.0931249,7.01258547 11.9795858,7.1261085 L10,8.7898125 L8.02041416,7.12612448 C7.90689112,7.01260145 7.72282392,7.01260145 7.60928491,7.12612448 C7.49576187,7.23964752 7.49576187,7.42371472 7.60928491,7.53723775 L9.51177102,9.1361377 L7.81485753,9.1361377 C7.65431037,9.1361377 7.52414262,9.26628945 7.52414262,9.42685259 C7.52414262,9.58741573 7.65429437,9.71756748 7.81485753,9.71756748 L9.70445637,9.71756748 L9.70445637,10.5896962 L7.81485753,10.5896962 C7.65431037,10.5896962 7.52414262,10.7198479 7.52414262,10.8804111 C7.52414262,11.0409662 7.65429437,11.171126 7.81485753,11.171126 L9.70445637,11.171126 L9.70445637,12.6246685 C9.70445637,12.7852316 9.83460812,12.9153834 9.99517128,12.9153834 C10.1557344,12.9153834 10.2858862,12.7852316 10.2858862,12.6246685 L10.2858862,11.171126 L12.1851585,11.171126 C12.3457056,11.171126 12.4758734,11.0409662 12.4758734,10.8804111 C12.4758734,10.7198639 12.3457216,10.5896962 12.1851585,10.5896962 L10.2858702,10.5896802 L10.2858702,10.5896802 Z M16.9769816,11.5081934 L16.9769816,14.6294692 C16.9769816,15.2716898 16.4554312,15.7923128 15.811276,15.7923128 L4.18872405,15.7923128 C3.54492055,15.7923128 3.02301839,15.2700749 3.02301839,14.6294692 L3.02301839,11.5081934 C3.89876064,11.5081934 4.6086953,10.8231699 4.6086953,9.97815881 C4.6086953,9.13314773 3.89876062,8.44812417 3.02301839,8.44812417 L3.02301839,5.32684839 C3.02301839,4.68462781 3.54456878,4.16400481 4.18872405,4.16400481 L15.811276,4.16400481 C16.4550795,4.16400481 16.9769816,4.68624273 16.9769816,5.32684839 L16.9769816,8.44812417 C16.1012394,8.44812417 15.3913047,9.13314772 15.3913047,9.97815881 C15.3913047,10.8231699 16.1012394,11.5081935 16.9769816,11.5081934 Z" id="形状" fill="#FFFFFF" fill-rule="nonzero"></path>
                </g>
            </g>
        </g>
    </g>
</svg>