<?xml version="1.0" encoding="UTF-8"?>
<svg width="20px" height="20px" viewBox="0 0 20 20" version="1.1" xmlns="http://www.w3.org/2000/svg" xmlns:xlink="http://www.w3.org/1999/xlink">
    <!-- Generator: Sketch 52.5 (67469) - http://www.bohemiancoding.com/sketch -->
    <title>ic_contact</title>
    <desc>Created with Sketch.</desc>
    <defs>
        <linearGradient x1="100%" y1="100%" x2="0%" y2="0%" id="linearGradient-1">
            <stop stop-color="#2853FF" offset="0%"></stop>
            <stop stop-color="#933EFE" offset="100%"></stop>
        </linearGradient>
    </defs>
    <g id="Symbols" stroke="none" stroke-width="1" fill="none" fill-rule="evenodd">
        <g id="ic_contact" fill="url(#linearGradient-1)" fill-rule="nonzero">
            <g id="形状">
                <path d="M5.36784192,7.77960227 C5.39029261,5.70106251 6.72257827,4.35779142 8.79145225,4.33996797 C10.5223148,4.32505797 12.2539485,4.31057642 13.9837999,4.35033642 C14.6035932,4.3646466 14.723713,4.13229052 14.6446386,3.58797267 C14.4318883,2.11868638 13.1859607,1.02638317 11.5965546,1.01507213 C8.78374018,0.994849372 5.97102856,0.995620579 3.15821411,1.01352972 C1.31194474,1.02544058 0.0698731391,2.24180528 0.023515034,4.07772334 C-0.00853289819,5.34421649 -0.00724755332,6.6126805 0.0238577926,7.87917365 C0.0618183112,9.42986512 0.92810648,10.5126568 2.43955209,10.8510795 C2.91249045,10.9568891 2.98798304,11.0751237 2.80171086,11.5030921 C2.46217416,12.2831079 2.1700067,13.0838435 1.85814775,13.8758559 C1.92111252,13.9257273 1.98435148,13.9756672 2.04723055,14.0253672 C2.93322735,13.474537 3.80431414,12.8975885 4.71156196,12.3839475 C5.19975308,12.1076327 5.40136371,11.7821491 5.37857026,11.2096393 C5.33305191,10.0680646 5.35558829,8.92306221 5.36784192,7.77960227 Z M17.3085244,4.97929852 C14.4341162,4.91854455 11.5567946,4.921458 8.68238645,4.97835593 C7.11191781,5.00937559 6.07709522,6.06551776 6.01488452,7.62957682 C5.95361642,9.17324173 5.95027452,10.7233162 6.01651263,12.266467 C6.08710377,13.9077153 7.19870429,14.8959227 8.87249752,14.9212869 C9.79988242,14.9351686 10.7293924,14.9587333 11.6548921,14.9125465 C12.3685842,14.8768139 12.9617451,15.0670278 13.5583165,15.4581497 C14.9287341,16.3566572 16.3385689,17.1945821 17.9544531,18.1942719 C17.6619428,17.4514454 17.4711462,16.9705379 17.2833317,16.4885164 C17.0942489,16.0036672 16.9080624,15.5176183 16.7060404,14.9940374 C16.8804017,14.9647315 16.9968368,14.9351686 17.1145573,14.9266168 C19.0376046,14.7874739 19.9667719,13.8175184 19.985795,11.8977273 C19.9991625,10.5372497 20.0112448,9.17625801 19.9818532,7.81638027 C19.9452637,6.12575759 18.9560281,5.01408852 17.3085244,4.97929852 Z"></path>
            </g>
        </g>
    </g>
</svg>