<?xml version="1.0" encoding="UTF-8"?>
<svg width="20px" height="20px" viewBox="0 0 20 20" version="1.1" xmlns="http://www.w3.org/2000/svg" xmlns:xlink="http://www.w3.org/1999/xlink">
    <!-- Generator: Sketch 52.5 (67469) - http://www.bohemiancoding.com/sketch -->
    <title>ic_case</title>
    <desc>Created with Sketch.</desc>
    <defs>
        <linearGradient x1="100%" y1="100%" x2="0%" y2="0%" id="linearGradient-1">
            <stop stop-color="#2853FF" offset="0%"></stop>
            <stop stop-color="#933EFE" offset="100%"></stop>
        </linearGradient>
    </defs>
    <g id="Symbols" stroke="none" stroke-width="1" fill="none" fill-rule="evenodd">
        <g id="ic_case" fill="url(#linearGradient-1)" fill-rule="nonzero">
            <g id="形状">
                <g>
                    <path d="M9.82269882,19.9465093 C4.42137002,19.9658309 -0.0846107018,15.5259836 0.0114364474,9.95349785 C0.104207237,4.57200684 4.56440849,0.208548421 10.0408022,0.322884934 C15.2501713,0.431633662 19.6386289,4.67238509 19.6391899,10.1378725 C19.6397509,15.5749272 15.2502161,19.9465093 9.82269882,19.9465093 Z M13.054394,13.8551669 C13.0645822,13.8289335 13.0812783,13.7878217 13.096583,13.7461938 C13.5677527,12.4638295 14.0397526,11.181757 14.5078928,9.89827072 C14.5421376,9.80437789 14.58969,9.76073029 14.6892155,9.73467638 C15.2312536,9.59278241 15.554762,9.0567809 15.4281503,8.52713018 C15.3094827,8.03069202 14.8274516,7.69607539 14.3155965,7.75482572 C13.8402977,7.80937961 13.455391,8.24123279 13.4450457,8.73201581 C13.4400638,8.9681841 13.5139169,9.17906149 13.6623861,9.37030305 C13.2082042,9.90403803 12.7581739,10.4329033 12.2939609,10.9784198 C12.1290874,9.99467691 11.9693305,9.04152105 11.8088778,8.08428094 C11.8446487,8.06962702 11.871892,8.05869829 11.8989333,8.04736561 C12.4099131,7.83336895 12.64947,7.32036939 12.4884564,6.78501868 C12.3330305,6.26827149 11.792294,5.93538281 11.2744696,6.0396209 C10.8567094,6.12370704 10.5724502,6.37044502 10.4474318,6.77429191 C10.3183067,7.19140138 10.4194031,7.56598531 10.7306138,7.87452559 C10.7936055,7.93697868 10.8056114,7.98497982 10.7782783,8.0672707 C10.4831129,8.95624553 10.192054,9.84658923 9.8993795,10.7363944 C9.88943816,10.7666223 9.87455982,10.7952345 9.85209647,10.8477238 C9.51651487,9.86974827 9.18896713,8.91517862 8.86224969,7.96301015 C9.35931618,7.65350491 9.42500079,7.07416998 9.27036037,6.69898015 C9.08313572,6.24473094 8.61488338,5.96556583 8.13956215,6.02887169 C7.65663344,6.09316493 7.26907866,6.48112366 7.21551217,6.96093309 C7.18826888,7.20504548 7.2312657,7.43775787 7.35991952,7.65047542 C7.50161151,7.88471379 7.69810425,8.04467272 7.98866936,8.08894866 C7.79020182,9.05222539 7.59393349,10.0047978 7.3952191,10.9692414 C7.36918763,10.9462844 7.35399513,10.9355801 7.34205656,10.9220033 C6.90030693,10.4193939 6.45952228,9.91590928 6.01631401,9.41457901 C5.97262154,9.3651641 5.98092467,9.33026846 6.00801088,9.27703857 C6.07198996,9.15136939 6.1522836,9.02599195 6.1797064,8.89107711 C6.30508386,8.27433316 5.724582,7.61347035 5.00977121,7.7518411 C4.55015862,7.84081936 4.18192546,8.28198553 4.18434908,8.75277368 C4.18686246,9.24304059 4.55190899,9.68090792 5.02173221,9.74515629 C5.10007349,9.75586061 5.12617228,9.78866925 5.14944353,9.85390502 C5.40163465,10.56048 5.65640647,11.2661573 5.91028066,11.9721264 C6.12755371,12.5763483 6.34484919,13.1805702 6.56120215,13.7851288 C6.58106237,13.8406252 6.59569386,13.8827019 6.67486544,13.8731196 C6.95672346,13.8390319 7.2400177,13.8170846 7.52210013,13.7845902 C8.57074213,13.663858 9.62205461,13.5949868 10.6769576,13.6635887 C11.4631753,13.7147316 12.2478896,13.7893028 13.054394,13.8551669 Z"></path>
                </g>
            </g>
        </g>
    </g>
</svg>