<?xml version="1.0" encoding="UTF-8"?>
<svg width="20px" height="21px" viewBox="0 0 20 21" version="1.1" xmlns="http://www.w3.org/2000/svg" xmlns:xlink="http://www.w3.org/1999/xlink">
    <!-- Generator: Sketch 52.5 (67469) - http://www.bohemiancoding.com/sketch -->
    <title>ic_content_validity</title>
    <desc>Created with Sketch.</desc>
    <defs>
        <linearGradient x1="100%" y1="100%" x2="0%" y2="0%" id="linearGradient-1">
            <stop stop-color="#2853FF" offset="0%"></stop>
            <stop stop-color="#933EFE" offset="100%"></stop>
        </linearGradient>
        <path d="M14.0041398,6.46389144 L15.6370745,6.46389144 L12.7736891,3.75 L12.7736891,5.31393744 C12.7736891,5.91191352 13.3946642,6.46389144 14.0041398,6.46389144 Z M13.9926403,7.26885925 C12.9921803,7.26885925 11.9457222,6.29139834 11.9457222,5.31393744 L11.9457222,3.75 L6.10395584,3.75 C5.49448022,3.75 5,4.23298068 5,4.81945722 L5,15.1805428 C5,15.7785189 5.49448022,16.25 6.10395584,16.25 L14.5331187,16.25 C15.1425943,16.25 15.6370745,15.7670193 15.6370745,15.1805428 L15.6370745,7.26885925 L13.9926403,7.26885925 Z M7.03541858,6.87787489 L9.93330267,6.87787489 C10.1517939,6.87787489 10.324287,7.05036799 10.324287,7.26885925 C10.324287,7.48735051 10.1517939,7.65984361 9.93330267,7.65984361 L7.03541858,7.65984361 C6.81692732,7.65984361 6.64443422,7.48735051 6.64443422,7.26885925 C6.64443422,7.05036799 6.81692732,6.87787489 7.03541858,6.87787489 Z M13.6016559,14.6975621 L7.03541858,14.6975621 C6.81692732,14.6975621 6.64443422,14.525069 6.64443422,14.3065777 C6.64443422,14.0880865 6.81692732,13.9155934 7.03541858,13.9155934 L13.6131555,13.9155934 C13.8316467,13.9155934 14.0041398,14.0880865 14.0041398,14.3065777 C14.0041398,14.525069 13.8201472,14.6975621 13.6016559,14.6975621 Z M13.6016559,12.3516559 L7.03541858,12.3516559 C6.81692732,12.3516559 6.64443422,12.1791628 6.64443422,11.9606716 C6.64443422,11.7421803 6.81692732,11.5696872 7.03541858,11.5696872 L13.6131555,11.5696872 C13.8316467,11.5696872 14.0041398,11.7421803 14.0041398,11.9606716 C13.9926403,12.1791628 13.8201472,12.3516559 13.6016559,12.3516559 Z M13.6016559,10.0057498 L7.03541858,10.0057498 C6.81692732,10.0057498 6.64443422,9.83325667 6.64443422,9.61476541 C6.64443422,9.39627415 6.81692732,9.22378105 7.03541858,9.22378105 L13.6131555,9.22378105 C13.8316467,9.22378105 14.0041398,9.39627415 14.0041398,9.61476541 C13.9926403,9.83325667 13.8201472,10.0057498 13.6016559,10.0057498 Z" id="path-2"></path>
        <filter x="-61.1%" y="-44.0%" width="222.2%" height="204.0%" filterUnits="objectBoundingBox" id="filter-3">
            <feOffset dx="0" dy="1" in="SourceAlpha" result="shadowOffsetOuter1"></feOffset>
            <feGaussianBlur stdDeviation="2" in="shadowOffsetOuter1" result="shadowBlurOuter1"></feGaussianBlur>
            <feColorMatrix values="0 0 0 0 0.563772798   0 0 0 0 0.0729238763   0 0 0 0 0.995067894  0 0 0 1 0" type="matrix" in="shadowBlurOuter1"></feColorMatrix>
        </filter>
    </defs>
    <g id="Symbols" stroke="none" stroke-width="1" fill="none" fill-rule="evenodd">
        <g id="ic_content_validity">
            <g>
                <g>
                    <rect id="矩形" fill="#000000" opacity="0" x="0" y="0" width="20" height="20"></rect>
                    <g id="分组-19">
                        <circle id="椭圆形" fill="url(#linearGradient-1)" cx="10" cy="10" r="10"></circle>
                        <g id="形状" fill-rule="nonzero">
                            <use fill="black" fill-opacity="1" filter="url(#filter-3)" xlink:href="#path-2"></use>
                            <use fill="#FFFFFF" xlink:href="#path-2"></use>
                        </g>
                    </g>
                </g>
            </g>
        </g>
    </g>
</svg>