<?xml version="1.0" encoding="UTF-8"?>
<svg width="20px" height="20px" viewBox="0 0 20 20" version="1.1" xmlns="http://www.w3.org/2000/svg" xmlns:xlink="http://www.w3.org/1999/xlink">
    <!-- Generator: Sketch 52.5 (67469) - http://www.bohemiancoding.com/sketch -->
    <title>ic_computer</title>
    <desc>Created with Sketch.</desc>
    <defs>
        <linearGradient x1="0%" y1="50%" x2="101.734617%" y2="59.7295168%" id="linearGradient-1">
            <stop stop-color="#8A54BE" offset="0%"></stop>
            <stop stop-color="#C560EF" offset="100%"></stop>
        </linearGradient>
    </defs>
    <g id="Symbols" stroke="none" stroke-width="1" fill="none" fill-rule="evenodd">
        <g id="ic_computer">
            <g>
                <rect id="矩形" fill="#000000" opacity="0" x="0" y="0" width="20" height="20"></rect>
                <path d="M10,0 C15.5220565,0 20,4.47829613 20,10.0003526 C20,15.5220565 15.5220565,20 10,20 C4.47829613,20.0003526 0,15.5224091 0,10.0003526 C0,4.47829613 4.47829613,0 10,0 Z M14.6101767,14.8619486 L14.6101767,4.50051131 L12.971896,3.07274588 L7.51965865,5.11019432 L7.51965865,5.61973273 L12.4711732,3.95077402 L12.4711732,15.6095067 L15.7674812,15.6095067 L15.7674812,14.8619486 L14.6101767,14.8619486 Z M5.74526605,11.6700166 L8.34161994,11.1506047 L8.34161994,9.83320992 L5.74526605,10.5158856 L5.74526605,11.6700166 Z M5.74526605,15.6271378 L8.34161994,15.6271378 L8.34161994,14.2448605 L5.74526605,14.4331606 L5.74526605,15.6271378 Z M5.74526605,13.64223 L8.34161994,13.3915159 L8.34161994,12.0762368 L5.74526605,12.5127825 L5.74526605,13.64223 Z M5.74526605,9.65972002 L8.34161994,8.94530836 L8.34161994,7.57678338 L5.74526605,8.45516414 L5.74526605,9.65972002 Z M11.2214817,6.25727283 L9.75528051,5.36655031 L4.23569236,7.35674742 L4.23287139,15.6549949 L4.95997742,15.6549949 L4.95997744,7.75803096 L9.0898833,6.39796889 L9.0898833,15.6130329 L11.2218344,15.6130329 L11.2214817,6.25727283 Z" id="形状" fill="url(#linearGradient-1)" fill-rule="nonzero"></path>
            </g>
        </g>
    </g>
</svg>