<?xml version="1.0" encoding="UTF-8"?>
<svg width="22px" height="22px" viewBox="0 0 22 22" version="1.1" xmlns="http://www.w3.org/2000/svg" xmlns:xlink="http://www.w3.org/1999/xlink">
    <!-- Generator: Sketch 58 (84663) - https://sketch.com -->
    <title>ic_company_pages_pr</title>
    <desc>Created with Sketch.</desc>
    <g id="Symbols" stroke="none" stroke-width="1" fill="none" fill-rule="evenodd">
        <g id="ic_company_pages_pr" fill-rule="nonzero">
            <g id="ic_company_pages">
                <g>
                    <rect id="矩形" fill="#000000" opacity="0" x="0" y="0" width="22" height="22"></rect>
                    <g id="编组-2" transform="translate(1.000000, 1.000000)" fill="#FFFFFF">
                        <path d="M17.097197,8.0881207 C17.1907558,8.12793815 17.2803328,8.16773117 17.3698122,8.20754862 L17.3698122,2.26483111 L14.6274648,1.13686838e-13 L5.50108582,3.23210197 L5.50108582,4.04010304 L13.7891976,1.3930977 L13.7891976,7.57066487 C13.9805168,7.55476233 14.1717382,7.54674997 14.3670147,7.54674997 C15.3150608,7.54677439 16.2305446,7.72981253 17.097197,8.0881207 L17.097197,8.0881207 Z M2.53077745,13.6367432 L6.87632673,12.8127907 L6.87632673,10.7230342 L2.53077745,11.8057268 L2.53077745,13.6367432 Z M2.53077745,19.9137563 L6.87632673,19.9137563 L6.87632673,17.7205477 L2.53077745,18.019032 L2.53077745,19.9137563 Z M2.53077745,16.7652954 L6.87632673,16.3672675 L6.87632673,14.2814927 L2.53077745,14.9740965 L2.53077745,16.7652954 Z M2.53077745,10.4484648 L6.87632673,9.31405838 L6.87632673,7.14476471 L2.53077745,8.53786241 L2.53077745,10.4484648 Z M11.636808,8.0881207 L11.6978533,8.0642058 L11.6978533,5.05109981 L9.24436565,3.6381178 L0.00407945312,6.7944689 L-7.94031507e-13,19.9575799 L1.21658183,19.9575799 L1.21658181,7.43132822 L8.12952594,5.27004691 L8.12952594,11.2643805 C8.4590825,10.6355091 8.89038118,10.0623577 9.40715304,9.5568227 C10.0499972,8.92795129 10.798663,8.4304042 11.636808,8.0881207 L11.636808,8.0881207 Z" id="形状"></path>
                        <path d="M14.3670147,8.93984767 C17.4552853,8.93984767 19.9575799,11.387839 19.9575799,14.4089574 C19.9575799,17.429978 17.4552853,19.877945 14.3670147,19.877945 C11.2787441,19.877945 8.77644954,17.429978 8.77644954,14.4089574 C8.77644954,11.387839 11.2787441,8.93984767 14.3670147,8.93984767 Z M14.3388656,12.2232585 C12.9470832,12.2232585 11.7289119,12.965446 11.0612325,14.0772804 L11.0612325,14.0772804 L11.0322438,14.1284261 C11.016383,14.1646486 11.0077025,14.2048364 11.0077025,14.2472747 C11.0077025,14.3015281 11.02217,14.3528881 11.0460416,14.398461 L11.0460416,14.398461 L11.1625274,14.5817255 C11.8510604,15.6000883 13.0168894,16.2698441 14.3388656,16.2698441 C15.7306481,16.2698441 16.9488194,15.52838 17.6193923,14.4187156 C17.6541145,14.3702492 17.6743691,14.3109321 17.6743691,14.2472747 C17.6743691,14.1901277 17.6577314,14.1358742 17.6295196,14.0910247 C16.9603934,12.9726797 15.7371585,12.2232585 14.3388656,12.2232585 Z M14.3294617,13.1947573 C14.5334548,13.1947573 14.724427,13.2526277 14.8857406,13.3531774 C14.9826735,13.4016439 15.0492244,13.5021936 15.0492244,13.6179344 C15.0492244,13.7814182 14.916846,13.9137966 14.7533622,13.9137966 C14.6853645,13.9137966 14.6224305,13.8906485 14.5725173,13.8523094 C14.5016261,13.8089066 14.4184374,13.7835883 14.3294617,13.7835883 C14.0719386,13.7835883 13.8628819,13.992645 13.8628819,14.2501682 C13.8628819,14.5076913 14.0719386,14.716748 14.3294617,14.716748 C14.5276677,14.716748 14.6969386,14.5930501 14.7642129,14.4187156 L14.7642129,14.4187156 C14.8061689,14.305145 14.9153992,14.2234031 15.0434374,14.2234031 C15.2069212,14.2234031 15.3392997,14.3557816 15.3392997,14.5192654 C15.3392997,14.5778591 15.3219386,14.632836 15.2930034,14.6784089 L15.2930034,14.6784089 C15.1295196,15.0480559 14.7598726,15.3055791 14.3294617,15.3055791 C13.7464177,15.3055791 13.2740508,14.8332122 13.2740508,14.2501682 C13.2740508,13.6671242 13.7464177,13.1947573 14.3294617,13.1947573 Z" id="形状结合"></path>
                    </g>
                </g>
            </g>
        </g>
    </g>
</svg>