<?xml version="1.0" encoding="UTF-8"?>
<svg width="20px" height="20px" viewBox="0 0 20 20" version="1.1" xmlns="http://www.w3.org/2000/svg" xmlns:xlink="http://www.w3.org/1999/xlink">
    <!-- Generator: Sketch 52.5 (67469) - http://www.bohemiancoding.com/sketch -->
    <title>ic_cooperate</title>
    <desc>Created with Sketch.</desc>
    <defs>
        <linearGradient x1="100%" y1="100%" x2="0%" y2="0%" id="linearGradient-1">
            <stop stop-color="#2853FF" offset="0%"></stop>
            <stop stop-color="#933EFE" offset="100%"></stop>
        </linearGradient>
    </defs>
    <g id="Symbols" stroke="none" stroke-width="1" fill="none" fill-rule="evenodd">
        <g id="ic_cooperate">
            <g>
                <g>
                    <rect id="矩形" fill="#000000" opacity="0" x="0" y="0" width="20" height="20"></rect>
                    <circle id="椭圆形" fill="url(#linearGradient-1)" cx="10" cy="10" r="10"></circle>
                    <g id="分组-21" transform="translate(4.000000, 4.000000)" fill="#FFFFFF">
                        <path d="M7.88711423,4.40958752 C7.81347118,4.33587867 7.71355027,4.29446393 7.60935673,4.29446393 C7.50516318,4.29446393 7.40524227,4.33587867 7.33159922,4.40958752 L7.28828382,4.45290292 C6.26069084,5.48009669 4.91392125,5.15433295 3.99591423,4.50679766 L3.61465887,4.23792281 C3.51994658,4.17108222 3.45957193,4.06583958 3.44968073,3.9503396 C3.43978953,3.83483962 3.48139073,3.72086396 3.56335906,3.63889278 L5.06183236,2.1404195 C5.13555334,2.06674236 5.17697304,1.9667884 5.17697304,1.86256219 C5.17697304,1.75833597 5.13555334,1.65838201 5.06183236,1.58470488 L5.0310924,1.55396491 C4.44178086,0.967383833 3.6327638,0.655978199 2.80224561,0.69604055 C1.96048967,0.735962573 1.20137232,1.11502222 0.664620667,1.76355556 C-0.293707602,2.92209278 -0.185718515,4.68824327 0.910739965,5.78470175 L1.53711657,6.41107836 C1.63891774,6.51287953 1.63891774,6.67775751 1.53711657,6.77955868 L1.19638207,7.12029318 C1.08903081,7.22794279 1.03163016,7.3756065 1.03809123,7.52749786 C1.04467836,7.68139727 1.11374347,7.82112437 1.2325115,7.92072982 C1.44509629,8.0993809 1.77684834,8.07462924 1.98743704,7.86404055 L2.30461754,7.54686004 C2.40637057,7.44510701 2.57134483,7.44510701 2.67309786,7.54686004 C2.77485089,7.64861306 2.77485089,7.81358732 2.67309786,7.91534035 L2.33236336,8.25607485 C2.22504355,8.36375853 2.16758739,8.51137888 2.1738729,8.66327953 C2.18046004,8.81717895 2.24952515,8.95690605 2.36829318,9.0565115 C2.58087798,9.23516257 2.91263002,9.21061053 3.12321871,8.99982222 L3.44039922,8.68264172 C3.50622188,8.61681905 3.60216051,8.59111237 3.69207595,8.61520514 C3.78199138,8.63929791 3.85222334,8.70952985 3.87631611,8.79944529 C3.90040888,8.88936073 3.8747022,8.98529935 3.80887953,9.05112202 L3.46814503,9.39185653 C3.36071039,9.49954716 3.30323881,9.64727953 3.30965458,9.79926082 C3.31624172,9.95316023 3.38530683,10.0926877 3.50407485,10.1922932 C3.71685926,10.3709443 4.04861131,10.3463922 4.2592,10.1356039 L4.5763805,9.81842339 C4.67813353,9.71667036 4.84310779,9.71667036 4.94486082,9.81842339 C5.04661385,9.92017642 5.04661385,10.0851507 4.94486082,10.1869037 L4.62768032,10.5040842 C4.41709163,10.7146729 4.39233996,11.0464249 4.57099103,11.2590097 C4.67079609,11.3779774 4.81032358,11.4470425 4.96402339,11.4536296 C5.11621938,11.4613569 5.26446506,11.4036856 5.37142768,11.2951392 L5.88741988,10.779147 C5.88978518,10.7767329 5.89302263,10.7753725 5.89640234,10.7753725 C5.89978204,10.7753725 5.90301949,10.7767329 5.9053848,10.779147 L6.26488265,11.1386448 L6.29462456,11.1683867 L6.39902067,11.2727828 C6.58865029,11.4624125 6.89285614,11.512315 7.11282651,11.3586152 C7.24540825,11.2670467 7.33052926,11.1213737 7.34521454,10.9609148 C7.35989983,10.800456 7.30263557,10.6417518 7.18887798,10.5276382 L6.84694581,10.185706 C6.74519278,10.083953 6.74519278,9.91897877 6.84694581,9.81722574 C6.94869883,9.71547271 7.11367309,9.7154727 7.21542612,9.81722573 L7.53500195,10.1368016 C7.72463158,10.3264312 8.02883743,10.3763337 8.2488078,10.2226339 C8.38138953,10.1310654 8.46651055,9.98539243 8.48119583,9.82493356 C8.49588111,9.66447469 8.43861686,9.50577053 8.32485926,9.39165692 L7.9829271,9.04972476 C7.91710443,8.98390209 7.89139774,8.88796346 7.91549051,8.79804803 C7.93958328,8.70813259 8.00981523,8.63790063 8.09973067,8.61380786 C8.18964611,8.58971509 8.28558474,8.61542177 8.3514074,8.68124444 L8.67098324,9.00082027 C8.86081248,9.19044989 9.16501833,9.24035243 9.38478909,9.08665263 C9.51740297,8.99509635 9.60253331,8.84939696 9.61718214,8.68891516 C9.63183098,8.52843336 9.57448672,8.36972884 9.46064094,8.25567564 L9.11990643,7.91454191 C9.05408376,7.84871924 9.02837708,7.75278061 9.05246985,7.66286517 C9.07656262,7.57294973 9.14679458,7.50271778 9.23671001,7.47862501 C9.32662545,7.45453225 9.42256408,7.48023893 9.48838675,7.5460616 L9.80796257,7.86563743 C9.9975922,8.05546667 10.301798,8.10516959 10.5217684,7.95146979 C10.6543585,7.85986098 10.7394795,7.71415491 10.754164,7.55366605 C10.7688485,7.39317719 10.7115834,7.23444299 10.5978199,7.12029318 L7.88711423,4.40958752 Z" id="路径"></path>
                        <path d="M10.9173957,1.17450605 L10.9173957,1.17430643 C9.75905808,0.216377392 7.9929076,0.323967251 6.89644912,1.42022612 L6.64134737,1.67532787 L6.63975049,1.67373099 L4.81271891,3.50096219 C4.61550409,3.69817701 4.68217388,4.02853178 4.93747524,4.14111189 C5.42572164,4.35609201 6.13753138,4.49222613 6.7325692,3.8971883 L7.33299649,3.29676102 C7.40663954,3.22305217 7.50656045,3.18163743 7.61075399,3.18163743 C7.71494753,3.18163743 7.81486845,3.22305217 7.8885115,3.29676102 L10.3520998,5.76034932 C10.4257769,5.8340703 10.5257309,5.87549 10.6299571,5.87549 C10.7341833,5.87549 10.8341373,5.8340703 10.9078144,5.76034932 L11.1273856,5.54077816 C11.7116444,4.95631968 12.0244335,4.14390643 11.9851103,3.31193138 C11.9451883,2.47017544 11.5661287,1.71105808 10.9173957,1.17450605 Z" id="路径"></path>
                    </g>
                </g>
            </g>
        </g>
    </g>
</svg>