<?xml version="1.0" encoding="UTF-8"?>
<svg width="22px" height="22px" viewBox="0 0 22 22" version="1.1" xmlns="http://www.w3.org/2000/svg" xmlns:xlink="http://www.w3.org/1999/xlink">
    <!-- Generator: Sketch 52.5 (67469) - http://www.bohemiancoding.com/sketch -->
    <title>ic_download</title>
    <desc>Created with Sketch.</desc>
    <defs>
        <linearGradient x1="50%" y1="100%" x2="50%" y2="0%" id="linearGradient-1">
            <stop stop-color="#2853FF" offset="0%"></stop>
            <stop stop-color="#933EFE" offset="100%"></stop>
        </linearGradient>
    </defs>
    <g id="Symbols" stroke="none" stroke-width="1" fill="none" fill-rule="evenodd">
        <g id="ic_download">
            <g>
                <g>
                    <rect id="矩形" fill="#000000" opacity="0" x="0" y="0" width="22" height="22"></rect>
                    <g id="分组-2" transform="translate(1.100000, 1.100000)" fill="url(#linearGradient-1)" fill-rule="nonzero">
                        <path d="M16.9433576,0.828796547 C18.0465509,0.828796547 18.9512718,1.73185537 18.9512718,2.83800351 L18.9512718,16.894986 C18.9512718,17.9994457 18.0465509,18.904193 16.9433576,18.904193 L2.88510871,18.904193 C1.78043799,18.904193 0.875690707,17.9994193 0.875690707,16.894986 L0.875690707,2.83800351 C0.875690707,1.73185537 1.78043799,0.828796547 2.88510871,0.828796547 L16.9433576,0.828796547 Z M16.9433576,12.8791312 L16.943384,12.8791312 L16.943384,2.83800351 L2.88513506,2.83800351 L2.88513506,12.8791312 L6.90098991,12.8791312 C6.90098991,14.5854718 8.20727255,15.8917544 9.91361314,15.8917544 C11.6214311,15.8917544 12.9260253,14.5854718 12.9260253,12.8791312 L16.9433576,12.8791312 Z M8.27963978,6.33524117 L11.484751,6.33524117 L11.484751,7.18898791 L8.27963978,7.18898791 L8.27963978,6.33524117 Z M8.27963978,5.5 L11.484751,5.5 L11.484751,5.94534532 L8.27963978,5.94534532 L8.27963978,5.5 Z M14.3,8.84099828 L9.87276875,13.6396534 L5.5,8.85059876 L8.27963978,8.85059876 L8.27963978,7.61619775 L11.484751,7.61619775 L11.484751,8.84099828 L14.3,8.84099828 Z" id="合并形状"></path>
                    </g>
                </g>
            </g>
        </g>
    </g>
</svg>