<?xml version="1.0" standalone="no"?><!DOCTYPE svg PUBLIC "-//W3C//DTD SVG 1.1//EN" "http://www.w3.org/Graphics/SVG/1.1/DTD/svg11.dtd"><svg t="1560416807808" class="icon" style="" viewBox="0 0 1024 1024" version="1.1" xmlns="http://www.w3.org/2000/svg" p-id="3198" xmlns:xlink="http://www.w3.org/1999/xlink" width="22" height="22"><defs><style type="text/css"></style></defs><path d="M839.819636 89.786182H185.483636c-51.432727 0-93.556364 42.030545-93.556363 93.509818v654.289455c0 51.386182 42.123636 93.556364 93.556363 93.556363h654.336a93.835636 93.835636 0 0 0 93.463273-93.556363V183.296c0-51.479273-42.077091-93.556364-93.463273-93.556364z m0 560.872727h-186.973091c0 79.406545-60.741818 140.241455-140.194909 140.241455S372.363636 730.065455 372.363636 650.658909H185.483636V183.296h654.336v467.362909z" fill="#ffffff" p-id="3199"></path><path d="M436.596364 346.065455h149.178181v39.749818H436.596364v-39.749818z m0-38.865455h149.178181v20.712727H436.596364V307.2z m280.203636 155.508364h-131.025455V405.690182H436.596364v57.483636H307.2l203.543273 222.906182L716.8 462.661818z" fill="#ffffff" p-id="3200"></path></svg>
