<?xml version="1.0" encoding="UTF-8"?>
<svg width="20px" height="20px" viewBox="0 0 20 20" version="1.1" xmlns="http://www.w3.org/2000/svg" xmlns:xlink="http://www.w3.org/1999/xlink">
    <!-- Generator: Sketch 52.5 (67469) - http://www.bohemiancoding.com/sketch -->
    <title>ic_discuss</title>
    <desc>Created with Sketch.</desc>
    <defs>
        <linearGradient x1="100%" y1="100%" x2="0%" y2="0%" id="linearGradient-1">
            <stop stop-color="#2853FF" offset="0%"></stop>
            <stop stop-color="#933EFE" offset="100%"></stop>
        </linearGradient>
    </defs>
    <g id="Symbols" stroke="none" stroke-width="1" fill="none" fill-rule="evenodd">
        <g id="ic_discuss">
            <g id="合作案例">
                <g>
                    <rect id="矩形" fill="#000000" opacity="0" x="0" y="0" width="20" height="20"></rect>
                    <path d="M10,20 C4.4771525,20 0,15.5228475 0,10 C0,4.4771525 4.4771525,0 10,0 C15.5228475,0 20,4.4771525 20,10 C20,15.5228475 15.5228475,20 10,20 Z M14.503173,5.51051594 L5.49988792,5.51051594 C4.67277294,5.51051594 4,6.18328889 4,7.01040386 L4,13.0178705 C4,13.8449855 4.67277295,14.5177584 5.49988792,14.5177584 L8.44425893,14.5177584 L9.99955169,16.4173526 L11.550887,14.5177584 L14.4992155,14.5177584 C15.3263304,14.5177584 15.9991034,13.8449855 15.9991034,13.0178705 L15.9991034,7.01040386 C16.0030609,6.18328889 15.3302879,5.51051594 14.503173,5.51051594 Z M6.74649661,10.7739749 C6.34679033,10.7739749 6.02227632,10.4494609 6.02227632,10.0497546 C6.02227632,9.6500483 6.34679033,9.3255343 6.74649661,9.3255343 C7.1462029,9.3255343 7.4707169,9.6500483 7.4707169,10.0497546 C7.4707169,10.4494609 7.1462029,10.7739749 6.74649661,10.7739749 Z M10.0074667,10.7739749 C9.60776038,10.7739749 9.28324638,10.4494609 9.28324638,10.0497546 C9.28324638,9.6500483 9.60776038,9.3255343 10.0074667,9.3255343 C10.407173,9.3255343 10.731687,9.6500483 10.731687,10.0497546 C10.731687,10.4494609 10.407173,10.7739749 10.0074667,10.7739749 Z M13.2684367,10.7739749 C12.8687304,10.7739749 12.5442164,10.4494609 12.5442164,10.0497546 C12.5442164,9.6500483 12.8687304,9.3255343 13.2684367,9.3255343 C13.668143,9.3255343 13.992657,9.6500483 13.992657,10.0497546 C13.992657,10.4494609 13.668143,10.7739749 13.2684367,10.7739749 Z" id="合并形状" fill="url(#linearGradient-1)"></path>
                </g>
            </g>
        </g>
    </g>
</svg>