<?xml version="1.0" encoding="UTF-8"?>
<svg width="20px" height="20px" viewBox="0 0 20 20" version="1.1" xmlns="http://www.w3.org/2000/svg" xmlns:xlink="http://www.w3.org/1999/xlink">
    <!-- Generator: Sketch 52.5 (67469) - http://www.bohemiancoding.com/sketch -->
    <title>ic_decline</title>
    <desc>Created with Sketch.</desc>
    <g id="Symbols" stroke="none" stroke-width="1" fill="none" fill-rule="evenodd">
        <g id="ic_decline">
            <g>
                <rect id="矩形" fill="#000000" opacity="0" x="0" y="0" width="20" height="20"></rect>
                <path d="M9.41082343,17.3416575 C9.59659154,17.5527808 9.90128643,17.5527808 10.0869906,17.3416575 L15.6480119,11.0052541 C15.833812,10.7941147 15.7526144,10.6206406 15.4663364,10.6206406 L13.3872523,10.6206406 C13.1009424,10.6206406 12.8674533,10.392651 12.8674533,10.1131355 L12.8674533,6.05274328 C12.8674533,5.77327577 12.6340121,5.54522223 12.3476862,5.54522223 L7.15012777,5.54522223 C6.86378587,5.54522223 6.63024881,5.77325979 6.63024881,6.05274328 L6.63024881,10.1131515 C6.63024881,10.392667 6.39685563,10.6206566 6.11052974,10.6206566 L4.03144559,10.6206566 C3.74526357,10.6206566 3.66387411,10.7941307 3.84977014,11.0052701 L9.41082343,17.3416575 Z M10.7884011,3.51507408 C10.7884011,2.95398084 11.2534609,2.5 11.8280151,2.5 C12.4024894,2.5 12.8674533,2.95398082 12.8674533,3.51507408 C12.8674533,4.07610338 12.4024894,4.53014816 11.8280151,4.53014816 C11.2534449,4.53014816 10.7884011,4.07610338 10.7884011,3.51507408 Z M6.63024881,3.51507408 C6.63024881,2.95398084 7.09519668,2.5 7.6698948,2.5 C8.24441708,2.5 8.70934894,2.95398082 8.70934894,3.51507408 C8.70934894,4.07610338 8.24441708,4.53014816 7.6698948,4.53014816 C7.09519668,4.53014816 6.63024881,4.07610338 6.63024881,3.51507408 Z M7.6698948,2.50000002 L11.8280151,2.50000002 L11.8280151,4.53014816 L7.6698948,4.53014816 L7.6698948,2.50000002 Z" id="形状" fill="#7ED321" fill-rule="nonzero"></path>
            </g>
        </g>
    </g>
</svg>