<?xml version="1.0" standalone="no"?><!DOCTYPE svg PUBLIC "-//W3C//DTD SVG 1.1//EN" "http://www.w3.org/Graphics/SVG/1.1/DTD/svg11.dtd"><svg t="1560416634748" class="icon" style="" viewBox="0 0 1024 1024" version="1.1" xmlns="http://www.w3.org/2000/svg" p-id="2906" xmlns:xlink="http://www.w3.org/1999/xlink" width="22" height="22"><defs><style type="text/css"></style></defs><path d="M331.776 651.031273l40.354909 40.494545 97.140364-35.467636-102.120728-102.027637-35.374545 97.000728zM512 85.317818A426.635636 426.635636 0 0 0 85.317818 512a426.682182 426.682182 0 1 0 853.364364 0A426.682182 426.682182 0 0 0 512 85.317818z m-21.364364 592.104727l-0.186181-0.232727a12.939636 12.939636 0 0 1-4.00291 2.420364l-196.561454 71.68a13.917091 13.917091 0 0 1-14.661818-3.304727 13.824 13.824 0 0 1-3.258182-14.661819l71.68-196.468363a12.893091 12.893091 0 0 1 2.327273-3.956364l-0.093091-0.186182 176.453818-176.407272 34.909091 34.816-138.24 138.007272a10.798545 10.798545 0 0 0-3.258182 7.912728c0 2.839273 0.977455 5.725091 3.258182 7.912727a11.264 11.264 0 0 0 15.918545 0l138.146909-137.960727 43.426909 43.333818-137.588363 137.448727a11.264 11.264 0 0 0 0 15.825455 11.403636 11.403636 0 0 0 15.918545 0l137.541818-137.402182 34.72291 34.816-176.407273 176.407272z m247.435637-247.296l-55.063273 55.016728-144.756364-144.663273 55.156364-55.109818a50.827636 50.827636 0 0 1 71.773091 0L738.071273 358.4a50.920727 50.920727 0 0 1 0 71.773091z" fill="#ffffff" p-id="2907"></path></svg>
