<?xml version="1.0" encoding="UTF-8"?>
<svg width="16px" height="16px" viewBox="0 0 16 16" version="1.1" xmlns="http://www.w3.org/2000/svg" xmlns:xlink="http://www.w3.org/1999/xlink">
    <!-- Generator: Sketch 52.5 (67469) - http://www.bohemiancoding.com/sketch -->
    <title>ic_explain</title>
    <desc>Created with Sketch.</desc>
    <g id="Symbols" stroke="none" stroke-width="1" fill="none" fill-rule="evenodd">
        <g id="ic_explain">
            <g>
                <rect id="矩形" fill="#000000" opacity="0" x="0" y="0" width="16" height="16"></rect>
                <path d="M14.56,8.024 C14.56,11.6 11.656,14.504 8.08,14.504 C4.504,14.504 1.6,11.6 1.6,8.024 C1.6,4.448 4.504,1.544 8.08,1.544 C11.656,1.544 14.56,4.44 14.56,8.024 Z M8.096,2.52 C5.152,2.52 2.568,5.104 2.568,8.04 C2.568,11.096 5.04,13.568 8.096,13.568 C11.152,13.568 13.624,11.096 13.624,8.04 C13.624,5.12 11.072,2.52 8.096,2.52 Z" id="形状" fill="#999999" fill-rule="nonzero"></path>
                <path d="M9.68,5.168 C9.312,4.792 8.768,4.56 8.168,4.56 C7.496,4.56 6.936,4.84 6.536,5.312 C6.176,5.72 5.992,6.288 5.992,6.944 L6.824,6.952 C6.824,6.496 6.952,6.128 7.16,5.864 C7.384,5.552 7.696,5.392 8.168,5.392 C8.56,5.392 8.872,5.496 9.088,5.72 C9.296,5.928 9.408,6.216 9.408,6.592 C9.408,6.856 9.312,7.096 9.128,7.336 C9.072,7.408 8.976,7.488 8.808,7.672 C8.304,8.136 7.992,8.48 7.864,8.76 C7.752,8.992 7.688,9.232 7.688,9.584 L7.688,9.8 L8.496,9.8 L8.496,9.584 C8.512,9.32 8.544,9.112 8.664,8.904 C8.776,8.744 8.912,8.592 9.12,8.416 C9.536,8.048 9.776,7.824 9.872,7.712 C10.144,7.36 10.232,7 10.232,6.576 C10.232,6 10.032,5.488 9.68,5.168 Z M8.12,10.448 C7.944,10.448 7.8,10.496 7.68,10.624 C7.56,10.736 7.504,10.88 7.504,11.056 C7.504,11.232 7.552,11.376 7.68,11.496 C7.8,11.608 7.944,11.672 8.12,11.672 C8.296,11.672 8.44,11.608 8.56,11.496 C8.68,11.384 8.744,11.24 8.744,11.056 C8.744,10.88 8.68,10.736 8.568,10.624 C8.44,10.496 8.288,10.448 8.12,10.448 Z" id="形状" fill="#999999" fill-rule="nonzero"></path>
            </g>
        </g>
    </g>
</svg>