<?xml version="1.0" encoding="UTF-8"?>
<svg width="22px" height="22px" viewBox="0 0 22 22" version="1.1" xmlns="http://www.w3.org/2000/svg" xmlns:xlink="http://www.w3.org/1999/xlink">
    <!-- Generator: Sketch 52.5 (67469) - http://www.bohemiancoding.com/sketch -->
    <title>ic_editor_pr</title>
    <desc>Created with Sketch.</desc>
    <defs>
        <linearGradient x1="50%" y1="100%" x2="50%" y2="0%" id="linearGradient-1">
            <stop stop-color="#2853FF" offset="0%"></stop>
            <stop stop-color="#933EFE" offset="100%"></stop>
        </linearGradient>
    </defs>
    <g id="Symbols" stroke="none" stroke-width="1" fill="none" fill-rule="evenodd">
        <g id="ic_editor_pr">
            <g>
                <g>
                    <rect id="矩形" fill="#000000" opacity="0" x="0" y="0" width="22" height="22"></rect>
                    <path d="M7.12778464,13.9871208 L7.99450588,14.8562459 L10.0819945,14.0948731 L7.8875479,11.9028721 L7.12778464,13.9871208 Z M10.9999895,1.83333333 C5.93682416,1.83333333 1.83333333,5.93732582 1.83333333,11.0000523 C1.83333333,16.0622561 5.93684506,20.1667085 10.9999895,20.1667085 C16.0621934,20.1667085 20.1666667,16.0622561 20.1666667,11.0000523 C20.1666667,5.93732582 16.0621934,1.83333333 10.9999895,1.83333333 Z M10.5414519,14.5542887 L10.5365607,14.5485823 C10.5112269,14.5698192 10.4834684,14.5894048 10.4508188,14.6008385 L6.22849734,16.141581 C6.11829947,16.1807523 5.99426417,16.1546242 5.9126818,16.0697392 C5.82948994,15.9881359 5.80250484,15.8640797 5.84330648,15.7547807 L7.38239772,11.5340061 C7.39387318,11.5022134 7.41180751,11.4752492 7.43381781,11.4491211 L7.43051522,11.445066 L11.2220575,7.65442257 C11.6333764,8.06488452 11.9719966,8.40271037 11.9719966,8.40271037 L9.00150365,11.3683539 C8.95336524,11.4148828 8.93212832,11.4760644 8.93212832,11.538082 C8.93212832,11.5992845 8.95336524,11.6605287 9.00150365,11.707852 C9.04805347,11.7535239 9.10925592,11.7788368 9.17288306,11.7788368 C9.23651021,11.7788368 9.29693927,11.7535239 9.34340548,11.707852 L12.3123307,8.74385971 L13.245062,9.67502329 L10.2892635,12.6275819 C10.1962266,12.7213922 10.1962266,12.8740012 10.2892635,12.9678324 C10.3349563,13.0127518 10.3970158,13.0380229 10.4606638,13.0380229 C10.525148,13.0380229 10.5854934,13.0127518 10.6312071,12.9686476 C10.6312071,12.9678324 13.5862113,10.0161099 13.5862113,10.0161099 C13.5862113,10.0161099 14.0203767,10.4502753 14.3321162,10.7636243 L10.5414519,14.5542887 Z M15.8573491,9.24085792 L14.674039,10.4233529 C14.0660904,9.81619862 12.6534801,8.40271037 11.564022,7.31532167 L12.7489208,6.1312172 C13.1732829,5.70725225 13.8669525,5.70643705 14.2905203,6.1312172 L15.85737,7.69890304 C16.2817112,8.12284709 16.2809169,8.81486542 15.8573491,9.24085792 Z" id="形状" fill="url(#linearGradient-1)" fill-rule="nonzero"></path>
                </g>
            </g>
        </g>
    </g>
</svg>