<?xml version="1.0" encoding="UTF-8"?>
<svg width="20px" height="20px" viewBox="0 0 20 20" version="1.1" xmlns="http://www.w3.org/2000/svg" xmlns:xlink="http://www.w3.org/1999/xlink">
    <!-- Generator: Sketch 52.5 (67469) - http://www.bohemiancoding.com/sketch -->
    <title>ic_examine</title>
    <desc>Created with Sketch.</desc>
    <defs>
        <linearGradient x1="100%" y1="100%" x2="0%" y2="0%" id="linearGradient-1">
            <stop stop-color="#2853FF" offset="0%"></stop>
            <stop stop-color="#933EFE" offset="100%"></stop>
        </linearGradient>
    </defs>
    <g id="Symbols" stroke="none" stroke-width="1" fill="none" fill-rule="evenodd">
        <g id="ic_examine">
            <g>
                <rect id="矩形" fill="#000000" opacity="0" x="0" y="0" width="20" height="20"></rect>
                <path d="M10,16 C2.5,16 0,9.75 0,9.75 C0,9.75 2.5,3.5 10,3.5 C17.5,3.5 20,9.75 20,9.75 C20,9.75 17.375,16 10,16 Z M10,6.125 C8,6.125 6.25,7.75 6.25,9.875 C6.25,11.875 7.875,13.625 10,13.625 C12,13.625 13.75,12 13.75,9.875 C13.625,7.75 12,6.125 10,6.125 Z M10,12.25 C8.625,12.25 7.5,11.125 7.5,9.75 L10,9.75 L8.125,8.125 C8.625,7.625 9.25,7.375 10,7.375 C11.375,7.375 12.5,8.5 12.5,9.875 C12.375,11.25 11.375,12.25 10,12.25 Z" id="形状" fill="url(#linearGradient-1)" fill-rule="nonzero"></path>
            </g>
        </g>
    </g>
</svg>