<?xml version="1.0" encoding="UTF-8"?>
<svg width="20px" height="20px" viewBox="0 0 20 20" version="1.1" xmlns="http://www.w3.org/2000/svg" xmlns:xlink="http://www.w3.org/1999/xlink">
    <!-- Generator: Sketch 52.5 (67469) - http://www.bohemiancoding.com/sketch -->
    <title>ic_follower</title>
    <desc>Created with Sketch.</desc>
    <defs>
        <linearGradient x1="100%" y1="100%" x2="0%" y2="0%" id="linearGradient-1">
            <stop stop-color="#2853FF" offset="0%"></stop>
            <stop stop-color="#933EFE" offset="100%"></stop>
        </linearGradient>
    </defs>
    <g id="Symbols" stroke="none" stroke-width="1" fill="none" fill-rule="evenodd">
        <g id="ic_follower">
            <g>
                <g>
                    <rect id="矩形" fill="#000000" opacity="0" x="0" y="0" width="20" height="20"></rect>
                    <path d="M10,0 C4.47835877,0 0,4.47835877 0,10 C0,15.5216412 4.47835877,20 10,20 C15.5216412,20 20,15.5216412 20,10 C20,4.47835877 15.5241431,7.11076043e-16 10,0 Z M7.50062547,7.50062547 C7.50062547,6.11958969 8.61896422,4.99874906 10.0025019,4.99874906 C11.3860395,4.99874906 12.5043783,6.11708782 12.5043783,7.50062547 L12.5043783,8.33375031 C12.5043783,9.71478609 11.3860395,10.8356267 10.0025019,10.8356267 C8.61896422,10.8356267 7.50062547,9.71728797 7.50062547,8.33375031 L7.50062547,7.50062547 Z M2.50187641,9.46710033 L2.50187641,8.87165374 C2.50187641,7.88341256 3.24743558,7.08531399 4.16812609,7.08531399 C5.08881661,7.08531399 5.83437578,7.88591444 5.83437578,8.87165374 L5.83437578,9.46710033 C5.83437578,10.4553415 5.08881661,11.2534401 4.16812609,11.2534401 C3.24743558,11.2509382 2.50187641,10.4503378 2.50187641,9.46710033 Z M15.8343758,15.9469602 C14.3332499,17.4205654 12.2717038,18.3337503 10.0025019,18.3337503 C7.72829622,18.3337503 5.67175382,17.4205654 4.17062797,15.9469602 L4.17062797,15.4165624 C4.17062797,13.5751814 5.66424819,12.0815612 7.50562922,12.0815612 L12.5068802,12.0815612 C14.3482612,12.0815612 15.8418814,13.5751814 15.8418814,15.4165624 L15.8418814,15.9469602 L15.8343758,15.9469602 Z M15.8343758,11.2509382 C14.9136853,11.2509382 14.1681261,10.4503378 14.1681261,9.46459845 L14.1681261,8.86915186 C14.1681261,7.88091068 14.9136853,7.08281211 15.8343758,7.08281211 C16.7550663,7.08281211 17.5006255,7.88341256 17.5006255,8.86915186 L17.5006255,9.46459845 C17.5006255,10.4503378 16.7550663,11.2509382 15.8343758,11.2509382 Z" id="形状" fill="url(#linearGradient-1)" fill-rule="nonzero"></path>
                </g>
            </g>
        </g>
    </g>
</svg>