<?xml version="1.0" encoding="UTF-8"?>
<svg width="20px" height="20px" viewBox="0 0 20 20" version="1.1" xmlns="http://www.w3.org/2000/svg" xmlns:xlink="http://www.w3.org/1999/xlink">
    <!-- Generator: Sketch 52.5 (67469) - http://www.bohemiancoding.com/sketch -->
    <title>ic_follow</title>
    <desc>Created with Sketch.</desc>
    <g id="Symbols" stroke="none" stroke-width="1" fill="none" fill-rule="evenodd">
        <g id="ic_follow">
            <g>
                <rect id="矩形" fill="#000000" opacity="0" x="0" y="0" width="20" height="20"></rect>
                <path d="M19.1111111,9.2 C19.5111111,8.75555555 19.6888889,8.13333334 19.4666667,7.55555555 C19.2888889,6.97777777 18.8,6.57777777 18.2666667,6.53333334 L13.9555555,5.86666666 C13.7777778,5.82222221 13.6444444,5.73333332 13.5555555,5.55555555 L11.6,1.46666666 C11.3333333,0.93333332 10.8,0.577777773 10.2222222,0.577777773 C9.64444445,0.577777773 9.11111111,0.888888887 8.84444445,1.46666666 L6.93333334,5.55555555 C6.84444445,5.73333332 6.71111111,5.86666666 6.53333334,5.86666666 L2.22222223,6.53333334 C1.64444445,6.62222223 1.2,7.02222223 1.02222223,7.55555555 C0.844444453,8.13333332 0.977777773,8.75555555 1.37777777,9.2 L4.53333334,12.4 C4.66666668,12.5333333 4.71111111,12.7111111 4.66666666,12.9333333 L3.91111111,17.4222222 C3.82222223,18.0444445 4.04444445,18.6222222 4.57777777,18.9777778 C5.06666666,19.2888889 5.64444443,19.3333333 6.17777777,19.0666667 L10.0444445,16.9333333 C10.1777778,16.8444445 10.3555556,16.8444445 10.4888889,16.9333333 L14.3555555,19.0666667 C14.5777778,19.2 14.8444444,19.2444444 15.0666667,19.2444445 C15.3777778,19.2444445 15.6888889,19.1555556 15.9555555,18.9777778 C16.4444444,18.6222222 16.7111111,18.0444444 16.5777778,17.4222222 L15.8222222,12.8888889 C15.7777778,12.7111111 15.8666667,12.4888889 16,12.3555555 L19.1111111,9.2 Z" id="路径" fill="#CDCDCD"></path>
            </g>
        </g>
    </g>
</svg>