<?xml version="1.0" encoding="UTF-8"?>
<svg width="20px" height="20px" viewBox="0 0 20 20" version="1.1" xmlns="http://www.w3.org/2000/svg" xmlns:xlink="http://www.w3.org/1999/xlink">
    <!-- Generator: Sketch 64 (93537) - https://sketch.com -->
    <title>ic_ycpf</title>
    <desc>Created with Sketch.</desc>
    <defs>
        <linearGradient x1="100%" y1="100%" x2="0%" y2="0%" id="linearGradient-1">
            <stop stop-color="#2853FF" offset="0%"></stop>
            <stop stop-color="#933EFE" offset="100%"></stop>
        </linearGradient>
    </defs>
    <g id="Symbols" stroke="none" stroke-width="1" fill="none" fill-rule="evenodd">
        <g id="ic_ycpf">
            <g id="ic_syjz">
                <g>
                    <rect id="矩形" fill="#000000" opacity="0" x="0" y="0" width="20" height="20"></rect>
                    <path d="M10.0000229,0 C4.47715912,0 8.27782287e-13,4.47713622 8.27782287e-13,10 C8.27782287e-13,15.5228638 4.4771591,20 10.0000229,20 C15.5228638,20 19.9999771,15.5228409 19.9999771,10 C19.9999771,4.4771591 15.5228638,0 10.0000229,0 Z" id="形状" fill="url(#linearGradient-1)" fill-rule="nonzero"></path>
                    <path d="M17.8018808,9.3352245 L15.4831552,11.6527201 C15.329086,11.8064817 15.2589707,12.0278985 15.2952584,12.2450099 L15.8426499,15.5170579 C15.9149179,15.9497431 15.580025,16.3009347 15.1996187,16.3009347 C15.0993661,16.3009347 14.9957307,16.2763329 14.8954781,16.2225163 L12.029361,14.6775192 C11.839754,14.574988 11.6113047,14.5746414 11.4213874,14.6765967 L8.55434771,16.2203636 C8.46076479,16.2705828 8.35610415,16.2965894 8.24989964,16.2960144 C7.86949332,16.2960144 7.5327553,15.9402099 7.60502328,15.5075246 L8.15425989,12.2363993 C8.16502321,11.5586179 7.53767568,11.9956085 7.53767568,11.9956085 C7.51184372,11.9866904 7.27935611,11.9830001 7.07024026,12.1401445 L5.38501259,13.2257017 C5.29367816,13.2939719 4.86898849,13.533225 4.76996599,13.533225 C4.51472165,13.533225 4.45690728,13.2127858 4.46244269,12.9181784 L4.46244269,10.7655154 C4.46551793,10.6031431 4.30868104,10.4426159 4.17767612,10.3491288 L2.20460663,8.93821192 C1.87494165,8.70234155 1.95889551,8.18508735 2.34698992,8.06330813 L4.66940587,7.33263277 C4.82347503,7.2843516 4.94463922,7.16041972 4.99322791,7.00512046 L5.72790107,4.66210045 C5.79863143,4.43730092 5.99852158,4.30537341 6.19964181,4.30537341 C6.34817556,4.30537341 6.49701684,4.35365458 6.59542429,4.4951153 L7.98512208,6.4552688 C8.07614898,6.58565868 8.2243752,6.58965648 8.38274971,6.58965649 L8.38982274,6.58965649 L9.69710428,6.64439563 C9.59992692,6.83321494 9.42217845,7.03802546 9.2155228,7.06877779 L7.43219519,7.26097985 L6.30758248,5.53761928 L5.88873575,7.309261 C5.92717616,7.18748177 5.73927943,8.01379688 4.94340913,8.26381333 L3.23234949,8.61285226 L4.71399675,9.55110586 C5.10455134,9.83033701 5.39423829,10.2771684 5.38501259,10.7655154 L5.38501259,12.3031318 L6.51639081,11.35473 C7.03395252,10.9663281 7.91900457,11.0794966 7.53767568,11.0730387 L5.69253588,9.22789886 C5.88965832,9.4250213 4.91573204,8.67220426 6.00005918,8.30532897 L8.15272227,7.99780567 L9.07529217,7.69028237 C9.41879569,7.6392335 9.98925141,6.48140828 9.69033877,7.07523577 L11.1400036,4.37302855 C11.2457024,4.14511473 11.4742977,3.99948129 11.725528,4.00000139 C11.9583231,4.00000139 12.1911182,4.12454972 12.3107448,4.37302855 L13.7441109,7.3501616 C13.8370458,7.54618697 14.0211242,7.68338177 14.2355331,7.71642185 L17.440541,8.19369802 C17.975939,8.27365408 18.1896677,8.94805267 17.8018808,9.3352245 L17.8018808,9.3352245 Z M14.1008379,8.67404941 C13.5823536,8.59686106 13.1336772,8.25858543 12.9011895,7.77515881 L11.725528,5.32573573 L10.3053854,7.69028237 C10.4302398,7.4307327 9.69033877,8.61285226 9.69033877,8.61285226 L6.73350225,9.0673717 L8.78222247,10.8679206 L9.0915909,12.2287112 C8.86525376,13.2250867 8.46024557,15.3783648 8.46024557,15.3783648 L10.9622551,13.8269098 C10.7402233,13.9465364 11.0652754,13.7143563 11.7058465,13.7118961 C10.9994655,13.7208143 12.1800474,13.6657676 12.4641989,13.8189142 L14.9182349,15.0708415 L14.3031883,11.6880853 C14.3422437,11.9221105 14.1211345,11.6613307 14.8281305,10.9540271 L16.7172462,9.06552656 L14.1008379,8.67404941 L14.1008379,8.67404941 Z" id="形状" fill="#FFFFFF" fill-rule="nonzero"></path>
                </g>
            </g>
        </g>
    </g>
</svg>