<?xml version="1.0" encoding="UTF-8"?>
<svg width="20px" height="20px" viewBox="0 0 20 20" version="1.1" xmlns="http://www.w3.org/2000/svg" xmlns:xlink="http://www.w3.org/1999/xlink">
    <!-- Generator: Sketch 52.5 (67469) - http://www.bohemiancoding.com/sketch -->
    <title>ic_hudong</title>
    <desc>Created with Sketch.</desc>
    <defs>
        <linearGradient x1="100%" y1="100%" x2="0%" y2="0%" id="linearGradient-1">
            <stop stop-color="#2853FF" offset="0%"></stop>
            <stop stop-color="#933EFE" offset="100%"></stop>
        </linearGradient>
    </defs>
    <g id="Symbols" stroke="none" stroke-width="1" fill="none" fill-rule="evenodd">
        <g id="ic_hudong">
            <g id="ic_webo">
                <g>
                    <rect id="矩形" fill="#000000" opacity="0" x="0" y="0" width="20" height="20"></rect>
                    <path d="M9.99798,1.24344979e-14 C15.5197,1.24344979e-14 19.9959,4.47626 19.9959,9.99804 C19.9959,15.5197 15.5197,19.99596 9.99798,19.99596 C4.47626,19.99596 -5.32907052e-14,15.5197 -5.32907052e-14,9.99804 C-5.32907052e-14,4.47626 4.47626,1.24344979e-14 9.99798,1.24344979e-14 Z M11.8749986,8.74999714 C11.529823,8.75022783 11.2498159,8.47059473 11.2495852,8.12541914 C11.2493545,7.78024354 11.5289876,7.50023642 11.8741632,7.50000572 L11.875834,7.50000572 C12.2210096,7.50023642 12.5006427,7.78024354 12.500412,8.12541914 C12.5001813,8.47059473 12.2201742,8.75022783 11.8749986,8.74999714 Z M9.79166047,8.74999714 C9.44648488,8.75022466 9.16648033,8.47058901 9.16625279,8.12541342 C9.16602526,7.78023783 9.4456609,7.50023327 9.79083649,7.50000572 L9.79249589,7.50000572 C10.1376715,7.50023642 10.4173046,7.78024354 10.4170739,8.12541914 C10.4168432,8.47059473 10.1368361,8.75022783 9.79166047,8.74999714 Z M14.5162357,5.41667906 L14.5158237,5.41667906 C14.4045872,5.17083727 14.1662413,5 13.8887452,5 L7.77791384,5 C7.50041771,5 7.26167125,5.17083727 7.1508353,5.41667906 C7.10705888,5.51169995 7.08404814,5.61496346 7.0833381,5.71958106 L7.0833381,7.50000572 L5,7.50000572 L5.69458718,7.50000572 C5.31166816,7.50000572 5,7.8233354 5,8.22083418 L5,13.1316619 C5,13.5295727 5.31250358,13.8525018 5.69583458,13.8525018 L6.49125558,13.8525018 C6.50916557,13.8533258 6.5366657,13.8649987 6.56167102,13.8804139 L6.56500125,14.4774975 C6.56500125,14.5137409 6.57333254,14.5483364 6.58292268,14.5833324 C6.59585288,14.6359742 6.61907261,14.6855368 6.65124386,14.7291643 C6.7837549,14.901249 6.97625582,15 7.18083025,15 L7.18166566,15 C7.37416658,15 7.55582996,14.9124985 7.68708215,14.7595827 L7.87249918,14.5833324 L8.4566624,14.0274933 C8.48250314,14.0033348 8.51874655,13.9516648 8.5375034,13.9216584 C8.56786539,13.8860262 8.60944617,13.8617832 8.65541179,13.8529138 L11.8058305,13.8529138 C12.0049919,13.8529138 12.1845839,13.7650003 12.311659,13.6249934 L12.3070814,13.6204158 L12.3141653,13.6204158 L11.9370827,13.2645849 L11.6820857,13.0195785 L11.677508,13.0195785 L10.6379161,12.0379051 L7.9166619,12.0379051 C6.41874587,12.0249962 6.3799962,10.8012575 6.3799962,10.8012575 L6.3799962,7.95831836 C6.38166704,7.94416203 6.38875092,7.93124166 6.38875092,7.91623847 C6.38875092,7.90124672 6.38166704,7.88873834 6.3799962,7.87415857 L6.3799962,7.87082835 L6.37958421,7.87082835 C6.35831797,7.66132313 6.18265992,7.50147075 5.9720833,7.49999428 L7.0833381,7.49999428 L7.0833381,10.6329036 C7.0833381,10.702907 7.09624703,10.7691568 7.11458045,10.8329004 C7.19916367,11.1324836 7.46291545,11.3529081 7.77750185,11.3529081 L10.9278977,11.3529081 C10.9736065,11.3616395 11.0150191,11.3855724 11.0454055,11.4208172 C11.0665096,11.4605555 11.0939543,11.4965854 11.1266585,11.5274875 L11.8966508,12.2595655 C12.027491,12.4124814 12.2099898,12.4999828 12.4020673,12.4999828 C12.4354039,12.4999828 12.4674816,12.4933224 12.4999828,12.4883099 C12.6720603,12.4609324 12.8268849,12.368073 12.9320656,12.2291586 C12.9875347,12.1569163 13.0179585,12.0685696 13.0187317,11.9774918 L13.0220733,11.3804082 C13.0429692,11.3662495 13.0667239,11.3568609 13.0916534,11.3529081 L13.8874749,11.3529081 C14.2033202,11.3529081 14.4674839,11.1320716 14.5524906,10.8333238 C14.5721133,10.7678661 14.5824905,10.6999868 14.5833209,10.6316562 L14.5833209,5.72082846 C14.5833209,5.61165191 14.5583156,5.5091587 14.5162357,5.41624419 L14.5162357,5.41667906 Z" id="合并形状" fill="url(#linearGradient-1)" fill-rule="nonzero"></path>
                </g>
            </g>
        </g>
    </g>
</svg>