<?xml version="1.0" encoding="UTF-8"?>
<svg width="20px" height="20px" viewBox="0 0 20 20" version="1.1" xmlns="http://www.w3.org/2000/svg" xmlns:xlink="http://www.w3.org/1999/xlink">
    <!-- Generator: Sketch 52.5 (67469) - http://www.bohemiancoding.com/sketch -->
    <title>ic_ip_type</title>
    <desc>Created with Sketch.</desc>
    <defs>
        <linearGradient x1="100%" y1="100%" x2="0%" y2="0%" id="linearGradient-1">
            <stop stop-color="#2853FF" offset="0%"></stop>
            <stop stop-color="#933EFE" offset="100%"></stop>
        </linearGradient>
    </defs>
    <g id="Symbols" stroke="none" stroke-width="1" fill="none" fill-rule="evenodd">
        <g id="ic_ip_type">
            <g>
                <g>
                    <circle id="椭圆形" fill="url(#linearGradient-1)" cx="10" cy="10" r="10"></circle>
                    <path d="M9.04255319,14.212766 C8.53191489,14.212766 8.19148936,13.8723404 8.19148936,13.3617021 L8.19148936,5.70212766 C8.19148936,5.19148936 8.53191489,4.85106383 9.04255319,4.85106383 L12.5319149,4.85106383 C12.7021277,4.34042553 13.212766,4 13.7234043,4 C14.4042553,4 15,4.59574468 15,5.27659574 C15,5.95744681 14.4042553,6.55319149 13.7234043,6.55319149 C13.1276596,6.55319149 12.7021277,6.21276596 12.5319149,5.70212766 L9.04255319,5.70212766 L9.04255319,9.10638298 L11.6808511,9.10638298 C11.8510638,8.59574468 12.3617021,8.25531915 12.8723404,8.25531915 L15,8.25531915 L15,10.8085106 L12.8723404,10.8085106 C12.2765957,10.8085106 11.8510638,10.4680851 11.6808511,9.95744681 L9.04255319,9.95744681 L9.04255319,13.3617021 L12.4468085,13.3617021 L12.4468085,12.5106383 L15,12.5106383 L15,15.0638298 L12.4468085,15.0638298 L12.4468085,14.212766 L9.04255319,14.212766 Z M6.14893617,11.1489362 L6.14893617,10.1276596 L3.59574468,10.212766 C3.25531915,10.212766 3,9.95744681 3,9.70212766 C3,9.36170213 3.25531915,9.10638298 3.5106383,9.10638298 L6.06382979,9.0212766 L6.06382979,8 L8.10638298,9.53191489 L6.14893617,11.1489362 Z" id="形状" fill="#FFFFFF" fill-rule="nonzero"></path>
                </g>
            </g>
        </g>
    </g>
</svg>