<?xml version="1.0" encoding="UTF-8"?>
<svg width="36px" height="36px" viewBox="0 0 36 36" version="1.1" xmlns="http://www.w3.org/2000/svg" xmlns:xlink="http://www.w3.org/1999/xlink">
    <!-- Generator: Sketch 52.5 (67469) - http://www.bohemiancoding.com/sketch -->
    <title>ic_ip_introduce</title>
    <desc>Created with Sketch.</desc>
    <g id="Symbols" stroke="none" stroke-width="1" fill="none" fill-rule="evenodd">
        <g id="ic_ip_introduce">
            <g>
                <rect id="矩形" fill="#000000" opacity="0" x="0" y="0" width="36" height="36"></rect>
                <path d="M8.424,10.08 L10.584,10.08 L12.24,13.464 L8.424,10.08 Z M8.424,26.136 L10.584,26.136 L12.24,21.744 L8.424,26.136 Z M27.576,26.136 L25.488,26.136 L23.76,21.744 L27.576,26.136 Z M27.864,10.08 L25.92,10.08 L24.408,13.464 L27.864,10.08 Z M2.664,7.776 L8.136,7.776 L8.136,13.248 L2.664,13.248 L2.664,7.776 Z M27.864,7.776 L33.336,7.776 L33.336,13.248 L27.864,13.248 L27.864,7.776 Z M27.864,23.4 L33.336,23.4 L33.336,28.872 L27.864,28.872 L27.864,23.4 Z M2.664,23.4 L8.136,23.4 L8.136,28.872 L2.664,28.872 L2.664,23.4 Z M15.408,2.664 L20.88,2.664 L20.88,8.136 L15.408,8.136 L15.408,2.664 Z M15.408,27.936 L20.88,27.936 L20.88,33.408 L15.408,33.408 L15.408,27.936 Z M6.696,16.704 L9.576,16.704 L9.576,19.584 L6.696,19.584 L6.696,16.704 Z M10.8,13.104 L18.216,8.928 L25.56,13.104 L18.216,17.856 L10.8,13.104 Z M17.64,27.36 L10.296,22.104 L10.296,14.184 L17.64,18.936 L17.64,27.36 Z M26.424,16.704 L29.304,16.704 L29.304,19.584 L26.424,19.584 L26.424,16.704 Z M25.92,14.256 L25.488,23.184 L19.008,27.36 L18.936,18.792 L25.92,14.256 Z" id="形状" fill="#6B7177" fill-rule="nonzero"></path>
            </g>
        </g>
    </g>
</svg>