<?xml version="1.0" encoding="UTF-8"?>
<svg width="20px" height="20px" viewBox="0 0 20 20" version="1.1" xmlns="http://www.w3.org/2000/svg" xmlns:xlink="http://www.w3.org/1999/xlink">
    <!-- Generator: Sketch 52.5 (67469) - http://www.bohemiancoding.com/sketch -->
    <title>ic_kbxx</title>
    <desc>Created with Sketch.</desc>
    <defs>
        <linearGradient x1="100%" y1="100%" x2="0%" y2="0%" id="linearGradient-1">
            <stop stop-color="#2853FF" offset="0%"></stop>
            <stop stop-color="#933EFE" offset="100%"></stop>
        </linearGradient>
    </defs>
    <g id="Symbols" stroke="none" stroke-width="1" fill="none" fill-rule="evenodd">
        <g id="ic_kbxx">
            <g>
                <rect id="矩形" fill="#000000" opacity="0" x="0" y="0" width="20" height="20"></rect>
                <path d="M10,20 C4.4771525,20 0,15.5228475 0,10 C0,4.4771525 4.4771525,0 10,0 C15.5228475,0 20,4.4771525 20,10 C20,15.5228475 15.5228475,20 10,20 Z M15,5 L4.99666667,5 C4.44333333,5 4,5.448 4,5.998 L4,8.47133333 C4,11.0393333 5.61533333,13.3533333 7.88533333,14.21 L7.88533333,15.1593333 C7.88533333,15.3526667 7.94866667,15.4093333 8.114,15.424 C11.9393333,15.7373333 16,12.796 16,8.47066667 L16,5.99866667 C16,5.448 15.5533333,5 15,5 Z M13.438,10.404 C12.8366667,11.42 11.9,12.0546667 10.7246667,12.2346667 C10.4713333,12.274 10.232,12.288 10.0213333,12.288 C9.5,12.288 9.14466667,12.2033333 9.124,12.1993333 L9.106,12.196 C7.45266667,11.6953333 6.65333333,10.5946667 6.27666667,9.75866667 C5.872,8.866 5.85466667,8.09333333 5.85466667,8.048 L5.85133333,8.048 C5.85388906,7.88288303 5.98886496,7.75058286 6.154,7.75133333 C6.31533333,7.75133333 6.446,7.878 6.456,8.03733333 L6.46,8.03733333 C6.46,8.044 6.47733333,8.74266667 6.84,9.52933333 C7.31466667,10.5626667 8.13133333,11.2646667 9.27533333,11.614 C9.34533333,11.628 9.93666667,11.7513333 10.6546667,11.6353333 C11.6466667,11.4766667 12.4073333,10.958 12.914,10.094 L12.9173333,10.0973333 C13.0023842,9.95947409 13.1815146,9.91402749 13.322,9.99466667 C13.466,10.076 13.5153333,10.2593333 13.438,10.404 Z M13.8566667,8.65466667 C13.61215,8.64530535 13.418753,8.44436251 13.418753,8.19966667 C13.418753,7.95497082 13.61215,7.75402798 13.8566667,7.74466667 C14.1011834,7.75402798 14.2945803,7.95497082 14.2945803,8.19966667 C14.2945803,8.44436251 14.1011834,8.64530535 13.8566667,8.65466667 Z" id="合并形状" fill="url(#linearGradient-1)"></path>
            </g>
        </g>
    </g>
</svg>