<?xml version="1.0" encoding="UTF-8"?>
<svg width="20px" height="20px" viewBox="0 0 20 20" version="1.1" xmlns="http://www.w3.org/2000/svg" xmlns:xlink="http://www.w3.org/1999/xlink">
    <!-- Generator: Sketch 52.5 (67469) - http://www.bohemiancoding.com/sketch -->
    <title>ic_men</title>
    <desc>Created with Sketch.</desc>
    <g id="Symbols" stroke="none" stroke-width="1" fill="none" fill-rule="evenodd">
        <g id="ic_men" fill="#8B55D2">
            <g id="Combined-Shape">
                <path d="M12.2829529,7.90805729 L12.2829529,19.2589441 L10.5213267,19.2589441 L10.5213267,12.9252308 L9.44849289,12.9252308 L9.44849289,19.2589441 L7.6860787,19.2589441 L7.6860787,7.90805729 L7.14976029,7.90805729 L7.14976029,12.8689498 L6,12.8689498 L6,6.53514006 C6,5.70100769 6.69036836,5.02472848 7.54187849,5.02472848 L12.4272516,5.02472848 C13.2787617,5.02472848 13.9691301,5.70100769 13.9691301,6.53514006 L13.9691301,12.8689498 L12.8200593,12.8689498 L12.8200593,7.90805729 L12.2829529,7.90805729 Z M12.2830022,2.25191618 C12.2830022,3.49582994 11.2539997,4.50383235 9.98486055,4.50383235 C8.71513041,4.50383235 7.68612795,3.49582994 7.68612795,2.25191618 C7.68612795,1.00800241 8.71513041,1.77635684e-15 9.98486055,1.77635684e-15 C11.2539997,1.77635684e-15 12.2830022,1.00800241 12.2830022,2.25191618 Z"></path>
            </g>
        </g>
    </g>
</svg>