<?xml version="1.0" encoding="UTF-8"?>
<svg width="20px" height="20px" viewBox="0 0 20 20" version="1.1" xmlns="http://www.w3.org/2000/svg" xmlns:xlink="http://www.w3.org/1999/xlink">
    <!-- Generator: Sketch 52.5 (67469) - http://www.bohemiancoding.com/sketch -->
    <title>ic_media</title>
    <desc>Created with Sketch.</desc>
    <defs>
        <linearGradient x1="100%" y1="100%" x2="0%" y2="0%" id="linearGradient-1">
            <stop stop-color="#2853FF" offset="0%"></stop>
            <stop stop-color="#933EFE" offset="100%"></stop>
        </linearGradient>
    </defs>
    <g id="Symbols" stroke="none" stroke-width="1" fill="none" fill-rule="evenodd">
        <g id="ic_media">
            <g>
                <g>
                    <rect id="矩形" fill="#000000" opacity="0" x="0" y="0" width="20" height="20"></rect>
                    <g id="分组-29">
                        <circle id="椭圆形" fill="url(#linearGradient-1)" cx="10" cy="10" r="10"></circle>
                        <path d="M11.7814503,8.93487977 L11.7395338,8.93487977 C12.5726016,8.48839813 13.1381332,7.62325565 13.1381332,6.62892504 C13.1381332,5.17695187 11.9334643,4 10.4476229,4 C9.04844556,4 7.89811392,5.04485864 7.76977063,6.37929373 C7.42994775,5.87304998 6.84513284,5.53755512 6.17961241,5.53755512 C5.1272094,5.53755512 4.27592545,6.37003001 4.27592545,7.39790269 C4.27592545,8.03678808 4.60620299,8.60024457 5.10791122,8.93487975 L5.06224479,8.93487975 C4.4753548,8.93487975 4,9.39950345 4,9.97281654 L4,13.3195687 C4,13.8925853 4.4753548,14.3572238 5.06224479,14.3572238 L11.7814503,14.3572239 C12.3677623,14.3572239 12.8436062,13.8925853 12.8436062,13.3195687 L12.8436062,9.97281655 C12.8436062,9.39948866 12.3677474,8.93487977 11.7814503,8.93487977 Z M7.23837403,8.93487977 C7.63744026,8.67133065 7.93184867,8.26849965 8.03763293,7.79318932 C8.28440361,8.27979398 8.6837218,8.67654798 9.17091933,8.93487977 L7.23837403,8.93487977 Z M8.5698892,6.62891022 C8.5698892,5.61584467 9.41048653,4.7951977 10.44703,4.7951977 C11.4837959,4.7951977 12.3238152,5.61584467 12.3252529,6.62891022 C12.3238152,7.64204989 11.4837959,8.4632601 10.44703,8.4632601 C9.41048653,8.4632601 8.5698892,7.64206471 8.5698892,6.62891022 Z M10.44703,5.18732724 C9.63154111,5.18845371 8.97328343,5.83283805 8.97101567,6.62892504 C8.97328343,7.42529366 9.63154111,8.06886279 10.44703,8.07028571 C11.2612591,8.06886279 11.9213102,7.42529368 11.9218883,6.62892504 C11.9213103,5.83282323 11.2612443,5.18845371 10.44703,5.18732724 Z M13.3221922,11.0454367 L13.3221922,12.4680031 L16,13.8382481 L16,9.55262905 L13.3221922,11.0454367 Z" id="形状" fill="#FFFFFF" fill-rule="nonzero"></path>
                    </g>
                </g>
            </g>
        </g>
    </g>
</svg>