<?xml version="1.0" encoding="UTF-8"?>
<svg width="20px" height="20px" viewBox="0 0 20 20" version="1.1" xmlns="http://www.w3.org/2000/svg" xmlns:xlink="http://www.w3.org/1999/xlink">
    <!-- Generator: Sketch 52.5 (67469) - http://www.bohemiancoding.com/sketch -->
    <title>ic_news</title>
    <desc>Created with Sketch.</desc>
    <defs>
        <linearGradient x1="0%" y1="50%" x2="101.734617%" y2="59.7295168%" id="linearGradient-1">
            <stop stop-color="#8A54BE" offset="0%"></stop>
            <stop stop-color="#C560EF" offset="100%"></stop>
        </linearGradient>
    </defs>
    <g id="Symbols" stroke="none" stroke-width="1" fill="none" fill-rule="evenodd">
        <g id="ic_news">
            <g>
                <rect id="矩形" fill="#000000" opacity="0" x="0" y="0" width="20" height="20"></rect>
                <g id="分组-29" transform="translate(1.000000, 1.000000)" fill-rule="nonzero">
                    <path d="M9.375,0 C4.2,0 0,4.2 0,9.375 C0,14.55 4.2,18.75 9.375,18.75 C14.55,18.75 18.75,14.55 18.75,9.375 C18.75,4.2 14.55,0 9.375,0 Z" id="路径" fill="url(#linearGradient-1)"></path>
                    <path d="M14.1887669,5.00000831 L5.51689185,5.00000831 C5.45955115,4.99950307 5.40441205,5.02205837 5.36386448,5.06260594 C5.32331691,5.10315351 5.30076162,5.15829261 5.30126685,5.21563331 L5.30126685,11.7143833 C5.30892198,11.7965648 5.26940063,11.8759982 5.19923301,11.9194598 C5.12906539,11.9629213 5.04034331,11.9629213 4.97017569,11.9194598 C4.90000807,11.8759982 4.86048672,11.7965648 4.86814185,11.7143833 L4.86814185,6.51688331 C4.86814403,6.45936965 4.84516926,6.40423851 4.80432529,6.36374665 C4.76348132,6.32325478 4.70815334,6.30075819 4.65064185,6.30125831 L4.21751685,6.30125831 C4.16000537,6.30075819 4.10467739,6.32325478 4.06383342,6.36374665 C4.02298945,6.40423851 4.00001468,6.45936965 4.00001685,6.51688331 L4.00001685,11.7143833 C3.99749447,12.1676892 4.27832234,12.574328 4.70314185,12.7325083 C4.74384713,12.7776638 4.80172305,12.8035377 4.86251685,12.8037583 L13.5400169,12.8037583 C14.0180057,12.802727 14.4052356,12.4154972 14.4062669,11.9375083 L14.4062669,5.21563331 C14.406269,5.15811965 14.3832943,5.10298851 14.3424503,5.06249665 C14.3016063,5.02200478 14.2462783,4.99950819 14.1887669,5.00000831 Z M7.90189185,6.51688331 C7.90188968,6.45936965 7.92486445,6.40423851 7.96570842,6.36374665 C8.00655239,6.32325478 8.06188037,6.30075819 8.11939185,6.30125831 L8.98564185,6.30125831 C9.06782335,6.29360318 9.14725678,6.33312453 9.1907183,6.40329215 C9.23417983,6.47345977 9.23417983,6.56218185 9.1907183,6.63234947 C9.14725678,6.70251709 9.06782335,6.74203844 8.98564185,6.73438331 L8.33689185,6.73438331 L8.33689185,7.16750831 L8.77001685,7.16750831 C8.88183925,7.17792446 8.96734426,7.27176434 8.96734426,7.38407081 C8.96734426,7.49637728 8.88183925,7.59021716 8.77001685,7.60063331 L8.33689185,7.60063331 L8.33689185,8.03563331 L8.98564185,8.03563331 C9.06782335,8.02797818 9.14725678,8.06749953 9.1907183,8.13766715 C9.23417983,8.20783477 9.23417983,8.29655685 9.1907183,8.36672447 C9.14725678,8.43689209 9.06782335,8.47641344 8.98564185,8.46875831 L8.11939185,8.46875831 C7.99926992,8.46875831 7.90189185,8.37138024 7.90189185,8.25125831 L7.90189185,6.51688331 Z M6.16751685,6.51688331 C6.16748145,6.45837251 6.19122564,6.40235948 6.23330013,6.36169926 C6.27537461,6.32103905 6.33216645,6.29922314 6.39064185,6.30125831 L6.82376685,6.30125831 C7.18236616,6.30125682 7.47335843,6.59141049 7.47439185,6.95000831 L7.47439185,8.25125831 C7.48204698,8.3334398 7.44252563,8.41287324 7.37235801,8.45633476 C7.30219039,8.49979628 7.21346831,8.49979628 7.14330069,8.45633476 C7.07313307,8.41287324 7.03361172,8.3334398 7.04126685,8.25125831 L7.04126685,6.95000831 C7.0402376,6.83061925 6.94316035,6.73437887 6.82376685,6.73438331 L6.60251685,6.73438331 L6.60251685,8.25125831 C6.60251685,8.37138024 6.50513879,8.46875831 6.38501685,8.46875831 C6.26489492,8.46875831 6.16751685,8.37138024 6.16751685,8.25125831 L6.16751685,6.51688331 Z M9.63626685,11.2868833 C9.63676697,11.3443948 9.61427038,11.3997228 9.57377851,11.4405667 C9.53328665,11.4814107 9.47815551,11.5043855 9.42064185,11.5043833 L6.39064185,11.5043833 C6.27051992,11.5043833 6.17314185,11.4070052 6.17314185,11.2868833 L6.17314185,9.11938331 C6.17314185,8.99926138 6.27051992,8.90188331 6.39064185,8.90188331 L9.42064185,8.90188331 C9.47815551,8.90188113 9.53328665,8.92485591 9.57377851,8.96569987 C9.61427038,9.00654384 9.63676697,9.06187183 9.63626685,9.11938331 L9.63626685,11.2868833 Z M9.63626685,7.60063331 L9.63626685,6.51688331 C9.63626685,6.39676138 9.73364492,6.29938331 9.85376685,6.29938331 C9.97388879,6.29938331 10.0712669,6.39676138 10.0712669,6.51688331 L10.0712669,7.53500831 L10.2868919,7.86125831 L10.5043919,7.53500831 L10.5043919,6.51688331 C10.514808,6.40506092 10.6086479,6.3195559 10.7209544,6.3195559 C10.8332608,6.3195559 10.9271007,6.40506092 10.9375169,6.51688331 L10.9375169,7.53500831 L11.1550169,7.86125831 L11.3706419,7.53500831 L11.3706419,6.51688331 C11.3706419,6.39676138 11.4680199,6.29938331 11.5881419,6.29938331 C11.7082638,6.29938331 11.8056419,6.39676138 11.8056419,6.51688331 L11.8056419,7.60063331 C11.8055707,7.64350609 11.7924949,7.68534864 11.7681419,7.72063331 L11.3350169,8.37125831 C11.2946731,8.43173757 11.2267798,8.46806087 11.1540794,8.46806087 C11.0813789,8.46806087 11.0134856,8.43173757 10.9731419,8.37125831 L10.7200169,7.99625831 L10.4668919,8.37125831 C10.4256948,8.43425827 10.3546259,8.4712141 10.2793919,8.46875831 C10.2042416,8.47084731 10.133341,8.433979 10.0918919,8.37125831 L9.67376685,7.72063331 C9.64941377,7.68534864 9.63633797,7.64350609 9.63626685,7.60063331 Z M13.3281419,11.5043833 L10.2868919,11.5043833 C10.1667699,11.5043833 10.0693919,11.4070052 10.0693919,11.2868833 C10.0693919,11.1667614 10.1667699,11.0693833 10.2868919,11.0693833 L13.3281419,11.0693833 C13.4482638,11.0693833 13.5456419,11.1667614 13.5456419,11.2868833 C13.5456419,11.4070052 13.4482638,11.5043833 13.3281419,11.5043833 Z M13.3281419,10.6362583 L10.2868919,10.6362583 C10.1750695,10.6258422 10.0895644,10.5320023 10.0895644,10.4196958 C10.0895644,10.3073893 10.1750695,10.2135495 10.2868919,10.2031333 L13.3281419,10.2031333 C13.4103233,10.1954782 13.4897568,10.2349995 13.5332183,10.3051671 C13.5766798,10.3753348 13.5766798,10.4640568 13.5332183,10.5342245 C13.4897568,10.6043921 13.4103233,10.6439134 13.3281419,10.6362583 Z M13.3281419,9.77000831 L10.2868919,9.77000831 C10.1667699,9.77000831 10.0693919,9.67263024 10.0693919,9.55250831 C10.0693919,9.43238638 10.1667699,9.33500831 10.2868919,9.33500831 L13.3281419,9.33500831 C13.4482638,9.33500831 13.5456419,9.43238638 13.5456419,9.55250831 C13.5456419,9.67263024 13.4482638,9.77000831 13.3281419,9.77000831 Z M12.8893919,7.16750831 C13.2487221,7.16750831 13.5400169,7.45880304 13.5400169,7.81813331 C13.5400169,8.17746357 13.2487221,8.46875831 12.8893919,8.46875831 L12.4543919,8.46875831 C12.3342699,8.46875831 12.2368919,8.37138024 12.2368919,8.25125831 C12.2368919,8.13113638 12.3342699,8.03375831 12.4543919,8.03375831 L12.8893919,8.03375831 C13.0012142,8.02334216 13.0867193,7.92950228 13.0867193,7.81719581 C13.0867193,7.70488934 13.0012142,7.61104946 12.8893919,7.60063331 C12.5300616,7.60063331 12.2387669,7.30933857 12.2387669,6.95000831 C12.2387669,6.59067804 12.5300616,6.29938331 12.8893919,6.29938331 L13.3281419,6.29938331 C13.4482638,6.29938331 13.5456419,6.39676138 13.5456419,6.51688331 C13.5456419,6.63700524 13.4482638,6.73438331 13.3281419,6.73438331 L12.8893919,6.73438331 C12.8072104,6.72672818 12.7277769,6.76624953 12.6843154,6.83641715 C12.6408539,6.90658477 12.6408539,6.99530685 12.6843154,7.06547447 C12.7277769,7.13564209 12.8072104,7.17516344 12.8893919,7.16750831 Z" id="形状" fill="#FFFFFF"></path>
                </g>
            </g>
        </g>
    </g>
</svg>