<?xml version="1.0" encoding="UTF-8"?>
<svg width="20px" height="20px" viewBox="0 0 20 20" version="1.1" xmlns="http://www.w3.org/2000/svg" xmlns:xlink="http://www.w3.org/1999/xlink">
    <!-- Generator: Sketch 52.5 (67469) - http://www.bohemiancoding.com/sketch -->
    <title>ic_new</title>
    <desc>Created with Sketch.</desc>
    <defs>
        <linearGradient x1="0%" y1="50%" x2="101.734617%" y2="59.7295168%" id="linearGradient-1">
            <stop stop-color="#8A54BE" offset="0%"></stop>
            <stop stop-color="#C560EF" offset="100%"></stop>
        </linearGradient>
    </defs>
    <g id="Symbols" stroke="none" stroke-width="1" fill="none" fill-rule="evenodd">
        <g id="ic_new">
            <g>
                <rect id="矩形" fill="#000000" opacity="0" x="0" y="0" width="20" height="20"></rect>
                <path d="M10,0 C4.47710843,0 0,4.47710843 0,10 C0,15.5228916 4.47710843,20 10,20 C15.5228916,20 20,15.5228916 20,10 C20,4.47710843 15.5228916,1.0272907e-15 10,0 Z M7.39036145,11.9831325 C7.37108434,12.3036145 7.20240964,12.4650602 6.88192771,12.4650602 C6.70361446,12.4650602 6.56144578,12.4024096 6.45542169,12.2771084 L4.28674699,9.41445783 L4.26024096,9.41445783 L4.26024096,11.9831325 C4.24337349,12.3036145 4.07228916,12.4650602 3.75180723,12.4650602 C3.4313253,12.4650602 3.26024096,12.3036145 3.24337349,11.9831325 L3.24337349,8.0746988 C3.26024096,7.73493976 3.4313253,7.55662651 3.75180723,7.53975904 C3.93012048,7.55662651 4.07228916,7.63855422 4.18072289,7.78072289 L6.34698795,10.6698795 L6.37349398,10.6698795 L6.37349398,8.0746988 C6.39036145,7.73493976 6.56144578,7.55662651 6.88192771,7.53975904 C7.20481928,7.55662651 7.37349398,7.7373494 7.39036145,8.0746988 L7.39036145,11.9831325 Z M10.253012,12.4626506 L8.48674699,12.4626506 C8.16385542,12.4457831 7.99518072,12.2746988 7.97831325,11.9542169 L7.97831325,8.18072289 C7.97831325,7.78795181 8.14698795,7.59277108 8.48674699,7.59277108 L10.2,7.59277108 C10.5036145,7.60963855 10.6626506,7.76144578 10.6819277,8.04819277 C10.6650602,8.35180723 10.5036145,8.51325301 10.2,8.53012048 L8.99518072,8.53012048 L8.99518072,9.52048193 L10.1180723,9.52048193 C10.4216867,9.5373494 10.5903614,9.69879518 10.626506,10.0024096 C10.5903614,10.3060241 10.4216867,10.4674699 10.1180723,10.4843373 L8.99518072,10.4843373 L8.99518072,11.5277108 L10.253012,11.5277108 C10.5566265,11.5277108 10.7156627,11.6795181 10.7349398,11.9831325 C10.7180723,12.2843373 10.5566265,12.4457831 10.253012,12.4626506 Z M16.9445783,8.23373494 L16.0891566,11.9831325 C15.9831325,12.3036145 15.7590361,12.4650602 15.4192771,12.4650602 C15.0626506,12.4650602 14.8313253,12.313253 14.7228916,12.0096386 L13.9204819,9.35903614 L13.1180723,12.0096386 C13.0096386,12.313253 12.7879518,12.4650602 12.4481928,12.4650602 C12.0915663,12.4650602 11.8674699,12.3036145 11.7783133,11.9831325 L10.8963855,8.23614458 C10.8771084,8.16626506 10.8698795,8.08433735 10.8698795,7.99518072 C10.9060241,7.70843373 11.0650602,7.55662651 11.3518072,7.53975904 C11.6554217,7.52289157 11.8433735,7.69156627 11.913253,8.04819277 L12.4746988,10.939759 L12.5012048,10.939759 L13.3831325,7.94216867 C13.4915663,7.69156627 13.6698795,7.55903614 13.9180723,7.53975904 C14.1855422,7.53975904 14.3638554,7.67228916 14.453012,7.94216867 L15.3349398,10.939759 L15.3614458,10.939759 L15.9493976,8.04819277 C16.0024096,7.70843373 16.1807229,7.53975904 16.4843373,7.53975904 C16.7710843,7.55662651 16.9301205,7.70843373 16.9662651,7.99518072 C16.973494,8.08433735 16.9638554,8.16385542 16.9445783,8.23373494 Z" id="形状" fill="url(#linearGradient-1)" fill-rule="nonzero"></path>
            </g>
        </g>
    </g>
</svg>