<?xml version="1.0" encoding="UTF-8"?>
<svg width="20px" height="20px" viewBox="0 0 20 20" version="1.1" xmlns="http://www.w3.org/2000/svg" xmlns:xlink="http://www.w3.org/1999/xlink">
    <!-- Generator: Sketch 64 (93537) - https://sketch.com -->
    <title>ic_opus</title>
    <desc>Created with Sketch.</desc>
    <defs>
        <linearGradient x1="100%" y1="100%" x2="0%" y2="0%" id="linearGradient-1">
            <stop stop-color="#2853FF" offset="0%"></stop>
            <stop stop-color="#933EFE" offset="100%"></stop>
        </linearGradient>
    </defs>
    <g id="Symbols" stroke="none" stroke-width="1" fill="none" fill-rule="evenodd">
        <g id="ic_opus">
            <g id="ic_follower">
                <g>
                    <rect id="矩形" fill="#000000" opacity="0" x="0" y="0" width="20" height="20"></rect>
                    <path d="M10,0 C4.47835877,0 0,4.47835877 0,10 C0,15.5216412 4.47835877,20 10,20 C15.5216412,20 20,15.5216412 20,10 C20,4.47835877 15.5241431,0 10,0 Z" id="路径" fill="url(#linearGradient-1)" fill-rule="nonzero"></path>
                    <g id="视频-MOV" transform="translate(5.000000, 4.000000)" fill="#FFFFFF" fill-rule="nonzero">
                        <path d="M6.421875,0.09375 L6.53125,0.09375 L9.484375,2.390625 L9.484375,2.5 L6.421875,2.5 L6.421875,0.09375 Z M3.45,1.953125 C3.35,1.953125 3.2671875,1.915625 3.203125,1.8421875 C3.1375,1.7671875 3.10625,1.659375 3.10625,1.515625 C3.10625,1.3703125 3.1375,1.2609375 3.2015625,1.1875 C3.265625,1.115625 3.3484375,1.078125 3.4515625,1.078125 C3.5546875,1.078125 3.6375,1.1140625 3.7,1.1859375 C3.7625,1.2578125 3.79375,1.365625 3.79375,1.5109375 C3.79375,1.6578125 3.7625,1.76875 3.696875,1.8421875 C3.6328125,1.915625 3.55,1.953125 3.45,1.953125 Z M4.234375,6 L6.203125,7.09375 L4.234375,8.1875 L4.234375,6 Z M5,4.796875 C3.73125,4.796875 2.703125,5.825 2.703125,7.09375 C2.703125,8.3625 3.73125,9.390625 5,9.390625 C6.26875,9.390625 7.296875,8.3625 7.296875,7.09375 C7.296875,5.825 6.26875,4.796875 5,4.796875 Z M5.0734375,0.859375 L4.7578125,1.8203125 L4.453125,0.859375 L4.1640625,0.8625 L4.634375,2.1765625 L4.890625,2.171875 L5.2953125,0.859375 L5.0734375,0.859375 Z M3.8875,1.0328125 C3.778125,0.9171875 3.63125,0.859375 3.4484375,0.859375 C3.346875,0.859375 3.2578125,0.8765625 3.18125,0.909375 C3.1234375,0.934375 3.06875,0.971875 3.0203125,1.0234375 C2.971875,1.075 2.9328125,1.1328125 2.9046875,1.196875 C2.8671875,1.284375 2.8484375,1.39375 2.8484375,1.521875 C2.8484375,1.7234375 2.903125,1.8828125 3.0125,1.9984375 C3.121875,2.1140625 3.26875,2.1703125 3.453125,2.1703125 C3.6359375,2.1703125 3.78125,2.1125 3.890625,1.996875 C4,1.88125 4.0546875,1.7203125 4.0546875,1.515625 C4.0515625,1.3109375 3.996875,1.15 3.8875,1.0328125 Z M2.59375,0.859375 L2.265625,0.859375 L1.990625,1.746875 L1.71875,0.859375 L1.390625,0.859375 L1.390625,2.171875 L1.609375,2.171875 L1.609375,1.1875 L1.8796875,2.1765625 L2.1078125,2.16875 L2.375,1.1875 L2.375,2.171875 L2.59375,2.171875 L2.59375,0.859375 Z M0.515625,11.90625 L0.515625,0.09375 L6.09375,0.09375 L6.09375,2.828125 L9.484375,2.828125 L9.484375,11.90625 L0.515625,11.90625 Z" id="形状"></path>
                    </g>
                </g>
            </g>
        </g>
    </g>
</svg>