<?xml version="1.0" encoding="UTF-8"?>
<svg width="20px" height="20px" viewBox="0 0 20 20" version="1.1" xmlns="http://www.w3.org/2000/svg" xmlns:xlink="http://www.w3.org/1999/xlink">
    <!-- Generator: Sketch 52.5 (67469) - http://www.bohemiancoding.com/sketch -->
    <title>ic_ptqs</title>
    <desc>Created with Sketch.</desc>
    <defs>
        <linearGradient x1="100%" y1="100%" x2="0%" y2="0%" id="linearGradient-1">
            <stop stop-color="#2853FF" offset="0%"></stop>
            <stop stop-color="#933EFE" offset="100%"></stop>
        </linearGradient>
    </defs>
    <g id="Symbols" stroke="none" stroke-width="1" fill="none" fill-rule="evenodd">
        <g id="ic_ptqs">
            <g>
                <rect id="矩形" fill="#000000" opacity="0" x="0" y="0" width="20" height="20"></rect>
                <path d="M10,20 C4.4771525,20 0,15.5228475 0,10 C0,4.4771525 4.4771525,0 10,0 C15.5228475,0 20,4.4771525 20,10 C20,15.5228475 15.5228475,20 10,20 Z M6.48702382,6.48661375 C6.32441047,6.50343582 6.19658108,6.64186416 6.19658108,6.80882713 L6.19658108,6.98184291 C5.52190341,7.0815176 5,7.66638586 5,8.36755437 L5,13.3092077 C5,14.0795773 5.63043458,14.7098416 6.40080416,14.7098416 L13.5991696,14.7098416 C14.3697357,14.7098416 15,14.0795773 15,13.3092077 L15,8.36755437 C15,7.59718479 14.3697357,6.96672401 13.5991696,6.96672401 L8.60891046,6.96672401 L8.60891046,6.80884023 C8.60891046,6.64111738 8.47977094,6.50212569 8.31601778,6.48661375 L9.00601088,4.91409084 C9.25373027,4.9086014 9.45284383,4.70608149 9.45284383,4.45705197 C9.45284383,4.20458991 9.2480443,4 8.99560844,4 C8.74315948,4 8.53837305,4.20458991 8.53837305,4.45705197 C8.53825427,4.53902852 8.56027054,4.61951646 8.60209778,4.6900193 L7.5989312,6.4851071 L7.20391388,6.4851071 L6.20094382,4.6900193 C6.24121722,4.62173532 6.26447202,4.54213182 6.26447202,4.45705197 C6.26447202,4.20458991 6.05986901,4 5.80723663,4 C5.55480078,4 5.35018466,4.20458991 5.35018466,4.45705197 C5.35018466,4.70609459 5.54911481,4.9086145 5.7968342,4.91409084 L6.48702382,6.48661375 Z M12.1918934,14.9626574 L12.4125586,15.7799296 L13.1192035,15.7799296 L13.3396984,14.9626574 L12.1918934,14.9626574 Z M6.47853417,14.9626574 L6.69902906,15.7799296 L7.40587043,15.7799296 L7.62653564,14.9626574 L6.47853417,14.9626574 Z M14.0709344,12.0299574 C14.4175424,12.0299574 14.6983557,12.3107707 14.6983426,12.6573918 C14.6983426,13.0039998 14.4175424,13.2849965 14.0709344,13.2849965 C13.7243002,13.2849965 13.4433035,13.0039998 13.4433035,12.6573918 C13.4433035,12.3107707 13.7243133,12.0299574 14.0709344,12.0299574 Z M7.06793548,7.93509354 L7.06793548,7.93510664 L12.1378113,7.93510664 C12.680323,7.93510664 13.1243261,8.37908351 13.1243261,8.92180489 L13.1243261,12.4020999 C13.1243261,12.9446247 12.680323,13.3886147 12.1378113,13.3886147 L7.06793548,13.3886147 C6.52542373,13.3886147 6.08142065,12.9446247 6.08142065,12.4020999 L6.08142065,8.92179179 C6.08142065,8.37908351 6.52542373,7.93509354 7.06793548,7.93509354 Z M7.47790138,8.35961498 C7.04922683,8.35961498 6.69276664,8.68237862 6.63888099,9.09670725 C6.754503,9.03966139 6.88171455,9.01002383 7.0106435,9.01009455 L12.1353613,9.01009455 C12.3376847,9.01009455 12.5241424,9.08215171 12.6701171,9.20166177 C12.6680209,8.73817706 12.2883321,8.35962808 11.824284,8.35962808 L7.47790138,8.35962808 L7.47790138,8.35961498 Z M14.0709344,8.84407487 C14.2831099,8.84407487 14.4551693,9.01616045 14.4551693,9.22832292 C14.4551693,9.4406819 14.2830968,9.61257096 14.0709344,9.61257096 C13.8587719,9.61257096 13.6866863,9.4406819 13.6866863,9.22832292 C13.6866863,9.01616045 13.8587719,8.84407487 14.0709344,8.84407487 Z M14.0709344,10.205942 C14.2831099,10.205942 14.4551693,10.3780275 14.4551693,10.59019 C14.4551693,10.8023525 14.2830968,10.9744381 14.0709344,10.9744381 C13.8587719,10.9744381 13.6866863,10.8023525 13.6866863,10.59019 C13.6866863,10.3780275 13.8587719,10.205942 14.0709344,10.205942 Z" id="合并形状" fill="url(#linearGradient-1)"></path>
            </g>
        </g>
    </g>
</svg>