<?xml version="1.0" encoding="UTF-8"?>
<svg width="20px" height="20px" viewBox="0 0 20 20" version="1.1" xmlns="http://www.w3.org/2000/svg" xmlns:xlink="http://www.w3.org/1999/xlink">
    <!-- Generator: Sketch 52.5 (67469) - http://www.bohemiancoding.com/sketch -->
    <title>ic_Picture_details</title>
    <desc>Created with Sketch.</desc>
    <defs>
        <linearGradient x1="100%" y1="100%" x2="0%" y2="0%" id="linearGradient-1">
            <stop stop-color="#2853FF" offset="0%"></stop>
            <stop stop-color="#933EFE" offset="100%"></stop>
        </linearGradient>
    </defs>
    <g id="Symbols" stroke="none" stroke-width="1" fill="none" fill-rule="evenodd">
        <g id="ic_Picture_details">
            <g>
                <g id="合作案例-2">
                    <g id="合作案例">
                        <rect id="矩形" fill="#000000" opacity="0" x="0" y="0" width="20" height="20"></rect>
                        <circle id="椭圆形" fill="url(#linearGradient-1)" cx="10" cy="10" r="10"></circle>
                    </g>
                </g>
                <path d="M6.5,15 C5.67157288,15 5,14.3284271 5,13.5 L5,9.75000001 C5,9.48478351 5.10535684,9.2304296 5.29289322,9.04289322 C5.4804296,8.85535684 5.73478351,8.75 6.00000001,8.75 L7.25,8.75 L7.25,6.00000001 C7.25,5.73478351 7.35535684,5.4804296 7.54289322,5.29289322 C7.7304296,5.10535684 7.98478351,5 8.25000001,5 L13.75,5 C14.0152165,5 14.2695704,5.10535684 14.4571068,5.29289322 C14.6446432,5.4804296 14.75,5.73478352 14.75,6.00000001 L14.75,13.5 C14.75,14.3284271 14.0784271,15 13.25,15 L6.5,15 Z M7.25,9.75000001 C7.25,9.68369588 7.22366079,9.6201074 7.1767767,9.57322331 C7.12989261,9.52633921 7.06630413,9.5 7,9.5 L6.00000001,9.5 C5.93369588,9.5 5.8701074,9.52633921 5.8232233,9.5732233 C5.77633921,9.6201074 5.75,9.68369588 5.75,9.75000001 L5.75,13.5 C5.75,13.9142136 6.08578644,14.25 6.5,14.25 C6.91421356,14.25 7.25,13.9142136 7.25,13.5 L7.25,9.75000001 Z M9.5,6.5 C9.22385762,6.5 9,6.72385763 9,7 C9,7.27614238 9.22385762,7.50000001 9.5,7.50000001 C9.77614238,7.50000001 10,7.27614238 10,7 C10,6.72385763 9.77614238,6.5 9.5,6.5 Z M12.25,7 C11.4805,7.01100001 11,9.00000001 11,9.00000001 L10.75,9.00000001 C10.75,9.00000001 10.34,7.97925001 9.75000001,8 C9.145,8.02125 8.75,9.25 8.75,9.25 L13.5,9.25 C13.5,9.25 13.00725,6.98925001 12.25,7 Z M13.125,10.5 L10.125,10.5 C9.91789323,10.5 9.75000001,10.6678932 9.75000001,10.875 C9.75000001,11.0821068 9.91789323,11.25 10.125,11.25 L13.125,11.25 C13.3321068,11.25 13.5,11.0821068 13.5,10.875 C13.5,10.6678932 13.3321068,10.5 13.125,10.5 Z M13.125,12.25 L8.875,12.25 C8.66789322,12.25 8.5,12.4178932 8.5,12.625 C8.5,12.8321068 8.66789322,13 8.875,13 L13.125,13 C13.3321068,13 13.5,12.8321068 13.5,12.625 C13.5,12.4178932 13.3321068,12.25 13.125,12.25 Z" id="形状" fill="#FFFFFF" fill-rule="nonzero"></path>
            </g>
        </g>
    </g>
</svg>