<?xml version="1.0" encoding="UTF-8"?>
<svg width="20px" height="20px" viewBox="0 0 20 20" version="1.1" xmlns="http://www.w3.org/2000/svg" xmlns:xlink="http://www.w3.org/1999/xlink">
    <!-- Generator: Sketch 64 (93537) - https://sketch.com -->
    <title>ic_praised</title>
    <desc>Created with Sketch.</desc>
    <defs>
        <linearGradient x1="100%" y1="100%" x2="0%" y2="0%" id="linearGradient-1">
            <stop stop-color="#2853FF" offset="0%"></stop>
            <stop stop-color="#933EFE" offset="100%"></stop>
        </linearGradient>
    </defs>
    <g id="Symbols" stroke="none" stroke-width="1" fill="none" fill-rule="evenodd">
        <g id="ic_praised">
            <g id="ic_follower">
                <g>
                    <rect id="矩形" fill="#000000" opacity="0" x="0" y="0" width="20" height="20"></rect>
                    <path d="M10,0 C15.5241431,0 20,4.47835877 20,10 C20,15.5216412 15.5216412,20 10,20 C4.47835877,20 0,15.5216412 0,10 C0,4.47835877 4.47835877,0 10,0 Z M12.9407262,2.97944794 C12.9407262,5.20403567 9.6693122,7.68294697 6.37255541,8.67186048 L6.37255541,8.23382147 L4.62108691,8.23382147 C4.13939748,8.23382147 3.74534466,8.82503662 3.74534466,9.54752278 L3.74534466,14.8020722 C3.74534466,15.5245584 4.13939748,16.1156776 4.62108691,16.1156776 L6.37257141,16.1156776 L6.37257141,15.6778944 C10.1046171,16.0657594 8.80348325,16.9914998 12.5028631,16.9914998 C13.3786053,16.9914998 14.2543476,16.5536366 14.2543476,15.6778944 C15.1301698,15.6778944 15.5680489,13.4885308 15.1301698,13.4885308 C16.005912,13.4885308 16.5668916,10.8612241 15.5680329,10.8612241 C16.4437751,10.8612241 16.8816542,8.23398136 15.5680329,8.23398136 L12.9407262,8.23398136 C15.5680329,3.85519019 13.6659305,2.97944794 12.9407262,2.97944794 Z M6.372,8.671 L6.37255541,15.6778144 L5.49681316,15.6778144 L5.49681316,8.67178053 L6.372,8.671 Z" id="形状结合" fill="url(#linearGradient-1)" fill-rule="nonzero"></path>
                </g>
            </g>
        </g>
    </g>
</svg>