<?xml version="1.0" encoding="UTF-8"?>
<svg width="14px" height="14px" viewBox="0 0 14 14" version="1.1" xmlns="http://www.w3.org/2000/svg" xmlns:xlink="http://www.w3.org/1999/xlink">
    <!-- Generator: Sketch 52.5 (67469) - http://www.bohemiancoding.com/sketch -->
    <title>ic_pitchon_pr</title>
    <desc>Created with Sketch.</desc>
    <g id="Symbols" stroke="none" stroke-width="1" fill="none" fill-rule="evenodd">
        <g id="ic_pitchon_pr">
            <g>
                <rect id="矩形" stroke="#6248ff" fill="#FFFFFF" x="0.5" y="0.5" width="13" height="13"></rect>
                <path d="M6.05734375,10.7539141 C5.81705078,10.7539141 5.58634375,10.6590742 5.41476953,10.4875 L3.72087109,8.79361328 L2.85966016,7.96367969 C2.63597266,7.74810156 2.629375,7.39201562 2.84495313,7.16831641 C3.06053125,6.94461719 3.41661719,6.93805469 3.64031641,7.15359766 L4.51270703,7.99444141 L6.02952344,9.51126953 L10.2906836,3.48392969 C10.4700156,3.23025391 10.8210508,3.16998437 11.0747031,3.34933984 C11.3283672,3.52868359 11.3886367,3.87969531 11.209293,4.13335937 L6.80055859,10.3694102 C6.64541406,10.5888555 6.40287109,10.727793 6.13509766,10.7506094 C6.10923825,10.7528126 6.08329685,10.7539152 6.05734375,10.7539141 Z" id="路径" fill="#6248ff"></path>
            </g>
        </g>
    </g>
</svg>
