<?xml version="1.0" encoding="UTF-8"?>
<svg width="20px" height="20px" viewBox="0 0 20 20" version="1.1" xmlns="http://www.w3.org/2000/svg" xmlns:xlink="http://www.w3.org/1999/xlink">
    <!-- Generator: Sketch 52.5 (67469) - http://www.bohemiancoding.com/sketch -->
    <title>ic_rise</title>
    <desc>Created with Sketch.</desc>
    <g id="Symbols" stroke="none" stroke-width="1" fill="none" fill-rule="evenodd">
        <g id="ic_rise">
            <g>
                <rect id="矩形" fill="#000000" opacity="0" x="0" y="0" width="20" height="20"></rect>
                <path d="M10.0868725,2.65839033 C9.90110454,2.44720322 9.59660181,2.44720322 9.41089784,2.65839033 L3.8497226,8.994707 C3.66398665,9.20584614 3.74513622,9.37933612 4.03133392,9.37933612 L6.11046381,9.37933612 C6.39670946,9.37933612 6.63032621,9.60734146 6.63032621,9.88690459 L6.63032621,13.9472445 C6.63032621,14.2267437 6.8637671,14.454813 7.15001275,14.454813 L12.3477575,14.454813 C12.6339233,14.454813 12.867476,14.2267437 12.867476,13.9472445 L12.8674761,9.88690459 C12.8674761,9.60734146 13.1010129,9.37933612 13.3872266,9.37933612 L15.4662605,9.37933612 C15.7525701,9.37933612 15.8337677,9.20584614 15.6480797,8.994707 L10.0868725,2.65839033 Z M8.70934418,16.484959 C8.70934418,17.0460037 8.24439682,17.5 7.66976326,17.5 C7.09522562,17.5 6.63031023,17.0460037 6.63031023,16.484959 C6.63031023,15.9238663 7.09522562,15.469822 7.66976326,15.469822 C8.24439682,15.469822 8.70934418,15.9238663 8.70934418,16.484959 Z M12.8674601,16.484959 C12.8674601,17.0460037 12.4025607,17.5 11.8278472,17.5 C11.2533255,17.5 10.7884101,17.0460037 10.7884101,16.484959 C10.7884101,15.9238663 11.2533255,15.469822 11.8278472,15.469822 C12.4025607,15.469822 12.8674601,15.9238663 12.8674601,16.484959 Z M7.66976326,15.469822 L11.8278472,15.469822 L11.8278472,17.5 L7.66976326,17.5 L7.66976326,15.469822 Z" id="形状" fill="#FF6666" fill-rule="nonzero"></path>
            </g>
        </g>
    </g>
</svg>