<?xml version="1.0" encoding="UTF-8"?>
<svg width="20px" height="20px" viewBox="0 0 20 20" version="1.1" xmlns="http://www.w3.org/2000/svg" xmlns:xlink="http://www.w3.org/1999/xlink">
    <!-- Generator: Sketch 52.5 (67469) - http://www.bohemiancoding.com/sketch -->
    <title>ic_rdzs</title>
    <desc>Created with Sketch.</desc>
    <defs>
        <linearGradient x1="0%" y1="50%" x2="101.734617%" y2="59.7295168%" id="linearGradient-1">
            <stop stop-color="#8A54BE" offset="0%"></stop>
            <stop stop-color="#C560EF" offset="100%"></stop>
        </linearGradient>
    </defs>
    <g id="Symbols" stroke="none" stroke-width="1" fill="none" fill-rule="evenodd">
        <g id="ic_rdzs">
            <g>
                <rect id="矩形" fill="#000000" opacity="0" x="0" y="0" width="20" height="20"></rect>
                <path d="M10,1.67504193e-15 C4.46665912,1.67504193e-15 0,4.4666827 0,10 C0,15.5333173 4.4666827,20 10,20 C15.5333173,20 20,15.5333173 20,10 C20,4.4666827 15.5333173,0 10,1.67504193e-15 Z M11.9333135,17.4000104 C11.4999741,17.699991 11.333305,17.6000132 11.6333329,17.300009 C11.9000033,17.0000283 13.6000038,14.8666884 10.933323,13.3333569 C10.0666676,12.8333498 9.76663979,11.6333564 9.76663979,11.366686 C9.76663979,11.0667053 9.83333098,10.9333465 9.59999434,11.0333244 C9.39999151,11.1000156 4.99997643,13.1999745 8.63329043,17.2999854 C8.86665064,17.5666558 8.76660207,17.633347 8.33330976,17.433297 C-1.5667124,12.1333164 11.5666181,3.76662565 11.7666209,3.66662423 C11.9666238,3.53331259 11.8999326,3.73331542 11.7332871,4.06660632 C11.4333065,4.6666148 10.6666054,7.93328053 12.699991,9.26663272 C14.7666869,10.5999849 17.7332777,13.3333333 11.9333135,17.3999868 L11.9333135,17.4000104 Z" id="形状" fill="url(#linearGradient-1)" fill-rule="nonzero"></path>
            </g>
        </g>
    </g>
</svg>