<?xml version="1.0" encoding="UTF-8"?>
<svg width="20px" height="20px" viewBox="0 0 20 20" version="1.1" xmlns="http://www.w3.org/2000/svg" xmlns:xlink="http://www.w3.org/1999/xlink">
    <!-- Generator: Sketch 52.5 (67469) - http://www.bohemiancoding.com/sketch -->
    <title>ic_representative_works</title>
    <desc>Created with Sketch.</desc>
    <defs>
        <linearGradient x1="100%" y1="100%" x2="0%" y2="0%" id="linearGradient-1">
            <stop stop-color="#2853FF" offset="0%"></stop>
            <stop stop-color="#933EFE" offset="100%"></stop>
        </linearGradient>
    </defs>
    <g id="Symbols" stroke="none" stroke-width="1" fill="none" fill-rule="evenodd">
        <g id="ic_representative_works">
            <g>
                <g>
                    <rect id="矩形" fill="#000000" opacity="0" x="0" y="0" width="20" height="20"></rect>
                    <g id="分组-51" transform="translate(1.000000, 1.000000)" fill-rule="nonzero">
                        <path d="M9.375,0 C4.2,0 0,4.2 0,9.375 C0,14.55 4.2,18.75 9.375,18.75 C14.55,18.75 18.75,14.55 18.75,9.375 C18.75,4.2 14.55,0 9.375,0 Z" id="路径" fill="url(#linearGradient-1)"></path>
                        <path d="M4.26837497,6.00722377 L3.90718646,7.71214467 L4.15279465,7.71214467 L4.15279465,12.8266851 L2.57067784,12.8266851 L2.57067784,9.21468886 L2,9.21468886 L2.6790344,6.00722377 L4.26837497,6.00722377 Z M6.27669421,6 L6.12499503,6.96087257 L8.84124375,6.96087257 L8.84124375,7.5098791 L7.59864415,7.5098791 L7.59864415,8.96185691 L8.73277607,8.96185691 L8.73277607,9.51086344 L7.59864415,9.51086344 L7.59864415,10.9485048 L8.73277607,10.9485048 L8.73277607,11.4975114 L7.59864415,11.4975114 L7.59864415,12.8411326 L6.01663849,12.8411326 L6.01663849,7.69758599 L5.78547784,9.18579378 L4.34061267,9.18579378 L4.83194018,6 L6.27669421,6 Z M12.4530177,12.0970843 C12.4530177,12.4727203 12.1496194,12.7834536 11.7666484,12.7834536 L9.27433656,12.7834536 L9.27433656,9.35916427 L12.4530177,9.35916427 L12.4530177,12.0970843 Z M15.5014487,8.27559874 C15.5014487,8.65123479 15.1908266,8.96185691 14.8151906,8.96185691 L9.78000048,8.96185691 L9.78000048,6.15892294 L15.5014487,6.15892294 L15.5014487,8.27559874 Z M11.0803902,9.91539457 L10.646964,9.91539457 L10.646964,12.2343359 L10.8781247,12.2343359 C10.993705,12.2343359 11.0803902,12.1476507 11.0803902,12.0248466 L11.0803902,9.91539457 Z M13.7894152,6.71515325 L11.4921451,6.71515325 L11.4921451,8.41285037 L13.5798147,8.41285037 C13.6953951,8.41285037 13.7894152,8.31894136 13.7894152,8.20336104 L13.7894152,6.71515325 Z M16,12.0970843 C16,12.4727203 15.6966017,12.7834536 15.3136307,12.7834536 L12.8286538,12.7834536 L12.8286538,9.35916427 L16,9.35916427 L16,12.0970843 Z M14.6273725,9.91539457 L14.2011701,9.91539457 L14.2011701,12.2343359 L14.425107,12.2343359 C14.5406873,12.2343359 14.6273725,12.1476507 14.6273725,12.0248466 L14.6273725,9.91539457 Z" id="形状" fill="#FFFFFF"></path>
                    </g>
                </g>
            </g>
        </g>
    </g>
</svg>