<?xml version="1.0" encoding="UTF-8"?>
<svg width="20px" height="20px" viewBox="0 0 20 20" version="1.1" xmlns="http://www.w3.org/2000/svg" xmlns:xlink="http://www.w3.org/1999/xlink">
    <!-- Generator: Sketch 52.5 (67469) - http://www.bohemiancoding.com/sketch -->
    <title>ic_search</title>
    <desc>Created with Sketch.</desc>
    <defs>
        <linearGradient x1="100%" y1="100%" x2="0%" y2="0%" id="linearGradient-1">
            <stop stop-color="#2853FF" offset="0%"></stop>
            <stop stop-color="#933EFE" offset="100%"></stop>
        </linearGradient>
    </defs>
    <g id="Symbols" stroke="none" stroke-width="1" fill="none" fill-rule="evenodd">
        <g id="ic_search">
            <g>
                <g>
                    <rect id="矩形" fill="#000000" opacity="0" x="0" y="0" width="20" height="20"></rect>
                    <path d="M9.95,7.35 C9.25,7.35 8.6,7.6 8.1,8.1 C7.05,9.15 7.05,10.8 8.1,11.85 C9.15,12.9 10.8,12.9 11.85,11.85 C12.9,10.8 12.9,9.15 11.85,8.1 C11.3,7.6 10.65,7.35 9.95,7.35 Z M10,0 C4.5,0 0,4.5 0,10 C0,15.5 4.5,20 10,20 C15.5,20 20,15.5 20,10 C20,4.5 15.5,0 10,0 Z M12.55,12.6 C11.85,13.3 10.9,13.65 10,13.65 C9.05,13.65 8.15,13.3 7.45,12.6 C6.05,11.2 6.05,8.85 7.45,7.45 C8.6,6.3 10.25,6.1 11.6,6.75 L15.8,4.25 L13.4,8.7 C13.85,10 13.6,11.55 12.55,12.6 Z" id="形状" fill="url(#linearGradient-1)" fill-rule="nonzero"></path>
                </g>
            </g>
        </g>
    </g>
</svg>