<?xml version="1.0" encoding="UTF-8"?>
<svg width="20px" height="20px" viewBox="0 0 20 20" version="1.1" xmlns="http://www.w3.org/2000/svg" xmlns:xlink="http://www.w3.org/1999/xlink">
    <!-- Generator: Sketch 52.5 (67469) - http://www.bohemiancoding.com/sketch -->
    <title>ic_show</title>
    <desc>Created with Sketch.</desc>
    <defs>
        <linearGradient x1="100%" y1="100%" x2="0%" y2="0%" id="linearGradient-1">
            <stop stop-color="#2853FF" offset="0%"></stop>
            <stop stop-color="#933EFE" offset="100%"></stop>
        </linearGradient>
    </defs>
    <g id="Symbols" stroke="none" stroke-width="1" fill="none" fill-rule="evenodd">
        <g id="ic_show">
            <g>
                <g>
                    <rect id="矩形" fill="#000000" opacity="0" x="0" y="0" width="20" height="20"></rect>
                    <circle id="椭圆形" fill="url(#linearGradient-1)" cx="10" cy="10" r="10"></circle>
                    <path d="M6.76999394,4 C5.24047095,4 4,5.24047095 4,6.77016983 C4,8.29988469 5.24047095,9.54033966 6.76999394,9.54033966 L8.91589902,9.54033966 C9.2606253,9.54033966 9.54033964,9.2606253 9.54033964,8.91609089 L9.54033964,6.77016983 C9.54033964,5.24047095 8.29988467,4 6.76999394,4 Z M6.76999394,10.457142 C5.24047095,10.457142 4,11.6972453 4,13.2273119 C4,14.7573945 5.24047095,15.9974817 6.76999394,15.9974817 C8.29988467,15.9974817 9.54033964,14.7573945 9.54033964,13.2273119 L9.54033964,11.0814068 C9.54033964,10.7368724 9.26062528,10.457142 8.91589902,10.457142 L6.76999394,10.457142 Z M13.227136,4.96368263 C13.7098647,4.96368263 14.1635091,5.15150728 14.5047498,5.49274792 C14.8457985,5.83398856 15.0338151,6.287617 15.0338151,6.77018581 C15.0338151,7.25275463 14.8457985,7.70639906 14.5047498,8.0476397 C14.1635091,8.38888034 13.7098647,8.576705 13.227136,8.576705 L11.4204409,8.576705 L11.4204409,6.77016983 C11.4204409,6.28760102 11.6086493,5.83397256 11.949874,5.49273194 C12.2910986,5.15149131 12.7445672,4.96368263 13.227136,4.96368263 Z M13.227136,4 C11.6972293,4 10.4571421,5.24047095 10.4571421,6.77016983 L10.4571421,8.91609089 C10.4571421,9.2606253 10.7365206,9.54033966 11.0812149,9.54033966 L13.227136,9.54033966 C14.7570267,9.54033966 15.9973058,8.29988469 15.9973058,6.77016983 C15.9973058,5.24047095 14.7570107,4 13.227136,4 Z M13.227136,10.457142 L11.0812149,10.457142 C10.7365047,10.457142 10.4571421,10.7365206 10.4571421,11.0814068 L10.4571421,13.2273119 C10.4571421,14.7573945 11.6972453,15.9974817 13.227136,15.9974817 C14.7570267,15.9974817 15.9973058,14.7573945 15.9973058,13.2273119 C15.9973058,11.6972453 14.7570107,10.457142 13.227136,10.457142 Z" id="形状" fill="#FFFFFF" fill-rule="nonzero"></path>
                </g>
            </g>
        </g>
    </g>
</svg>