<?xml version="1.0" encoding="UTF-8"?>
<svg width="20px" height="20px" viewBox="0 0 20 20" version="1.1" xmlns="http://www.w3.org/2000/svg" xmlns:xlink="http://www.w3.org/1999/xlink">
    <!-- Generator: Sketch 52.5 (67469) - http://www.bohemiancoding.com/sketch -->
    <title>ic_sjzl</title>
    <desc>Created with Sketch.</desc>
    <defs>
        <linearGradient x1="100%" y1="100%" x2="0%" y2="0%" id="linearGradient-1">
            <stop stop-color="#2853FF" offset="0%"></stop>
            <stop stop-color="#933EFE" offset="100%"></stop>
        </linearGradient>
    </defs>
    <g id="Symbols" stroke="none" stroke-width="1" fill="none" fill-rule="evenodd">
        <g id="ic_sjzl">
            <g>
                <g>
                    <rect id="矩形" fill="#000000" opacity="0" x="0" y="0" width="20" height="20"></rect>
                    <path d="M10,0 C4.48275862,0 0,4.48275862 0,10 C0,15.5172414 4.48275862,20 10,20 C15.5172414,20 20,15.5172414 20,10 C20,4.48275862 15.5172414,0 10,0 Z M15.1494253,14.1609195 C14.8735632,14.4367816 14.4942529,14.5862069 14.1034483,14.5862069 C13.2873563,14.5862069 12.6206897,13.9425287 12.6206897,13.137931 C12.6206897,12.9770115 12.6551724,12.816092 12.7126437,12.6666667 L11.1149425,11.862069 C10.7126437,12.4022989 10.0689655,12.7126437 9.40229885,12.7126437 C8.94252874,12.7126437 8.48275862,12.5632184 8.11494253,12.2873563 L7.32183908,12.6896552 C7.36781609,12.8275862 7.40229885,12.9770115 7.40229885,13.1264368 C7.40229885,13.5172414 7.24137931,13.8850575 6.96551724,14.1494253 C6.68965517,14.4252874 6.31034483,14.5747126 5.91954023,14.5747126 C5.10344828,14.5747126 4.43678161,13.9310345 4.43678161,13.1264368 C4.43678161,12.7356322 4.59770115,12.3678161 4.87356322,12.1034483 C5.14942529,11.8275862 5.52873563,11.6781609 5.91954023,11.6781609 C6.40229885,11.6781609 6.86206897,11.908046 7.13793103,12.2988506 L7.7816092,11.9770115 C7.44827586,11.6091954 7.24137931,11.1494253 7.24137931,10.6206897 C7.24137931,9.54022989 8.08045977,8.66666667 9.16091954,8.55172414 L9.16091954,7.13793103 C8.44827586,7.03448276 7.89655172,6.43678161 7.89655172,5.71264368 C7.89655172,5.32183908 8.05747126,4.95402299 8.33333333,4.68965517 C8.6091954,4.4137931 8.98850575,4.26436782 9.37931034,4.26436782 C10.1954023,4.26436782 10.862069,4.90804598 10.862069,5.71264368 C10.862069,6.42528736 10.3218391,7.03448276 9.59770115,7.13793103 L9.59770115,8.56321839 C10.1494253,8.62068966 10.6551724,8.87356322 11.0114943,9.28735632 L12.0114943,8.88505747 C11.8965517,8.43678161 12.0114943,7.95402299 12.3218391,7.6091954 C12.8505747,7 13.7931034,6.91954023 14.4137931,7.43678161 C14.7126437,7.67816092 14.8965517,8.03448276 14.9310345,8.42528736 C14.9655172,8.8045977 14.8390805,9.1954023 14.5862069,9.48275862 C14.0574713,10.091954 13.1149425,10.1724138 12.4942529,9.65517241 C12.3678161,9.55172414 12.2643678,9.42528736 12.183908,9.28735632 L11.2643678,9.65517241 C11.4367816,9.95402299 11.5287356,10.2873563 11.5287356,10.6321839 C11.5287356,10.9310345 11.4597701,11.2298851 11.3218391,11.5057471 L12.8965517,12.2988506 C13.183908,11.9195402 13.6206897,11.7011494 14.1034483,11.7011494 C14.4942529,11.7011494 14.8735632,11.8505747 15.1494253,12.1264368 C15.4252874,12.3908046 15.5862069,12.7701149 15.5862069,13.1494253 C15.5862069,13.5172414 15.4252874,13.8850575 15.1494253,14.1609195 Z" id="形状" fill="url(#linearGradient-1)" fill-rule="nonzero"></path>
                </g>
            </g>
        </g>
    </g>
</svg>