<?xml version="1.0" encoding="UTF-8"?>
<svg width="22px" height="22px" viewBox="0 0 22 22" version="1.1" xmlns="http://www.w3.org/2000/svg" xmlns:xlink="http://www.w3.org/1999/xlink">
    <!-- Generator: Sketch 52.5 (67469) - http://www.bohemiancoding.com/sketch -->
    <title>ic_upload</title>
    <desc>Created with Sketch.</desc>
    <defs>
        <linearGradient x1="50%" y1="100%" x2="50%" y2="0%" id="linearGradient-1">
            <stop stop-color="#2853FF" offset="0%"></stop>
            <stop stop-color="#933EFE" offset="100%"></stop>
        </linearGradient>
    </defs>
    <g id="Symbols" stroke="none" stroke-width="1" fill="none" fill-rule="evenodd">
        <g id="ic_upload">
            <g>
                <rect id="矩形" fill="#000000" opacity="0" x="0" y="0" width="22" height="22"></rect>
                <path d="M20.1613915,15.4002481 C20.1585097,15.4002481 20.0725445,15.2330622 19.9703875,15.0287564 L17.2917648,9.67201816 C17.1895834,9.46768796 16.919086,9.30057532 16.6906432,9.30064858 L14.4706645,9.30138121 C14.2422217,9.30145448 14.0552962,9.48842138 14.0552962,9.71687948 L14.0552962,10.4226697 C14.0552962,10.6511034 14.2421973,10.8381436 14.4706645,10.8383145 L15.1764586,10.8387785 C15.4049014,10.8389495 15.674715,11.006575 15.7760416,11.2113203 L17.6746032,15.0477315 C17.7759054,15.2524769 17.6719167,15.4199802 17.4434495,15.4199802 L14.4280238,15.4199802 C14.199581,15.4199802 14.0126555,15.6068739 14.0126555,15.835332 L14.0126555,18.0082848 C14.0126555,18.2367185 13.8257544,18.4236366 13.5972871,18.4236366 L8.37152941,18.4236366 C8.14308658,18.4236366 7.95616106,18.2367429 7.95616106,18.0082848 L7.95616106,15.835332 C7.95616106,15.6068983 7.76925995,15.4199802 7.54079271,15.4199802 L4.46426335,15.4199802 C4.23582053,15.4199802 4.1345916,15.2538688 4.23933729,15.0508574 L6.22486538,11.2020892 C6.32961108,10.9990777 6.60220878,10.8330884 6.83065158,10.833235 L7.51815359,10.8336745 C7.74659642,10.8338455 7.93352194,10.6470495 7.93352194,10.4186159 L7.93352194,9.71895526 C7.93352194,9.49052158 7.74662084,9.30367679 7.51815359,9.30375006 L5.30835886,9.30448268 C5.07991603,9.30455595 4.80907674,9.47164418 4.70648016,9.67575458 L2.0145719,15.0325905 C1.91199976,15.2367009 1.83047932,15.4037159 1.83340994,15.4037159 C1.836365,15.4037159 1.83875836,15.5906095 1.83875836,15.8190676 L1.83875836,19.5910074 C1.83875836,19.8194411 2.02565946,20.0063592 2.2541267,20.0063592 L19.7512983,20.0063592 C19.9797411,20.0063592 20.1666667,19.8194655 20.1666667,19.5910074 L20.1666666,15.8155754 C20.1666422,15.5871417 20.1642977,15.4002481 20.1613915,15.4002481 Z M7.19617473,7.45674378 L9.47566969,7.45674378 L9.47566969,13.8550361 L12.5284121,13.8550361 L12.5284121,7.45674378 L14.9299923,7.45674378 C15.1584351,7.45674378 15.2213949,7.31686051 15.0698812,7.14588933 L11.286874,2.87727596 C11.1353603,2.70630481 10.8890894,2.70777006 10.7396516,2.88054838 L7.05254931,7.14261694 C6.90308704,7.31539525 6.96770749,7.45674378 7.19617473,7.45674378 Z" id="形状" fill="url(#linearGradient-1)" fill-rule="nonzero"></path>
            </g>
        </g>
    </g>
</svg>