<?xml version="1.0" standalone="no"?><!DOCTYPE svg PUBLIC "-//W3C//DTD SVG 1.1//EN" "http://www.w3.org/Graphics/SVG/1.1/DTD/svg11.dtd"><svg t="1560416713835" class="icon" style="" viewBox="0 0 1024 1024" version="1.1" xmlns="http://www.w3.org/2000/svg" p-id="3052" xmlns:xlink="http://www.w3.org/1999/xlink" width="22" height="22"><defs><style type="text/css"></style></defs><path d="M938.402909 716.8c-0.093091 0-4.096-7.773091-8.843636-17.268364l-124.741818-249.344a34.350545 34.350545 0 0 0-27.927273-17.268363h-103.330909a19.409455 19.409455 0 0 0-19.362909 19.362909v32.861091c0 10.612364 8.704 19.316364 19.362909 19.316363h32.814545c10.658909 0 23.226182 7.866182 27.927273 17.361455l88.389818 178.594909c4.654545 9.495273-0.139636 17.314909-10.798545 17.314909h-140.334546a19.409455 19.409455 0 0 0-19.316363 19.316364v101.143272a19.409455 19.409455 0 0 1-19.36291 19.36291H389.678545a19.409455 19.409455 0 0 1-19.362909-19.36291v-101.143272a19.409455 19.409455 0 0 0-19.316363-19.316364H207.778909c-10.612364 0-15.36-7.726545-10.472727-17.221818l92.439273-179.106909a34.909091 34.909091 0 0 1 28.206545-17.175273h31.976727a19.362909 19.362909 0 0 0 19.362909-19.269818v-32.581818a19.362909 19.362909 0 0 0-19.362909-19.316364h-102.865454a34.443636 34.443636 0 0 0-28.020364 17.314909l-125.253818 249.344a414.580364 414.580364 0 0 0-8.471273 17.221818c0.139636 0 0.279273 8.750545 0.279273 19.362909v175.569455c0 10.612364 8.704 19.316364 19.316364 19.316364h814.405818a19.409455 19.409455 0 0 0 19.362909-19.316364v-175.709091c0-10.658909-0.139636-19.362909-0.279273-19.362909zM334.941091 347.089455h106.123636v297.797818h142.056728V347.089455h111.802181c10.612364 0 13.544727-6.516364 6.516364-14.475637l-176.081455-198.702545a16.523636 16.523636 0 0 0-25.460363 0.186182L328.285091 332.474182c-6.981818 8.005818-3.956364 14.615273 6.656 14.615273z" fill="#ffffff" p-id="3053"></path></svg>
