<?xml version="1.0" encoding="UTF-8"?>
<svg width="20px" height="20px" viewBox="0 0 20 20" version="1.1" xmlns="http://www.w3.org/2000/svg" xmlns:xlink="http://www.w3.org/1999/xlink">
    <!-- Generator: Sketch 52.5 (67469) - http://www.bohemiancoding.com/sketch -->
    <title>ic_upcoming</title>
    <desc>Created with Sketch.</desc>
    <defs>
        <linearGradient x1="100%" y1="100%" x2="0%" y2="0%" id="linearGradient-1">
            <stop stop-color="#2853FF" offset="0%"></stop>
            <stop stop-color="#933EFE" offset="100%"></stop>
        </linearGradient>
    </defs>
    <g id="Symbols" stroke="none" stroke-width="1" fill="none" fill-rule="evenodd">
        <g id="ic_upcoming">
            <g>
                <g>
                    <rect id="矩形" fill="#000000" opacity="0" x="0" y="0" width="20" height="20"></rect>
                    <path d="M10.375,0 C15.55,0 19.75,4.2 19.75,9.375 C19.75,14.55 15.55,18.75 10.375,18.75 C5.2,18.75 1,14.55 1,9.375 C1,4.2 5.2,0 10.375,0 Z M13.057554,5.5507725 L13.057554,6.62401227 C13.057554,7.20780752 12.5822621,7.68309942 11.9984668,7.68309942 C11.7142352,7.68309942 11.4476943,7.57223729 11.247199,7.37056257 C11.0490624,7.17006722 10.9393796,6.90588513 10.9393796,6.62519165 L10.9393796,5.55431065 L10.9393796,5.5507725 L9.05472343,5.5507725 L9.05472343,6.62519165 C9.05472343,7.20898691 8.57943154,7.68427881 7.99563628,7.68427881 C7.41537917,7.68427881 6.94362543,7.20898691 6.94362543,6.62519165 L6.94362543,5.55431065 L6.94362543,5.55195188 C5.86802689,5.57553957 5,6.45771907 5,7.53921453 L5,12.0196957 C5,13.1165232 5.89161458,14.0081378 6.98844203,14.0081378 L13.011558,14.0081378 C14.1083854,14.0081378 15,13.1165232 15,12.0196957 L15,7.53803515 C15,6.45771907 14.1331525,5.57553957 13.057554,5.5507725 Z M8.75869796,12.1706569 C8.75869796,12.4607855 8.52517986,12.6943036 8.2350513,12.6943036 L7.76919448,12.6943036 C7.48614223,12.6943036 7.25262413,12.4607855 7.24554782,12.1706569 L7.24554782,12.0444628 C7.24554782,11.7543342 7.47906593,11.5208161 7.76919448,11.5208161 L8.2350513,11.5208161 C8.52517986,11.5208161 8.75869796,11.7543342 8.75869796,12.0444628 L8.75869796,12.1706569 Z M8.75869796,10.5124425 C8.75869796,10.8025711 8.52517986,11.0360892 8.2350513,11.0360892 L7.76919448,11.0360892 C7.48614223,11.0360892 7.25262413,10.8025711 7.24554782,10.5124425 L7.24554782,10.3862484 C7.24554782,10.0961198 7.47906593,9.86260172 7.76919448,9.86260172 L8.2350513,9.86260172 C8.52517986,9.86260172 8.75869796,10.0961198 8.75869796,10.3862484 L8.75869796,10.5124425 Z M8.75869796,8.84951056 C8.75869796,9.13963911 8.52517986,9.37315721 8.2350513,9.37315721 L7.76919448,9.37315721 C7.48614223,9.37315721 7.25262413,9.13963911 7.24554782,8.84951056 L7.24554782,8.72331643 C7.24554782,8.43318788 7.47906593,8.19966977 7.76919448,8.19966977 L8.2350513,8.19966977 C8.52517986,8.19966977 8.75869796,8.43318788 8.75869796,8.72331643 L8.75869796,8.84951056 Z M10.7565751,12.1706569 C10.7565751,12.4607855 10.523057,12.6943036 10.2329284,12.6943036 L9.76707159,12.6943036 C9.47694304,12.6943036 9.25050124,12.4607855 9.24342493,12.1706569 L9.24342493,12.0444628 C9.24342493,11.7543342 9.47694304,11.5208161 9.76707159,11.5208161 L10.2329284,11.5208161 C10.523057,11.5208161 10.7565751,11.7543342 10.7565751,12.0444628 L10.7565751,12.1706569 Z M10.7565751,10.5124425 C10.7565751,10.8025711 10.523057,11.0360892 10.2329284,11.0360892 L9.76707159,11.0360892 C9.47694304,11.0360892 9.25050124,10.8025711 9.24342493,10.5124425 L9.24342493,10.3862484 C9.24342493,10.0961198 9.47694304,9.86260172 9.76707159,9.86260172 L10.2329284,9.86260172 C10.523057,9.86260172 10.7565751,10.0961198 10.7565751,10.3862484 L10.7565751,10.5124425 Z M10.7565751,8.84951056 C10.7565751,9.13963911 10.523057,9.37315721 10.2329284,9.37315721 L9.76707159,9.37315721 C9.47694304,9.37315721 9.25050124,9.13963911 9.24342493,8.84951056 L9.24342493,8.72331643 C9.24342493,8.43318788 9.47694304,8.19966977 9.76707159,8.19966977 L10.2329284,8.19966977 C10.523057,8.19966977 10.7565751,8.43318788 10.7565751,8.72331643 L10.7565751,8.84951056 Z M12.7544522,12.1706569 C12.7544522,12.4607855 12.5209341,12.6943036 12.2308055,12.6943036 L11.7649487,12.6943036 C11.4748201,12.6943036 11.241302,12.4607855 11.241302,12.1706569 L11.241302,12.0444628 C11.241302,11.7543342 11.4748201,11.5208161 11.7649487,11.5208161 L12.2308055,11.5208161 C12.5209341,11.5208161 12.7544522,11.7543342 12.7544522,12.0444628 L12.7544522,12.1706569 Z M12.7544522,10.5124425 C12.7544522,10.8025711 12.5209341,11.0360892 12.2308055,11.0360892 L11.7649487,11.0360892 C11.4748201,11.0360892 11.241302,10.8025711 11.241302,10.5124425 L11.241302,10.3862484 C11.241302,10.0961198 11.4748201,9.86260172 11.7649487,9.86260172 L12.2308055,9.86260172 C12.5209341,9.86260172 12.7544522,10.0961198 12.7544522,10.3862484 L12.7544522,10.5124425 Z M12.7544522,8.85540748 C12.7544522,9.14553603 12.5209341,9.37905413 12.2308055,9.37905413 L11.7649487,9.37905413 C11.4748201,9.37905413 11.241302,9.14553603 11.241302,8.85540748 L11.241302,8.72921335 C11.241302,8.4390848 11.4748201,8.20556669 11.7649487,8.20556669 L12.2308055,8.20556669 C12.5209341,8.20556669 12.7544522,8.4390848 12.7544522,8.72921335 L12.7544522,8.85540748 Z M7.99681566,7.1795023 C8.29873806,7.1795023 8.55112631,6.93419035 8.55112631,6.62519165 L8.55112631,5.55431065 C8.55702323,5.24531195 8.30581436,5 8.00271258,5 C7.6996108,5 7.44840193,5.24531195 7.44840193,5.55431065 L7.44840193,6.62519165 C7.44840193,6.92711405 7.69371388,7.1795023 7.99681566,7.1795023 Z M11.9984668,7.1795023 C12.3003892,7.1795023 12.5527775,6.93419035 12.5527775,6.62519165 L12.5527775,5.55431065 C12.5468805,5.24531195 12.3003892,5 11.9984668,5 C11.6965444,5 11.4441562,5.24531195 11.4441562,5.55431065 L11.4441562,6.62519165 C11.4441562,6.92711405 11.6894681,7.1795023 11.9984668,7.1795023 Z" id="合并形状" fill="url(#linearGradient-1)" fill-rule="nonzero"></path>
                </g>
            </g>
        </g>
    </g>
</svg>