<?xml version="1.0" encoding="UTF-8"?>
<svg width="20px" height="20px" viewBox="0 0 20 20" version="1.1" xmlns="http://www.w3.org/2000/svg" xmlns:xlink="http://www.w3.org/1999/xlink">
    <!-- Generator: Sketch 52.5 (67469) - http://www.bohemiancoding.com/sketch -->
    <title>ic_value</title>
    <desc>Created with Sketch.</desc>
    <defs>
        <linearGradient x1="100%" y1="100%" x2="0%" y2="0%" id="linearGradient-1">
            <stop stop-color="#2853FF" offset="0%"></stop>
            <stop stop-color="#933EFE" offset="100%"></stop>
        </linearGradient>
    </defs>
    <g id="Symbols" stroke="none" stroke-width="1" fill="none" fill-rule="evenodd">
        <g id="ic_value">
            <g>
                <rect id="矩形" fill="#000000" opacity="0" x="0" y="0" width="20" height="20"></rect>
                <path d="M4.40879087,14.1045888 L15.2074043,14.1045888 L15.2074043,4.62979785 L4.40879087,4.62979785 L4.40879087,14.1045888 Z M9.97556318,9.30476269 L13.3133202,9.30476269 C13.3133202,9.30476269 13.8790056,9.68321343 13.3133202,10.0782071 L9.97556318,10.0782071 C9.97556318,10.0782071 9.53737032,9.67506779 9.97556318,9.30476269 Z M13.4855221,11.628711 L10.9572699,11.6250958 C10.2194053,11.1067053 11.1402258,10.8516515 11.1402258,10.8516515 L13.2166711,10.8564793 C13.994623,10.9823245 13.4855221,11.628711 13.4855221,11.628711 Z M13.3133201,8.53131829 L9.97556318,8.53131829 C9.97556318,8.53131829 9.52590697,8.20229039 9.97556318,7.73895136 L13.3133202,7.75789679 C13.3133201,7.75789679 13.8904461,8.15675733 13.3133201,8.53131829 Z M9.97556318,6.21098515 L13.3253326,6.21734605 C13.3253326,6.21734605 13.8732625,6.5960027 13.3133201,6.98440665 L9.97556318,6.98440665 C9.97556318,6.98442952 9.44584656,6.5936002 9.97556318,6.21098515 Z M7.61948999,9.11139586 C7.61948999,9.11139586 6.47253716,9.07176608 5.94627557,8.31097486 C5.94627557,8.31097486 5.66598407,7.85335608 6.04351956,7.27561238 C6.04351956,7.27561238 6.36957293,6.79502114 7.01595946,6.59771879 L7.03048884,6.01761835 L7.61951285,6.01761835 L7.61951285,6.59771879 L8.01219552,6.59771879 C8.01219552,6.59771879 8.49894174,6.61158465 8.60119665,6.79106272 L8.60119665,7.37116317 L8.40485533,7.37116317 L8.40485533,7.56452999 L8.01219552,7.56452999 L8.01219552,7.37116317 L7.22683017,7.37116317 C7.22683017,7.37116317 6.53738172,7.79427749 7.14754771,8.02308688 C7.14754771,8.02308688 7.44499993,8.13222897 7.64234803,8.14797104 C7.64234803,8.14797104 8.02132504,8.20231326 8.35165714,8.41254335 C8.35165714,8.41254335 8.63425962,8.56703544 8.79756088,8.91809768 L8.79756088,10.0782528 C8.79756088,10.0782528 8.15442343,10.7361713 7.61953572,10.6583304 L7.61953572,11.4317748 L7.02552367,11.4317748 L7.03051172,10.6583304 L5.85246369,10.6583304 C5.85246369,10.6583304 5.47833744,10.3032869 5.85246369,9.88488601 L7.61953572,9.88488601 C7.61948999,9.88484024 7.89696714,9.64296583 7.61948999,9.11139586 Z M10.0000229,0 C4.47715912,0 8.27782287e-13,4.47713622 8.27782287e-13,10 C8.27782287e-13,15.5228638 4.4771591,20 10.0000229,20 C15.5228638,20 19.9999771,15.5228409 19.9999771,10 C19.9999771,4.4771591 15.5228638,0 10.0000229,0 Z M16.1891339,16.0381883 L15.0111087,14.6846892 L14.8147903,14.6846892 L14.0294249,16.0381883 L13.2440596,14.6846892 L13.0476953,14.6846892 L12.2623758,16.0381883 L11.6733746,14.6846892 L11.4770104,14.6846892 L10.6916451,16.0381883 L10.1026439,14.6846892 L9.90632547,14.6846892 L9.12098299,16.0381883 L8.33559476,14.6846892 L8.13927631,14.6846892 L7.35391096,16.0381883 L6.76488695,14.6846892 L6.56854563,14.6846892 L5.97952162,16.0381883 L4.99783782,14.6846892 L4.80149649,14.6846892 L3.62347133,16.0381883 L3.62347127,4.62979785 C3.62347127,4.62979785 3.56697823,3.66298665 4.40883662,3.66298665 L15.4038143,3.66298665 C15.4038143,3.66298665 16.1891339,3.78926656 16.1891339,4.62979785 L16.1891339,16.0381883 Z" id="形状" fill="url(#linearGradient-1)" fill-rule="nonzero"></path>
            </g>
        </g>
    </g>
</svg>