<?xml version="1.0" encoding="UTF-8"?>
<svg width="20px" height="20px" viewBox="0 0 20 20" version="1.1" xmlns="http://www.w3.org/2000/svg" xmlns:xlink="http://www.w3.org/1999/xlink">
    <!-- Generator: Sketch 52.5 (67469) - http://www.bohemiancoding.com/sketch -->
    <title>ic_women </title>
    <desc>Created with Sketch.</desc>
    <g id="Symbols" stroke="none" stroke-width="1" fill="none" fill-rule="evenodd">
        <g id="ic_women-" fill="#FF95FF">
            <g id="Combined-Shape">
                <path d="M7.40663739,8.74664127 L6.94636562,8.74664127 L6.08142489,12.8701622 L5,12.8701622 L6.09038848,7.02501356 C6.21035566,6.38510592 6.75921682,5.92196017 7.3985287,5.92196017 L11.8280791,5.92196017 C12.4668477,5.92196017 13.0157089,6.38510592 13.1363099,7.02501356 L14.2266984,12.8701622 L13.1452735,12.8701622 L12.2803327,8.74664127 L11.8284994,8.74664127 L13.3116521,16.6342303 L11.4646102,16.6342303 L11.4646102,19.4047931 L10.0485499,19.4047931 L10.0485499,16.6342303 L9.18719217,16.6342303 L9.18719217,19.4047931 L7.77052655,19.4047931 L7.77052655,16.6342303 L5.92348471,16.6342303 L7.40663739,8.74664127 Z M11.7759183,3.20619913 C11.7759183,4.42423088 10.8078511,5.4117518 9.6130685,5.4117518 C8.41882919,5.4117518 7.45076196,4.42423088 7.45076196,3.20619913 C7.45076196,1.98752092 8.41882919,1 9.6130685,1 C10.8078511,1 11.7759183,1.98752092 11.7759183,3.20619913 Z"></path>
            </g>
        </g>
    </g>
</svg>