<?xml version="1.0" encoding="UTF-8"?>
<svg width="21px" height="21px" viewBox="0 0 21 21" version="1.1" xmlns="http://www.w3.org/2000/svg" xmlns:xlink="http://www.w3.org/1999/xlink">
    <!-- Generator: Sketch 52.5 (67469) - http://www.bohemiancoding.com/sketch -->
    <title>ic_wordcloud</title>
    <desc>Created with Sketch.</desc>
    <defs>
        <linearGradient x1="100%" y1="100%" x2="0%" y2="0%" id="linearGradient-1">
            <stop stop-color="#2853FF" offset="0%"></stop>
            <stop stop-color="#933EFE" offset="100%"></stop>
        </linearGradient>
    </defs>
    <g id="Symbols" stroke="none" stroke-width="1" fill="none" fill-rule="evenodd">
        <g id="ic_wordcloud">
            <g>
                <g>
                    <rect id="矩形" fill="#000000" opacity="0" x="0" y="0" width="21" height="21"></rect>
                    <path d="M10.5,21 C4.70101013,21 0,16.2989899 0,10.5 C0,4.70101013 4.70101013,0 10.5,0 C16.2989899,0 21,4.70101013 21,10.5 C21,16.2989899 16.2989899,21 10.5,21 Z M7.94957121,7.89954242 L8.72281666,5.4407606 L8.02769546,5.4407606 L7.5759409,7.10888182 L7.56724393,7.10888182 L7.15021363,5.4407606 L6.48990151,5.4407606 L6.08148334,7.10888182 L6.07278637,7.10888182 L5.62103182,5.4407606 L4.90860151,5.4407606 L5.69056515,7.89954242 L6.39427727,7.89954242 L6.81132879,6.2487303 L6.82002576,6.2487303 L7.25445,7.89954242 L7.94957121,7.89954242 Z M9.61769243,6.67445758 C9.61769242,6.57022121 9.6264106,6.47468181 9.64380454,6.38775454 C9.66119848,6.29221515 9.69592273,6.20530908 9.73934394,6.13577575 C9.78285,6.05765152 9.84366515,5.99683637 9.9217894,5.95333031 C10.0000197,5.90990909 10.095644,5.88379695 10.2085773,5.88379696 C10.3215106,5.88379698 10.41705,5.90121213 10.4952591,5.95333031 C10.5734894,6.00544847 10.6343045,6.06626363 10.6777258,6.13577575 C10.721147,6.20530908 10.7559561,6.29221514 10.7732652,6.38775454 C10.7906591,6.48337879 10.7993561,6.57891818 10.7993561,6.67445758 C10.7993035,6.77063671 10.7905711,6.86661487 10.7732652,6.96122424 C10.7559561,7.05676363 10.721147,7.13499394 10.6777258,7.21320303 C10.6343045,7.29134849 10.5734894,7.35216364 10.4952591,7.3956697 C10.41705,7.43909091 10.3215106,7.46509695 10.2085773,7.46509696 C10.0956439,7.46509698 10.0000197,7.43909091 9.9217894,7.3956697 C9.84366515,7.34346667 9.78285,7.29134849 9.73934394,7.21320303 C9.69592271,7.13499394 9.66119848,7.05676365 9.64380454,6.96122424 C9.62641061,6.86562122 9.61769243,6.77008182 9.61769243,6.67445758 Z M8.93998637,6.67445758 C8.93998637,6.86562122 8.96609849,7.04806666 9.02691364,7.20450606 C9.08772879,7.36086061 9.17465606,7.49990607 9.2875894,7.6128394 C9.40052274,7.72577272 9.53087121,7.81270001 9.68722576,7.87351515 C9.84366515,7.9343303 10.0174136,7.96035757 10.2085773,7.96035757 C10.408353,7.96035758 10.5821864,7.9343303 10.7385409,7.87351515 C10.8948955,7.81270001 11.0252439,7.72577274 11.1381773,7.6128394 C11.2511954,7.49990606 11.3380379,7.36086061 11.398853,7.20450606 C11.4596894,7.04806668 11.4857803,6.87431819 11.4857803,6.67445758 C11.4857803,6.47468181 11.4596682,6.29221515 11.398853,6.13577575 C11.3380379,5.97942122 11.2511954,5.84039697 11.1381773,5.72744243 C11.0339409,5.61450909 10.8948955,5.52758181 10.7385409,5.46676666 C10.5734894,5.40595151 10.3997409,5.37122727 10.2085773,5.37122727 C10.0174136,5.37122726 9.84366516,5.40595151 9.68722576,5.46676666 C9.53087121,5.52758182 9.40052274,5.61450909 9.2875894,5.72744243 C9.17465607,5.84039697 9.08772879,5.9794212 9.02691364,6.13577575 C8.96609849,6.30091212 8.93998637,6.47468182 8.93998637,6.67445758 Z M11.9288167,5.4407606 L11.9288379,5.4407606 L11.9288379,7.91691515 L12.6065439,7.91691515 L12.6065439,6.80476363 C12.6065439,6.6918303 12.6152621,6.58759393 12.641353,6.4919697 C12.6673591,6.39643031 12.7021682,6.30952425 12.7542864,6.24007576 C12.8064045,6.17056363 12.8759167,6.11844545 12.9628439,6.07493939 C13.0496864,6.03151818 13.1539227,6.01412424 13.275553,6.01412424 C13.3190591,6.01412424 13.3624803,6.01412424 13.4059015,6.02282121 C13.4494076,6.03151818 13.4841106,6.03151818 13.5188349,6.04021515 L13.5188349,5.41462727 C13.4667167,5.39725454 13.4145985,5.38855757 13.3711773,5.38855757 C13.28425,5.38855757 13.1974288,5.39725454 13.1191985,5.42334545 C13.0409894,5.44937274 12.9628439,5.48418183 12.8933318,5.52758182 C12.8237985,5.57100303 12.7629833,5.63181818 12.7108652,5.69265454 C12.658747,5.75346968 12.6152409,5.82298182 12.5805167,5.90121212 L12.5718197,5.90121212 L12.5718197,5.4407606 L11.9288167,5.4407606 Z M15.525947,6.66584546 C15.525947,6.76136363 15.5172288,6.86562122 15.4911591,6.95252727 C15.4737652,7.04806666 15.4390409,7.12629697 15.3956197,7.20450606 C15.3435015,7.28265152 15.2912985,7.34346667 15.213153,7.38697273 C15.1349439,7.43039394 15.0480167,7.45648485 14.9350833,7.45648485 C14.830847,7.45648485 14.7352227,7.43039394 14.6657955,7.38697273 C14.5962621,7.34346667 14.535447,7.28265152 14.4833288,7.20450606 C14.4398227,7.13501516 14.4050985,7.04806668 14.3790076,6.95252727 C14.3529803,6.85690304 14.3442833,6.76136365 14.3442833,6.66584546 C14.3442833,6.56152424 14.3616985,6.46598484 14.3790076,6.3703606 C14.4050985,6.27482121 14.4398227,6.18789394 14.4833288,6.11846666 C14.5283738,6.04594422 14.5911765,5.98611301 14.6657955,5.94463334 C14.7352227,5.90121212 14.830847,5.87518485 14.9437803,5.87518485 C15.0567136,5.87518485 15.1523379,5.90121213 15.22185,5.94463334 C15.2999955,5.98811817 15.3608106,6.04895455 15.4043167,6.11846666 C15.4477379,6.1965909 15.4824621,6.2748212 15.4998561,6.3703606 C15.51725,6.46598485 15.525947,6.56152425 15.525947,6.66584546 Z M15.5345591,7.58674849 L15.5345379,7.58674849 L15.5345379,7.89954242 L16.1775409,7.89954242 L16.1775409,4.50235757 L15.4998348,4.50235757 L15.4998348,5.74485757 L15.4911379,5.74485757 C15.4129288,5.62320606 15.3086924,5.52758181 15.1783439,5.46676666 C15.0480167,5.40595151 14.9090561,5.37122727 14.7613136,5.37122727 C14.5788682,5.37122726 14.4225136,5.40595151 14.2834682,5.47546363 C14.1444227,5.55369394 14.0314894,5.64053636 13.9445621,5.76216667 C13.8490227,5.88379696 13.7795106,6.01414544 13.7360894,6.17058484 C13.6926682,6.32693941 13.6665773,6.48337879 13.6665773,6.64843031 C13.6665773,6.82220001 13.6926682,6.98725151 13.7360894,7.14369091 C13.7882076,7.30874243 13.8490227,7.44778788 13.9445621,7.56941819 C14.0401864,7.6910697 14.1531197,7.7866091 14.2921652,7.85612121 C14.4311258,7.92563333 14.5962621,7.96035757 14.7787288,7.96035757 C14.9350833,7.96035758 15.0828045,7.9343303 15.213153,7.87351515 C15.3434803,7.81270001 15.4477167,7.71707577 15.525947,7.58674849 L15.5345591,7.58674849 Z M4.19610757,10.080403 L4.19610757,10.0630091 L4.79558333,10.0630091 C4.78697121,9.9326606 4.75216212,9.81103031 4.69134698,9.70679394 C4.63053183,9.6111697 4.56101971,9.52432727 4.46548031,9.45481515 C4.37855303,9.38530302 4.27431667,9.33318484 4.15268636,9.29837575 C4.03973182,9.26365151 3.91810153,9.24625757 3.78777425,9.24625757 C3.61400453,9.24625757 3.45756515,9.27234848 3.31860454,9.33318484 C3.1795803,9.39400001 3.06662575,9.47220909 2.97102273,9.57644546 C2.87548332,9.68068182 2.80594999,9.81103029 2.75383182,9.95007576 C2.71041061,10.0890152 2.6843197,10.2454545 2.6843197,10.4105273 C2.6843197,10.5669667 2.71041061,10.7146242 2.76255,10.8536485 C2.81466818,10.9840182 2.88418029,11.1056273 2.9797197,11.2011667 C3.07534395,11.2967697 3.18827727,11.3749364 3.32723788,11.4271394 C3.45756516,11.4792576 3.60530758,11.5052636 3.7703591,11.5052636 C4.05714698,11.5052636 4.29171061,11.4271606 4.47417728,11.2794182 C4.65662272,11.1316758 4.76957727,10.9145061 4.8042803,10.627803 L4.23089546,10.627803 C4.20480454,10.7667424 4.16138333,10.8710636 4.08315303,10.9491879 C4.00494394,11.0274182 3.89201062,11.0708394 3.75296516,11.0708394 C3.65742577,11.0708394 3.57921667,11.0535091 3.51838031,11.010003 C3.44886819,10.9753 3.39675,10.9144848 3.36202576,10.8536485 C3.32723787,10.7928333 3.3012106,10.7146242 3.28381666,10.6363939 C3.26640151,10.5582697 3.25778939,10.4800394 3.25778939,10.4018303 C3.25778939,10.3236636 3.26640151,10.2367576 3.28381666,10.1585485 C3.30121061,10.0717061 3.32723788,10.0021939 3.37072273,9.9326606 C3.41414394,9.86314849 3.46626213,9.81103029 3.52707728,9.76760909 C3.58791364,9.72410302 3.66612273,9.70679394 3.76166213,9.70679394 C4.0136409,9.70679394 4.16138333,9.83712122 4.19610757,10.080403 Z M5.1344894,8.49901818 L5.1344894,11.4705394 L5.72526818,11.4705394 L5.72526818,8.49901818 L5.1344894,8.49901818 Z M6.7157894,10.3931121 C6.7157894,10.3149879 6.72448637,10.2280394 6.74179546,10.1412182 C6.75921061,10.0630091 6.78530152,9.98477878 6.82872273,9.92396363 C6.86353182,9.86314849 6.91565001,9.81103029 6.98516213,9.76760909 C7.05458939,9.72410302 7.13281969,9.70679394 7.23705606,9.70679394 C7.3326803,9.70679394 7.41950152,9.72410302 7.48903485,9.76760909 C7.55854698,9.81103029 7.61066516,9.86314849 7.65417122,9.92396363 C7.69759243,9.98477878 7.72359848,10.0543121 7.74101363,10.1412182 C7.75840757,10.2193636 7.76710454,10.3062909 7.76710454,10.3931121 C7.76710454,10.4800394 7.75840757,10.5669667 7.74101363,10.6450909 C7.7235985,10.7233212 7.69759243,10.7928333 7.65417122,10.8623667 C7.61066516,10.9318788 7.55854696,10.9753 7.48903485,11.0187212 C7.41950152,11.0621212 7.34137727,11.0795364 7.23705606,11.0795364 C7.13281971,11.0795364 7.05458941,11.0535091 6.98516213,11.0187212 C6.92434696,10.983997 6.87214393,10.9318788 6.82872273,10.8623667 C6.78530152,10.8015303 6.75921061,10.7233212 6.74179546,10.6450909 C6.72448637,10.5669667 6.7157894,10.4800394 6.7157894,10.3931121 Z M6.1249894,10.3931121 C6.12498938,10.5669667 6.15101666,10.7233212 6.20313484,10.8623667 C6.25525302,11.0013061 6.33346212,11.1229576 6.42908636,11.2185606 C6.52462576,11.3140788 6.63755909,11.3923303 6.77660455,11.4444485 C6.91564999,11.4965879 7.06330757,11.5226576 7.23705606,11.5226576 C7.4108894,11.5226576 7.55854696,11.4965667 7.69759243,11.4444485 C7.83663787,11.3923303 7.95826817,11.3141 8.05380757,11.2185606 C8.14934697,11.1229576 8.22755607,11.0013061 8.27967425,10.8623667 C8.33179243,10.7233212 8.35790455,10.5669667 8.35790455,10.3931121 C8.35790455,10.2193636 8.33179243,10.0630091 8.27967425,9.92396363 C8.22755606,9.7849394 8.15804392,9.66328789 8.05380757,9.56774849 C7.94957121,9.47220909 7.83663789,9.39399999 7.69759243,9.34188181 C7.55854696,9.28976363 7.4108894,9.26365151 7.23705606,9.26365151 C7.06330757,9.26365151 6.91565001,9.28976363 6.77660455,9.34188181 C6.64625606,9.39400001 6.52462576,9.47220909 6.42908636,9.56774849 C6.33346212,9.66328788 6.25525302,9.78493939 6.20313484,9.92396363 C6.15101666,10.0630091 6.1249894,10.2193636 6.1249894,10.3931121 Z M10.764653,11.4705394 L10.764653,11.4705818 L10.7559348,11.4705818 L10.7559348,9.31581212 L10.1650712,9.31581212 L10.1650712,10.4453576 C10.1650712,10.6625485 10.130347,10.818903 10.0608348,10.9145273 C9.99132273,11.0100455 9.87836819,11.0621636 9.71331667,11.0621636 C9.57427121,11.0621636 9.47003484,11.0187636 9.41791666,10.9319212 C9.35710151,10.8449727 9.3310106,10.7059485 9.3310106,10.5321788 L9.3310106,9.3157909 L8.7402106,9.3157909 L8.7402106,10.6451121 C8.74021061,10.7754606 8.74890758,10.8970909 8.77493485,11.0100242 C8.80102575,11.1143455 8.83575,11.2098849 8.89656515,11.2881152 C8.95738029,11.3576061 9.03561059,11.4184212 9.13984696,11.4618424 C9.24408334,11.5052636 9.37443181,11.5226576 9.53087121,11.5226576 C9.65250152,11.5226576 9.77413183,11.4879545 9.89578334,11.4357515 C10.0174136,11.3836333 10.112953,11.2880939 10.1911833,11.1664424 L10.1998803,11.1664424 L10.1998803,11.4705394 L10.764653,11.4705394 Z M12.7368712,10.3931121 C12.7368712,10.4800182 12.7281742,10.5669667 12.7195409,10.6450909 C12.7021258,10.731997 12.6673379,10.8015303 12.6326136,10.8710636 C12.5978894,10.9404697 12.5456864,10.9926727 12.4762591,11.0274182 C12.4154439,11.0708394 12.3285167,11.0882333 12.2329773,11.0882333 C12.14605,11.0882333 12.0678197,11.0708394 11.9983076,11.0274182 C11.9287955,10.9926727 11.8766773,10.9404697 11.8332561,10.8710636 C11.7898348,10.8015303 11.7550258,10.7320182 11.7377167,10.6450909 C11.7203227,10.5582697 11.7116258,10.4800394 11.7116258,10.3931121 C11.7116258,10.2975939 11.7203227,10.2106879 11.7377167,10.1325212 C11.755047,10.0543121 11.7811379,9.97608181 11.8245591,9.91526666 C11.8593682,9.84575455 11.9114864,9.79363635 11.9809985,9.75891212 C12.0418136,9.71549091 12.1286561,9.69809697 12.2242803,9.69809697 C12.3198197,9.69809697 12.406747,9.72410302 12.4675621,9.75891212 C12.5280144,9.80197057 12.5808582,9.85481438 12.6239167,9.91526666 C12.6673379,9.97608181 12.69345,10.0543121 12.7108439,10.1325212 C12.7281742,10.2193636 12.7368712,10.3062909 12.7368712,10.3931121 Z M12.7455682,11.2011455 L12.7455894,11.2011455 L12.7455894,11.470497 L13.3016652,11.470497 L13.3016652,8.49897576 L12.7108652,8.49897576 L12.7108652,9.58512122 L12.7021682,9.58512122 C12.641353,9.47216668 12.5457288,9.3939576 12.4327955,9.3418394 C12.3198621,9.28972121 12.1982318,9.26360909 12.0678833,9.26360909 C11.9115288,9.26360909 11.7724833,9.29833334 11.650853,9.35914849 C11.5379197,9.42868182 11.4336833,9.5068909 11.355453,9.61112727 C11.2772227,9.7154485 11.2164076,9.82838182 11.1729864,9.96734243 C11.1295652,10.0976909 11.1121712,10.2367151 11.1121712,10.3844576 C11.1121712,10.5321152 11.1295652,10.6798788 11.1729864,10.8188394 C11.2164076,10.9578636 11.2772227,11.0795151 11.355453,11.1837515 C11.4336833,11.2880727 11.5379197,11.3749152 11.65955,11.4357303 C11.7811803,11.4965455 11.9202258,11.5313545 12.0852773,11.5313545 C12.2243015,11.5313545 12.35465,11.5052424 12.4675833,11.4531242 C12.5805167,11.4010061 12.6673379,11.3140788 12.7455682,11.2011455 Z M14.5441227,9.07250909 L14.5441227,9.08990302 L14.7612924,9.08990302 C14.7525955,9.02908788 14.7438985,8.98566667 14.7178712,8.94216061 C14.6917591,8.89873939 14.6570561,8.86401515 14.622247,8.83792424 C14.5788258,8.81183333 14.5441015,8.79450303 14.4918985,8.77710909 C14.4397803,8.76841212 14.3876621,8.75971515 14.3355439,8.75971515 C14.2573137,8.75971515 14.1964985,8.76841212 14.1356833,8.79450303 C14.0835652,8.82053032 14.0401439,8.85531819 13.9967227,8.8987394 C13.9532167,8.94216059 13.9271894,8.99427879 13.9097955,9.05509393 C13.8924015,9.11590908 13.8837045,9.17674544 13.8837045,9.24625757 C13.8837046,9.31576971 13.8924015,9.37660607 13.9097955,9.43742121 C13.9272106,9.48953939 13.9619136,9.54165757 13.9967227,9.58516363 C14.031447,9.62856364 14.0835652,9.66328788 14.1356833,9.6894 C14.1878015,9.71549091 14.2573348,9.72410302 14.326847,9.72410302 C14.4484985,9.72410304 14.5441227,9.6894 14.61355,9.62856364 C14.6917803,9.55905151 14.7352015,9.47220909 14.7525955,9.35057878 L14.5527348,9.35057878 C14.5441227,9.42000606 14.5180318,9.47220909 14.4833076,9.50693333 C14.4484985,9.54165757 14.3963803,9.55905151 14.3355651,9.55905151 C14.2921439,9.55905151 14.2573561,9.55035454 14.2226318,9.53304545 C14.1878227,9.5156303 14.1617954,9.48953939 14.1444015,9.46351212 C14.1270076,9.42872424 14.1096773,9.39400001 14.1009803,9.35919091 C14.0922833,9.32448787 14.0835864,9.28106666 14.0835864,9.24625757 C14.0835864,9.17674546 14.0922833,9.11590908 14.1096773,9.07250909 C14.1269864,9.02908788 14.1444015,8.99427879 14.1704924,8.96827273 C14.1878227,8.94216059 14.2139136,8.92485151 14.2486379,8.91615454 C14.283447,8.90743637 14.3094742,8.8987394 14.3355651,8.8987394 C14.3876833,8.8987394 14.4398015,8.91615455 14.4746106,8.94216061 C14.5093136,8.96827271 14.5354258,9.01167273 14.5441227,9.07250909 Z M14.917753,8.41219696 L14.917753,9.6894 L15.1175288,9.6894 L15.1175288,8.41219696 L14.917753,8.41219696 Z M15.7692076,9.71549091 C15.8386561,9.71549091 15.9081682,9.69809697 15.9689833,9.68068182 C16.0297985,9.65467576 16.0733045,9.61986667 16.1167258,9.57644546 C16.15145,9.53304545 16.1862591,9.48084242 16.2035682,9.42000606 C16.2296803,9.35919091 16.2383773,9.28976363 16.2383773,9.2202303 C16.2383773,9.15071819 16.2209621,9.08990302 16.2035682,9.02908788 C16.1862379,8.96827273 16.160147,8.91615455 16.1167258,8.87264849 C16.0733045,8.82922727 16.0297985,8.79450303 15.9689833,8.76841212 C15.9081682,8.74238485 15.8386348,8.73368788 15.7692076,8.73368788 C15.6909773,8.73368788 15.6301621,8.74238485 15.569347,8.76841212 C15.5085318,8.79450303 15.4651106,8.82922729 15.4216045,8.87264849 C15.3868803,8.91615454 15.3520712,8.96827273 15.3347621,9.02908788 C15.30865,9.08120606 15.299953,9.15071819 15.299953,9.2202303 C15.299953,9.29837575 15.3173682,9.35919091 15.3347621,9.42000606 C15.3520924,9.48084244 15.3781833,9.53304547 15.4216045,9.57644546 C15.4651106,9.61986667 15.5085318,9.65467576 15.569347,9.68068182 C15.6301621,9.70679394 15.6996955,9.71549091 15.7692076,9.71549091 Z M15.7692076,9.55035454 C15.7170046,9.55035454 15.6823015,9.54165757 15.6475773,9.52432727 C15.6214652,9.49823636 15.5867409,9.48084242 15.569347,9.44611818 C15.551953,9.41139393 15.5345379,9.37660605 15.5259258,9.34188181 C15.5172288,9.29837577 15.5085318,9.26365151 15.5085318,9.2202303 C15.5085318,9.17674546 15.5172288,9.1420212 15.5259258,9.09859999 C15.5345379,9.0637909 15.551953,9.02039091 15.569347,8.99427879 C15.5867621,8.95955453 15.6127682,8.93346362 15.6475773,8.91615454 C15.6822803,8.8987394 15.7257015,8.89004243 15.7692076,8.89004243 C15.8213258,8.89004242 15.8560288,8.89873939 15.8908379,8.91615454 C15.9168652,8.94216061 15.9516743,8.96827273 15.9689833,8.99427879 C15.9901958,9.02585787 16.0049793,9.06130651 16.0124894,9.09859999 C16.0211015,9.14202122 16.0297985,9.17674546 16.0297985,9.2202303 C16.0297985,9.26365151 16.0211015,9.30707272 16.0124894,9.34188181 C16.0037924,9.37660607 15.9863773,9.41139394 15.9689833,9.44611818 C15.9523421,9.48014208 15.9248482,9.5076583 15.8908379,9.52432727 C15.85605,9.54165757 15.8126288,9.55035454 15.7692076,9.55035454 Z M17.2114621,9.6894 L17.2027652,9.6894 L17.2027652,8.76841212 L17.0029045,8.76841212 L17.0029045,9.30707272 C17.0029045,9.3505788 17.0029045,9.37660607 16.9942076,9.41139394 C16.9942076,9.43742121 16.9768773,9.46351212 16.9594833,9.48953939 C16.9420894,9.50693333 16.9160621,9.52432727 16.8899712,9.54165757 C16.8639651,9.55035454 16.8291561,9.55905151 16.7857348,9.55905151 C16.7336167,9.55905151 16.6901106,9.54165757 16.6553864,9.50693333 C16.6292742,9.47220909 16.6119651,9.41139393 16.6119651,9.33318484 L16.6119651,8.77710909 L16.4121045,8.77710909 L16.4121045,9.35919091 C16.4121046,9.48084242 16.4382167,9.56774849 16.4903349,9.62856364 C16.542453,9.6894 16.6292954,9.71549091 16.7509258,9.71549091 C16.8031288,9.71549091 16.84655,9.69809697 16.8986682,9.67198485 C16.9507864,9.64597878 16.9855742,9.60247271 17.0116015,9.55905151 L17.0116015,9.6894 L17.2114621,9.6894 Z M18.2975227,9.6894 L18.2975652,9.6894 L18.2975652,8.4295909 L18.0977045,8.4295909 L18.0977045,8.8987394 C18.0803955,8.87264848 18.0629803,8.84662121 18.0368894,8.82922727 C18.0108621,8.81183333 17.9847712,8.79450303 17.9587439,8.78580606 C17.9326318,8.77710909 17.8979076,8.76841212 17.8718167,8.75971515 C17.8457894,8.75099697 17.8110015,8.75099697 17.7849742,8.75099697 C17.7327712,8.75099697 17.68935,8.75971515 17.6372318,8.77710909 C17.5851136,8.79450303 17.5416076,8.8205303 17.5068833,8.86401515 C17.4721591,8.89873939 17.446047,8.95085758 17.4199561,9.01167273 C17.3939288,9.07250909 17.3852318,9.14202122 17.3852318,9.22894849 C17.3852318,9.29837575 17.3939288,9.35919091 17.4113227,9.42000606 C17.428653,9.48084244 17.4547439,9.53304547 17.4894682,9.57644546 C17.5329742,9.61986667 17.5763955,9.65467576 17.6285136,9.68068182 C17.6806318,9.70679394 17.7501652,9.71549091 17.8196773,9.71549091 C17.8804924,9.71549091 17.9326106,9.70679394 17.9847288,9.68068182 C18.036847,9.66328789 18.0803318,9.61986667 18.1063591,9.56774849 L18.1063591,9.6894 L18.2975227,9.6894 Z M17.5850924,9.2375606 C17.5850924,9.1941394 17.5850924,9.13332423 17.5937894,9.09859999 C17.6024015,9.0637909 17.6198167,9.02908788 17.6372106,8.99427879 C17.6546258,8.95955453 17.6806318,8.93346362 17.7154409,8.91615454 C17.7501439,8.8987394 17.7935652,8.89004243 17.8370712,8.89004243 C17.9152167,8.89004243 17.9760318,8.91615455 18.0195379,8.9769697 C18.0629591,9.03778485 18.08905,9.1159091 18.08905,9.2202303 C18.08905,9.26365151 18.080353,9.30707272 18.0716561,9.34188181 C18.0629591,9.37660607 18.0455439,9.41139394 18.0282348,9.44611818 C18.011536,9.48013002 17.9840209,9.50763767 17.9500045,9.52432727 C17.9239137,9.54165757 17.8804924,9.55035454 17.8370712,9.55035454 C17.7935652,9.55035454 17.7588621,9.54165757 17.7241379,9.52432727 C17.6893288,9.50693333 17.6633015,9.48084242 17.6459076,9.45481515 C17.6284924,9.42000606 17.6110985,9.38530302 17.6024015,9.35057878 C17.5937894,9.31576969 17.5850924,9.28106666 17.5850924,9.2375606 Z M14.7874045,11.2359758 L14.7787076,11.2359758 L14.6135712,10.5495515 L14.4050985,10.5495515 L14.240047,11.2359758 L14.23135,11.2359758 L14.0488833,10.5495515 L13.8316288,10.5495515 L14.1184167,11.4705394 L14.3355864,11.4705394 L14.5093348,10.7841364 L14.6830833,11.4705394 L14.8916409,11.4705394 L15.1783439,10.5495515 L14.9698712,10.5495515 L14.7874045,11.2359758 Z M16.8291561,10.5234606 C16.7944318,10.5234606 16.7683409,10.5321364 16.7423136,10.5408333 C16.7162227,10.5495303 16.6814985,10.5669455 16.6640833,10.5842545 C16.6466894,10.6016485 16.6206621,10.6277818 16.6032682,10.6537667 C16.5858742,10.6798788 16.5771773,10.705906 16.5684591,10.7233 L16.5684591,10.5495303 L16.3773803,10.5495303 L16.3773803,11.4705182 L16.5771561,11.4705182 L16.5771561,11.027397 C16.5771561,10.9752788 16.585853,10.9318576 16.59455,10.8883303 C16.6119439,10.8449091 16.6292742,10.8188394 16.6466682,10.7927909 C16.6727591,10.7667212 16.6987864,10.7493697 16.7248985,10.7319758 C16.7509258,10.714603 16.7857136,10.714603 16.8204379,10.714603 L16.8639439,10.714603 C16.881253,10.714603 16.8899712,10.714603 16.9073652,10.7233 L16.9073652,10.5234394 L16.8291561,10.5234394 L16.8291561,10.5234606 Z M17.6633015,10.1933364 L17.6633015,10.6625061 C17.6459076,10.6363939 17.6284924,10.6190848 17.6024015,10.5929727 C17.5763742,10.5755788 17.5502833,10.5582697 17.5242561,10.5495515 C17.4981651,10.5408545 17.4721379,10.5321576 17.4373288,10.5234818 C17.4113015,10.5147849 17.3765136,10.5147849 17.3504864,10.5147849 C17.2982833,10.5147849 17.2548621,10.5234818 17.2027439,10.5408545 C17.1506258,10.5582697 17.1158167,10.5842758 17.0723955,10.627803 C17.0289743,10.6712242 17.0028833,10.7146455 16.985553,10.7754606 C16.9594621,10.8362545 16.9507439,10.9057879 16.9507439,10.9926939 C16.9507439,11.0621212 16.9594409,11.1229788 16.9768348,11.1837939 C16.9941439,11.2445879 17.0202561,11.2967909 17.0549803,11.3402333 C17.0897894,11.3836545 17.1332106,11.4184424 17.1940258,11.4444697 C17.2461439,11.4705394 17.3156561,11.4792788 17.3851894,11.4792788 C17.4460045,11.4792788 17.4981227,11.4705606 17.5502409,11.4444697 C17.6023591,11.4184212 17.6458652,11.3836546 17.6718712,11.3315364 L17.6718712,11.4531455 L17.8630348,11.4531455 L17.8630348,10.1759424 L17.6632591,10.1759424 L17.6632591,10.1933364 L17.6633015,10.1933364 Z M17.6546045,11.1316545 C17.6459076,11.1664424 17.6285136,11.2011454 17.6110985,11.2359758 C17.5937894,11.2707 17.5676773,11.2880939 17.532953,11.3141 C17.4981439,11.3315151 17.4634409,11.3402121 17.4199348,11.3402121 C17.3765136,11.3402121 17.3417894,11.3315151 17.3070015,11.3141 C17.2753527,11.2981172 17.2484183,11.2741584 17.2288561,11.2445879 C17.2076479,11.2130375 17.1928644,11.1776174 17.18535,11.1403515 C17.176653,11.1056273 17.1680409,11.0621212 17.1680409,11.0274394 C17.1680409,10.9840182 17.176653,10.9492091 17.18535,10.9057879 C17.1928633,10.8685217 17.207647,10.8331014 17.2288561,10.8015515 C17.2461651,10.7667636 17.2722773,10.7407364 17.3070015,10.7233424 C17.3418106,10.7059485 17.3765136,10.6972303 17.4286318,10.6972303 C17.5068621,10.6972303 17.5676773,10.7233424 17.6110985,10.7841576 C17.6546045,10.8449727 17.6806106,10.9232242 17.6806106,11.0274606 C17.6719136,11.0535091 17.6633015,11.0882333 17.6546045,11.1316545 Z M16.1688439,10.8188606 C16.15145,10.7580455 16.1167258,10.7059273 16.0819167,10.6625061 C16.0384955,10.6190848 15.9950742,10.5842758 15.9342591,10.5582697 C15.8734439,10.5321576 15.8126288,10.5234606 15.7343985,10.5234606 C15.6561682,10.5234606 15.595353,10.5321364 15.5345379,10.5582697 C15.4737227,10.5842758 15.4303015,10.6190848 15.3868803,10.6625061 C15.3434591,10.7059273 15.3173682,10.7580455 15.299953,10.8188606 C15.2826439,10.8796758 15.2652288,10.9404697 15.2652288,11.010003 C15.2652288,11.0795364 15.2739258,11.1490485 15.299953,11.2098636 C15.317347,11.2707 15.3520712,11.3228182 15.3868803,11.366303 C15.4303015,11.4097242 15.4737227,11.4444697 15.5345379,11.4705394 C15.595353,11.4965879 15.6561682,11.5052636 15.7343985,11.5052636 C15.8126288,11.5052636 15.873444,11.4965879 15.9342591,11.4705394 C15.9950742,11.4444697 16.0384955,11.4097242 16.0819167,11.366303 C16.1254227,11.3228182 16.1514288,11.2707 16.1688439,11.2098636 C16.1862379,11.1490485 16.2035682,11.0882545 16.2035682,11.010003 C16.1949561,10.9404697 16.1862379,10.8710636 16.1688439,10.8188606 Z M15.9776803,11.1316545 C15.9689833,11.1664424 15.951653,11.2011454 15.9342591,11.2359758 C15.9168651,11.2707 15.8821409,11.2880939 15.8560288,11.3141 C15.8213045,11.3315151 15.7865167,11.3402121 15.7343985,11.3402121 C15.6822803,11.3402121 15.6475561,11.3315151 15.6127682,11.3141 C15.5787398,11.2974679 15.5512161,11.2699816 15.5345379,11.2359758 C15.5172288,11.2011455 15.4998136,11.1664424 15.4911167,11.1316545 C15.4824197,11.0969091 15.4737227,11.0534879 15.4737227,11.010003 C15.4737227,10.966603 15.4824197,10.9318788 15.4911167,10.8883727 C15.4986496,10.8511266 15.5134007,10.8157154 15.5345379,10.7841364 C15.5519318,10.7580667 15.5867409,10.7320182 15.6127682,10.7059273 C15.6475773,10.688597 15.6822803,10.6799 15.7343985,10.6799 C15.7865167,10.6799 15.8213258,10.6885758 15.8560288,10.7059273 C15.8908379,10.7233212 15.9168439,10.7494121 15.9342591,10.7841364 C15.951653,10.8188818 15.9689833,10.8536485 15.9776803,10.8883727 C15.9863773,10.923203 15.9950742,10.966603 15.9950742,11.010003 C15.9950955,11.0535091 15.9863985,11.0882333 15.9776803,11.1316545 Z M9.07903182,14.4072727 L9.47877425,15.6409697 L9.76545606,15.6409697 L9.99134394,14.7286576 L10.0000409,14.7286576 L10.2259076,15.6409697 L10.5039773,15.6409697 L10.8862833,14.4072727 L10.6082136,14.4072727 L10.3562349,15.3282606 L10.3475379,15.3282606 L10.130347,14.4072727 L9.85236212,14.4072727 L9.61769243,15.3282606 L9.6090803,15.3282606 L9.36571363,14.4072727 L9.07903182,14.4072727 Z M11.6074106,15.6757576 C11.711647,15.6757576 11.7985742,15.6583424 11.8680015,15.6236394 C11.9375348,15.5975273 12.007047,15.5541061 12.0591651,15.4933121 C12.1112833,15.432497 12.1547682,15.3629636 12.1807955,15.2847545 C12.2069076,15.2066091 12.2243015,15.119703 12.2243015,15.0241636 C12.2243015,14.9285394 12.2068864,14.841697 12.1807955,14.7634879 C12.1547894,14.6765394 12.1112833,14.6070697 12.0591651,14.5549303 C12.007047,14.5027909 11.9462318,14.4593909 11.8680015,14.4245606 C11.7898773,14.3898364 11.70295,14.3724424 11.6074106,14.3724424 C11.5117864,14.3724424 11.4249651,14.3898364 11.3467348,14.4245606 C11.2772015,14.4506939 11.2076894,14.494094 11.1555712,14.5549303 C11.103453,14.6157454 11.0600318,14.6852576 11.0339409,14.7634879 C11.0079136,14.8416757 10.9905197,14.9285394 10.9905197,15.0241636 C10.9905197,15.119703 11.0079136,15.2065879 11.0339409,15.2847545 C11.0600318,15.3716818 11.103453,15.432497 11.1555712,15.4933121 C11.2076894,15.5454303 11.2685045,15.5888515 11.3467348,15.6236394 C11.4249439,15.6583636 11.5117864,15.6757576 11.6074106,15.6757576 Z M11.6074106,15.458503 C11.5465955,15.458503 11.4944773,15.4498697 11.4509712,15.4238 C11.398853,15.3976879 11.3641288,15.3629636 11.3380379,15.3195636 C11.3120318,15.2760576 11.2946167,15.2326364 11.2772227,15.1805182 C11.2685258,15.1284 11.2598288,15.0762818 11.2598288,15.0241636 C11.2598288,14.9719606 11.2598288,14.9198424 11.2772227,14.8677242 C11.2859197,14.8156061 11.3033136,14.7634879 11.3380379,14.7286576 C11.3728258,14.6939333 11.40755,14.6592303 11.4509712,14.6331182 C11.4944773,14.6070273 11.5465955,14.5983939 11.6074106,14.5983939 C11.6682258,14.5983939 11.7203439,14.6070485 11.7637652,14.6331182 C11.8158833,14.6592515 11.8506712,14.6852364 11.8766985,14.7286576 C11.9027894,14.7721848 11.9202046,14.8156061 11.9375136,14.8677242 C11.9462106,14.9198424 11.9549076,14.9719606 11.9549076,15.0241636 C11.9549076,15.0762818 11.9549076,15.1284 11.9375136,15.1805182 C11.9288167,15.2326364 11.9027894,15.2760576 11.8766985,15.3195636 C11.8419955,15.3629636 11.8071864,15.3976879 11.7637652,15.4238 C11.7203439,15.4498909 11.6682258,15.458503 11.6074106,15.458503 Z M12.4588864,14.4072727 L12.4589076,14.4072727 L12.4589076,15.6323788 L12.7281955,15.6323788 L12.7281955,15.0501909 C12.7281955,14.9806788 12.7368924,14.9198849 12.7542864,14.8677455 C12.7716803,14.8156061 12.7977076,14.7722061 12.8237985,14.7373758 C12.8498045,14.7026515 12.8846136,14.6765394 12.9280348,14.6592515 C12.9714561,14.6418364 13.0149621,14.6331394 13.0583833,14.6331394 L13.1191985,14.6331394 C13.1452894,14.6331394 13.1626197,14.6418364 13.1800136,14.6418364 L13.1800136,14.3811606 C13.1713167,14.3724636 13.1539015,14.3724636 13.1452894,14.3724636 L13.0757773,14.3724636 C13.0322924,14.3724636 12.9975682,14.3811606 12.954147,14.3985758 C12.9193379,14.4159697 12.8846349,14.4332788 12.8498258,14.4593909 C12.8166937,14.483819 12.7874195,14.513086 12.7629833,14.5462121 C12.7455894,14.5723455 12.7281742,14.6070485 12.7195621,14.6418364 L12.7108652,14.6418364 L12.7108652,14.4072727 L12.4588864,14.4072727 Z M14.4572167,15.6409697 L14.4658924,15.6409697 L14.4658924,13.9380394 L14.1965197,13.9380394 L14.1965197,14.5723242 L14.1878227,14.5723242 C14.1704924,14.5375788 14.1444015,14.5114879 14.1096773,14.4853758 C14.0748682,14.4593909 14.0401652,14.4419545 14.0053561,14.4245606 C13.970653,14.4072515 13.9359288,14.3985545 13.8924227,14.3898364 C13.8577197,14.3811394 13.8142985,14.3811394 13.7794894,14.3811394 C13.7099773,14.3811394 13.6404439,14.3898576 13.5796288,14.4159697 C13.5102015,14.4419545 13.4579985,14.4767636 13.4058803,14.5288818 C13.3537621,14.581 13.3103409,14.6505121 13.28425,14.7286576 C13.2582227,14.8069091 13.2408288,14.9025121 13.2408288,15.0154667 C13.2408288,15.1109848 13.2495258,15.1978909 13.275553,15.2760576 C13.292947,15.3542455 13.3363682,15.4238 13.3798742,15.4846152 C13.4319924,15.5454303 13.4928288,15.5888515 13.5623409,15.6236394 C13.631853,15.6583636 13.7186955,15.6757576 13.8143197,15.6757576 C13.883747,15.6757576 13.9619773,15.6670606 14.0314894,15.6323576 C14.1010015,15.5975273 14.1531197,15.5454303 14.1878439,15.4759182 L14.1965409,15.4759182 L14.1965409,15.6409697 L14.4572167,15.6409697 Z M13.5102015,15.0414515 L13.5101803,15.0414515 L13.5101803,14.8851182 C13.5274894,14.833 13.5449045,14.7894939 13.5709955,14.7460727 C13.5965002,14.7031749 13.632334,14.6673411 13.6752318,14.6418364 C13.72735,14.6157455 13.7794682,14.5984152 13.8402833,14.5984152 C13.9445197,14.5984152 14.031447,14.6331394 14.0922621,14.7113697 C14.1530773,14.7894727 14.1878015,14.8937939 14.1878015,15.0327545 C14.1878015,15.0849788 14.1878015,15.137097 14.1704924,15.1891939 C14.1617954,15.2413121 14.1357045,15.2847545 14.1096773,15.3282606 C14.0841231,15.3711487 14.0482649,15.4069777 14.0053561,15.432497 C13.9619349,15.458503 13.9098167,15.4672 13.8490015,15.4672 C13.7881864,15.4672 13.7360682,15.458503 13.692647,15.432497 C13.6491409,15.4063636 13.6144167,15.3803788 13.5883258,15.3368727 C13.5623197,15.2934303 13.5449045,15.2500091 13.5275106,15.1978909 C13.5188136,15.1457727 13.5102015,15.0935697 13.5102015,15.0414515 Z M5.82089243,13.851197 L6.22052878,12.6174152 L5.87301061,12.6174152 L5.64705909,13.4514545 L5.63844698,13.4514545 L5.4298894,12.6174152 L5.09968031,12.6174152 L4.89120757,13.4514545 L4.8825106,13.4514545 L4.65662272,12.6174152 L4.30042879,12.6174152 L4.69134698,13.851197 L5.03886515,13.851197 L5.24742273,13.0257485 L5.2561197,13.0257485 L5.47328939,13.851197 L5.82089243,13.851197 Z M6.65497424,13.2429818 C6.65497424,13.1908848 6.65497424,13.1386606 6.67236818,13.0952394 C6.68098031,13.0431212 6.69837425,12.9997 6.72448637,12.9649121 C6.75049243,12.9301879 6.78530152,12.9040758 6.82002576,12.8780697 C6.85481363,12.8519364 6.89823486,12.8432394 6.95905001,12.8432394 C7.01988637,12.8432394 7.07200454,12.8519576 7.10679242,12.8780697 C7.15021365,12.8953788 7.17624091,12.9214909 7.20233182,12.9649121 C7.22844394,13.008397 7.24575303,13.0518182 7.25445,13.0952394 C7.26314697,13.1473576 7.27186515,13.1908849 7.27186515,13.2429818 C7.27186515,13.2951 7.26314697,13.3472182 7.25445,13.3906606 C7.24575303,13.4427788 7.22844394,13.4862849 7.20233182,13.5209879 C7.17624091,13.555797 7.14151666,13.5818455 7.10679242,13.6079151 C7.06330757,13.6339636 7.01988637,13.6426606 6.95905001,13.6426606 C6.90693181,13.6426606 6.85481363,13.6339636 6.82002576,13.6079151 C6.77660455,13.5905212 6.75049243,13.555797 6.72448637,13.5209879 C6.69837423,13.4775879 6.68098029,13.4341667 6.67236818,13.3906606 C6.66367121,13.3385424 6.65497424,13.2951 6.65497424,13.2429818 Z M6.31606818,13.2429818 C6.31606818,13.3385424 6.33346212,13.4254697 6.35957424,13.5122697 C6.39427727,13.5905212 6.43769848,13.6600121 6.48990151,13.7121303 C6.5420197,13.7729667 6.61155303,13.8163879 6.68967728,13.8425 C6.76790758,13.8685061 6.85481363,13.8859212 6.95035304,13.8859212 C7.04597727,13.8859212 7.13281971,13.868506 7.21102879,13.8425 C7.28925909,13.8076697 7.35007425,13.7642485 7.4108894,13.7121303 C7.47170453,13.6600121 7.51512576,13.5905 7.54115303,13.5122697 C7.56724393,13.4341667 7.58465909,13.3385424 7.58465909,13.2429818 C7.58465909,13.1473576 7.5759409,13.0605364 7.54115303,12.9736303 C7.5064288,12.8867667 7.46300758,12.8172757 7.4108894,12.7651576 C7.35868637,12.7129545 7.28925909,12.6695333 7.21102879,12.6347879 C7.13281971,12.608697 7.04597727,12.5912818 6.95035304,12.5912818 C6.85481365,12.5912818 6.76790758,12.5999788 6.68967728,12.6347879 C6.61155301,12.6608364 6.54201968,12.7129545 6.48990151,12.7651576 C6.42908636,12.8259727 6.3855803,12.8954 6.35957424,12.9736303 C6.33346212,13.0518182 6.31606818,13.1473576 6.31606818,13.2429818 Z M7.81052575,12.6261121 L7.81052575,13.8598727 L8.14934697,13.8598727 L8.14934697,13.303797 C8.14934697,13.2429818 8.15804394,13.1908848 8.16674091,13.1473576 C8.17543788,13.1039576 8.19285303,13.0605364 8.21885909,13.0257485 C8.24497122,12.991003 8.27967425,12.9561939 8.32318031,12.9388848 C8.3666015,12.9127939 8.4187197,12.9040758 8.47953484,12.9040758 L8.54035001,12.9040758 C8.56646213,12.9040758 8.58377121,12.9127939 8.60118637,12.9127939 L8.60118637,12.5999788 C8.57507424,12.5912818 8.55776516,12.5912818 8.53165304,12.5912818 C8.48825303,12.5912818 8.45344393,12.5999788 8.41002273,12.608697 C8.36660152,12.6173939 8.33179243,12.6347667 8.2970894,12.6608151 C8.26236515,12.6869061 8.22755606,12.7129333 8.20155,12.7477212 C8.17543788,12.7824455 8.15804394,12.8172545 8.14071364,12.8519576 L8.13201667,12.8519576 L8.13201667,12.6261121 L7.81052575,12.6261121 Z M9.6090803,13.2343061 C9.6090803,13.2864242 9.60038333,13.3385424 9.57427121,13.3733515 C9.56557424,13.4254697 9.55687727,13.4688697 9.53087121,13.5035939 C9.51345606,13.5384242 9.47875304,13.5644303 9.44394394,13.5905424 C9.40921969,13.6166333 9.35710151,13.6252667 9.30489848,13.6252667 C9.2527803,13.6252667 9.20935908,13.6166121 9.17465606,13.5905424 C9.13114999,13.5731061 9.10512273,13.5384242 9.07903182,13.5035939 C9.05300455,13.4601727 9.03561061,13.4167515 9.02691364,13.3733515 C9.01821667,13.3298455 9.0095197,13.2777273 9.0095197,13.2343061 C9.0095197,13.1821879 9.01821667,13.1300697 9.02691364,13.0865424 C9.03561061,13.0431424 9.05300455,12.9997212 9.07903182,12.9649333 C9.10512273,12.9302091 9.13984696,12.904097 9.17465606,12.8780909 C9.20935908,12.8519576 9.26147726,12.8432606 9.31359545,12.8432606 C9.36571365,12.8432606 9.41791668,12.8519788 9.45264091,12.8780909 C9.48745001,12.904097 9.51345606,12.9302091 9.53956818,12.9649333 C9.56557424,12.9997 9.58298939,13.0431212 9.59168636,13.0865424 C9.60038333,13.1386606 9.6090803,13.1821879 9.6090803,13.2343061 Z M9.61769243,13.6947576 L9.61769243,13.851197 L9.93920455,13.851197 L9.93920455,12.1569636 L9.60038333,12.1569636 L9.60038333,12.7737697 L9.59168636,12.7737697 C9.55687729,12.7129545 9.50475909,12.6695333 9.43524698,12.6347879 C9.36571365,12.608697 9.29628637,12.5912818 9.22677425,12.5912818 C9.13984698,12.5912818 9.06163789,12.608697 8.9921894,12.6434848 C8.92267727,12.6782091 8.86186212,12.7216515 8.81835606,12.7824455 C8.77493484,12.8345637 8.7402106,12.904097 8.71411969,12.9823273 C8.68809242,13.0605364 8.67939545,13.1386606 8.67939545,13.2256091 C8.67939545,13.3125152 8.68809242,13.3993576 8.71411969,13.4775879 C8.7402106,13.5557758 8.77493485,13.6252455 8.81835606,13.6860606 C8.86186212,13.7468758 8.92267729,13.7990788 8.9921894,13.833803 C9.06163788,13.8685061 9.13984698,13.8859212 9.23547122,13.8859212 C9.31359545,13.8859212 9.39182577,13.868506 9.45264091,13.8425 C9.52215303,13.8076697 9.57427122,13.7642485 9.61769243,13.6947576 Z M11.694253,13.0605364 L11.6942318,13.0605364 L11.6942318,13.0692758 L12.0244197,13.0692758 C12.0157227,12.9910455 11.9983288,12.9215333 11.9636045,12.8607182 C11.9287955,12.7998818 11.8853742,12.7477636 11.8332561,12.7129758 C11.7811379,12.6782303 11.7203015,12.6435061 11.6507894,12.6261333 C11.5812773,12.6087394 11.5117439,12.6000212 11.4422318,12.6000212 C11.3379955,12.6000212 11.2511742,12.6174364 11.1729439,12.6521606 C11.0947137,12.6869485 11.0252015,12.7303697 10.9730833,12.7911849 C10.9209651,12.843303 10.8775439,12.9215333 10.851453,12.9997424 C10.8254258,13.0865636 10.8080318,13.1735121 10.8080318,13.2690515 C10.8080318,13.3559576 10.8254258,13.4428 10.851453,13.5210091 C10.8862621,13.5992606 10.9296833,13.6687515 10.9818015,13.7208697 C11.0426167,13.7730091 11.1034318,13.8164091 11.1816621,13.8512394 C11.2598076,13.8772454 11.3380167,13.8946606 11.4336409,13.8946606 C11.5899955,13.8946606 11.7290409,13.8512394 11.8332773,13.7642909 C11.9375136,13.6774697 11.99835,13.5558182 12.0244409,13.390703 L11.6942742,13.390703 C11.6855561,13.4689121 11.65955,13.5297485 11.6161288,13.5731485 C11.5639258,13.6166333 11.5031106,13.6426818 11.4249651,13.6426818 C11.372847,13.6426818 11.3293409,13.6339848 11.2946167,13.6079364 C11.2598076,13.5818455 11.2250833,13.5471424 11.2076894,13.5123121 C11.1903591,13.4776303 11.1729651,13.4342091 11.1642682,13.390703 C11.1555712,13.3385848 11.1468742,13.2951424 11.1468742,13.2517212 C11.1468742,13.2082152 11.1555712,13.156097 11.1642682,13.1126758 C11.1729652,13.0605576 11.1903591,13.0170727 11.2163864,12.9823485 C11.2338015,12.9389061 11.2685045,12.9128364 11.3033136,12.8867879 C11.3467348,12.860697 11.3901561,12.8519788 11.4422742,12.8519788 C11.5900167,12.8519788 11.6682258,12.9215121 11.694253,13.0605364 Z M12.2243015,12.1569636 L12.2243015,13.851197 L12.5631227,13.851197 L12.5631227,12.1569636 L12.2243015,12.1569636 Z M13.1365924,13.2429818 C13.1365924,13.1908848 13.1365924,13.1386606 13.1539015,13.0952394 C13.1625985,13.0431212 13.1800136,12.9997 13.2061045,12.9649121 C13.2321318,12.9301879 13.2669197,12.9040758 13.3016439,12.8780697 C13.3363682,12.8519364 13.3798742,12.8432394 13.4406894,12.8432394 C13.5015045,12.8432394 13.5449258,12.8606758 13.588347,12.8780697 C13.631853,12.8953788 13.6578803,12.9301879 13.6839712,12.9649121 C13.7099985,13.008397 13.7273924,13.0431212 13.7360894,13.0952394 C13.7447864,13.1473576 13.7534833,13.1908849 13.7534833,13.2429818 C13.7534833,13.2951 13.7447864,13.3385424 13.7360894,13.3906606 C13.7273924,13.4427788 13.7099985,13.4862849 13.6839712,13.5209879 C13.6578591,13.555797 13.6231561,13.5818455 13.588347,13.6079151 C13.5449258,13.6339636 13.5015045,13.6426606 13.4406894,13.6426606 C13.3885712,13.6426606 13.3363682,13.6339636 13.3016439,13.6079151 C13.2582227,13.5905212 13.2321318,13.555797 13.2061045,13.5209879 C13.1799924,13.4775879 13.1625985,13.4341667 13.1539015,13.3906606 C13.1452894,13.3385424 13.1365924,13.2951 13.1365924,13.2429818 Z M12.7976864,13.2429818 C12.7976864,13.3385424 12.8063833,13.4254697 12.8411924,13.5122697 C12.8759167,13.5905212 12.9193379,13.6600121 12.9714561,13.7121303 C13.0236591,13.7729667 13.0930864,13.8163879 13.1713167,13.8425 C13.2495258,13.8685061 13.3363682,13.8859212 13.4319924,13.8859212 C13.5275318,13.8859212 13.6144379,13.868506 13.6926682,13.8425 C13.7708136,13.8076697 13.8403258,13.7642485 13.8924439,13.7121303 C13.9532803,13.6600121 13.9967652,13.5905 14.0227924,13.5122697 C14.0489045,13.4341667 14.0662136,13.3385424 14.0662136,13.2429818 C14.0662136,13.1473576 14.0576015,13.0605364 14.0227924,12.9736303 C13.9880682,12.8867667 13.9445621,12.8172757 13.8924439,12.7651576 C13.8403258,12.7129545 13.7708136,12.6695333 13.6926682,12.6347879 C13.6144591,12.608697 13.5275318,12.5912818 13.4319924,12.5912818 C13.3363682,12.5912818 13.249547,12.5999788 13.1713167,12.6347879 C13.0930864,12.6608364 13.0236591,12.7129545 12.9714561,12.7651576 C12.9106197,12.8259727 12.8672197,12.8954 12.8411924,12.9736303 C12.8150803,13.0518182 12.7976864,13.1473576 12.7976864,13.2429818 Z M15.4477167,13.851197 L15.4390621,13.851197 L15.4390621,12.6261121 L15.1002409,12.6261121 L15.1002409,13.2690303 C15.1002409,13.3906606 15.082847,13.4862849 15.0394258,13.538403 C14.9959197,13.5905424 14.9351045,13.6166121 14.8395651,13.6166121 C14.7613561,13.6166121 14.7092379,13.5905212 14.6744288,13.538403 C14.6484015,13.4862849 14.6310076,13.4167515 14.6310076,13.3125152 L14.6310076,12.6174152 L14.2921864,12.6174152 L14.2921864,13.3733515 C14.2921864,13.4514545 14.3008833,13.5209879 14.3094955,13.5818242 C14.3181924,13.6426394 14.3442833,13.6947576 14.3790076,13.7382636 C14.4138167,13.7816848 14.4572379,13.8163879 14.518053,13.8425 C14.5788682,13.8685061 14.6570773,13.877203 14.7439197,13.877203 C14.8134318,13.877203 14.8829652,13.868506 14.9524773,13.833803 C15.0219894,13.7990788 15.0741076,13.7468758 15.1175288,13.6774273 L15.1262258,13.6774273 L15.1262258,13.851197 L15.4477167,13.851197 Z M16.5771773,13.2343061 C16.5771773,13.2864242 16.5684803,13.3385424 16.5424742,13.3733515 C16.5337773,13.4254697 16.5250803,13.4688697 16.499053,13.5035939 C16.4816379,13.5384242 16.44685,13.5644303 16.4121258,13.5905424 C16.3774015,13.6166333 16.3251985,13.6252667 16.2730803,13.6252667 C16.2209621,13.6252667 16.1775409,13.6166121 16.1427318,13.5905424 C16.0993106,13.5731061 16.0732833,13.5384242 16.0471924,13.5035939 C16.0211015,13.4601727 16.0037712,13.4167515 15.9950742,13.3733515 C15.9863773,13.3298455 15.9776803,13.2777273 15.9776803,13.2343061 C15.9776803,13.1821879 15.9863773,13.1300697 15.9950742,13.0865424 C16.0037712,13.0431424 16.0211015,12.9997212 16.0471924,12.9649333 C16.0733045,12.9302091 16.1080076,12.904097 16.1427318,12.8780909 C16.1775409,12.8519576 16.2296591,12.8432606 16.2817773,12.8432606 C16.3338955,12.8432606 16.3860136,12.8519788 16.4208227,12.8780909 C16.4539604,12.9025208 16.4832353,12.9317957 16.5076652,12.9649333 C16.5337773,12.9997 16.5511712,13.0431212 16.5598682,13.0865424 C16.5684803,13.1386606 16.5771773,13.1821879 16.5771773,13.2343061 Z M16.5771773,13.6947576 L16.5771985,13.6947576 L16.5771985,13.851197 L16.8986894,13.851197 L16.8986894,12.1569636 L16.5598682,12.1569636 L16.5598682,12.7737697 L16.5511712,12.7737697 C16.5163621,12.7129545 16.4642439,12.6695333 16.3947318,12.6347879 C16.3252197,12.608697 16.2557712,12.5912818 16.1862591,12.5912818 C16.0993318,12.5912818 16.0211015,12.608697 15.9516742,12.6434848 C15.8821621,12.6782091 15.821347,12.7216515 15.7778409,12.7824455 C15.7344197,12.8345637 15.6996955,12.904097 15.6736045,12.9823273 C15.6475773,13.0605364 15.6388803,13.1386606 15.6388803,13.2256091 C15.6388803,13.3125152 15.6475773,13.3993576 15.6736045,13.4775879 C15.6996955,13.5557758 15.7344197,13.6252455 15.7778409,13.6860606 C15.8213257,13.7468758 15.8821621,13.7990788 15.9516742,13.833803 C16.0211227,13.8685061 16.0993318,13.8859212 16.1949561,13.8859212 C16.2730803,13.8859212 16.3426136,13.877203 16.4121258,13.8425 C16.4816379,13.8076697 16.5337561,13.7642485 16.5771773,13.6947576 Z" id="合并形状" fill="url(#linearGradient-1)"></path>
                </g>
            </g>
        </g>
    </g>
</svg>