<?xml version="1.0" encoding="UTF-8"?>
<svg width="20px" height="20px" viewBox="0 0 20 20" version="1.1" xmlns="http://www.w3.org/2000/svg" xmlns:xlink="http://www.w3.org/1999/xlink">
    <!-- Generator: Sketch 52.5 (67469) - http://www.bohemiancoding.com/sketch -->
    <title>ic_yxpf</title>
    <desc>Created with Sketch.</desc>
    <defs>
        <linearGradient x1="100%" y1="100%" x2="0%" y2="0%" id="linearGradient-1">
            <stop stop-color="#2853FF" offset="0%"></stop>
            <stop stop-color="#933EFE" offset="100%"></stop>
        </linearGradient>
    </defs>
    <g id="Symbols" stroke="none" stroke-width="1" fill="none" fill-rule="evenodd">
        <g id="ic_yxpf">
            <g>
                <rect id="矩形" fill="#000000" opacity="0" x="0" y="0" width="20" height="20"></rect>
                <path d="M10,0 C4.47714285,0 0,4.47714285 0,10 C0,15.5228571 4.47714285,20 10,20 C15.5228571,20 20,15.5228571 20,10 C20,4.47714285 15.5228571,0 10,0 Z M9.64385715,15.2972857 C9.64385714,15.4531878 9.51747352,15.5795714 9.36157143,15.5795714 L4.64728572,15.5795714 C4.49138363,15.5795714 4.36500001,15.4531878 4.365,15.2972857 C4.365,15.1413836 4.49138362,15.015 4.64728572,15.015 L9.36157143,15.015 C9.51747353,15.015 9.64385715,15.1413836 9.64385715,15.2972857 Z M9.36157143,13.5238571 L6.47142857,13.5238571 C6.31796125,13.520405 6.1953514,13.3950061 6.1953514,13.2415 C6.1953514,13.0879939 6.31796125,12.962595 6.47142857,12.9591429 L9.36157143,12.9591429 C9.51503875,12.962595 9.6376486,13.0879939 9.6376486,13.2415 C9.6376486,13.3950061 9.51503875,13.520405 9.36157143,13.5238571 Z M9.93014285,7.55628572 C9.02433626,7.55760981 8.15159175,7.21606559 7.48728572,6.60028572 C7.33008121,8.85570395 6.25416708,10.9477821 4.511,12.3875714 L4.511,12.359 L4.51757143,8.58571428 C4.52071428,6.71185713 4.524,4.84285713 4.524,4.84285715 C4.5243941,4.60922722 4.71394117,4.4200637 4.94757143,4.42014285 L14.9142857,4.42014285 C15.1481389,4.42014286 15.3377143,4.60971829 15.3377143,4.84357143 L15.3377143,12.3774286 C13.601323,10.937862 12.5301222,8.85007866 12.3734286,6.6 C11.7089811,7.21586243 10.8361094,7.55749858 9.93014285,7.55628572 Z M12.5258571,13.0961429 L11.7142857,15.3261429 C11.7088425,15.3422993 11.7019576,15.3579337 11.6937143,15.3728571 C11.6937143,15.3735714 11.6937143,15.3742857 11.6925714,15.3748571 C11.6897143,15.3801429 11.6865714,15.3851429 11.6832857,15.3901429 C11.6821429,15.3921429 11.6808571,15.394 11.6795714,15.3958571 C11.6764286,15.4005714 11.6731429,15.405 11.6698571,15.4101429 L11.6654286,15.4155714 C11.6534569,15.43033 11.6400587,15.4438717 11.6254286,15.456 C11.6243022,15.4570299 11.6231091,15.4579843 11.6218571,15.4588571 C11.6174286,15.4624286 11.6128571,15.4658571 11.6082857,15.4691429 L11.6021429,15.4732857 C11.5975714,15.4762857 11.593,15.4792857 11.5878571,15.4821429 L11.5801429,15.4862857 C11.5732857,15.4901429 11.5658571,15.4935714 11.5587143,15.4968571 C11.5542857,15.4988571 11.5498571,15.5008571 11.5452857,15.5025714 L11.5408571,15.5044286 L11.5332857,15.5068571 L11.523,15.51 L11.5112857,15.5132857 L11.4998571,15.5157143 L11.4885714,15.518 L11.4758571,15.5195714 C11.4725714,15.5195714 11.4691429,15.5205714 11.4658571,15.5207143 C11.4592857,15.5207143 11.4525714,15.5215714 11.446,15.5215714 L11.44,15.5215714 C11.4332857,15.5215714 11.4267143,15.5215714 11.4201429,15.5207143 L11.4098571,15.5195714 L11.3974286,15.518 L11.3858571,15.5157143 L11.3748571,15.5132857 L11.3628571,15.51 L11.3525714,15.5068571 L11.3451429,15.5044286 L11.3407143,15.5025714 C11.3361429,15.5008571 11.3315714,15.4988571 11.3264286,15.4968571 C11.3191429,15.4935714 11.3121429,15.4901429 11.3052857,15.4864286 L11.2972857,15.482 C11.2927143,15.4792857 11.2881429,15.4762857 11.283,15.4732857 L11.2768571,15.4691429 C11.2721429,15.4658571 11.2675714,15.4624286 11.2625714,15.459 L11.2588571,15.4558571 C11.2442749,15.4437764 11.2309241,15.430282 11.219,15.4155714 C11.2175714,15.4137143 11.216,15.412 11.2145714,15.41 C11.2111429,15.4055714 11.208,15.4011429 11.2048571,15.3957143 L11.201,15.39 C11.1978571,15.385 11.1947143,15.38 11.1917143,15.3747143 C11.1917143,15.3747143 11.191,15.3734286 11.1907143,15.3727143 C11.182471,15.3577909 11.1755861,15.3421565 11.1701429,15.326 L10.3584286,13.096 C10.3044625,12.9477115 10.3809258,12.7837518 10.5292143,12.7297857 C10.6775027,12.6758196 10.8414625,12.752283 10.8954286,12.9005714 L11.4428571,14.4 L11.9884286,12.9011429 C12.0233385,12.805217 12.1067725,12.7352022 12.2073016,12.7174722 C12.3078308,12.6997422 12.4101824,12.7369907 12.4758016,12.8151865 C12.5414208,12.8933823 12.5603385,13.0006456 12.5254286,13.0965714 L12.5258571,13.0961429 Z M13.2507143,15.2428571 C13.2507143,15.4006528 13.1227956,15.5285714 12.965,15.5285714 C12.8072044,15.5285714 12.6792857,15.4006528 12.6792857,15.2428571 L12.6792857,12.9974286 C12.6792857,12.8396329 12.8072044,12.7117143 12.965,12.7117143 C13.1227956,12.7117143 13.2507143,12.8396329 13.2507143,12.9974286 L13.2507143,15.2428571 Z M14.7748571,14.5534286 L14.0285714,14.5534286 L14.0285714,15.2428571 C14.0285714,15.4006528 13.9006528,15.5285714 13.7428571,15.5285714 C13.5850615,15.5285714 13.4571429,15.4006528 13.4571429,15.2428571 L13.4571429,12.9974286 C13.4571428,12.9216524 13.4872448,12.8489799 13.5408266,12.7953981 C13.5944085,12.7418162 13.667081,12.7117143 13.7428571,12.7117143 L14.7748571,12.7117143 C15.2495714,12.7117143 15.6357143,13.1248571 15.6357143,13.6327143 C15.6357143,14.1405714 15.2495714,14.5535714 14.7748571,14.5535714 L14.7748571,14.5534286 Z" id="形状" fill="url(#linearGradient-1)" fill-rule="nonzero"></path>
                <path d="M15.3372857,12.3774286 L15.3372857,4.84385715 C15.3372858,4.61017127 15.1479715,4.4206651 14.9142857,4.42042857 L4.94757143,4.42042857 C4.71405249,4.42034914 4.52455148,4.60933885 4.524,4.84285715 C4.524,4.84285715 4.52071428,6.71157143 4.51757143,8.58571428 L4.511,12.3592857 L4.511,12.3878571 C6.25430565,10.9479339 7.33023402,8.85562146 7.48728572,6.6 C8.86660891,7.87423477 10.9936768,7.87423477 12.373,6.6 C12.5296936,8.85007867 13.6008944,10.937862 15.3372857,12.3774286 Z" id="路径" fill="#FFFFFF"></path>
                <path d="M9.36157143,12.9591429 L6.47142857,12.9591429 C6.31796125,12.962595 6.1953514,13.0879939 6.1953514,13.2415 C6.1953514,13.3950061 6.31796125,13.520405 6.47142857,13.5238571 L9.36157143,13.5238571 C9.51503875,13.520405 9.6376486,13.3950061 9.6376486,13.2415 C9.6376486,13.0879939 9.51503875,12.962595 9.36157143,12.9591429 Z" id="路径" fill="#FFFFFF"></path>
                <polygon id="路径" fill="#FFFFFF" points="4.36428572 15.015 9.64385715 15.015 9.64385715 15.5795714 4.36428572 15.5795714"></polygon>
                <path d="M14.7748571,13.9821429 C14.9344286,13.9821429 15.0642857,13.8251429 15.0642857,13.6327143 C15.0642857,13.4402857 14.9344286,13.2831429 14.7748571,13.2831429 L14.0285714,13.2831429 L14.0285714,13.9821429 L14.7748571,13.9821429 Z M14.7748571,12.7117143 C15.2495714,12.7117143 15.6357143,13.1248571 15.6357143,13.6325714 C15.6357143,14.1402857 15.2495714,14.5534286 14.7748571,14.5534286 L14.0285714,14.5534286 L14.0285714,15.2428571 C14.0285714,15.4006528 13.9006528,15.5285714 13.7428571,15.5285714 C13.5850615,15.5285714 13.4571429,15.4006528 13.4571429,15.2428571 L13.4571429,12.9974286 C13.4571428,12.9216524 13.4872448,12.8489799 13.5408266,12.7953981 C13.5944085,12.7418162 13.667081,12.7117143 13.7428571,12.7117143 L14.7748571,12.7117143 Z M12.965,12.7117143 C13.0407761,12.7117143 13.1134487,12.7418162 13.1670305,12.7953981 C13.2206123,12.8489799 13.2507143,12.9216524 13.2507143,12.9974286 L13.2507143,15.2428571 C13.2507143,15.4006528 13.1227956,15.5285714 12.965,15.5285714 C12.8072044,15.5285714 12.6792857,15.4006528 12.6792857,15.2428571 L12.6792857,12.9974286 C12.6792857,12.9216524 12.7093877,12.8489799 12.7629695,12.7953981 C12.8165513,12.7418162 12.8892239,12.7117143 12.965,12.7117143 Z M12.355,12.7298571 C12.4267208,12.7552677 12.4853433,12.8082367 12.5178723,12.8770222 C12.5504013,12.9458077 12.5541494,13.024727 12.5282857,13.0962857 L11.7165714,15.3262857 C11.7111282,15.3424422 11.7042433,15.3580766 11.696,15.373 C11.6948571,15.3737143 11.6948571,15.375 11.6948571,15.375 C11.692,15.3802857 11.6888571,15.3852857 11.6855714,15.3902857 C11.6844286,15.3922857 11.6831429,15.3941429 11.6818571,15.396 C11.6787143,15.4012857 11.6754286,15.4057143 11.6721429,15.4102857 L11.6677143,15.4157143 C11.6557426,15.4304728 11.6423444,15.4440146 11.6277143,15.4561429 C11.6265879,15.4571727 11.6253948,15.4581272 11.6241429,15.459 C11.6197143,15.4625714 11.6151429,15.466 11.6105714,15.4692857 L11.6044286,15.4734286 C11.5994286,15.4764286 11.5948571,15.4794286 11.5901429,15.4822857 L11.5824286,15.4864286 C11.5752857,15.4902857 11.5684286,15.4937143 11.561,15.497 C11.5565714,15.499 11.5521429,15.501 11.5475714,15.5027143 L11.5431429,15.5045714 L11.5355714,15.507 L11.5252857,15.5101429 L11.5135714,15.5134286 L11.5021429,15.5158571 L11.4908571,15.5181429 L11.4781429,15.5197143 C11.4748571,15.5201429 11.4714286,15.5208571 11.4681429,15.5208571 C11.4615714,15.5217143 11.4548571,15.5217143 11.4482857,15.5217143 L11.4422857,15.5217143 C11.4355714,15.5217143 11.429,15.5208571 11.4224286,15.5208571 L11.4121429,15.5197143 L11.3997143,15.5181429 L11.3881429,15.5158571 L11.3771429,15.5134286 L11.3651429,15.5101429 L11.3548571,15.507 L11.3474286,15.5045714 L11.343,15.5027143 C11.3377143,15.501 11.3331429,15.499 11.3287143,15.497 C11.3218571,15.4937143 11.3144286,15.4902857 11.3075714,15.4865714 L11.2995714,15.4821429 C11.2944286,15.4794286 11.2898571,15.4764286 11.2852857,15.4734286 L11.2791429,15.4692857 C11.2737143,15.466 11.2691429,15.4625714 11.2648571,15.4591429 L11.2611429,15.456 C11.2465606,15.4439192 11.2332099,15.4304249 11.2212857,15.4157143 C11.2198571,15.4138571 11.2182857,15.4121429 11.2168571,15.4101429 C11.2134286,15.405 11.2102857,15.4005714 11.2071429,15.3958571 L11.2032857,15.3901429 C11.2001429,15.3851429 11.197,15.3801429 11.194,15.3748571 C11.193,15.3742857 11.193,15.3735714 11.193,15.3728571 C11.1847567,15.3579337 11.1778718,15.3422993 11.1724286,15.3261429 L10.3607143,13.0961429 C10.3258043,13.000217 10.344722,12.8929537 10.4103412,12.8147579 C10.4759604,12.7365621 10.5783121,12.6993136 10.6788412,12.7170436 C10.7793704,12.7347736 10.8628043,12.8047885 10.8977143,12.9007143 L11.4428571,14.4 L11.9888571,12.9012857 C12.0146423,12.8299726 12.0677195,12.7718353 12.1363964,12.7396806 C12.2050733,12.707526 12.2837158,12.703992 12.355,12.7298571 Z" id="合并形状" fill="#FFFFFF" fill-rule="nonzero"></path>
            </g>
        </g>
    </g>
</svg>