<?xml version="1.0" encoding="UTF-8"?>
<svg width="14px" height="14px" viewBox="0 0 14 14" version="1.1" xmlns="http://www.w3.org/2000/svg" xmlns:xlink="http://www.w3.org/1999/xlink">
    <!-- Generator: Sketch 52.5 (67469) - http://www.bohemiancoding.com/sketch -->
    <title>赞 copy</title>
    <desc>Created with Sketch.</desc>
    <g id="Symbols" stroke="none" stroke-width="1" fill="none" fill-rule="evenodd">
        <g id="赞-copy">
            <g>
                <rect id="矩形" fill="#000000" opacity="0" x="0" y="0" width="14" height="14"></rect>
                <path d="M11.6448651,4.92498614 C11.2022102,4.80878017 10.1612612,4.81013277 8.63888011,4.77004667 C8.71077278,4.43773096 8.72738651,4.13821919 8.72738651,3.60628726 C8.72738651,2.33572995 7.80195224,1.21654617 6.9827721,1.21654617 C6.40488461,1.21654617 5.92796656,1.68933812 5.92075269,2.27068771 C5.91278738,2.98379953 5.69242312,4.21566433 4.50420217,4.84026428 C4.41699372,4.88627176 4.16765106,5.009003 4.13136315,5.02531069 L4.15003995,5.04118665 C3.96392784,4.88071928 3.70633297,4.75791426 3.44176469,4.75791426 L2.37932449,4.75791426 C1.79348809,4.75791426 1.31693073,5.23451261 1.31693073,5.82034354 L1.31693073,11.4864062 C1.31693073,12.0722317 1.79348809,12.5488355 2.37932449,12.5488355 L3.44175923,12.5488355 C3.86333825,12.5488355 4.21570246,12.2942601 4.38655343,11.9373544 C4.3907342,11.9387343 4.39834426,11.940852 4.40318082,11.9415215 C4.42663953,11.947738 4.45403306,11.9546513 4.48788901,11.9636139 C4.49413282,11.9650622 4.49760313,11.9658 4.50420217,11.967863 C4.70823962,12.0183463 5.10073639,12.1123861 5.94004429,12.3053541 C6.1203088,12.3461507 7.07015816,12.5488355 8.05502478,12.5488355 L9.99107971,12.5488355 C10.5810832,12.5488355 11.006455,12.3220225 11.2595958,11.8661695 C11.2630661,11.8592562 11.3446593,11.7000868 11.4110869,11.4849826 C11.4608871,11.3232719 11.4795502,11.0943002 11.4193937,10.8618609 C11.7997854,10.6003585 11.9222188,10.2054571 12.0017735,9.94832679 C12.1352845,9.52638434 12.0951438,9.20961943 12.0025113,8.98275176 C12.2162082,8.78075004 12.3987543,8.47302705 12.4755792,8.00333651 C12.5232617,7.71218625 12.4721089,7.41267721 12.3378874,7.16323891 C12.5385064,6.93811459 12.6298137,6.65484766 12.6401453,6.39273865 L12.6443671,6.31871462 C12.6471269,6.27204313 12.6492173,6.24328335 12.6492173,6.14133294 C12.6492174,5.69380863 12.339322,5.12353122 11.6448651,4.92498614 Z M3.79587227,11.4864062 C3.79587227,11.6821368 3.63749527,11.8405002 3.44176469,11.8405002 L2.37932449,11.8405002 C2.18357478,11.8405002 2.02518959,11.6821368 2.02518959,11.4864062 L2.02518959,5.82035174 C2.02518959,5.62459384 2.18357206,5.46624416 2.37932449,5.46624416 L3.44173464,5.46624416 C3.63749254,5.46624416 3.79586953,5.62459383 3.79586953,5.82035174 L3.79586953,11.4864063 L3.79587227,11.4864062 Z M11.9326134,6.36403351 C11.9257137,6.53901058 11.8523865,6.88269904 11.2326942,6.88269904 C10.7013962,6.88269904 10.5243861,6.88269904 10.5243861,6.88269904 C10.426152,6.88269904 10.3472913,6.96194219 10.3472913,7.05984847 C10.3472913,7.15770829 10.4261519,7.23685307 10.5243861,7.23685307 C10.5243861,7.23685307 10.6792928,7.23685307 11.2104924,7.23685307 C11.7417194,7.23685307 11.8115626,7.67749962 11.7769552,7.88982753 C11.7334398,8.15410343 11.6095746,8.65346915 11.0113462,8.65346915 C10.413719,8.65346915 10.1702239,8.65346915 10.1702239,8.65346915 C10.0719761,8.65346915 9.99318379,8.73232974 9.99318379,8.8305366 C9.99318379,8.92808764 10.0719733,9.00756306 10.1702239,9.00756306 C10.1702239,9.00756306 10.5907864,9.00756306 10.8674516,9.00756306 C11.4650405,9.00756306 11.4124532,9.4634407 11.3266793,9.73523102 C11.2139627,10.0926586 11.1448026,10.4239879 10.3915309,10.4239879 C10.1370374,10.4239879 9.81405601,10.4239879 9.81405601,10.4239879 C9.7158355,10.4239879 9.63702955,10.5028348 9.63702955,10.6010553 C9.63702955,10.6986064 9.7158355,10.7781364 9.81405601,10.7781364 C9.81405601,10.7781364 10.0596005,10.7781364 10.3693729,10.7781364 C10.7567899,10.7781364 10.7747972,11.1447043 10.7346264,11.2760812 C10.6903595,11.4200032 10.6378405,11.5265032 10.6357391,11.5313398 C10.5285423,11.7243515 10.3563114,11.8404974 9.99108521,11.8404974 L8.05503028,11.8404974 C7.08262394,11.8404974 6.11819657,11.6199282 6.0933033,11.6143129 C4.622116,11.2754801 4.54467632,11.2491386 4.45230341,11.2228654 C4.45230341,11.2228654 4.15277797,11.1723957 4.15277797,10.9109753 L4.15004546,6.01988323 C4.15004546,5.85387703 4.25586238,5.70382057 4.43120835,5.65085063 C4.45298655,5.64225137 4.48274371,5.63324772 4.50420768,5.62426318 C6.12204672,4.9543662 6.61450736,3.48529113 6.62908537,2.27901641 C6.63108011,2.10953991 6.76184496,1.92486786 6.98277759,1.92486786 C7.35717414,1.92486786 8.0191796,2.67639075 8.0191796,3.60627903 C8.0191796,4.44594763 7.985269,4.59122218 7.69129058,5.46623321 C11.2326997,5.46623321 11.2077927,5.51701715 11.5203796,5.59900648 C11.9077802,5.70967363 11.9409558,6.03065483 11.9409558,6.1413138 C11.9408929,6.26271159 11.9374226,6.24503217 11.9326134,6.36403351 Z M2.91051044,10.4239906 C2.61728346,10.4239906 2.37932449,10.6619387 2.37932449,10.9552066 C2.37932449,11.2484746 2.61728619,11.4864062 2.91051044,11.4864062 C3.20383852,11.4864062 3.44174011,11.2484719 3.44174011,10.9552066 C3.44174011,10.6619414 3.20380573,10.4239906 2.91051044,10.4239906 Z M2.91051044,11.132326 C2.81302224,11.132326 2.73349763,11.0527549 2.73349763,10.9552039 C2.73349763,10.8576665 2.81304136,10.7781365 2.91051044,10.7781365 C3.00808881,10.7781365 3.08759701,10.8576665 3.08759701,10.9552039 C3.08759701,11.0527549 3.00808881,11.132326 2.91051044,11.132326 Z" id="形状" fill="#FFFFFF" fill-rule="nonzero"></path>
            </g>
        </g>
    </g>
</svg>