<?xml version="1.0" encoding="UTF-8"?>
<svg width="36px" height="36px" viewBox="0 0 36 36" version="1.1" xmlns="http://www.w3.org/2000/svg" xmlns:xlink="http://www.w3.org/1999/xlink">
    <!-- Generator: Sketch 52.5 (67469) - http://www.bohemiancoding.com/sketch -->
    <title>ic_duibishuju_pr</title>
    <desc>Created with Sketch.</desc>
    <g id="Symbols" stroke="none" stroke-width="1" fill="none" fill-rule="evenodd">
        <g id="ic_duibishuju_pr">
            <g>
                <rect id="矩形" fill="#000000" opacity="0" x="0" y="0" width="36" height="36"></rect>
                <g id="分组-18" transform="translate(0.000000, 2.000000)">
                    <polygon id="路径" fill="#FFFFFF" points="20.16 5.75999999 23.94 5.75999999 23.94 17.1 20.16 17.1"></polygon>
                    <polygon id="路径" fill="#6248FF" points="24.48 17.1 23.4 17.1 23.4 6.30000001 20.7 6.30000001 20.7 17.1 19.62 17.1 19.62 5.22 24.48 5.22"></polygon>
                    <polygon id="路径" fill="#FFFFFF" points="6.12000001 2.51999999 9.9 2.51999999 9.9 17.1 6.12000001 17.1"></polygon>
                    <polygon id="路径" fill="#6248FF" points="10.44 17.1 9.36000001 17.1 9.36000001 3.06000001 6.66 3.06000001 6.66 17.1 5.57999999 17.1 5.57999999 1.98 10.44 1.98"></polygon>
                    <polygon id="路径" fill="#FFFFFF" points="13.14 10.62 16.92 10.62 16.92 17.1 13.14 17.1"></polygon>
                    <polygon id="路径" fill="#6248FF" points="17.46 17.1 16.38 17.1 16.38 11.16 13.68 11.16 13.68 17.1 12.6 17.1 12.6 10.08 17.46 10.08"></polygon>
                    <polygon id="路径" fill="#FFFFFF" points="27.18 12.78 30.96 12.78 30.96 17.1 27.18 17.1"></polygon>
                    <polygon id="路径" fill="#6248FF" points="31.5 17.1 30.42 17.1 30.42 13.32 27.72 13.32 27.72 17.1 26.64 17.1 26.64 12.24 31.5 12.24"></polygon>
                    <polygon id="路径" fill="#6248FF" points="18 20.34 21.78 20.34 21.78 23.04 18 23.04"></polygon>
                    <polygon id="路径" fill="#6248FF" points="22.32 23.58 17.46 23.58 17.46 20.34 18.54 20.34 18.54 22.5 21.24 22.5 21.24 20.34 22.32 20.34"></polygon>
                    <polygon id="路径" fill="#6248FF" points="3.42 20.34 7.19999999 20.34 7.19999999 30.6 3.42 30.6"></polygon>
                    <polygon id="路径" fill="#6248FF" points="7.74000001 31.14 2.88000001 31.14 2.88000001 20.34 3.95999999 20.34 3.95999999 30.06 6.66 30.06 6.66 20.34 7.74000001 20.34"></polygon>
                    <polygon id="路径" fill="#6248FF" points="10.44 20.34 14.22 20.34 14.22 25.74 10.44 25.74"></polygon>
                    <polygon id="路径" fill="#6248FF" points="14.76 26.28 9.9 26.28 9.9 20.34 10.98 20.34 10.98 25.2 13.68 25.2 13.68 20.34 14.76 20.34"></polygon>
                    <polygon id="路径" fill="#6248FF" points="24.48 20.34 28.26 20.34 28.26 26.82 24.48 26.82"></polygon>
                    <polygon id="路径" fill="#6248FF" points="28.8 27.36 23.94 27.36 23.94 20.34 25.02 20.34 25.02 26.28 27.72 26.28 27.72 20.34 28.8 20.34"></polygon>
                    <polygon id="路径" fill="#6248FF" points="29.88 3.6 30.96 3.6 30.96 6.84 29.88 6.84"></polygon>
                    <path d="M28.8,4.68000001 L32.04,4.68000001 L32.04,5.75999999 L28.8,5.75999999 L28.8,4.68000001 Z M24.48,0.36 L25.56,0.36 L25.56,3.6 L24.48,3.6 L24.48,0.36 Z" id="形状" fill="#6248FF" fill-rule="nonzero"></path>
                    <path d="M23.4,1.44000001 L26.64,1.44000001 L26.64,2.51999999 L23.4,2.51999999 L23.4,1.44000001 Z M25.02,30.6 L28.26,30.6 L28.26,31.68 L25.02,31.68 L25.02,30.6 Z M18.54,27.36 L21.78,27.36 L21.78,28.44 L18.54,28.44 L18.54,27.36 Z" id="形状" fill="#6248FF" fill-rule="nonzero"></path>
                    <path d="M3.95999999,18.18 L33.12,18.18 L33.12,20.71125 L3.95999999,20.71125 L3.95999999,18.18 Z M0.719999987,18.18 L2.88000001,18.18 L2.88000001,20.71125 L0.719999987,20.71125 L0.719999987,18.18 Z M34.2,18.18 L35.28,18.18 L35.28,20.71125 L34.2,20.71125 L34.2,18.18 Z" id="形状" fill="#6248FF" fill-rule="nonzero"></path>
                </g>
            </g>
        </g>
    </g>
</svg>