<?xml version="1.0" encoding="UTF-8"?>
<svg width="36px" height="36px" viewBox="0 0 36 36" version="1.1" xmlns="http://www.w3.org/2000/svg" xmlns:xlink="http://www.w3.org/1999/xlink">
    <!-- Generator: Sketch 52.5 (67469) - http://www.bohemiancoding.com/sketch -->
    <title>ic_data</title>
    <desc>Created with Sketch.</desc>
    <g id="Symbols" stroke="none" stroke-width="1" fill="none" fill-rule="evenodd">
        <g id="ic_data">
            <g>
                <g>
                    <rect id="矩形" fill="#000000" opacity="0" x="0" y="0" width="35.964878" height="35.964878"></rect>
                    <path d="M9.26271324,17.797238 C8.92407773,17.7329543 8.57992271,17.7022612 8.23525589,17.7056052 C7.05182778,17.7056052 6.20763607,18.0389927 5.36344435,18.7194151 L5.36344435,11.7884647 C5.36344435,11.5740049 5.53891145,11.3985378 5.75337124,11.3985378 L8.87278635,11.3985378 C9.08724614,11.3985378 9.26271324,11.5740049 9.26271324,11.7884647 L9.26271324,17.797238 Z M9.26271324,22.1683184 L9.26271324,26.5764419 C9.26271324,26.7917926 9.08813703,26.9663688 8.87278635,26.9663688 L5.75337124,26.9663688 C5.53802057,26.9663688 5.36344435,26.7917926 5.36344435,26.5764419 L5.36344435,23.7845654 C5.96198213,23.4628757 6.50982941,23.0222583 7.06937449,22.4627132 L7.41445979,22.1156783 C7.86287571,21.6672624 7.97595451,21.6048741 8.23525589,21.6048741 C8.50820471,21.6048741 8.71876523,21.7023558 9.26271324,22.1683184 Z M16.9540211,15.4206336 C16.7039431,15.851869 16.4589222,16.2860174 16.2190089,16.7229894 C14.8328188,19.210723 14.0451665,20.2518278 13.7527214,20.3025183 C13.556375,20.3493106 13.3504746,20.3357198 13.1619821,20.2635256 L13.1619821,15.6877335 C13.1619821,15.4732738 13.3374492,15.2978067 13.551909,15.2978067 L16.6713241,15.2978067 C16.7784261,15.2981868 16.8806565,15.3426041 16.9540211,15.4206336 Z M17.061251,22.6225833 L17.061251,26.5764419 C17.061251,26.7917926 16.8866748,26.9663688 16.6713241,26.9663688 L13.551909,26.9663688 C13.3365583,26.9663688 13.1619821,26.7917926 13.1619821,26.5764419 L13.1619821,24.2388302 C13.5460601,24.2544273 13.957433,24.2232331 14.4097482,24.1452478 C15.4839968,23.9619821 16.2619009,23.5311129 17.061251,22.6245329 L17.061251,22.6225833 Z M22.9101543,11.242567 C22.3555608,11.1078487 21.7776542,11.1005166 21.2198213,11.221121 C20.3541836,11.4004874 19.6737612,11.7787165 19.0108855,12.4591389 L19.0108855,3.98992689 C19.0108855,3.7754671 19.1863526,3.6 19.4008123,3.6 L22.5202275,3.6 C22.7346872,3.6 22.9101543,3.7754671 22.9101543,3.98992689 L22.9101543,11.242567 Z M22.9101543,15.7442729 L22.9101543,26.5764419 C22.9101543,26.7917926 22.7355781,26.9663688 22.5202275,26.9663688 L19.4008123,26.9663688 C19.1854617,26.9663688 19.0108855,26.7917926 19.0108855,26.5764419 L19.0108855,19.7078798 C19.3410109,19.1364116 19.6646709,18.5612328 19.9818034,17.9824533 C21.093095,16.0035743 21.6409423,15.2139724 21.91974,15.1106418 C22.1595451,15.0229082 22.5923639,15.4323314 22.9101543,15.7442729 Z M30.7086921,15.8476036 C29.184078,15.8164094 28.1059301,15.2763607 26.8094232,14.0870837 L26.8094232,9.83883022 C26.8094232,9.62437043 26.9848903,9.44890333 27.1993501,9.44890333 L30.3187652,9.44890333 C30.533225,9.44890333 30.7086921,9.62437043 30.7086921,9.83883022 L30.7086921,15.8476036 Z M30.7086921,19.7468725 L30.7086921,26.5764419 C30.7086921,26.7917926 30.5341159,26.9663688 30.3187652,26.9663688 L27.1993501,26.9663688 C26.9839994,26.9663688 26.8094232,26.7917926 26.8094232,26.5764419 L26.8094232,18.8402924 C27.9714054,19.4212835 29.2269699,19.7293258 30.7086921,19.7488221 L30.7086921,19.7468725 Z M2.81722177,28.9452478 L33.1886271,28.9452478 C33.4030869,28.9452478 33.578554,29.1207149 33.578554,29.3351747 L33.578554,31.4797725 C33.578554,31.6951232 33.4039778,31.8696994 33.1886271,31.8696994 L2.81722177,31.8696994 C2.71380673,31.8696994 2.6146273,31.828618 2.54150182,31.7554925 C2.46837635,31.682367 2.42729488,31.5831876 2.42729488,31.4797725 L2.42729488,29.3351747 C2.42729488,29.1207149 2.60276198,28.9452478 2.81722177,28.9452478 Z M22.9277011,14.469212 C22.4656377,14.1182778 22.1478473,14.0149472 21.8125102,14.0831844 C21.2042242,14.2099106 20.4126726,15.2256702 19.1317628,17.5047929 L18.7730301,18.1481722 C16.8038993,21.6828595 15.8797725,22.9052803 14.2459789,23.1860276 C12.6082859,23.4648253 11.6822096,23.0086109 10.202437,21.6945573 C9.26271324,20.8601137 8.86693745,20.6300569 8.23525589,20.6300569 C7.664013,20.6300569 7.33842405,20.8133225 6.72623883,21.4255077 L6.38115353,21.7725426 C5.2074736,22.9423233 4.1605199,23.4862713 2.4,23.4862713 L2.4,21.5366369 C3.57367994,21.5366369 4.16636881,21.2305443 5.00471162,20.3922015 L5.34784728,20.0471162 C6.29147035,19.1034931 7.03818034,18.6804224 8.23525589,18.6804224 C9.49277011,18.6804224 10.2219334,19.1034931 11.4696994,20.2128351 C12.5731925,21.1915516 13.0274574,21.4157595 13.9184403,21.2636881 C14.6573517,21.1369618 15.4898457,20.0354184 17.0709992,17.1987002 L17.4336312,16.549472 C19.0518278,13.6698619 19.9857027,12.4727864 21.4167344,12.1744923 C22.3818034,11.9756296 23.2357433,12.2544273 24.1072299,12.917303 C24.4074736,13.1454102 24.6999188,13.4066613 25.0976442,13.7907392 C24.8831844,13.584078 25.8326564,14.5101543 26.0685621,14.730463 C27.6048741,16.1575955 28.9345248,16.8243704 30.8510154,16.8243704 L33.6,16.8243704 L33.6,18.7740049 L30.8510154,18.7740049 C28.3671812,18.7740049 26.6047116,17.8908205 24.7408611,16.1575955 C24.4874086,15.9216897 23.5262388,14.9858652 23.7348497,15.1866775 C23.3917141,14.8552396 23.151909,14.6407799 22.9277011,14.469212 Z" id="形状" fill="#6B7177" fill-rule="nonzero"></path>
                </g>
            </g>
        </g>
    </g>
</svg>