<?xml version="1.0" encoding="UTF-8"?>
<svg width="20px" height="20px" viewBox="0 0 20 20" version="1.1" xmlns="http://www.w3.org/2000/svg" xmlns:xlink="http://www.w3.org/1999/xlink">
    <!-- Generator: Sketch 52.5 (67469) - http://www.bohemiancoding.com/sketch -->
    <title>ic_gyfp</title>
    <desc>Created with Sketch.</desc>
    <g id="Symbols" stroke="none" stroke-width="1" fill="none" fill-rule="evenodd">
        <g id="ic_gyfp">
            <g id="发票管理">
                <g>
                    <rect id="矩形" fill="#000000" opacity="0" x="0" y="0" width="20" height="20"></rect>
                    <path d="M17.4999344,9.26996523 C14.6243799,8.0101871 11.2605243,9.07904806 9.63954493,11.7675942 C8.0185656,14.4561404 8.64354989,17.9299543 11.0999584,19.8849254 C10.7514314,20.0390781 10.3459243,19.9850105 10.0499623,19.744926 L8.62496766,18.6099302 L7.34872244,19.744926 C7.16669429,19.9036265 6.93270755,19.9899258 6.6912249,19.987425 C6.45211338,19.989666 6.22045358,19.9042943 6.03997734,19.7474259 L4.76623213,18.6124302 L3.47748695,19.7574259 C3.29542346,19.9152342 3.06217162,20.0014263 2.82123941,19.999925 C2.58163821,20.0028234 2.34936001,19.9173877 2.16874188,19.7599259 L0.67374748,18.4299309 C0.627158001,18.3895698 0.585983393,18.3433534 0.55124793,18.2924314 C0.210799383,18.0495997 0.00614501264,17.6593178 7.4748816e-15,17.2411854 L7.4748816e-15,1.00374623 C7.32888782e-15,0.44999832 0.44999832,0 0.991246289,0 L16.5086881,0 C17.056186,0 17.4999344,0.44624832 17.4999344,1.00374623 L17.4999344,9.26996523 Z M1.9999925,8.38871854 C1.9999925,8.65246754 2.21874168,8.88121668 2.48749066,8.8812167 L7.01247371,8.8812167 C7.29122266,8.8812167 7.49997188,8.66121752 7.49997188,8.38871854 C7.49865496,8.11900255 7.28215104,7.89972294 7.01247371,7.89497039 L2.48749066,7.89497039 C2.3568977,7.89427594 2.23154319,7.94627672 2.13978875,8.03920749 C2.04803432,8.13213827 1.99763456,8.25814501 1.9999925,8.38871854 Z M1.9999925,12.3349537 C1.9999925,12.5999528 2.2149917,12.8287019 2.4812407,12.8287019 L6.01872742,12.8287019 C6.14802337,12.8270549 6.27136818,12.7741072 6.361622,12.6815092 C6.45187582,12.5889111 6.50164389,12.4642494 6.49997563,12.3349537 C6.50004548,12.067288 6.28632332,11.8485698 6.01872742,11.8424556 L2.4812407,11.8424556 C2.21248717,11.8458871 1.99721391,12.0661927 1.9999925,12.3349538 Z M1.9999925,3.9474852 C1.9999925,4.2124842 2.21999168,4.44123334 2.49249064,4.44123334 L9.00746623,4.44123334 C9.2824652,4.44123334 9.49996438,4.21998416 9.49996438,3.9474852 C9.49793254,3.67612795 9.27881745,3.45645673 9.00746623,3.45373705 L2.49249064,3.45373705 C2.36144993,3.45306462 2.23559986,3.5049088 2.14305638,3.59768716 C2.0505129,3.69046552 1.9989879,3.81644661 1.9999925,3.9474852 Z" id="形状" fill="#ADB5BD" fill-rule="nonzero"></path>
                    <path d="M14.9999437,19.999925 C12.2385304,19.999925 9.9999625,17.7613571 9.9999625,14.9999437 C9.9999625,12.2385304 12.2385304,9.9999625 14.9999437,9.9999625 C17.7613571,9.9999625 19.999925,12.2385304 19.999925,14.9999437 C19.999925,17.7613571 17.7613571,19.999925 14.9999437,19.999925 Z M17.3586849,14.932444 C17.5141805,14.9445401 17.6633289,14.8684318 17.7447805,14.7354248 C17.826232,14.6024179 17.826232,14.4349732 17.7447805,14.3019663 C17.6633289,14.1689593 17.5141805,14.092851 17.3586849,14.1049471 L16.2811889,14.1049471 L17.3561849,13.0324511 C17.4348167,12.9549307 17.4790861,12.8491213 17.4790861,12.7387022 C17.4790861,12.6282832 17.4348167,12.5224737 17.3561849,12.4449533 C17.1932057,12.2845318 16.9316663,12.2845318 16.7686871,12.4449533 L15.2399429,13.9674476 L13.7124486,12.4462033 C13.5491722,12.2841344 13.2857272,12.2841344 13.1224508,12.4462033 C13.043819,12.5237237 12.9995496,12.6295332 12.9995496,12.7399522 C12.9995496,12.8503713 13.043819,12.9561807 13.1224508,13.0337011 L14.1999468,14.1049471 L13.1924505,14.1049471 C12.972431,14.1170358 12.8002194,14.2989692 12.8002194,14.5193206 C12.8002194,14.7396719 12.972431,14.9216053 13.1924505,14.933694 L14.8586943,14.933694 L14.8586943,15.7624409 L13.1912005,15.7624409 C12.9620032,15.7624409 12.7762021,15.948242 12.7762021,16.1774393 C12.7762021,16.4066366 12.9620032,16.5924378 13.1912005,16.5924378 L14.8586943,16.5924378 L14.8586943,17.5586842 C14.8586943,17.788917 15.0453349,17.9755576 15.2755677,17.9755576 C15.5058006,17.9755576 15.6924412,17.788917 15.6924412,17.5586842 L15.6924412,16.5924378 L17.3586849,16.5924378 C17.5878822,16.5924378 17.7736833,16.4066366 17.7736833,16.1774393 C17.7736833,15.948242 17.5878822,15.7624409 17.3586849,15.7624409 L15.6924412,15.7624409 L15.6924412,14.932444 L17.3586849,14.932444 Z" id="形状" fill="#ADB5BD" fill-rule="nonzero"></path>
                </g>
            </g>
        </g>
    </g>
</svg>