<?xml version="1.0" encoding="UTF-8"?>
<svg width="20px" height="20px" viewBox="0 0 20 20" version="1.1" xmlns="http://www.w3.org/2000/svg" xmlns:xlink="http://www.w3.org/1999/xlink">
    <!-- Generator: Sketch 52.5 (67469) - http://www.bohemiancoding.com/sketch -->
    <title>ic_gysj</title>
    <desc>Created with Sketch.</desc>
    <g id="Symbols" stroke="none" stroke-width="1" fill="none" fill-rule="evenodd">
        <g id="ic_gysj">
            <g>
                <rect id="矩形" fill="#000000" opacity="0" x="0" y="0" width="20" height="20"></rect>
                <path d="M4.48046875,10.1015625 L6.45703125,10.1015625 L6.45703125,12.3144531 L4.48046875,12.3144531 L4.48046875,10.1015625 Z M7.24804688,8.33007812 L9.22460938,8.33007812 L9.22460938,12.3144531 L7.24804688,12.3144531 L7.24804688,8.33007812 Z M12.609375,15.3710938 C12.609375,15.1699219 12.4648438,15.0058594 12.2851562,15.0058594 L7.734375,15.0058594 C7.5546875,15.0058594 7.41015625,15.1699219 7.41015625,15.3710938 L7.41015625,16.8339844 L4.16015625,16.8339844 L4.16015625,17.9316406 L15.859375,17.9316406 L15.859375,16.8339844 L12.609375,16.8339844 L12.609375,15.3710938 Z M17.3183594,2.05273438 L2.70117188,2.05273438 C2.09570312,2.05273438 1.60546875,2.54296875 1.60546875,3.1484375 L1.60546875,13.3808594 C1.60546875,13.984375 2.09570312,14.4765625 2.70117188,14.4765625 L17.3183594,14.4765625 C17.9238281,14.4765625 18.4160156,13.9863281 18.4160156,13.3808594 L18.4160156,3.1484375 C18.4140625,2.54492188 17.9238281,2.05273438 17.3183594,2.05273438 Z M17.3183594,13.015625 C17.3183594,13.2167969 17.1542969,13.3808594 16.953125,13.3808594 L3.06640625,13.3808594 C2.86328125,13.3808594 2.70117188,13.2167969 2.70117188,13.015625 L2.70117188,3.51367188 C2.70117188,3.3125 2.86328125,3.1484375 3.06640625,3.1484375 L16.953125,3.1484375 C17.1542969,3.1484375 17.3183594,3.31054688 17.3183594,3.51367188 L17.3183594,13.015625 Z M13.5742188,6.56054688 L15.5507813,6.56054688 L15.5507813,12.3164062 L13.5742188,12.3164062 L13.5742188,6.56054688 Z M10.4121094,4.7890625 L12.3886719,4.7890625 L12.3886719,12.3164062 L10.4121094,12.3164062 L10.4121094,4.7890625 Z" id="形状" fill="#ADB5BD" fill-rule="nonzero"></path>
            </g>
        </g>
    </g>
</svg>