<?xml version="1.0" encoding="UTF-8"?>
<svg width="20px" height="20px" viewBox="0 0 20 20" version="1.1" xmlns="http://www.w3.org/2000/svg" xmlns:xlink="http://www.w3.org/1999/xlink">
    <!-- Generator: Sketch 52.5 (67469) - http://www.bohemiancoding.com/sketch -->
    <title>ic_gytk</title>
    <desc>Created with Sketch.</desc>
    <g id="Symbols" stroke="none" stroke-width="1" fill="none" fill-rule="evenodd">
        <g id="ic_gytk">
            <g id="退款">
                <g>
                    <rect id="矩形" fill="#000000" opacity="0" x="0" y="0" width="20" height="20"></rect>
                    <path d="M10,3.33333334 C6.3175,3.33333334 3.33333334,6.31833334 3.33333334,10 C3.33333334,13.6820833 6.3175,16.6666667 10,16.6666667 C13.6816667,16.6666667 16.6666667,13.6820833 16.6666667,10 C16.6666667,6.31833334 13.6816667,3.33333334 10,3.33333334 Z M12.6083333,10.3883333 C12.8704167,10.3883333 13.0829167,10.6004167 13.0829167,10.8629167 C13.0829167,11.1254167 12.8704167,11.3375 12.6083333,11.3375 L10.4745833,11.3375 L10.4745833,13.6929167 C10.4745833,13.9545833 10.26125,14.1666667 10,14.1666667 C9.73916666,14.1666667 9.52541666,13.9545833 9.52541666,13.6925 L9.52541666,11.3370833 L7.39166666,11.3370833 C7.12958332,11.3370833 6.91708332,11.125 6.91708332,10.8625 C6.91708332,10.6 7.12958332,10.3879167 7.39166666,10.3879167 L9.52541666,10.3879167 L9.52541666,9.27166666 L7.39166666,9.27166666 C7.12958332,9.27166666 6.91708332,9.05958332 6.91708332,8.79708332 C6.91708332,8.53541666 7.12958332,8.32291666 7.39166666,8.32291666 L9.52541666,8.32291666 L9.52541666,8.19666666 L8.00333332,6.64666666 C8.00291666,6.64625 8.00208332,6.64583332 8.00166666,6.64541666 C8.00125,6.645 8.00083332,6.64416666 8.00041666,6.64375 L7.98875,6.63166666 L7.99125,6.62916666 C7.82208334,6.44125 7.82625,6.15291666 8.00833334,5.975 C8.19083334,5.79583334 8.47666668,5.79791666 8.66208334,5.96875 L8.66458334,5.96625 L8.67708334,5.97916666 C8.67791668,5.97958332 8.67875,5.98 8.67916668,5.98041666 C8.67958336,5.98083332 8.68000002,5.98166666 8.68041668,5.9825 L9.99125002,7.31666666 L11.3095834,5.97375 C11.4929167,5.78666666 11.79375,5.785 11.9804167,5.96791666 C12.1675,6.15166666 12.1691667,6.45166666 11.98625,6.63875 L10.4745834,8.17708334 L10.4745834,8.32208334 L12.6083334,8.32208334 C12.8704167,8.32208334 13.0829167,8.53458334 13.0829167,8.79625 C13.0829167,9.05875 12.8704167,9.27083334 12.6083334,9.27083334 L10.4745834,9.27083334 L10.4745834,10.3870833 L12.6083333,10.3870833 L12.6083333,10.3883333 Z M10,0 C6.695,0 3.76875,1.60625 1.94833334,4.07708334 L1.34416668,3.72833334 L1.34041666,3.73041666 C1.14375,3.62791666 0.89958334,3.69458334 0.78791666,3.88833334 C0.75208332,3.95041668 0.73958332,4.01708334 0.73791666,4.08375 L0.72875,4.08833334 L0.9525,6.34666668 L0.96291666,6.35250002 C0.97458332,6.48333336 1.04,6.60750002 1.1625,6.67791668 C1.28458334,6.74833334 1.42458334,6.74250002 1.54375,6.68708334 L1.55416666,6.69333334 L3.58166666,5.775 L3.58208332,5.76625 C3.65541666,5.73125 3.72124998,5.6825 3.76458332,5.60708334 C3.87291666,5.41958334 3.81374998,5.18666668 3.64124998,5.06333334 L3.64208332,5.05458334 L3.04458332,4.70958334 C4.64291666,2.61208334 7.15833334,1.25 10,1.25 C14.8325,1.25 18.75,5.16791666 18.75,10 C18.75,14.8333333 14.8325,18.75 10,18.75 C6.67541666,18.75 3.78458334,16.8966667 2.30375,14.1666667 L1.16625,14.6770833 C2.84458334,17.84125 6.1675,20 10,20 C15.5225,20 20,15.5233333 20,10 C20,4.4775 15.5225,0 10,0 Z" id="形状" fill="#ADB5BD" fill-rule="nonzero"></path>
                </g>
            </g>
        </g>
    </g>
</svg>