<?xml version="1.0" encoding="UTF-8"?>
<svg width="14px" height="14px" viewBox="0 0 14 14" version="1.1" xmlns="http://www.w3.org/2000/svg" xmlns:xlink="http://www.w3.org/1999/xlink">
    <!-- Generator: Sketch 52.5 (67469) - http://www.bohemiancoding.com/sketch -->
    <title>ic_order form</title>
    <desc>Created with Sketch.</desc>
    <g id="Symbols" stroke="none" stroke-width="1" fill="none" fill-rule="evenodd">
        <g id="ic_order-form">
            <g>
                <rect id="矩形" fill="#000000" opacity="0" x="0" y="0" width="14" height="14"></rect>
                <path d="M4.57157548,3.53484337 C4.57157548,3.78983449 4.36517342,3.99655833 4.11012634,3.99655833 C3.85542903,3.99655833 3.6486912,3.78983449 3.6486912,3.53484337 C3.6486912,3.28036991 3.85535907,3.07363208 4.11012634,3.07363208 C4.36511745,3.07352016 4.57157548,3.28036991 4.57157548,3.53484337 Z M4.57157548,5.22709403 C4.57157548,5.48226703 4.36517342,5.68824937 4.11012634,5.68824937 C3.85542903,5.68824937 3.6486912,5.48211312 3.6486912,5.22709403 C3.6486912,4.97232676 3.85535907,4.76593869 4.11012634,4.76593869 C4.36511745,4.76595268 4.57157548,4.97250864 4.57157548,5.22709403 Z M3.6486772,6.91954055 C3.6486772,7.04036263 3.69839948,7.16041524 3.78385354,7.24579935 C3.86925164,7.33123943 3.98930425,7.3809757 4.11011234,7.3809757 C4.23092044,7.3809757 4.35100102,7.33123941 4.43644109,7.24579935 C4.52183919,7.16040125 4.57156148,7.04034864 4.57156148,6.91954055 C4.57156148,6.79873246 4.52182519,6.67865188 4.43644109,6.5932118 C4.35100102,6.50782769 4.23093442,6.4581054 4.11011234,6.4581054 C3.98929027,6.4581054 3.86923765,6.50784169 3.78385354,6.5932118 C3.69839948,6.67865187 3.6486772,6.79871847 3.6486772,6.91954055 Z M8.74448425,3.95174671 L5.64835541,3.95174671 C5.41856122,3.95174671 5.23185779,3.76526715 5.23185779,3.53484338 C5.23185779,3.30492326 5.4185612,3.11845769 5.64835541,3.11845769 L8.74454021,3.11845769 C8.97468417,3.11845769 9.16105181,3.30492326 9.16105181,3.53484338 C9.16116373,3.76526715 8.97486604,3.95174671 8.74448425,3.95174671 Z M8.74448425,5.64419324 L5.64835541,5.64419324 C5.41856122,5.64419324 5.23185779,5.45741987 5.23185779,5.22727591 C5.23185779,4.99707599 5.4185612,4.81030262 5.64835541,4.81030262 L8.74454021,4.81030262 C8.97468417,4.81030262 9.16105181,4.99707599 9.16105181,5.22727591 C9.16105181,5.45741987 8.97486604,5.64419324 8.74448425,5.64419324 Z M8.74448425,7.33633197 L5.64835541,7.33633197 C5.41856122,7.33633197 5.23185779,7.14954461 5.23185779,6.91966647 C5.23185779,6.68906082 5.4185612,6.50274913 5.64835541,6.50274913 L8.74454021,6.50274913 C8.97468417,6.50274913 9.16105181,6.68904682 9.16105181,6.91966647 C9.16116373,7.1495586 8.97486604,7.33633197 8.74448425,7.33633197 Z M3.6486772,8.50662451 C3.6486772,8.62744658 3.69839948,8.74751318 3.78385354,8.83288331 C3.86925164,8.91833737 3.98930425,8.96805965 4.11011234,8.96805965 C4.23092044,8.96805965 4.35100102,8.91833737 4.43644109,8.83288331 C4.52183919,8.7474992 4.57156148,8.6274326 4.57156148,8.50662451 C4.57156148,8.38581641 4.52182519,8.26574982 4.43644109,8.18030974 C4.35100102,8.09491164 4.23093442,8.04518936 4.11011234,8.04518936 C3.98929027,8.04518936 3.86923765,8.09492564 3.78385354,8.18030974 C3.69839948,8.26574982 3.6486772,8.38580243 3.6486772,8.50662451 Z M8.74448425,8.92352785 L5.64835541,8.92352785 C5.41856122,8.92352785 5.23185779,8.73692237 5.23185779,8.50661052 C5.23185779,8.27642458 5.4185612,8.09005694 5.64835541,8.09005694 L8.74454021,8.09005694 C8.97468417,8.09005694 9.16105181,8.27642458 9.16105181,8.50661052 C9.16116373,8.73692237 8.97486604,8.92352785 8.74448425,8.92352785 Z M13.1073422,3.31538817 C13.1073422,1.80995285 12.5514151,1.25406775 11.8652644,1.25406775 L3.4172601,1.25406775 C2.71166249,1.25406775 2.13718399,1.82804259 2.13718399,2.53433972 L2.13718399,10.5821733 L2.13472165,10.5821733 L0.892643787,10.5821733 C0.892643787,12.4617289 1.58632147,12.7459183 2.44284875,12.7459183 L3.4172601,12.7459183 L8.86296991,12.7459183 L9.85333044,12.7459183 C10.5595017,12.7459183 11.1337003,12.1719434 11.1337003,11.4657162 L11.1337003,3.31538817 L13.1073422,3.31538817 Z M10.6213677,11.4655484 C10.6213677,11.8889993 10.2769492,12.2335716 9.85334443,12.2335716 C9.16771129,12.2335716 8.81675923,12.0872588 8.81675923,10.5818795 L7.02807197,10.5818795 L2.64951662,10.5818795 L2.64951662,2.53415784 C2.64951662,2.11070694 2.99347342,1.76613456 3.41713418,1.76613456 L10.9593086,1.76613456 C10.7562503,2.08795836 10.629762,2.57501014 10.6242358,3.27015683 C10.6225989,3.28579822 10.6212558,3.30138365 10.6212558,3.31538817 L10.6212558,11.4655484 L10.6213677,11.4655484 Z" id="形状" fill="#ADB5BD" fill-rule="nonzero"></path>
            </g>
        </g>
    </g>
</svg>