<?xml version="1.0" encoding="UTF-8"?>
<svg width="20px" height="20px" viewBox="0 0 20 20" version="1.1" xmlns="http://www.w3.org/2000/svg" xmlns:xlink="http://www.w3.org/1999/xlink">
    <!-- Generator: Sketch 52.5 (67469) - http://www.bohemiancoding.com/sketch -->
    <title>ic_xqbz</title>
    <desc>Created with Sketch.</desc>
    <g id="Symbols" stroke="none" stroke-width="1" fill="none" fill-rule="evenodd">
        <g id="ic_xqbz">
            <g>
                <rect id="矩形" fill="#000000" opacity="0" x="0" y="0" width="20" height="20"></rect>
                <path d="M10,19.1666667 C4.93738039,19.1666667 0.833333333,15.0625964 0.833333333,10 C0.833333333,4.93738039 4.93738037,0.833333333 10,0.833333333 C15.0625964,0.833333333 19.1666667,4.93738037 19.1666667,10 C19.1666667,15.0625964 15.0625964,19.1666667 10,19.1666667 Z M8.9455934,16.2769664 C9.18952191,16.5332051 9.50073861,16.6613245 9.87905774,16.6613245 C10.2451131,16.6613245 10.5683381,16.5394996 10.8491741,16.2952459 C11.1054128,16.0390072 11.2335322,15.7218676 11.2335322,15.3434788 C11.2335322,14.953105 11.1054128,14.6419579 10.8491741,14.4100145 C10.6049204,14.1660628 10.2817651,14.0439359 9.87905774,14.0439359 C9.48840516,14.0439359 9.17725812,14.1660628 8.9455934,14.4100145 C8.67704444,14.6419579 8.5429093,14.953105 8.5429093,15.3434788 C8.54288608,15.7095574 8.6770212,16.0207044 8.9455934,16.2769664 Z M13.0638553,4.3064227 C12.3437529,3.65981011 11.3859468,3.33635284 10.190228,3.33635284 C8.84776186,3.33635284 7.79247266,3.72702864 7.02368677,4.50779959 C6.24261387,5.27653902 5.85228646,6.32613766 5.85228646,7.6559916 L7.79247263,7.6559916 C7.79247263,6.83863835 7.95719754,6.21000336 8.28664734,5.77073695 C8.65272591,5.25823626 9.25046918,5.00199752 10.0804114,5.00199752 C10.7393342,5.00199752 11.2518117,5.18500197 11.617867,5.55108054 C11.9716586,5.92944611 12.1486705,6.42963657 12.1486705,7.05197709 C12.1486705,7.51586395 11.9839456,7.96116935 11.6544958,8.38814875 L11.3433487,8.73592455 C10.2085075,9.74889443 9.51295594,10.5053701 9.2567172,11.0055373 C9.024797,11.4694242 8.90896464,12.0488647 8.90896464,12.7443931 L8.90896464,13.0555401 L10.8674536,13.0555401 L10.8674536,12.7443931 C10.8674536,12.2808081 10.96496,11.8721315 11.1602979,11.518038 C11.3187283,11.2008752 11.5689745,10.8897282 11.9107345,10.5845737 C12.7646933,9.85243976 13.2835117,9.37652137 13.4665394,9.15688817 C13.9178373,8.55916812 14.143765,7.81470076 14.143765,6.92385772 C14.1437882,5.82564525 13.7837254,4.9533837 13.0638553,4.3064227 Z" id="形状" fill="#ADB5BD" fill-rule="nonzero"></path>
            </g>
        </g>
    </g>
</svg>