<?xml version="1.0" encoding="UTF-8"?>
<svg width="36px" height="36px" viewBox="0 0 36 36" version="1.1" xmlns="http://www.w3.org/2000/svg" xmlns:xlink="http://www.w3.org/1999/xlink">
    <!-- Generator: Sketch 52.5 (67469) - http://www.bohemiancoding.com/sketch -->
    <title>ic_yuceshuju_pr</title>
    <desc>Created with Sketch.</desc>
    <g id="Symbols" stroke="none" stroke-width="1" fill="none" fill-rule="evenodd">
        <g id="ic_yuceshuju_pr">
            <g>
                <rect id="矩形" fill="#000000" opacity="0" x="0" y="0" width="36" height="36"></rect>
                <path d="M18.0386719,35.9015625 C15.6234375,35.9015625 13.2820312,35.4269531 11.0777344,34.4953125 C8.94726562,33.5953125 7.03476562,32.3050781 5.39296875,30.6632812 C3.75117188,29.0214844 2.4609375,27.1089844 1.5609375,24.9785156 C0.629296875,22.7742187 0.1546875,20.4328125 0.1546875,18.0175781 C0.1546875,15.6023437 0.629296875,13.2609375 1.5609375,11.0566406 C2.4609375,8.92617187 3.75117187,7.01367187 5.39296875,5.371875 C7.03476562,3.73007813 8.94726562,2.446875 11.0777344,1.546875 C13.2820312,0.615234375 15.6234375,0.140625 18.0386719,0.140625 C20.4539062,0.140625 22.7953125,0.615234375 24.9996094,1.546875 C27.1300781,2.446875 29.0425781,3.73710937 30.684375,5.37890625 C32.3261719,7.02070312 33.6164062,8.93320312 34.5164062,11.0636719 C35.4480469,13.2679687 35.9226562,15.609375 35.9226562,18.0246094 C35.9226562,20.4398438 35.4480469,22.78125 34.5164062,24.9855469 C33.6164062,27.1160156 32.3261719,29.0285156 30.684375,30.6703125 C29.0425781,32.3121094 27.1300781,33.6023437 24.9996094,34.5023438 C22.7917969,35.4269531 20.4503906,35.9015625 18.0386719,35.9015625 Z M18.0386719,1.828125 C9.10898437,1.828125 1.84570312,9.09140625 1.84570312,18.0210937 C1.84570312,26.9507812 9.10898437,34.2140625 18.0386719,34.2140625 C26.9683594,34.2140625 34.2316406,26.9507812 34.2316406,18.0210937 C34.2316406,9.09140625 26.9648437,1.828125 18.0386719,1.828125 Z M18.0527344,32.0660156 L18.0492188,30.3785156 C18.5660156,30.3785156 19.0898438,30.3433594 19.5996094,30.2800781 L19.8105469,31.9535156 C19.2339844,32.0273438 18.6398438,32.0660156 18.0527344,32.0660156 Z M16.2949219,31.9570312 C15.7113281,31.8832031 15.1277344,31.7742187 14.5617187,31.6300781 L14.9765625,29.9953125 C15.4757812,30.121875 15.9890625,30.2203125 16.5023438,30.2835938 L16.2949219,31.9570313 Z M21.54375,31.6230469 L21.121875,29.9882812 C21.6210937,29.8582031 22.1167969,29.7 22.5949219,29.5066406 L23.2171875,31.0746094 C22.6757812,31.2925781 22.1132812,31.4789063 21.54375,31.6230469 Z M12.88125,31.0886719 C12.3363281,30.8742188 11.7984375,30.6210938 11.2851562,30.3398438 L12.0972656,28.8597656 C12.5507812,29.109375 13.021875,29.3308594 13.5,29.5207031 L12.88125,31.0886719 Z M24.8167969,30.3222656 L24.0011719,28.8457031 C24.4511719,28.5960938 24.890625,28.3148438 25.3089844,28.0125 L26.3039062,29.3765625 C25.8292969,29.7210937 25.3300781,30.0410156 24.8167969,30.3222656 Z M9.79453125,29.3941406 C9.31992187,29.0496094 8.86289062,28.6734375 8.43398437,28.2726563 L9.58710937,27.0421875 C9.96328125,27.39375 10.3675781,27.7277344 10.7824219,28.0300781 L9.79453125,29.3941406 Z M27.6609375,28.2515625 L26.5042969,27.0210938 C26.8804688,26.6660156 27.2390625,26.2863281 27.5660156,25.8890625 L28.8667969,26.9648438 C28.490625,27.4183594 28.0863281,27.8507813 27.6609375,28.2515625 Z M7.228125,26.9859375 C6.85195312,26.5359375 6.50390625,26.0542969 6.1875,25.5621094 L7.61132812,24.6550781 C7.8890625,25.0910156 8.19492187,25.509375 8.52539062,25.9066406 L7.228125,26.9859375 Z M29.9003906,25.5410156 L28.4765625,24.6339844 C28.7542969,24.1980469 29.0039062,23.7410156 29.2253906,23.2734375 L30.7511719,23.990625 C30.5015625,24.525 30.2167969,25.0453125 29.9003906,25.5410156 Z M5.33671875,24.0222656 C5.08710937,23.4914062 4.865625,22.9394531 4.6828125,22.3839844 L6.2859375,21.8601562 C6.44414062,22.3488281 6.6375,22.8339844 6.85898437,23.3015625 L5.33671875,24.0222656 Z M31.4015625,22.3523437 L29.7949219,21.8320312 C29.953125,21.3433594 30.0832031,20.8371094 30.178125,20.3308594 L31.8375,20.64375 C31.7285156,21.2203125 31.5808594,21.7933594 31.4015625,22.3523437 Z M4.24335937,20.671875 C4.134375,20.0988281 4.06054687,19.5082031 4.021875,18.9210938 L5.70585937,18.815625 C5.7375,19.3324219 5.80429687,19.8492187 5.89921875,20.3554688 L4.24335937,20.671875 Z M32.0554687,18.8929687 L30.3714844,18.7910156 C30.3855469,18.5378906 30.3960938,18.2777344 30.3960938,18.0210937 C30.3960938,17.7609375 30.3890625,17.4972656 30.3714844,17.2371094 L32.0554687,17.1316406 C32.0730469,17.4269531 32.0835937,17.7257812 32.0835937,18.0210937 C32.0835937,18.309375 32.0730469,18.6046875 32.0554687,18.8929687 Z M5.70234375,17.2652344 L4.01835938,17.1632813 C4.05351563,16.5761719 4.12734375,15.9890625 4.2328125,15.4125 L5.8921875,15.7253906 C5.79726562,16.2316406 5.73398437,16.7484375 5.70234375,17.2652344 Z M30.178125,15.6972656 C30.0832031,15.1910156 29.953125,14.6847656 29.7914063,14.1960937 L31.3945312,13.6757812 C31.5773438,14.2347656 31.7214844,14.8078125 31.8339844,15.384375 L30.178125,15.6972656 Z M6.27539063,14.2207031 L4.66875,13.7039063 C4.84804688,13.1449219 5.06601563,12.5929687 5.315625,12.0621094 L6.84492188,12.7792969 C6.6234375,13.246875 6.43359375,13.7320313 6.27539063,14.2207031 Z M29.221875,12.7546875 C29.0039062,12.290625 28.7507812,11.8335938 28.4730469,11.3976563 L29.896875,10.490625 C30.2132813,10.9863281 30.4980469,11.503125 30.7476563,12.0339844 L29.221875,12.7546875 Z M7.59023438,11.41875 L6.16289063,10.5152344 C6.47578125,10.0195312 6.82382813,9.54140625 7.19648438,9.08789062 L8.49726563,10.1601562 C8.17382813,10.5574219 7.86445313,10.9828125 7.59023438,11.41875 Z M27.5589844,10.1425781 C27.2285156,9.7453125 26.8734375,9.365625 26.4972656,9.01054687 L27.6539062,7.78007812 C28.0828125,8.18085937 28.4871094,8.61328125 28.8597656,9.06328125 L27.5589844,10.1425781 Z M9.5625,9.028125 L8.40585937,7.80117188 C8.83125,7.40039063 9.28828125,7.02070313 9.76289062,6.67617188 L10.7578125,8.04023438 C10.3394531,8.3390625 9.93867187,8.67304688 9.5625,9.028125 Z M25.2984375,8.01914063 C24.8800781,7.71679688 24.440625,7.43554688 23.9871094,7.1859375 L24.8027344,5.709375 C25.3160156,5.990625 25.8152344,6.31054688 26.2898438,6.65507813 L25.2984375,8.01914063 Z M12.0621094,7.2 L11.2464844,5.7234375 C11.7597656,5.43867188 12.2941406,5.18554688 12.8390625,4.96757813 L13.4648438,6.53554687 C12.9832031,6.72890625 12.5121094,6.95039063 12.0621094,7.2 Z M22.5878906,6.525 C22.1097656,6.33515625 21.6105469,6.1734375 21.1113281,6.046875 L21.5296875,4.41210938 C22.0992188,4.55625 22.6617187,4.74257813 23.2101562,4.95703125 L22.5878906,6.525 Z M14.9378906,6.05390625 L14.5160156,4.41914063 C15.0820312,4.27148438 15.665625,4.1625 16.2492188,4.08515625 L16.4636719,5.75859375 C15.946875,5.82890625 15.4371094,5.92734375 14.9378906,6.05390625 Z M19.5855469,5.75859375 C19.0757812,5.6953125 18.5554687,5.66367188 18.0351562,5.66367188 L18.0070313,5.66367188 L18,3.97617188 L18.0316406,3.97617188 C18.61875,3.97617188 19.209375,4.01132813 19.7894531,4.08515625 L19.5855469,5.75859375 Z M18.0386719,35.9015625 C15.6234375,35.9015625 13.2820312,35.4269531 11.0777344,34.4953125 C8.94726562,33.5953125 7.03476562,32.3050781 5.39296875,30.6632812 C3.75117188,29.0214844 2.4609375,27.1089844 1.5609375,24.9785156 C0.629296875,22.7742187 0.1546875,20.4328125 0.1546875,18.0175781 C0.1546875,15.6023437 0.629296875,13.2609375 1.5609375,11.0566406 C2.4609375,8.92617187 3.75117187,7.01367187 5.39296875,5.371875 C7.03476562,3.73007813 8.94726562,2.446875 11.0777344,1.546875 C13.2820312,0.615234375 15.6234375,0.140625 18.0386719,0.140625 C20.4539062,0.140625 22.7953125,0.615234375 24.9996094,1.546875 C27.1300781,2.446875 29.0425781,3.73710937 30.684375,5.37890625 C32.3261719,7.02070312 33.6164062,8.93320312 34.5164062,11.0636719 C35.4480469,13.2679687 35.9226562,15.609375 35.9226562,18.0246094 C35.9226562,20.4398438 35.4480469,22.78125 34.5164062,24.9855469 C33.6164062,27.1160156 32.3261719,29.0285156 30.684375,30.6703125 C29.0425781,32.3121094 27.1300781,33.6023437 24.9996094,34.5023438 C22.7917969,35.4269531 20.4503906,35.9015625 18.0386719,35.9015625 Z M18.0386719,1.828125 C9.10898437,1.828125 1.84570312,9.09140625 1.84570312,18.0210937 C1.84570312,26.9507812 9.10898437,34.2140625 18.0386719,34.2140625 C26.9683594,34.2140625 34.2316406,26.9507812 34.2316406,18.0210937 C34.2316406,9.09140625 26.9648437,1.828125 18.0386719,1.828125 Z M18.0527344,32.0660156 L18.0492188,30.3785156 C18.5660156,30.3785156 19.0898438,30.3433594 19.5996094,30.2800781 L19.8105469,31.9535156 C19.2339844,32.0273438 18.6398438,32.0660156 18.0527344,32.0660156 Z M16.2949219,31.9570312 C15.7113281,31.8832031 15.1277344,31.7742187 14.5617187,31.6300781 L14.9765625,29.9953125 C15.4757812,30.121875 15.9890625,30.2203125 16.5023438,30.2835938 L16.2949219,31.9570313 Z M21.54375,31.6230469 L21.121875,29.9882812 C21.6210937,29.8582031 22.1167969,29.7 22.5949219,29.5066406 L23.2171875,31.0746094 C22.6757812,31.2925781 22.1132812,31.4789063 21.54375,31.6230469 Z M12.88125,31.0886719 C12.3363281,30.8742188 11.7984375,30.6210938 11.2851562,30.3398438 L12.0972656,28.8597656 C12.5507812,29.109375 13.021875,29.3308594 13.5,29.5207031 L12.88125,31.0886719 Z M24.8167969,30.3222656 L24.0011719,28.8457031 C24.4511719,28.5960938 24.890625,28.3148438 25.3089844,28.0125 L26.3039062,29.3765625 C25.8292969,29.7210937 25.3300781,30.0410156 24.8167969,30.3222656 Z M9.79453125,29.3941406 C9.31992187,29.0496094 8.86289062,28.6734375 8.43398437,28.2726563 L9.58710937,27.0421875 C9.96328125,27.39375 10.3675781,27.7277344 10.7824219,28.0300781 L9.79453125,29.3941406 Z M27.6609375,28.2515625 L26.5042969,27.0210938 C26.8804688,26.6660156 27.2390625,26.2863281 27.5660156,25.8890625 L28.8667969,26.9648438 C28.490625,27.4183594 28.0863281,27.8507813 27.6609375,28.2515625 Z M7.228125,26.9859375 C6.85195312,26.5359375 6.50390625,26.0542969 6.1875,25.5621094 L7.61132812,24.6550781 C7.8890625,25.0910156 8.19492187,25.509375 8.52539062,25.9066406 L7.228125,26.9859375 Z M29.9003906,25.5410156 L28.4765625,24.6339844 C28.7542969,24.1980469 29.0039062,23.7410156 29.2253906,23.2734375 L30.7511719,23.990625 C30.5015625,24.525 30.2167969,25.0453125 29.9003906,25.5410156 Z M5.33671875,24.0222656 C5.08710937,23.4914062 4.865625,22.9394531 4.6828125,22.3839844 L6.2859375,21.8601562 C6.44414062,22.3488281 6.6375,22.8339844 6.85898437,23.3015625 L5.33671875,24.0222656 Z M31.4015625,22.3523437 L29.7949219,21.8320312 C29.953125,21.3433594 30.0832031,20.8371094 30.178125,20.3308594 L31.8375,20.64375 C31.7285156,21.2203125 31.5808594,21.7933594 31.4015625,22.3523437 Z M4.24335937,20.671875 C4.134375,20.0988281 4.06054687,19.5082031 4.021875,18.9210938 L5.70585937,18.815625 C5.7375,19.3324219 5.80429687,19.8492187 5.89921875,20.3554688 L4.24335937,20.671875 Z M32.0554687,18.8929687 L30.3714844,18.7910156 C30.3855469,18.5378906 30.3960938,18.2777344 30.3960938,18.0210937 C30.3960938,17.7609375 30.3890625,17.4972656 30.3714844,17.2371094 L32.0554687,17.1316406 C32.0730469,17.4269531 32.0835937,17.7257812 32.0835937,18.0210937 C32.0835937,18.309375 32.0730469,18.6046875 32.0554687,18.8929687 Z M5.70234375,17.2652344 L4.01835938,17.1632813 C4.05351563,16.5761719 4.12734375,15.9890625 4.2328125,15.4125 L5.8921875,15.7253906 C5.79726562,16.2316406 5.73398437,16.7484375 5.70234375,17.2652344 Z M30.178125,15.6972656 C30.0832031,15.1910156 29.953125,14.6847656 29.7914063,14.1960937 L31.3945312,13.6757812 C31.5773438,14.2347656 31.7214844,14.8078125 31.8339844,15.384375 L30.178125,15.6972656 Z M6.27539063,14.2207031 L4.66875,13.7039063 C4.84804688,13.1449219 5.06601563,12.5929687 5.315625,12.0621094 L6.84492188,12.7792969 C6.6234375,13.246875 6.43359375,13.7320313 6.27539063,14.2207031 Z M29.221875,12.7546875 C29.0039062,12.290625 28.7507812,11.8335938 28.4730469,11.3976563 L29.896875,10.490625 C30.2132813,10.9863281 30.4980469,11.503125 30.7476563,12.0339844 L29.221875,12.7546875 Z M7.59023438,11.41875 L6.16289063,10.5152344 C6.47578125,10.0195312 6.82382813,9.54140625 7.19648438,9.08789062 L8.49726563,10.1601562 C8.17382813,10.5574219 7.86445313,10.9828125 7.59023438,11.41875 Z M27.5589844,10.1425781 C27.2285156,9.7453125 26.8734375,9.365625 26.4972656,9.01054687 L27.6539062,7.78007812 C28.0828125,8.18085937 28.4871094,8.61328125 28.8597656,9.06328125 L27.5589844,10.1425781 Z M9.5625,9.028125 L8.40585937,7.80117188 C8.83125,7.40039063 9.28828125,7.02070313 9.76289062,6.67617188 L10.7578125,8.04023438 C10.3394531,8.3390625 9.93867187,8.67304688 9.5625,9.028125 Z M25.2984375,8.01914063 C24.8800781,7.71679688 24.440625,7.43554688 23.9871094,7.1859375 L24.8027344,5.709375 C25.3160156,5.990625 25.8152344,6.31054688 26.2898438,6.65507813 L25.2984375,8.01914063 Z M12.0621094,7.2 L11.2464844,5.7234375 C11.7597656,5.43867188 12.2941406,5.18554688 12.8390625,4.96757813 L13.4648438,6.53554687 C12.9832031,6.72890625 12.5121094,6.95039063 12.0621094,7.2 Z M22.5878906,6.525 C22.1097656,6.33515625 21.6105469,6.1734375 21.1113281,6.046875 L21.5296875,4.41210938 C22.0992188,4.55625 22.6617187,4.74257813 23.2101562,4.95703125 L22.5878906,6.525 Z M14.9378906,6.05390625 L14.5160156,4.41914063 C15.0820312,4.27148438 15.665625,4.1625 16.2492188,4.08515625 L16.4636719,5.75859375 C15.946875,5.82890625 15.4371094,5.92734375 14.9378906,6.05390625 Z M19.5855469,5.75859375 C19.0757812,5.6953125 18.5554687,5.66367188 18.0351562,5.66367188 L18.0070313,5.66367188 L18,3.97617188 L18.0316406,3.97617188 C18.61875,3.97617188 19.209375,4.01132813 19.7894531,4.08515625 L19.5855469,5.75859375 Z M18.0386719,35.9015625 C15.6234375,35.9015625 13.2820312,35.4269531 11.0777344,34.4953125 C8.94726562,33.5953125 7.03476562,32.3050781 5.39296875,30.6632812 C3.75117188,29.0214844 2.4609375,27.1089844 1.5609375,24.9785156 C0.629296875,22.7742187 0.1546875,20.4328125 0.1546875,18.0175781 C0.1546875,15.6023437 0.629296875,13.2609375 1.5609375,11.0566406 C2.4609375,8.92617187 3.75117187,7.01367187 5.39296875,5.371875 C7.03476562,3.73007813 8.94726562,2.446875 11.0777344,1.546875 C13.2820312,0.615234375 15.6234375,0.140625 18.0386719,0.140625 C20.4539062,0.140625 22.7953125,0.615234375 24.9996094,1.546875 C27.1300781,2.446875 29.0425781,3.73710937 30.684375,5.37890625 C32.3261719,7.02070312 33.6164062,8.93320312 34.5164062,11.0636719 C35.4480469,13.2679687 35.9226562,15.609375 35.9226562,18.0246094 C35.9226562,20.4398438 35.4480469,22.78125 34.5164062,24.9855469 C33.6164062,27.1160156 32.3261719,29.0285156 30.684375,30.6703125 C29.0425781,32.3121094 27.1300781,33.6023437 24.9996094,34.5023438 C22.7917969,35.4269531 20.4503906,35.9015625 18.0386719,35.9015625 Z M18.0386719,1.828125 C9.10898437,1.828125 1.84570312,9.09140625 1.84570312,18.0210937 C1.84570312,26.9507812 9.10898437,34.2140625 18.0386719,34.2140625 C26.9683594,34.2140625 34.2316406,26.9507812 34.2316406,18.0210937 C34.2316406,9.09140625 26.9648437,1.828125 18.0386719,1.828125 Z M18.0527344,32.0660156 L18.0492188,30.3785156 C18.5660156,30.3785156 19.0898438,30.3433594 19.5996094,30.2800781 L19.8105469,31.9535156 C19.2339844,32.0273438 18.6398438,32.0660156 18.0527344,32.0660156 Z M16.2949219,31.9570312 C15.7113281,31.8832031 15.1277344,31.7742187 14.5617187,31.6300781 L14.9765625,29.9953125 C15.4757812,30.121875 15.9890625,30.2203125 16.5023438,30.2835938 L16.2949219,31.9570313 Z M21.54375,31.6230469 L21.121875,29.9882812 C21.6210937,29.8582031 22.1167969,29.7 22.5949219,29.5066406 L23.2171875,31.0746094 C22.6757812,31.2925781 22.1132812,31.4789063 21.54375,31.6230469 Z M12.88125,31.0886719 C12.3363281,30.8742188 11.7984375,30.6210938 11.2851562,30.3398438 L12.0972656,28.8597656 C12.5507812,29.109375 13.021875,29.3308594 13.5,29.5207031 L12.88125,31.0886719 Z M24.8167969,30.3222656 L24.0011719,28.8457031 C24.4511719,28.5960938 24.890625,28.3148438 25.3089844,28.0125 L26.3039062,29.3765625 C25.8292969,29.7210937 25.3300781,30.0410156 24.8167969,30.3222656 Z M9.79453125,29.3941406 C9.31992187,29.0496094 8.86289062,28.6734375 8.43398437,28.2726563 L9.58710937,27.0421875 C9.96328125,27.39375 10.3675781,27.7277344 10.7824219,28.0300781 L9.79453125,29.3941406 Z M27.6609375,28.2515625 L26.5042969,27.0210938 C26.8804688,26.6660156 27.2390625,26.2863281 27.5660156,25.8890625 L28.8667969,26.9648438 C28.490625,27.4183594 28.0863281,27.8507813 27.6609375,28.2515625 Z M7.228125,26.9859375 C6.85195312,26.5359375 6.50390625,26.0542969 6.1875,25.5621094 L7.61132812,24.6550781 C7.8890625,25.0910156 8.19492187,25.509375 8.52539062,25.9066406 L7.228125,26.9859375 Z M29.9003906,25.5410156 L28.4765625,24.6339844 C28.7542969,24.1980469 29.0039062,23.7410156 29.2253906,23.2734375 L30.7511719,23.990625 C30.5015625,24.525 30.2167969,25.0453125 29.9003906,25.5410156 Z M5.33671875,24.0222656 C5.08710937,23.4914062 4.865625,22.9394531 4.6828125,22.3839844 L6.2859375,21.8601562 C6.44414062,22.3488281 6.6375,22.8339844 6.85898437,23.3015625 L5.33671875,24.0222656 Z M31.4015625,22.3523437 L29.7949219,21.8320312 C29.953125,21.3433594 30.0832031,20.8371094 30.178125,20.3308594 L31.8375,20.64375 C31.7285156,21.2203125 31.5808594,21.7933594 31.4015625,22.3523437 Z M4.24335937,20.671875 C4.134375,20.0988281 4.06054687,19.5082031 4.021875,18.9210938 L5.70585937,18.815625 C5.7375,19.3324219 5.80429687,19.8492187 5.89921875,20.3554688 L4.24335937,20.671875 Z M32.0554687,18.8929687 L30.3714844,18.7910156 C30.3855469,18.5378906 30.3960938,18.2777344 30.3960938,18.0210937 C30.3960938,17.7609375 30.3890625,17.4972656 30.3714844,17.2371094 L32.0554687,17.1316406 C32.0730469,17.4269531 32.0835937,17.7257812 32.0835937,18.0210937 C32.0835937,18.309375 32.0730469,18.6046875 32.0554687,18.8929687 Z M5.70234375,17.2652344 L4.01835938,17.1632813 C4.05351563,16.5761719 4.12734375,15.9890625 4.2328125,15.4125 L5.8921875,15.7253906 C5.79726562,16.2316406 5.73398437,16.7484375 5.70234375,17.2652344 Z M30.178125,15.6972656 C30.0832031,15.1910156 29.953125,14.6847656 29.7914063,14.1960937 L31.3945312,13.6757812 C31.5773438,14.2347656 31.7214844,14.8078125 31.8339844,15.384375 L30.178125,15.6972656 Z M6.27539063,14.2207031 L4.66875,13.7039063 C4.84804688,13.1449219 5.06601563,12.5929687 5.315625,12.0621094 L6.84492188,12.7792969 C6.6234375,13.246875 6.43359375,13.7320313 6.27539063,14.2207031 Z M29.221875,12.7546875 C29.0039062,12.290625 28.7507812,11.8335938 28.4730469,11.3976563 L29.896875,10.490625 C30.2132813,10.9863281 30.4980469,11.503125 30.7476563,12.0339844 L29.221875,12.7546875 Z M7.59023438,11.41875 L6.16289063,10.5152344 C6.47578125,10.0195312 6.82382813,9.54140625 7.19648438,9.08789062 L8.49726563,10.1601562 C8.17382813,10.5574219 7.86445313,10.9828125 7.59023438,11.41875 Z M27.5589844,10.1425781 C27.2285156,9.7453125 26.8734375,9.365625 26.4972656,9.01054687 L27.6539062,7.78007812 C28.0828125,8.18085937 28.4871094,8.61328125 28.8597656,9.06328125 L27.5589844,10.1425781 Z M9.5625,9.028125 L8.40585937,7.80117188 C8.83125,7.40039063 9.28828125,7.02070313 9.76289062,6.67617188 L10.7578125,8.04023438 C10.3394531,8.3390625 9.93867187,8.67304688 9.5625,9.028125 Z M25.2984375,8.01914063 C24.8800781,7.71679688 24.440625,7.43554688 23.9871094,7.1859375 L24.8027344,5.709375 C25.3160156,5.990625 25.8152344,6.31054688 26.2898438,6.65507813 L25.2984375,8.01914063 Z M12.0621094,7.2 L11.2464844,5.7234375 C11.7597656,5.43867188 12.2941406,5.18554688 12.8390625,4.96757813 L13.4648438,6.53554687 C12.9832031,6.72890625 12.5121094,6.95039063 12.0621094,7.2 Z M22.5878906,6.525 C22.1097656,6.33515625 21.6105469,6.1734375 21.1113281,6.046875 L21.5296875,4.41210938 C22.0992188,4.55625 22.6617187,4.74257813 23.2101562,4.95703125 L22.5878906,6.525 Z M14.9378906,6.05390625 L14.5160156,4.41914063 C15.0820312,4.27148438 15.665625,4.1625 16.2492188,4.08515625 L16.4636719,5.75859375 C15.946875,5.82890625 15.4371094,5.92734375 14.9378906,6.05390625 Z M19.5855469,5.75859375 C19.0757812,5.6953125 18.5554687,5.66367188 18.0351562,5.66367188 L18.0070313,5.66367188 L18,3.97617188 L18.0316406,3.97617188 C18.61875,3.97617188 19.209375,4.01132813 19.7894531,4.08515625 L19.5855469,5.75859375 Z M23.2347656,10.0019531 L12.8390625,10.0019531 C12.0234375,10.0019531 11.3554688,10.74375 11.3554688,11.6507812 L11.3554688,24.3914062 C11.3554688,25.2984375 12.0234375,26.0402344 12.8390625,26.0402344 L23.2347656,26.0402344 C24.0503906,26.0402344 24.7183594,25.2984375 24.7183594,24.3914062 L24.7183594,11.6507812 C24.7183594,10.74375 24.0503906,10.0019531 23.2347656,10.0019531 Z M16.6464844,23.2980469 L15.1628906,23.2980469 L15.1628906,17.7714844 L16.6464844,17.7714844 L16.6464844,23.2980469 Z M19.2832031,23.2980469 L17.7996094,23.2980469 L17.7996094,15.3 L19.2832031,15.3 L19.2832031,23.2980469 Z M21.9164063,23.2980469 L20.4328125,23.2980469 L20.4328125,20.2429688 L21.9164063,20.2429688 L21.9164063,23.2980469 Z" id="形状" fill="#6248FF" fill-rule="nonzero"></path>
            </g>
        </g>
    </g>
</svg>