<?xml version="1.0" encoding="UTF-8"?>
<svg width="68px" height="68px" viewBox="0 0 68 68" version="1.1" xmlns="http://www.w3.org/2000/svg" xmlns:xlink="http://www.w3.org/1999/xlink">
    <!-- Generator: Sketch 52.5 (67469) - http://www.bohemiancoding.com/sketch -->
    <title>keguanfenxi</title>
    <desc>Created with Sketch.</desc>
    <g id="Symbols" stroke="none" stroke-width="1" fill="none" fill-rule="evenodd">
        <g id="keguanfenxi">
            <g id="数据分析">
                <g>
                    <rect id="矩形" fill="#000000" opacity="0" x="0" y="0" width="68" height="68"></rect>
                    <path d="M17.2789062,58.7097656 L6.48789062,58.7097656 L6.48789062,45.2292969 L17.2722656,45.2292969 L17.2722656,58.7097656 L17.2789062,58.7097656 Z M9.05117187,56.1464844 L14.715625,56.1464844 L14.715625,47.7859375 L9.05117187,47.7859375 L9.05117187,56.1464844 Z M30.759375,58.7097656 L19.975,58.7097656 L19.975,39.8304687 L30.759375,39.8304687 L30.759375,58.7097656 Z M22.5382812,56.1464844 L28.2027344,56.1464844 L28.2027344,42.39375 L22.5382812,42.39375 L22.5382812,56.1464844 Z M44.2464844,58.7097656 L33.4621094,58.7097656 L33.4621094,31.7421875 L44.2464844,31.7421875 L44.2464844,58.7097656 Z M36.0253906,56.1464844 L41.6898437,56.1464844 L41.6898437,34.2988281 L36.0253906,34.2988281 L36.0253906,56.1464844 Z M57.7269531,58.7097656 L46.9425781,58.7097656 L46.9425781,26.35 L57.7269531,26.35 L57.7269531,58.7097656 Z M49.5058594,56.1464844 L55.1703125,56.1464844 L55.1703125,28.9132812 L49.5058594,28.9132812 L49.5058594,56.1464844 Z M9.96757812,38.1171875 L8.14804687,36.3042969 L21.7414062,22.6644531 L29.4113281,30.5867188 L43.1109375,16.25625 L48.7023438,21.25 L57.2421875,10.6117188 L59.2410156,12.2121094 L49.0144531,24.9621094 L43.2503906,19.815625 L29.4246094,34.2855469 L21.7214844,26.3234375 L9.96757812,38.1171875 Z M61.6050781,20.5328125 L59.0484375,20.5328125 L59.0484375,11.9664063 L49.2601562,11.9664063 L49.2601562,9.40976563 L61.6050781,9.40976563 L61.6050781,20.5328125 Z" id="形状" fill="#000000" fill-rule="nonzero"></path>
                    <polygon id="路径" fill="#2D8EF8" points="9.05117187 56.1464844 14.715625 56.1464844 14.715625 47.7859375 9.05117187 47.7859375 9.05117187 56.1464844"></polygon>
                    <polygon id="路径" fill="#043EF9" points="22.5382813 56.1464844 28.2027344 56.1464844 28.2027344 42.39375 22.5382813 42.39375"></polygon>
                </g>
            </g>
        </g>
    </g>
</svg>