<?xml version="1.0" encoding="UTF-8"?>
<svg width="68px" height="68px" viewBox="0 0 68 68" version="1.1" xmlns="http://www.w3.org/2000/svg" xmlns:xlink="http://www.w3.org/1999/xlink">
    <!-- Generator: Sketch 52.5 (67469) - http://www.bohemiancoding.com/sketch -->
    <title>kexuepinggu</title>
    <desc>Created with Sketch.</desc>
    <g id="Symbols" stroke="none" stroke-width="1" fill="none" fill-rule="evenodd">
        <g id="kexuepinggu">
            <g id="-big-data">
                <g>
                    <rect id="矩形" fill="#000000" opacity="0" x="0" y="0" width="68" height="68"></rect>
                    <g id="分组-8" transform="translate(4.000000, 2.000000)">
                        <path d="M40.2307692,58.1538462 L39.4984615,56.1661538 C48.9791625,52.6788487 55.7995804,44.2937467 57.2830769,34.3015385 L59.3753846,34.6153846 C57.7723642,45.3694426 50.4327251,54.3935891 40.2307692,58.1538462 Z M57.1261538,26.2984615 C55.0720146,12.7762392 43.4465838,2.78343888 29.7692308,2.78343888 C16.0918778,2.78343888 4.46644693,12.7762392 2.41230769,26.2984615 L0.32,25.9846154 C2.45965137,11.3678064 14.9966476,0.532403227 29.7692308,0.532403227 C44.5418139,0.532403227 57.0788102,11.3678064 59.2184615,25.9846154 L57.1261538,26.2984615 Z M26.3169231,59.9846154 C12.8863157,58.4922911 2.1465978,48.1392031 0.163076923,34.7723077 L2.25538462,34.4584615 C4.10832033,46.8143168 14.0112741,56.3957461 26.4215385,57.84 L26.3169231,59.9846154 Z" id="形状" fill="#34303D" fill-rule="nonzero"></path>
                        <path d="M29.7692308,63.3846154 C27.4292428,63.3846154 25.5323077,61.4876803 25.5323077,59.1476923 C25.5323077,56.8077043 27.4292428,54.9107692 29.7692308,54.9107692 C32.1092188,54.9107692 34.0061538,56.8077043 34.0061538,59.1476923 C34.0061538,61.4876803 32.1092188,63.3846154 29.7692308,63.3846154 Z M29.7692308,57.0030769 C28.5847924,57.0030769 27.6246154,57.9632539 27.6246154,59.1476923 C27.6246154,60.3321307 28.5847924,61.2923077 29.7692308,61.2923077 C30.9536691,61.2923077 31.9138462,60.3321307 31.9138462,59.1476923 C31.9138462,57.9632539 30.9536691,57.0030769 29.7692308,57.0030769 Z M29.7692308,14.4246154 C27.4292428,14.4246154 25.5323077,12.5276803 25.5323077,10.1876923 C25.5323077,7.84770431 27.4292428,5.95076923 29.7692308,5.95076923 C32.1092188,5.95076923 34.0061538,7.84770431 34.0061538,10.1876923 C34.0061538,11.3113942 33.559765,12.3890721 32.7651878,13.1836493 C31.9706106,13.9782266 30.8929326,14.4246154 29.7692308,14.4246154 Z M29.7692308,8.04307692 C28.5847924,8.04307692 27.6246154,9.00325394 27.6246154,10.1876923 C27.6246154,11.3721307 28.5847924,12.3323077 29.7692308,12.3323077 C30.9536691,12.3323077 31.9138462,11.3721307 31.9138462,10.1876923 C31.9138462,9.00325394 30.9536691,8.04307692 29.7692308,8.04307692 Z M11.0430769,26.3507692 L8.84615385,25.9323077 C10.1719106,19.8080042 14.134639,14.5817971 19.6738462,11.6523077 L20.6676923,13.5353846 C15.735014,16.1886276 12.2161911,20.8740169 11.0430769,26.3507692 Z M29.7692308,51.6676923 C19.7091159,51.7017966 10.9912799,44.7057332 8.84615385,34.8769231 L10.9384615,34.4061538 C12.8180298,43.2476724 20.625521,49.5698824 29.6646154,49.5698824 C38.7037097,49.5698824 46.5112009,43.2476724 48.3907692,34.4061538 L50.4830769,34.8769231 C48.3547945,44.6292681 39.7508998,51.6036373 29.7692308,51.6676923 Z" id="形状" fill="#34303D" fill-rule="nonzero"></path>
                        <path d="M48.4953846,26.3507692 C46.8127568,18.6456507 40.5887667,12.7536068 32.8030769,11.4953846 L33.1169231,9.40307692 C41.8265429,10.7549475 48.8091486,17.3219219 50.6923077,25.9323077 L48.4953846,26.3507692 Z" id="路径" fill="#34303D"></path>
                        <path d="M18.0523077,30.3784615 C18.0435567,33.4754543 19.266768,36.4487987 21.4523077,38.6430769 L29.7692308,30.3784615 L29.7692308,18.7138462 C23.3185253,18.7137819 18.0811055,23.9278204 18.0523077,30.3784615 Z" id="路径" fill="#2D8EF8"></path>
                        <path d="M41.4861538,30.3784615 C41.4573561,23.9278204 36.2199362,18.7137819 29.7692308,18.7138462 L29.7692308,30.3784615 L41.4861538,30.3784615 Z" id="路径" fill="#043EF9"></path>
                        <path d="M29.7692308,43.1938462 C22.720378,43.1938462 17.0061538,37.479622 17.0061538,30.4307692 C17.0061538,23.3819165 22.720378,17.6676923 29.7692308,17.6676923 C36.8180835,17.6676923 42.5323077,23.3819165 42.5323077,30.4307692 C42.5323077,33.8157477 41.1876302,37.0620862 38.794089,39.4556275 C36.4005478,41.8491687 33.1542092,43.1938462 29.7692308,43.1938462 Z M29.7692308,19.76 C23.9914826,19.76 19.3076923,24.4437903 19.3076923,30.2215385 C19.3076923,35.9992866 23.9914826,40.6830769 29.7692308,40.6830769 C35.5469789,40.6830769 40.2307692,35.9992866 40.2307692,30.2215385 C40.2307692,24.4437903 35.5469789,19.76 29.7692308,19.76 Z M53.1507692,29.3323077 L55.2953846,29.3323077 L55.2953846,31.4769231 L53.1507692,31.4769231 L53.1507692,29.3323077 Z M57.44,29.3323077 L59.5846154,29.3323077 L59.5846154,31.4769231 L57.44,31.4769231 L57.44,29.3323077 Z M48.9138462,29.3323077 L51.0584615,29.3323077 L51.0584615,31.4769231 L48.9138462,31.4769231 L48.9138462,29.3323077 Z M4.24307692,29.3323077 L6.38769231,29.3323077 L6.38769231,31.4769231 L4.24307692,31.4769231 L4.24307692,29.3323077 Z M8.48,29.3323077 L10.6246154,29.3323077 L10.6246154,31.4769231 L8.48,31.4769231 L8.48,29.3323077 Z M0.00615384616,29.3323077 L2.15076923,29.3323077 L2.15076923,31.4769231 L0.00615384616,31.4769231 L0.00615384616,29.3323077 Z M4.24307692,4.85230769 L6.38769231,4.85230769 L6.38769231,6.99692308 L4.24307692,6.99692308 L4.24307692,4.85230769 Z M53.1507692,4.85230769 L55.2953846,4.85230769 L55.2953846,6.99692308 L53.1507692,6.99692308 L53.1507692,4.85230769 Z M4.24307692,53.8123077 L6.38769231,53.8123077 L6.38769231,55.9569231 L4.24307692,55.9569231 L4.24307692,53.8123077 Z M53.1507692,53.8123077 L55.2953846,53.8123077 L55.2953846,55.9569231 L53.1507692,55.9569231 L53.1507692,53.8123077 Z" id="形状" fill="#34303D" fill-rule="nonzero"></path>
                    </g>
                </g>
            </g>
        </g>
    </g>
</svg>