<?xml version="1.0" encoding="UTF-8"?>
<svg width="68px" height="68px" viewBox="0 0 68 68" version="1.1" xmlns="http://www.w3.org/2000/svg" xmlns:xlink="http://www.w3.org/1999/xlink">
    <!-- Generator: Sketch 52.5 (67469) - http://www.bohemiancoding.com/sketch -->
    <title>zhinengqushu</title>
    <desc>Created with Sketch.</desc>
    <g id="Symbols" stroke="none" stroke-width="1" fill="none" fill-rule="evenodd">
        <g id="zhinengqushu">
            <g id="11-人工智能">
                <g>
                    <rect id="矩形" fill="#000000" opacity="0" x="0" y="0" width="68" height="68"></rect>
                    <g id="分组-18" transform="translate(3.000000, 3.000000)">
                        <path d="M39.4714252,44.1874763 C41.5924006,45.6347301 42.8774621,47.9615649 42.796366,50.4256392 C42.6903172,53.6195786 40.3697206,56.3207031 36.3273911,57.6993371 C36.283724,60.6000829 33.9194602,62.9393939 31.0062382,62.9393939 C28.0680634,62.9393939 25.6850852,60.5564157 25.6850852,57.618241 C25.6850852,54.6800663 28.0680634,52.2970881 31.0062382,52.2970881 C33.0336411,52.2970881 34.7990412,53.4324337 35.6973366,55.1042614 C37.1196378,54.592732 38.2050781,53.9002959 38.9536577,53.0830966 C39.7147135,52.2534209 40.1077178,51.3114583 40.1389086,50.3383049 C40.2075284,48.4044744 38.8476089,46.5205492 36.6954427,45.7345407 L36.7203954,45.6721591 C36.0716264,45.9778291 35.404143,46.2585464 34.7179451,46.5143111 C30.7879025,48.005232 26.4835701,48.6789536 22.6470999,48.4730942 C18.7295336,48.2609967 15.5418324,47.1443655 13.8325758,45.210535 C12.1295573,43.2891809 12.0297467,40.8251065 13.5081913,38.1863636 C12.273035,37.8744555 11.200071,37.2880682 10.3329664,36.4583925 C7.73789062,36.9574455 5.39857955,35.9655777 3.65189394,33.8321259 C2.11730587,31.9544389 1.09424716,29.2595526 0.738671875,26.3400923 C0.376858428,23.4143939 0.713719223,20.4637429 1.7430161,18.0870028 C2.79102746,15.6665956 4.50652225,13.9323864 6.78968987,13.1650923 C7.30121922,9.71538826 8.56756629,6.99554924 10.4826823,5.07419508 C12.3728456,3.18403172 14.8119673,2.16097301 17.4382339,2.03620975 C19.5779238,1.93639915 21.6801847,2.43545218 23.4580611,3.37117661 C25.2733665,1.42486979 28.242732,0.258333333 31.193383,0.514098011 C33.7884588,0.744910038 36.1527225,1.99878078 38.086553,4.24451941 C40.6566761,3.38365294 43.6884233,3.21522254 46.2460701,4.05737453 C48.5541903,4.8184304 50.3632576,6.33430398 51.5173177,8.61123343 C54.9732599,9.58438684 58.0237216,11.7490294 59.3274976,14.4813447 C60.6250355,17.21366 60.7622751,20.351456 59.5895005,23.3520123 C61.9911932,26.4087121 62.365483,30.7442353 60.4441288,34.0317472 C59.3524503,35.8969579 57.6120028,37.2755919 55.3787405,37.9680279 C52.9895241,38.7041312 50.1137311,38.6417495 46.85741,37.7185014 C46.701456,37.6748343 46.5579782,37.6062145 46.433215,37.512642 C46.1150687,37.9742661 45.7782079,38.4358902 45.4226326,38.8975142 C43.8256629,40.9748224 41.8044981,42.7402225 39.4714252,44.1874763 Z M16.521224,38.4234138 C15.6541193,39.577474 15.2112098,40.6005327 15.1363518,41.4613991 C15.0739702,42.2162169 15.298544,42.8587476 15.8163116,43.4451349 C16.9703717,44.748911 19.509304,45.6347301 22.7843395,45.8156368 C26.252758,46.0027817 30.1828007,45.3852036 33.7697443,44.0252841 C37.7122633,42.528125 41.0372041,40.2324811 43.3203717,37.28183 C45.5037287,34.4559422 46.7264086,31.8671046 47.0258404,29.5153172 C44.6990057,28.9414062 42.9772727,26.8453835 42.9772727,24.3438802 C42.9772727,21.4057055 45.3602509,19.0227273 48.2984257,19.0227273 C51.2366004,19.0227273 53.6195786,21.4057055 53.6195786,24.3438802 C53.6195786,26.7954782 51.9602273,28.8603101 49.7020123,29.4778883 C49.5211056,31.3306226 48.8972893,33.2519768 47.8368016,35.2294744 C50.5129735,35.9531013 52.7836648,35.9842921 54.592732,35.4228575 C56.1959399,34.9300426 57.3936671,33.9756037 58.1484848,32.6905421 C59.6144531,30.1828007 59.1840199,26.7268584 57.0755208,24.5123106 C56.6949929,24.1130682 56.6014205,23.5266809 56.8384706,23.0276278 C58.0237216,20.5136482 58.0050071,17.8936198 56.9258049,15.6291667 C56.1647491,14.032197 54.5989702,12.6473248 52.6089962,11.7802202 C52.6900923,12.1545099 52.752474,12.5350379 52.8086174,12.9342803 C52.908428,13.6641454 52.3968987,14.3316288 51.6732718,14.4314394 C50.9434067,14.53125 50.2759233,14.0197206 50.1761127,13.2960937 C49.6645833,9.5407197 47.9802794,7.43845881 45.4163944,6.59006866 C43.6946615,6.02239583 41.5924006,6.05982481 39.7084754,6.54016335 C40.113956,7.23259943 40.4882457,7.98741714 40.8313447,8.79837831 C41.1183002,9.47833807 40.8001539,10.2581084 40.1201941,10.5388258 C39.4402344,10.8257812 38.660464,10.5076349 38.3797467,9.82767519 C37.4253078,7.56322206 36.2213423,5.88515625 34.8427083,4.77476326 C33.6449811,3.80784801 32.3287287,3.27760417 30.962571,3.15907907 C28.9663589,2.98441051 26.9514323,3.72051373 25.6726089,4.91200284 C26.9514323,6.09101562 27.8622041,7.56946023 28.1803504,9.22257339 C28.3238281,9.94620028 27.8497277,10.6448745 27.1261009,10.7821141 C26.402474,10.9255919 25.7037997,10.4514915 25.5665601,9.72786458 C24.9988873,6.80840436 21.3807528,4.50028409 17.5629972,4.68119081 C15.5792614,4.77476326 13.7701941,5.53581913 12.3666075,6.93940578 C10.738447,8.56756629 9.67172112,11.0316406 9.31614583,14.337867 C9.2537642,14.9117779 8.82956913,15.3858783 8.26189631,15.4981652 C6.41540009,15.8786932 5.04300426,17.1325639 4.18213778,19.128776 C3.35246212,21.043892 3.07174479,23.5266809 3.37117661,26.0094697 C3.67060843,28.4610677 4.51276042,30.6818537 5.70424953,32.1353456 C6.57759233,33.2020715 7.58193655,33.8009351 8.69856771,33.9007457 C7.80651042,31.0311908 9.16019176,27.4192945 12.117081,24.8866004 C11.4371212,24.0070194 11.0378788,22.8903883 11.0378788,21.6864228 C11.0378788,18.7482481 13.420857,16.3652699 16.3590317,16.3652699 C19.2972064,16.3652699 21.6801847,18.7482481 21.6801847,21.6864228 C21.6801847,24.6245975 19.3034446,27.0075758 16.3590317,27.0075758 C15.5480705,27.0075758 14.7745384,26.826669 14.0821023,26.4960464 C10.9505445,28.9725971 10.201965,31.9856297 11.6679332,33.9756037 C12.4040365,34.9799479 13.5144295,35.597526 14.9741596,35.7534801 C16.6958925,35.9343868 18.8355824,35.4665246 21.3058949,34.2750355 C22.6096709,33.6449811 23.8510653,33.3205966 25.1174124,33.2270241 C26.059375,33.1584044 26.7767637,33.2083097 28.1491596,33.3705019 C28.8977391,33.4578362 29.159742,33.489027 29.5215554,33.5077415 C31.0124763,33.5950758 32.0792022,33.2831676 33.4204072,32.1914891 C34.7241832,31.1310014 35.0797585,29.3406487 34.3374171,26.6083333 C33.7136009,26.864098 33.0336411,27.0075758 32.3162524,27.0075758 C29.3780777,27.0075758 26.9950994,24.6245975 26.9950994,21.6864228 C26.9950994,18.7482481 29.3780777,16.3652699 32.3162524,16.3652699 C35.2544271,16.3652699 37.6374053,18.7482481 37.6374053,21.6864228 C37.6374053,22.8779119 37.244401,23.9758286 36.5831558,24.8616477 C36.5893939,24.8803622 36.5956321,24.8990767 36.6018703,24.911553 C37.9680279,29.0724077 37.5313565,32.2725852 35.0922348,34.256321 C33.2145478,35.7846709 31.4928149,36.283724 29.3656013,36.1651989 C28.9289299,36.1402462 28.6357363,36.1090554 27.8247751,36.015483 C26.6145715,35.8720052 26.0281842,35.8345762 25.2983191,35.8844815 C24.3625947,35.9531013 23.4455848,36.1901515 22.4474787,36.6767282 C20.3327415,37.7060251 18.3302912,38.2861742 16.521224,38.4234138 Z M16.3590317,24.3438802 C17.8312382,24.3438802 19.0227273,23.1523911 19.0227273,21.6801847 C19.0227273,20.2079782 17.8312382,19.0227273 16.3590317,19.0227273 C14.8868253,19.0227273 13.6953362,20.2142164 13.6953362,21.6864228 C13.6953362,23.1586293 14.8930634,24.3438802 16.3590317,24.3438802 Z M48.2984257,27.0075758 C49.7706321,27.0075758 50.9621212,25.8160866 50.9621212,24.3438802 C50.9621212,22.8716738 49.7706321,21.6801847 48.2984257,21.6801847 C46.8262192,21.6801847 45.6347301,22.8716738 45.6347301,24.3438802 C45.6347301,25.8160866 46.8324574,27.0075758 48.2984257,27.0075758 Z M31,60.2756984 C32.4722064,60.2756984 33.6636955,59.0842093 33.6636955,57.6120028 C33.6636955,56.1397964 32.4722064,54.9545455 31,54.9545455 C29.5277936,54.9545455 28.3363045,56.1460346 28.3363045,57.618241 C28.3363045,59.0904474 29.5277936,60.2756984 31,60.2756984 Z" id="形状" fill="#000000" fill-rule="nonzero"></path>
                        <path d="M32.3287287,24.3438802 C33.8009351,24.3438802 34.9924242,23.1523911 34.9924242,21.6801847 C34.9924242,20.2079782 33.8009351,19.0227273 32.3287287,19.0227273 C30.8565223,19.0227273 29.6650331,20.2142164 29.6650331,21.6864228 C29.6650331,23.1586293 30.8627604,24.3438802 32.3287287,24.3438802 Z" id="路径" fill="#2D8EF8" fill-rule="nonzero"></path>
                        <path d="M31,60.2756984 C32.4722064,60.2756984 33.6636955,59.0842093 33.6636955,57.6120028 C33.6636955,56.1397964 32.4722064,54.9545455 31,54.9545455 C29.5277936,54.9545455 28.3363045,56.1460346 28.3363045,57.618241 C28.3363045,59.0904474 29.5277936,60.2756984 31,60.2756984 Z" id="路径" fill="#043EF9"></path>
                    </g>
                </g>
            </g>
        </g>
    </g>
</svg>